<svg aria-roledescription="sankey" role="graphics-document document" viewBox="0 0 800 1000" height="1000" xmlns:xlink="http://www.w3.org/1999/xlink" xmlns="http://www.w3.org/2000/svg" width="800" id="my-svg" style="background-color: white;"><style>#my-svg{font-family:"trebuchet ms",verdana,arial,sans-serif;font-size:33px;fill:#333;}#my-svg .error-icon{fill:hsl(220.5882352941, 100%, 98.3333333333%);}#my-svg .error-text{fill:rgb(8.5000000002, 5.7500000001, 0);stroke:rgb(8.5000000002, 5.7500000001, 0);}#my-svg .edge-thickness-normal{stroke-width:2px;}#my-svg .edge-thickness-thick{stroke-width:3.5px;}#my-svg .edge-pattern-solid{stroke-dasharray:0;}#my-svg .edge-pattern-dashed{stroke-dasharray:3;}#my-svg .edge-pattern-dotted{stroke-dasharray:2;}#my-svg .marker{fill:#0b0b0b;stroke:#0b0b0b;}#my-svg .marker.cross{stroke:#0b0b0b;}#my-svg svg{font-family:"trebuchet ms",verdana,arial,sans-serif;font-size:33px;}#my-svg :root{--mermaid-font-family:"trebuchet ms",verdana,arial,sans-serif;}</style><g/><g class="nodes"><g y="718.4443105517631" x="0" transform="translate(0,718.4443105517631)" id="node-1" class="node"><rect fill="#4e79a7" width="10" height="5.919999999999959"/></g><g y="826.0000000000003" x="263.3333333333333" transform="translate(263.3333333333333,826.0000000000003)" id="node-2" class="node"><rect fill="#f28e2c" width="10" height="5.920000000000073"/></g><g y="908.9599999999996" x="526.6666666666666" transform="translate(526.6666666666666,908.9599999999996)" id="node-3" class="node"><rect fill="#e15759" width="10" height="5.920000000000073"/></g><g y="293.80000000000007" x="790" transform="translate(790,293.80000000000007)" id="node-4" class="node"><rect fill="#76b7b2" width="10" height="152.44"/></g><g y="0" x="790" transform="translate(790,0)" id="node-5" class="node"><rect fill="#59a14f" width="10" height="214.60000000000005"/></g><g y="566.3643105517632" x="0" transform="translate(0,566.3643105517632)" id="node-6" class="node"><rect fill="#edc949" width="10" height="142.07999999999993"/></g><g y="649.4800000000008" x="263.3333333333333" transform="translate(263.3333333333333,649.4800000000008)" id="node-7" class="node"><rect fill="#af7aa1" width="10" height="72.51999999999975"/></g><g y="680.2399999999997" x="526.6666666666666" transform="translate(526.6666666666666,680.2399999999997)" id="node-8" class="node"><rect fill="#ff9da7" width="10" height="59.19999999999993"/></g><g y="224.60000000000005" x="790" transform="translate(790,224.60000000000005)" id="node-9" class="node"><rect fill="#9c755f" width="10" height="59.20000000000002"/></g><g y="456.24000000000007" x="790" transform="translate(790,456.24000000000007)" id="node-10" class="node"><rect fill="#bab0ab" width="10" height="56.23999999999995"/></g><g y="778.6799999999996" x="526.6666666666666" transform="translate(526.6666666666666,778.6799999999996)" id="node-11" class="node"><rect fill="#4e79a7" width="10" height="10.3599999999999"/></g><g y="799.0399999999995" x="526.6666666666666" transform="translate(526.6666666666666,799.0399999999995)" id="node-12" class="node"><rect fill="#f28e2c" width="10" height="5.919999999999959"/></g><g y="0" x="0" transform="translate(0,0)" id="node-13" class="node"><rect fill="#e15759" width="10" height="349.28000000000003"/></g><g y="304.2" x="263.3333333333333" transform="translate(263.3333333333333,304.2)" id="node-14" class="node"><rect fill="#76b7b2" width="10" height="100.64000000000033"/></g><g y="526.6399999999996" x="526.6666666666666" transform="translate(526.6666666666666,526.6399999999996)" id="node-15" class="node"><rect fill="#59a14f" width="10" height="7.400000000000091"/></g><g y="331.23999999999984" x="526.6666666666666" transform="translate(526.6666666666666,331.23999999999984)" id="node-16" class="node"><rect fill="#edc949" width="10" height="5.920000000000016"/></g><g y="360.1199999999999" x="526.6666666666666" transform="translate(526.6666666666666,360.1199999999999)" id="node-17" class="node"><rect fill="#af7aa1" width="10" height="87.31999999999982"/></g><g y="814.4402080061748" x="790" transform="translate(790,814.4402080061748)" id="node-18" class="node"><rect fill="#ff9da7" width="10" height="38.47999999999979"/></g><g y="585.4002080061748" x="790" transform="translate(790,585.4002080061748)" id="node-19" class="node"><rect fill="#9c755f" width="10" height="219.03999999999996"/></g><g y="893.111055613426" x="0" transform="translate(0,893.111055613426)" id="node-20" class="node"><rect fill="#bab0ab" width="10" height="28.11999999999989"/></g><g y="893.9200652477938" x="263.3333333333333" transform="translate(263.3333333333333,893.9200652477938)" id="node-21" class="node"><rect fill="#4e79a7" width="10" height="28.11999999999989"/></g><g y="924.8799999999997" x="526.6666666666666" transform="translate(526.6666666666666,924.8799999999997)" id="node-22" class="node"><rect fill="#f28e2c" width="10" height="28.12000000000012"/></g><g y="359.28000000000003" x="0" transform="translate(0,359.28000000000003)" id="node-23" class="node"><rect fill="#e15759" width="10" height="174.63999999999993"/></g><g y="414.8400000000003" x="263.3333333333333" transform="translate(263.3333333333333,414.8400000000003)" id="node-24" class="node"><rect fill="#76b7b2" width="10" height="59.19999999999999"/></g><g y="457.4399999999997" x="526.6666666666666" transform="translate(526.6666666666666,457.4399999999997)" id="node-25" class="node"><rect fill="#59a14f" width="10" height="59.19999999999993"/></g><g y="197.59999999999994" x="263.3333333333333" transform="translate(263.3333333333333,197.59999999999994)" id="node-26" class="node"><rect fill="#edc949" width="10" height="28.120000000000005"/></g><g y="227.59999999999985" x="526.6666666666666" transform="translate(526.6666666666666,227.59999999999985)" id="node-27" class="node"><rect fill="#af7aa1" width="10" height="28.120000000000005"/></g><g y="553.2400000000005" x="263.3333333333333" transform="translate(263.3333333333333,553.2400000000005)" id="node-28" class="node"><rect fill="#ff9da7" width="10" height="4.440000000000055"/></g><g y="652.8399999999998" x="526.6666666666666" transform="translate(526.6666666666666,652.8399999999998)" id="node-29" class="node"><rect fill="#9c755f" width="10" height="4.440000000000055"/></g><g y="275.31999999999994" x="263.3333333333333" transform="translate(263.3333333333333,275.31999999999994)" id="node-30" class="node"><rect fill="#bab0ab" width="10" height="5.920000000000016"/></g><g y="305.3199999999999" x="526.6666666666666" transform="translate(526.6666666666666,305.3199999999999)" id="node-31" class="node"><rect fill="#4e79a7" width="10" height="2.9599999999999795"/></g><g y="607.2800000000005" x="263.3333333333333" transform="translate(263.3333333333333,607.2800000000005)" id="node-32" class="node"><rect fill="#f28e2c" width="10" height="2.9600000000000364"/></g><g y="667.2799999999999" x="526.6666666666666" transform="translate(526.6666666666666,667.2799999999999)" id="node-33" class="node"><rect fill="#e15759" width="10" height="2.959999999999809"/></g><g y="318.27999999999986" x="526.6666666666666" transform="translate(526.6666666666666,318.27999999999986)" id="node-34" class="node"><rect fill="#76b7b2" width="10" height="2.9599999999999795"/></g><g y="61.799999999999955" x="263.3333333333333" transform="translate(263.3333333333333,61.799999999999955)" id="node-35" class="node"><rect fill="#59a14f" width="10" height="125.79999999999998"/></g><g y="185.03999999999985" x="526.6666666666666" transform="translate(526.6666666666666,185.03999999999985)" id="node-36" class="node"><rect fill="#edc949" width="10" height="32.56"/></g><g y="170.59999999999985" x="526.6666666666666" transform="translate(526.6666666666666,170.59999999999985)" id="node-37" class="node"><rect fill="#af7aa1" width="10" height="4.439999999999998"/></g><g y="71.79999999999993" x="526.6666666666666" transform="translate(526.6666666666666,71.79999999999993)" id="node-38" class="node"><rect fill="#ff9da7" width="10" height="88.79999999999993"/></g><g y="0" x="263.3333333333333" transform="translate(263.3333333333333,0)" id="node-39" class="node"><rect fill="#9c755f" width="10" height="51.799999999999955"/></g><g y="38.11999999999999" x="526.6666666666666" transform="translate(526.6666666666666,38.11999999999999)" id="node-40" class="node"><rect fill="#bab0ab" width="10" height="23.67999999999995"/></g><g y="0" x="526.6666666666666" transform="translate(526.6666666666666,0)" id="node-41" class="node"><rect fill="#4e79a7" width="10" height="28.11999999999999"/></g><g y="567.6800000000005" x="263.3333333333333" transform="translate(263.3333333333333,567.6800000000005)" id="node-42" class="node"><rect fill="#f28e2c" width="10" height="29.600000000000023"/></g><g y="613.2399999999998" x="526.6666666666666" transform="translate(526.6666666666666,613.2399999999998)" id="node-43" class="node"><rect fill="#e15759" width="10" height="29.600000000000023"/></g><g y="746.4400000000006" x="263.3333333333333" transform="translate(263.3333333333333,746.4400000000006)" id="node-44" class="node"><rect fill="#76b7b2" width="10" height="69.55999999999972"/></g><g y="829.3999999999995" x="526.6666666666666" transform="translate(526.6666666666666,829.3999999999995)" id="node-45" class="node"><rect fill="#59a14f" width="10" height="69.56000000000006"/></g><g y="620.2400000000006" x="263.3333333333333" transform="translate(263.3333333333333,620.2400000000006)" id="node-46" class="node"><rect fill="#edc949" width="10" height="19.240000000000236"/></g><g y="749.4399999999996" x="526.6666666666666" transform="translate(526.6666666666666,749.4399999999996)" id="node-47" class="node"><rect fill="#af7aa1" width="10" height="19.24000000000001"/></g><g y="291.23999999999995" x="263.3333333333333" transform="translate(263.3333333333333,291.23999999999995)" id="node-48" class="node"><rect fill="#ff9da7" width="10" height="2.9600000000000364"/></g><g y="347.15999999999985" x="526.6666666666666" transform="translate(526.6666666666666,347.15999999999985)" id="node-49" class="node"><rect fill="#9c755f" width="10" height="2.9600000000000364"/></g><g y="484.0400000000003" x="263.3333333333333" transform="translate(263.3333333333333,484.0400000000003)" id="node-50" class="node"><rect fill="#bab0ab" width="10" height="59.20000000000016"/></g><g y="544.0399999999997" x="526.6666666666666" transform="translate(526.6666666666666,544.0399999999997)" id="node-51" class="node"><rect fill="#4e79a7" width="10" height="59.200000000000045"/></g><g y="235.71999999999994" x="263.3333333333333" transform="translate(263.3333333333333,235.71999999999994)" id="node-52" class="node"><rect fill="#f28e2c" width="10" height="29.599999999999994"/></g><g y="265.71999999999986" x="526.6666666666666" transform="translate(526.6666666666666,265.71999999999986)" id="node-53" class="node"><rect fill="#e15759" width="10" height="29.600000000000023"/></g><g y="931.2310556134258" x="0" transform="translate(0,931.2310556134258)" id="node-54" class="node"><rect fill="#76b7b2" width="10" height="37"/></g><g y="932.0400652477937" x="263.3333333333333" transform="translate(263.3333333333333,932.0400652477937)" id="node-55" class="node"><rect fill="#59a14f" width="10" height="37"/></g><g y="962.9999999999998" x="526.6666666666666" transform="translate(526.6666666666666,962.9999999999998)" id="node-56" class="node"><rect fill="#edc949" width="10" height="37"/></g><g y="732.0000000000006" x="263.3333333333333" transform="translate(263.3333333333333,732.0000000000006)" id="node-57" class="node"><rect fill="#af7aa1" width="10" height="4.440000000000055"/></g><g y="814.9599999999995" x="526.6666666666666" transform="translate(526.6666666666666,814.9599999999995)" id="node-58" class="node"><rect fill="#ff9da7" width="10" height="4.440000000000055"/></g></g><g font-size="14" font-family="sans-serif" class="node-labels"><text text-anchor="start" dy="0.35em" y="721.404310551763" x="16">Sanger</text><text text-anchor="start" dy="0.35em" y="828.9600000000004" x="279.3333333333333">2001</text><text text-anchor="end" dy="0.35em" y="911.9199999999996" x="520.6666666666666">pasqualucci 2001</text><text text-anchor="end" dy="0.35em" y="370.0200000000001" x="784">DLBCL Tier 1</text><text text-anchor="end" dy="0.35em" y="107.30000000000003" x="784">DLBCL Tier 2</text><text text-anchor="start" dy="0.35em" y="637.4043105517632" x="16">RNA-seq/exome</text><text text-anchor="start" dy="0.35em" y="685.7400000000007" x="279.3333333333333">2011</text><text text-anchor="end" dy="0.35em" y="709.8399999999997" x="520.6666666666666">morin 2011</text><text text-anchor="end" dy="0.35em" y="254.20000000000005" x="784">FL Tier 2</text><text text-anchor="end" dy="0.35em" y="484.36" x="784">FL Tier 1</text><text text-anchor="end" dy="0.35em" y="783.8599999999996" x="520.6666666666666">pasqualucci 2011a</text><text text-anchor="end" dy="0.35em" y="801.9999999999995" x="520.6666666666666">pasqualucci 2011b</text><text text-anchor="start" dy="0.35em" y="174.64000000000001" x="16">exome</text><text text-anchor="start" dy="0.35em" y="354.52000000000015" x="279.3333333333333">2012-exome</text><text text-anchor="end" dy="0.35em" y="530.3399999999997" x="520.6666666666666">richter 2012</text><text text-anchor="end" dy="0.35em" y="334.1999999999998" x="520.6666666666666">lohr 2012</text><text text-anchor="end" dy="0.35em" y="403.7799999999998" x="520.6666666666666">love 2012</text><text text-anchor="end" dy="0.35em" y="833.6802080061747" x="784">BL Tier 1</text><text text-anchor="end" dy="0.35em" y="694.9202080061748" x="784">BL Tier 2</text><text text-anchor="start" dy="0.35em" y="907.1710556134259" x="16">RNA-seq</text><text text-anchor="start" dy="0.35em" y="907.9800652477937" x="279.3333333333333">2012-RNA-seq</text><text text-anchor="end" dy="0.35em" y="938.9399999999997" x="520.6666666666666">schmitz 2012</text><text text-anchor="start" dy="0.35em" y="446.6" x="16">WGS</text><text text-anchor="start" dy="0.35em" y="444.4400000000003" x="279.3333333333333">2013-WGS</text><text text-anchor="end" dy="0.35em" y="487.0399999999997" x="520.6666666666666">morin 2013</text><text text-anchor="start" dy="0.35em" y="211.65999999999994" x="279.3333333333333">2013-exome</text><text text-anchor="end" dy="0.35em" y="241.65999999999985" x="520.6666666666666">zhang 2013</text><text text-anchor="start" dy="0.35em" y="555.4600000000005" x="279.3333333333333">2014-exome</text><text text-anchor="end" dy="0.35em" y="655.0599999999998" x="520.6666666666666">muppidi 2014</text><text text-anchor="start" dy="0.35em" y="278.28" x="279.3333333333333">2016-exome</text><text text-anchor="end" dy="0.35em" y="306.79999999999984" x="520.6666666666666">mareschal 2016</text><text text-anchor="start" dy="0.35em" y="608.7600000000006" x="279.3333333333333">2016-WGS</text><text text-anchor="end" dy="0.35em" y="668.7599999999998" x="520.6666666666666">okosun 2016</text><text text-anchor="end" dy="0.35em" y="319.7599999999999" x="520.6666666666666">morin 2016</text><text text-anchor="start" dy="0.35em" y="124.69999999999995" x="279.3333333333333">2017-exome</text><text text-anchor="end" dy="0.35em" y="201.31999999999985" x="520.6666666666666">krysiak 2017</text><text text-anchor="end" dy="0.35em" y="172.81999999999985" x="520.6666666666666">albuquerque 2017</text><text text-anchor="end" dy="0.35em" y="116.19999999999989" x="520.6666666666666">reddy 2017</text><text text-anchor="start" dy="0.35em" y="25.899999999999977" x="279.3333333333333">2018-exome</text><text text-anchor="end" dy="0.35em" y="49.959999999999965" x="520.6666666666666">schmitz 2018</text><text text-anchor="end" dy="0.35em" y="14.059999999999995" x="520.6666666666666">chapuy 2018</text><text text-anchor="start" dy="0.35em" y="582.4800000000005" x="279.3333333333333">2018-WGS</text><text text-anchor="end" dy="0.35em" y="628.0399999999997" x="520.6666666666666">arthur 2018</text><text text-anchor="start" dy="0.35em" y="781.2200000000005" x="279.3333333333333">2019-RNA-seq/exome</text><text text-anchor="end" dy="0.35em" y="864.1799999999996" x="520.6666666666666">panea 2019</text><text text-anchor="start" dy="0.35em" y="629.8600000000007" x="279.3333333333333">2019-WGS</text><text text-anchor="end" dy="0.35em" y="759.0599999999996" x="520.6666666666666">grande 2019</text><text text-anchor="start" dy="0.35em" y="292.71999999999997" x="279.3333333333333">2020-exome</text><text text-anchor="end" dy="0.35em" y="348.6399999999999" x="520.6666666666666">pararajalingam 2020</text><text text-anchor="start" dy="0.35em" y="513.6400000000003" x="279.3333333333333">2021-WGS</text><text text-anchor="end" dy="0.35em" y="573.6399999999998" x="520.6666666666666">hubschmann 2021</text><text text-anchor="start" dy="0.35em" y="250.51999999999992" x="279.3333333333333">2023-exome</text><text text-anchor="end" dy="0.35em" y="280.51999999999987" x="520.6666666666666">russler 2023</text><text text-anchor="start" dy="0.35em" y="949.7310556134258" x="16">Panel</text><text text-anchor="start" dy="0.35em" y="950.5400652477937" x="279.3333333333333">2022-panel</text><text text-anchor="end" dy="0.35em" y="981.4999999999998" x="520.6666666666666">burkhardt 2022</text><text text-anchor="start" dy="0.35em" y="734.2200000000006" x="279.3333333333333">2023-WGS</text><text text-anchor="end" dy="0.35em" y="817.1799999999995" x="520.6666666666666">thomas 2023</text></g><g stroke-opacity="0.5" fill="none" class="links"><g style="mix-blend-mode: multiply;" class="link"><path stroke-width="5.92" stroke="#f28e2c" d="M10,721.4043105517632C136.66666666666666,721.4043105517632,136.66666666666666,828.9600000000004,263.3333333333333,828.9600000000004"/></g><g style="mix-blend-mode: multiply;" class="link"><path stroke-width="5.92" stroke="#e15759" d="M273.3333333333333,828.9600000000004C400,828.9600000000004,400,911.9199999999996,526.6666666666666,911.9199999999996"/></g><g style="mix-blend-mode: multiply;" class="link"><path stroke-width="4.4399999999999995" stroke="#76b7b2" d="M536.6666666666666,912.6599999999996C663.3333333333333,912.6599999999996,663.3333333333333,444.0199999999999,790,444.0199999999999"/></g><g style="mix-blend-mode: multiply;" class="link"><path stroke-width="1.48" stroke="#59a14f" d="M536.6666666666666,909.6999999999996C663.3333333333333,909.6999999999996,663.3333333333333,213.86,790,213.86"/></g><g style="mix-blend-mode: multiply;" class="link"><path stroke-width="72.52" stroke="#af7aa1" d="M10,602.6243105517632C136.66666666666666,602.6243105517632,136.66666666666666,685.7400000000008,263.3333333333333,685.7400000000008"/></g><g style="mix-blend-mode: multiply;" class="link"><path stroke-width="37" stroke="#ff9da7" d="M273.3333333333333,667.9800000000008C400,667.9800000000008,400,698.7399999999997,526.6666666666666,698.7399999999997"/></g><g style="mix-blend-mode: multiply;" class="link"><path stroke-width="37" stroke="#76b7b2" d="M536.6666666666666,700.2199999999997C663.3333333333333,700.2199999999997,663.3333333333333,412.93999999999994,790,412.93999999999994"/></g><g style="mix-blend-mode: multiply;" class="link"><path stroke-width="22.2" stroke="#ff9da7" d="M273.3333333333333,697.5800000000008C400,697.5800000000008,400,728.3399999999997,526.6666666666666,728.3399999999997"/></g><g style="mix-blend-mode: multiply;" class="link"><path stroke-width="1.48" stroke="#9c755f" d="M536.6666666666666,680.9799999999997C663.3333333333333,680.9799999999997,663.3333333333333,283.06000000000006,790,283.06000000000006"/></g><g style="mix-blend-mode: multiply;" class="link"><path stroke-width="20.72" stroke="#bab0ab" d="M536.6666666666666,729.0799999999997C663.3333333333333,729.0799999999997,663.3333333333333,499.1600000000001,790,499.1600000000001"/></g><g style="mix-blend-mode: multiply;" class="link"><path stroke-width="10.36" stroke="#4e79a7" d="M273.3333333333333,713.8600000000008C400,713.8600000000008,400,783.8599999999996,526.6666666666666,783.8599999999996"/></g><g style="mix-blend-mode: multiply;" class="link"><path stroke-width="7.4" stroke="#76b7b2" d="M536.6666666666666,785.3399999999997C663.3333333333333,785.3399999999997,663.3333333333333,435.13999999999993,790,435.13999999999993"/></g><g style="mix-blend-mode: multiply;" class="link"><path stroke-width="2.96" stroke="#59a14f" d="M536.6666666666666,780.1599999999996C663.3333333333333,780.1599999999996,663.3333333333333,211.64,790,211.64"/></g><g style="mix-blend-mode: multiply;" class="link"><path stroke-width="2.96" stroke="#f28e2c" d="M273.3333333333333,720.5200000000009C400,720.5200000000009,400,800.5199999999995,526.6666666666666,800.5199999999995"/></g><g style="mix-blend-mode: multiply;" class="link"><path stroke-width="2.96" stroke="#bab0ab" d="M536.6666666666666,803.4799999999996C663.3333333333333,803.4799999999996,663.3333333333333,511.0000000000001,790,511.0000000000001"/></g><g style="mix-blend-mode: multiply;" class="link"><path stroke-width="2.96" stroke="#76b7b2" d="M536.6666666666666,800.5199999999995C663.3333333333333,800.5199999999995,663.3333333333333,440.31999999999994,790,440.31999999999994"/></g><g style="mix-blend-mode: multiply;" class="link"><path stroke-width="100.64" stroke="#76b7b2" d="M10,294.52000000000004C136.66666666666666,294.52000000000004,136.66666666666666,354.52,263.3333333333333,354.52"/></g><g style="mix-blend-mode: multiply;" class="link"><path stroke-width="7.4" stroke="#59a14f" d="M273.3333333333333,401.14C400,401.14,400,530.3399999999997,526.6666666666666,530.3399999999997"/></g><g style="mix-blend-mode: multiply;" class="link"><path stroke-width="5.92" stroke="#edc949" d="M273.3333333333333,307.15999999999997C400,307.15999999999997,400,334.1999999999998,526.6666666666666,334.1999999999998"/></g><g style="mix-blend-mode: multiply;" class="link"><path stroke-width="87.32" stroke="#af7aa1" d="M273.3333333333333,353.78C400,353.78,400,403.77999999999986,526.6666666666666,403.77999999999986"/></g><g style="mix-blend-mode: multiply;" class="link"><path stroke-width="7.4" stroke="#ff9da7" d="M536.6666666666666,530.3399999999997C663.3333333333333,530.3399999999997,663.3333333333333,822.5802080061749,790,822.5802080061749"/></g><g style="mix-blend-mode: multiply;" class="link"><path stroke-width="1.48" stroke="#59a14f" d="M536.6666666666666,331.97999999999985C663.3333333333333,331.97999999999985,663.3333333333333,120.61999999999999,790,120.61999999999999"/></g><g style="mix-blend-mode: multiply;" class="link"><path stroke-width="4.4399999999999995" stroke="#76b7b2" d="M536.6666666666666,334.9399999999999C663.3333333333333,334.9399999999999,663.3333333333333,355.22,790,355.22"/></g><g style="mix-blend-mode: multiply;" class="link"><path stroke-width="4.4399999999999995" stroke="#ff9da7" d="M536.6666666666666,445.2199999999999C663.3333333333333,445.2199999999999,663.3333333333333,816.6602080061748,790,816.6602080061748"/></g><g style="mix-blend-mode: multiply;" class="link"><path stroke-width="82.88" stroke="#9c755f" d="M536.6666666666666,401.5599999999999C663.3333333333333,401.5599999999999,663.3333333333333,626.8402080061749,790,626.8402080061749"/></g><g style="mix-blend-mode: multiply;" class="link"><path stroke-width="28.12" stroke="#4e79a7" d="M10,907.1710556134259C136.66666666666666,907.1710556134259,136.66666666666666,907.9800652477937,263.3333333333333,907.9800652477937"/></g><g style="mix-blend-mode: multiply;" class="link"><path stroke-width="28.12" stroke="#f28e2c" d="M273.3333333333333,907.9800652477937C400,907.9800652477937,400,938.9399999999996,526.6666666666666,938.9399999999996"/></g><g style="mix-blend-mode: multiply;" class="link"><path stroke-width="4.4399999999999995" stroke="#ff9da7" d="M536.6666666666666,950.7799999999996C663.3333333333333,950.7799999999996,663.3333333333333,850.7002080061749,790,850.7002080061749"/></g><g style="mix-blend-mode: multiply;" class="link"><path stroke-width="23.68" stroke="#9c755f" d="M536.6666666666666,936.7199999999997C663.3333333333333,936.7199999999997,663.3333333333333,755.6002080061749,790,755.6002080061749"/></g><g style="mix-blend-mode: multiply;" class="link"><path stroke-width="59.2" stroke="#76b7b2" d="M10,388.88000000000005C136.66666666666666,388.88000000000005,136.66666666666666,444.44000000000034,263.3333333333333,444.44000000000034"/></g><g style="mix-blend-mode: multiply;" class="link"><path stroke-width="59.2" stroke="#59a14f" d="M273.3333333333333,444.44000000000034C400,444.44000000000034,400,487.03999999999974,526.6666666666666,487.03999999999974"/></g><g style="mix-blend-mode: multiply;" class="link"><path stroke-width="42.92" stroke="#59a14f" d="M536.6666666666666,478.8999999999997C663.3333333333333,478.8999999999997,663.3333333333333,142.82,790,142.82"/></g><g style="mix-blend-mode: multiply;" class="link"><path stroke-width="16.28" stroke="#76b7b2" d="M536.6666666666666,508.4999999999997C663.3333333333333,508.4999999999997,663.3333333333333,368.53999999999996,790,368.53999999999996"/></g><g style="mix-blend-mode: multiply;" class="link"><path stroke-width="28.12" stroke="#edc949" d="M10,191.66C136.66666666666666,191.66,136.66666666666666,211.65999999999994,263.3333333333333,211.65999999999994"/></g><g style="mix-blend-mode: multiply;" class="link"><path stroke-width="28.12" stroke="#af7aa1" d="M273.3333333333333,211.65999999999994C400,211.65999999999994,400,241.65999999999985,526.6666666666666,241.65999999999985"/></g><g style="mix-blend-mode: multiply;" class="link"><path stroke-width="16.28" stroke="#76b7b2" d="M536.6666666666666,247.57999999999987C663.3333333333333,247.57999999999987,663.3333333333333,338.94000000000005,790,338.94000000000005"/></g><g style="mix-blend-mode: multiply;" class="link"><path stroke-width="11.84" stroke="#59a14f" d="M536.6666666666666,233.51999999999984C663.3333333333333,233.51999999999984,663.3333333333333,113.96,790,113.96"/></g><g style="mix-blend-mode: multiply;" class="link"><path stroke-width="4.4399999999999995" stroke="#ff9da7" d="M10,347.06000000000006C136.66666666666666,347.06000000000006,136.66666666666666,555.4600000000005,263.3333333333333,555.4600000000005"/></g><g style="mix-blend-mode: multiply;" class="link"><path stroke-width="4.4399999999999995" stroke="#9c755f" d="M273.3333333333333,555.4600000000005C400,555.4600000000005,400,655.0599999999998,526.6666666666666,655.0599999999998"/></g><g style="mix-blend-mode: multiply;" class="link"><path stroke-width="1.48" stroke="#ff9da7" d="M536.6666666666666,656.5399999999998C663.3333333333333,656.5399999999998,663.3333333333333,827.0202080061748,790,827.0202080061748"/></g><g style="mix-blend-mode: multiply;" class="link"><path stroke-width="2.96" stroke="#9c755f" d="M536.6666666666666,654.3199999999998C663.3333333333333,654.3199999999998,663.3333333333333,669.7602080061748,790,669.7602080061748"/></g><g style="mix-blend-mode: multiply;" class="link"><path stroke-width="2.96" stroke="#bab0ab" d="M10,236.79999999999998C136.66666666666666,236.79999999999998,136.66666666666666,276.79999999999995,263.3333333333333,276.79999999999995"/></g><g style="mix-blend-mode: multiply;" class="link"><path stroke-width="2.96" stroke="#4e79a7" d="M273.3333333333333,276.79999999999995C400,276.79999999999995,400,306.7999999999999,526.6666666666666,306.7999999999999"/></g><g style="mix-blend-mode: multiply;" class="link"><path stroke-width="2.96" stroke="#76b7b2" d="M536.6666666666666,306.7999999999999C663.3333333333333,306.7999999999999,663.3333333333333,348.56000000000006,790,348.56000000000006"/></g><g style="mix-blend-mode: multiply;" class="link"><path stroke-width="2.96" stroke="#f28e2c" d="M10,508.76000000000005C136.66666666666666,508.76000000000005,136.66666666666666,608.7600000000006,263.3333333333333,608.7600000000006"/></g><g style="mix-blend-mode: multiply;" class="link"><path stroke-width="2.96" stroke="#e15759" d="M273.3333333333333,608.7600000000006C400,608.7600000000006,400,668.7599999999999,526.6666666666666,668.7599999999999"/></g><g style="mix-blend-mode: multiply;" class="link"><path stroke-width="2.96" stroke="#bab0ab" d="M536.6666666666666,668.7599999999999C663.3333333333333,668.7599999999999,663.3333333333333,487.3200000000001,790,487.3200000000001"/></g><g style="mix-blend-mode: multiply;" class="link"><path stroke-width="2.96" stroke="#bab0ab" d="M10,239.76C136.66666666666666,239.76,136.66666666666666,279.75999999999993,263.3333333333333,279.75999999999993"/></g><g style="mix-blend-mode: multiply;" class="link"><path stroke-width="2.96" stroke="#76b7b2" d="M273.3333333333333,279.75999999999993C400,279.75999999999993,400,319.7599999999999,526.6666666666666,319.7599999999999"/></g><g style="mix-blend-mode: multiply;" class="link"><path stroke-width="2.96" stroke="#76b7b2" d="M536.6666666666666,319.7599999999999C663.3333333333333,319.7599999999999,663.3333333333333,351.52000000000004,790,351.52000000000004"/></g><g style="mix-blend-mode: multiply;" class="link"><path stroke-width="125.8" stroke="#59a14f" d="M10,114.69999999999999C136.66666666666666,114.69999999999999,136.66666666666666,124.69999999999996,263.3333333333333,124.69999999999996"/></g><g style="mix-blend-mode: multiply;" class="link"><path stroke-width="32.56" stroke="#edc949" d="M273.3333333333333,171.31999999999996C400,171.31999999999996,400,201.31999999999985,526.6666666666666,201.31999999999985"/></g><g style="mix-blend-mode: multiply;" class="link"><path stroke-width="7.4" stroke="#9c755f" d="M536.6666666666666,188.73999999999984C663.3333333333333,188.73999999999984,663.3333333333333,228.30000000000004,790,228.30000000000004"/></g><g style="mix-blend-mode: multiply;" class="link"><path stroke-width="25.16" stroke="#bab0ab" d="M536.6666666666666,205.01999999999987C663.3333333333333,205.01999999999987,663.3333333333333,468.82000000000005,790,468.82000000000005"/></g><g style="mix-blend-mode: multiply;" class="link"><path stroke-width="4.4399999999999995" stroke="#af7aa1" d="M273.3333333333333,152.81999999999996C400,152.81999999999996,400,172.81999999999985,526.6666666666666,172.81999999999985"/></g><g style="mix-blend-mode: multiply;" class="link"><path stroke-width="4.4399999999999995" stroke="#76b7b2" d="M536.6666666666666,172.81999999999985C663.3333333333333,172.81999999999985,663.3333333333333,328.5800000000001,790,328.5800000000001"/></g><g style="mix-blend-mode: multiply;" class="link"><path stroke-width="88.8" stroke="#ff9da7" d="M273.3333333333333,106.19999999999996C400,106.19999999999996,400,116.19999999999993,526.6666666666666,116.19999999999993"/></g><g style="mix-blend-mode: multiply;" class="link"><path stroke-width="74" stroke="#59a14f" d="M536.6666666666666,108.79999999999993C663.3333333333333,108.79999999999993,663.3333333333333,71.03999999999999,790,71.03999999999999"/></g><g style="mix-blend-mode: multiply;" class="link"><path stroke-width="14.8" stroke="#76b7b2" d="M536.6666666666666,153.19999999999993C663.3333333333333,153.19999999999993,663.3333333333333,318.96000000000004,790,318.96000000000004"/></g><g style="mix-blend-mode: multiply;" class="link"><path stroke-width="51.8" stroke="#9c755f" d="M10,25.9C136.66666666666666,25.9,136.66666666666666,25.9,263.3333333333333,25.9"/></g><g style="mix-blend-mode: multiply;" class="link"><path stroke-width="23.68" stroke="#bab0ab" d="M273.3333333333333,39.96C400,39.96,400,49.959999999999994,526.6666666666666,49.959999999999994"/></g><g style="mix-blend-mode: multiply;" class="link"><path stroke-width="10.36" stroke="#59a14f" d="M536.6666666666666,43.29999999999999C663.3333333333333,43.29999999999999,663.3333333333333,28.86,790,28.86"/></g><g style="mix-blend-mode: multiply;" class="link"><path stroke-width="13.32" stroke="#76b7b2" d="M536.6666666666666,55.139999999999986C663.3333333333333,55.139999999999986,663.3333333333333,304.9000000000001,790,304.9000000000001"/></g><g style="mix-blend-mode: multiply;" class="link"><path stroke-width="28.12" stroke="#4e79a7" d="M273.3333333333333,14.06C400,14.06,400,14.06,526.6666666666666,14.06"/></g><g style="mix-blend-mode: multiply;" class="link"><path stroke-width="23.68" stroke="#59a14f" d="M536.6666666666666,11.84C663.3333333333333,11.84,663.3333333333333,11.84,790,11.84"/></g><g style="mix-blend-mode: multiply;" class="link"><path stroke-width="4.4399999999999995" stroke="#76b7b2" d="M536.6666666666666,25.9C663.3333333333333,25.9,663.3333333333333,296.0200000000001,790,296.0200000000001"/></g><g style="mix-blend-mode: multiply;" class="link"><path stroke-width="29.6" stroke="#f28e2c" d="M10,492.48C136.66666666666666,492.48,136.66666666666666,582.4800000000005,263.3333333333333,582.4800000000005"/></g><g style="mix-blend-mode: multiply;" class="link"><path stroke-width="29.6" stroke="#e15759" d="M273.3333333333333,582.4800000000005C400,582.4800000000005,400,628.0399999999997,526.6666666666666,628.0399999999997"/></g><g style="mix-blend-mode: multiply;" class="link"><path stroke-width="17.759999999999998" stroke="#59a14f" d="M536.6666666666666,622.1199999999998C663.3333333333333,622.1199999999998,663.3333333333333,201.28,790,201.28"/></g><g style="mix-blend-mode: multiply;" class="link"><path stroke-width="11.84" stroke="#76b7b2" d="M536.6666666666666,636.9199999999997C663.3333333333333,636.9199999999997,663.3333333333333,388.52,790,388.52"/></g><g style="mix-blend-mode: multiply;" class="link"><path stroke-width="69.56" stroke="#76b7b2" d="M10,673.6643105517632C136.66666666666666,673.6643105517632,136.66666666666666,781.2200000000006,263.3333333333333,781.2200000000006"/></g><g style="mix-blend-mode: multiply;" class="link"><path stroke-width="69.56" stroke="#59a14f" d="M273.3333333333333,781.2200000000006C400,781.2200000000006,400,864.1799999999995,526.6666666666666,864.1799999999995"/></g><g style="mix-blend-mode: multiply;" class="link"><path stroke-width="63.64" stroke="#9c755f" d="M536.6666666666666,861.2199999999996C663.3333333333333,861.2199999999996,663.3333333333333,711.9402080061749,790,711.9402080061749"/></g><g style="mix-blend-mode: multiply;" class="link"><path stroke-width="5.92" stroke="#ff9da7" d="M536.6666666666666,895.9999999999995C663.3333333333333,895.9999999999995,663.3333333333333,845.5202080061749,790,845.5202080061749"/></g><g style="mix-blend-mode: multiply;" class="link"><path stroke-width="19.24" stroke="#edc949" d="M10,519.86C136.66666666666666,519.86,136.66666666666666,629.8600000000006,263.3333333333333,629.8600000000006"/></g><g style="mix-blend-mode: multiply;" class="link"><path stroke-width="19.24" stroke="#af7aa1" d="M273.3333333333333,629.8600000000006C400,629.8600000000006,400,759.0599999999996,526.6666666666666,759.0599999999996"/></g><g style="mix-blend-mode: multiply;" class="link"><path stroke-width="11.84" stroke="#ff9da7" d="M536.6666666666666,762.7599999999995C663.3333333333333,762.7599999999995,663.3333333333333,833.6802080061748,790,833.6802080061748"/></g><g style="mix-blend-mode: multiply;" class="link"><path stroke-width="7.4" stroke="#9c755f" d="M536.6666666666666,753.1399999999996C663.3333333333333,753.1399999999996,663.3333333333333,674.9402080061749,790,674.9402080061749"/></g><g style="mix-blend-mode: multiply;" class="link"><path stroke-width="2.96" stroke="#ff9da7" d="M10,242.72C136.66666666666666,242.72,136.66666666666666,292.71999999999997,263.3333333333333,292.71999999999997"/></g><g style="mix-blend-mode: multiply;" class="link"><path stroke-width="2.96" stroke="#9c755f" d="M273.3333333333333,292.71999999999997C400,292.71999999999997,400,348.6399999999999,526.6666666666666,348.6399999999999"/></g><g style="mix-blend-mode: multiply;" class="link"><path stroke-width="2.96" stroke="#76b7b2" d="M536.6666666666666,348.6399999999999C663.3333333333333,348.6399999999999,663.3333333333333,358.92,790,358.92"/></g><g style="mix-blend-mode: multiply;" class="link"><path stroke-width="59.2" stroke="#bab0ab" d="M10,448.08000000000004C136.66666666666666,448.08000000000004,136.66666666666666,513.6400000000003,263.3333333333333,513.6400000000003"/></g><g style="mix-blend-mode: multiply;" class="link"><path stroke-width="25.16" stroke="#4e79a7" d="M273.3333333333333,496.6200000000003C400,496.6200000000003,400,556.6199999999998,526.6666666666666,556.6199999999998"/></g><g style="mix-blend-mode: multiply;" class="link"><path stroke-width="34.04" stroke="#4e79a7" d="M273.3333333333333,526.2200000000004C400,526.2200000000004,400,586.2199999999997,526.6666666666666,586.2199999999997"/></g><g style="mix-blend-mode: multiply;" class="link"><path stroke-width="22.2" stroke="#9c755f" d="M536.6666666666666,583.2599999999998C663.3333333333333,583.2599999999998,663.3333333333333,271.2200000000001,790,271.2200000000001"/></g><g style="mix-blend-mode: multiply;" class="link"><path stroke-width="2.96" stroke="#bab0ab" d="M536.6666666666666,601.7599999999998C663.3333333333333,601.7599999999998,663.3333333333333,484.3600000000001,790,484.3600000000001"/></g><g style="mix-blend-mode: multiply;" class="link"><path stroke-width="5.92" stroke="#76b7b2" d="M536.6666666666666,597.3199999999998C663.3333333333333,597.3199999999998,663.3333333333333,379.63999999999993,790,379.63999999999993"/></g><g style="mix-blend-mode: multiply;" class="link"><path stroke-width="28.12" stroke="#59a14f" d="M536.6666666666666,558.0999999999997C663.3333333333333,558.0999999999997,663.3333333333333,178.34,790,178.34"/></g><g style="mix-blend-mode: multiply;" class="link"><path stroke-width="29.6" stroke="#f28e2c" d="M10,220.52C136.66666666666666,220.52,136.66666666666666,250.51999999999995,263.3333333333333,250.51999999999995"/></g><g style="mix-blend-mode: multiply;" class="link"><path stroke-width="29.6" stroke="#e15759" d="M273.3333333333333,250.51999999999995C400,250.51999999999995,400,280.51999999999987,526.6666666666666,280.51999999999987"/></g><g style="mix-blend-mode: multiply;" class="link"><path stroke-width="1.48" stroke="#bab0ab" d="M536.6666666666666,294.57999999999987C663.3333333333333,294.57999999999987,663.3333333333333,482.1400000000001,790,482.1400000000001"/></g><g style="mix-blend-mode: multiply;" class="link"><path stroke-width="28.12" stroke="#9c755f" d="M536.6666666666666,279.77999999999986C663.3333333333333,279.77999999999986,663.3333333333333,246.06000000000006,790,246.06000000000006"/></g><g style="mix-blend-mode: multiply;" class="link"><path stroke-width="37" stroke="#59a14f" d="M10,949.7310556134258C136.66666666666666,949.7310556134258,136.66666666666666,950.5400652477937,263.3333333333333,950.5400652477937"/></g><g style="mix-blend-mode: multiply;" class="link"><path stroke-width="37" stroke="#edc949" d="M273.3333333333333,950.5400652477937C400,950.5400652477937,400,981.4999999999998,526.6666666666666,981.4999999999998"/></g><g style="mix-blend-mode: multiply;" class="link"><path stroke-width="37" stroke="#9c755f" d="M536.6666666666666,981.4999999999998C663.3333333333333,981.4999999999998,663.3333333333333,785.9402080061748,790,785.9402080061748"/></g><g style="mix-blend-mode: multiply;" class="link"><path stroke-width="4.4399999999999995" stroke="#af7aa1" d="M10,531.7C136.66666666666666,531.7,136.66666666666666,734.2200000000006,263.3333333333333,734.2200000000006"/></g><g style="mix-blend-mode: multiply;" class="link"><path stroke-width="4.4399999999999995" stroke="#ff9da7" d="M273.3333333333333,734.2200000000006C400,734.2200000000006,400,817.1799999999995,526.6666666666666,817.1799999999995"/></g><g style="mix-blend-mode: multiply;" class="link"><path stroke-width="1.48" stroke="#9c755f" d="M536.6666666666666,815.6999999999995C663.3333333333333,815.6999999999995,663.3333333333333,679.3802080061748,790,679.3802080061748"/></g><g style="mix-blend-mode: multiply;" class="link"><path stroke-width="2.96" stroke="#ff9da7" d="M536.6666666666666,817.9199999999995C663.3333333333333,817.9199999999995,663.3333333333333,841.0802080061749,790,841.0802080061749"/></g></g></svg>