<svg aria-roledescription="sankey" role="graphics-document document" viewBox="0 0 800 1000" height="1000" xmlns:xlink="http://www.w3.org/1999/xlink" xmlns="http://www.w3.org/2000/svg" width="800" id="my-svg" style="background-color: white;"><style>#my-svg{font-family:"trebuchet ms",verdana,arial,sans-serif;font-size:33px;fill:#333;}#my-svg .error-icon{fill:hsl(220.5882352941, 100%, 98.3333333333%);}#my-svg .error-text{fill:rgb(8.5000000002, 5.7500000001, 0);stroke:rgb(8.5000000002, 5.7500000001, 0);}#my-svg .edge-thickness-normal{stroke-width:2px;}#my-svg .edge-thickness-thick{stroke-width:3.5px;}#my-svg .edge-pattern-solid{stroke-dasharray:0;}#my-svg .edge-pattern-dashed{stroke-dasharray:3;}#my-svg .edge-pattern-dotted{stroke-dasharray:2;}#my-svg .marker{fill:#0b0b0b;stroke:#0b0b0b;}#my-svg .marker.cross{stroke:#0b0b0b;}#my-svg svg{font-family:"trebuchet ms",verdana,arial,sans-serif;font-size:33px;}#my-svg :root{--mermaid-font-family:"trebuchet ms",verdana,arial,sans-serif;}</style><g/><g class="nodes"><g y="0" x="0" transform="translate(0,0)" id="node-1" class="node"><rect fill="#4e79a7" width="10" height="351.812865497076"/></g><g y="0" x="263.3333333333333" transform="translate(263.3333333333333,0)" id="node-2" class="node"><rect fill="#f28e2c" width="10" height="351.81286549707585"/></g><g y="334.3274853801171" x="526.6666666666666" transform="translate(526.6666666666666,334.3274853801171)" id="node-3" class="node"><rect fill="#e15759" width="10" height="27.48538011695905"/></g><g y="0" x="526.6666666666666" transform="translate(526.6666666666666,0)" id="node-4" class="node"><rect fill="#76b7b2" width="10" height="324.3274853801171"/></g><g y="812.5730994152048" x="790" transform="translate(790,812.5730994152048)" id="node-5" class="node"><rect fill="#59a14f" width="10" height="137.42690058479525"/></g><g y="0" x="790" transform="translate(790,0)" id="node-6" class="node"><rect fill="#edc949" width="10" height="802.5730994152048"/></g><g y="361.812865497076" x="0" transform="translate(0,361.812865497076)" id="node-7" class="node"><rect fill="#af7aa1" width="10" height="104.44444444444446"/></g><g y="361.812865497076" x="263.3333333333333" transform="translate(263.3333333333333,361.812865497076)" id="node-8" class="node"><rect fill="#ff9da7" width="10" height="104.44444444444446"/></g><g y="371.81286549707613" x="526.6666666666666" transform="translate(526.6666666666666,371.81286549707613)" id="node-9" class="node"><rect fill="#9c755f" width="10" height="104.44444444444434"/></g><g y="476.2573099415205" x="0" transform="translate(0,476.2573099415205)" id="node-10" class="node"><rect fill="#bab0ab" width="10" height="258.36257309941504"/></g><g y="476.2573099415204" x="263.3333333333333" transform="translate(263.3333333333333,476.2573099415204)" id="node-11" class="node"><rect fill="#4e79a7" width="10" height="258.3625730994152"/></g><g y="486.2573099415205" x="526.6666666666666" transform="translate(526.6666666666666,486.2573099415205)" id="node-12" class="node"><rect fill="#f28e2c" width="10" height="258.3625730994155"/></g><g y="900.4292039598984" x="0" transform="translate(0,900.4292039598984)" id="node-13" class="node"><rect fill="#e15759" width="10" height="87.953216374269"/></g><g y="895.6853087501072" x="263.3333333333333" transform="translate(263.3333333333333,895.6853087501072)" id="node-14" class="node"><rect fill="#76b7b2" width="10" height="71.46198830409367"/></g><g y="902.0467836257315" x="526.6666666666666" transform="translate(526.6666666666666,902.0467836257315)" id="node-15" class="node"><rect fill="#59a14f" width="10" height="71.4619883040939"/></g><g y="744.6198830409355" x="0" transform="translate(0,744.6198830409355)" id="node-16" class="node"><rect fill="#edc949" width="10" height="137.42690058479525"/></g><g y="744.6198830409355" x="263.3333333333333" transform="translate(263.3333333333333,744.6198830409355)" id="node-17" class="node"><rect fill="#af7aa1" width="10" height="137.42690058479525"/></g><g y="754.619883040936" x="526.6666666666666" transform="translate(526.6666666666666,754.619883040936)" id="node-18" class="node"><rect fill="#ff9da7" width="10" height="137.42690058479548"/></g><g y="977.1472970542007" x="263.3333333333333" transform="translate(263.3333333333333,977.1472970542007)" id="node-19" class="node"><rect fill="#9c755f" width="10" height="16.491228070175566"/></g><g y="983.5087719298253" x="526.6666666666666" transform="translate(526.6666666666666,983.5087719298253)" id="node-20" class="node"><rect fill="#bab0ab" width="10" height="16.491228070175566"/></g></g><g font-size="14" font-family="sans-serif" class="node-labels"><text text-anchor="start" dy="0.35em" y="175.906432748538" x="16">exome</text><text text-anchor="start" dy="0.35em" y="175.90643274853792" x="279.3333333333333">2012 exome studies</text><text text-anchor="end" dy="0.35em" y="348.0701754385966" x="520.6666666666666">Richter 2012</text><text text-anchor="end" dy="0.35em" y="162.16374269005854" x="520.6666666666666">Love 2012</text><text text-anchor="end" dy="0.35em" y="881.2865497076024" x="784">Tier 1 BL genes</text><text text-anchor="end" dy="0.35em" y="401.2865497076024" x="784">Tier 2 BL genes</text><text text-anchor="start" dy="0.35em" y="414.03508771929825" x="16">RNA-seq</text><text text-anchor="start" dy="0.35em" y="414.03508771929825" x="279.3333333333333">2012 RNA-seq studies</text><text text-anchor="end" dy="0.35em" y="424.0350877192983" x="520.6666666666666">Schmitz 2012</text><text text-anchor="start" dy="0.35em" y="605.438596491228" x="16">RNA-seq/exome</text><text text-anchor="start" dy="0.35em" y="605.438596491228" x="279.3333333333333">RNA-seq/exome studies</text><text text-anchor="end" dy="0.35em" y="615.4385964912283" x="520.6666666666666">Panea 2019</text><text text-anchor="start" dy="0.35em" y="944.4058121470329" x="16">WGS</text><text text-anchor="start" dy="0.35em" y="931.416302902154" x="279.3333333333333">2019 WGS studies</text><text text-anchor="end" dy="0.35em" y="937.7777777777784" x="520.6666666666666">Grande 2019</text><text text-anchor="start" dy="0.35em" y="813.3333333333331" x="16">Panel</text><text text-anchor="start" dy="0.35em" y="813.3333333333331" x="279.3333333333333">2022 panel studies</text><text text-anchor="end" dy="0.35em" y="823.3333333333337" x="520.6666666666666">Burkhardt 2022</text><text text-anchor="start" dy="0.35em" y="985.3929110892885" x="279.3333333333333">2023 WGS studies</text><text text-anchor="end" dy="0.35em" y="991.7543859649131" x="520.6666666666666">Thomas 2023</text></g><g stroke-opacity="0.5" fill="none" class="links"><g style="mix-blend-mode: multiply;" class="link"><path stroke-width="351.812865497076" stroke="#f28e2c" d="M10,175.906432748538C136.66666666666666,175.906432748538,136.66666666666666,175.906432748538,263.3333333333333,175.906432748538"/></g><g style="mix-blend-mode: multiply;" class="link"><path stroke-width="27.485380116959064" stroke="#e15759" d="M273.3333333333333,338.0701754385965C400,338.0701754385965,400,348.0701754385966,526.6666666666666,348.0701754385966"/></g><g style="mix-blend-mode: multiply;" class="link"><path stroke-width="324.32748538011697" stroke="#76b7b2" d="M273.3333333333333,162.16374269005848C400,162.16374269005848,400,162.16374269005848,526.6666666666666,162.16374269005848"/></g><g style="mix-blend-mode: multiply;" class="link"><path stroke-width="27.485380116959064" stroke="#59a14f" d="M536.6666666666666,348.0701754385966C663.3333333333333,348.0701754385966,663.3333333333333,842.8070175438597,790,842.8070175438597"/></g><g style="mix-blend-mode: multiply;" class="link"><path stroke-width="16.49122807017544" stroke="#59a14f" d="M536.6666666666666,316.08187134502924C663.3333333333333,316.08187134502924,663.3333333333333,820.8187134502924,790,820.8187134502924"/></g><g style="mix-blend-mode: multiply;" class="link"><path stroke-width="307.8362573099415" stroke="#edc949" d="M536.6666666666666,153.91812865497076C663.3333333333333,153.91812865497076,663.3333333333333,153.91812865497076,790,153.91812865497076"/></g><g style="mix-blend-mode: multiply;" class="link"><path stroke-width="104.44444444444444" stroke="#ff9da7" d="M10,414.03508771929825C136.66666666666666,414.03508771929825,136.66666666666666,414.03508771929825,263.3333333333333,414.03508771929825"/></g><g style="mix-blend-mode: multiply;" class="link"><path stroke-width="104.44444444444444" stroke="#9c755f" d="M273.3333333333333,414.03508771929825C400,414.03508771929825,400,424.03508771929836,526.6666666666666,424.03508771929836"/></g><g style="mix-blend-mode: multiply;" class="link"><path stroke-width="16.49122807017544" stroke="#59a14f" d="M536.6666666666666,468.01169590643286C663.3333333333333,468.01169590643286,663.3333333333333,864.7953216374269,790,864.7953216374269"/></g><g style="mix-blend-mode: multiply;" class="link"><path stroke-width="87.953216374269" stroke="#edc949" d="M536.6666666666666,415.78947368421063C663.3333333333333,415.78947368421063,663.3333333333333,351.812865497076,790,351.812865497076"/></g><g style="mix-blend-mode: multiply;" class="link"><path stroke-width="258.3625730994152" stroke="#4e79a7" d="M10,605.438596491228C136.66666666666666,605.438596491228,136.66666666666666,605.438596491228,263.3333333333333,605.438596491228"/></g><g style="mix-blend-mode: multiply;" class="link"><path stroke-width="258.3625730994152" stroke="#f28e2c" d="M273.3333333333333,605.438596491228C400,605.438596491228,400,615.438596491228,526.6666666666666,615.438596491228"/></g><g style="mix-blend-mode: multiply;" class="link"><path stroke-width="236.37426900584796" stroke="#edc949" d="M536.6666666666666,604.4444444444445C663.3333333333333,604.4444444444445,663.3333333333333,513.9766081871345,790,513.9766081871345"/></g><g style="mix-blend-mode: multiply;" class="link"><path stroke-width="21.98830409356725" stroke="#59a14f" d="M536.6666666666666,733.625730994152C663.3333333333333,733.625730994152,663.3333333333333,884.0350877192983,790,884.0350877192983"/></g><g style="mix-blend-mode: multiply;" class="link"><path stroke-width="71.46198830409357" stroke="#76b7b2" d="M10,936.1601981119452C136.66666666666666,936.1601981119452,136.66666666666666,931.416302902154,263.3333333333333,931.416302902154"/></g><g style="mix-blend-mode: multiply;" class="link"><path stroke-width="71.46198830409357" stroke="#59a14f" d="M273.3333333333333,931.416302902154C400,931.416302902154,400,937.7777777777783,526.6666666666666,937.7777777777783"/></g><g style="mix-blend-mode: multiply;" class="link"><path stroke-width="43.9766081871345" stroke="#59a14f" d="M536.6666666666666,951.5204678362577C663.3333333333333,951.5204678362577,663.3333333333333,917.0175438596491,790,917.0175438596491"/></g><g style="mix-blend-mode: multiply;" class="link"><path stroke-width="27.485380116959064" stroke="#edc949" d="M536.6666666666666,915.789473684211C663.3333333333333,915.789473684211,663.3333333333333,783.3333333333334,790,783.3333333333334"/></g><g style="mix-blend-mode: multiply;" class="link"><path stroke-width="137.4269005847953" stroke="#af7aa1" d="M10,813.3333333333331C136.66666666666666,813.3333333333331,136.66666666666666,813.3333333333331,263.3333333333333,813.3333333333331"/></g><g style="mix-blend-mode: multiply;" class="link"><path stroke-width="137.4269005847953" stroke="#ff9da7" d="M273.3333333333333,813.3333333333331C400,813.3333333333331,400,823.3333333333336,526.6666666666666,823.3333333333336"/></g><g style="mix-blend-mode: multiply;" class="link"><path stroke-width="137.4269005847953" stroke="#edc949" d="M536.6666666666666,823.3333333333336C663.3333333333333,823.3333333333336,663.3333333333333,700.8771929824561,790,700.8771929824561"/></g><g style="mix-blend-mode: multiply;" class="link"><path stroke-width="16.49122807017544" stroke="#9c755f" d="M10,980.1368062990796C136.66666666666666,980.1368062990796,136.66666666666666,985.3929110892884,263.3333333333333,985.3929110892884"/></g><g style="mix-blend-mode: multiply;" class="link"><path stroke-width="16.49122807017544" stroke="#bab0ab" d="M273.3333333333333,985.3929110892884C400,985.3929110892884,400,991.754385964913,526.6666666666666,991.754385964913"/></g><g style="mix-blend-mode: multiply;" class="link"><path stroke-width="5.497076023391813" stroke="#edc949" d="M536.6666666666666,986.2573099415213C663.3333333333333,986.2573099415213,663.3333333333333,799.8245614035088,790,799.8245614035088"/></g><g style="mix-blend-mode: multiply;" class="link"><path stroke-width="10.994152046783626" stroke="#59a14f" d="M536.6666666666666,994.502923976609C663.3333333333333,994.502923976609,663.3333333333333,944.5029239766083,790,944.5029239766083"/></g></g></svg>