<svg aria-roledescription="sankey" role="graphics-document document" viewBox="0 0 800 702.2860107421875" height="702.2860107421875" xmlns:xlink="http://www.w3.org/1999/xlink" xmlns="http://www.w3.org/2000/svg" width="800" id="my-svg" style="background-color: white;"><style>#my-svg{font-family:"trebuchet ms",verdana,arial,sans-serif;font-size:33px;fill:#333;}#my-svg .error-icon{fill:hsl(220.5882352941, 100%, 98.3333333333%);}#my-svg .error-text{fill:rgb(8.5000000002, 5.7500000001, 0);stroke:rgb(8.5000000002, 5.7500000001, 0);}#my-svg .edge-thickness-normal{stroke-width:2px;}#my-svg .edge-thickness-thick{stroke-width:3.5px;}#my-svg .edge-pattern-solid{stroke-dasharray:0;}#my-svg .edge-pattern-dashed{stroke-dasharray:3;}#my-svg .edge-pattern-dotted{stroke-dasharray:2;}#my-svg .marker{fill:#0b0b0b;stroke:#0b0b0b;}#my-svg .marker.cross{stroke:#0b0b0b;}#my-svg svg{font-family:"trebuchet ms",verdana,arial,sans-serif;font-size:33px;}#my-svg :root{--mermaid-font-family:"trebuchet ms",verdana,arial,sans-serif;}</style><g/><g class="nodes"><g y="0" x="0" transform="translate(0,0)" id="node-1" class="node"><rect fill="#4e79a7" width="10" height="239.5321637426902"/></g><g y="0" x="263.3333333333333" transform="translate(263.3333333333333,0)" id="node-2" class="node"><rect fill="#f28e2c" width="10" height="239.53216374269002"/></g><g y="230.81871345029248" x="526.6666666666666" transform="translate(526.6666666666666,230.81871345029248)" id="node-3" class="node"><rect fill="#e15759" width="10" height="18.713450292397738"/></g><g y="0" x="526.6666666666666" transform="translate(526.6666666666666,0)" id="node-4" class="node"><rect fill="#76b7b2" width="10" height="220.81871345029248"/></g><g y="556.4327485380118" x="790" transform="translate(790,556.4327485380118)" id="node-5" class="node"><rect fill="#59a14f" width="10" height="93.56725146198846"/></g><g y="0" x="790" transform="translate(790,0)" id="node-6" class="node"><rect fill="#edc949" width="10" height="546.4327485380118"/></g><g y="249.5321637426902" x="0" transform="translate(0,249.5321637426902)" id="node-7" class="node"><rect fill="#af7aa1" width="10" height="71.11111111111106"/></g><g y="249.53216374269016" x="263.3333333333333" transform="translate(263.3333333333333,249.53216374269016)" id="node-8" class="node"><rect fill="#ff9da7" width="10" height="71.11111111111097"/></g><g y="259.5321637426902" x="526.6666666666666" transform="translate(526.6666666666666,259.5321637426902)" id="node-9" class="node"><rect fill="#9c755f" width="10" height="71.11111111111103"/></g><g y="330.64327485380124" x="0" transform="translate(0,330.64327485380124)" id="node-10" class="node"><rect fill="#bab0ab" width="10" height="175.9064327485379"/></g><g y="330.64327485380124" x="263.3333333333333" transform="translate(263.3333333333333,330.64327485380124)" id="node-11" class="node"><rect fill="#4e79a7" width="10" height="175.9064327485379"/></g><g y="340.64327485380124" x="526.6666666666666" transform="translate(526.6666666666666,340.64327485380124)" id="node-12" class="node"><rect fill="#f28e2c" width="10" height="175.906432748538"/></g><g y="629.2027653792697" x="0" transform="translate(0,629.2027653792697)" id="node-13" class="node"><rect fill="#e15759" width="10" height="59.88304093567251"/></g><g y="624.4368268246116" x="263.3333333333333" transform="translate(263.3333333333333,624.4368268246116)" id="node-14" class="node"><rect fill="#76b7b2" width="10" height="48.65497076023394"/></g><g y="630.1169590643275" x="526.6666666666666" transform="translate(526.6666666666666,630.1169590643275)" id="node-15" class="node"><rect fill="#59a14f" width="10" height="48.65497076023394"/></g><g y="516.5497076023391" x="0" transform="translate(0,516.5497076023391)" id="node-16" class="node"><rect fill="#edc949" width="10" height="93.56725146198835"/></g><g y="516.5497076023391" x="263.3333333333333" transform="translate(263.3333333333333,516.5497076023391)" id="node-17" class="node"><rect fill="#af7aa1" width="10" height="93.56725146198801"/></g><g y="526.5497076023393" x="526.6666666666666" transform="translate(526.6666666666666,526.5497076023393)" id="node-18" class="node"><rect fill="#ff9da7" width="10" height="93.56725146198823"/></g><g y="683.0917975848455" x="263.3333333333333" transform="translate(263.3333333333333,683.0917975848455)" id="node-19" class="node"><rect fill="#9c755f" width="10" height="11.22807017543846"/></g><g y="688.7719298245614" x="526.6666666666666" transform="translate(526.6666666666666,688.7719298245614)" id="node-20" class="node"><rect fill="#bab0ab" width="10" height="11.228070175438688"/></g></g><g font-size="14" font-family="sans-serif" class="node-labels"><text text-anchor="start" dy="0.35em" y="119.7660818713451" x="16">exome</text><text text-anchor="start" dy="0.35em" y="119.76608187134501" x="279.3333333333333">2012 exome studies</text><text text-anchor="end" dy="0.35em" y="240.17543859649135" x="520.6666666666666">Richter 2012</text><text text-anchor="end" dy="0.35em" y="110.40935672514624" x="520.6666666666666">Love 2012</text><text text-anchor="end" dy="0.35em" y="603.216374269006" x="784">Tier 1 BL genes</text><text text-anchor="end" dy="0.35em" y="273.2163742690059" x="784">Tier 2 BL genes</text><text text-anchor="start" dy="0.35em" y="285.0877192982457" x="16">RNA-seq</text><text text-anchor="start" dy="0.35em" y="285.08771929824564" x="279.3333333333333">2012 RNA-seq studies</text><text text-anchor="end" dy="0.35em" y="295.0877192982457" x="520.6666666666666">Schmitz 2012</text><text text-anchor="start" dy="0.35em" y="418.5964912280702" x="16">RNA-seq/exome</text><text text-anchor="start" dy="0.35em" y="418.5964912280702" x="279.3333333333333">RNA-seq/exome studies</text><text text-anchor="end" dy="0.35em" y="428.59649122807025" x="520.6666666666666">Panea 2019</text><text text-anchor="start" dy="0.35em" y="659.144285847106" x="16">WGS</text><text text-anchor="start" dy="0.35em" y="648.7643122047285" x="279.3333333333333">2019 WGS studies</text><text text-anchor="end" dy="0.35em" y="654.4444444444445" x="520.6666666666666">Grande 2019</text><text text-anchor="start" dy="0.35em" y="563.3333333333333" x="16">Panel</text><text text-anchor="start" dy="0.35em" y="563.3333333333331" x="279.3333333333333">2022 panel studies</text><text text-anchor="end" dy="0.35em" y="573.3333333333334" x="520.6666666666666">Burkhardt 2022</text><text text-anchor="start" dy="0.35em" y="688.7058326725647" x="279.3333333333333">2023 WGS studies</text><text text-anchor="end" dy="0.35em" y="694.3859649122808" x="520.6666666666666">Thomas 2023</text></g><g stroke-opacity="0.5" fill="none" class="links"><g style="mix-blend-mode: multiply;" class="link"><path stroke-width="239.53216374269005" stroke="#f28e2c" d="M10,119.76608187134502C136.66666666666666,119.76608187134502,136.66666666666666,119.76608187134502,263.3333333333333,119.76608187134502"/></g><g style="mix-blend-mode: multiply;" class="link"><path stroke-width="18.71345029239766" stroke="#e15759" d="M273.3333333333333,230.17543859649123C400,230.17543859649123,400,240.17543859649132,526.6666666666666,240.17543859649132"/></g><g style="mix-blend-mode: multiply;" class="link"><path stroke-width="220.8187134502924" stroke="#76b7b2" d="M273.3333333333333,110.4093567251462C400,110.4093567251462,400,110.4093567251462,526.6666666666666,110.4093567251462"/></g><g style="mix-blend-mode: multiply;" class="link"><path stroke-width="18.71345029239766" stroke="#59a14f" d="M536.6666666666666,240.17543859649132C663.3333333333333,240.17543859649132,663.3333333333333,577.0175438596492,790,577.0175438596492"/></g><g style="mix-blend-mode: multiply;" class="link"><path stroke-width="11.228070175438596" stroke="#59a14f" d="M536.6666666666666,215.20467836257308C663.3333333333333,215.20467836257308,663.3333333333333,562.0467836257311,790,562.0467836257311"/></g><g style="mix-blend-mode: multiply;" class="link"><path stroke-width="209.5906432748538" stroke="#edc949" d="M536.6666666666666,104.7953216374269C663.3333333333333,104.7953216374269,663.3333333333333,104.7953216374269,790,104.7953216374269"/></g><g style="mix-blend-mode: multiply;" class="link"><path stroke-width="71.11111111111111" stroke="#ff9da7" d="M10,285.08771929824576C136.66666666666666,285.08771929824576,136.66666666666666,285.0877192982457,263.3333333333333,285.0877192982457"/></g><g style="mix-blend-mode: multiply;" class="link"><path stroke-width="71.11111111111111" stroke="#9c755f" d="M273.3333333333333,285.0877192982457C400,285.0877192982457,400,295.08771929824576,526.6666666666666,295.08771929824576"/></g><g style="mix-blend-mode: multiply;" class="link"><path stroke-width="11.228070175438596" stroke="#59a14f" d="M536.6666666666666,325.029239766082C663.3333333333333,325.029239766082,663.3333333333333,591.9883040935673,790,591.9883040935673"/></g><g style="mix-blend-mode: multiply;" class="link"><path stroke-width="59.88304093567251" stroke="#edc949" d="M536.6666666666666,289.47368421052647C663.3333333333333,289.47368421052647,663.3333333333333,239.53216374269005,790,239.53216374269005"/></g><g style="mix-blend-mode: multiply;" class="link"><path stroke-width="175.906432748538" stroke="#4e79a7" d="M10,418.59649122807025C136.66666666666666,418.59649122807025,136.66666666666666,418.59649122807025,263.3333333333333,418.59649122807025"/></g><g style="mix-blend-mode: multiply;" class="link"><path stroke-width="175.906432748538" stroke="#f28e2c" d="M273.3333333333333,418.59649122807025C400,418.59649122807025,400,428.59649122807025,526.6666666666666,428.59649122807025"/></g><g style="mix-blend-mode: multiply;" class="link"><path stroke-width="160.93567251461988" stroke="#edc949" d="M536.6666666666666,421.1111111111112C663.3333333333333,421.1111111111112,663.3333333333333,349.94152046783626,790,349.94152046783626"/></g><g style="mix-blend-mode: multiply;" class="link"><path stroke-width="14.970760233918128" stroke="#59a14f" d="M536.6666666666666,509.0643274853802C663.3333333333333,509.0643274853802,663.3333333333333,605.0877192982456,790,605.0877192982456"/></g><g style="mix-blend-mode: multiply;" class="link"><path stroke-width="48.654970760233915" stroke="#76b7b2" d="M10,653.5302507593867C136.66666666666666,653.5302507593867,136.66666666666666,648.7643122047285,263.3333333333333,648.7643122047285"/></g><g style="mix-blend-mode: multiply;" class="link"><path stroke-width="48.654970760233915" stroke="#59a14f" d="M273.3333333333333,648.7643122047285C400,648.7643122047285,400,654.4444444444445,526.6666666666666,654.4444444444445"/></g><g style="mix-blend-mode: multiply;" class="link"><path stroke-width="29.941520467836256" stroke="#59a14f" d="M536.6666666666666,663.8011695906432C663.3333333333333,663.8011695906432,663.3333333333333,627.5438596491227,790,627.5438596491227"/></g><g style="mix-blend-mode: multiply;" class="link"><path stroke-width="18.71345029239766" stroke="#edc949" d="M536.6666666666666,639.4736842105264C663.3333333333333,639.4736842105264,663.3333333333333,533.3333333333333,790,533.3333333333333"/></g><g style="mix-blend-mode: multiply;" class="link"><path stroke-width="93.56725146198829" stroke="#af7aa1" d="M10,563.3333333333333C136.66666666666666,563.3333333333333,136.66666666666666,563.3333333333333,263.3333333333333,563.3333333333333"/></g><g style="mix-blend-mode: multiply;" class="link"><path stroke-width="93.56725146198829" stroke="#ff9da7" d="M273.3333333333333,563.3333333333333C400,563.3333333333333,400,573.3333333333334,526.6666666666666,573.3333333333334"/></g><g style="mix-blend-mode: multiply;" class="link"><path stroke-width="93.56725146198829" stroke="#edc949" d="M536.6666666666666,573.3333333333334C663.3333333333333,573.3333333333334,663.3333333333333,477.19298245614027,790,477.19298245614027"/></g><g style="mix-blend-mode: multiply;" class="link"><path stroke-width="11.228070175438596" stroke="#9c755f" d="M10,683.471771227223C136.66666666666666,683.471771227223,136.66666666666666,688.7058326725648,263.3333333333333,688.7058326725648"/></g><g style="mix-blend-mode: multiply;" class="link"><path stroke-width="11.228070175438596" stroke="#bab0ab" d="M273.3333333333333,688.7058326725648C400,688.7058326725648,400,694.3859649122808,526.6666666666666,694.3859649122808"/></g><g style="mix-blend-mode: multiply;" class="link"><path stroke-width="3.742690058479532" stroke="#edc949" d="M536.6666666666666,690.6432748538012C663.3333333333333,690.6432748538012,663.3333333333333,544.5614035087718,790,544.5614035087718"/></g><g style="mix-blend-mode: multiply;" class="link"><path stroke-width="7.485380116959064" stroke="#59a14f" d="M536.6666666666666,696.2573099415205C663.3333333333333,696.2573099415205,663.3333333333333,646.2573099415205,790,646.2573099415205"/></g></g></svg>