<svg aria-roledescription="sankey" role="graphics-document document" viewBox="0 0 800 1000" height="1000" xmlns:xlink="http://www.w3.org/1999/xlink" xmlns="http://www.w3.org/2000/svg" width="800" id="my-svg" style="background-color: white;"><style>#my-svg{font-family:"trebuchet ms",verdana,arial,sans-serif;font-size:16px;fill:#333;}#my-svg .error-icon{fill:#552222;}#my-svg .error-text{fill:#552222;stroke:#552222;}#my-svg .edge-thickness-normal{stroke-width:2px;}#my-svg .edge-thickness-thick{stroke-width:3.5px;}#my-svg .edge-pattern-solid{stroke-dasharray:0;}#my-svg .edge-pattern-dashed{stroke-dasharray:3;}#my-svg .edge-pattern-dotted{stroke-dasharray:2;}#my-svg .marker{fill:#333333;stroke:#333333;}#my-svg .marker.cross{stroke:#333333;}#my-svg svg{font-family:"trebuchet ms",verdana,arial,sans-serif;font-size:16px;}#my-svg :root{--mermaid-font-family:"trebuchet ms",verdana,arial,sans-serif;}</style><g/><g class="nodes"><g y="483.46534653465346" x="526.6666666666666" transform="translate(526.6666666666666,483.46534653465346)" id="node-1" class="node"><rect fill="#4e79a7" width="10" height="59.40594059405953"/></g><g y="255.70106085713314" x="790" transform="translate(790,255.70106085713314)" id="node-2" class="node"><rect fill="#f28e2c" width="10" height="133.66336633663371"/></g><g y="11.047595510598484" x="790" transform="translate(790,11.047595510598484)" id="node-3" class="node"><rect fill="#e15759" width="10" height="234.65346534653466"/></g><g y="335.0495049504953" x="526.6666666666666" transform="translate(526.6666666666666,335.0495049504953)" id="node-4" class="node"><rect fill="#76b7b2" width="10" height="16.336633663366285"/></g><g y="0" x="526.6666666666666" transform="translate(526.6666666666666,0)" id="node-5" class="node"><rect fill="#59a14f" width="10" height="89.10891089108918"/></g><g y="322.0792079207923" x="526.6666666666666" transform="translate(526.6666666666666,322.0792079207923)" id="node-6" class="node"><rect fill="#edc949" width="10" height="2.9702970297029765"/></g><g y="225.24752475247527" x="526.6666666666666" transform="translate(526.6666666666666,225.24752475247527)" id="node-7" class="node"><rect fill="#af7aa1" width="10" height="4.455445544554493"/></g><g y="309.1089108910893" x="526.6666666666666" transform="translate(526.6666666666666,309.1089108910893)" id="node-8" class="node"><rect fill="#ff9da7" width="10" height="2.9702970297030333"/></g><g y="401.0891089108912" x="526.6666666666666" transform="translate(526.6666666666666,401.0891089108912)" id="node-9" class="node"><rect fill="#9c755f" width="10" height="59.405940594059246"/></g><g y="470.49504950495043" x="526.6666666666666" transform="translate(526.6666666666666,470.49504950495043)" id="node-10" class="node"><rect fill="#bab0ab" width="10" height="2.9702970297030333"/></g><g y="171.08910891089118" x="526.6666666666666" transform="translate(526.6666666666666,171.08910891089118)" id="node-11" class="node"><rect fill="#4e79a7" width="10" height="28.217821782178135"/></g><g y="239.70297029702976" x="526.6666666666666" transform="translate(526.6666666666666,239.70297029702976)" id="node-12" class="node"><rect fill="#f28e2c" width="10" height="59.40594059405953"/></g><g y="565.8415841584159" x="526.6666666666666" transform="translate(526.6666666666666,565.8415841584159)" id="node-13" class="node"><rect fill="#e15759" width="10" height="5.940594059405953"/></g><g y="137.32673267326743" x="526.6666666666666" transform="translate(526.6666666666666,137.32673267326743)" id="node-14" class="node"><rect fill="#76b7b2" width="10" height="23.762376237623755"/></g><g y="209.30693069306932" x="526.6666666666666" transform="translate(526.6666666666666,209.30693069306932)" id="node-15" class="node"><rect fill="#59a14f" width="10" height="5.940594059405953"/></g><g y="99.10891089108918" x="526.6666666666666" transform="translate(526.6666666666666,99.10891089108918)" id="node-16" class="node"><rect fill="#edc949" width="10" height="28.217821782178248"/></g><g y="361.3861386138616" x="526.6666666666666" transform="translate(526.6666666666666,361.3861386138616)" id="node-17" class="node"><rect fill="#af7aa1" width="10" height="29.702970297029594"/></g><g y="10.794740817751332" x="0" transform="translate(0,10.794740817751332)" id="node-18" class="node"><rect fill="#ff9da7" width="10" height="368.3168316831683"/></g><g y="367.73402686794645" x="263.3333333333333" transform="translate(263.3333333333333,367.73402686794645)" id="node-19" class="node"><rect fill="#9c755f" width="10" height="37.128712871287235"/></g><g y="0" x="263.3333333333333" transform="translate(263.3333333333333,0)" id="node-20" class="node"><rect fill="#bab0ab" width="10" height="199.00990099009906"/></g><g y="221.4964031055702" x="263.3333333333333" transform="translate(263.3333333333333,221.4964031055702)" id="node-21" class="node"><rect fill="#4e79a7" width="10" height="123.26732673267333"/></g><g y="354.76372983824353" x="263.3333333333333" transform="translate(263.3333333333333,354.76372983824353)" id="node-22" class="node"><rect fill="#f28e2c" width="10" height="2.9702970297029196"/></g><g y="453.08056152141194" x="263.3333333333333" transform="translate(263.3333333333333,453.08056152141194)" id="node-23" class="node"><rect fill="#e15759" width="10" height="5.940594059405953"/></g><g y="581.7821782178219" x="526.6666666666666" transform="translate(526.6666666666666,581.7821782178219)" id="node-24" class="node"><rect fill="#76b7b2" width="10" height="32.673267326732685"/></g><g y="453.7958755547245" x="790" transform="translate(790,453.7958755547245)" id="node-25" class="node"><rect fill="#59a14f" width="10" height="56.43564356435627"/></g><g y="520.2315191190808" x="790" transform="translate(790,520.2315191190808)" id="node-26" class="node"><rect fill="#edc949" width="10" height="59.405940594059416"/></g><g y="624.4554455445545" x="526.6666666666666" transform="translate(526.6666666666666,624.4554455445545)" id="node-27" class="node"><rect fill="#af7aa1" width="10" height="29.70297029702965"/></g><g y="552.871287128713" x="526.6666666666666" transform="translate(526.6666666666666,552.871287128713)" id="node-28" class="node"><rect fill="#ff9da7" width="10" height="2.9702970297029196"/></g><g y="452.5032429266349" x="0" transform="translate(0,452.5032429266349)" id="node-29" class="node"><rect fill="#9c755f" width="10" height="115.84158415841591"/></g><g y="414.8627397392337" x="263.3333333333333" transform="translate(263.3333333333333,414.8627397392337)" id="node-30" class="node"><rect fill="#bab0ab" width="10" height="28.217821782178248"/></g><g y="510.7949187725644" x="263.3333333333333" transform="translate(263.3333333333333,510.7949187725644)" id="node-31" class="node"><rect fill="#4e79a7" width="10" height="65.34653465346537"/></g><g y="473.97302980304624" x="263.3333333333333" transform="translate(263.3333333333333,473.97302980304624)" id="node-32" class="node"><rect fill="#f28e2c" width="10" height="22.277227722772295"/></g><g y="664.1584158415842" x="526.6666666666666" transform="translate(526.6666666666666,664.1584158415842)" id="node-33" class="node"><rect fill="#e15759" width="10" height="7.425742574257583"/></g><g y="718.4244441820694" x="790" transform="translate(790,718.4244441820694)" id="node-34" class="node"><rect fill="#76b7b2" width="10" height="40.09900990099004"/></g><g y="681.5841584158418" x="526.6666666666666" transform="translate(526.6666666666666,681.5841584158418)" id="node-35" class="node"><rect fill="#59a14f" width="10" height="19.306930693069262"/></g><g y="768.5234540830594" x="790" transform="translate(790,768.5234540830594)" id="node-36" class="node"><rect fill="#edc949" width="10" height="225.74257425742576"/></g><g y="728.3168316831686" x="526.6666666666666" transform="translate(526.6666666666666,728.3168316831686)" id="node-37" class="node"><rect fill="#af7aa1" width="10" height="28.217821782178135"/></g><g y="710.891089108911" x="526.6666666666666" transform="translate(526.6666666666666,710.891089108911)" id="node-38" class="node"><rect fill="#ff9da7" width="10" height="7.425742574257583"/></g><g y="766.5346534653468" x="526.6666666666666" transform="translate(526.6666666666666,766.5346534653468)" id="node-39" class="node"><rect fill="#9c755f" width="10" height="87.62376237623766"/></g><g y="878.6138613861388" x="526.6666666666666" transform="translate(526.6666666666666,878.6138613861388)" id="node-40" class="node"><rect fill="#bab0ab" width="10" height="37.12871287128701"/></g><g y="864.1584158415844" x="526.6666666666666" transform="translate(526.6666666666666,864.1584158415844)" id="node-41" class="node"><rect fill="#4e79a7" width="10" height="4.455445544554323"/></g><g y="925.7425742574258" x="526.6666666666666" transform="translate(526.6666666666666,925.7425742574258)" id="node-42" class="node"><rect fill="#f28e2c" width="10" height="74.25742574257424"/></g><g y="711.2046052223906" x="0" transform="translate(0,711.2046052223906)" id="node-43" class="node"><rect fill="#e15759" width="10" height="265.8415841584158"/></g><g y="878.6138613861381" x="263.3333333333333" transform="translate(263.3333333333333,878.6138613861381)" id="node-44" class="node"><rect fill="#76b7b2" width="10" height="37.12871287128701"/></g><g y="766.5346534653461" x="263.3333333333333" transform="translate(263.3333333333333,766.5346534653461)" id="node-45" class="node"><rect fill="#59a14f" width="10" height="87.62376237623766"/></g><g y="925.7425742574251" x="263.3333333333333" transform="translate(263.3333333333333,925.7425742574251)" id="node-46" class="node"><rect fill="#edc949" width="10" height="74.25742574257492"/></g><g y="864.1584158415837" x="263.3333333333333" transform="translate(263.3333333333333,864.1584158415837)" id="node-47" class="node"><rect fill="#af7aa1" width="10" height="4.455445544554323"/></g><g y="674.1584158415836" x="263.3333333333333" transform="translate(263.3333333333333,674.1584158415836)" id="node-48" class="node"><rect fill="#ff9da7" width="10" height="7.42574257425747"/></g><g y="691.5841584158411" x="263.3333333333333" transform="translate(263.3333333333333,691.5841584158411)" id="node-49" class="node"><rect fill="#9c755f" width="10" height="26.732673267326845"/></g><g y="728.316831683168" x="263.3333333333333" transform="translate(263.3333333333333,728.316831683168)" id="node-50" class="node"><rect fill="#bab0ab" width="10" height="28.217821782178135"/></g></g><g font-size="14" font-family="sans-serif" class="node-labels"><text text-anchor="end" dy="0.35em" y="513.1683168316832" x="520.6666666666666">Morin 2011</text><text text-anchor="end" dy="0.35em" y="322.53274402545003" x="784">DLBCL Tier 1</text><text text-anchor="end" dy="0.35em" y="128.37432818386583" x="784">DLBCL Tier 2</text><text text-anchor="end" dy="0.35em" y="343.2178217821785" x="520.6666666666666">Pasqualucci 2011</text><text text-anchor="end" dy="0.35em" y="44.55445544554459" x="520.6666666666666">Reddy 2017</text><text text-anchor="end" dy="0.35em" y="323.56435643564384" x="520.6666666666666">Morin 2016</text><text text-anchor="end" dy="0.35em" y="227.47524752475252" x="520.6666666666666">Albuquerque 2017</text><text text-anchor="end" dy="0.35em" y="310.5940594059408" x="520.6666666666666">Mareschal 2016</text><text text-anchor="end" dy="0.35em" y="430.7920792079208" x="520.6666666666666">Hubschmann 2021</text><text text-anchor="end" dy="0.35em" y="471.98019801980195" x="520.6666666666666">Pararajalingam 2020</text><text text-anchor="end" dy="0.35em" y="185.19801980198025" x="520.6666666666666">Zhang 2013</text><text text-anchor="end" dy="0.35em" y="269.40594059405953" x="520.6666666666666">Morin 2013</text><text text-anchor="end" dy="0.35em" y="568.8118811881188" x="520.6666666666666">Pasqualucci 2001</text><text text-anchor="end" dy="0.35em" y="149.2079207920793" x="520.6666666666666">Schmitz 2018</text><text text-anchor="end" dy="0.35em" y="212.2772277227723" x="520.6666666666666">Lohr 2012</text><text text-anchor="end" dy="0.35em" y="113.2178217821783" x="520.6666666666666">Chapuy 2018</text><text text-anchor="end" dy="0.35em" y="376.2376237623764" x="520.6666666666666">Arthur 2018</text><text text-anchor="start" dy="0.35em" y="194.9531566593355" x="16">DLBCL</text><text text-anchor="start" dy="0.35em" y="386.2983833035901" x="279.3333333333333">DLBCL-RNA-seq/WGS</text><text text-anchor="start" dy="0.35em" y="99.50495049504953" x="279.3333333333333">DLBCL-exome</text><text text-anchor="start" dy="0.35em" y="283.13006647190684" x="279.3333333333333">DLBCL-WGS</text><text text-anchor="start" dy="0.35em" y="356.248878353095" x="279.3333333333333">DLBCL-WGS/exome</text><text text-anchor="start" dy="0.35em" y="456.0508585511149" x="279.3333333333333">DLBCL-Sanger</text><text text-anchor="end" dy="0.35em" y="598.1188118811882" x="520.6666666666666">Krysiak 2017</text><text text-anchor="end" dy="0.35em" y="482.0136973369026" x="784">FL Tier 1</text><text text-anchor="end" dy="0.35em" y="549.9344894161104" x="784">FL Tier 2</text><text text-anchor="end" dy="0.35em" y="639.3069306930694" x="520.6666666666666">Russler-germain 2023</text><text text-anchor="end" dy="0.35em" y="554.3564356435645" x="520.6666666666666">Okosun 2016</text><text text-anchor="start" dy="0.35em" y="510.4240350058429" x="16">FL</text><text text-anchor="start" dy="0.35em" y="428.9716506303228" x="279.3333333333333">FL-WGS</text><text text-anchor="start" dy="0.35em" y="543.4681860992971" x="279.3333333333333">FL-exome</text><text text-anchor="start" dy="0.35em" y="485.1116436644324" x="279.3333333333333">FL-RNA-seq/WGS</text><text text-anchor="end" dy="0.35em" y="667.871287128713" x="520.6666666666666">Richter 2012</text><text text-anchor="end" dy="0.35em" y="738.4739491325644" x="784">BL Tier 1</text><text text-anchor="end" dy="0.35em" y="691.2376237623764" x="520.6666666666666">Grande 2019</text><text text-anchor="end" dy="0.35em" y="881.3947412117723" x="784">BL Tier 2</text><text text-anchor="end" dy="0.35em" y="742.4257425742577" x="520.6666666666666">Schmitz 2012</text><text text-anchor="end" dy="0.35em" y="714.6039603960398" x="520.6666666666666">Thomas 2023</text><text text-anchor="end" dy="0.35em" y="810.3465346534656" x="520.6666666666666">Love 2012</text><text text-anchor="end" dy="0.35em" y="897.1782178217823" x="520.6666666666666">Burkhardt 2022</text><text text-anchor="end" dy="0.35em" y="866.3861386138616" x="520.6666666666666">Muppidi 2014</text><text text-anchor="end" dy="0.35em" y="962.8712871287129" x="520.6666666666666">Panea 2019</text><text text-anchor="start" dy="0.35em" y="844.1253973015985" x="16">BL</text><text text-anchor="start" dy="0.35em" y="897.1782178217816" x="279.3333333333333">BL-panel</text><text text-anchor="start" dy="0.35em" y="810.3465346534649" x="279.3333333333333">BL-exome</text><text text-anchor="start" dy="0.35em" y="962.8712871287125" x="279.3333333333333">BL-RNA-seq/exome</text><text text-anchor="start" dy="0.35em" y="866.3861386138609" x="279.3333333333333">BL-Sanger</text><text text-anchor="start" dy="0.35em" y="677.8712871287123" x="279.3333333333333">BL-RNA-seq/WGS/exome</text><text text-anchor="start" dy="0.35em" y="704.9504950495045" x="279.3333333333333">BL-WGS</text><text text-anchor="start" dy="0.35em" y="742.425742574257" x="279.3333333333333">BL-RNA-seq</text></g><g stroke-opacity="0.5" fill="none" class="links"><g style="mix-blend-mode: multiply;" class="link"><path stroke-width="35.64356435643565" stroke="#f28e2c" d="M536.6666666666666,502.7722772277227C663.3333333333333,502.7722772277227,663.3333333333333,368.57234798584597,790,368.57234798584597"/></g><g style="mix-blend-mode: multiply;" class="link"><path stroke-width="1.4851485148514851" stroke="#e15759" d="M536.6666666666666,484.2079207920792C663.3333333333333,484.2079207920792,663.3333333333333,241.98818957000444,790,241.98818957000444"/></g><g style="mix-blend-mode: multiply;" class="link"><path stroke-width="2.9702970297029703" stroke="#f28e2c" d="M536.6666666666666,342.4752475247527C663.3333333333333,342.4752475247527,663.3333333333333,328.47333808485587,790,328.47333808485587"/></g><g style="mix-blend-mode: multiply;" class="link"><path stroke-width="10.396039603960396" stroke="#f28e2c" d="M536.6666666666666,83.9108910891089C663.3333333333333,83.9108910891089,663.3333333333333,260.89908065911334,790,260.89908065911334"/></g><g style="mix-blend-mode: multiply;" class="link"><path stroke-width="78.7128712871287" stroke="#e15759" d="M536.6666666666666,39.35643564356435C663.3333333333333,39.35643564356435,663.3333333333333,50.40403115416284,790,50.40403115416284"/></g><g style="mix-blend-mode: multiply;" class="link"><path stroke-width="4.455445544554456" stroke="#f28e2c" d="M536.6666666666666,346.18811881188145C663.3333333333333,346.18811881188145,663.3333333333333,332.1862093719846,790,332.1862093719846"/></g><g style="mix-blend-mode: multiply;" class="link"><path stroke-width="5.9405940594059405" stroke="#e15759" d="M536.6666666666666,338.0198019801983C663.3333333333333,338.0198019801983,663.3333333333333,187.78026877792522,790,187.78026877792522"/></g><g style="mix-blend-mode: multiply;" class="link"><path stroke-width="2.9702970297029703" stroke="#f28e2c" d="M536.6666666666666,323.5643564356438C663.3333333333333,323.5643564356438,663.3333333333333,325.5030410551529,790,325.5030410551529"/></g><g style="mix-blend-mode: multiply;" class="link"><path stroke-width="4.455445544554456" stroke="#f28e2c" d="M536.6666666666666,227.4752475247525C663.3333333333333,227.4752475247525,663.3333333333333,302.4832390749549,790,302.4832390749549"/></g><g style="mix-blend-mode: multiply;" class="link"><path stroke-width="2.9702970297029703" stroke="#f28e2c" d="M536.6666666666666,310.59405940594075C663.3333333333333,310.59405940594075,663.3333333333333,322.5327440254499,790,322.5327440254499"/></g><g style="mix-blend-mode: multiply;" class="link"><path stroke-width="4.455445544554456" stroke="#f28e2c" d="M536.6666666666666,433.0198019801981C663.3333333333333,433.0198019801981,663.3333333333333,348.52284303535095,790,348.52284303535095"/></g><g style="mix-blend-mode: multiply;" class="link"><path stroke-width="29.7029702970297" stroke="#e15759" d="M536.6666666666666,415.940594059406C663.3333333333333,415.940594059406,663.3333333333333,223.42383313436088,790,223.42383313436088"/></g><g style="mix-blend-mode: multiply;" class="link"><path stroke-width="2.9702970297029703" stroke="#e15759" d="M536.6666666666666,471.9801980198019C663.3333333333333,471.9801980198019,663.3333333333333,239.76046679772722,790,239.76046679772722"/></g><g style="mix-blend-mode: multiply;" class="link"><path stroke-width="16.336633663366335" stroke="#f28e2c" d="M536.6666666666666,191.13861386138623C663.3333333333333,191.13861386138623,663.3333333333333,287.63175392644007,790,287.63175392644007"/></g><g style="mix-blend-mode: multiply;" class="link"><path stroke-width="11.881188118811881" stroke="#e15759" d="M536.6666666666666,177.02970297029714C663.3333333333333,177.02970297029714,663.3333333333333,134.31492224327175,790,134.31492224327175"/></g><g style="mix-blend-mode: multiply;" class="link"><path stroke-width="16.336633663366335" stroke="#f28e2c" d="M536.6666666666666,290.940594059406C663.3333333333333,290.940594059406,663.3333333333333,312.8792786789153,790,312.8792786789153"/></g><g style="mix-blend-mode: multiply;" class="link"><path stroke-width="43.06930693069307" stroke="#e15759" d="M536.6666666666666,261.2376237623763C663.3333333333333,261.2376237623763,663.3333333333333,163.2753182828757,790,163.2753182828757"/></g><g style="mix-blend-mode: multiply;" class="link"><path stroke-width="2.9702970297029703" stroke="#f28e2c" d="M536.6666666666666,570.2970297029703C663.3333333333333,570.2970297029703,663.3333333333333,387.8792786789153,790,387.8792786789153"/></g><g style="mix-blend-mode: multiply;" class="link"><path stroke-width="2.9702970297029703" stroke="#e15759" d="M536.6666666666666,567.3267326732674C663.3333333333333,567.3267326732674,663.3333333333333,244.21591234228168,790,244.21591234228168"/></g><g style="mix-blend-mode: multiply;" class="link"><path stroke-width="10.396039603960396" stroke="#f28e2c" d="M536.6666666666666,155.891089108911C663.3333333333333,155.891089108911,663.3333333333333,274.2654172927767,790,274.2654172927767"/></g><g style="mix-blend-mode: multiply;" class="link"><path stroke-width="13.366336633663366" stroke="#e15759" d="M536.6666666666666,144.0099009900991C663.3333333333333,144.0099009900991,663.3333333333333,121.69115986703412,790,121.69115986703412"/></g><g style="mix-blend-mode: multiply;" class="link"><path stroke-width="4.455445544554456" stroke="#f28e2c" d="M536.6666666666666,213.01980198019803C663.3333333333333,213.01980198019803,663.3333333333333,298.02779353040046,790,298.02779353040046"/></g><g style="mix-blend-mode: multiply;" class="link"><path stroke-width="1.4851485148514851" stroke="#e15759" d="M536.6666666666666,210.04950495049505C663.3333333333333,210.04950495049505,663.3333333333333,140.9980905601034,790,140.9980905601034"/></g><g style="mix-blend-mode: multiply;" class="link"><path stroke-width="2.9702970297029703" stroke="#f28e2c" d="M536.6666666666666,125.84158415841591C663.3333333333333,125.84158415841591,663.3333333333333,267.582248975945,790,267.582248975945"/></g><g style="mix-blend-mode: multiply;" class="link"><path stroke-width="25.247524752475247" stroke="#e15759" d="M536.6666666666666,111.7326732673268C663.3333333333333,111.7326732673268,663.3333333333333,102.38422917396481,790,102.38422917396481"/></g><g style="mix-blend-mode: multiply;" class="link"><path stroke-width="11.881188118811881" stroke="#f28e2c" d="M536.6666666666666,385.14851485148534C663.3333333333333,385.14851485148534,663.3333333333333,340.3545262036678,790,340.3545262036678"/></g><g style="mix-blend-mode: multiply;" class="link"><path stroke-width="17.821782178217823" stroke="#e15759" d="M536.6666666666666,370.2970297029705C663.3333333333333,370.2970297029705,663.3333333333333,199.6614568967371,790,199.6614568967371"/></g><g style="mix-blend-mode: multiply;" class="link"><path stroke-width="37.12871287128713" stroke="#9c755f" d="M10,354.6066220058702C136.66666666666666,354.6066220058702,136.66666666666666,386.29838330359,263.3333333333333,386.29838330359"/></g><g style="mix-blend-mode: multiply;" class="link"><path stroke-width="37.12871287128713" stroke="#4e79a7" d="M273.3333333333333,386.29838330359C400,386.29838330359,400,502.029702970297,526.6666666666666,502.029702970297"/></g><g style="mix-blend-mode: multiply;" class="link"><path stroke-width="2.9702970297029703" stroke="#bab0ab" d="M10,12.279889332602817C136.66666666666666,12.279889332602817,136.66666666666666,1.4851485148514851,263.3333333333333,1.4851485148514851"/></g><g style="mix-blend-mode: multiply;" class="link"><path stroke-width="2.9702970297029703" stroke="#76b7b2" d="M273.3333333333333,187.12871287128718C400,187.12871287128718,400,336.53465346534676,526.6666666666666,336.53465346534676"/></g><g style="mix-blend-mode: multiply;" class="link"><path stroke-width="89.10891089108911" stroke="#bab0ab" d="M10,58.31949329299886C136.66666666666666,58.31949329299886,136.66666666666666,47.524752475247524,263.3333333333333,47.524752475247524"/></g><g style="mix-blend-mode: multiply;" class="link"><path stroke-width="89.10891089108911" stroke="#59a14f" d="M273.3333333333333,44.554455445544555C400,44.554455445544555,400,44.554455445544555,526.6666666666666,44.554455445544555"/></g><g style="mix-blend-mode: multiply;" class="link"><path stroke-width="2.9702970297029703" stroke="#bab0ab" d="M10,104.3590972533949C136.66666666666666,104.3590972533949,136.66666666666666,93.56435643564357,263.3333333333333,93.56435643564357"/></g><g style="mix-blend-mode: multiply;" class="link"><path stroke-width="2.9702970297029703" stroke="#edc949" d="M273.3333333333333,184.1584158415842C400,184.1584158415842,400,323.5643564356438,526.6666666666666,323.5643564356438"/></g><g style="mix-blend-mode: multiply;" class="link"><path stroke-width="10.396039603960396" stroke="#bab0ab" d="M10,111.04226557022659C136.66666666666666,111.04226557022659,136.66666666666666,100.24752475247526,263.3333333333333,100.24752475247526"/></g><g style="mix-blend-mode: multiply;" class="link"><path stroke-width="10.396039603960396" stroke="#76b7b2" d="M273.3333333333333,193.81188118811886C400,193.81188118811886,400,343.2178217821785,526.6666666666666,343.2178217821785"/></g><g style="mix-blend-mode: multiply;" class="link"><path stroke-width="4.455445544554456" stroke="#bab0ab" d="M10,118.46800814448402C136.66666666666666,118.46800814448402,136.66666666666666,107.6732673267327,263.3333333333333,107.6732673267327"/></g><g style="mix-blend-mode: multiply;" class="link"><path stroke-width="4.455445544554456" stroke="#af7aa1" d="M273.3333333333333,177.4752475247525C400,177.4752475247525,400,227.4752475247525,526.6666666666666,227.4752475247525"/></g><g style="mix-blend-mode: multiply;" class="link"><path stroke-width="2.9702970297029703" stroke="#bab0ab" d="M10,122.18087943161272C136.66666666666666,122.18087943161272,136.66666666666666,111.3861386138614,263.3333333333333,111.3861386138614"/></g><g style="mix-blend-mode: multiply;" class="link"><path stroke-width="2.9702970297029703" stroke="#ff9da7" d="M273.3333333333333,181.18811881188122C400,181.18811881188122,400,310.59405940594075,526.6666666666666,310.59405940594075"/></g><g style="mix-blend-mode: multiply;" class="link"><path stroke-width="34.15841584158416" stroke="#4e79a7" d="M10,226.88384972864242C136.66666666666666,226.88384972864242,136.66666666666666,238.57561102636228,263.3333333333333,238.57561102636228"/></g><g style="mix-blend-mode: multiply;" class="link"><path stroke-width="34.15841584158416" stroke="#9c755f" d="M273.3333333333333,327.68452191745143C400,327.68452191745143,400,418.1683168316833,526.6666666666666,418.1683168316833"/></g><g style="mix-blend-mode: multiply;" class="link"><path stroke-width="2.9702970297029703" stroke="#f28e2c" d="M10,334.5571170553751C136.66666666666666,334.5571170553751,136.66666666666666,356.248878353095,263.3333333333333,356.248878353095"/></g><g style="mix-blend-mode: multiply;" class="link"><path stroke-width="2.9702970297029703" stroke="#bab0ab" d="M273.3333333333333,356.248878353095C400,356.248878353095,400,471.9801980198019,526.6666666666666,471.9801980198019"/></g><g style="mix-blend-mode: multiply;" class="link"><path stroke-width="28.217821782178216" stroke="#bab0ab" d="M10,137.77493883755332C136.66666666666666,137.77493883755332,136.66666666666666,126.980198019802,263.3333333333333,126.980198019802"/></g><g style="mix-blend-mode: multiply;" class="link"><path stroke-width="28.217821782178216" stroke="#4e79a7" d="M273.3333333333333,155.1980198019802C400,155.1980198019802,400,185.19801980198028,526.6666666666666,185.19801980198028"/></g><g style="mix-blend-mode: multiply;" class="link"><path stroke-width="5.9405940594059405" stroke="#e15759" d="M10,376.1412754712167C136.66666666666666,376.1412754712167,136.66666666666666,456.0508585511149,263.3333333333333,456.0508585511149"/></g><g style="mix-blend-mode: multiply;" class="link"><path stroke-width="5.9405940594059405" stroke="#e15759" d="M273.3333333333333,456.0508585511149C400,456.0508585511149,400,568.8118811881188,526.6666666666666,568.8118811881188"/></g><g style="mix-blend-mode: multiply;" class="link"><path stroke-width="59.4059405940594" stroke="#4e79a7" d="M10,273.6660279464642C136.66666666666666,273.6660279464642,136.66666666666666,285.35778924418406,263.3333333333333,285.35778924418406"/></g><g style="mix-blend-mode: multiply;" class="link"><path stroke-width="59.4059405940594" stroke="#f28e2c" d="M273.3333333333333,251.19937340259992C400,251.19937340259992,400,269.4059405940595,526.6666666666666,269.4059405940595"/></g><g style="mix-blend-mode: multiply;" class="link"><path stroke-width="23.762376237623762" stroke="#bab0ab" d="M10,163.7650378474543C136.66666666666666,163.7650378474543,136.66666666666666,152.97029702970298,263.3333333333333,152.97029702970298"/></g><g style="mix-blend-mode: multiply;" class="link"><path stroke-width="23.762376237623762" stroke="#76b7b2" d="M273.3333333333333,129.20792079207922C400,129.20792079207922,400,149.2079207920793,526.6666666666666,149.2079207920793"/></g><g style="mix-blend-mode: multiply;" class="link"><path stroke-width="5.9405940594059405" stroke="#bab0ab" d="M10,178.61652299596915C136.66666666666666,178.61652299596915,136.66666666666666,167.82178217821783,263.3333333333333,167.82178217821783"/></g><g style="mix-blend-mode: multiply;" class="link"><path stroke-width="5.9405940594059405" stroke="#59a14f" d="M273.3333333333333,172.2772277227723C400,172.2772277227723,400,212.2772277227723,526.6666666666666,212.2772277227723"/></g><g style="mix-blend-mode: multiply;" class="link"><path stroke-width="29.7029702970297" stroke="#4e79a7" d="M10,318.22048339200876C136.66666666666666,318.22048339200876,136.66666666666666,329.9122446897286,263.3333333333333,329.9122446897286"/></g><g style="mix-blend-mode: multiply;" class="link"><path stroke-width="29.7029702970297" stroke="#af7aa1" d="M273.3333333333333,295.75382884814445C400,295.75382884814445,400,376.2376237623764,526.6666666666666,376.2376237623764"/></g><g style="mix-blend-mode: multiply;" class="link"><path stroke-width="28.217821782178216" stroke="#bab0ab" d="M10,195.69573091676122C136.66666666666666,195.69573091676122,136.66666666666666,184.9009900990099,263.3333333333333,184.9009900990099"/></g><g style="mix-blend-mode: multiply;" class="link"><path stroke-width="28.217821782178216" stroke="#edc949" d="M273.3333333333333,103.21782178217822C400,103.21782178217822,400,113.21782178217829,526.6666666666666,113.21782178217829"/></g><g style="mix-blend-mode: multiply;" class="link"><path stroke-width="25.247524752475247" stroke="#59a14f" d="M536.6666666666666,594.4059405940595C663.3333333333333,594.4059405940595,663.3333333333333,496.1226082279918,790,496.1226082279918"/></g><g style="mix-blend-mode: multiply;" class="link"><path stroke-width="7.425742574257425" stroke="#edc949" d="M536.6666666666666,610.7425742574258C663.3333333333333,610.7425742574258,663.3333333333333,547.7067666438332,790,547.7067666438332"/></g><g style="mix-blend-mode: multiply;" class="link"><path stroke-width="2.9702970297029703" stroke="#59a14f" d="M536.6666666666666,436.7326732673268C663.3333333333333,436.7326732673268,663.3333333333333,458.2513210992789,790,458.2513210992789"/></g><g style="mix-blend-mode: multiply;" class="link"><path stroke-width="22.277227722772277" stroke="#edc949" d="M536.6666666666666,449.35643564356445C663.3333333333333,449.35643564356445,663.3333333333333,531.3701329804669,790,531.3701329804669"/></g><g style="mix-blend-mode: multiply;" class="link"><path stroke-width="2.9702970297029703" stroke="#59a14f" d="M536.6666666666666,349.90099009901013C663.3333333333333,349.90099009901013,663.3333333333333,455.28102406957595,790,455.28102406957595"/></g><g style="mix-blend-mode: multiply;" class="link"><path stroke-width="20.792079207920793" stroke="#59a14f" d="M536.6666666666666,530.990099009901C663.3333333333333,530.990099009901,663.3333333333333,470.13250921809083,790,470.13250921809083"/></g><g style="mix-blend-mode: multiply;" class="link"><path stroke-width="1.4851485148514851" stroke="#edc949" d="M536.6666666666666,542.1287128712871C663.3333333333333,542.1287128712871,663.3333333333333,543.2513210992788,790,543.2513210992788"/></g><g style="mix-blend-mode: multiply;" class="link"><path stroke-width="1.4851485148514851" stroke="#59a14f" d="M536.6666666666666,625.1980198019803C663.3333333333333,625.1980198019803,663.3333333333333,509.4889448616552,790,509.4889448616552"/></g><g style="mix-blend-mode: multiply;" class="link"><path stroke-width="28.217821782178216" stroke="#edc949" d="M536.6666666666666,640.0495049504951C663.3333333333333,640.0495049504951,663.3333333333333,565.5285488220511,790,565.5285488220511"/></g><g style="mix-blend-mode: multiply;" class="link"><path stroke-width="2.9702970297029703" stroke="#59a14f" d="M536.6666666666666,554.3564356435645C663.3333333333333,554.3564356435645,663.3333333333333,482.0136973369027,790,482.0136973369027"/></g><g style="mix-blend-mode: multiply;" class="link"><path stroke-width="2.9702970297029703" stroke="#bab0ab" d="M10,453.9883914414864C136.66666666666666,453.9883914414864,136.66666666666666,416.34788825408515,263.3333333333333,416.34788825408515"/></g><g style="mix-blend-mode: multiply;" class="link"><path stroke-width="2.9702970297029703" stroke="#ff9da7" d="M273.3333333333333,441.5954130065604C400,441.5954130065604,400,554.3564356435645,526.6666666666666,554.3564356435645"/></g><g style="mix-blend-mode: multiply;" class="link"><path stroke-width="32.67326732673267" stroke="#4e79a7" d="M10,519.3349260949518C136.66666666666666,519.3349260949518,136.66666666666666,527.1315524359308,263.3333333333333,527.1315524359308"/></g><g style="mix-blend-mode: multiply;" class="link"><path stroke-width="32.67326732673267" stroke="#76b7b2" d="M273.3333333333333,530.1018494656337C400,530.1018494656337,400,598.1188118811882,526.6666666666666,598.1188118811882"/></g><g style="mix-blend-mode: multiply;" class="link"><path stroke-width="25.247524752475247" stroke="#bab0ab" d="M10,468.0973023325755C136.66666666666666,468.0973023325755,136.66666666666666,430.4567991451743,263.3333333333333,430.4567991451743"/></g><g style="mix-blend-mode: multiply;" class="link"><path stroke-width="25.247524752475247" stroke="#9c755f" d="M273.3333333333333,427.4865021154713C400,427.4865021154713,400,447.87128712871294,526.6666666666666,447.87128712871294"/></g><g style="mix-blend-mode: multiply;" class="link"><path stroke-width="2.9702970297029703" stroke="#4e79a7" d="M10,537.1567082731697C136.66666666666666,537.1567082731697,136.66666666666666,544.9533346141486,263.3333333333333,544.9533346141486"/></g><g style="mix-blend-mode: multiply;" class="link"><path stroke-width="2.9702970297029703" stroke="#76b7b2" d="M273.3333333333333,512.2800672874159C400,512.2800672874159,400,349.90099009901013,526.6666666666666,349.90099009901013"/></g><g style="mix-blend-mode: multiply;" class="link"><path stroke-width="29.7029702970297" stroke="#4e79a7" d="M10,553.4933419365359C136.66666666666666,553.4933419365359,136.66666666666666,561.2899682775148,263.3333333333333,561.2899682775148"/></g><g style="mix-blend-mode: multiply;" class="link"><path stroke-width="29.7029702970297" stroke="#af7aa1" d="M273.3333333333333,561.2899682775148C400,561.2899682775148,400,639.3069306930694,526.6666666666666,639.3069306930694"/></g><g style="mix-blend-mode: multiply;" class="link"><path stroke-width="22.277227722772277" stroke="#f28e2c" d="M10,491.8596785701993C136.66666666666666,491.8596785701993,136.66666666666666,485.1116436644324,263.3333333333333,485.1116436644324"/></g><g style="mix-blend-mode: multiply;" class="link"><path stroke-width="22.277227722772277" stroke="#4e79a7" d="M273.3333333333333,485.1116436644324C400,485.1116436644324,400,531.7326732673267,526.6666666666666,531.7326732673267"/></g><g style="mix-blend-mode: multiply;" class="link"><path stroke-width="7.425742574257425" stroke="#76b7b2" d="M536.6666666666666,667.8712871287129C663.3333333333333,667.8712871287129,663.3333333333333,722.137315469198,790,722.137315469198"/></g><g style="mix-blend-mode: multiply;" class="link"><path stroke-width="13.366336633663366" stroke="#76b7b2" d="M536.6666666666666,688.2673267326735C663.3333333333333,688.2673267326735,663.3333333333333,732.5333550731585,790,732.5333550731585"/></g><g style="mix-blend-mode: multiply;" class="link"><path stroke-width="5.9405940594059405" stroke="#edc949" d="M536.6666666666666,697.9207920792081C663.3333333333333,697.9207920792081,663.3333333333333,771.4937511127623,790,771.4937511127623"/></g><g style="mix-blend-mode: multiply;" class="link"><path stroke-width="4.455445544554456" stroke="#76b7b2" d="M536.6666666666666,730.5445544554459C663.3333333333333,730.5445544554459,663.3333333333333,744.4145431919704,790,744.4145431919704"/></g><g style="mix-blend-mode: multiply;" class="link"><path stroke-width="23.762376237623762" stroke="#edc949" d="M536.6666666666666,744.653465346535C663.3333333333333,744.653465346535,663.3333333333333,790.8006818058317,790,790.8006818058317"/></g><g style="mix-blend-mode: multiply;" class="link"><path stroke-width="2.9702970297029703" stroke="#76b7b2" d="M536.6666666666666,712.3762376237626C663.3333333333333,712.3762376237626,663.3333333333333,740.7016719048418,790,740.7016719048418"/></g><g style="mix-blend-mode: multiply;" class="link"><path stroke-width="4.455445544554456" stroke="#edc949" d="M536.6666666666666,716.0891089108912C663.3333333333333,716.0891089108912,663.3333333333333,776.6917709147426,790,776.6917709147426"/></g><g style="mix-blend-mode: multiply;" class="link"><path stroke-width="4.455445544554456" stroke="#76b7b2" d="M536.6666666666666,768.762376237624C663.3333333333333,768.762376237624,663.3333333333333,748.8699887365249,790,748.8699887365249"/></g><g style="mix-blend-mode: multiply;" class="link"><path stroke-width="83.16831683168317" stroke="#edc949" d="M536.6666666666666,812.5742574257428C663.3333333333333,812.5742574257428,663.3333333333333,844.2660283404851,790,844.2660283404851"/></g><g style="mix-blend-mode: multiply;" class="link"><path stroke-width="37.12871287128713" stroke="#edc949" d="M536.6666666666666,897.1782178217824C663.3333333333333,897.1782178217824,663.3333333333333,907.3848402216734,790,907.3848402216734"/></g><g style="mix-blend-mode: multiply;" class="link"><path stroke-width="1.4851485148514851" stroke="#76b7b2" d="M536.6666666666666,864.9009900990102C663.3333333333333,864.9009900990102,663.3333333333333,751.8402857662278,790,751.8402857662278"/></g><g style="mix-blend-mode: multiply;" class="link"><path stroke-width="2.9702970297029703" stroke="#edc949" d="M536.6666666666666,867.1287128712875C663.3333333333333,867.1287128712875,663.3333333333333,887.3353352711783,790,887.3353352711783"/></g><g style="mix-blend-mode: multiply;" class="link"><path stroke-width="5.9405940594059405" stroke="#76b7b2" d="M536.6666666666666,928.7128712871287C663.3333333333333,928.7128712871287,663.3333333333333,755.5531570533565,790,755.5531570533565"/></g><g style="mix-blend-mode: multiply;" class="link"><path stroke-width="68.31683168316832" stroke="#edc949" d="M536.6666666666666,965.8415841584159C663.3333333333333,965.8415841584159,663.3333333333333,960.1076124989011,790,960.1076124989011"/></g><g style="mix-blend-mode: multiply;" class="link"><path stroke-width="37.12871287128713" stroke="#76b7b2" d="M10,884.2244072025887C136.66666666666666,884.2244072025887,136.66666666666666,897.1782178217817,263.3333333333333,897.1782178217817"/></g><g style="mix-blend-mode: multiply;" class="link"><path stroke-width="37.12871287128713" stroke="#bab0ab" d="M273.3333333333333,897.1782178217817C400,897.1782178217817,400,897.1782178217824,526.6666666666666,897.1782178217824"/></g><g style="mix-blend-mode: multiply;" class="link"><path stroke-width="87.62376237623762" stroke="#59a14f" d="M10,817.3927240342719C136.66666666666666,817.3927240342719,136.66666666666666,810.3465346534649,263.3333333333333,810.3465346534649"/></g><g style="mix-blend-mode: multiply;" class="link"><path stroke-width="87.62376237623762" stroke="#9c755f" d="M273.3333333333333,810.3465346534649C400,810.3465346534649,400,810.3465346534656,526.6666666666666,810.3465346534656"/></g><g style="mix-blend-mode: multiply;" class="link"><path stroke-width="74.25742574257426" stroke="#edc949" d="M10,939.9174765095194C136.66666666666666,939.9174765095194,136.66666666666666,962.8712871287122,263.3333333333333,962.8712871287122"/></g><g style="mix-blend-mode: multiply;" class="link"><path stroke-width="74.25742574257426" stroke="#f28e2c" d="M273.3333333333333,962.8712871287122C400,962.8712871287122,400,962.8712871287129,526.6666666666666,962.8712871287129"/></g><g style="mix-blend-mode: multiply;" class="link"><path stroke-width="4.455445544554456" stroke="#af7aa1" d="M10,863.432327994668C136.66666666666666,863.432327994668,136.66666666666666,866.386138613861,263.3333333333333,866.386138613861"/></g><g style="mix-blend-mode: multiply;" class="link"><path stroke-width="4.455445544554456" stroke="#4e79a7" d="M273.3333333333333,866.386138613861C400,866.386138613861,400,866.3861386138617,526.6666666666666,866.3861386138617"/></g><g style="mix-blend-mode: multiply;" class="link"><path stroke-width="7.425742574257425" stroke="#ff9da7" d="M10,714.9174765095192C136.66666666666666,714.9174765095192,136.66666666666666,677.8712871287123,263.3333333333333,677.8712871287123"/></g><g style="mix-blend-mode: multiply;" class="link"><path stroke-width="7.425742574257425" stroke="#e15759" d="M273.3333333333333,677.8712871287123C400,677.8712871287123,400,667.8712871287129,526.6666666666666,667.8712871287129"/></g><g style="mix-blend-mode: multiply;" class="link"><path stroke-width="19.306930693069308" stroke="#9c755f" d="M10,728.2838131431827C136.66666666666666,728.2838131431827,136.66666666666666,701.2376237623757,263.3333333333333,701.2376237623757"/></g><g style="mix-blend-mode: multiply;" class="link"><path stroke-width="19.306930693069308" stroke="#59a14f" d="M273.3333333333333,701.2376237623757C400,701.2376237623757,400,691.2376237623764,526.6666666666666,691.2376237623764"/></g><g style="mix-blend-mode: multiply;" class="link"><path stroke-width="28.217821782178216" stroke="#bab0ab" d="M10,759.4719319550638C136.66666666666666,759.4719319550638,136.66666666666666,742.425742574257,263.3333333333333,742.425742574257"/></g><g style="mix-blend-mode: multiply;" class="link"><path stroke-width="28.217821782178216" stroke="#af7aa1" d="M273.3333333333333,742.425742574257C400,742.425742574257,400,742.4257425742577,526.6666666666666,742.4257425742577"/></g><g style="mix-blend-mode: multiply;" class="link"><path stroke-width="7.425742574257425" stroke="#9c755f" d="M10,741.650149776846C136.66666666666666,741.650149776846,136.66666666666666,714.603960396039,263.3333333333333,714.603960396039"/></g><g style="mix-blend-mode: multiply;" class="link"><path stroke-width="7.425742574257425" stroke="#ff9da7" d="M273.3333333333333,714.603960396039C400,714.603960396039,400,714.6039603960397,526.6666666666666,714.6039603960397"/></g></g></svg>