<svg aria-roledescription="sankey" role="graphics-document document" viewBox="0 0 800 1000" height="1000" xmlns:xlink="http://www.w3.org/1999/xlink" xmlns="http://www.w3.org/2000/svg" width="800" id="my-svg" style="background-color: white;"><style>#my-svg{font-family:"trebuchet ms",verdana,arial,sans-serif;font-size:16px;fill:#333;}#my-svg .error-icon{fill:#552222;}#my-svg .error-text{fill:#552222;stroke:#552222;}#my-svg .edge-thickness-normal{stroke-width:2px;}#my-svg .edge-thickness-thick{stroke-width:3.5px;}#my-svg .edge-pattern-solid{stroke-dasharray:0;}#my-svg .edge-pattern-dashed{stroke-dasharray:3;}#my-svg .edge-pattern-dotted{stroke-dasharray:2;}#my-svg .marker{fill:#333333;stroke:#333333;}#my-svg .marker.cross{stroke:#333333;}#my-svg svg{font-family:"trebuchet ms",verdana,arial,sans-serif;font-size:16px;}#my-svg :root{--mermaid-font-family:"trebuchet ms",verdana,arial,sans-serif;}</style><g/><g class="nodes"><g y="417.0629370629372" x="526.6666666666666" transform="translate(526.6666666666666,417.0629370629372)" id="node-1" class="node"><rect fill="#4e79a7" width="10" height="50.3496503496504"/></g><g y="225.05158640929645" x="790" transform="translate(790,225.05158640929645)" id="node-2" class="node"><rect fill="#f28e2c" width="10" height="113.28671328671325"/></g><g y="16.17046752817754" x="790" transform="translate(790,16.17046752817754)" id="node-3" class="node"><rect fill="#e15759" width="10" height="198.8811188811189"/></g><g y="283.916083916084" x="526.6666666666666" transform="translate(526.6666666666666,283.916083916084)" id="node-4" class="node"><rect fill="#76b7b2" width="10" height="13.846153846153868"/></g><g y="0" x="526.6666666666666" transform="translate(526.6666666666666,0)" id="node-5" class="node"><rect fill="#59a14f" width="10" height="75.52447552447555"/></g><g y="271.3986013986015" x="526.6666666666666" transform="translate(526.6666666666666,271.3986013986015)" id="node-6" class="node"><rect fill="#edc949" width="10" height="2.517482517482506"/></g><g y="307.7622377622379" x="526.6666666666666" transform="translate(526.6666666666666,307.7622377622379)" id="node-7" class="node"><rect fill="#af7aa1" width="10" height="3.7762237762237874"/></g><g y="198.53146853146856" x="526.6666666666666" transform="translate(526.6666666666666,198.53146853146856)" id="node-8" class="node"><rect fill="#ff9da7" width="10" height="2.517482517482506"/></g><g y="356.7132867132869" x="526.6666666666666" transform="translate(526.6666666666666,356.7132867132869)" id="node-9" class="node"><rect fill="#9c755f" width="10" height="50.34965034965029"/></g><g y="841.6783216783219" x="526.6666666666666" transform="translate(526.6666666666666,841.6783216783219)" id="node-10" class="node"><rect fill="#bab0ab" width="10" height="11.328671328671362"/></g><g y="149.58041958041966" x="526.6666666666666" transform="translate(526.6666666666666,149.58041958041966)" id="node-11" class="node"><rect fill="#4e79a7" width="10" height="23.916083916083892"/></g><g y="211.04895104895107" x="526.6666666666666" transform="translate(526.6666666666666,211.04895104895107)" id="node-12" class="node"><rect fill="#f28e2c" width="10" height="50.34965034965043"/></g><g y="489.93006993007015" x="526.6666666666666" transform="translate(526.6666666666666,489.93006993007015)" id="node-13" class="node"><rect fill="#e15759" width="10" height="5.034965034965012"/></g><g y="119.44055944055947" x="526.6666666666666" transform="translate(526.6666666666666,119.44055944055947)" id="node-14" class="node"><rect fill="#76b7b2" width="10" height="20.13986013986019"/></g><g y="183.49650349650355" x="526.6666666666666" transform="translate(526.6666666666666,183.49650349650355)" id="node-15" class="node"><rect fill="#59a14f" width="10" height="5.034965034965012"/></g><g y="85.52447552447555" x="526.6666666666666" transform="translate(526.6666666666666,85.52447552447555)" id="node-16" class="node"><rect fill="#edc949" width="10" height="23.91608391608392"/></g><g y="321.53846153846166" x="526.6666666666666" transform="translate(526.6666666666666,321.53846153846166)" id="node-17" class="node"><rect fill="#af7aa1" width="10" height="25.17482517482523"/></g><g y="14.473671657336727" x="0" transform="translate(0,14.473671657336727)" id="node-18" class="node"><rect fill="#ff9da7" width="10" height="312.16783216783216"/></g><g y="0" x="263.3333333333333" transform="translate(263.3333333333333,0)" id="node-19" class="node"><rect fill="#9c755f" width="10" height="168.6713286713287"/></g><g y="297.38302675318874" x="263.3333333333333" transform="translate(263.3333333333333,297.38302675318874)" id="node-20" class="node"><rect fill="#bab0ab" width="10" height="31.468531468531523"/></g><g y="416.6837260538881" x="263.3333333333333" transform="translate(263.3333333333333,416.6837260538881)" id="node-21" class="node"><rect fill="#4e79a7" width="10" height="2.517482517482449"/></g><g y="182.90750227766412" x="263.3333333333333" transform="translate(263.3333333333333,182.90750227766412)" id="node-22" class="node"><rect fill="#f28e2c" width="10" height="104.47552447552462"/></g><g y="372.76764213780416" x="263.3333333333333" transform="translate(263.3333333333333,372.76764213780416)" id="node-23" class="node"><rect fill="#e15759" width="10" height="5.034965034965012"/></g><g y="477.4125874125876" x="526.6666666666666" transform="translate(526.6666666666666,477.4125874125876)" id="node-24" class="node"><rect fill="#76b7b2" width="10" height="2.517482517482563"/></g><g y="396.768756637051" x="790" transform="translate(790,396.768756637051)" id="node-25" class="node"><rect fill="#59a14f" width="10" height="47.832167832167784"/></g><g y="454.6009244692188" x="790" transform="translate(790,454.6009244692188)" id="node-26" class="node"><rect fill="#edc949" width="10" height="50.34965034965035"/></g><g y="542.657342657343" x="526.6666666666666" transform="translate(526.6666666666666,542.657342657343)" id="node-27" class="node"><rect fill="#af7aa1" width="10" height="25.17482517482506"/></g><g y="504.96503496503516" x="526.6666666666666" transform="translate(526.6666666666666,504.96503496503516)" id="node-28" class="node"><rect fill="#ff9da7" width="10" height="27.692307692307793"/></g><g y="393.22344993509887" x="0" transform="translate(0,393.22344993509887)" id="node-29" class="node"><rect fill="#9c755f" width="10" height="98.18181818181819"/></g><g y="338.85155822172027" x="263.3333333333333" transform="translate(263.3333333333333,338.85155822172027)" id="node-30" class="node"><rect fill="#bab0ab" width="10" height="23.916083916083892"/></g><g y="443.4694122370812" x="263.3333333333333" transform="translate(263.3333333333333,443.4694122370812)" id="node-31" class="node"><rect fill="#4e79a7" width="10" height="55.384615384615415"/></g><g y="387.80260717276917" x="263.3333333333333" transform="translate(263.3333333333333,387.80260717276917)" id="node-32" class="node"><rect fill="#f28e2c" width="10" height="18.881118881118937"/></g><g y="604.1958041958046" x="526.6666666666666" transform="translate(526.6666666666666,604.1958041958046)" id="node-33" class="node"><rect fill="#e15759" width="10" height="6.2937062937062365"/></g><g y="617.149300091232" x="790" transform="translate(790,617.149300091232)" id="node-34" class="node"><rect fill="#76b7b2" width="10" height="33.98601398601397"/></g><g y="670.071104666266" x="790" transform="translate(790,670.071104666266)" id="node-35" class="node"><rect fill="#59a14f" width="10" height="191.32867132867136"/></g><g y="636.7832167832171" x="526.6666666666666" transform="translate(526.6666666666666,636.7832167832171)" id="node-36" class="node"><rect fill="#edc949" width="10" height="23.916083916083835"/></g><g y="577.8321678321681" x="526.6666666666666" transform="translate(526.6666666666666,577.8321678321681)" id="node-37" class="node"><rect fill="#af7aa1" width="10" height="16.363636363636488"/></g><g y="620.4895104895108" x="526.6666666666666" transform="translate(526.6666666666666,620.4895104895108)" id="node-38" class="node"><rect fill="#ff9da7" width="10" height="6.2937062937062365"/></g><g y="670.6993006993009" x="526.6666666666666" transform="translate(526.6666666666666,670.6993006993009)" id="node-39" class="node"><rect fill="#9c755f" width="10" height="3.7762237762237874"/></g><g y="684.4755244755247" x="526.6666666666666" transform="translate(526.6666666666666,684.4755244755247)" id="node-40" class="node"><rect fill="#bab0ab" width="10" height="62.93706293706305"/></g><g y="757.4125874125878" x="526.6666666666666" transform="translate(526.6666666666666,757.4125874125878)" id="node-41" class="node"><rect fill="#4e79a7" width="10" height="74.26573426573418"/></g><g y="863.0069930069933" x="526.6666666666666" transform="translate(526.6666666666666,863.0069930069933)" id="node-42" class="node"><rect fill="#f28e2c" width="10" height="31.46853146853141"/></g><g y="631.6132843041156" x="0" transform="translate(0,631.6132843041156)" id="node-43" class="node"><rect fill="#e15759" width="10" height="225.31468531468533"/></g><g y="595.508823495268" x="263.3333333333333" transform="translate(263.3333333333333,595.508823495268)" id="node-44" class="node"><rect fill="#76b7b2" width="10" height="22.657342657342497"/></g><g y="649.3006993006991" x="263.3333333333333" transform="translate(263.3333333333333,649.3006993006991)" id="node-45" class="node"><rect fill="#59a14f" width="10" height="23.916083916083835"/></g><g y="633.0069930069928" x="263.3333333333333" transform="translate(263.3333333333333,633.0069930069928)" id="node-46" class="node"><rect fill="#edc949" width="10" height="6.2937062937062365"/></g><g y="683.2167832167829" x="263.3333333333333" transform="translate(263.3333333333333,683.2167832167829)" id="node-47" class="node"><rect fill="#af7aa1" width="10" height="3.7762237762237874"/></g><g y="696.9930069930067" x="263.3333333333333" transform="translate(263.3333333333333,696.9930069930067)" id="node-48" class="node"><rect fill="#ff9da7" width="10" height="62.93706293706305"/></g><g y="769.9300699300697" x="263.3333333333333" transform="translate(263.3333333333333,769.9300699300697)" id="node-49" class="node"><rect fill="#9c755f" width="10" height="74.26573426573441"/></g><g y="854.1958041958042" x="263.3333333333333" transform="translate(263.3333333333333,854.1958041958042)" id="node-50" class="node"><rect fill="#bab0ab" width="10" height="31.46853146853141"/></g><g y="948.4615384615386" x="526.6666666666666" transform="translate(526.6666666666666,948.4615384615386)" id="node-51" class="node"><rect fill="#4e79a7" width="10" height="6.2937062937062365"/></g><g y="887.8229784248405" x="790" transform="translate(790,887.8229784248405)" id="node-52" class="node"><rect fill="#f28e2c" width="10" height="27.692307692307622"/></g><g y="936.9377334640255" x="790" transform="translate(790,936.9377334640255)" id="node-53" class="node"><rect fill="#e15759" width="10" height="56.64335664335681"/></g><g y="904.4755244755247" x="526.6666666666666" transform="translate(526.6666666666666,904.4755244755247)" id="node-54" class="node"><rect fill="#76b7b2" width="10" height="33.98601398601386"/></g><g y="964.7552447552448" x="526.6666666666666" transform="translate(526.6666666666666,964.7552447552448)" id="node-55" class="node"><rect fill="#59a14f" width="10" height="35.2447552447552"/></g><g y="902.9263065838276" x="0" transform="translate(0,902.9263065838276)" id="node-56" class="node"><rect fill="#edc949" width="10" height="84.33566433566443"/></g><g y="895.6643356643356" x="263.3333333333333" transform="translate(263.3333333333333,895.6643356643356)" id="node-57" class="node"><rect fill="#af7aa1" width="10" height="42.79720279720277"/></g><g y="948.4615384615383" x="263.3333333333333" transform="translate(263.3333333333333,948.4615384615383)" id="node-58" class="node"><rect fill="#ff9da7" width="10" height="6.293706293706464"/></g><g y="964.7552447552448" x="263.3333333333333" transform="translate(263.3333333333333,964.7552447552448)" id="node-59" class="node"><rect fill="#9c755f" width="10" height="35.2447552447552"/></g></g><g font-size="14" font-family="sans-serif" class="node-labels"><text text-anchor="end" dy="0.35em" y="442.23776223776235" x="520.6666666666666">Morin 2011</text><text text-anchor="end" dy="0.35em" y="281.69494305265306" x="784">DLBCL Tier 1</text><text text-anchor="end" dy="0.35em" y="115.611026968737" x="784">DLBCL Tier 2</text><text text-anchor="end" dy="0.35em" y="290.83916083916097" x="520.6666666666666">Pasqualucci 2011</text><text text-anchor="end" dy="0.35em" y="37.762237762237774" x="520.6666666666666">Reddy 2017</text><text text-anchor="end" dy="0.35em" y="272.6573426573427" x="520.6666666666666">Morin 2016</text><text text-anchor="end" dy="0.35em" y="309.65034965034977" x="520.6666666666666">Albuquerque 2017</text><text text-anchor="end" dy="0.35em" y="199.79020979020981" x="520.6666666666666">Mareschal 2016</text><text text-anchor="end" dy="0.35em" y="381.888111888112" x="520.6666666666666">Hubschmann 2021</text><text text-anchor="end" dy="0.35em" y="847.3426573426576" x="520.6666666666666">Pararajalingam 2020</text><text text-anchor="end" dy="0.35em" y="161.5384615384616" x="520.6666666666666">Zhang 2013</text><text text-anchor="end" dy="0.35em" y="236.22377622377627" x="520.6666666666666">Morin 2013</text><text text-anchor="end" dy="0.35em" y="492.44755244755265" x="520.6666666666666">Pasqualucci 2001</text><text text-anchor="end" dy="0.35em" y="129.51048951048955" x="520.6666666666666">Schmitz 2018</text><text text-anchor="end" dy="0.35em" y="186.01398601398606" x="520.6666666666666">Lohr 2012</text><text text-anchor="end" dy="0.35em" y="97.48251748251751" x="520.6666666666666">Chapuy 2018</text><text text-anchor="end" dy="0.35em" y="334.12587412587425" x="520.6666666666666">Arthur 2018</text><text text-anchor="start" dy="0.35em" y="170.55758774125283" x="16">DLBCL</text><text text-anchor="start" dy="0.35em" y="84.33566433566435" x="279.3333333333333">DLBCL-exome</text><text text-anchor="start" dy="0.35em" y="313.1172924874545" x="279.3333333333333">DLBCL-RNA-seq/WGS</text><text text-anchor="start" dy="0.35em" y="417.94246731262933" x="279.3333333333333">DLBCL-WGS/exome</text><text text-anchor="start" dy="0.35em" y="235.14526451542645" x="279.3333333333333">DLBCL-WGS</text><text text-anchor="start" dy="0.35em" y="375.28512465528667" x="279.3333333333333">DLBCL-Sanger</text><text text-anchor="end" dy="0.35em" y="478.67132867132887" x="520.6666666666666">Okosun 2016</text><text text-anchor="end" dy="0.35em" y="420.6848405531349" x="784">FL Tier 1</text><text text-anchor="end" dy="0.35em" y="479.77574964404397" x="784">FL Tier 2</text><text text-anchor="end" dy="0.35em" y="555.2447552447554" x="520.6666666666666">Russler-germain 2023</text><text text-anchor="end" dy="0.35em" y="518.811188811189" x="520.6666666666666">Krysiak 2017</text><text text-anchor="start" dy="0.35em" y="442.314359026008" x="16">FL</text><text text-anchor="start" dy="0.35em" y="350.80960017976224" x="279.3333333333333">FL-WGS</text><text text-anchor="start" dy="0.35em" y="471.16171992938894" x="279.3333333333333">FL-exome</text><text text-anchor="start" dy="0.35em" y="397.24316661332864" x="279.3333333333333">FL-RNA-seq/WGS</text><text text-anchor="end" dy="0.35em" y="607.3426573426577" x="520.6666666666666">Thomas 2023</text><text text-anchor="end" dy="0.35em" y="634.1423070842391" x="784">BL Tier 1</text><text text-anchor="end" dy="0.35em" y="765.7354403306017" x="784">BL Tier 2</text><text text-anchor="end" dy="0.35em" y="648.741258741259" x="520.6666666666666">Schmitz 2012</text><text text-anchor="end" dy="0.35em" y="586.0139860139864" x="520.6666666666666">Grande 2019</text><text text-anchor="end" dy="0.35em" y="623.636363636364" x="520.6666666666666">Richter 2012</text><text text-anchor="end" dy="0.35em" y="672.5874125874128" x="520.6666666666666">Muppidi 2014</text><text text-anchor="end" dy="0.35em" y="715.9440559440562" x="520.6666666666666">Panea 2019</text><text text-anchor="end" dy="0.35em" y="794.5454545454548" x="520.6666666666666">Love 2012</text><text text-anchor="end" dy="0.35em" y="878.741258741259" x="520.6666666666666">Burkhardt 2022</text><text text-anchor="start" dy="0.35em" y="744.2706269614582" x="16">BL</text><text text-anchor="start" dy="0.35em" y="606.8374948239392" x="279.3333333333333">BL-WGS</text><text text-anchor="start" dy="0.35em" y="661.258741258741" x="279.3333333333333">BL-RNA-seq</text><text text-anchor="start" dy="0.35em" y="636.153846153846" x="279.3333333333333">BL-RNA-seq/WGS/exome</text><text text-anchor="start" dy="0.35em" y="685.1048951048948" x="279.3333333333333">BL-Sanger</text><text text-anchor="start" dy="0.35em" y="728.4615384615382" x="279.3333333333333">BL-RNA-seq/exome</text><text text-anchor="start" dy="0.35em" y="807.062937062937" x="279.3333333333333">BL-exome</text><text text-anchor="start" dy="0.35em" y="869.9300699300699" x="279.3333333333333">BL-panel</text><text text-anchor="end" dy="0.35em" y="951.6083916083917" x="520.6666666666666">Nadeu 2020</text><text text-anchor="end" dy="0.35em" y="901.6691322709943" x="784">MCL Tier 1</text><text text-anchor="end" dy="0.35em" y="965.259411785704" x="784">MCL Tier 2</text><text text-anchor="end" dy="0.35em" y="921.4685314685316" x="520.6666666666666">Bea 2013</text><text text-anchor="end" dy="0.35em" y="982.3776223776224" x="520.6666666666666">Zhang 2014</text><text text-anchor="start" dy="0.35em" y="945.0941387516598" x="16">MCL</text><text text-anchor="start" dy="0.35em" y="917.062937062937" x="279.3333333333333">MCL-WGS/exome</text><text text-anchor="start" dy="0.35em" y="951.6083916083916" x="279.3333333333333">MCL-WGS</text><text text-anchor="start" dy="0.35em" y="982.3776223776224" x="279.3333333333333">MCL-exome</text></g><g stroke-opacity="0.5" fill="none" class="links"><g style="mix-blend-mode: multiply;" class="link"><path stroke-width="30.20979020979021" stroke="#f28e2c" d="M536.6666666666666,433.42657342657355C663.3333333333333,433.42657342657355,663.3333333333333,320.7159220736321,790,320.7159220736321"/></g><g style="mix-blend-mode: multiply;" class="link"><path stroke-width="1.2587412587412588" stroke="#e15759" d="M536.6666666666666,417.6923076923078C663.3333333333333,417.6923076923078,663.3333333333333,209.38725074496077,790,209.38725074496077"/></g><g style="mix-blend-mode: multiply;" class="link"><path stroke-width="2.5174825174825175" stroke="#f28e2c" d="M536.6666666666666,290.2097902097903C663.3333333333333,290.2097902097903,663.3333333333333,282.95368431139434,790,282.95368431139434"/></g><g style="mix-blend-mode: multiply;" class="link"><path stroke-width="8.811188811188812" stroke="#f28e2c" d="M536.6666666666666,71.11888111888112C663.3333333333333,71.11888111888112,663.3333333333333,229.45718081489085,790,229.45718081489085"/></g><g style="mix-blend-mode: multiply;" class="link"><path stroke-width="66.71328671328672" stroke="#e15759" d="M536.6666666666666,33.35664335664336C663.3333333333333,33.35664335664336,663.3333333333333,49.5271108848209,790,49.5271108848209"/></g><g style="mix-blend-mode: multiply;" class="link"><path stroke-width="3.7762237762237763" stroke="#f28e2c" d="M536.6666666666666,293.3566433566434C663.3333333333333,293.3566433566434,663.3333333333333,286.10053745824746,790,286.10053745824746"/></g><g style="mix-blend-mode: multiply;" class="link"><path stroke-width="5.034965034965035" stroke="#e15759" d="M536.6666666666666,286.4335664335665C663.3333333333333,286.4335664335665,663.3333333333333,165.96067731838733,790,165.96067731838733"/></g><g style="mix-blend-mode: multiply;" class="link"><path stroke-width="2.5174825174825175" stroke="#f28e2c" d="M536.6666666666666,272.6573426573428C663.3333333333333,272.6573426573428,663.3333333333333,280.43620179391183,790,280.43620179391183"/></g><g style="mix-blend-mode: multiply;" class="link"><path stroke-width="3.7762237762237763" stroke="#f28e2c" d="M536.6666666666666,309.65034965034977C663.3333333333333,309.65034965034977,663.3333333333333,289.87676123447125,790,289.87676123447125"/></g><g style="mix-blend-mode: multiply;" class="link"><path stroke-width="2.5174825174825175" stroke="#f28e2c" d="M536.6666666666666,199.79020979020981C663.3333333333333,199.79020979020981,663.3333333333333,264.07256543027546,790,264.07256543027546"/></g><g style="mix-blend-mode: multiply;" class="link"><path stroke-width="3.7762237762237763" stroke="#f28e2c" d="M536.6666666666666,383.77622377622396C663.3333333333333,383.77622377622396,663.3333333333333,303.7229150806251,790,303.7229150806251"/></g><g style="mix-blend-mode: multiply;" class="link"><path stroke-width="25.174825174825173" stroke="#e15759" d="M536.6666666666666,369.3006993006995C663.3333333333333,369.3006993006995,663.3333333333333,196.17046752817754,790,196.17046752817754"/></g><g style="mix-blend-mode: multiply;" class="link"><path stroke-width="2.5174825174825175" stroke="#e15759" d="M536.6666666666666,842.9370629370632C663.3333333333333,842.9370629370632,663.3333333333333,213.79284515055514,790,213.79284515055514"/></g><g style="mix-blend-mode: multiply;" class="link"><path stroke-width="13.846153846153847" stroke="#f28e2c" d="M536.6666666666666,166.57342657342667C663.3333333333333,166.57342657342667,663.3333333333333,252.1145234722335,790,252.1145234722335"/></g><g style="mix-blend-mode: multiply;" class="link"><path stroke-width="10.06993006993007" stroke="#e15759" d="M536.6666666666666,154.6153846153847C663.3333333333333,154.6153846153847,663.3333333333333,120.64599200370203,790,120.64599200370203"/></g><g style="mix-blend-mode: multiply;" class="link"><path stroke-width="13.846153846153847" stroke="#f28e2c" d="M536.6666666666666,254.4755244755245C663.3333333333333,254.4755244755245,663.3333333333333,272.2543836120936,790,272.2543836120936"/></g><g style="mix-blend-mode: multiply;" class="link"><path stroke-width="36.50349650349651" stroke="#e15759" d="M536.6666666666666,229.3006993006993C663.3333333333333,229.3006993006993,663.3333333333333,145.19144654915658,790,145.19144654915658"/></g><g style="mix-blend-mode: multiply;" class="link"><path stroke-width="2.5174825174825175" stroke="#f28e2c" d="M536.6666666666666,493.70629370629393C663.3333333333333,493.70629370629393,663.3333333333333,337.0795584372685,790,337.0795584372685"/></g><g style="mix-blend-mode: multiply;" class="link"><path stroke-width="2.5174825174825175" stroke="#e15759" d="M536.6666666666666,491.1888111888114C663.3333333333333,491.1888111888114,663.3333333333333,211.27536263307263,790,211.27536263307263"/></g><g style="mix-blend-mode: multiply;" class="link"><path stroke-width="8.811188811188812" stroke="#f28e2c" d="M536.6666666666666,135.1748251748252C663.3333333333333,135.1748251748252,663.3333333333333,240.78585214356215,790,240.78585214356215"/></g><g style="mix-blend-mode: multiply;" class="link"><path stroke-width="11.328671328671328" stroke="#e15759" d="M536.6666666666666,125.10489510489514C663.3333333333333,125.10489510489514,663.3333333333333,109.94669130440133,790,109.94669130440133"/></g><g style="mix-blend-mode: multiply;" class="link"><path stroke-width="3.7762237762237763" stroke="#f28e2c" d="M536.6666666666666,186.6433566433567C663.3333333333333,186.6433566433567,663.3333333333333,260.9257122834223,790,260.9257122834223"/></g><g style="mix-blend-mode: multiply;" class="link"><path stroke-width="1.2587412587412588" stroke="#e15759" d="M536.6666666666666,184.1258741258742C663.3333333333333,184.1258741258742,663.3333333333333,126.31032766803769,790,126.31032766803769"/></g><g style="mix-blend-mode: multiply;" class="link"><path stroke-width="2.5174825174825175" stroke="#f28e2c" d="M536.6666666666666,108.1818181818182C663.3333333333333,108.1818181818182,663.3333333333333,235.1215164792265,790,235.1215164792265"/></g><g style="mix-blend-mode: multiply;" class="link"><path stroke-width="21.3986013986014" stroke="#e15759" d="M536.6666666666666,96.22377622377624C663.3333333333333,96.22377622377624,663.3333333333333,93.58305494076495,790,93.58305494076495"/></g><g style="mix-blend-mode: multiply;" class="link"><path stroke-width="10.06993006993007" stroke="#f28e2c" d="M536.6666666666666,341.67832167832177C663.3333333333333,341.67832167832177,663.3333333333333,296.79983815754815,790,296.79983815754815"/></g><g style="mix-blend-mode: multiply;" class="link"><path stroke-width="15.104895104895105" stroke="#e15759" d="M536.6666666666666,329.09090909090924C663.3333333333333,329.09090909090924,663.3333333333333,176.0306073883174,790,176.0306073883174"/></g><g style="mix-blend-mode: multiply;" class="link"><path stroke-width="2.5174825174825175" stroke="#9c755f" d="M10,15.732412916077985C136.66666666666666,15.732412916077985,136.66666666666666,1.2587412587412588,263.3333333333333,1.2587412587412588"/></g><g style="mix-blend-mode: multiply;" class="link"><path stroke-width="2.5174825174825175" stroke="#ff9da7" d="M273.3333333333333,149.7902097902098C400,149.7902097902098,400,199.79020979020981,526.6666666666666,199.79020979020981"/></g><g style="mix-blend-mode: multiply;" class="link"><path stroke-width="3.7762237762237763" stroke="#9c755f" d="M10,18.87926606293113C136.66666666666666,18.87926606293113,136.66666666666666,4.405594405594406,263.3333333333333,4.405594405594406"/></g><g style="mix-blend-mode: multiply;" class="link"><path stroke-width="3.7762237762237763" stroke="#af7aa1" d="M273.3333333333333,166.78321678321674C400,166.78321678321674,400,309.65034965034977,526.6666666666666,309.65034965034977"/></g><g style="mix-blend-mode: multiply;" class="link"><path stroke-width="2.5174825174825175" stroke="#9c755f" d="M10,22.02611920978428C136.66666666666666,22.02611920978428,136.66666666666666,7.552447552447552,263.3333333333333,7.552447552447552"/></g><g style="mix-blend-mode: multiply;" class="link"><path stroke-width="2.5174825174825175" stroke="#edc949" d="M273.3333333333333,152.3076923076923C400,152.3076923076923,400,272.6573426573428,526.6666666666666,272.6573426573428"/></g><g style="mix-blend-mode: multiply;" class="link"><path stroke-width="8.811188811188812" stroke="#9c755f" d="M10,27.690454874119943C136.66666666666666,27.690454874119943,136.66666666666666,13.216783216783217,263.3333333333333,13.216783216783217"/></g><g style="mix-blend-mode: multiply;" class="link"><path stroke-width="8.811188811188812" stroke="#76b7b2" d="M273.3333333333333,157.97202797202794C400,157.97202797202794,400,288.3216783216784,526.6666666666666,288.3216783216784"/></g><g style="mix-blend-mode: multiply;" class="link"><path stroke-width="75.52447552447552" stroke="#9c755f" d="M10,69.85828704195211C136.66666666666666,69.85828704195211,136.66666666666666,55.38461538461538,263.3333333333333,55.38461538461538"/></g><g style="mix-blend-mode: multiply;" class="link"><path stroke-width="75.52447552447552" stroke="#59a14f" d="M273.3333333333333,37.76223776223776C400,37.76223776223776,400,37.76223776223776,526.6666666666666,37.76223776223776"/></g><g style="mix-blend-mode: multiply;" class="link"><path stroke-width="2.5174825174825175" stroke="#9c755f" d="M10,108.87926606293112C136.66666666666666,108.87926606293112,136.66666666666666,94.4055944055944,263.3333333333333,94.4055944055944"/></g><g style="mix-blend-mode: multiply;" class="link"><path stroke-width="2.5174825174825175" stroke="#76b7b2" d="M273.3333333333333,163.6363636363636C400,163.6363636363636,400,293.9860139860141,526.6666666666666,293.9860139860141"/></g><g style="mix-blend-mode: multiply;" class="link"><path stroke-width="31.46853146853147" stroke="#bab0ab" d="M10,303.35479053845563C136.66666666666666,303.35479053845563,136.66666666666666,313.1172924874545,263.3333333333333,313.1172924874545"/></g><g style="mix-blend-mode: multiply;" class="link"><path stroke-width="31.46853146853147" stroke="#4e79a7" d="M273.3333333333333,313.1172924874545C400,313.1172924874545,400,432.79720279720294,526.6666666666666,432.79720279720294"/></g><g style="mix-blend-mode: multiply;" class="link"><path stroke-width="23.916083916083917" stroke="#9c755f" d="M10,122.09604927971435C136.66666666666666,122.09604927971435,136.66666666666666,107.62237762237763,263.3333333333333,107.62237762237763"/></g><g style="mix-blend-mode: multiply;" class="link"><path stroke-width="23.916083916083917" stroke="#4e79a7" d="M273.3333333333333,131.53846153846152C400,131.53846153846152,400,161.5384615384616,526.6666666666666,161.5384615384616"/></g><g style="mix-blend-mode: multiply;" class="link"><path stroke-width="2.5174825174825175" stroke="#4e79a7" d="M10,325.38276256642763C136.66666666666666,325.38276256642763,136.66666666666666,417.9424673126294,263.3333333333333,417.9424673126294"/></g><g style="mix-blend-mode: multiply;" class="link"><path stroke-width="2.5174825174825175" stroke="#bab0ab" d="M273.3333333333333,417.9424673126294C400,417.9424673126294,400,842.9370629370632,526.6666666666666,842.9370629370632"/></g><g style="mix-blend-mode: multiply;" class="link"><path stroke-width="28.95104895104895" stroke="#f28e2c" d="M10,197.62052480418987C136.66666666666666,197.62052480418987,136.66666666666666,197.3830267531886,263.3333333333333,197.3830267531886"/></g><g style="mix-blend-mode: multiply;" class="link"><path stroke-width="28.95104895104895" stroke="#9c755f" d="M273.3333333333333,272.9075022776641C400,272.9075022776641,400,371.18881118881137,526.6666666666666,371.18881118881137"/></g><g style="mix-blend-mode: multiply;" class="link"><path stroke-width="5.034965034965035" stroke="#9c755f" d="M10,136.5715737552388C136.66666666666666,136.5715737552388,136.66666666666666,122.09790209790211,263.3333333333333,122.09790209790211"/></g><g style="mix-blend-mode: multiply;" class="link"><path stroke-width="5.034965034965035" stroke="#59a14f" d="M273.3333333333333,146.013986013986C400,146.013986013986,400,186.01398601398606,526.6666666666666,186.01398601398606"/></g><g style="mix-blend-mode: multiply;" class="link"><path stroke-width="20.13986013986014" stroke="#9c755f" d="M10,149.15898634265142C136.66666666666666,149.15898634265142,136.66666666666666,134.6853146853147,263.3333333333333,134.6853146853147"/></g><g style="mix-blend-mode: multiply;" class="link"><path stroke-width="20.13986013986014" stroke="#76b7b2" d="M273.3333333333333,109.5104895104895C400,109.5104895104895,400,129.51048951048955,526.6666666666666,129.51048951048955"/></g><g style="mix-blend-mode: multiply;" class="link"><path stroke-width="5.034965034965035" stroke="#e15759" d="M10,321.60653879020384C136.66666666666666,321.60653879020384,136.66666666666666,375.28512465528667,263.3333333333333,375.28512465528667"/></g><g style="mix-blend-mode: multiply;" class="link"><path stroke-width="5.034965034965035" stroke="#e15759" d="M273.3333333333333,375.28512465528667C400,375.28512465528667,400,492.44755244755265,526.6666666666666,492.44755244755265"/></g><g style="mix-blend-mode: multiply;" class="link"><path stroke-width="50.34965034965035" stroke="#f28e2c" d="M10,237.27087445453952C136.66666666666666,237.27087445453952,136.66666666666666,237.03337640353826,263.3333333333333,237.03337640353826"/></g><g style="mix-blend-mode: multiply;" class="link"><path stroke-width="50.34965034965035" stroke="#f28e2c" d="M273.3333333333333,208.0823274524893C400,208.0823274524893,400,236.22377622377624,526.6666666666666,236.22377622377624"/></g><g style="mix-blend-mode: multiply;" class="link"><path stroke-width="25.174825174825173" stroke="#f28e2c" d="M10,275.0331122167773C136.66666666666666,275.0331122167773,136.66666666666666,274.795614165776,263.3333333333333,274.795614165776"/></g><g style="mix-blend-mode: multiply;" class="link"><path stroke-width="25.174825174825173" stroke="#af7aa1" d="M273.3333333333333,245.84456521472706C400,245.84456521472706,400,334.12587412587425,526.6666666666666,334.12587412587425"/></g><g style="mix-blend-mode: multiply;" class="link"><path stroke-width="23.916083916083917" stroke="#9c755f" d="M10,171.18695837062342C136.66666666666666,171.18695837062342,136.66666666666666,156.71328671328672,263.3333333333333,156.71328671328672"/></g><g style="mix-blend-mode: multiply;" class="link"><path stroke-width="23.916083916083917" stroke="#edc949" d="M273.3333333333333,87.48251748251748C400,87.48251748251748,400,97.48251748251751,526.6666666666666,97.48251748251751"/></g><g style="mix-blend-mode: multiply;" class="link"><path stroke-width="2.5174825174825175" stroke="#59a14f" d="M536.6666666666666,478.67132867132887C663.3333333333333,478.67132867132887,663.3333333333333,420.6848405531349,790,420.6848405531349"/></g><g style="mix-blend-mode: multiply;" class="link"><path stroke-width="17.622377622377623" stroke="#59a14f" d="M536.6666666666666,457.34265734265745C663.3333333333333,457.34265734265745,663.3333333333333,410.6149104832048,790,410.6149104832048"/></g><g style="mix-blend-mode: multiply;" class="link"><path stroke-width="1.2587412587412588" stroke="#edc949" d="M536.6666666666666,466.78321678321686C663.3333333333333,466.78321678321686,663.3333333333333,474.1114139797083,790,474.1114139797083"/></g><g style="mix-blend-mode: multiply;" class="link"><path stroke-width="1.2587412587412588" stroke="#59a14f" d="M536.6666666666666,543.2867132867136C663.3333333333333,543.2867132867136,663.3333333333333,443.9715538398481,790,443.9715538398481"/></g><g style="mix-blend-mode: multiply;" class="link"><path stroke-width="23.916083916083917" stroke="#edc949" d="M536.6666666666666,555.8741258741261C663.3333333333333,555.8741258741261,663.3333333333333,492.9925328608272,790,492.9925328608272"/></g><g style="mix-blend-mode: multiply;" class="link"><path stroke-width="2.5174825174825175" stroke="#59a14f" d="M536.6666666666666,296.5034965034966C663.3333333333333,296.5034965034966,663.3333333333333,398.0274978957923,790,398.0274978957923"/></g><g style="mix-blend-mode: multiply;" class="link"><path stroke-width="2.5174825174825175" stroke="#59a14f" d="M536.6666666666666,386.92307692307713C663.3333333333333,386.92307692307713,663.3333333333333,400.5449804132748,790,400.5449804132748"/></g><g style="mix-blend-mode: multiply;" class="link"><path stroke-width="18.88111888111888" stroke="#edc949" d="M536.6666666666666,397.6223776223778C663.3333333333333,397.6223776223778,663.3333333333333,464.0414839097782,790,464.0414839097782"/></g><g style="mix-blend-mode: multiply;" class="link"><path stroke-width="21.3986013986014" stroke="#59a14f" d="M536.6666666666666,515.6643356643359C663.3333333333333,515.6643356643359,663.3333333333333,432.6428825111768,790,432.6428825111768"/></g><g style="mix-blend-mode: multiply;" class="link"><path stroke-width="6.293706293706293" stroke="#edc949" d="M536.6666666666666,529.5104895104897C663.3333333333333,529.5104895104897,663.3333333333333,477.88763775593213,790,477.88763775593213"/></g><g style="mix-blend-mode: multiply;" class="link"><path stroke-width="2.5174825174825175" stroke="#bab0ab" d="M10,394.48219119384015C136.66666666666666,394.48219119384015,136.66666666666666,340.11029948046155,263.3333333333333,340.11029948046155"/></g><g style="mix-blend-mode: multiply;" class="link"><path stroke-width="2.5174825174825175" stroke="#76b7b2" d="M273.3333333333333,361.50890087906294C400,361.50890087906294,400,478.67132867132887,526.6666666666666,478.67132867132887"/></g><g style="mix-blend-mode: multiply;" class="link"><path stroke-width="2.5174825174825175" stroke="#4e79a7" d="M10,437.2793939910429C136.66666666666666,437.2793939910429,136.66666666666666,444.7281534958225,263.3333333333333,444.7281534958225"/></g><g style="mix-blend-mode: multiply;" class="link"><path stroke-width="2.5174825174825175" stroke="#76b7b2" d="M273.3333333333333,444.7281534958225C400,444.7281534958225,400,296.5034965034966,526.6666666666666,296.5034965034966"/></g><g style="mix-blend-mode: multiply;" class="link"><path stroke-width="25.174825174825173" stroke="#4e79a7" d="M10,451.12554783719673C136.66666666666666,451.12554783719673,136.66666666666666,458.5743073419763,263.3333333333333,458.5743073419763"/></g><g style="mix-blend-mode: multiply;" class="link"><path stroke-width="25.174825174825173" stroke="#af7aa1" d="M273.3333333333333,486.266615034284C400,486.266615034284,400,555.2447552447555,526.6666666666666,555.2447552447555"/></g><g style="mix-blend-mode: multiply;" class="link"><path stroke-width="18.88111888111888" stroke="#f28e2c" d="M10,426.5800932917422C136.66666666666666,426.5800932917422,136.66666666666666,397.24316661332864,263.3333333333333,397.24316661332864"/></g><g style="mix-blend-mode: multiply;" class="link"><path stroke-width="18.88111888111888" stroke="#4e79a7" d="M273.3333333333333,397.24316661332864C400,397.24316661332864,400,457.97202797202806,526.6666666666666,457.97202797202806"/></g><g style="mix-blend-mode: multiply;" class="link"><path stroke-width="27.692307692307693" stroke="#4e79a7" d="M10,477.5591142707632C136.66666666666666,477.5591142707632,136.66666666666666,485.00787377554275,263.3333333333333,485.00787377554275"/></g><g style="mix-blend-mode: multiply;" class="link"><path stroke-width="27.692307692307693" stroke="#ff9da7" d="M273.3333333333333,459.8330486007176C400,459.8330486007176,400,518.811188811189,526.6666666666666,518.811188811189"/></g><g style="mix-blend-mode: multiply;" class="link"><path stroke-width="21.3986013986014" stroke="#bab0ab" d="M10,406.44023315188207C136.66666666666666,406.44023315188207,136.66666666666666,352.06834143850347,263.3333333333333,352.06834143850347"/></g><g style="mix-blend-mode: multiply;" class="link"><path stroke-width="21.3986013986014" stroke="#9c755f" d="M273.3333333333333,349.55085892102096C400,349.55085892102096,400,396.36363636363654,526.6666666666666,396.36363636363654"/></g><g style="mix-blend-mode: multiply;" class="link"><path stroke-width="2.5174825174825175" stroke="#76b7b2" d="M536.6666666666666,605.4545454545458C663.3333333333333,605.4545454545458,663.3333333333333,629.7367126786446,790,629.7367126786446"/></g><g style="mix-blend-mode: multiply;" class="link"><path stroke-width="3.7762237762237763" stroke="#59a14f" d="M536.6666666666666,608.6013986013991C663.3333333333333,608.6013986013991,663.3333333333333,676.9941815893429,790,676.9941815893429"/></g><g style="mix-blend-mode: multiply;" class="link"><path stroke-width="3.7762237762237763" stroke="#76b7b2" d="M536.6666666666666,638.671328671329C663.3333333333333,638.671328671329,663.3333333333333,639.1772721192041,790,639.1772721192041"/></g><g style="mix-blend-mode: multiply;" class="link"><path stroke-width="20.13986013986014" stroke="#59a14f" d="M536.6666666666666,650.6293706293709C663.3333333333333,650.6293706293709,663.3333333333333,688.9522235473848,790,688.9522235473848"/></g><g style="mix-blend-mode: multiply;" class="link"><path stroke-width="11.328671328671328" stroke="#76b7b2" d="M536.6666666666666,583.4965034965038C663.3333333333333,583.4965034965038,663.3333333333333,622.8136357555677,790,622.8136357555677"/></g><g style="mix-blend-mode: multiply;" class="link"><path stroke-width="5.034965034965035" stroke="#59a14f" d="M536.6666666666666,591.678321678322C663.3333333333333,591.678321678322,663.3333333333333,672.5885871837486,790,672.5885871837486"/></g><g style="mix-blend-mode: multiply;" class="link"><path stroke-width="6.293706293706293" stroke="#76b7b2" d="M536.6666666666666,623.636363636364C663.3333333333333,623.636363636364,663.3333333333333,634.1423070842391,790,634.1423070842391"/></g><g style="mix-blend-mode: multiply;" class="link"><path stroke-width="1.2587412587412588" stroke="#76b7b2" d="M536.6666666666666,671.3286713286716C663.3333333333333,671.3286713286716,663.3333333333333,641.6947546366866,790,641.6947546366866"/></g><g style="mix-blend-mode: multiply;" class="link"><path stroke-width="2.5174825174825175" stroke="#59a14f" d="M536.6666666666666,673.2167832167834C663.3333333333333,673.2167832167834,663.3333333333333,700.2808948760562,790,700.2808948760562"/></g><g style="mix-blend-mode: multiply;" class="link"><path stroke-width="5.034965034965035" stroke="#76b7b2" d="M536.6666666666666,686.9930069930073C663.3333333333333,686.9930069930073,663.3333333333333,644.8416077835398,790,644.8416077835398"/></g><g style="mix-blend-mode: multiply;" class="link"><path stroke-width="57.9020979020979" stroke="#59a14f" d="M536.6666666666666,718.4615384615387C663.3333333333333,718.4615384615387,663.3333333333333,730.4906850858465,790,730.4906850858465"/></g><g style="mix-blend-mode: multiply;" class="link"><path stroke-width="3.7762237762237763" stroke="#76b7b2" d="M536.6666666666666,759.3006993006996C663.3333333333333,759.3006993006996,663.3333333333333,649.2472021891341,790,649.2472021891341"/></g><g style="mix-blend-mode: multiply;" class="link"><path stroke-width="70.4895104895105" stroke="#59a14f" d="M536.6666666666666,796.4335664335667C663.3333333333333,796.4335664335667,663.3333333333333,794.6864892816507,790,794.6864892816507"/></g><g style="mix-blend-mode: multiply;" class="link"><path stroke-width="31.46853146853147" stroke="#59a14f" d="M536.6666666666666,878.741258741259C663.3333333333333,878.741258741259,663.3333333333333,845.6655102606717,790,845.6655102606717"/></g><g style="mix-blend-mode: multiply;" class="link"><path stroke-width="6.293706293706293" stroke="#76b7b2" d="M10,634.7601374509687C136.66666666666666,634.7601374509687,136.66666666666666,598.6556766421211,263.3333333333333,598.6556766421211"/></g><g style="mix-blend-mode: multiply;" class="link"><path stroke-width="6.293706293706293" stroke="#e15759" d="M273.3333333333333,615.0193130057575C400,615.0193130057575,400,607.3426573426577,526.6666666666666,607.3426573426577"/></g><g style="mix-blend-mode: multiply;" class="link"><path stroke-width="23.916083916083917" stroke="#59a14f" d="M10,672.5223752132066C136.66666666666666,672.5223752132066,136.66666666666666,661.258741258741,263.3333333333333,661.258741258741"/></g><g style="mix-blend-mode: multiply;" class="link"><path stroke-width="23.916083916083917" stroke="#edc949" d="M273.3333333333333,661.258741258741C400,661.258741258741,400,648.741258741259,526.6666666666666,648.741258741259"/></g><g style="mix-blend-mode: multiply;" class="link"><path stroke-width="16.363636363636363" stroke="#76b7b2" d="M10,646.0888087796401C136.66666666666666,646.0888087796401,136.66666666666666,609.9843479707923,263.3333333333333,609.9843479707923"/></g><g style="mix-blend-mode: multiply;" class="link"><path stroke-width="16.363636363636363" stroke="#af7aa1" d="M273.3333333333333,603.6906416770861C400,603.6906416770861,400,586.0139860139863,526.6666666666666,586.0139860139863"/></g><g style="mix-blend-mode: multiply;" class="link"><path stroke-width="6.293706293706293" stroke="#edc949" d="M10,657.4174801083115C136.66666666666666,657.4174801083115,136.66666666666666,636.153846153846,263.3333333333333,636.153846153846"/></g><g style="mix-blend-mode: multiply;" class="link"><path stroke-width="6.293706293706293" stroke="#ff9da7" d="M273.3333333333333,636.153846153846C400,636.153846153846,400,623.636363636364,526.6666666666666,623.636363636364"/></g><g style="mix-blend-mode: multiply;" class="link"><path stroke-width="3.7762237762237763" stroke="#af7aa1" d="M10,686.3685290593605C136.66666666666666,686.3685290593605,136.66666666666666,685.1048951048948,263.3333333333333,685.1048951048948"/></g><g style="mix-blend-mode: multiply;" class="link"><path stroke-width="3.7762237762237763" stroke="#9c755f" d="M273.3333333333333,685.1048951048948C400,685.1048951048948,400,672.5874125874128,526.6666666666666,672.5874125874128"/></g><g style="mix-blend-mode: multiply;" class="link"><path stroke-width="62.93706293706294" stroke="#ff9da7" d="M10,719.7251724160039C136.66666666666666,719.7251724160039,136.66666666666666,728.4615384615382,263.3333333333333,728.4615384615382"/></g><g style="mix-blend-mode: multiply;" class="link"><path stroke-width="62.93706293706294" stroke="#bab0ab" d="M273.3333333333333,728.4615384615382C400,728.4615384615382,400,715.9440559440562,526.6666666666666,715.9440559440562"/></g><g style="mix-blend-mode: multiply;" class="link"><path stroke-width="74.26573426573427" stroke="#9c755f" d="M10,788.3265710174024C136.66666666666666,788.3265710174024,136.66666666666666,807.0629370629368,263.3333333333333,807.0629370629368"/></g><g style="mix-blend-mode: multiply;" class="link"><path stroke-width="74.26573426573427" stroke="#4e79a7" d="M273.3333333333333,807.0629370629368C400,807.0629370629368,400,794.5454545454548,526.6666666666666,794.5454545454548"/></g><g style="mix-blend-mode: multiply;" class="link"><path stroke-width="31.46853146853147" stroke="#bab0ab" d="M10,841.1937038845354C136.66666666666666,841.1937038845354,136.66666666666666,869.9300699300699,263.3333333333333,869.9300699300699"/></g><g style="mix-blend-mode: multiply;" class="link"><path stroke-width="31.46853146853147" stroke="#f28e2c" d="M273.3333333333333,869.9300699300699C400,869.9300699300699,400,878.741258741259,526.6666666666666,878.741258741259"/></g><g style="mix-blend-mode: multiply;" class="link"><path stroke-width="3.7762237762237763" stroke="#f28e2c" d="M536.6666666666666,950.3496503496505C663.3333333333333,950.3496503496505,663.3333333333333,911.1096917115538,790,911.1096917115538"/></g><g style="mix-blend-mode: multiply;" class="link"><path stroke-width="2.5174825174825175" stroke="#e15759" d="M536.6666666666666,953.4965034965036C663.3333333333333,953.4965034965036,663.3333333333333,959.5950761213682,790,959.5950761213682"/></g><g style="mix-blend-mode: multiply;" class="link"><path stroke-width="7.5524475524475525" stroke="#f28e2c" d="M536.6666666666666,847.9720279720283C663.3333333333333,847.9720279720283,663.3333333333333,891.5992022010643,790,891.5992022010643"/></g><g style="mix-blend-mode: multiply;" class="link"><path stroke-width="1.2587412587412588" stroke="#e15759" d="M536.6666666666666,852.3776223776227C663.3333333333333,852.3776223776227,663.3333333333333,937.5671040933962,790,937.5671040933962"/></g><g style="mix-blend-mode: multiply;" class="link"><path stroke-width="13.846153846153847" stroke="#f28e2c" d="M536.6666666666666,911.3986013986016C663.3333333333333,911.3986013986016,663.3333333333333,902.298502900365,790,902.298502900365"/></g><g style="mix-blend-mode: multiply;" class="link"><path stroke-width="20.13986013986014" stroke="#e15759" d="M536.6666666666666,928.3916083916085C663.3333333333333,928.3916083916085,663.3333333333333,948.2664047926968,790,948.2664047926968"/></g><g style="mix-blend-mode: multiply;" class="link"><path stroke-width="2.5174825174825175" stroke="#f28e2c" d="M536.6666666666666,966.013986013986C663.3333333333333,966.013986013986,663.3333333333333,914.2565448584069,790,914.2565448584069"/></g><g style="mix-blend-mode: multiply;" class="link"><path stroke-width="32.72727272727273" stroke="#e15759" d="M536.6666666666666,983.6363636363637C663.3333333333333,983.6363636363637,663.3333333333333,977.2174537437459,790,977.2174537437459"/></g><g style="mix-blend-mode: multiply;" class="link"><path stroke-width="8.811188811188812" stroke="#af7aa1" d="M10,907.331900989422C136.66666666666666,907.331900989422,136.66666666666666,900.06993006993,263.3333333333333,900.06993006993"/></g><g style="mix-blend-mode: multiply;" class="link"><path stroke-width="8.811188811188812" stroke="#bab0ab" d="M273.3333333333333,900.06993006993C400,900.06993006993,400,848.601398601399,526.6666666666666,848.601398601399"/></g><g style="mix-blend-mode: multiply;" class="link"><path stroke-width="6.293706293706293" stroke="#ff9da7" d="M10,948.8703625278835C136.66666666666666,948.8703625278835,136.66666666666666,951.6083916083915,263.3333333333333,951.6083916083915"/></g><g style="mix-blend-mode: multiply;" class="link"><path stroke-width="6.293706293706293" stroke="#4e79a7" d="M273.3333333333333,951.6083916083915C400,951.6083916083915,400,951.6083916083917,526.6666666666666,951.6083916083917"/></g><g style="mix-blend-mode: multiply;" class="link"><path stroke-width="35.24475524475525" stroke="#9c755f" d="M10,969.6395932971143C136.66666666666666,969.6395932971143,136.66666666666666,982.3776223776224,263.3333333333333,982.3776223776224"/></g><g style="mix-blend-mode: multiply;" class="link"><path stroke-width="35.24475524475525" stroke="#59a14f" d="M273.3333333333333,982.3776223776224C400,982.3776223776224,400,982.3776223776224,526.6666666666666,982.3776223776224"/></g><g style="mix-blend-mode: multiply;" class="link"><path stroke-width="33.98601398601399" stroke="#af7aa1" d="M10,928.7305023880234C136.66666666666666,928.7305023880234,136.66666666666666,921.4685314685314,263.3333333333333,921.4685314685314"/></g><g style="mix-blend-mode: multiply;" class="link"><path stroke-width="33.98601398601399" stroke="#76b7b2" d="M273.3333333333333,921.4685314685314C400,921.4685314685314,400,921.4685314685318,526.6666666666666,921.4685314685318"/></g></g></svg>