<svg aria-roledescription="sankey" role="graphics-document document" viewBox="0 0 800 1000" height="1000" xmlns:xlink="http://www.w3.org/1999/xlink" xmlns="http://www.w3.org/2000/svg" width="800" id="my-svg" style="background-color: white;"><style>#my-svg{font-family:"trebuchet ms",verdana,arial,sans-serif;font-size:16px;fill:#333;}#my-svg .error-icon{fill:#552222;}#my-svg .error-text{fill:#552222;stroke:#552222;}#my-svg .edge-thickness-normal{stroke-width:2px;}#my-svg .edge-thickness-thick{stroke-width:3.5px;}#my-svg .edge-pattern-solid{stroke-dasharray:0;}#my-svg .edge-pattern-dashed{stroke-dasharray:3;}#my-svg .edge-pattern-dotted{stroke-dasharray:2;}#my-svg .marker{fill:#333333;stroke:#333333;}#my-svg .marker.cross{stroke:#333333;}#my-svg svg{font-family:"trebuchet ms",verdana,arial,sans-serif;font-size:16px;}#my-svg :root{--mermaid-font-family:"trebuchet ms",verdana,arial,sans-serif;}</style><g/><g class="nodes"><g y="494.9999999999999" x="526.6666666666666" transform="translate(526.6666666666666,494.9999999999999)" id="node-1" class="node"><rect fill="#4e79a7" width="10" height="5.0920245398772295"/></g><g y="412.2699386503068" x="790" transform="translate(790,412.2699386503068)" id="node-2" class="node"><rect fill="#f28e2c" width="10" height="229.14110429447874"/></g><g y="462.2699386503067" x="526.6666666666666" transform="translate(526.6666666666666,462.2699386503067)" id="node-3" class="node"><rect fill="#e15759" width="10" height="5.0920245398772295"/></g><g y="510.0920245398771" x="526.6666666666666" transform="translate(526.6666666666666,510.0920245398771)" id="node-4" class="node"><rect fill="#76b7b2" width="10" height="28.006134969325103"/></g><g y="0" x="790" transform="translate(790,0)" id="node-5" class="node"><rect fill="#59a14f" width="10" height="402.2699386503068"/></g><g y="477.3619631901839" x="526.6666666666666" transform="translate(526.6666666666666,477.3619631901839)" id="node-6" class="node"><rect fill="#edc949" width="10" height="7.638036809815958"/></g><g y="0" x="526.6666666666666" transform="translate(526.6666666666666,0)" id="node-7" class="node"><rect fill="#af7aa1" width="10" height="152.76073619631907"/></g><g y="756.1349693251526" x="526.6666666666666" transform="translate(526.6666666666666,756.1349693251526)" id="node-8" class="node"><rect fill="#ff9da7" width="10" height="101.8404907975463"/></g><g y="271.87116564417187" x="526.6666666666666" transform="translate(526.6666666666666,271.87116564417187)" id="node-9" class="node"><rect fill="#9c755f" width="10" height="48.37423312883442"/></g><g y="720.8588957055209" x="526.6666666666666" transform="translate(526.6666666666666,720.8588957055209)" id="node-10" class="node"><rect fill="#bab0ab" width="10" height="5.0920245398772295"/></g><g y="609.0184049079751" x="526.6666666666666" transform="translate(526.6666666666666,609.0184049079751)" id="node-11" class="node"><rect fill="#4e79a7" width="10" height="101.84049079754584"/></g><g y="330.2453987730063" x="526.6666666666666" transform="translate(526.6666666666666,330.2453987730063)" id="node-12" class="node"><rect fill="#f28e2c" width="10" height="10.184049079754573"/></g><g y="221.13496932515346" x="526.6666666666666" transform="translate(526.6666666666666,221.13496932515346)" id="node-13" class="node"><rect fill="#e15759" width="10" height="40.736196319018404"/></g><g y="735.9509202453982" x="526.6666666666666" transform="translate(526.6666666666666,735.9509202453982)" id="node-14" class="node"><rect fill="#76b7b2" width="10" height="10.184049079754459"/></g><g y="350.42944785276086" x="526.6666666666666" transform="translate(526.6666666666666,350.42944785276086)" id="node-15" class="node"><rect fill="#59a14f" width="10" height="101.84049079754584"/></g><g y="548.0981595092022" x="526.6666666666666" transform="translate(526.6666666666666,548.0981595092022)" id="node-16" class="node"><rect fill="#edc949" width="10" height="50.92024539877286"/></g><g y="162.76073619631907" x="526.6666666666666" transform="translate(526.6666666666666,162.76073619631907)" id="node-17" class="node"><rect fill="#af7aa1" width="10" height="48.37423312883439"/></g><g y="0" x="0" transform="translate(0,0)" id="node-18" class="node"><rect fill="#ff9da7" width="10" height="631.4110429447854"/></g><g y="0" x="263.3333333333333" transform="translate(263.3333333333333,0)" id="node-19" class="node"><rect fill="#9c755f" width="10" height="341.16564417177904"/></g><g y="627.7394271884064" x="263.3333333333333" transform="translate(263.3333333333333,627.7394271884064)" id="node-20" class="node"><rect fill="#bab0ab" width="10" height="10.184049079754459"/></g><g y="365.43049492027916" x="263.3333333333333" transform="translate(263.3333333333333,365.43049492027916)" id="node-21" class="node"><rect fill="#4e79a7" width="10" height="211.31901840490792"/></g><g y="647.9234762681609" x="263.3333333333333" transform="translate(263.3333333333333,647.9234762681609)" id="node-22" class="node"><rect fill="#f28e2c" width="10" height="63.650306748466164"/></g><g y="605.769314323187" x="263.3333333333333" transform="translate(263.3333333333333,605.769314323187)" id="node-23" class="node"><rect fill="#e15759" width="10" height="5.092024539877457"/></g><g y="867.9754601226989" x="526.6666666666666" transform="translate(526.6666666666666,867.9754601226989)" id="node-24" class="node"><rect fill="#76b7b2" width="10" height="5.0920245398772295"/></g><g y="791.4110429447853" x="790" transform="translate(790,791.4110429447853)" id="node-25" class="node"><rect fill="#59a14f" width="10" height="96.74846625766872"/></g><g y="898.159509202454" x="790" transform="translate(790,898.159509202454)" id="node-26" class="node"><rect fill="#edc949" width="10" height="101.84049079754595"/></g><g y="949.0797546012263" x="526.6666666666666" transform="translate(526.6666666666666,949.0797546012263)" id="node-27" class="node"><rect fill="#af7aa1" width="10" height="50.92024539877298"/></g><g y="883.0674846625761" x="526.6666666666666" transform="translate(526.6666666666666,883.0674846625761)" id="node-28" class="node"><rect fill="#ff9da7" width="10" height="56.012269938650206"/></g><g y="740.965896621931" x="0" transform="translate(0,740.965896621931)" id="node-29" class="node"><rect fill="#9c755f" width="10" height="198.58895705521468"/></g><g y="721.5737830166271" x="263.3333333333333" transform="translate(263.3333333333333,721.5737830166271)" id="node-30" class="node"><rect fill="#bab0ab" width="10" height="48.37423312883425"/></g><g y="834.3638527169876" x="263.3333333333333" transform="translate(263.3333333333333,834.3638527169876)" id="node-31" class="node"><rect fill="#4e79a7" width="10" height="112.02453987730064"/></g><g y="786.1736686679078" x="263.3333333333333" transform="translate(263.3333333333333,786.1736686679078)" id="node-32" class="node"><rect fill="#f28e2c" width="10" height="38.19018404907979"/></g></g><g font-size="14" font-family="sans-serif" class="node-labels"><text text-anchor="end" dy="0.35em" y="497.5460122699385" x="520.6666666666666">Mareschal 2016</text><text text-anchor="end" dy="0.35em" y="526.8404907975462" x="784">DLBCL Tier 1</text><text text-anchor="end" dy="0.35em" y="464.8159509202453" x="520.6666666666666">Morin 2016</text><text text-anchor="end" dy="0.35em" y="524.0950920245397" x="520.6666666666666">Pasqualucci 2011</text><text text-anchor="end" dy="0.35em" y="201.1349693251534" x="784">DLBCL Tier 2</text><text text-anchor="end" dy="0.35em" y="481.1809815950919" x="520.6666666666666">Albuquerque 2017</text><text text-anchor="end" dy="0.35em" y="76.38036809815954" x="520.6666666666666">Reddy 2017</text><text text-anchor="end" dy="0.35em" y="807.0552147239257" x="520.6666666666666">Morin 2011</text><text text-anchor="end" dy="0.35em" y="296.05828220858905" x="520.6666666666666">Zhang 2013</text><text text-anchor="end" dy="0.35em" y="723.4049079754595" x="520.6666666666666">Pararajalingam 2020</text><text text-anchor="end" dy="0.35em" y="659.9386503067481" x="520.6666666666666">Hubschmann 2021</text><text text-anchor="end" dy="0.35em" y="335.3374233128836" x="520.6666666666666">Lohr 2012</text><text text-anchor="end" dy="0.35em" y="241.50306748466267" x="520.6666666666666">Schmitz 2018</text><text text-anchor="end" dy="0.35em" y="741.0429447852754" x="520.6666666666666">Pasqualucci 2001</text><text text-anchor="end" dy="0.35em" y="401.3496932515338" x="520.6666666666666">Morin 2013</text><text text-anchor="end" dy="0.35em" y="573.5582822085887" x="520.6666666666666">Arthur 2018</text><text text-anchor="end" dy="0.35em" y="186.94785276073628" x="520.6666666666666">Chapuy 2018</text><text text-anchor="start" dy="0.35em" y="315.7055214723927" x="16">DLBCL</text><text text-anchor="start" dy="0.35em" y="170.58282208588952" x="279.3333333333333">DLBCL-exome</text><text text-anchor="start" dy="0.35em" y="632.8314517282836" x="279.3333333333333">DLBCL-Sanger</text><text text-anchor="start" dy="0.35em" y="471.09000412273315" x="279.3333333333333">DLBCL-WGS</text><text text-anchor="start" dy="0.35em" y="679.748629642394" x="279.3333333333333">DLBCL-RNA-seq/WGS</text><text text-anchor="start" dy="0.35em" y="608.3153265931257" x="279.3333333333333">DLBCL-WGS/exome</text><text text-anchor="end" dy="0.35em" y="870.5214723926375" x="520.6666666666666">Okosun 2016</text><text text-anchor="end" dy="0.35em" y="839.7852760736197" x="784">FL Tier 1</text><text text-anchor="end" dy="0.35em" y="949.079754601227" x="784">FL Tier 2</text><text text-anchor="end" dy="0.35em" y="974.5398773006128" x="520.6666666666666">Russler-germain 2023</text><text text-anchor="end" dy="0.35em" y="911.0736196319012" x="520.6666666666666">Krysiak 2017</text><text text-anchor="start" dy="0.35em" y="840.2603751495384" x="16">FL</text><text text-anchor="start" dy="0.35em" y="745.7608995810442" x="279.3333333333333">FL-WGS</text><text text-anchor="start" dy="0.35em" y="890.3761226556379" x="279.3333333333333">FL-exome</text><text text-anchor="start" dy="0.35em" y="805.2687606924477" x="279.3333333333333">FL-RNA-seq/WGS</text></g><g stroke-opacity="0.5" fill="none" class="links"><g style="mix-blend-mode: multiply;" class="link"><path stroke-width="5.0920245398773005" stroke="#f28e2c" d="M536.6666666666666,497.54601226993856C663.3333333333333,497.54601226993856,663.3333333333333,531.9325153374233,790,531.9325153374233"/></g><g style="mix-blend-mode: multiply;" class="link"><path stroke-width="5.0920245398773005" stroke="#f28e2c" d="M536.6666666666666,464.81595092024537C663.3333333333333,464.81595092024537,663.3333333333333,519.20245398773,790,519.20245398773"/></g><g style="mix-blend-mode: multiply;" class="link"><path stroke-width="7.638036809815951" stroke="#f28e2c" d="M536.6666666666666,524.0950920245397C663.3333333333333,524.0950920245397,663.3333333333333,538.29754601227,790,538.29754601227"/></g><g style="mix-blend-mode: multiply;" class="link"><path stroke-width="10.184049079754601" stroke="#59a14f" d="M536.6666666666666,515.1840490797545C663.3333333333333,515.1840490797545,663.3333333333333,302.9754601226993,790,302.9754601226993"/></g><g style="mix-blend-mode: multiply;" class="link"><path stroke-width="7.638036809815951" stroke="#f28e2c" d="M536.6666666666666,481.1809815950919C663.3333333333333,481.1809815950919,663.3333333333333,525.5674846625767,790,525.5674846625767"/></g><g style="mix-blend-mode: multiply;" class="link"><path stroke-width="17.822085889570552" stroke="#f28e2c" d="M536.6666666666666,143.84969325153372C663.3333333333333,143.84969325153372,663.3333333333333,421.1809815950921,790,421.1809815950921"/></g><g style="mix-blend-mode: multiply;" class="link"><path stroke-width="134.93865030674846" stroke="#59a14f" d="M536.6666666666666,67.46932515337423C663.3333333333333,67.46932515337423,663.3333333333333,67.46932515337423,790,67.46932515337423"/></g><g style="mix-blend-mode: multiply;" class="link"><path stroke-width="61.104294478527606" stroke="#f28e2c" d="M536.6666666666666,789.233128834355C663.3333333333333,789.233128834355,663.3333333333333,610.8588957055216,790,610.8588957055216"/></g><g style="mix-blend-mode: multiply;" class="link"><path stroke-width="2.5460122699386503" stroke="#59a14f" d="M536.6666666666666,757.407975460122C663.3333333333333,757.407975460122,663.3333333333333,400.9969325153373,790,400.9969325153373"/></g><g style="mix-blend-mode: multiply;" class="link"><path stroke-width="5.0920245398773005" stroke="#f28e2c" d="M536.6666666666666,530.4601226993863C663.3333333333333,530.4601226993863,663.3333333333333,544.6625766871166,790,544.6625766871166"/></g><g style="mix-blend-mode: multiply;" class="link"><path stroke-width="28.006134969325153" stroke="#f28e2c" d="M536.6666666666666,306.2423312883436C663.3333333333333,306.2423312883436,663.3333333333333,467.0092024539877,790,467.0092024539877"/></g><g style="mix-blend-mode: multiply;" class="link"><path stroke-width="20.368098159509202" stroke="#59a14f" d="M536.6666666666666,282.0552147239265C663.3333333333333,282.0552147239265,663.3333333333333,211.31901840490795,790,211.31901840490795"/></g><g style="mix-blend-mode: multiply;" class="link"><path stroke-width="5.0920245398773005" stroke="#59a14f" d="M536.6666666666666,723.4049079754595C663.3333333333333,723.4049079754595,663.3333333333333,392.08588957055207,790,392.08588957055207"/></g><g style="mix-blend-mode: multiply;" class="link"><path stroke-width="7.638036809815951" stroke="#f28e2c" d="M536.6666666666666,663.757668711656C663.3333333333333,663.757668711656,663.3333333333333,571.3957055214725,790,571.3957055214725"/></g><g style="mix-blend-mode: multiply;" class="link"><path stroke-width="50.920245398773005" stroke="#59a14f" d="M536.6666666666666,634.4785276073616C663.3333333333333,634.4785276073616,663.3333333333333,364.0797546012269,790,364.0797546012269"/></g><g style="mix-blend-mode: multiply;" class="link"><path stroke-width="7.638036809815951" stroke="#f28e2c" d="M536.6666666666666,336.61042944785294C663.3333333333333,336.61042944785294,663.3333333333333,484.8312883435583,790,484.8312883435583"/></g><g style="mix-blend-mode: multiply;" class="link"><path stroke-width="2.5460122699386503" stroke="#59a14f" d="M536.6666666666666,331.5184049079756C663.3333333333333,331.5184049079756,663.3333333333333,222.7760736196319,790,222.7760736196319"/></g><g style="mix-blend-mode: multiply;" class="link"><path stroke-width="17.822085889570552" stroke="#f28e2c" d="M536.6666666666666,252.96012269938657C663.3333333333333,252.96012269938657,663.3333333333333,444.0950920245399,790,444.0950920245399"/></g><g style="mix-blend-mode: multiply;" class="link"><path stroke-width="22.914110429447852" stroke="#59a14f" d="M536.6666666666666,232.5920245398774C663.3333333333333,232.5920245398774,663.3333333333333,189.67791411042944,790,189.67791411042944"/></g><g style="mix-blend-mode: multiply;" class="link"><path stroke-width="5.0920245398773005" stroke="#f28e2c" d="M536.6666666666666,743.5889570552141C663.3333333333333,743.5889570552141,663.3333333333333,577.760736196319,790,577.760736196319"/></g><g style="mix-blend-mode: multiply;" class="link"><path stroke-width="5.0920245398773005" stroke="#59a14f" d="M536.6666666666666,738.4969325153368C663.3333333333333,738.4969325153368,663.3333333333333,397.17791411042936,790,397.17791411042936"/></g><g style="mix-blend-mode: multiply;" class="link"><path stroke-width="28.006134969325153" stroke="#f28e2c" d="M536.6666666666666,438.26687116564426C663.3333333333333,438.26687116564426,663.3333333333333,502.65337423312883,790,502.65337423312883"/></g><g style="mix-blend-mode: multiply;" class="link"><path stroke-width="73.83435582822085" stroke="#59a14f" d="M536.6666666666666,387.3466257668713C663.3333333333333,387.3466257668713,663.3333333333333,260.9662576687116,790,260.9662576687116"/></g><g style="mix-blend-mode: multiply;" class="link"><path stroke-width="20.368098159509202" stroke="#f28e2c" d="M536.6666666666666,588.8343558282206C663.3333333333333,588.8343558282206,663.3333333333333,557.3926380368099,790,557.3926380368099"/></g><g style="mix-blend-mode: multiply;" class="link"><path stroke-width="30.552147239263803" stroke="#59a14f" d="M536.6666666666666,563.3742331288341C663.3333333333333,563.3742331288341,663.3333333333333,323.3435582822085,790,323.3435582822085"/></g><g style="mix-blend-mode: multiply;" class="link"><path stroke-width="5.0920245398773005" stroke="#f28e2c" d="M536.6666666666666,208.58895705521476C663.3333333333333,208.58895705521476,663.3333333333333,432.638036809816,790,432.638036809816"/></g><g style="mix-blend-mode: multiply;" class="link"><path stroke-width="43.282208588957054" stroke="#59a14f" d="M536.6666666666666,184.4018404907976C663.3333333333333,184.4018404907976,663.3333333333333,156.579754601227,790,156.579754601227"/></g><g style="mix-blend-mode: multiply;" class="link"><path stroke-width="10.184049079754601" stroke="#9c755f" d="M10,5.0920245398773005C136.66666666666666,5.0920245398773005,136.66666666666666,5.0920245398773005,263.3333333333333,5.0920245398773005"/></g><g style="mix-blend-mode: multiply;" class="link"><path stroke-width="10.184049079754601" stroke="#f28e2c" d="M273.3333333333333,295.3374233128834C400,295.3374233128834,400,335.3374233128836,526.6666666666666,335.3374233128836"/></g><g style="mix-blend-mode: multiply;" class="link"><path stroke-width="40.736196319018404" stroke="#9c755f" d="M10,30.552147239263803C136.66666666666666,30.552147239263803,136.66666666666666,30.552147239263803,263.3333333333333,30.552147239263803"/></g><g style="mix-blend-mode: multiply;" class="link"><path stroke-width="40.736196319018404" stroke="#e15759" d="M273.3333333333333,221.50306748466258C400,221.50306748466258,400,241.50306748466267,526.6666666666666,241.50306748466267"/></g><g style="mix-blend-mode: multiply;" class="link"><path stroke-width="10.184049079754601" stroke="#bab0ab" d="M10,562.6687116564417C136.66666666666666,562.6687116564417,136.66666666666666,632.8314517282837,263.3333333333333,632.8314517282837"/></g><g style="mix-blend-mode: multiply;" class="link"><path stroke-width="10.184049079754601" stroke="#76b7b2" d="M273.3333333333333,632.8314517282837C400,632.8314517282837,400,741.0429447852755,526.6666666666666,741.0429447852755"/></g><g style="mix-blend-mode: multiply;" class="link"><path stroke-width="101.84049079754601" stroke="#4e79a7" d="M10,392.0858895705521C136.66666666666666,392.0858895705521,136.66666666666666,416.3507403190522,263.3333333333333,416.3507403190522"/></g><g style="mix-blend-mode: multiply;" class="link"><path stroke-width="101.84049079754601" stroke="#59a14f" d="M273.3333333333333,416.3507403190522C400,416.3507403190522,400,401.34969325153384,526.6666666666666,401.34969325153384"/></g><g style="mix-blend-mode: multiply;" class="link"><path stroke-width="50.920245398773005" stroke="#4e79a7" d="M10,468.4662576687116C136.66666666666666,468.4662576687116,136.66666666666666,492.73110841721166,263.3333333333333,492.73110841721166"/></g><g style="mix-blend-mode: multiply;" class="link"><path stroke-width="50.920245398773005" stroke="#edc949" d="M273.3333333333333,492.73110841721166C400,492.73110841721166,400,573.5582822085887,526.6666666666666,573.5582822085887"/></g><g style="mix-blend-mode: multiply;" class="link"><path stroke-width="48.374233128834355" stroke="#9c755f" d="M10,75.10736196319019C136.66666666666666,75.10736196319019,136.66666666666666,75.10736196319019,263.3333333333333,75.10736196319019"/></g><g style="mix-blend-mode: multiply;" class="link"><path stroke-width="48.374233128834355" stroke="#af7aa1" d="M273.3333333333333,176.9478527607362C400,176.9478527607362,400,186.94785276073625,526.6666666666666,186.94785276073625"/></g><g style="mix-blend-mode: multiply;" class="link"><path stroke-width="5.0920245398773005" stroke="#9c755f" d="M10,101.84049079754601C136.66666666666666,101.84049079754601,136.66666666666666,101.84049079754601,263.3333333333333,101.84049079754601"/></g><g style="mix-blend-mode: multiply;" class="link"><path stroke-width="5.0920245398773005" stroke="#4e79a7" d="M273.3333333333333,315.70552147239266C400,315.70552147239266,400,497.54601226993856,526.6666666666666,497.54601226993856"/></g><g style="mix-blend-mode: multiply;" class="link"><path stroke-width="7.638036809815951" stroke="#9c755f" d="M10,108.20552147239265C136.66666666666666,108.20552147239265,136.66666666666666,108.20552147239265,263.3333333333333,108.20552147239265"/></g><g style="mix-blend-mode: multiply;" class="link"><path stroke-width="7.638036809815951" stroke="#edc949" d="M273.3333333333333,309.340490797546C400,309.340490797546,400,481.1809815950919,526.6666666666666,481.1809815950919"/></g><g style="mix-blend-mode: multiply;" class="link"><path stroke-width="5.0920245398773005" stroke="#9c755f" d="M10,114.57055214723925C136.66666666666666,114.57055214723925,136.66666666666666,114.57055214723925,263.3333333333333,114.57055214723925"/></g><g style="mix-blend-mode: multiply;" class="link"><path stroke-width="5.0920245398773005" stroke="#e15759" d="M273.3333333333333,302.9754601226994C400,302.9754601226994,400,464.81595092024537,526.6666666666666,464.81595092024537"/></g><g style="mix-blend-mode: multiply;" class="link"><path stroke-width="17.822085889570552" stroke="#9c755f" d="M10,126.02760736196319C136.66666666666666,126.02760736196319,136.66666666666666,126.02760736196319,263.3333333333333,126.02760736196319"/></g><g style="mix-blend-mode: multiply;" class="link"><path stroke-width="17.822085889570552" stroke="#76b7b2" d="M273.3333333333333,327.16257668711654C400,327.16257668711654,400,519.0030674846624,526.6666666666666,519.0030674846624"/></g><g style="mix-blend-mode: multiply;" class="link"><path stroke-width="152.76073619631902" stroke="#9c755f" d="M10,211.31901840490798C136.66666666666666,211.31901840490798,136.66666666666666,211.31901840490798,263.3333333333333,211.31901840490798"/></g><g style="mix-blend-mode: multiply;" class="link"><path stroke-width="152.76073619631902" stroke="#af7aa1" d="M273.3333333333333,76.38036809815951C400,76.38036809815951,400,76.38036809815951,526.6666666666666,76.38036809815951"/></g><g style="mix-blend-mode: multiply;" class="link"><path stroke-width="5.0920245398773005" stroke="#9c755f" d="M10,290.2453987730061C136.66666666666666,290.2453987730061,136.66666666666666,290.2453987730061,263.3333333333333,290.2453987730061"/></g><g style="mix-blend-mode: multiply;" class="link"><path stroke-width="5.0920245398773005" stroke="#76b7b2" d="M273.3333333333333,338.6196319018405C400,338.6196319018405,400,530.4601226993863,526.6666666666666,530.4601226993863"/></g><g style="mix-blend-mode: multiply;" class="link"><path stroke-width="63.65030674846626" stroke="#f28e2c" d="M10,599.585889570552C136.66666666666666,599.585889570552,136.66666666666666,679.748629642394,263.3333333333333,679.748629642394"/></g><g style="mix-blend-mode: multiply;" class="link"><path stroke-width="63.65030674846626" stroke="#ff9da7" d="M273.3333333333333,679.748629642394C400,679.748629642394,400,787.9601226993857,526.6666666666666,787.9601226993857"/></g><g style="mix-blend-mode: multiply;" class="link"><path stroke-width="48.374233128834355" stroke="#9c755f" d="M10,316.9785276073619C136.66666666666666,316.9785276073619,136.66666666666666,316.9785276073619,263.3333333333333,316.9785276073619"/></g><g style="mix-blend-mode: multiply;" class="link"><path stroke-width="48.374233128834355" stroke="#9c755f" d="M273.3333333333333,266.05828220858893C400,266.05828220858893,400,296.05828220858905,526.6666666666666,296.05828220858905"/></g><g style="mix-blend-mode: multiply;" class="link"><path stroke-width="5.0920245398773005" stroke="#e15759" d="M10,555.0306748466256C136.66666666666666,555.0306748466256,136.66666666666666,608.3153265931256,263.3333333333333,608.3153265931256"/></g><g style="mix-blend-mode: multiply;" class="link"><path stroke-width="5.0920245398773005" stroke="#bab0ab" d="M273.3333333333333,608.3153265931256C400,608.3153265931256,400,723.4049079754595,526.6666666666666,723.4049079754595"/></g><g style="mix-blend-mode: multiply;" class="link"><path stroke-width="58.558282208588956" stroke="#4e79a7" d="M10,523.2055214723925C136.66666666666666,523.2055214723925,136.66666666666666,547.4703722208926,263.3333333333333,547.4703722208926"/></g><g style="mix-blend-mode: multiply;" class="link"><path stroke-width="58.558282208588956" stroke="#4e79a7" d="M273.3333333333333,547.4703722208926C400,547.4703722208926,400,638.2975460122695,526.6666666666666,638.2975460122695"/></g><g style="mix-blend-mode: multiply;" class="link"><path stroke-width="5.0920245398773005" stroke="#59a14f" d="M536.6666666666666,870.5214723926375C663.3333333333333,870.5214723926375,663.3333333333333,839.7852760736197,790,839.7852760736197"/></g><g style="mix-blend-mode: multiply;" class="link"><path stroke-width="35.644171779141104" stroke="#59a14f" d="M536.6666666666666,837.6073619631894C663.3333333333333,837.6073619631894,663.3333333333333,819.4171779141105,790,819.4171779141105"/></g><g style="mix-blend-mode: multiply;" class="link"><path stroke-width="2.5460122699386503" stroke="#edc949" d="M536.6666666666666,856.7024539877293C663.3333333333333,856.7024539877293,663.3333333333333,937.6226993865032,790,937.6226993865032"/></g><g style="mix-blend-mode: multiply;" class="link"><path stroke-width="2.5460122699386503" stroke="#59a14f" d="M536.6666666666666,950.3527607361957C663.3333333333333,950.3527607361957,663.3333333333333,886.8865030674848,790,886.8865030674848"/></g><g style="mix-blend-mode: multiply;" class="link"><path stroke-width="48.374233128834355" stroke="#edc949" d="M536.6666666666666,975.8128834355821C663.3333333333333,975.8128834355821,663.3333333333333,975.8128834355829,790,975.8128834355829"/></g><g style="mix-blend-mode: multiply;" class="link"><path stroke-width="5.0920245398773005" stroke="#59a14f" d="M536.6666666666666,535.5521472392636C663.3333333333333,535.5521472392636,663.3333333333333,793.9570552147239,790,793.9570552147239"/></g><g style="mix-blend-mode: multiply;" class="link"><path stroke-width="5.0920245398773005" stroke="#59a14f" d="M536.6666666666666,670.1226993865026C663.3333333333333,670.1226993865026,663.3333333333333,799.0490797546013,790,799.0490797546013"/></g><g style="mix-blend-mode: multiply;" class="link"><path stroke-width="38.190184049079754" stroke="#edc949" d="M536.6666666666666,691.7638036809813C663.3333333333333,691.7638036809813,663.3333333333333,917.2546012269939,790,917.2546012269939"/></g><g style="mix-blend-mode: multiply;" class="link"><path stroke-width="43.282208588957054" stroke="#59a14f" d="M536.6666666666666,904.7085889570546C663.3333333333333,904.7085889570546,663.3333333333333,863.9723926380369,790,863.9723926380369"/></g><g style="mix-blend-mode: multiply;" class="link"><path stroke-width="12.730061349693251" stroke="#edc949" d="M536.6666666666666,932.7147239263797C663.3333333333333,932.7147239263797,663.3333333333333,945.260736196319,790,945.260736196319"/></g><g style="mix-blend-mode: multiply;" class="link"><path stroke-width="5.0920245398773005" stroke="#bab0ab" d="M10,743.5119088918697C136.66666666666666,743.5119088918697,136.66666666666666,724.1197952865657,263.3333333333333,724.1197952865657"/></g><g style="mix-blend-mode: multiply;" class="link"><path stroke-width="5.0920245398773005" stroke="#76b7b2" d="M273.3333333333333,767.4020038755227C400,767.4020038755227,400,870.5214723926375,526.6666666666666,870.5214723926375"/></g><g style="mix-blend-mode: multiply;" class="link"><path stroke-width="50.920245398773005" stroke="#4e79a7" d="M10,852.9904364992317C136.66666666666666,852.9904364992317,136.66666666666666,859.8239754163741,263.3333333333333,859.8239754163741"/></g><g style="mix-blend-mode: multiply;" class="link"><path stroke-width="50.920245398773005" stroke="#af7aa1" d="M273.3333333333333,920.9282698949017C400,920.9282698949017,400,974.5398773006128,526.6666666666666,974.5398773006128"/></g><g style="mix-blend-mode: multiply;" class="link"><path stroke-width="38.190184049079754" stroke="#f28e2c" d="M10,808.4352217753053C136.66666666666666,808.4352217753053,136.66666666666666,805.2687606924477,263.3333333333333,805.2687606924477"/></g><g style="mix-blend-mode: multiply;" class="link"><path stroke-width="38.190184049079754" stroke="#ff9da7" d="M273.3333333333333,805.2687606924477C400,805.2687606924477,400,838.8803680981588,526.6666666666666,838.8803680981588"/></g><g style="mix-blend-mode: multiply;" class="link"><path stroke-width="5.0920245398773005" stroke="#4e79a7" d="M10,880.9965714685568C136.66666666666666,880.9965714685568,136.66666666666666,887.8301103856992,263.3333333333333,887.8301103856992"/></g><g style="mix-blend-mode: multiply;" class="link"><path stroke-width="5.0920245398773005" stroke="#76b7b2" d="M273.3333333333333,836.9098649869262C400,836.9098649869262,400,535.5521472392636,526.6666666666666,535.5521472392636"/></g><g style="mix-blend-mode: multiply;" class="link"><path stroke-width="43.282208588957054" stroke="#bab0ab" d="M10,767.6990254562869C136.66666666666666,767.6990254562869,136.66666666666666,748.3069118509829,263.3333333333333,748.3069118509829"/></g><g style="mix-blend-mode: multiply;" class="link"><path stroke-width="43.282208588957054" stroke="#4e79a7" d="M273.3333333333333,743.2148873111056C400,743.2148873111056,400,689.2177914110425,526.6666666666666,689.2177914110425"/></g><g style="mix-blend-mode: multiply;" class="link"><path stroke-width="56.012269938650306" stroke="#4e79a7" d="M10,911.5487187078206C136.66666666666666,911.5487187078206,136.66666666666666,918.382257624963,263.3333333333333,918.382257624963"/></g><g style="mix-blend-mode: multiply;" class="link"><path stroke-width="56.012269938650306" stroke="#ff9da7" d="M273.3333333333333,867.46201222619C400,867.46201222619,400,911.0736196319012,526.6666666666666,911.0736196319012"/></g></g></svg>