<svg aria-roledescription="sankey" role="graphics-document document" viewBox="0 0 800 852.3341064453125" height="852.3341064453125" xmlns:xlink="http://www.w3.org/1999/xlink" xmlns="http://www.w3.org/2000/svg" width="800" id="my-svg" style="background-color: white;"><style>#my-svg{font-family:"trebuchet ms",verdana,arial,sans-serif;font-size:16px;fill:#333;}#my-svg .error-icon{fill:#552222;}#my-svg .error-text{fill:#552222;stroke:#552222;}#my-svg .edge-thickness-normal{stroke-width:2px;}#my-svg .edge-thickness-thick{stroke-width:3.5px;}#my-svg .edge-pattern-solid{stroke-dasharray:0;}#my-svg .edge-pattern-dashed{stroke-dasharray:3;}#my-svg .edge-pattern-dotted{stroke-dasharray:2;}#my-svg .marker{fill:#333333;stroke:#333333;}#my-svg .marker.cross{stroke:#333333;}#my-svg svg{font-family:"trebuchet ms",verdana,arial,sans-serif;font-size:16px;}#my-svg :root{--mermaid-font-family:"trebuchet ms",verdana,arial,sans-serif;}</style><g/><g class="nodes"><g y="111.33858267716539" x="526.6666666666666" transform="translate(526.6666666666666,111.33858267716539)" id="node-1" class="node"><rect fill="#4e79a7" width="10" height="0.2854330708661337"/></g><g y="279.0478397952237" x="790" transform="translate(790,279.0478397952237)" id="node-2" class="node"><rect fill="#f28e2c" width="10" height="36.25"/></g><g y="334.96062992126014" x="526.6666666666666" transform="translate(526.6666666666666,334.96062992126014)" id="node-3" class="node"><rect fill="#e15759" width="10" height="0.5708661417322674"/></g><g y="121.62401574803152" x="526.6666666666666" transform="translate(526.6666666666666,121.62401574803152)" id="node-4" class="node"><rect fill="#76b7b2" width="10" height="19.124015748031553"/></g><g y="204.58395861445715" x="790" transform="translate(790,204.58395861445715)" id="node-5" class="node"><rect fill="#59a14f" width="10" height="59.655511811023615"/></g><g y="9.93760151969336" x="790" transform="translate(790,9.93760151969336)" id="node-6" class="node"><rect fill="#edc949" width="10" height="110.46259842519687"/></g><g y="287.8346456692915" x="526.6666666666666" transform="translate(526.6666666666666,287.8346456692915)" id="node-7" class="node"><rect fill="#af7aa1" width="10" height="11.988188976377955"/></g><g y="386.673228346457" x="526.6666666666666" transform="translate(526.6666666666666,386.673228346457)" id="node-8" class="node"><rect fill="#ff9da7" width="10" height="0.2854330708661337"/></g><g y="345.5314960629924" x="526.6666666666666" transform="translate(526.6666666666666,345.5314960629924)" id="node-9" class="node"><rect fill="#9c755f" width="10" height="0.2854330708661905"/></g><g y="497.22440944881913" x="526.6666666666666" transform="translate(526.6666666666666,497.22440944881913)" id="node-10" class="node"><rect fill="#bab0ab" width="10" height="0.5708661417322674"/></g><g y="355.8169291338586" x="526.6666666666666" transform="translate(526.6666666666666,355.8169291338586)" id="node-11" class="node"><rect fill="#4e79a7" width="10" height="0.2854330708661337"/></g><g y="181.87007874015768" x="526.6666666666666" transform="translate(526.6666666666666,181.87007874015768)" id="node-12" class="node"><rect fill="#f28e2c" width="10" height="5.13779527559052"/></g><g y="309.82283464566945" x="526.6666666666666" transform="translate(526.6666666666666,309.82283464566945)" id="node-13" class="node"><rect fill="#e15759" width="10" height="4.566929133858423"/></g><g y="241.85039370078755" x="526.6666666666666" transform="translate(526.6666666666666,241.85039370078755)" id="node-14" class="node"><rect fill="#76b7b2" width="10" height="0.2854330708661337"/></g><g y="625.4822834645671" x="526.6666666666666" transform="translate(526.6666666666666,625.4822834645671)" id="node-15" class="node"><rect fill="#59a14f" width="10" height="0.5708661417322674"/></g><g y="0" x="526.6666666666666" transform="translate(526.6666666666666,0)" id="node-16" class="node"><rect fill="#edc949" width="10" height="83.06102362204723"/></g><g y="93.06102362204723" x="526.6666666666666" transform="translate(526.6666666666666,93.06102362204723)" id="node-17" class="node"><rect fill="#af7aa1" width="10" height="8.27755905511816"/></g><g y="366.1023622047247" x="526.6666666666666" transform="translate(526.6666666666666,366.1023622047247)" id="node-18" class="node"><rect fill="#ff9da7" width="10" height="0.2854330708661337"/></g><g y="197.0078740157482" x="526.6666666666666" transform="translate(526.6666666666666,197.0078740157482)" id="node-19" class="node"><rect fill="#9c755f" width="10" height="11.702755905511822"/></g><g y="417.5295275590554" x="526.6666666666666" transform="translate(526.6666666666666,417.5295275590554)" id="node-20" class="node"><rect fill="#bab0ab" width="10" height="11.131889763779611"/></g><g y="449.80314960629954" x="526.6666666666666" transform="translate(526.6666666666666,449.80314960629954)" id="node-21" class="node"><rect fill="#4e79a7" width="10" height="0.2854330708661337"/></g><g y="518.3661417322837" x="526.6666666666666" transform="translate(526.6666666666666,518.3661417322837)" id="node-22" class="node"><rect fill="#f28e2c" width="10" height="0.2854330708661337"/></g><g y="376.38779527559086" x="526.6666666666666" transform="translate(526.6666666666666,376.38779527559086)" id="node-23" class="node"><rect fill="#e15759" width="10" height="0.2854330708661337"/></g><g y="218.71062992126002" x="526.6666666666666" transform="translate(526.6666666666666,218.71062992126002)" id="node-24" class="node"><rect fill="#76b7b2" width="10" height="2.8543307086613936"/></g><g y="396.9586614173231" x="526.6666666666666" transform="translate(526.6666666666666,396.9586614173231)" id="node-25" class="node"><rect fill="#59a14f" width="10" height="0.2854330708661337"/></g><g y="407.24409448818926" x="526.6666666666666" transform="translate(526.6666666666666,407.24409448818926)" id="node-26" class="node"><rect fill="#edc949" width="10" height="0.2854330708661337"/></g><g y="470.3740157480318" x="526.6666666666666" transform="translate(526.6666666666666,470.3740157480318)" id="node-27" class="node"><rect fill="#af7aa1" width="10" height="6.564960629921188"/></g><g y="460.0885826771657" x="526.6666666666666" transform="translate(526.6666666666666,460.0885826771657)" id="node-28" class="node"><rect fill="#ff9da7" width="10" height="0.2854330708661337"/></g><g y="581.7814960629922" x="526.6666666666666" transform="translate(526.6666666666666,581.7814960629922)" id="node-29" class="node"><rect fill="#9c755f" width="10" height="13.129921259842604"/></g><g y="507.7952755905514" x="526.6666666666666" transform="translate(526.6666666666666,507.7952755905514)" id="node-30" class="node"><rect fill="#bab0ab" width="10" height="0.5708661417322674"/></g><g y="324.38976377952787" x="526.6666666666666" transform="translate(526.6666666666666,324.38976377952787)" id="node-31" class="node"><rect fill="#4e79a7" width="10" height="0.5708661417322674"/></g><g y="604.9114173228348" x="526.6666666666666" transform="translate(526.6666666666666,604.9114173228348)" id="node-32" class="node"><rect fill="#f28e2c" width="10" height="0.2854330708661337"/></g><g y="273.26771653543324" x="526.6666666666666" transform="translate(526.6666666666666,273.26771653543324)" id="node-33" class="node"><rect fill="#e15759" width="10" height="4.5669291338582525"/></g><g y="438.661417322835" x="526.6666666666666" transform="translate(526.6666666666666,438.661417322835)" id="node-34" class="node"><rect fill="#76b7b2" width="10" height="1.1417322834645347"/></g><g y="615.196850393701" x="526.6666666666666" transform="translate(526.6666666666666,615.196850393701)" id="node-35" class="node"><rect fill="#59a14f" width="10" height="0.2854330708661337"/></g><g y="150.74803149606308" x="526.6666666666666" transform="translate(526.6666666666666,150.74803149606308)" id="node-36" class="node"><rect fill="#edc949" width="10" height="21.122047244094603"/></g><g y="231.56496062992142" x="526.6666666666666" transform="translate(526.6666666666666,231.56496062992142)" id="node-37" class="node"><rect fill="#af7aa1" width="10" height="0.2854330708661337"/></g><g y="252.13582677165368" x="526.6666666666666" transform="translate(526.6666666666666,252.13582677165368)" id="node-38" class="node"><rect fill="#ff9da7" width="10" height="11.131889763779554"/></g><g y="486.938976377953" x="526.6666666666666" transform="translate(526.6666666666666,486.938976377953)" id="node-39" class="node"><rect fill="#9c755f" width="10" height="0.2854330708661337"/></g><g y="3.555444468539548" x="0" transform="translate(0,3.555444468539548)" id="node-40" class="node"><rect fill="#bab0ab" width="10" height="206.36811023622047"/></g><g y="0" x="263.3333333333333" transform="translate(263.3333333333333,0)" id="node-41" class="node"><rect fill="#4e79a7" width="10" height="158.12992125984266"/></g><g y="189.83267716535454" x="263.3333333333333" transform="translate(263.3333333333333,189.83267716535454)" id="node-42" class="node"><rect fill="#f28e2c" width="10" height="22.83464566929149"/></g><g y="245.7385312909299" x="263.3333333333333" transform="translate(263.3333333333333,245.7385312909299)" id="node-43" class="node"><rect fill="#e15759" width="10" height="3.7106299212598515"/></g><g y="358.8786465029088" x="263.3333333333333" transform="translate(263.3333333333333,358.8786465029088)" id="node-44" class="node"><rect fill="#76b7b2" width="10" height="0.28543307086624736"/></g><g y="168.12992125984266" x="263.3333333333333" transform="translate(263.3333333333333,168.12992125984266)" id="node-45" class="node"><rect fill="#59a14f" width="10" height="11.702755905511879"/></g><g y="392.8648669753499" x="263.3333333333333" transform="translate(263.3333333333333,392.8648669753499)" id="node-46" class="node"><rect fill="#edc949" width="10" height="0.5708661417322674"/></g><g y="340.0302213060583" x="263.3333333333333" transform="translate(263.3333333333333,340.0302213060583)" id="node-47" class="node"><rect fill="#af7aa1" width="10" height="8.848425196850485"/></g><g y="329.7447882351922" x="263.3333333333333" transform="translate(263.3333333333333,329.7447882351922)" id="node-48" class="node"><rect fill="#ff9da7" width="10" height="0.2854330708661337"/></g><g y="514.3780069795521" x="790" transform="translate(790,514.3780069795521)" id="node-49" class="node"><rect fill="#9c755f" width="10" height="15.413385826771673"/></g><g y="487.8228888693159" x="790" transform="translate(790,487.8228888693159)" id="node-50" class="node"><rect fill="#bab0ab" width="10" height="16.555118110236208"/></g><g y="528.6515748031499" x="526.6666666666666" transform="translate(526.6666666666666,528.6515748031499)" id="node-51" class="node"><rect fill="#4e79a7" width="10" height="0.2854330708661337"/></g><g y="677.1948818897639" x="526.6666666666666" transform="translate(526.6666666666666,677.1948818897639)" id="node-52" class="node"><rect fill="#f28e2c" width="10" height="3.139763779527584"/></g><g y="538.937007874016" x="526.6666666666666" transform="translate(526.6666666666666,538.937007874016)" id="node-53" class="node"><rect fill="#e15759" width="10" height="1.1417322834645347"/></g><g y="566.0728346456694" x="526.6666666666666" transform="translate(526.6666666666666,566.0728346456694)" id="node-54" class="node"><rect fill="#76b7b2" width="10" height="5.708661417322787"/></g><g y="646.3385826771655" x="526.6666666666666" transform="translate(526.6666666666666,646.3385826771655)" id="node-55" class="node"><rect fill="#59a14f" width="10" height="0.2854330708661337"/></g><g y="666.9094488188978" x="526.6666666666666" transform="translate(526.6666666666666,666.9094488188978)" id="node-56" class="node"><rect fill="#edc949" width="10" height="0.2854330708661337"/></g><g y="550.0787401574805" x="526.6666666666666" transform="translate(526.6666666666666,550.0787401574805)" id="node-57" class="node"><rect fill="#af7aa1" width="10" height="5.994094488188921"/></g><g y="636.0531496062994" x="526.6666666666666" transform="translate(526.6666666666666,636.0531496062994)" id="node-58" class="node"><rect fill="#ff9da7" width="10" height="0.2854330708661337"/></g><g y="656.6240157480316" x="526.6666666666666" transform="translate(526.6666666666666,656.6240157480316)" id="node-59" class="node"><rect fill="#9c755f" width="10" height="0.2854330708661337"/></g><g y="420.34400078873205" x="0" transform="translate(0,420.34400078873205)" id="node-60" class="node"><rect fill="#bab0ab" width="10" height="31.96850393700788"/></g><g y="474.50234665594206" x="263.3333333333333" transform="translate(263.3333333333333,474.50234665594206)" id="node-61" class="node"><rect fill="#4e79a7" width="10" height="0.5708661417322674"/></g><g y="308.8983315422787" x="263.3333333333333" transform="translate(263.3333333333333,308.8983315422787)" id="node-62" class="node"><rect fill="#f28e2c" width="10" height="10.846456692913478"/></g><g y="369.16407957377504" x="263.3333333333333" transform="translate(263.3333333333333,369.16407957377504)" id="node-63" class="node"><rect fill="#e15759" width="10" height="13.700787401574871"/></g><g y="496.12528259237627" x="263.3333333333333" transform="translate(263.3333333333333,496.12528259237627)" id="node-64" class="node"><rect fill="#76b7b2" width="10" height="4.281496062992119"/></g><g y="464.2169135850759" x="263.3333333333333" transform="translate(263.3333333333333,464.2169135850759)" id="node-65" class="node"><rect fill="#59a14f" width="10" height="0.28543307086624736"/></g><g y="298.32746540054643" x="263.3333333333333" transform="translate(263.3333333333333,298.32746540054643)" id="node-66" class="node"><rect fill="#edc949" width="10" height="0.5708661417322674"/></g><g y="522.1460145767917" x="263.3333333333333" transform="translate(263.3333333333333,522.1460145767917)" id="node-67" class="node"><rect fill="#af7aa1" width="10" height="1.4271653543305547"/></g><g y="511.3564929443655" x="263.3333333333333" transform="translate(263.3333333333333,511.3564929443655)" id="node-68" class="node"><rect fill="#ff9da7" width="10" height="0.2854330708661337"/></g><g y="812.0275590551182" x="526.6666666666666" transform="translate(526.6666666666666,812.0275590551182)" id="node-69" class="node"><rect fill="#9c755f" width="10" height="16.840551181102228"/></g><g y="764.9666511053465" x="790" transform="translate(790,764.9666511053465)" id="node-70" class="node"><rect fill="#bab0ab" width="10" height="9.704724409449"/></g><g y="732.9883046486535" x="790" transform="translate(790,732.9883046486535)" id="node-71" class="node"><rect fill="#4e79a7" width="10" height="21.978346456692975"/></g><g y="828.2890793442173" x="790" transform="translate(790,828.2890793442173)" id="node-72" class="node"><rect fill="#f28e2c" width="10" height="19.980314960629926"/></g><g y="690.3346456692916" x="526.6666666666666" transform="translate(526.6666666666666,690.3346456692916)" id="node-73" class="node"><rect fill="#e15759" width="10" height="7.135826771653683"/></g><g y="801.742125984252" x="526.6666666666666" transform="translate(526.6666666666666,801.742125984252)" id="node-74" class="node"><rect fill="#76b7b2" width="10" height="0.28543307086624736"/></g><g y="764.3208661417325" x="526.6666666666666" transform="translate(526.6666666666666,764.3208661417325)" id="node-75" class="node"><rect fill="#59a14f" width="10" height="0.28543307086602"/></g><g y="732.8937007874019" x="526.6666666666666" transform="translate(526.6666666666666,732.8937007874019)" id="node-76" class="node"><rect fill="#edc949" width="10" height="0.8562992125985147"/></g><g y="721.1811023622051" x="526.6666666666666" transform="translate(526.6666666666666,721.1811023622051)" id="node-77" class="node"><rect fill="#af7aa1" width="10" height="1.712598425196802"/></g><g y="743.7500000000005" x="526.6666666666666" transform="translate(526.6666666666666,743.7500000000005)" id="node-78" class="node"><rect fill="#ff9da7" width="10" height="0.28543307086602"/></g><g y="754.0354330708665" x="526.6666666666666" transform="translate(526.6666666666666,754.0354330708665)" id="node-79" class="node"><rect fill="#9c755f" width="10" height="0.28543307086602"/></g><g y="707.4704724409453" x="526.6666666666666" transform="translate(526.6666666666666,707.4704724409453)" id="node-80" class="node"><rect fill="#bab0ab" width="10" height="3.7106299212598515"/></g><g y="774.6062992125985" x="526.6666666666666" transform="translate(526.6666666666666,774.6062992125985)" id="node-81" class="node"><rect fill="#4e79a7" width="10" height="5.708661417322901"/></g><g y="838.8681102362204" x="526.6666666666666" transform="translate(526.6666666666666,838.8681102362204)" id="node-82" class="node"><rect fill="#f28e2c" width="10" height="11.131889763779554"/></g><g y="790.3149606299214" x="526.6666666666666" transform="translate(526.6666666666666,790.3149606299214)" id="node-83" class="node"><rect fill="#e15759" width="10" height="1.4271653543305547"/></g><g y="750.134378860964" x="0" transform="translate(0,750.134378860964)" id="node-84" class="node"><rect fill="#76b7b2" width="10" height="51.66338582677167"/></g><g y="775.8665277831074" x="263.3333333333333" transform="translate(263.3333333333333,775.8665277831074)" id="node-85" class="node"><rect fill="#59a14f" width="10" height="5.994094488188921"/></g><g y="838.8681102362204" x="263.3333333333333" transform="translate(263.3333333333333,838.8681102362204)" id="node-86" class="node"><rect fill="#edc949" width="10" height="11.131889763779554"/></g><g y="800.3149606299214" x="263.3333333333333" transform="translate(263.3333333333333,800.3149606299214)" id="node-87" class="node"><rect fill="#af7aa1" width="10" height="1.4271653543305547"/></g><g y="718.7649203697825" x="263.3333333333333" transform="translate(263.3333333333333,718.7649203697825)" id="node-88" class="node"><rect fill="#ff9da7" width="10" height="5.4232283464566535"/></g><g y="744.5128836478898" x="263.3333333333333" transform="translate(263.3333333333333,744.5128836478898)" id="node-89" class="node"><rect fill="#9c755f" width="10" height="1.427165354330782"/></g><g y="689.8967620083321" x="263.3333333333333" transform="translate(263.3333333333333,689.8967620083321)" id="node-90" class="node"><rect fill="#bab0ab" width="10" height="9.133858267716619"/></g><g y="811.742125984252" x="263.3333333333333" transform="translate(263.3333333333333,811.742125984252)" id="node-91" class="node"><rect fill="#4e79a7" width="10" height="17.125984251968475"/></g></g><g font-size="14" font-family="sans-serif" class="node-labels"><text text-anchor="end" dy="0.35em" y="111.48129921259846" x="520.6666666666666">Mareschal 2016</text><text text-anchor="end" dy="0.35em" y="297.1728397952237" x="784">Tier 1 DLBCL genes</text><text text-anchor="end" dy="0.35em" y="335.24606299212627" x="520.6666666666666">Morin 2016</text><text text-anchor="end" dy="0.35em" y="131.1860236220473" x="520.6666666666666">Reddy 2017</text><text text-anchor="end" dy="0.35em" y="234.41171451996894" x="784">Tier 2 DLBCL genes</text><text text-anchor="end" dy="0.35em" y="65.1689007322918" x="784">Tier 3 DLBCL genes</text><text text-anchor="end" dy="0.35em" y="293.82874015748047" x="520.6666666666666">Pasqualucci 2011</text><text text-anchor="end" dy="0.35em" y="386.81594488189006" x="520.6666666666666">Khodabakhshi 2012</text><text text-anchor="end" dy="0.35em" y="345.67421259842547" x="520.6666666666666">Ngo 2011</text><text text-anchor="end" dy="0.35em" y="497.50984251968526" x="520.6666666666666">Yildiz 2015</text><text text-anchor="end" dy="0.35em" y="355.95964566929166" x="520.6666666666666">Scholl 2007</text><text text-anchor="end" dy="0.35em" y="184.43897637795294" x="520.6666666666666">Schmitz 2018</text><text text-anchor="end" dy="0.35em" y="312.1062992125986" x="520.6666666666666">Arthur 2018</text><text text-anchor="end" dy="0.35em" y="241.99311023622062" x="520.6666666666666">Duns 2021</text><text text-anchor="end" dy="0.35em" y="625.7677165354332" x="520.6666666666666">Morin 2010</text><text text-anchor="end" dy="0.35em" y="41.530511811023615" x="520.6666666666666">Zhang 2013</text><text text-anchor="end" dy="0.35em" y="97.19980314960631" x="520.6666666666666">Chapuy 2018</text><text text-anchor="end" dy="0.35em" y="366.2450787401578" x="520.6666666666666">Bohle 2013</text><text text-anchor="end" dy="0.35em" y="202.8592519685041" x="520.6666666666666">Lohr 2012</text><text text-anchor="end" dy="0.35em" y="423.0954724409452" x="520.6666666666666">Hubschmann 2021</text><text text-anchor="end" dy="0.35em" y="449.9458661417326" x="520.6666666666666">Shin 2015</text><text text-anchor="end" dy="0.35em" y="518.5088582677167" x="520.6666666666666">Rushton 2020</text><text text-anchor="end" dy="0.35em" y="376.5305118110239" x="520.6666666666666">Lenz 2008</text><text text-anchor="end" dy="0.35em" y="220.13779527559072" x="520.6666666666666">Albuquerque 2017</text><text text-anchor="end" dy="0.35em" y="397.1013779527562" x="520.6666666666666">Compagno 2009</text><text text-anchor="end" dy="0.35em" y="407.38681102362233" x="520.6666666666666">Kwanhian 2012</text><text text-anchor="end" dy="0.35em" y="473.6564960629924" x="520.6666666666666">Dreval 2023</text><text text-anchor="end" dy="0.35em" y="460.23129921259874" x="520.6666666666666">Tanaka 1992</text><text text-anchor="end" dy="0.35em" y="588.3464566929135" x="520.6666666666666">Morin 2011</text><text text-anchor="end" dy="0.35em" y="508.08070866141753" x="520.6666666666666">Okosun 2016</text><text text-anchor="end" dy="0.35em" y="324.675196850394" x="520.6666666666666">Pararajalingam 2020</text><text text-anchor="end" dy="0.35em" y="605.054133858268" x="520.6666666666666">Thomas 2004</text><text text-anchor="end" dy="0.35em" y="275.55118110236236" x="520.6666666666666">Novak 2015</text><text text-anchor="end" dy="0.35em" y="439.2322834645673" x="520.6666666666666">Pasqualucci 2001</text><text text-anchor="end" dy="0.35em" y="615.339566929134" x="520.6666666666666">Davis 2010</text><text text-anchor="end" dy="0.35em" y="161.3090551181104" x="520.6666666666666">Fan 2020</text><text text-anchor="end" dy="0.35em" y="231.70767716535448" x="520.6666666666666">Tiacci 2011</text><text text-anchor="end" dy="0.35em" y="257.70177165354346" x="520.6666666666666">Morin 2013</text><text text-anchor="end" dy="0.35em" y="487.08169291338606" x="520.6666666666666">Pasqualucci 2006</text><text text-anchor="start" dy="0.35em" y="106.73949958664979" x="16">DLBCL genes</text><text text-anchor="start" dy="0.35em" y="79.06496062992133" x="279.3333333333333">DLBCL-exome</text><text text-anchor="start" dy="0.35em" y="201.25000000000028" x="279.3333333333333">DLBCL-WGS</text><text text-anchor="start" dy="0.35em" y="247.59384625155982" x="279.3333333333333">DLBCL-Sanger</text><text text-anchor="start" dy="0.35em" y="359.0213630383419" x="279.3333333333333">DLBCL-RNA-seq/WGS</text><text text-anchor="start" dy="0.35em" y="173.9812992125986" x="279.3333333333333">DLBCL-exome/Sanger</text><text text-anchor="start" dy="0.35em" y="393.15030004621605" x="279.3333333333333">DLBCL-</text><text text-anchor="start" dy="0.35em" y="344.45443390448355" x="279.3333333333333">DLBCL-WGS/RNA-seq</text><text text-anchor="start" dy="0.35em" y="329.88750477062524" x="279.3333333333333">DLBCL-exome/panel</text><text text-anchor="end" dy="0.35em" y="522.0846998929379" x="784">Tier 1 FL genes</text><text text-anchor="end" dy="0.35em" y="496.100447924434" x="784">Tier 2 FL genes</text><text text-anchor="end" dy="0.35em" y="528.794291338583" x="520.6666666666666">Louissaint 2016</text><text text-anchor="end" dy="0.35em" y="678.7647637795277" x="520.6666666666666">Ma 2022</text><text text-anchor="end" dy="0.35em" y="539.5078740157483" x="520.6666666666666">Green 2015</text><text text-anchor="end" dy="0.35em" y="568.9271653543308" x="520.6666666666666">Russler-germain 2023</text><text text-anchor="end" dy="0.35em" y="646.4812992125985" x="520.6666666666666">Laurent 2024</text><text text-anchor="end" dy="0.35em" y="667.0521653543308" x="520.6666666666666">Bararia 2020</text><text text-anchor="end" dy="0.35em" y="553.075787401575" x="520.6666666666666">Krysiak 2017</text><text text-anchor="end" dy="0.35em" y="636.1958661417325" x="520.6666666666666">Cheung 2010</text><text text-anchor="end" dy="0.35em" y="656.7667322834648" x="520.6666666666666">Rossi 2006</text><text text-anchor="start" dy="0.35em" y="436.328252757236" x="16">FL genes</text><text text-anchor="start" dy="0.35em" y="474.7877797268082" x="279.3333333333333">FL-</text><text text-anchor="start" dy="0.35em" y="314.32155988873546" x="279.3333333333333">FL-WGS</text><text text-anchor="start" dy="0.35em" y="376.0144732745625" x="279.3333333333333">FL-exome</text><text text-anchor="start" dy="0.35em" y="498.2660306238723" x="279.3333333333333">FL-WGS/RNA-seq</text><text text-anchor="start" dy="0.35em" y="464.359630120509" x="279.3333333333333">FL-Sanger</text><text text-anchor="start" dy="0.35em" y="298.61289847141256" x="279.3333333333333">FL-exome/Sanger</text><text text-anchor="start" dy="0.35em" y="522.859597253957" x="279.3333333333333">FL-panel</text><text text-anchor="start" dy="0.35em" y="511.4992094797986" x="279.3333333333333">FL-RNA-seq/WGS</text><text text-anchor="end" dy="0.35em" y="820.4478346456693" x="520.6666666666666">Love 2012</text><text text-anchor="end" dy="0.35em" y="769.819013310071" x="784">Tier 1 BL genes</text><text text-anchor="end" dy="0.35em" y="743.977477877" x="784">Tier 2 BL genes</text><text text-anchor="end" dy="0.35em" y="838.2792368245323" x="784">Tier 3 BL genes</text><text text-anchor="end" dy="0.35em" y="693.9025590551184" x="520.6666666666666">Burkhardt 2022</text><text text-anchor="end" dy="0.35em" y="801.8848425196851" x="520.6666666666666">Zhou 2019</text><text text-anchor="end" dy="0.35em" y="764.4635826771655" x="520.6666666666666">Abate 2015</text><text text-anchor="end" dy="0.35em" y="733.3218503937012" x="520.6666666666666">Muppidi 2014</text><text text-anchor="end" dy="0.35em" y="722.0374015748035" x="520.6666666666666">Thomas 2023</text><text text-anchor="end" dy="0.35em" y="743.8927165354335" x="520.6666666666666">Wilda 2004</text><text text-anchor="end" dy="0.35em" y="754.1781496062995" x="520.6666666666666">Johnston 1992</text><text text-anchor="end" dy="0.35em" y="709.3257874015752" x="520.6666666666666">Grande 2019</text><text text-anchor="end" dy="0.35em" y="777.46062992126" x="520.6666666666666">Schmitz 2012</text><text text-anchor="end" dy="0.35em" y="844.4340551181102" x="520.6666666666666">Panea 2019</text><text text-anchor="end" dy="0.35em" y="791.0285433070867" x="520.6666666666666">Richter 2012</text><text text-anchor="start" dy="0.35em" y="775.9660717743499" x="16">BL genes</text><text text-anchor="start" dy="0.35em" y="778.8635750272018" x="279.3333333333333">BL-RNA-seq</text><text text-anchor="start" dy="0.35em" y="844.4340551181102" x="279.3333333333333">BL-RNA-seq/exome</text><text text-anchor="start" dy="0.35em" y="801.0285433070867" x="279.3333333333333">BL-RNA-seq/WGS/exome</text><text text-anchor="start" dy="0.35em" y="721.4765345430109" x="279.3333333333333">BL-WGS</text><text text-anchor="start" dy="0.35em" y="745.2264663250552" x="279.3333333333333">BL-Sanger</text><text text-anchor="start" dy="0.35em" y="694.4636911421903" x="279.3333333333333">BL-panel</text><text text-anchor="start" dy="0.35em" y="820.3051181102362" x="279.3333333333333">BL-exome</text></g><g stroke-opacity="0.5" fill="none" class="links"><g style="mix-blend-mode: multiply;" class="link"><path stroke-width="1" stroke="#f28e2c" d="M536.6666666666666,111.48129921259846C663.3333333333333,111.48129921259846,663.3333333333333,285.47008388971193,790,285.47008388971193"/></g><g style="mix-blend-mode: multiply;" class="link"><path stroke-width="1" stroke="#f28e2c" d="M536.6666666666666,335.24606299212627C663.3333333333333,335.24606299212627,663.3333333333333,301.5970523936489,790,301.5970523936489"/></g><g style="mix-blend-mode: multiply;" class="link"><path stroke-width="3.7106299212598426" stroke="#f28e2c" d="M536.6666666666666,138.8927165354331C663.3333333333333,138.8927165354331,663.3333333333333,287.4681153857749,790,287.4681153857749"/></g><g style="mix-blend-mode: multiply;" class="link"><path stroke-width="7.9921259842519685" stroke="#59a14f" d="M536.6666666666666,133.04133858267718C663.3333333333333,133.04133858267718,663.3333333333333,214.28868302390595,790,214.28868302390595"/></g><g style="mix-blend-mode: multiply;" class="link"><path stroke-width="7.421259842519685" stroke="#edc949" d="M536.6666666666666,125.33464566929136C663.3333333333333,125.33464566929136,663.3333333333333,92.99862514174059,790,92.99862514174059"/></g><g style="mix-blend-mode: multiply;" class="link"><path stroke-width="1" stroke="#f28e2c" d="M536.6666666666666,298.1102362204726C663.3333333333333,298.1102362204726,663.3333333333333,299.59902089758594,790,299.59902089758594"/></g><g style="mix-blend-mode: multiply;" class="link"><path stroke-width="1" stroke="#f28e2c" d="M536.6666666666666,386.81594488189006C663.3333333333333,386.81594488189006,663.3333333333333,303.1669342834126,790,303.1669342834126"/></g><g style="mix-blend-mode: multiply;" class="link"><path stroke-width="1" stroke="#f28e2c" d="M536.6666666666666,345.67421259842547C663.3333333333333,345.67421259842547,663.3333333333333,302.0252019999481,790,302.0252019999481"/></g><g style="mix-blend-mode: multiply;" class="link"><path stroke-width="1" stroke="#f28e2c" d="M536.6666666666666,497.3671259842522C663.3333333333333,497.3671259842522,663.3333333333333,305.7358319212078,790,305.7358319212078"/></g><g style="mix-blend-mode: multiply;" class="link"><path stroke-width="1" stroke="#f28e2c" d="M536.6666666666666,355.95964566929166C663.3333333333333,355.95964566929166,663.3333333333333,302.3106350708142,790,302.3106350708142"/></g><g style="mix-blend-mode: multiply;" class="link"><path stroke-width="1.141732283464567" stroke="#f28e2c" d="M536.6666666666666,186.43700787401596C663.3333333333333,186.43700787401596,663.3333333333333,290.17972955900325,790,290.17972955900325"/></g><g style="mix-blend-mode: multiply;" class="link"><path stroke-width="3.9960629921259843" stroke="#59a14f" d="M536.6666666666666,183.86811023622067C663.3333333333333,183.86811023622067,663.3333333333333,220.28277751209492,790,220.28277751209492"/></g><g style="mix-blend-mode: multiply;" class="link"><path stroke-width="1" stroke="#f28e2c" d="M536.6666666666666,314.10433070866156C663.3333333333333,314.10433070866156,663.3333333333333,301.0261862519166,790,301.0261862519166"/></g><g style="mix-blend-mode: multiply;" class="link"><path stroke-width="3.9960629921259843" stroke="#59a14f" d="M536.6666666666666,311.82086614173244C663.3333333333333,311.82086614173244,663.3333333333333,254.53474601603193,790,254.53474601603193"/></g><g style="mix-blend-mode: multiply;" class="link"><path stroke-width="1" stroke="#f28e2c" d="M536.6666666666666,241.99311023622062C663.3333333333333,241.99311023622062,663.3333333333333,296.31654058262535,790,296.31654058262535"/></g><g style="mix-blend-mode: multiply;" class="link"><path stroke-width="1" stroke="#f28e2c" d="M536.6666666666666,625.6250000000002C663.3333333333333,625.6250000000002,663.3333333333333,315.15512325979046,790,315.15512325979046"/></g><g style="mix-blend-mode: multiply;" class="link"><path stroke-width="3.139763779527559" stroke="#f28e2c" d="M536.6666666666666,81.49114173228347C663.3333333333333,81.49114173228347,663.3333333333333,280.6177216849875,790,280.6177216849875"/></g><g style="mix-blend-mode: multiply;" class="link"><path stroke-width="2.283464566929134" stroke="#59a14f" d="M536.6666666666666,78.77952755905511C663.3333333333333,78.77952755905511,663.3333333333333,205.7256908979217,790,205.7256908979217"/></g><g style="mix-blend-mode: multiply;" class="link"><path stroke-width="77.63779527559055" stroke="#edc949" d="M536.6666666666666,38.818897637795274C663.3333333333333,38.818897637795274,663.3333333333333,48.75649915748863,790,48.75649915748863"/></g><g style="mix-blend-mode: multiply;" class="link"><path stroke-width="3.139763779527559" stroke="#f28e2c" d="M536.6666666666666,99.76870078740156C663.3333333333333,99.76870078740156,663.3333333333333,283.75748546451507,790,283.75748546451507"/></g><g style="mix-blend-mode: multiply;" class="link"><path stroke-width="3.425196850393701" stroke="#59a14f" d="M536.6666666666666,96.48622047244092C663.3333333333333,96.48622047244092,663.3333333333333,208.58002160658313,790,208.58002160658313"/></g><g style="mix-blend-mode: multiply;" class="link"><path stroke-width="1.7125984251968505" stroke="#edc949" d="M536.6666666666666,93.91732283464566C663.3333333333333,93.91732283464566,663.3333333333333,88.43169600788234,790,88.43169600788234"/></g><g style="mix-blend-mode: multiply;" class="link"><path stroke-width="1" stroke="#f28e2c" d="M536.6666666666666,366.2450787401578C663.3333333333333,366.2450787401578,663.3333333333333,302.59606814168035,790,302.59606814168035"/></g><g style="mix-blend-mode: multiply;" class="link"><path stroke-width="3.9960629921259843" stroke="#f28e2c" d="M536.6666666666666,206.71259842519703C663.3333333333333,206.71259842519703,663.3333333333333,292.74862719679857,790,292.74862719679857"/></g><g style="mix-blend-mode: multiply;" class="link"><path stroke-width="7.706692913385827" stroke="#59a14f" d="M536.6666666666666,200.86122047244112C663.3333333333333,200.86122047244112,663.3333333333333,226.13415546485083,790,226.13415546485083"/></g><g style="mix-blend-mode: multiply;" class="link"><path stroke-width="1" stroke="#f28e2c" d="M536.6666666666666,423.8090551181105C663.3333333333333,423.8090551181105,663.3333333333333,304.1659500314441,790,304.1659500314441"/></g><g style="mix-blend-mode: multiply;" class="link"><path stroke-width="5.137795275590551" stroke="#59a14f" d="M536.6666666666666,420.95472440944906C663.3333333333333,420.95472440944906,663.3333333333333,259.67254129162245,790,259.67254129162245"/></g><g style="mix-blend-mode: multiply;" class="link"><path stroke-width="1" stroke="#edc949" d="M536.6666666666666,417.9576771653546C663.3333333333333,417.9576771653546,663.3333333333333,119.97205033859099,790,119.97205033859099"/></g><g style="mix-blend-mode: multiply;" class="link"><path stroke-width="1" stroke="#59a14f" d="M536.6666666666666,449.9458661417326C663.3333333333333,449.9458661417326,663.3333333333333,262.9550216065831,790,262.9550216065831"/></g><g style="mix-blend-mode: multiply;" class="link"><path stroke-width="1" stroke="#f28e2c" d="M536.6666666666666,518.5088582677168C663.3333333333333,518.5088582677168,663.3333333333333,306.3066980629401,790,306.3066980629401"/></g><g style="mix-blend-mode: multiply;" class="link"><path stroke-width="1" stroke="#f28e2c" d="M536.6666666666666,376.5305118110239C663.3333333333333,376.5305118110239,663.3333333333333,302.8815012125465,790,302.8815012125465"/></g><g style="mix-blend-mode: multiply;" class="link"><path stroke-width="1.141732283464567" stroke="#f28e2c" d="M536.6666666666666,220.99409448818918C663.3333333333333,220.99409448818918,663.3333333333333,295.3175248345938,790,295.3175248345938"/></g><g style="mix-blend-mode: multiply;" class="link"><path stroke-width="1.7125984251968505" stroke="#59a14f" d="M536.6666666666666,219.56692913385845C663.3333333333333,219.56692913385845,663.3333333333333,230.84380113414218,790,230.84380113414218"/></g><g style="mix-blend-mode: multiply;" class="link"><path stroke-width="1" stroke="#f28e2c" d="M536.6666666666666,397.1013779527562C663.3333333333333,397.1013779527562,663.3333333333333,303.45236735427875,790,303.45236735427875"/></g><g style="mix-blend-mode: multiply;" class="link"><path stroke-width="1" stroke="#f28e2c" d="M536.6666666666666,407.38681102362233C663.3333333333333,407.38681102362233,663.3333333333333,303.7378004251449,790,303.7378004251449"/></g><g style="mix-blend-mode: multiply;" class="link"><path stroke-width="1" stroke="#59a14f" d="M536.6666666666666,470.5167322834649C663.3333333333333,470.5167322834649,663.3333333333333,263.24045467744924,790,263.24045467744924"/></g><g style="mix-blend-mode: multiply;" class="link"><path stroke-width="1" stroke="#f28e2c" d="M536.6666666666666,460.23129921259874C663.3333333333333,460.23129921259874,663.3333333333333,305.16496577947555,790,305.16496577947555"/></g><g style="mix-blend-mode: multiply;" class="link"><path stroke-width="7.9921259842519685" stroke="#f28e2c" d="M536.6666666666666,586.6338582677166C663.3333333333333,586.6338582677166,663.3333333333333,310.44547759049914,790,310.44547759049914"/></g><g style="mix-blend-mode: multiply;" class="link"><path stroke-width="1" stroke="#59a14f" d="M536.6666666666666,582.2096456692915C663.3333333333333,582.2096456692915,663.3333333333333,263.8113208191815,790,263.8113208191815"/></g><g style="mix-blend-mode: multiply;" class="link"><path stroke-width="1" stroke="#f28e2c" d="M536.6666666666666,507.93799212598447C663.3333333333333,507.93799212598447,663.3333333333333,306.02126499207395,790,306.02126499207395"/></g><g style="mix-blend-mode: multiply;" class="link"><path stroke-width="1" stroke="#59a14f" d="M536.6666666666666,324.675196850394C663.3333333333333,324.675196850394,663.3333333333333,256.81821058296106,790,256.81821058296106"/></g><g style="mix-blend-mode: multiply;" class="link"><path stroke-width="1" stroke="#f28e2c" d="M536.6666666666666,605.054133858268C663.3333333333333,605.054133858268,663.3333333333333,314.5842571180582,790,314.5842571180582"/></g><g style="mix-blend-mode: multiply;" class="link"><path stroke-width="1" stroke="#f28e2c" d="M536.6666666666666,277.6919291338584C663.3333333333333,277.6919291338584,663.3333333333333,299.17087129128674,790,299.17087129128674"/></g><g style="mix-blend-mode: multiply;" class="link"><path stroke-width="4.281496062992126" stroke="#59a14f" d="M536.6666666666666,275.4084645669293C663.3333333333333,275.4084645669293,663.3333333333333,240.40580900815792,790,240.40580900815792"/></g><g style="mix-blend-mode: multiply;" class="link"><path stroke-width="1" stroke="#f28e2c" d="M536.6666666666666,439.5177165354334C663.3333333333333,439.5177165354334,663.3333333333333,304.73681617317635,790,304.73681617317635"/></g><g style="mix-blend-mode: multiply;" class="link"><path stroke-width="1" stroke="#59a14f" d="M536.6666666666666,438.94685039370114C663.3333333333333,438.94685039370114,663.3333333333333,262.5268720002839,790,262.5268720002839"/></g><g style="mix-blend-mode: multiply;" class="link"><path stroke-width="1" stroke="#f28e2c" d="M536.6666666666666,615.3395669291341C663.3333333333333,615.3395669291341,663.3333333333333,314.8696901889243,790,314.8696901889243"/></g><g style="mix-blend-mode: multiply;" class="link"><path stroke-width="1" stroke="#f28e2c" d="M536.6666666666666,171.7273622047245C663.3333333333333,171.7273622047245,663.3333333333333,289.4661468818379,790,289.4661468818379"/></g><g style="mix-blend-mode: multiply;" class="link"><path stroke-width="20.836614173228345" stroke="#edc949" d="M536.6666666666666,161.16633858267724C663.3333333333333,161.16633858267724,663.3333333333333,107.12756214961462,790,107.12756214961462"/></g><g style="mix-blend-mode: multiply;" class="link"><path stroke-width="1" stroke="#f28e2c" d="M536.6666666666666,231.70767716535448C663.3333333333333,231.70767716535448,663.3333333333333,296.0311075117592,790,296.0311075117592"/></g><g style="mix-blend-mode: multiply;" class="link"><path stroke-width="2.5688976377952755" stroke="#f28e2c" d="M536.6666666666666,261.9832677165356C663.3333333333333,261.9832677165356,663.3333333333333,297.7437059369561,790,297.7437059369561"/></g><g style="mix-blend-mode: multiply;" class="link"><path stroke-width="6.564960629921259" stroke="#59a14f" d="M536.6666666666666,257.4163385826773C663.3333333333333,257.4163385826773,663.3333333333333,234.98258066170123,790,234.98258066170123"/></g><g style="mix-blend-mode: multiply;" class="link"><path stroke-width="1.9980314960629921" stroke="#edc949" d="M536.6666666666666,253.13484251968518C663.3333333333333,253.13484251968518,663.3333333333333,118.54488498426028,790,118.54488498426028"/></g><g style="mix-blend-mode: multiply;" class="link"><path stroke-width="1" stroke="#f28e2c" d="M536.6666666666666,298.8238188976379C663.3333333333333,298.8238188976379,663.3333333333333,300.3126035747513,790,300.3126035747513"/></g><g style="mix-blend-mode: multiply;" class="link"><path stroke-width="9.990157480314961" stroke="#59a14f" d="M536.6666666666666,292.82972440944894C663.3333333333333,292.82972440944894,663.3333333333333,247.54163577981146,790,247.54163577981146"/></g><g style="mix-blend-mode: multiply;" class="link"><path stroke-width="1" stroke="#f28e2c" d="M536.6666666666666,487.08169291338606C663.3333333333333,487.08169291338606,663.3333333333333,305.4503988503417,790,305.4503988503417"/></g><g style="mix-blend-mode: multiply;" class="link"><path stroke-width="11.702755905511811" stroke="#4e79a7" d="M10,9.406822421295454C136.66666666666666,9.406822421295454,136.66666666666666,5.8513779527559056,263.3333333333333,5.8513779527559056"/></g><g style="mix-blend-mode: multiply;" class="link"><path stroke-width="11.702755905511811" stroke="#9c755f" d="M273.3333333333333,142.85925196850394C400,142.85925196850394,400,202.8592519685041,526.6666666666666,202.8592519685041"/></g><g style="mix-blend-mode: multiply;" class="link"><path stroke-width="6.564960629921259" stroke="#f28e2c" d="M10,176.67060194885454C136.66666666666666,176.67060194885454,136.66666666666666,193.11515748031516,263.3333333333333,193.11515748031516"/></g><g style="mix-blend-mode: multiply;" class="link"><path stroke-width="6.564960629921259" stroke="#bab0ab" d="M273.3333333333333,209.0994094488191C400,209.0994094488191,400,420.81200787401605,526.6666666666666,420.81200787401605"/></g><g style="mix-blend-mode: multiply;" class="link"><path stroke-width="8.27755905511811" stroke="#4e79a7" d="M10,19.396979901610415C136.66666666666666,19.396979901610415,136.66666666666666,15.841535433070867,263.3333333333333,15.841535433070867"/></g><g style="mix-blend-mode: multiply;" class="link"><path stroke-width="8.27755905511811" stroke="#af7aa1" d="M273.3333333333333,87.1998031496063C400,87.1998031496063,400,97.19980314960628,526.6666666666666,97.19980314960628"/></g><g style="mix-blend-mode: multiply;" class="link"><path stroke-width="1" stroke="#e15759" d="M10,196.36548383861833C136.66666666666666,196.36548383861833,136.66666666666666,245.88124782636297,263.3333333333333,245.88124782636297"/></g><g style="mix-blend-mode: multiply;" class="link"><path stroke-width="1" stroke="#ff9da7" d="M273.3333333333333,246.45211396809523C400,246.45211396809523,400,366.2450787401578,526.6666666666666,366.2450787401578"/></g><g style="mix-blend-mode: multiply;" class="link"><path stroke-width="1" stroke="#4e79a7" d="M10,23.678475964602537C136.66666666666666,23.678475964602537,136.66666666666666,20.12303149606299,263.3333333333333,20.12303149606299"/></g><g style="mix-blend-mode: multiply;" class="link"><path stroke-width="1" stroke="#76b7b2" d="M273.3333333333333,151.70767716535434C400,151.70767716535434,400,241.99311023622062,526.6666666666666,241.99311023622062"/></g><g style="mix-blend-mode: multiply;" class="link"><path stroke-width="4.566929133858268" stroke="#f28e2c" d="M10,182.23654683074432C136.66666666666666,182.23654683074432,136.66666666666666,198.6811023622049,263.3333333333333,198.6811023622049"/></g><g style="mix-blend-mode: multiply;" class="link"><path stroke-width="4.566929133858268" stroke="#e15759" d="M273.3333333333333,203.2480314960632C400,203.2480314960632,400,312.10629921259857,526.6666666666666,312.10629921259857"/></g><g style="mix-blend-mode: multiply;" class="link"><path stroke-width="1" stroke="#e15759" d="M10,196.65091690948447C136.66666666666666,196.65091690948447,136.66666666666666,246.1666808972291,263.3333333333333,246.1666808972291"/></g><g style="mix-blend-mode: multiply;" class="link"><path stroke-width="1" stroke="#4e79a7" d="M273.3333333333333,246.1666808972291C400,246.1666808972291,400,355.95964566929166,526.6666666666666,355.95964566929166"/></g><g style="mix-blend-mode: multiply;" class="link"><path stroke-width="5.137795275590551" stroke="#4e79a7" d="M10,26.39009013783088C136.66666666666666,26.39009013783088,136.66666666666666,22.834645669291334,263.3333333333333,22.834645669291334"/></g><g style="mix-blend-mode: multiply;" class="link"><path stroke-width="5.137795275590551" stroke="#f28e2c" d="M273.3333333333333,134.43897637795277C400,134.43897637795277,400,184.43897637795297,526.6666666666666,184.43897637795297"/></g><g style="mix-blend-mode: multiply;" class="link"><path stroke-width="83.06102362204724" stroke="#4e79a7" d="M10,70.48949958664979C136.66666666666666,70.48949958664979,136.66666666666666,66.93405511811024,263.3333333333333,66.93405511811024"/></g><g style="mix-blend-mode: multiply;" class="link"><path stroke-width="83.06102362204724" stroke="#edc949" d="M273.3333333333333,41.53051181102362C400,41.53051181102362,400,41.53051181102362,526.6666666666666,41.53051181102362"/></g><g style="mix-blend-mode: multiply;" class="link"><path stroke-width="1" stroke="#76b7b2" d="M10,209.20997202759463C136.66666666666666,209.20997202759463,136.66666666666666,359.02136303834186,263.3333333333333,359.02136303834186"/></g><g style="mix-blend-mode: multiply;" class="link"><path stroke-width="1" stroke="#59a14f" d="M273.3333333333333,359.02136303834186C400,359.02136303834186,400,625.6250000000002,526.6666666666666,625.6250000000002"/></g><g style="mix-blend-mode: multiply;" class="link"><path stroke-width="19.124015748031496" stroke="#4e79a7" d="M10,121.58201927168915C136.66666666666666,121.58201927168915,136.66666666666666,118.0265748031496,263.3333333333333,118.0265748031496"/></g><g style="mix-blend-mode: multiply;" class="link"><path stroke-width="19.124015748031496" stroke="#76b7b2" d="M273.3333333333333,101.18602362204724C400,101.18602362204724,400,131.1860236220473,526.6666666666666,131.1860236220473"/></g><g style="mix-blend-mode: multiply;" class="link"><path stroke-width="1" stroke="#4e79a7" d="M10,131.28674368113798C136.66666666666666,131.28674368113798,136.66666666666666,127.73129921259842,263.3333333333333,127.73129921259842"/></g><g style="mix-blend-mode: multiply;" class="link"><path stroke-width="1" stroke="#bab0ab" d="M273.3333333333333,157.70177165354335C400,157.70177165354335,400,497.3671259842522,526.6666666666666,497.3671259842522"/></g><g style="mix-blend-mode: multiply;" class="link"><path stroke-width="1" stroke="#e15759" d="M10,196.9363499803506C136.66666666666666,196.9363499803506,136.66666666666666,246.45211396809523,263.3333333333333,246.45211396809523"/></g><g style="mix-blend-mode: multiply;" class="link"><path stroke-width="1" stroke="#9c755f" d="M273.3333333333333,245.88124782636297C400,245.88124782636297,400,345.67421259842547,526.6666666666666,345.67421259842547"/></g><g style="mix-blend-mode: multiply;" class="link"><path stroke-width="1" stroke="#59a14f" d="M10,161.97079879924823C136.66666666666666,161.97079879924823,136.66666666666666,168.4153543307088,263.3333333333333,168.4153543307088"/></g><g style="mix-blend-mode: multiply;" class="link"><path stroke-width="1" stroke="#af7aa1" d="M273.3333333333333,168.70078740157493C400,168.70078740157493,400,288.1200787401576,526.6666666666666,288.1200787401576"/></g><g style="mix-blend-mode: multiply;" class="link"><path stroke-width="1" stroke="#f28e2c" d="M10,184.66272793310654C136.66666666666666,184.66272793310654,136.66666666666666,201.10728346456713,263.3333333333333,201.10728346456713"/></g><g style="mix-blend-mode: multiply;" class="link"><path stroke-width="1" stroke="#ff9da7" d="M273.3333333333333,205.6742125984254C400,205.6742125984254,400,386.81594488189006,526.6666666666666,386.81594488189006"/></g><g style="mix-blend-mode: multiply;" class="link"><path stroke-width="1" stroke="#4e79a7" d="M10,131.71489328743718C136.66666666666666,131.71489328743718,136.66666666666666,128.15944881889763,263.3333333333333,128.15944881889763"/></g><g style="mix-blend-mode: multiply;" class="link"><path stroke-width="1" stroke="#e15759" d="M273.3333333333333,157.27362204724412C400,157.27362204724412,400,335.24606299212627,526.6666666666666,335.24606299212627"/></g><g style="mix-blend-mode: multiply;" class="link"><path stroke-width="1" stroke="#4e79a7" d="M10,132.1430428937364C136.66666666666666,132.1430428937364,136.66666666666666,128.58759842519686,263.3333333333333,128.58759842519686"/></g><g style="mix-blend-mode: multiply;" class="link"><path stroke-width="1" stroke="#4e79a7" d="M273.3333333333333,91.48129921259842C400,91.48129921259842,400,111.48129921259846,526.6666666666666,111.48129921259846"/></g><g style="mix-blend-mode: multiply;" class="link"><path stroke-width="11.131889763779528" stroke="#f28e2c" d="M10,190.37138935042938C136.66666666666666,190.37138935042938,136.66666666666666,206.81594488188998,263.3333333333333,206.81594488188998"/></g><g style="mix-blend-mode: multiply;" class="link"><path stroke-width="11.131889763779528" stroke="#ff9da7" d="M273.3333333333333,195.39862204724432C400,195.39862204724432,400,257.70177165354346,526.6666666666666,257.70177165354346"/></g><g style="mix-blend-mode: multiply;" class="link"><path stroke-width="1" stroke="#e15759" d="M10,197.22178305121673C136.66666666666666,197.22178305121673,136.66666666666666,246.73754703896137,263.3333333333333,246.73754703896137"/></g><g style="mix-blend-mode: multiply;" class="link"><path stroke-width="1" stroke="#9c755f" d="M273.3333333333333,249.3064446767566C400,249.3064446767566,400,487.08169291338606,526.6666666666666,487.08169291338606"/></g><g style="mix-blend-mode: multiply;" class="link"><path stroke-width="10.846456692913385" stroke="#59a14f" d="M10,167.67946021657107C136.66666666666666,167.67946021657107,136.66666666666666,174.12401574803164,263.3333333333333,174.12401574803164"/></g><g style="mix-blend-mode: multiply;" class="link"><path stroke-width="10.846456692913385" stroke="#af7aa1" d="M273.3333333333333,174.40944881889777C400,174.40944881889777,400,293.82874015748047,526.6666666666666,293.82874015748047"/></g><g style="mix-blend-mode: multiply;" class="link"><path stroke-width="21.12204724409449" stroke="#4e79a7" d="M10,142.84678305121673C136.66666666666666,142.84678305121673,136.66666666666666,139.29133858267716,263.3333333333333,139.29133858267716"/></g><g style="mix-blend-mode: multiply;" class="link"><path stroke-width="21.12204724409449" stroke="#edc949" d="M273.3333333333333,121.30905511811024C400,121.30905511811024,400,161.30905511811034,526.6666666666666,161.30905511811034"/></g><g style="mix-blend-mode: multiply;" class="link"><path stroke-width="1" stroke="#59a14f" d="M10,173.24540509846085C136.66666666666666,173.24540509846085,136.66666666666666,179.68996062992142,263.3333333333333,179.68996062992142"/></g><g style="mix-blend-mode: multiply;" class="link"><path stroke-width="1" stroke="#af7aa1" d="M273.3333333333333,168.27263779527573C400,168.27263779527573,400,231.70767716535448,526.6666666666666,231.70767716535448"/></g><g style="mix-blend-mode: multiply;" class="link"><path stroke-width="1" stroke="#edc949" d="M10,209.49540509846076C136.66666666666666,209.49540509846076,136.66666666666666,393.007583510783,263.3333333333333,393.007583510783"/></g><g style="mix-blend-mode: multiply;" class="link"><path stroke-width="1" stroke="#59a14f" d="M273.3333333333333,393.2930165816491C400,393.2930165816491,400,615.3395669291341,526.6666666666666,615.3395669291341"/></g><g style="mix-blend-mode: multiply;" class="link"><path stroke-width="1" stroke="#edc949" d="M10,209.7808381693269C136.66666666666666,209.7808381693269,136.66666666666666,393.2930165816491,263.3333333333333,393.2930165816491"/></g><g style="mix-blend-mode: multiply;" class="link"><path stroke-width="1" stroke="#f28e2c" d="M273.3333333333333,393.007583510783C400,393.007583510783,400,605.054133858268,526.6666666666666,605.054133858268"/></g><g style="mix-blend-mode: multiply;" class="link"><path stroke-width="4.566929133858268" stroke="#4e79a7" d="M10,155.6912712401931C136.66666666666666,155.6912712401931,136.66666666666666,152.13582677165354,263.3333333333333,152.13582677165354"/></g><g style="mix-blend-mode: multiply;" class="link"><path stroke-width="4.566929133858268" stroke="#e15759" d="M273.3333333333333,154.13385826771653C400,154.13385826771653,400,275.55118110236236,526.6666666666666,275.55118110236236"/></g><g style="mix-blend-mode: multiply;" class="link"><path stroke-width="1.141732283464567" stroke="#e15759" d="M10,197.9353657283821C136.66666666666666,197.9353657283821,136.66666666666666,247.45112971612673,263.3333333333333,247.45112971612673"/></g><g style="mix-blend-mode: multiply;" class="link"><path stroke-width="1.141732283464567" stroke="#76b7b2" d="M273.3333333333333,248.021995857859C400,248.021995857859,400,439.2322834645673,526.6666666666666,439.2322834645673"/></g><g style="mix-blend-mode: multiply;" class="link"><path stroke-width="8.848425196850393" stroke="#af7aa1" d="M10,204.64304289373635C136.66666666666666,204.64304289373635,136.66666666666666,344.4544339044835,263.3333333333333,344.4544339044835"/></g><g style="mix-blend-mode: multiply;" class="link"><path stroke-width="8.848425196850393" stroke="#9c755f" d="M273.3333333333333,344.4544339044835C400,344.4544339044835,400,586.2057086614175,526.6666666666666,586.2057086614175"/></g><g style="mix-blend-mode: multiply;" class="link"><path stroke-width="1" stroke="#4e79a7" d="M10,158.26016887798838C136.66666666666666,158.26016887798838,136.66666666666666,154.70472440944883,263.3333333333333,154.70472440944883"/></g><g style="mix-blend-mode: multiply;" class="link"><path stroke-width="1" stroke="#4e79a7" d="M273.3333333333333,156.70275590551182C400,156.70275590551182,400,324.675196850394,526.6666666666666,324.675196850394"/></g><g style="mix-blend-mode: multiply;" class="link"><path stroke-width="1" stroke="#4e79a7" d="M10,158.6883184842876C136.66666666666666,158.6883184842876,136.66666666666666,155.13287401574806,263.3333333333333,155.13287401574806"/></g><g style="mix-blend-mode: multiply;" class="link"><path stroke-width="1" stroke="#bab0ab" d="M273.3333333333333,157.98720472440948C400,157.98720472440948,400,507.93799212598447,526.6666666666666,507.93799212598447"/></g><g style="mix-blend-mode: multiply;" class="link"><path stroke-width="1" stroke="#e15759" d="M10,198.64894840554743C136.66666666666666,198.64894840554743,136.66666666666666,248.16471239329206,263.3333333333333,248.16471239329206"/></g><g style="mix-blend-mode: multiply;" class="link"><path stroke-width="1" stroke="#ff9da7" d="M273.3333333333333,249.02101160589046C400,249.02101160589046,400,460.23129921259874,526.6666666666666,460.23129921259874"/></g><g style="mix-blend-mode: multiply;" class="link"><path stroke-width="1" stroke="#f28e2c" d="M10,196.0800507677522C136.66666666666666,196.0800507677522,136.66666666666666,212.5246062992128,263.3333333333333,212.5246062992128"/></g><g style="mix-blend-mode: multiply;" class="link"><path stroke-width="1" stroke="#af7aa1" d="M273.3333333333333,212.5246062992128C400,212.5246062992128,400,470.5167322834649,526.6666666666666,470.5167322834649"/></g><g style="mix-blend-mode: multiply;" class="link"><path stroke-width="2.854330708661417" stroke="#4e79a7" d="M10,160.25820037405137C136.66666666666666,160.25820037405137,136.66666666666666,156.70275590551182,263.3333333333333,156.70275590551182"/></g><g style="mix-blend-mode: multiply;" class="link"><path stroke-width="2.854330708661417" stroke="#76b7b2" d="M273.3333333333333,150.13779527559055C400,150.13779527559055,400,220.13779527559072,526.6666666666666,220.13779527559072"/></g><g style="mix-blend-mode: multiply;" class="link"><path stroke-width="1" stroke="#e15759" d="M10,198.93438147641356C136.66666666666666,198.93438147641356,136.66666666666666,248.4501454641582,263.3333333333333,248.4501454641582"/></g><g style="mix-blend-mode: multiply;" class="link"><path stroke-width="1" stroke="#59a14f" d="M273.3333333333333,247.0229801098275C400,247.0229801098275,400,397.1013779527562,526.6666666666666,397.1013779527562"/></g><g style="mix-blend-mode: multiply;" class="link"><path stroke-width="1" stroke="#e15759" d="M10,199.2198145472797C136.66666666666666,199.2198145472797,136.66666666666666,248.73557853502433,263.3333333333333,248.73557853502433"/></g><g style="mix-blend-mode: multiply;" class="link"><path stroke-width="1" stroke="#edc949" d="M273.3333333333333,247.30841318069363C400,247.30841318069363,400,407.38681102362233,526.6666666666666,407.38681102362233"/></g><g style="mix-blend-mode: multiply;" class="link"><path stroke-width="1" stroke="#e15759" d="M10,199.50524761814583C136.66666666666666,199.50524761814583,136.66666666666666,249.02101160589046,263.3333333333333,249.02101160589046"/></g><g style="mix-blend-mode: multiply;" class="link"><path stroke-width="1" stroke="#e15759" d="M273.3333333333333,246.73754703896137C400,246.73754703896137,400,376.5305118110239,526.6666666666666,376.5305118110239"/></g><g style="mix-blend-mode: multiply;" class="link"><path stroke-width="1" stroke="#ff9da7" d="M10,200.0761137598781C136.66666666666666,200.0761137598781,136.66666666666666,329.88750477062524,263.3333333333333,329.88750477062524"/></g><g style="mix-blend-mode: multiply;" class="link"><path stroke-width="1" stroke="#f28e2c" d="M273.3333333333333,329.88750477062524C400,329.88750477062524,400,518.5088582677168,526.6666666666666,518.5088582677168"/></g><g style="mix-blend-mode: multiply;" class="link"><path stroke-width="1" stroke="#e15759" d="M10,199.79068068901196C136.66666666666666,199.79068068901196,136.66666666666666,249.3064446767566,263.3333333333333,249.3064446767566"/></g><g style="mix-blend-mode: multiply;" class="link"><path stroke-width="1" stroke="#4e79a7" d="M273.3333333333333,248.73557853502433C400,248.73557853502433,400,449.9458661417326,526.6666666666666,449.9458661417326"/></g><g style="mix-blend-mode: multiply;" class="link"><path stroke-width="1" stroke="#9c755f" d="M536.6666666666666,428.5187007874018C663.3333333333333,428.5187007874018,663.3333333333333,515.0915896567175,790,515.0915896567175"/></g><g style="mix-blend-mode: multiply;" class="link"><path stroke-width="4.281496062992126" stroke="#bab0ab" d="M536.6666666666666,426.2352362204727C663.3333333333333,426.2352362204727,663.3333333333333,489.96363690081193,790,489.96363690081193"/></g><g style="mix-blend-mode: multiply;" class="link"><path stroke-width="1" stroke="#9c755f" d="M536.6666666666666,528.794291338583C663.3333333333333,528.794291338583,663.3333333333333,518.5167865071112,790,518.5167865071112"/></g><g style="mix-blend-mode: multiply;" class="link"><path stroke-width="1.141732283464567" stroke="#bab0ab" d="M536.6666666666666,677.7657480314962C663.3333333333333,677.7657480314962,663.3333333333333,503.80714083781976,790,503.80714083781976"/></g><g style="mix-blend-mode: multiply;" class="link"><path stroke-width="1.141732283464567" stroke="#9c755f" d="M536.6666666666666,539.5078740157483C663.3333333333333,539.5078740157483,663.3333333333333,519.2303691842765,790,519.2303691842765"/></g><g style="mix-blend-mode: multiply;" class="link"><path stroke-width="1" stroke="#9c755f" d="M536.6666666666666,497.65255905511833C663.3333333333333,497.65255905511833,663.3333333333333,517.9459203653789,790,517.9459203653789"/></g><g style="mix-blend-mode: multiply;" class="link"><path stroke-width="1" stroke="#9c755f" d="M536.6666666666666,571.3533464566931C663.3333333333333,571.3533464566931,663.3333333333333,524.225447924434,790,524.225447924434"/></g><g style="mix-blend-mode: multiply;" class="link"><path stroke-width="4.852362204724409" stroke="#bab0ab" d="M536.6666666666666,568.4990157480316C663.3333333333333,568.4990157480316,663.3333333333333,500.23922745199303,790,500.23922745199303"/></g><g style="mix-blend-mode: multiply;" class="link"><path stroke-width="1" stroke="#9c755f" d="M536.6666666666666,299.53740157480325C663.3333333333333,299.53740157480325,663.3333333333333,514.6634400504182,790,514.6634400504182"/></g><g style="mix-blend-mode: multiply;" class="link"><path stroke-width="1" stroke="#bab0ab" d="M536.6666666666666,646.4812992125986C663.3333333333333,646.4812992125986,663.3333333333333,503.0935581606544,790,503.0935581606544"/></g><g style="mix-blend-mode: multiply;" class="link"><path stroke-width="1" stroke="#9c755f" d="M536.6666666666666,667.0521653543309C663.3333333333333,667.0521653543309,663.3333333333333,529.6486762708906,790,529.6486762708906"/></g><g style="mix-blend-mode: multiply;" class="link"><path stroke-width="1" stroke="#9c755f" d="M536.6666666666666,625.9104330708664C663.3333333333333,625.9104330708664,663.3333333333333,528.7923770582922,790,528.7923770582922"/></g><g style="mix-blend-mode: multiply;" class="link"><path stroke-width="3.9960629921259843" stroke="#9c755f" d="M536.6666666666666,554.0748031496064C663.3333333333333,554.0748031496064,663.3333333333333,521.7992668220717,790,521.7992668220717"/></g><g style="mix-blend-mode: multiply;" class="link"><path stroke-width="1.9980314960629921" stroke="#bab0ab" d="M536.6666666666666,551.077755905512C663.3333333333333,551.077755905512,663.3333333333333,496.8140306015993,790,496.8140306015993"/></g><g style="mix-blend-mode: multiply;" class="link"><path stroke-width="1" stroke="#9c755f" d="M536.6666666666666,636.1958661417325C663.3333333333333,636.1958661417325,663.3333333333333,529.0778101291584,790,529.0778101291584"/></g><g style="mix-blend-mode: multiply;" class="link"><path stroke-width="3.9960629921259843" stroke="#9c755f" d="M536.6666666666666,592.9133858267717C663.3333333333333,592.9133858267717,663.3333333333333,526.6516290267961,790,526.6516290267961"/></g><g style="mix-blend-mode: multiply;" class="link"><path stroke-width="1" stroke="#bab0ab" d="M536.6666666666666,590.7726377952757C663.3333333333333,590.7726377952757,663.3333333333333,502.8081250897883,790,502.8081250897883"/></g><g style="mix-blend-mode: multiply;" class="link"><path stroke-width="1" stroke="#9c755f" d="M536.6666666666666,508.2234251968506C663.3333333333333,508.2234251968506,663.3333333333333,518.2313534362451,790,518.2313534362451"/></g><g style="mix-blend-mode: multiply;" class="link"><path stroke-width="2.5688976377952755" stroke="#9c755f" d="M536.6666666666666,475.65452755905545C663.3333333333333,475.65452755905545,663.3333333333333,516.5187550110481,790,516.5187550110481"/></g><g style="mix-blend-mode: multiply;" class="link"><path stroke-width="3.7106299212598426" stroke="#bab0ab" d="M536.6666666666666,472.51476377952787C663.3333333333333,472.51476377952787,663.3333333333333,493.9596998929379,790,493.9596998929379"/></g><g style="mix-blend-mode: multiply;" class="link"><path stroke-width="1" stroke="#9c755f" d="M536.6666666666666,656.7667322834648C663.3333333333333,656.7667322834648,663.3333333333333,529.3632432000245,790,529.3632432000245"/></g><g style="mix-blend-mode: multiply;" class="link"><path stroke-width="1" stroke="#4e79a7" d="M10,445.8902606312517C136.66666666666666,445.8902606312517,136.66666666666666,474.64506319137513,263.3333333333333,474.64506319137513"/></g><g style="mix-blend-mode: multiply;" class="link"><path stroke-width="1" stroke="#9c755f" d="M273.3333333333333,474.93049626224126C400,474.93049626224126,400,656.7667322834648,526.6666666666666,656.7667322834648"/></g><g style="mix-blend-mode: multiply;" class="link"><path stroke-width="6.279527559055118" stroke="#f28e2c" d="M10,424.0546307099919C136.66666666666666,424.0546307099919,136.66666666666666,312.0380953218063,263.3333333333333,312.0380953218063"/></g><g style="mix-blend-mode: multiply;" class="link"><path stroke-width="6.279527559055118" stroke="#af7aa1" d="M273.3333333333333,316.60502445566453C400,316.60502445566453,400,473.7992125984255,526.6666666666666,473.7992125984255"/></g><g style="mix-blend-mode: multiply;" class="link"><path stroke-width="1" stroke="#e15759" d="M10,431.90404015881074C136.66666666666666,431.90404015881074,136.66666666666666,369.3067961092081,263.3333333333333,369.3067961092081"/></g><g style="mix-blend-mode: multiply;" class="link"><path stroke-width="1" stroke="#bab0ab" d="M273.3333333333333,369.59222918007424C400,369.59222918007424,400,508.2234251968506,526.6666666666666,508.2234251968506"/></g><g style="mix-blend-mode: multiply;" class="link"><path stroke-width="4.281496062992126" stroke="#76b7b2" d="M10,448.45915826904695C136.66666666666666,448.45915826904695,136.66666666666666,498.2660306238723,263.3333333333333,498.2660306238723"/></g><g style="mix-blend-mode: multiply;" class="link"><path stroke-width="4.281496062992126" stroke="#9c755f" d="M273.3333333333333,498.2660306238723C400,498.2660306238723,400,592.7706692913387,526.6666666666666,592.7706692913387"/></g><g style="mix-blend-mode: multiply;" class="link"><path stroke-width="1" stroke="#59a14f" d="M10,445.60482756038556C136.66666666666666,445.60482756038556,136.66666666666666,464.35963012050894,263.3333333333333,464.35963012050894"/></g><g style="mix-blend-mode: multiply;" class="link"><path stroke-width="1" stroke="#ff9da7" d="M273.3333333333333,464.35963012050894C400,464.35963012050894,400,636.1958661417325,526.6666666666666,636.1958661417325"/></g><g style="mix-blend-mode: multiply;" class="link"><path stroke-width="5.994094488188976" stroke="#e15759" d="M10,435.04380393833827C136.66666666666666,435.04380393833827,136.66666666666666,372.44655988873564,263.3333333333333,372.44655988873564"/></g><g style="mix-blend-mode: multiply;" class="link"><path stroke-width="5.994094488188976" stroke="#af7aa1" d="M273.3333333333333,374.1591583139325C400,374.1591583139325,400,553.075787401575,526.6666666666666,553.075787401575"/></g><g style="mix-blend-mode: multiply;" class="link"><path stroke-width="1" stroke="#edc949" d="M10,420.6294338595982C136.66666666666666,420.6294338595982,136.66666666666666,298.61289847141256,263.3333333333333,298.61289847141256"/></g><g style="mix-blend-mode: multiply;" class="link"><path stroke-width="1" stroke="#af7aa1" d="M273.3333333333333,298.61289847141256C400,298.61289847141256,400,299.53740157480325,526.6666666666666,299.53740157480325"/></g><g style="mix-blend-mode: multiply;" class="link"><path stroke-width="5.708661417322834" stroke="#e15759" d="M10,440.8951818910942C136.66666666666666,440.8951818910942,136.66666666666666,378.29793784149155,263.3333333333333,378.29793784149155"/></g><g style="mix-blend-mode: multiply;" class="link"><path stroke-width="5.708661417322834" stroke="#76b7b2" d="M273.3333333333333,380.0105362666884C400,380.0105362666884,400,568.9271653543309,526.6666666666666,568.9271653543309"/></g><g style="mix-blend-mode: multiply;" class="link"><path stroke-width="1" stroke="#e15759" d="M10,443.8922291351887C136.66666666666666,443.8922291351887,136.66666666666666,381.29498508558606,263.3333333333333,381.29498508558606"/></g><g style="mix-blend-mode: multiply;" class="link"><path stroke-width="1" stroke="#bab0ab" d="M273.3333333333333,369.3067961092081C400,369.3067961092081,400,497.65255905511833,526.6666666666666,497.65255905511833"/></g><g style="mix-blend-mode: multiply;" class="link"><path stroke-width="1.141732283464567" stroke="#e15759" d="M10,444.60581181235403C136.66666666666666,444.60581181235403,136.66666666666666,382.0085677627514,263.3333333333333,382.0085677627514"/></g><g style="mix-blend-mode: multiply;" class="link"><path stroke-width="1.141732283464567" stroke="#e15759" d="M273.3333333333333,370.5912449281057C400,370.5912449281057,400,539.5078740157483,526.6666666666666,539.5078740157483"/></g><g style="mix-blend-mode: multiply;" class="link"><path stroke-width="1" stroke="#af7aa1" d="M10,451.0280559068422C136.66666666666666,451.0280559068422,136.66666666666666,522.2887311122248,263.3333333333333,522.2887311122248"/></g><g style="mix-blend-mode: multiply;" class="link"><path stroke-width="1" stroke="#edc949" d="M273.3333333333333,522.2887311122248C400,522.2887311122248,400,667.0521653543309,526.6666666666666,667.0521653543309"/></g><g style="mix-blend-mode: multiply;" class="link"><path stroke-width="1" stroke="#ff9da7" d="M10,450.7426228359761C136.66666666666666,450.7426228359761,136.66666666666666,511.4992094797986,263.3333333333333,511.4992094797986"/></g><g style="mix-blend-mode: multiply;" class="link"><path stroke-width="1" stroke="#59a14f" d="M273.3333333333333,511.4992094797986C400,511.4992094797986,400,625.9104330708664,526.6666666666666,625.9104330708664"/></g><g style="mix-blend-mode: multiply;" class="link"><path stroke-width="1" stroke="#4e79a7" d="M10,446.1756937021178C136.66666666666666,446.1756937021178,136.66666666666666,474.93049626224126,263.3333333333333,474.93049626224126"/></g><g style="mix-blend-mode: multiply;" class="link"><path stroke-width="1" stroke="#59a14f" d="M273.3333333333333,474.64506319137513C400,474.64506319137513,400,646.4812992125986,526.6666666666666,646.4812992125986"/></g><g style="mix-blend-mode: multiply;" class="link"><path stroke-width="4.566929133858268" stroke="#f28e2c" d="M10,429.47785905644855C136.66666666666666,429.47785905644855,136.66666666666666,317.46132366826293,263.3333333333333,317.46132366826293"/></g><g style="mix-blend-mode: multiply;" class="link"><path stroke-width="4.566929133858268" stroke="#bab0ab" d="M273.3333333333333,311.1817961092078C400,311.1817961092078,400,426.37795275590577,526.6666666666666,426.37795275590577"/></g><g style="mix-blend-mode: multiply;" class="link"><path stroke-width="1" stroke="#e15759" d="M10,445.3193944895194C136.66666666666666,445.3193944895194,136.66666666666666,382.7221504399168,263.3333333333333,382.7221504399168"/></g><g style="mix-blend-mode: multiply;" class="link"><path stroke-width="1" stroke="#4e79a7" d="M273.3333333333333,369.8776622509404C400,369.8776622509404,400,528.794291338583,526.6666666666666,528.794291338583"/></g><g style="mix-blend-mode: multiply;" class="link"><path stroke-width="1.141732283464567" stroke="#af7aa1" d="M10,451.74163858400755C136.66666666666666,451.74163858400755,136.66666666666666,523.0023137893901,263.3333333333333,523.0023137893901"/></g><g style="mix-blend-mode: multiply;" class="link"><path stroke-width="1.141732283464567" stroke="#f28e2c" d="M273.3333333333333,523.0023137893901C400,523.0023137893901,400,677.7657480314962,526.6666666666666,677.7657480314962"/></g><g style="mix-blend-mode: multiply;" class="link"><path stroke-width="1.4271653543307086" stroke="#bab0ab" d="M536.6666666666666,814.4537401574804C663.3333333333333,814.4537401574804,663.3333333333333,773.1014936250315,790,773.1014936250315"/></g><g style="mix-blend-mode: multiply;" class="link"><path stroke-width="1.7125984251968505" stroke="#4e79a7" d="M536.6666666666666,812.8838582677166C663.3333333333333,812.8838582677166,663.3333333333333,750.1142889006219,790,750.1142889006219"/></g><g style="mix-blend-mode: multiply;" class="link"><path stroke-width="13.700787401574804" stroke="#f28e2c" d="M536.6666666666666,822.0177165354331C663.3333333333333,822.0177165354331,663.3333333333333,835.1394730450047,790,835.1394730450047"/></g><g style="mix-blend-mode: multiply;" class="link"><path stroke-width="7.1358267716535435" stroke="#4e79a7" d="M536.6666666666666,693.9025590551183C663.3333333333333,693.9025590551183,663.3333333333333,738.5542495305432,790,738.5542495305432"/></g><g style="mix-blend-mode: multiply;" class="link"><path stroke-width="1" stroke="#4e79a7" d="M536.6666666666666,801.8848425196851C663.3333333333333,801.8848425196851,663.3333333333333,749.1152731525905,790,749.1152731525905"/></g><g style="mix-blend-mode: multiply;" class="link"><path stroke-width="1" stroke="#4e79a7" d="M536.6666666666666,764.4635826771656C663.3333333333333,764.4635826771656,663.3333333333333,744.5483440187322,790,744.5483440187322"/></g><g style="mix-blend-mode: multiply;" class="link"><path stroke-width="1" stroke="#bab0ab" d="M536.6666666666666,733.6072834645673C663.3333333333333,733.6072834645673,663.3333333333333,768.8199975620395,790,768.8199975620395"/></g><g style="mix-blend-mode: multiply;" class="link"><path stroke-width="1" stroke="#4e79a7" d="M536.6666666666666,733.1791338582681C663.3333333333333,733.1791338582681,663.3333333333333,744.120194412433,790,744.120194412433"/></g><g style="mix-blend-mode: multiply;" class="link"><path stroke-width="1" stroke="#bab0ab" d="M536.6666666666666,722.6082677165358C663.3333333333333,722.6082677165358,663.3333333333333,768.3918479557402,790,768.3918479557402"/></g><g style="mix-blend-mode: multiply;" class="link"><path stroke-width="1.141732283464567" stroke="#4e79a7" d="M536.6666666666666,721.7519685039374C663.3333333333333,721.7519685039374,663.3333333333333,743.2638951998346,790,743.2638951998346"/></g><g style="mix-blend-mode: multiply;" class="link"><path stroke-width="1" stroke="#bab0ab" d="M536.6666666666666,743.8927165354336C663.3333333333333,743.8927165354336,663.3333333333333,769.1054306329056,790,769.1054306329056"/></g><g style="mix-blend-mode: multiply;" class="link"><path stroke-width="1.9980314960629921" stroke="#4e79a7" d="M536.6666666666666,679.33562992126C663.3333333333333,679.33562992126,663.3333333333333,733.987320396685,790,733.987320396685"/></g><g style="mix-blend-mode: multiply;" class="link"><path stroke-width="1" stroke="#bab0ab" d="M536.6666666666666,754.1781496062996C663.3333333333333,754.1781496062996,663.3333333333333,769.3908637037717,790,769.3908637037717"/></g><g style="mix-blend-mode: multiply;" class="link"><path stroke-width="3.139763779527559" stroke="#bab0ab" d="M536.6666666666666,709.6112204724413C663.3333333333333,709.6112204724413,663.3333333333333,766.5365329951103,790,766.5365329951103"/></g><g style="mix-blend-mode: multiply;" class="link"><path stroke-width="1" stroke="#4e79a7" d="M536.6666666666666,707.7559055118114C663.3333333333333,707.7559055118114,663.3333333333333,742.4075959872362,790,742.4075959872362"/></g><g style="mix-blend-mode: multiply;" class="link"><path stroke-width="1.4271653543307086" stroke="#bab0ab" d="M536.6666666666666,779.601377952756C663.3333333333333,779.601377952756,663.3333333333333,770.2471629163701,790,770.2471629163701"/></g><g style="mix-blend-mode: multiply;" class="link"><path stroke-width="4.281496062992126" stroke="#4e79a7" d="M536.6666666666666,776.7470472440946C663.3333333333333,776.7470472440946,663.3333333333333,746.8318085856613,790,746.8318085856613"/></g><g style="mix-blend-mode: multiply;" class="link"><path stroke-width="1" stroke="#bab0ab" d="M536.6666666666666,843.2923228346457C663.3333333333333,843.2923228346457,663.3333333333333,774.243225908496,790,774.243225908496"/></g><g style="mix-blend-mode: multiply;" class="link"><path stroke-width="3.9960629921259843" stroke="#4e79a7" d="M536.6666666666666,840.8661417322834C663.3333333333333,840.8661417322834,663.3333333333333,752.9686196092832,790,752.9686196092832"/></g><g style="mix-blend-mode: multiply;" class="link"><path stroke-width="6.279527559055118" stroke="#f28e2c" d="M536.6666666666666,846.8602362204724C663.3333333333333,846.8602362204724,663.3333333333333,845.1296305253196,790,845.1296305253196"/></g><g style="mix-blend-mode: multiply;" class="link"><path stroke-width="1.4271653543307086" stroke="#bab0ab" d="M536.6666666666666,791.0285433070868C663.3333333333333,791.0285433070868,663.3333333333333,771.6743282707008,790,771.6743282707008"/></g><g style="mix-blend-mode: multiply;" class="link"><path stroke-width="5.708661417322834" stroke="#59a14f" d="M10,768.9729615381293C136.66666666666666,768.9729615381293,136.66666666666666,778.7208584917688,263.3333333333333,778.7208584917688"/></g><g style="mix-blend-mode: multiply;" class="link"><path stroke-width="5.708661417322834" stroke="#4e79a7" d="M273.3333333333333,779.0062915626349C400,779.0062915626349,400,777.46062992126,526.6666666666666,777.46062992126"/></g><g style="mix-blend-mode: multiply;" class="link"><path stroke-width="11.131889763779528" stroke="#edc949" d="M10,796.2318198058457C136.66666666666666,796.2318198058457,136.66666666666666,844.4340551181102,263.3333333333333,844.4340551181102"/></g><g style="mix-blend-mode: multiply;" class="link"><path stroke-width="11.131889763779528" stroke="#f28e2c" d="M273.3333333333333,844.4340551181102C400,844.4340551181102,400,844.4340551181102,526.6666666666666,844.4340551181102"/></g><g style="mix-blend-mode: multiply;" class="link"><path stroke-width="1.4271653543307086" stroke="#af7aa1" d="M10,772.8263079948222C136.66666666666666,772.8263079948222,136.66666666666666,801.0285433070868,263.3333333333333,801.0285433070868"/></g><g style="mix-blend-mode: multiply;" class="link"><path stroke-width="1.4271653543307086" stroke="#e15759" d="M273.3333333333333,801.0285433070868C400,801.0285433070868,400,791.0285433070868,526.6666666666666,791.0285433070868"/></g><g style="mix-blend-mode: multiply;" class="link"><path stroke-width="3.7106299212598426" stroke="#ff9da7" d="M10,761.1235520893105C136.66666666666666,761.1235520893105,136.66666666666666,720.6202353304125,263.3333333333333,720.6202353304125"/></g><g style="mix-blend-mode: multiply;" class="link"><path stroke-width="3.7106299212598426" stroke="#bab0ab" d="M273.3333333333333,720.6202353304125C400,720.6202353304125,400,709.3257874015752,526.6666666666666,709.3257874015752"/></g><g style="mix-blend-mode: multiply;" class="link"><path stroke-width="1" stroke="#9c755f" d="M10,764.8341820105703C136.66666666666666,764.8341820105703,136.66666666666666,744.6556001833229,263.3333333333333,744.6556001833229"/></g><g style="mix-blend-mode: multiply;" class="link"><path stroke-width="1" stroke="#9c755f" d="M273.3333333333333,745.7973324667875C400,745.7973324667875,400,754.1781496062996,526.6666666666666,754.1781496062996"/></g><g style="mix-blend-mode: multiply;" class="link"><path stroke-width="1" stroke="#9c755f" d="M10,765.4050481523026C136.66666666666666,765.4050481523026,136.66666666666666,745.2264663250552,263.3333333333333,745.2264663250552"/></g><g style="mix-blend-mode: multiply;" class="link"><path stroke-width="1" stroke="#edc949" d="M273.3333333333333,744.941033254189C400,744.941033254189,400,733.3218503937012,526.6666666666666,733.3218503937012"/></g><g style="mix-blend-mode: multiply;" class="link"><path stroke-width="1.9980314960629921" stroke="#bab0ab" d="M10,751.1333946089956C136.66666666666666,751.1333946089956,136.66666666666666,690.8957777563636,263.3333333333333,690.8957777563636"/></g><g style="mix-blend-mode: multiply;" class="link"><path stroke-width="1.9980314960629921" stroke="#f28e2c" d="M273.3333333333333,690.8957777563636C400,690.8957777563636,400,679.33562992126,526.6666666666666,679.33562992126"/></g><g style="mix-blend-mode: multiply;" class="link"><path stroke-width="1" stroke="#9c755f" d="M10,765.9759142940349C136.66666666666666,765.9759142940349,136.66666666666666,745.7973324667875,263.3333333333333,745.7973324667875"/></g><g style="mix-blend-mode: multiply;" class="link"><path stroke-width="1" stroke="#ff9da7" d="M273.3333333333333,745.5118993959213C400,745.5118993959213,400,743.8927165354336,526.6666666666666,743.8927165354336"/></g><g style="mix-blend-mode: multiply;" class="link"><path stroke-width="1.7125984251968505" stroke="#ff9da7" d="M10,763.8351662625388C136.66666666666666,763.8351662625388,136.66666666666666,723.3318495036408,263.3333333333333,723.3318495036408"/></g><g style="mix-blend-mode: multiply;" class="link"><path stroke-width="1.7125984251968505" stroke="#af7aa1" d="M273.3333333333333,723.3318495036408C400,723.3318495036408,400,722.0374015748035,526.6666666666666,722.0374015748035"/></g><g style="mix-blend-mode: multiply;" class="link"><path stroke-width="16.840551181102363" stroke="#4e79a7" d="M10,781.9601662625387C136.66666666666666,781.9601662625387,136.66666666666666,820.1624015748032,263.3333333333333,820.1624015748032"/></g><g style="mix-blend-mode: multiply;" class="link"><path stroke-width="16.840551181102363" stroke="#9c755f" d="M273.3333333333333,820.4478346456693C400,820.4478346456693,400,820.4478346456694,526.6666666666666,820.4478346456694"/></g><g style="mix-blend-mode: multiply;" class="link"><path stroke-width="1" stroke="#4e79a7" d="M10,790.5231583885229C136.66666666666666,790.5231583885229,136.66666666666666,828.7253937007874,263.3333333333333,828.7253937007874"/></g><g style="mix-blend-mode: multiply;" class="link"><path stroke-width="1" stroke="#76b7b2" d="M273.3333333333333,811.8848425196851C400,811.8848425196851,400,801.8848425196851,526.6666666666666,801.8848425196851"/></g><g style="mix-blend-mode: multiply;" class="link"><path stroke-width="7.1358267716535435" stroke="#bab0ab" d="M10,755.7003237428537C136.66666666666666,755.7003237428537,136.66666666666666,695.4627068902217,263.3333333333333,695.4627068902217"/></g><g style="mix-blend-mode: multiply;" class="link"><path stroke-width="7.1358267716535435" stroke="#e15759" d="M273.3333333333333,695.4627068902217C400,695.4627068902217,400,693.9025590551183,526.6666666666666,693.9025590551183"/></g><g style="mix-blend-mode: multiply;" class="link"><path stroke-width="1" stroke="#59a14f" d="M10,771.9700087822238C136.66666666666666,771.9700087822238,136.66666666666666,781.7179057358633,263.3333333333333,781.7179057358633"/></g><g style="mix-blend-mode: multiply;" class="link"><path stroke-width="1" stroke="#59a14f" d="M273.3333333333333,776.0092443185405C400,776.0092443185405,400,764.4635826771656,526.6666666666666,764.4635826771656"/></g></g></svg>