<svg aria-roledescription="sankey" role="graphics-document document" viewBox="0 0 800 852.3341064453125" height="852.3341064453125" xmlns:xlink="http://www.w3.org/1999/xlink" xmlns="http://www.w3.org/2000/svg" width="800" id="my-svg" style="background-color: white;"><style>#my-svg{font-family:"trebuchet ms",verdana,arial,sans-serif;font-size:16px;fill:#333;}#my-svg .error-icon{fill:#552222;}#my-svg .error-text{fill:#552222;stroke:#552222;}#my-svg .edge-thickness-normal{stroke-width:2px;}#my-svg .edge-thickness-thick{stroke-width:3.5px;}#my-svg .edge-pattern-solid{stroke-dasharray:0;}#my-svg .edge-pattern-dashed{stroke-dasharray:3;}#my-svg .edge-pattern-dotted{stroke-dasharray:2;}#my-svg .marker{fill:#333333;stroke:#333333;}#my-svg .marker.cross{stroke:#333333;}#my-svg svg{font-family:"trebuchet ms",verdana,arial,sans-serif;font-size:16px;}#my-svg :root{--mermaid-font-family:"trebuchet ms",verdana,arial,sans-serif;}</style><g/><g class="nodes"><g y="553.2283464566927" x="526.6666666666666" transform="translate(526.6666666666666,553.2283464566927)" id="node-1" class="node"><rect fill="#4e79a7" width="10" height="13.129921259842604"/></g><g y="279.99010624054847" x="790" transform="translate(790,279.99010624054847)" id="node-2" class="node"><rect fill="#f28e2c" width="10" height="36.25"/></g><g y="210.33459442952483" x="790" transform="translate(790,210.33459442952483)" id="node-3" class="node"><rect fill="#e15759" width="10" height="59.65551181102364"/></g><g y="261.8503937007873" x="526.6666666666666" transform="translate(526.6666666666666,261.8503937007873)" id="node-4" class="node"><rect fill="#76b7b2" width="10" height="0.2854330708661337"/></g><g y="360.4133858267715" x="526.6666666666666" transform="translate(526.6666666666666,360.4133858267715)" id="node-5" class="node"><rect fill="#59a14f" width="10" height="0.5708661417322674"/></g><g y="189.58661417322836" x="526.6666666666666" transform="translate(526.6666666666666,189.58661417322836)" id="node-6" class="node"><rect fill="#edc949" width="10" height="0.2854330708661337"/></g><g y="381.2696850393699" x="526.6666666666666" transform="translate(526.6666666666666,381.2696850393699)" id="node-7" class="node"><rect fill="#af7aa1" width="10" height="0.2854330708661337"/></g><g y="175.0196850393701" x="526.6666666666666" transform="translate(526.6666666666666,175.0196850393701)" id="node-8" class="node"><rect fill="#ff9da7" width="10" height="4.5669291338582525"/></g><g y="162.16535433070868" x="526.6666666666666" transform="translate(526.6666666666666,162.16535433070868)" id="node-9" class="node"><rect fill="#9c755f" width="10" height="2.854330708661422"/></g><g y="423.82874015748007" x="526.6666666666666" transform="translate(526.6666666666666,423.82874015748007)" id="node-10" class="node"><rect fill="#bab0ab" width="10" height="11.131889763779554"/></g><g y="26.596197902582993" x="790" transform="translate(790,26.596197902582993)" id="node-11" class="node"><rect fill="#4e79a7" width="10" height="110.46259842519686"/></g><g y="220.44291338582676" x="526.6666666666666" transform="translate(526.6666666666666,220.44291338582676)" id="node-12" class="node"><rect fill="#f28e2c" width="10" height="0.2854330708661337"/></g><g y="93.06102362204726" x="526.6666666666666" transform="translate(526.6666666666666,93.06102362204726)" id="node-13" class="node"><rect fill="#e15759" width="10" height="19.124015748031496"/></g><g y="469.81299212598407" x="526.6666666666666" transform="translate(526.6666666666666,469.81299212598407)" id="node-14" class="node"><rect fill="#76b7b2" width="10" height="0.5708661417322674"/></g><g y="444.9606299212596" x="526.6666666666666" transform="translate(526.6666666666666,444.9606299212596)" id="node-15" class="node"><rect fill="#59a14f" width="10" height="0.2854330708661337"/></g><g y="401.84055118110217" x="526.6666666666666" transform="translate(526.6666666666666,401.84055118110217)" id="node-16" class="node"><rect fill="#edc949" width="10" height="11.988188976377899"/></g><g y="630.344488188976" x="526.6666666666666" transform="translate(526.6666666666666,630.344488188976)" id="node-17" class="node"><rect fill="#af7aa1" width="10" height="0.5708661417322674"/></g><g y="122.18503937007875" x="526.6666666666666" transform="translate(526.6666666666666,122.18503937007875)" id="node-18" class="node"><rect fill="#ff9da7" width="10" height="8.277559055118104"/></g><g y="313.277559055118" x="526.6666666666666" transform="translate(526.6666666666666,313.277559055118)" id="node-19" class="node"><rect fill="#9c755f" width="10" height="0.5708661417322674"/></g><g y="0" x="526.6666666666666" transform="translate(526.6666666666666,0)" id="node-20" class="node"><rect fill="#bab0ab" width="10" height="83.06102362204726"/></g><g y="480.38385826771633" x="526.6666666666666" transform="translate(526.6666666666666,480.38385826771633)" id="node-21" class="node"><rect fill="#4e79a7" width="10" height="0.5708661417322674"/></g><g y="323.84842519685026" x="526.6666666666666" transform="translate(526.6666666666666,323.84842519685026)" id="node-22" class="node"><rect fill="#f28e2c" width="10" height="1.1417322834645915"/></g><g y="391.55511811023604" x="526.6666666666666" transform="translate(526.6666666666666,391.55511811023604)" id="node-23" class="node"><rect fill="#e15759" width="10" height="0.2854330708661337"/></g><g y="586.6437007874015" x="526.6666666666666" transform="translate(526.6666666666666,586.6437007874015)" id="node-24" class="node"><rect fill="#76b7b2" width="10" height="6.5649606299210745"/></g><g y="140.46259842519686" x="526.6666666666666" transform="translate(526.6666666666666,140.46259842519686)" id="node-25" class="node"><rect fill="#59a14f" width="10" height="11.702755905511822"/></g><g y="210.15748031496062" x="526.6666666666666" transform="translate(526.6666666666666,210.15748031496062)" id="node-26" class="node"><rect fill="#edc949" width="10" height="0.2854330708661337"/></g><g y="230.7283464566929" x="526.6666666666666" transform="translate(526.6666666666666,230.7283464566929)" id="node-27" class="node"><rect fill="#af7aa1" width="10" height="21.122047244094404"/></g><g y="542.9429133858266" x="526.6666666666666" transform="translate(526.6666666666666,542.9429133858266)" id="node-28" class="node"><rect fill="#ff9da7" width="10" height="0.2854330708661337"/></g><g y="292.7066929133857" x="526.6666666666666" transform="translate(526.6666666666666,292.7066929133857)" id="node-29" class="node"><rect fill="#9c755f" width="10" height="0.2854330708661337"/></g><g y="501.24015748031474" x="526.6666666666666" transform="translate(526.6666666666666,501.24015748031474)" id="node-30" class="node"><rect fill="#bab0ab" width="10" height="11.131889763779611"/></g><g y="199.8720472440945" x="526.6666666666666" transform="translate(526.6666666666666,199.8720472440945)" id="node-31" class="node"><rect fill="#4e79a7" width="10" height="0.2854330708661337"/></g><g y="272.13582677165346" x="526.6666666666666" transform="translate(526.6666666666666,272.13582677165346)" id="node-32" class="node"><rect fill="#f28e2c" width="10" height="0.2854330708661337"/></g><g y="490.9547244094486" x="526.6666666666666" transform="translate(526.6666666666666,490.9547244094486)" id="node-33" class="node"><rect fill="#e15759" width="10" height="0.2854330708661337"/></g><g y="302.99212598425186" x="526.6666666666666" transform="translate(526.6666666666666,302.99212598425186)" id="node-34" class="node"><rect fill="#76b7b2" width="10" height="0.2854330708661337"/></g><g y="455.24606299212576" x="526.6666666666666" transform="translate(526.6666666666666,455.24606299212576)" id="node-35" class="node"><rect fill="#59a14f" width="10" height="4.566929133858309"/></g><g y="282.4212598425196" x="526.6666666666666" transform="translate(526.6666666666666,282.4212598425196)" id="node-36" class="node"><rect fill="#edc949" width="10" height="0.2854330708661337"/></g><g y="370.98425196850377" x="526.6666666666666" transform="translate(526.6666666666666,370.98425196850377)" id="node-37" class="node"><rect fill="#af7aa1" width="10" height="0.2854330708661337"/></g><g y="334.99015748031485" x="526.6666666666666" transform="translate(526.6666666666666,334.99015748031485)" id="node-38" class="node"><rect fill="#ff9da7" width="10" height="5.13779527559052"/></g><g y="350.12795275590537" x="526.6666666666666" transform="translate(526.6666666666666,350.12795275590537)" id="node-39" class="node"><rect fill="#9c755f" width="10" height="0.2854330708661337"/></g><g y="27.08588171468083" x="0" transform="translate(0,27.08588171468083)" id="node-40" class="node"><rect fill="#bab0ab" width="10" height="206.36811023622042"/></g><g y="168.12992125984266" x="263.3333333333333" transform="translate(263.3333333333333,168.12992125984266)" id="node-41" class="node"><rect fill="#4e79a7" width="10" height="4.281496062992176"/></g><g y="316.8661878273663" x="263.3333333333333" transform="translate(263.3333333333333,316.8661878273663)" id="node-42" class="node"><rect fill="#f28e2c" width="10" height="22.834645669291376"/></g><g y="0" x="263.3333333333333" transform="translate(263.3333333333333,0)" id="node-43" class="node"><rect fill="#e15759" width="10" height="158.12992125984266"/></g><g y="375.3626114754693" x="263.3333333333333" transform="translate(263.3333333333333,375.3626114754693)" id="node-44" class="node"><rect fill="#76b7b2" width="10" height="8.848425196850485"/></g><g y="273.3627155554796" x="263.3333333333333" transform="translate(263.3333333333333,273.3627155554796)" id="node-45" class="node"><rect fill="#59a14f" width="10" height="11.702755905511822"/></g><g y="404.78190281405205" x="263.3333333333333" transform="translate(263.3333333333333,404.78190281405205)" id="node-46" class="node"><rect fill="#edc949" width="10" height="0.28543307086624736"/></g><g y="425.63820202665056" x="263.3333333333333" transform="translate(263.3333333333333,425.63820202665056)" id="node-47" class="node"><rect fill="#af7aa1" width="10" height="0.2854330708661337"/></g><g y="546.0247735925942" x="790" transform="translate(790,546.0247735925942)" id="node-48" class="node"><rect fill="#ff9da7" width="10" height="15.41338582677156"/></g><g y="522.3720472440943" x="526.6666666666666" transform="translate(526.6666666666666,522.3720472440943)" id="node-49" class="node"><rect fill="#9c755f" width="10" height="0.2854330708661337"/></g><g y="614.3503937007871" x="526.6666666666666" transform="translate(526.6666666666666,614.3503937007871)" id="node-50" class="node"><rect fill="#bab0ab" width="10" height="5.994094488188921"/></g><g y="571.4381594193658" x="790" transform="translate(790,571.4381594193658)" id="node-51" class="node"><rect fill="#4e79a7" width="10" height="16.555118110236208"/></g><g y="666.9094488188972" x="526.6666666666666" transform="translate(526.6666666666666,666.9094488188972)" id="node-52" class="node"><rect fill="#f28e2c" width="10" height="0.2854330708661337"/></g><g y="576.3582677165354" x="526.6666666666666" transform="translate(526.6666666666666,576.3582677165354)" id="node-53" class="node"><rect fill="#e15759" width="10" height="0.2854330708661337"/></g><g y="656.6240157480311" x="526.6666666666666" transform="translate(526.6666666666666,656.6240157480311)" id="node-54" class="node"><rect fill="#76b7b2" width="10" height="0.2854330708661337"/></g><g y="532.6574803149605" x="526.6666666666666" transform="translate(526.6666666666666,532.6574803149605)" id="node-55" class="node"><rect fill="#59a14f" width="10" height="0.2854330708661337"/></g><g y="677.1948818897642" x="526.6666666666666" transform="translate(526.6666666666666,677.1948818897642)" id="node-56" class="node"><rect fill="#edc949" width="10" height="3.139763779527584"/></g><g y="603.2086614173226" x="526.6666666666666" transform="translate(526.6666666666666,603.2086614173226)" id="node-57" class="node"><rect fill="#af7aa1" width="10" height="1.1417322834645347"/></g><g y="640.9153543307083" x="526.6666666666666" transform="translate(526.6666666666666,640.9153543307083)" id="node-58" class="node"><rect fill="#ff9da7" width="10" height="5.708661417322787"/></g><g y="487.724260077692" x="0" transform="translate(0,487.724260077692)" id="node-59" class="node"><rect fill="#9c755f" width="10" height="31.968503937007824"/></g><g y="560.2346630051715" x="263.3333333333333" transform="translate(263.3333333333333,560.2346630051715)" id="node-60" class="node"><rect fill="#bab0ab" width="10" height="4.281496062992119"/></g><g y="586.8387495713926" x="263.3333333333333" transform="translate(263.3333333333333,586.8387495713926)" id="node-61" class="node"><rect fill="#4e79a7" width="10" height="1.427165354330782"/></g><g y="478.21045133211925" x="263.3333333333333" transform="translate(263.3333333333333,478.21045133211925)" id="node-62" class="node"><rect fill="#f28e2c" width="10" height="13.986220472440891"/></g><g y="415.0673358849183" x="263.3333333333333" transform="translate(263.3333333333333,415.0673358849183)" id="node-63" class="node"><rect fill="#e15759" width="10" height="0.5708661417322674"/></g><g y="576.0492279389664" x="263.3333333333333" transform="translate(263.3333333333333,576.0492279389664)" id="node-64" class="node"><rect fill="#76b7b2" width="10" height="0.2854330708661337"/></g><g y="394.2110366723198" x="263.3333333333333" transform="translate(263.3333333333333,394.2110366723198)" id="node-65" class="node"><rect fill="#59a14f" width="10" height="0.5708661417322674"/></g><g y="445.12149439119435" x="263.3333333333333" transform="translate(263.3333333333333,445.12149439119435)" id="node-66" class="node"><rect fill="#edc949" width="10" height="10.84645669291325"/></g><g y="704.0452755905517" x="526.6666666666666" transform="translate(526.6666666666666,704.0452755905517)" id="node-67" class="node"><rect fill="#af7aa1" width="10" height="1.712598425196802"/></g><g y="735.7935370566457" x="790" transform="translate(790,735.7935370566457)" id="node-68" class="node"><rect fill="#ff9da7" width="10" height="9.704724409448772"/></g><g y="755.4982614660945" x="790" transform="translate(790,755.4982614660945)" id="node-69" class="node"><rect fill="#9c755f" width="10" height="21.97834645669286"/></g><g y="690.3346456692918" x="526.6666666666666" transform="translate(526.6666666666666,690.3346456692918)" id="node-70" class="node"><rect fill="#bab0ab" width="10" height="3.7106299212598515"/></g><g y="744.320866141733" x="526.6666666666666" transform="translate(526.6666666666666,744.320866141733)" id="node-71" class="node"><rect fill="#4e79a7" width="10" height="0.28543307086602"/></g><g y="775.7480314960633" x="526.6666666666666" transform="translate(526.6666666666666,775.7480314960633)" id="node-72" class="node"><rect fill="#f28e2c" width="10" height="0.28543307086602"/></g><g y="812.0275590551182" x="526.6666666666666" transform="translate(526.6666666666666,812.0275590551182)" id="node-73" class="node"><rect fill="#e15759" width="10" height="16.840551181102228"/></g><g y="829.4562447739895" x="790" transform="translate(790,829.4562447739895)" id="node-74" class="node"><rect fill="#76b7b2" width="10" height="19.980314960629926"/></g><g y="754.606299212599" x="526.6666666666666" transform="translate(526.6666666666666,754.606299212599)" id="node-75" class="node"><rect fill="#59a14f" width="10" height="0.28543307086602"/></g><g y="715.7578740157485" x="526.6666666666666" transform="translate(526.6666666666666,715.7578740157485)" id="node-76" class="node"><rect fill="#edc949" width="10" height="1.427165354330782"/></g><g y="801.742125984252" x="526.6666666666666" transform="translate(526.6666666666666,801.742125984252)" id="node-77" class="node"><rect fill="#af7aa1" width="10" height="0.28543307086624736"/></g><g y="727.1850393700793" x="526.6666666666666" transform="translate(526.6666666666666,727.1850393700793)" id="node-78" class="node"><rect fill="#ff9da7" width="10" height="7.135826771653683"/></g><g y="764.891732283465" x="526.6666666666666" transform="translate(526.6666666666666,764.891732283465)" id="node-79" class="node"><rect fill="#9c755f" width="10" height="0.8562992125982873"/></g><g y="786.0334645669293" x="526.6666666666666" transform="translate(526.6666666666666,786.0334645669293)" id="node-80" class="node"><rect fill="#bab0ab" width="10" height="5.7086614173226735"/></g><g y="838.8681102362204" x="526.6666666666666" transform="translate(526.6666666666666,838.8681102362204)" id="node-81" class="node"><rect fill="#4e79a7" width="10" height="11.131889763779554"/></g><g y="757.9846879128431" x="0" transform="translate(0,757.9846879128431)" id="node-82" class="node"><rect fill="#f28e2c" width="10" height="51.66338582677167"/></g><g y="734.6512065404897" x="263.3333333333333" transform="translate(263.3333333333333,734.6512065404897)" id="node-83" class="node"><rect fill="#e15759" width="10" height="9.133858267716732"/></g><g y="811.7421259842517" x="263.3333333333333" transform="translate(263.3333333333333,811.7421259842517)" id="node-84" class="node"><rect fill="#76b7b2" width="10" height="17.125984251968703"/></g><g y="763.33347341409" x="263.3333333333333" transform="translate(263.3333333333333,763.33347341409)" id="node-85" class="node"><rect fill="#59a14f" width="10" height="1.427165354330782"/></g><g y="794.8715527808545" x="263.3333333333333" transform="translate(263.3333333333333,794.8715527808545)" id="node-86" class="node"><rect fill="#edc949" width="10" height="5.994094488189148"/></g><g y="697.8916984170424" x="263.3333333333333" transform="translate(263.3333333333333,697.8916984170424)" id="node-87" class="node"><rect fill="#af7aa1" width="10" height="5.4232283464566535"/></g><g y="838.8681102362204" x="263.3333333333333" transform="translate(263.3333333333333,838.8681102362204)" id="node-88" class="node"><rect fill="#ff9da7" width="10" height="11.131889763779554"/></g><g y="722.8248272624991" x="263.3333333333333" transform="translate(263.3333333333333,722.8248272624991)" id="node-89" class="node"><rect fill="#9c755f" width="10" height="1.427165354330782"/></g></g><g font-size="14" font-family="sans-serif" class="node-labels"><text text-anchor="end" dy="0.35em" y="559.793307086614" x="520.6666666666666">Morin 2011</text><text text-anchor="end" dy="0.35em" y="298.11510624054847" x="784">Tier 1 DLBCL genes</text><text text-anchor="end" dy="0.35em" y="240.16235033503665" x="784">Tier 2 DLBCL genes</text><text text-anchor="end" dy="0.35em" y="261.9931102362204" x="520.6666666666666">Tanaka 1992</text><text text-anchor="end" dy="0.35em" y="360.69881889763764" x="520.6666666666666">Morin 2016</text><text text-anchor="end" dy="0.35em" y="189.72933070866142" x="520.6666666666666">Ngo 2011</text><text text-anchor="end" dy="0.35em" y="381.41240157480297" x="520.6666666666666">Pasqualucci 2006</text><text text-anchor="end" dy="0.35em" y="177.30314960629923" x="520.6666666666666">Novak 2015</text><text text-anchor="end" dy="0.35em" y="163.5925196850394" x="520.6666666666666">Albuquerque 2017</text><text text-anchor="end" dy="0.35em" y="429.39468503936985" x="520.6666666666666">Morin 2013</text><text text-anchor="end" dy="0.35em" y="81.82749711518142" x="784">Tier 3 DLBCL genes</text><text text-anchor="end" dy="0.35em" y="220.58562992125982" x="520.6666666666666">Thomas 2004</text><text text-anchor="end" dy="0.35em" y="102.623031496063" x="520.6666666666666">Reddy 2017</text><text text-anchor="end" dy="0.35em" y="470.0984251968502" x="520.6666666666666">Okosun 2016</text><text text-anchor="end" dy="0.35em" y="445.1033464566927" x="520.6666666666666">Tiacci 2011</text><text text-anchor="end" dy="0.35em" y="407.83464566929115" x="520.6666666666666">Pasqualucci 2011</text><text text-anchor="end" dy="0.35em" y="630.6299212598421" x="520.6666666666666">Morin 2010</text><text text-anchor="end" dy="0.35em" y="126.3238188976378" x="520.6666666666666">Chapuy 2018</text><text text-anchor="end" dy="0.35em" y="313.5629921259841" x="520.6666666666666">Pararajalingam 2020</text><text text-anchor="end" dy="0.35em" y="41.53051181102363" x="520.6666666666666">Zhang 2013</text><text text-anchor="end" dy="0.35em" y="480.66929133858247" x="520.6666666666666">Yildiz 2015</text><text text-anchor="end" dy="0.35em" y="324.4192913385825" x="520.6666666666666">Pasqualucci 2001</text><text text-anchor="end" dy="0.35em" y="391.6978346456691" x="520.6666666666666">Scholl 2007</text><text text-anchor="end" dy="0.35em" y="589.9261811023621" x="520.6666666666666">Dreval 2023</text><text text-anchor="end" dy="0.35em" y="146.31397637795277" x="520.6666666666666">Lohr 2012</text><text text-anchor="end" dy="0.35em" y="210.3001968503937" x="520.6666666666666">Mareschal 2016</text><text text-anchor="end" dy="0.35em" y="241.2893700787401" x="520.6666666666666">Fan 2020</text><text text-anchor="end" dy="0.35em" y="543.0856299212596" x="520.6666666666666">Rushton 2020</text><text text-anchor="end" dy="0.35em" y="292.8494094488188" x="520.6666666666666">Duns 2021</text><text text-anchor="end" dy="0.35em" y="506.80610236220457" x="520.6666666666666">Hubschmann 2021</text><text text-anchor="end" dy="0.35em" y="200.01476377952756" x="520.6666666666666">Bohle 2013</text><text text-anchor="end" dy="0.35em" y="272.2785433070865" x="520.6666666666666">Kwanhian 2012</text><text text-anchor="end" dy="0.35em" y="491.09744094488167" x="520.6666666666666">Khodabakhshi 2012</text><text text-anchor="end" dy="0.35em" y="303.1348425196849" x="520.6666666666666">Lenz 2008</text><text text-anchor="end" dy="0.35em" y="457.52952755905494" x="520.6666666666666">Arthur 2018</text><text text-anchor="end" dy="0.35em" y="282.56397637795266" x="520.6666666666666">Shin 2015</text><text text-anchor="end" dy="0.35em" y="371.12696850393684" x="520.6666666666666">Davis 2010</text><text text-anchor="end" dy="0.35em" y="337.5590551181101" x="520.6666666666666">Schmitz 2018</text><text text-anchor="end" dy="0.35em" y="350.27066929133844" x="520.6666666666666">Compagno 2009</text><text text-anchor="start" dy="0.35em" y="130.26993683279105" x="16">DLBCL genes</text><text text-anchor="start" dy="0.35em" y="170.27066929133875" x="279.3333333333333">DLBCL-Sanger</text><text text-anchor="start" dy="0.35em" y="328.28351066201196" x="279.3333333333333">DLBCL-WGS</text><text text-anchor="start" dy="0.35em" y="79.06496062992133" x="279.3333333333333">DLBCL-exome</text><text text-anchor="start" dy="0.35em" y="379.78682407389454" x="279.3333333333333">DLBCL-WGS/RNA-seq</text><text text-anchor="start" dy="0.35em" y="279.2140935082355" x="279.3333333333333">DLBCL-exome/Sanger</text><text text-anchor="start" dy="0.35em" y="404.92461934948517" x="279.3333333333333">DLBCL-RNA-seq/WGS</text><text text-anchor="start" dy="0.35em" y="425.7809185620836" x="279.3333333333333">DLBCL-exome/panel</text><text text-anchor="end" dy="0.35em" y="553.73146650598" x="784">Tier 1 FL genes</text><text text-anchor="end" dy="0.35em" y="522.5147637795274" x="520.6666666666666">Cheung 2010</text><text text-anchor="end" dy="0.35em" y="617.3474409448816" x="520.6666666666666">Krysiak 2017</text><text text-anchor="end" dy="0.35em" y="579.7157184744839" x="784">Tier 2 FL genes</text><text text-anchor="end" dy="0.35em" y="667.0521653543303" x="520.6666666666666">Bararia 2020</text><text text-anchor="end" dy="0.35em" y="576.5009842519685" x="520.6666666666666">Louissaint 2016</text><text text-anchor="end" dy="0.35em" y="656.7667322834641" x="520.6666666666666">Laurent 2024</text><text text-anchor="end" dy="0.35em" y="532.8001968503936" x="520.6666666666666">Rossi 2006</text><text text-anchor="end" dy="0.35em" y="678.764763779528" x="520.6666666666666">Ma 2022</text><text text-anchor="end" dy="0.35em" y="603.7795275590548" x="520.6666666666666">Green 2015</text><text text-anchor="end" dy="0.35em" y="643.7696850393697" x="520.6666666666666">Russler-germain 2023</text><text text-anchor="start" dy="0.35em" y="503.7085120461959" x="16">FL genes</text><text text-anchor="start" dy="0.35em" y="562.3754110366675" x="279.3333333333333">FL-WGS/RNA-seq</text><text text-anchor="start" dy="0.35em" y="587.552332248558" x="279.3333333333333">FL-panel</text><text text-anchor="start" dy="0.35em" y="485.2035615683397" x="279.3333333333333">FL-exome</text><text text-anchor="start" dy="0.35em" y="415.3527689557844" x="279.3333333333333">FL-Sanger</text><text text-anchor="start" dy="0.35em" y="576.1919444743994" x="279.3333333333333">FL-RNA-seq/WGS</text><text text-anchor="start" dy="0.35em" y="394.4964697431859" x="279.3333333333333">FL-exome/Sanger</text><text text-anchor="start" dy="0.35em" y="450.544722737651" x="279.3333333333333">FL-WGS</text><text text-anchor="end" dy="0.35em" y="704.9015748031501" x="520.6666666666666">Thomas 2023</text><text text-anchor="end" dy="0.35em" y="740.6458992613701" x="784">Tier 1 BL genes</text><text text-anchor="end" dy="0.35em" y="766.4874346944409" x="784">Tier 2 BL genes</text><text text-anchor="end" dy="0.35em" y="692.1899606299218" x="520.6666666666666">Grande 2019</text><text text-anchor="end" dy="0.35em" y="744.463582677166" x="520.6666666666666">Wilda 2004</text><text text-anchor="end" dy="0.35em" y="775.8907480314963" x="520.6666666666666">Abate 2015</text><text text-anchor="end" dy="0.35em" y="820.4478346456693" x="520.6666666666666">Love 2012</text><text text-anchor="end" dy="0.35em" y="839.4464022543045" x="784">Tier 3 BL genes</text><text text-anchor="end" dy="0.35em" y="754.749015748032" x="520.6666666666666">Johnston 1992</text><text text-anchor="end" dy="0.35em" y="716.4714566929139" x="520.6666666666666">Richter 2012</text><text text-anchor="end" dy="0.35em" y="801.8848425196851" x="520.6666666666666">Zhou 2019</text><text text-anchor="end" dy="0.35em" y="730.7529527559061" x="520.6666666666666">Burkhardt 2022</text><text text-anchor="end" dy="0.35em" y="765.3198818897641" x="520.6666666666666">Muppidi 2014</text><text text-anchor="end" dy="0.35em" y="788.8877952755906" x="520.6666666666666">Schmitz 2012</text><text text-anchor="end" dy="0.35em" y="844.4340551181102" x="520.6666666666666">Panea 2019</text><text text-anchor="start" dy="0.35em" y="783.816380826229" x="16">BL genes</text><text text-anchor="start" dy="0.35em" y="739.2181356743481" x="279.3333333333333">BL-panel</text><text text-anchor="start" dy="0.35em" y="820.3051181102361" x="279.3333333333333">BL-exome</text><text text-anchor="start" dy="0.35em" y="764.0470560912554" x="279.3333333333333">BL-Sanger</text><text text-anchor="start" dy="0.35em" y="797.868600024949" x="279.3333333333333">BL-RNA-seq</text><text text-anchor="start" dy="0.35em" y="700.6033125902708" x="279.3333333333333">BL-WGS</text><text text-anchor="start" dy="0.35em" y="844.4340551181102" x="279.3333333333333">BL-RNA-seq/exome</text><text text-anchor="start" dy="0.35em" y="723.5384099396645" x="279.3333333333333">BL-RNA-seq/WGS/exome</text></g><g stroke-opacity="0.5" fill="none" class="links"><g style="mix-blend-mode: multiply;" class="link"><path stroke-width="7.9921259842519685" stroke="#f28e2c" d="M536.6666666666666,558.0807086614171C663.3333333333333,558.0807086614171,663.3333333333333,311.9586101775562,790,311.9586101775562"/></g><g style="mix-blend-mode: multiply;" class="link"><path stroke-width="1" stroke="#e15759" d="M536.6666666666666,553.656496062992C663.3333333333333,553.656496062992,663.3333333333333,269.27652356338314,790,269.27652356338314"/></g><g style="mix-blend-mode: multiply;" class="link"><path stroke-width="1" stroke="#f28e2c" d="M536.6666666666666,261.9931102362204C663.3333333333333,261.9931102362204,663.3333333333333,296.97337395708394,790,296.97337395708394"/></g><g style="mix-blend-mode: multiply;" class="link"><path stroke-width="1" stroke="#f28e2c" d="M536.6666666666666,360.69881889763764C663.3333333333333,360.69881889763764,663.3333333333333,300.25585427204453,790,300.25585427204453"/></g><g style="mix-blend-mode: multiply;" class="link"><path stroke-width="1" stroke="#f28e2c" d="M536.6666666666666,189.72933070866142C663.3333333333333,189.72933070866142,663.3333333333333,295.54620860275327,790,295.54620860275327"/></g><g style="mix-blend-mode: multiply;" class="link"><path stroke-width="1" stroke="#f28e2c" d="M536.6666666666666,381.41240157480297C663.3333333333333,381.41240157480297,663.3333333333333,300.96943694920986,790,300.96943694920986"/></g><g style="mix-blend-mode: multiply;" class="link"><path stroke-width="1" stroke="#f28e2c" d="M536.6666666666666,179.4438976377953C663.3333333333333,179.4438976377953,663.3333333333333,295.26077553188713,790,295.26077553188713"/></g><g style="mix-blend-mode: multiply;" class="link"><path stroke-width="4.281496062992126" stroke="#e15759" d="M536.6666666666666,177.16043307086616C663.3333333333333,177.16043307086616,663.3333333333333,235.59542120117837,790,235.59542120117837"/></g><g style="mix-blend-mode: multiply;" class="link"><path stroke-width="1.141732283464567" stroke="#f28e2c" d="M536.6666666666666,164.44881889763784C663.3333333333333,164.44881889763784,663.3333333333333,294.54719285472174,790,294.54719285472174"/></g><g style="mix-blend-mode: multiply;" class="link"><path stroke-width="1.7125984251968505" stroke="#e15759" d="M536.6666666666666,163.0216535433071C663.3333333333333,163.0216535433071,663.3333333333333,232.59837395708388,790,232.59837395708388"/></g><g style="mix-blend-mode: multiply;" class="link"><path stroke-width="2.5688976377952755" stroke="#f28e2c" d="M536.6666666666666,433.67618110236197C663.3333333333333,433.67618110236197,663.3333333333333,304.1092007287374,790,304.1092007287374"/></g><g style="mix-blend-mode: multiply;" class="link"><path stroke-width="6.564960629921259" stroke="#e15759" d="M536.6666666666666,429.1092519685037C663.3333333333333,429.1092519685037,663.3333333333333,256.4320353744067,790,256.4320353744067"/></g><g style="mix-blend-mode: multiply;" class="link"><path stroke-width="1.9980314960629921" stroke="#4e79a7" d="M536.6666666666666,424.82775590551154C663.3333333333333,424.82775590551154,663.3333333333333,135.20348136714992,790,135.20348136714992"/></g><g style="mix-blend-mode: multiply;" class="link"><path stroke-width="1" stroke="#f28e2c" d="M536.6666666666666,220.58562992125982C663.3333333333333,220.58562992125982,663.3333333333333,296.40250781535167,790,296.40250781535167"/></g><g style="mix-blend-mode: multiply;" class="link"><path stroke-width="3.7106299212598426" stroke="#f28e2c" d="M536.6666666666666,110.32972440944884C663.3333333333333,110.32972440944884,663.3333333333333,284.985184980706,790,284.985184980706"/></g><g style="mix-blend-mode: multiply;" class="link"><path stroke-width="7.9921259842519685" stroke="#e15759" d="M536.6666666666666,104.47834645669293C663.3333333333333,104.47834645669293,663.3333333333333,216.61412198857994,790,216.61412198857994"/></g><g style="mix-blend-mode: multiply;" class="link"><path stroke-width="7.421259842519685" stroke="#4e79a7" d="M536.6666666666666,96.7716535433071C663.3333333333333,96.7716535433071,663.3333333333333,107.94462309943337,790,107.94462309943337"/></g><g style="mix-blend-mode: multiply;" class="link"><path stroke-width="1" stroke="#f28e2c" d="M536.6666666666666,469.95570866141713C663.3333333333333,469.95570866141713,663.3333333333333,306.39266529566646,790,306.39266529566646"/></g><g style="mix-blend-mode: multiply;" class="link"><path stroke-width="1" stroke="#f28e2c" d="M536.6666666666666,445.1033464566927C663.3333333333333,445.1033464566927,663.3333333333333,305.53636608306806,790,305.53636608306806"/></g><g style="mix-blend-mode: multiply;" class="link"><path stroke-width="1" stroke="#f28e2c" d="M536.6666666666666,412.25885826771633C663.3333333333333,412.25885826771633,663.3333333333333,301.82573616180827,790,301.82573616180827"/></g><g style="mix-blend-mode: multiply;" class="link"><path stroke-width="9.990157480314961" stroke="#e15759" d="M536.6666666666666,406.8356299212596C663.3333333333333,406.8356299212596,663.3333333333333,248.15447631928862,790,248.15447631928862"/></g><g style="mix-blend-mode: multiply;" class="link"><path stroke-width="1" stroke="#f28e2c" d="M536.6666666666666,630.4872047244091C663.3333333333333,630.4872047244091,663.3333333333333,316.09738970511523,790,316.09738970511523"/></g><g style="mix-blend-mode: multiply;" class="link"><path stroke-width="3.139763779527559" stroke="#f28e2c" d="M536.6666666666666,128.8927165354331C663.3333333333333,128.8927165354331,663.3333333333333,288.4103818310997,790,288.4103818310997"/></g><g style="mix-blend-mode: multiply;" class="link"><path stroke-width="3.425196850393701" stroke="#e15759" d="M536.6666666666666,125.61023622047244C663.3333333333333,125.61023622047244,663.3333333333333,222.32278340590278,790,222.32278340590278"/></g><g style="mix-blend-mode: multiply;" class="link"><path stroke-width="1.7125984251968505" stroke="#4e79a7" d="M536.6666666666666,123.04133858267718C663.3333333333333,123.04133858267718,663.3333333333333,112.51155223329165,790,112.51155223329165"/></g><g style="mix-blend-mode: multiply;" class="link"><path stroke-width="1" stroke="#e15759" d="M536.6666666666666,313.5629921259841C663.3333333333333,313.5629921259841,663.3333333333333,238.3070353744067,790,238.3070353744067"/></g><g style="mix-blend-mode: multiply;" class="link"><path stroke-width="3.139763779527559" stroke="#f28e2c" d="M536.6666666666666,81.49114173228347C663.3333333333333,81.49114173228347,663.3333333333333,281.55998813031226,790,281.55998813031226"/></g><g style="mix-blend-mode: multiply;" class="link"><path stroke-width="2.283464566929134" stroke="#e15759" d="M536.6666666666666,78.77952755905511C663.3333333333333,78.77952755905511,663.3333333333333,211.4763267129894,790,211.4763267129894"/></g><g style="mix-blend-mode: multiply;" class="link"><path stroke-width="77.63779527559055" stroke="#4e79a7" d="M536.6666666666666,38.818897637795274C663.3333333333333,38.818897637795274,663.3333333333333,65.41509554037827,790,65.41509554037827"/></g><g style="mix-blend-mode: multiply;" class="link"><path stroke-width="1" stroke="#f28e2c" d="M536.6666666666666,480.5265748031494C663.3333333333333,480.5265748031494,663.3333333333333,306.6780983665326,790,306.6780983665326"/></g><g style="mix-blend-mode: multiply;" class="link"><path stroke-width="1" stroke="#f28e2c" d="M536.6666666666666,324.70472440944866C663.3333333333333,324.70472440944866,663.3333333333333,298.25782277598154,790,298.25782277598154"/></g><g style="mix-blend-mode: multiply;" class="link"><path stroke-width="1" stroke="#e15759" d="M536.6666666666666,324.1338582677164C663.3333333333333,324.1338582677164,663.3333333333333,238.877901516139,790,238.877901516139"/></g><g style="mix-blend-mode: multiply;" class="link"><path stroke-width="1" stroke="#f28e2c" d="M536.6666666666666,391.6978346456691C663.3333333333333,391.6978346456691,663.3333333333333,301.254870020076,790,301.254870020076"/></g><g style="mix-blend-mode: multiply;" class="link"><path stroke-width="1" stroke="#e15759" d="M536.6666666666666,586.7864173228346C663.3333333333333,586.7864173228346,663.3333333333333,269.8473897051154,790,269.8473897051154"/></g><g style="mix-blend-mode: multiply;" class="link"><path stroke-width="3.9960629921259843" stroke="#f28e2c" d="M536.6666666666666,150.1673228346457C663.3333333333333,150.1673228346457,663.3333333333333,291.9782952169265,790,291.9782952169265"/></g><g style="mix-blend-mode: multiply;" class="link"><path stroke-width="7.706692913385827" stroke="#e15759" d="M536.6666666666666,144.31594488188978C663.3333333333333,144.31594488188978,663.3333333333333,227.88872828779253,790,227.88872828779253"/></g><g style="mix-blend-mode: multiply;" class="link"><path stroke-width="1" stroke="#f28e2c" d="M536.6666666666666,412.97244094488167C663.3333333333333,412.97244094488167,663.3333333333333,302.5393188389736,790,302.5393188389736"/></g><g style="mix-blend-mode: multiply;" class="link"><path stroke-width="1" stroke="#f28e2c" d="M536.6666666666666,210.3001968503937C663.3333333333333,210.3001968503937,663.3333333333333,296.11707474448554,790,296.11707474448554"/></g><g style="mix-blend-mode: multiply;" class="link"><path stroke-width="1" stroke="#f28e2c" d="M536.6666666666666,251.7076771653543C663.3333333333333,251.7076771653543,663.3333333333333,296.6879408862178,790,296.6879408862178"/></g><g style="mix-blend-mode: multiply;" class="link"><path stroke-width="20.836614173228345" stroke="#4e79a7" d="M536.6666666666666,241.14665354330705C663.3333333333333,241.14665354330705,663.3333333333333,123.78615853250425,790,123.78615853250425"/></g><g style="mix-blend-mode: multiply;" class="link"><path stroke-width="1" stroke="#f28e2c" d="M536.6666666666666,543.0856299212597C663.3333333333333,543.0856299212597,663.3333333333333,307.81983064999713,790,307.81983064999713"/></g><g style="mix-blend-mode: multiply;" class="link"><path stroke-width="1" stroke="#f28e2c" d="M536.6666666666666,292.8494094488188C663.3333333333333,292.8494094488188,663.3333333333333,297.5442400988162,790,297.5442400988162"/></g><g style="mix-blend-mode: multiply;" class="link"><path stroke-width="1" stroke="#f28e2c" d="M536.6666666666666,507.51968503936985C663.3333333333333,507.51968503936985,663.3333333333333,307.39168104369793,790,307.39168104369793"/></g><g style="mix-blend-mode: multiply;" class="link"><path stroke-width="5.137795275590551" stroke="#e15759" d="M536.6666666666666,504.6653543307084C663.3333333333333,504.6653543307084,663.3333333333333,266.2794763192886,790,266.2794763192886"/></g><g style="mix-blend-mode: multiply;" class="link"><path stroke-width="1" stroke="#4e79a7" d="M536.6666666666666,501.66830708661394C663.3333333333333,501.66830708661394,663.3333333333333,136.63064672148062,790,136.63064672148062"/></g><g style="mix-blend-mode: multiply;" class="link"><path stroke-width="1" stroke="#f28e2c" d="M536.6666666666666,200.01476377952756C663.3333333333333,200.01476377952756,663.3333333333333,295.8316416736194,790,295.8316416736194"/></g><g style="mix-blend-mode: multiply;" class="link"><path stroke-width="1" stroke="#f28e2c" d="M536.6666666666666,272.2785433070865C663.3333333333333,272.2785433070865,663.3333333333333,297.25880702795007,790,297.25880702795007"/></g><g style="mix-blend-mode: multiply;" class="link"><path stroke-width="1" stroke="#f28e2c" d="M536.6666666666666,491.09744094488167C663.3333333333333,491.09744094488167,663.3333333333333,306.96353143739873,790,306.96353143739873"/></g><g style="mix-blend-mode: multiply;" class="link"><path stroke-width="1" stroke="#f28e2c" d="M536.6666666666666,303.1348425196849C663.3333333333333,303.1348425196849,663.3333333333333,297.82967316968234,790,297.82967316968234"/></g><g style="mix-blend-mode: multiply;" class="link"><path stroke-width="1" stroke="#f28e2c" d="M536.6666666666666,459.5275590551179C663.3333333333333,459.5275590551179,663.3333333333333,305.96451568936726,790,305.96451568936726"/></g><g style="mix-blend-mode: multiply;" class="link"><path stroke-width="3.9960629921259843" stroke="#e15759" d="M536.6666666666666,457.24409448818875C663.3333333333333,457.24409448818875,663.3333333333333,261.71254718543037,790,261.71254718543037"/></g><g style="mix-blend-mode: multiply;" class="link"><path stroke-width="1" stroke="#e15759" d="M536.6666666666666,282.56397637795266C663.3333333333333,282.56397637795266,663.3333333333333,237.8788857681075,790,237.8788857681075"/></g><g style="mix-blend-mode: multiply;" class="link"><path stroke-width="1" stroke="#f28e2c" d="M536.6666666666666,371.12696850393684C663.3333333333333,371.12696850393684,663.3333333333333,300.68400387834373,790,300.68400387834373"/></g><g style="mix-blend-mode: multiply;" class="link"><path stroke-width="1.141732283464567" stroke="#f28e2c" d="M536.6666666666666,339.5570866141731C663.3333333333333,339.5570866141731,663.3333333333333,299.11412198857994,790,299.11412198857994"/></g><g style="mix-blend-mode: multiply;" class="link"><path stroke-width="3.9960629921259843" stroke="#e15759" d="M536.6666666666666,336.98818897637784C663.3333333333333,336.98818897637784,663.3333333333333,241.16136608306815,790,241.16136608306815"/></g><g style="mix-blend-mode: multiply;" class="link"><path stroke-width="1" stroke="#f28e2c" d="M536.6666666666666,350.27066929133844C663.3333333333333,350.27066929133844,663.3333333333333,299.82770466574533,790,299.82770466574533"/></g><g style="mix-blend-mode: multiply;" class="link"><path stroke-width="1" stroke="#4e79a7" d="M10,185.3585195099564C136.66666666666666,185.3585195099564,136.66666666666666,168.27263779527573,263.3333333333333,168.27263779527573"/></g><g style="mix-blend-mode: multiply;" class="link"><path stroke-width="1" stroke="#f28e2c" d="M273.3333333333333,168.843503937008C400,168.843503937008,400,220.58562992125982,526.6666666666666,220.58562992125982"/></g><g style="mix-blend-mode: multiply;" class="link"><path stroke-width="11.131889763779528" stroke="#f28e2c" d="M10,206.76599982491697C136.66666666666666,206.76599982491697,136.66666666666666,322.43213270925605,263.3333333333333,322.43213270925605"/></g><g style="mix-blend-mode: multiply;" class="link"><path stroke-width="11.131889763779528" stroke="#bab0ab" d="M273.3333333333333,322.43213270925605C400,322.43213270925605,400,429.39468503936985,526.6666666666666,429.39468503936985"/></g><g style="mix-blend-mode: multiply;" class="link"><path stroke-width="2.854330708661417" stroke="#e15759" d="M10,28.513047069011538C136.66666666666666,28.513047069011538,136.66666666666666,1.4271653543307086,263.3333333333333,1.4271653543307086"/></g><g style="mix-blend-mode: multiply;" class="link"><path stroke-width="2.854330708661417" stroke="#9c755f" d="M273.3333333333333,123.59251968503936C400,123.59251968503936,400,163.59251968503938,526.6666666666666,163.59251968503938"/></g><g style="mix-blend-mode: multiply;" class="link"><path stroke-width="19.124015748031496" stroke="#e15759" d="M10,39.502220297357994C136.66666666666666,39.502220297357994,136.66666666666666,12.416338582677165,263.3333333333333,12.416338582677165"/></g><g style="mix-blend-mode: multiply;" class="link"><path stroke-width="19.124015748031496" stroke="#e15759" d="M273.3333333333333,92.62303149606299C400,92.62303149606299,400,102.623031496063,526.6666666666666,102.623031496063"/></g><g style="mix-blend-mode: multiply;" class="link"><path stroke-width="1" stroke="#e15759" d="M10,49.34966124223988C136.66666666666666,49.34966124223988,136.66666666666666,22.263779527559056,263.3333333333333,22.263779527559056"/></g><g style="mix-blend-mode: multiply;" class="link"><path stroke-width="1" stroke="#59a14f" d="M273.3333333333333,157.2736220472441C400,157.2736220472441,400,360.69881889763764,526.6666666666666,360.69881889763764"/></g><g style="mix-blend-mode: multiply;" class="link"><path stroke-width="1" stroke="#4e79a7" d="M10,185.64395258082254C136.66666666666666,185.64395258082254,136.66666666666666,168.55807086614186,263.3333333333333,168.55807086614186"/></g><g style="mix-blend-mode: multiply;" class="link"><path stroke-width="1" stroke="#76b7b2" d="M273.3333333333333,169.12893700787413C400,169.12893700787413,400,261.9931102362204,526.6666666666666,261.9931102362204"/></g><g style="mix-blend-mode: multiply;" class="link"><path stroke-width="8.848425196850393" stroke="#76b7b2" d="M10,228.4589132107437C136.66666666666666,228.4589132107437,136.66666666666666,379.7868240738945,263.3333333333333,379.7868240738945"/></g><g style="mix-blend-mode: multiply;" class="link"><path stroke-width="8.848425196850393" stroke="#4e79a7" d="M273.3333333333333,379.7868240738945C400,379.7868240738945,400,557.652559055118,526.6666666666666,557.652559055118"/></g><g style="mix-blend-mode: multiply;" class="link"><path stroke-width="1" stroke="#4e79a7" d="M10,185.92938565168868C136.66666666666666,185.92938565168868,136.66666666666666,168.843503937008,263.3333333333333,168.843503937008"/></g><g style="mix-blend-mode: multiply;" class="link"><path stroke-width="1" stroke="#af7aa1" d="M273.3333333333333,171.9832677165355C400,171.9832677165355,400,381.41240157480297,526.6666666666666,381.41240157480297"/></g><g style="mix-blend-mode: multiply;" class="link"><path stroke-width="4.566929133858268" stroke="#e15759" d="M10,51.91855888003516C136.66666666666666,51.91855888003516,136.66666666666666,24.832677165354333,263.3333333333333,24.832677165354333"/></g><g style="mix-blend-mode: multiply;" class="link"><path stroke-width="4.566929133858268" stroke="#ff9da7" d="M273.3333333333333,127.30314960629921C400,127.30314960629921,400,177.30314960629923,526.6666666666666,177.30314960629923"/></g><g style="mix-blend-mode: multiply;" class="link"><path stroke-width="1" stroke="#4e79a7" d="M10,186.2148187225548C136.66666666666666,186.2148187225548,136.66666666666666,169.12893700787413,263.3333333333333,169.12893700787413"/></g><g style="mix-blend-mode: multiply;" class="link"><path stroke-width="1" stroke="#edc949" d="M273.3333333333333,168.27263779527573C400,168.27263779527573,400,189.72933070866142,526.6666666666666,189.72933070866142"/></g><g style="mix-blend-mode: multiply;" class="link"><path stroke-width="1" stroke="#4e79a7" d="M10,186.50025179342094C136.66666666666666,186.50025179342094,136.66666666666666,169.41437007874026,263.3333333333333,169.41437007874026"/></g><g style="mix-blend-mode: multiply;" class="link"><path stroke-width="1" stroke="#e15759" d="M273.3333333333333,172.26870078740163C400,172.26870078740163,400,391.6978346456691,526.6666666666666,391.6978346456691"/></g><g style="mix-blend-mode: multiply;" class="link"><path stroke-width="1.141732283464567" stroke="#4e79a7" d="M10,187.2138344705863C136.66666666666666,187.2138344705863,136.66666666666666,170.12795275590562,263.3333333333333,170.12795275590562"/></g><g style="mix-blend-mode: multiply;" class="link"><path stroke-width="1.141732283464567" stroke="#f28e2c" d="M273.3333333333333,170.6988188976379C400,170.6988188976379,400,324.4192913385825,526.6666666666666,324.4192913385825"/></g><g style="mix-blend-mode: multiply;" class="link"><path stroke-width="1" stroke="#e15759" d="M10,54.344739982397364C136.66666666666666,54.344739982397364,136.66666666666666,27.258858267716537,263.3333333333333,27.258858267716537"/></g><g style="mix-blend-mode: multiply;" class="link"><path stroke-width="1" stroke="#4e79a7" d="M273.3333333333333,157.98720472440945C400,157.98720472440945,400,480.5265748031494,526.6666666666666,480.5265748031494"/></g><g style="mix-blend-mode: multiply;" class="link"><path stroke-width="83.06102362204724" stroke="#e15759" d="M10,96.01796832885405C136.66666666666666,96.01796832885405,136.66666666666666,68.93208661417323,263.3333333333333,68.93208661417323"/></g><g style="mix-blend-mode: multiply;" class="link"><path stroke-width="83.06102362204724" stroke="#bab0ab" d="M273.3333333333333,41.53051181102362C400,41.53051181102362,400,41.53051181102362,526.6666666666666,41.53051181102362"/></g><g style="mix-blend-mode: multiply;" class="link"><path stroke-width="10.846456692913385" stroke="#59a14f" d="M10,194.92052738397206C136.66666666666666,194.92052738397206,136.66666666666666,278.7859439019363,263.3333333333333,278.7859439019363"/></g><g style="mix-blend-mode: multiply;" class="link"><path stroke-width="10.846456692913385" stroke="#edc949" d="M273.3333333333333,278.7859439019363C400,278.7859439019363,400,407.2637795275589,526.6666666666666,407.2637795275589"/></g><g style="mix-blend-mode: multiply;" class="link"><path stroke-width="1" stroke="#59a14f" d="M10,200.48647226586183C136.66666666666666,200.48647226586183,136.66666666666666,284.35188878382604,263.3333333333333,284.35188878382604"/></g><g style="mix-blend-mode: multiply;" class="link"><path stroke-width="1" stroke="#59a14f" d="M273.3333333333333,284.9227549255583C400,284.9227549255583,400,445.1033464566927,526.6666666666666,445.1033464566927"/></g><g style="mix-blend-mode: multiply;" class="link"><path stroke-width="1" stroke="#e15759" d="M10,137.69119667531075C136.66666666666666,137.69119667531075,136.66666666666666,110.60531496062993,263.3333333333333,110.60531496062993"/></g><g style="mix-blend-mode: multiply;" class="link"><path stroke-width="1" stroke="#76b7b2" d="M273.3333333333333,157.70177165354332C400,157.70177165354332,400,469.95570866141713,526.6666666666666,469.95570866141713"/></g><g style="mix-blend-mode: multiply;" class="link"><path stroke-width="8.27755905511811" stroke="#e15759" d="M10,141.97269273830287C136.66666666666666,141.97269273830287,136.66666666666666,114.88681102362206,263.3333333333333,114.88681102362206"/></g><g style="mix-blend-mode: multiply;" class="link"><path stroke-width="8.27755905511811" stroke="#ff9da7" d="M273.3333333333333,106.32381889763779C400,106.32381889763779,400,126.3238188976378,526.6666666666666,126.3238188976378"/></g><g style="mix-blend-mode: multiply;" class="link"><path stroke-width="1" stroke="#e15759" d="M10,146.39690533672805C136.66666666666666,146.39690533672805,136.66666666666666,119.31102362204726,263.3333333333333,119.31102362204726"/></g><g style="mix-blend-mode: multiply;" class="link"><path stroke-width="1" stroke="#9c755f" d="M273.3333333333333,151.56496062992125C400,151.56496062992125,400,313.5629921259841,526.6666666666666,313.5629921259841"/></g><g style="mix-blend-mode: multiply;" class="link"><path stroke-width="1" stroke="#edc949" d="M10,233.02584234460198C136.66666666666666,233.02584234460198,136.66666666666666,404.9246193494851,263.3333333333333,404.9246193494851"/></g><g style="mix-blend-mode: multiply;" class="link"><path stroke-width="1" stroke="#af7aa1" d="M273.3333333333333,404.9246193494851C400,404.9246193494851,400,630.4872047244091,526.6666666666666,630.4872047244091"/></g><g style="mix-blend-mode: multiply;" class="link"><path stroke-width="1" stroke="#e15759" d="M10,146.82505494302728C136.66666666666666,146.82505494302728,136.66666666666666,119.73917322834646,263.3333333333333,119.73917322834646"/></g><g style="mix-blend-mode: multiply;" class="link"><path stroke-width="1" stroke="#edc949" d="M273.3333333333333,129.72933070866142C400,129.72933070866142,400,210.3001968503937,526.6666666666666,210.3001968503937"/></g><g style="mix-blend-mode: multiply;" class="link"><path stroke-width="1" stroke="#4e79a7" d="M10,187.92741714775164C136.66666666666666,187.92741714775164,136.66666666666666,170.84153543307096,263.3333333333333,170.84153543307096"/></g><g style="mix-blend-mode: multiply;" class="link"><path stroke-width="1" stroke="#4e79a7" d="M273.3333333333333,168.55807086614186C400,168.55807086614186,400,200.01476377952756,526.6666666666666,200.01476377952756"/></g><g style="mix-blend-mode: multiply;" class="link"><path stroke-width="6.564960629921259" stroke="#f28e2c" d="M10,215.61442502176735C136.66666666666666,215.61442502176735,136.66666666666666,331.2805579061065,263.3333333333333,331.2805579061065"/></g><g style="mix-blend-mode: multiply;" class="link"><path stroke-width="6.564960629921259" stroke="#bab0ab" d="M273.3333333333333,336.13292011083087C400,336.13292011083087,400,504.5226377952754,526.6666666666666,504.5226377952754"/></g><g style="mix-blend-mode: multiply;" class="link"><path stroke-width="1" stroke="#af7aa1" d="M10,233.31127541546812C136.66666666666666,233.31127541546812,136.66666666666666,425.7809185620836,263.3333333333333,425.7809185620836"/></g><g style="mix-blend-mode: multiply;" class="link"><path stroke-width="1" stroke="#ff9da7" d="M273.3333333333333,425.7809185620836C400,425.7809185620836,400,543.0856299212597,526.6666666666666,543.0856299212597"/></g><g style="mix-blend-mode: multiply;" class="link"><path stroke-width="21.12204724409449" stroke="#e15759" d="M10,157.52879510050758C136.66666666666666,157.52879510050758,136.66666666666666,130.44291338582678,263.3333333333333,130.44291338582678"/></g><g style="mix-blend-mode: multiply;" class="link"><path stroke-width="21.12204724409449" stroke="#af7aa1" d="M273.3333333333333,140.43307086614175C400,140.43307086614175,400,241.28937007874015,526.6666666666666,241.28937007874015"/></g><g style="mix-blend-mode: multiply;" class="link"><path stroke-width="1" stroke="#e15759" d="M10,168.2325352579879C136.66666666666666,168.2325352579879,136.66666666666666,141.14665354330708,263.3333333333333,141.14665354330708"/></g><g style="mix-blend-mode: multiply;" class="link"><path stroke-width="1" stroke="#9c755f" d="M273.3333333333333,151.13681102362204C400,151.13681102362204,400,292.8494094488188,526.6666666666666,292.8494094488188"/></g><g style="mix-blend-mode: multiply;" class="link"><path stroke-width="1" stroke="#59a14f" d="M10,200.91462187216104C136.66666666666666,200.91462187216104,136.66666666666666,284.78003839012524,263.3333333333333,284.78003839012524"/></g><g style="mix-blend-mode: multiply;" class="link"><path stroke-width="1" stroke="#edc949" d="M273.3333333333333,284.4946053192591C400,284.4946053192591,400,412.97244094488167,526.6666666666666,412.97244094488167"/></g><g style="mix-blend-mode: multiply;" class="link"><path stroke-width="11.702755905511811" stroke="#e15759" d="M10,174.22662974617688C136.66666666666666,174.22662974617688,136.66666666666666,147.14074803149606,263.3333333333333,147.14074803149606"/></g><g style="mix-blend-mode: multiply;" class="link"><path stroke-width="11.702755905511811" stroke="#59a14f" d="M273.3333333333333,116.31397637795276C400,116.31397637795276,400,146.31397637795277,526.6666666666666,146.31397637795277"/></g><g style="mix-blend-mode: multiply;" class="link"><path stroke-width="1" stroke="#f28e2c" d="M10,219.03962187216104C136.66666666666666,219.03962187216104,136.66666666666666,334.70575475650014,263.3333333333333,334.70575475650014"/></g><g style="mix-blend-mode: multiply;" class="link"><path stroke-width="1" stroke="#76b7b2" d="M273.3333333333333,339.5581169612245C400,339.5581169612245,400,586.7864173228346,526.6666666666666,586.7864173228346"/></g><g style="mix-blend-mode: multiply;" class="link"><path stroke-width="4.566929133858268" stroke="#f28e2c" d="M10,221.46580297452323C136.66666666666666,221.46580297452323,136.66666666666666,337.13193585886233,263.3333333333333,337.13193585886233"/></g><g style="mix-blend-mode: multiply;" class="link"><path stroke-width="4.566929133858268" stroke="#59a14f" d="M273.3333333333333,330.28154215807496C400,330.28154215807496,400,457.5295275590549,526.6666666666666,457.5295275590549"/></g><g style="mix-blend-mode: multiply;" class="link"><path stroke-width="1" stroke="#4e79a7" d="M10,188.21285021861777C136.66666666666666,188.21285021861777,136.66666666666666,171.1269685039371,263.3333333333333,171.1269685039371"/></g><g style="mix-blend-mode: multiply;" class="link"><path stroke-width="1" stroke="#edc949" d="M273.3333333333333,169.6998031496064C400,169.6998031496064,400,282.56397637795266,526.6666666666666,282.56397637795266"/></g><g style="mix-blend-mode: multiply;" class="link"><path stroke-width="1" stroke="#4e79a7" d="M10,188.4982832894839C136.66666666666666,188.4982832894839,136.66666666666666,171.41240157480323,263.3333333333333,171.41240157480323"/></g><g style="mix-blend-mode: multiply;" class="link"><path stroke-width="1" stroke="#9c755f" d="M273.3333333333333,171.41240157480323C400,171.41240157480323,400,350.27066929133844,526.6666666666666,350.27066929133844"/></g><g style="mix-blend-mode: multiply;" class="link"><path stroke-width="5.137795275590551" stroke="#e15759" d="M10,182.64690533672808C136.66666666666666,182.64690533672808,136.66666666666666,155.56102362204726,263.3333333333333,155.56102362204726"/></g><g style="mix-blend-mode: multiply;" class="link"><path stroke-width="5.137795275590551" stroke="#ff9da7" d="M273.3333333333333,154.4192913385827C400,154.4192913385827,400,337.5590551181101,526.6666666666666,337.5590551181101"/></g><g style="mix-blend-mode: multiply;" class="link"><path stroke-width="1" stroke="#4e79a7" d="M10,188.78371636035004C136.66666666666666,188.78371636035004,136.66666666666666,171.69783464566936,263.3333333333333,171.69783464566936"/></g><g style="mix-blend-mode: multiply;" class="link"><path stroke-width="1" stroke="#af7aa1" d="M273.3333333333333,171.69783464566936C400,171.69783464566936,400,371.12696850393684,526.6666666666666,371.12696850393684"/></g><g style="mix-blend-mode: multiply;" class="link"><path stroke-width="1" stroke="#4e79a7" d="M10,189.06914943121618C136.66666666666666,189.06914943121618,136.66666666666666,171.9832677165355,263.3333333333333,171.9832677165355"/></g><g style="mix-blend-mode: multiply;" class="link"><path stroke-width="1" stroke="#f28e2c" d="M273.3333333333333,169.41437007874026C400,169.41437007874026,400,272.2785433070865,526.6666666666666,272.2785433070865"/></g><g style="mix-blend-mode: multiply;" class="link"><path stroke-width="1" stroke="#4e79a7" d="M10,189.3545825020823C136.66666666666666,189.3545825020823,136.66666666666666,172.26870078740163,263.3333333333333,172.26870078740163"/></g><g style="mix-blend-mode: multiply;" class="link"><path stroke-width="1" stroke="#76b7b2" d="M273.3333333333333,169.98523622047253C400,169.98523622047253,400,303.1348425196849,526.6666666666666,303.1348425196849"/></g><g style="mix-blend-mode: multiply;" class="link"><path stroke-width="1" stroke="#f28e2c" d="M10,223.89198407688545C136.66666666666666,223.89198407688545,136.66666666666666,339.5581169612245,263.3333333333333,339.5581169612245"/></g><g style="mix-blend-mode: multiply;" class="link"><path stroke-width="1" stroke="#e15759" d="M273.3333333333333,332.70772326043715C400,332.70772326043715,400,491.09744094488167,526.6666666666666,491.09744094488167"/></g><g style="mix-blend-mode: multiply;" class="link"><path stroke-width="1" stroke="#ff9da7" d="M536.6666666666666,480.81200787401553C663.3333333333333,480.81200787401553,663.3333333333333,547.0237893406257,790,547.0237893406257"/></g><g style="mix-blend-mode: multiply;" class="link"><path stroke-width="1" stroke="#ff9da7" d="M536.6666666666666,470.24114173228327C663.3333333333333,470.24114173228327,663.3333333333333,546.7383562697596,790,546.7383562697596"/></g><g style="mix-blend-mode: multiply;" class="link"><path stroke-width="1" stroke="#ff9da7" d="M536.6666666666666,522.5147637795275C663.3333333333333,522.5147637795275,663.3333333333333,547.594655482358,790,547.594655482358"/></g><g style="mix-blend-mode: multiply;" class="link"><path stroke-width="3.9960629921259843" stroke="#ff9da7" d="M536.6666666666666,616.34842519685C663.3333333333333,616.34842519685,663.3333333333333,558.0129625689721,790,558.0129625689721"/></g><g style="mix-blend-mode: multiply;" class="link"><path stroke-width="1.9980314960629921" stroke="#4e79a7" d="M536.6666666666666,619.3454724409446C663.3333333333333,619.3454724409446,663.3333333333333,580.7147342225154,790,580.7147342225154"/></g><g style="mix-blend-mode: multiply;" class="link"><path stroke-width="1" stroke="#ff9da7" d="M536.6666666666666,630.7726377952753C663.3333333333333,630.7726377952753,663.3333333333333,560.1537106004682,790,560.1537106004682"/></g><g style="mix-blend-mode: multiply;" class="link"><path stroke-width="1" stroke="#ff9da7" d="M536.6666666666666,667.0521653543303C663.3333333333333,667.0521653543303,663.3333333333333,561.2954428839328,790,561.2954428839328"/></g><g style="mix-blend-mode: multiply;" class="link"><path stroke-width="1" stroke="#ff9da7" d="M536.6666666666666,576.5009842519685C663.3333333333333,576.5009842519685,663.3333333333333,552.1615846162163,790,552.1615846162163"/></g><g style="mix-blend-mode: multiply;" class="link"><path stroke-width="3.9960629921259843" stroke="#ff9da7" d="M536.6666666666666,564.074803149606C663.3333333333333,564.074803149606,663.3333333333333,550.0208365847201,790,550.0208365847201"/></g><g style="mix-blend-mode: multiply;" class="link"><path stroke-width="1" stroke="#4e79a7" d="M536.6666666666666,566.2155511811022C663.3333333333333,566.2155511811022,663.3333333333333,575.862372017791,790,575.862372017791"/></g><g style="mix-blend-mode: multiply;" class="link"><path stroke-width="1" stroke="#4e79a7" d="M536.6666666666666,656.7667322834642C663.3333333333333,656.7667322834642,663.3333333333333,586.7088287107043,790,586.7088287107043"/></g><g style="mix-blend-mode: multiply;" class="link"><path stroke-width="1" stroke="#ff9da7" d="M536.6666666666666,532.8001968503936C663.3333333333333,532.8001968503936,663.3333333333333,547.8800885532241,790,547.8800885532241"/></g><g style="mix-blend-mode: multiply;" class="link"><path stroke-width="1.141732283464567" stroke="#4e79a7" d="M536.6666666666666,677.7657480314965C663.3333333333333,677.7657480314965,663.3333333333333,587.4224113878696,790,587.4224113878696"/></g><g style="mix-blend-mode: multiply;" class="link"><path stroke-width="1" stroke="#ff9da7" d="M536.6666666666666,507.94783464566905C663.3333333333333,507.94783464566905,663.3333333333333,547.3092224114919,790,547.3092224114919"/></g><g style="mix-blend-mode: multiply;" class="link"><path stroke-width="4.281496062992126" stroke="#4e79a7" d="M536.6666666666666,510.2312992125982C663.3333333333333,510.2312992125982,663.3333333333333,573.5789074508618,790,573.5789074508618"/></g><g style="mix-blend-mode: multiply;" class="link"><path stroke-width="1.141732283464567" stroke="#ff9da7" d="M536.6666666666666,603.7795275590548C663.3333333333333,603.7795275590548,663.3333333333333,555.4440649311769,790,555.4440649311769"/></g><g style="mix-blend-mode: multiply;" class="link"><path stroke-width="1" stroke="#ff9da7" d="M536.6666666666666,641.3435039370075C663.3333333333333,641.3435039370075,663.3333333333333,560.7245767422005,790,560.7245767422005"/></g><g style="mix-blend-mode: multiply;" class="link"><path stroke-width="4.852362204724409" stroke="#4e79a7" d="M536.6666666666666,644.1978346456689C663.3333333333333,644.1978346456689,663.3333333333333,584.139931072909,790,584.139931072909"/></g><g style="mix-blend-mode: multiply;" class="link"><path stroke-width="1" stroke="#ff9da7" d="M536.6666666666666,413.54330708661394C663.3333333333333,413.54330708661394,663.3333333333333,546.3102066634603,790,546.3102066634603"/></g><g style="mix-blend-mode: multiply;" class="link"><path stroke-width="2.5688976377952755" stroke="#ff9da7" d="M536.6666666666666,588.2135826771653C663.3333333333333,588.2135826771653,663.3333333333333,553.5887499705469,790,553.5887499705469"/></g><g style="mix-blend-mode: multiply;" class="link"><path stroke-width="3.7106299212598426" stroke="#4e79a7" d="M536.6666666666666,591.3533464566929C663.3333333333333,591.3533464566929,663.3333333333333,577.860403513854,790,577.860403513854"/></g><g style="mix-blend-mode: multiply;" class="link"><path stroke-width="4.281496062992126" stroke="#bab0ab" d="M10,515.8394175580069C136.66666666666666,515.8394175580069,136.66666666666666,562.3754110366675,263.3333333333333,562.3754110366675"/></g><g style="mix-blend-mode: multiply;" class="link"><path stroke-width="4.281496062992126" stroke="#4e79a7" d="M273.3333333333333,562.3754110366675C400,562.3754110366675,400,564.2175196850392,526.6666666666666,564.2175196850392"/></g><g style="mix-blend-mode: multiply;" class="link"><path stroke-width="1" stroke="#4e79a7" d="M10,518.4083151958022C136.66666666666666,518.4083151958022,136.66666666666666,586.9814661068257,263.3333333333333,586.9814661068257"/></g><g style="mix-blend-mode: multiply;" class="link"><path stroke-width="1" stroke="#f28e2c" d="M273.3333333333333,586.9814661068257C400,586.9814661068257,400,667.0521653543303,526.6666666666666,667.0521653543303"/></g><g style="mix-blend-mode: multiply;" class="link"><path stroke-width="1" stroke="#f28e2c" d="M10,499.855165589503C136.66666666666666,499.855165589503,136.66666666666666,478.3531678675523,263.3333333333333,478.3531678675523"/></g><g style="mix-blend-mode: multiply;" class="link"><path stroke-width="1" stroke="#e15759" d="M273.3333333333333,478.9240340092846C400,478.9240340092846,400,576.5009842519685,526.6666666666666,576.5009842519685"/></g><g style="mix-blend-mode: multiply;" class="link"><path stroke-width="1" stroke="#f28e2c" d="M10,500.1405986603691C136.66666666666666,500.1405986603691,136.66666666666666,478.63860093841845,263.3333333333333,478.63860093841845"/></g><g style="mix-blend-mode: multiply;" class="link"><path stroke-width="1" stroke="#76b7b2" d="M273.3333333333333,478.3531678675523C400,478.3531678675523,400,470.24114173228327,526.6666666666666,470.24114173228327"/></g><g style="mix-blend-mode: multiply;" class="link"><path stroke-width="1" stroke="#e15759" d="M10,488.43784275485734C136.66666666666666,488.43784275485734,136.66666666666666,415.21005242035136,263.3333333333333,415.21005242035136"/></g><g style="mix-blend-mode: multiply;" class="link"><path stroke-width="1" stroke="#9c755f" d="M273.3333333333333,415.21005242035136C400,415.21005242035136,400,522.5147637795275,526.6666666666666,522.5147637795275"/></g><g style="mix-blend-mode: multiply;" class="link"><path stroke-width="5.994094488188976" stroke="#f28e2c" d="M10,503.28036243989663C136.66666666666666,503.28036243989663,136.66666666666666,481.778364717946,263.3333333333333,481.778364717946"/></g><g style="mix-blend-mode: multiply;" class="link"><path stroke-width="5.994094488188976" stroke="#bab0ab" d="M273.3333333333333,483.2055300722767C400,483.2055300722767,400,617.3474409448816,526.6666666666666,617.3474409448816"/></g><g style="mix-blend-mode: multiply;" class="link"><path stroke-width="1" stroke="#76b7b2" d="M10,518.122882124936C136.66666666666666,518.122882124936,136.66666666666666,576.1919444743995,263.3333333333333,576.1919444743995"/></g><g style="mix-blend-mode: multiply;" class="link"><path stroke-width="1" stroke="#af7aa1" d="M273.3333333333333,576.1919444743995C400,576.1919444743995,400,630.7726377952753,526.6666666666666,630.7726377952753"/></g><g style="mix-blend-mode: multiply;" class="link"><path stroke-width="1" stroke="#f28e2c" d="M10,506.4201262194242C136.66666666666666,506.4201262194242,136.66666666666666,484.91812849747356,263.3333333333333,484.91812849747356"/></g><g style="mix-blend-mode: multiply;" class="link"><path stroke-width="1" stroke="#4e79a7" d="M273.3333333333333,478.63860093841845C400,478.63860093841845,400,480.81200787401553,526.6666666666666,480.81200787401553"/></g><g style="mix-blend-mode: multiply;" class="link"><path stroke-width="1.141732283464567" stroke="#f28e2c" d="M10,507.13370889658955C136.66666666666666,507.13370889658955,136.66666666666666,485.6317111746389,263.3333333333333,485.6317111746389"/></g><g style="mix-blend-mode: multiply;" class="link"><path stroke-width="1.141732283464567" stroke="#af7aa1" d="M273.3333333333333,479.6376166864499C400,479.6376166864499,400,603.7795275590548,526.6666666666666,603.7795275590548"/></g><g style="mix-blend-mode: multiply;" class="link"><path stroke-width="5.708661417322834" stroke="#f28e2c" d="M10,510.55890574698327C136.66666666666666,510.55890574698327,136.66666666666666,489.0569080250326,263.3333333333333,489.0569080250326"/></g><g style="mix-blend-mode: multiply;" class="link"><path stroke-width="5.708661417322834" stroke="#ff9da7" d="M273.3333333333333,489.0569080250326C400,489.0569080250326,400,643.7696850393697,526.6666666666666,643.7696850393697"/></g><g style="mix-blend-mode: multiply;" class="link"><path stroke-width="1" stroke="#59a14f" d="M10,488.00969314855814C136.66666666666666,488.00969314855814,136.66666666666666,394.4964697431859,263.3333333333333,394.4964697431859"/></g><g style="mix-blend-mode: multiply;" class="link"><path stroke-width="1" stroke="#edc949" d="M273.3333333333333,394.4964697431859C400,394.4964697431859,400,413.54330708661394,526.6666666666666,413.54330708661394"/></g><g style="mix-blend-mode: multiply;" class="link"><path stroke-width="6.279527559055118" stroke="#edc949" d="M10,492.0057561406841C136.66666666666666,492.0057561406841,136.66666666666666,448.26125817072193,263.3333333333333,448.26125817072193"/></g><g style="mix-blend-mode: multiply;" class="link"><path stroke-width="6.279527559055118" stroke="#76b7b2" d="M273.3333333333333,452.8281873045802C400,452.8281873045802,400,590.0688976377952,526.6666666666666,590.0688976377952"/></g><g style="mix-blend-mode: multiply;" class="link"><path stroke-width="4.566929133858268" stroke="#edc949" d="M10,497.4289844871408C136.66666666666666,497.4289844871408,136.66666666666666,453.6844865171786,263.3333333333333,453.6844865171786"/></g><g style="mix-blend-mode: multiply;" class="link"><path stroke-width="4.566929133858268" stroke="#bab0ab" d="M273.3333333333333,447.4049589581235C400,447.4049589581235,400,510.0885826771651,526.6666666666666,510.0885826771651"/></g><g style="mix-blend-mode: multiply;" class="link"><path stroke-width="1" stroke="#e15759" d="M10,488.7232758257235C136.66666666666666,488.7232758257235,136.66666666666666,415.4954854912175,263.3333333333333,415.4954854912175"/></g><g style="mix-blend-mode: multiply;" class="link"><path stroke-width="1" stroke="#59a14f" d="M273.3333333333333,415.4954854912175C400,415.4954854912175,400,532.8001968503936,526.6666666666666,532.8001968503936"/></g><g style="mix-blend-mode: multiply;" class="link"><path stroke-width="1.141732283464567" stroke="#4e79a7" d="M10,519.1218978729675C136.66666666666666,519.1218978729675,136.66666666666666,587.695048783991,263.3333333333333,587.695048783991"/></g><g style="mix-blend-mode: multiply;" class="link"><path stroke-width="1.141732283464567" stroke="#edc949" d="M273.3333333333333,587.695048783991C400,587.695048783991,400,677.7657480314965,526.6666666666666,677.7657480314965"/></g><g style="mix-blend-mode: multiply;" class="link"><path stroke-width="1" stroke="#f28e2c" d="M10,513.5559529910778C136.66666666666666,513.5559529910778,136.66666666666666,492.05395526912713,263.3333333333333,492.05395526912713"/></g><g style="mix-blend-mode: multiply;" class="link"><path stroke-width="1" stroke="#76b7b2" d="M273.3333333333333,492.05395526912713C400,492.05395526912713,400,656.7667322834642,526.6666666666666,656.7667322834642"/></g><g style="mix-blend-mode: multiply;" class="link"><path stroke-width="1" stroke="#ff9da7" d="M536.6666666666666,704.3307086614178C663.3333333333333,704.3307086614178,663.3333333333333,739.2187339070395,790,739.2187339070395"/></g><g style="mix-blend-mode: multiply;" class="link"><path stroke-width="1.141732283464567" stroke="#9c755f" d="M536.6666666666666,705.1870078740162C663.3333333333333,705.1870078740162,663.3333333333333,758.638025245622,790,758.638025245622"/></g><g style="mix-blend-mode: multiply;" class="link"><path stroke-width="3.139763779527559" stroke="#ff9da7" d="M536.6666666666666,691.9045275590556C663.3333333333333,691.9045275590556,663.3333333333333,737.3634189464095,790,737.3634189464095"/></g><g style="mix-blend-mode: multiply;" class="link"><path stroke-width="1" stroke="#9c755f" d="M536.6666666666666,693.7598425196855C663.3333333333333,693.7598425196855,663.3333333333333,757.7817260330236,790,757.7817260330236"/></g><g style="mix-blend-mode: multiply;" class="link"><path stroke-width="1" stroke="#ff9da7" d="M536.6666666666666,744.4635826771661C663.3333333333333,744.4635826771661,663.3333333333333,741.0740488676694,790,741.0740488676694"/></g><g style="mix-blend-mode: multiply;" class="link"><path stroke-width="1" stroke="#9c755f" d="M536.6666666666666,775.8907480314964C663.3333333333333,775.8907480314964,663.3333333333333,767.0583008361732,790,767.0583008361732"/></g><g style="mix-blend-mode: multiply;" class="link"><path stroke-width="1.9980314960629921" stroke="#9c755f" d="M536.6666666666666,679.3356299212603C663.3333333333333,679.3356299212603,663.3333333333333,756.497277214126,790,756.497277214126"/></g><g style="mix-blend-mode: multiply;" class="link"><path stroke-width="1.4271653543307086" stroke="#ff9da7" d="M536.6666666666666,812.7411417322836C663.3333333333333,812.7411417322836,663.3333333333333,743.9283795763307,790,743.9283795763307"/></g><g style="mix-blend-mode: multiply;" class="link"><path stroke-width="1.7125984251968505" stroke="#9c755f" d="M536.6666666666666,814.3110236220473C663.3333333333333,814.3110236220473,663.3333333333333,772.6242457180629,790,772.6242457180629"/></g><g style="mix-blend-mode: multiply;" class="link"><path stroke-width="13.700787401574804" stroke="#76b7b2" d="M536.6666666666666,822.0177165354331C663.3333333333333,822.0177165354331,663.3333333333333,836.306638474777,790,836.306638474777"/></g><g style="mix-blend-mode: multiply;" class="link"><path stroke-width="1" stroke="#ff9da7" d="M536.6666666666666,754.7490157480321C663.3333333333333,754.7490157480321,663.3333333333333,741.3594819385355,790,741.3594819385355"/></g><g style="mix-blend-mode: multiply;" class="link"><path stroke-width="1.4271653543307086" stroke="#ff9da7" d="M536.6666666666666,716.4714566929139C663.3333333333333,716.4714566929139,663.3333333333333,740.217749655071,790,740.217749655071"/></g><g style="mix-blend-mode: multiply;" class="link"><path stroke-width="1" stroke="#9c755f" d="M536.6666666666666,801.8848425196851C663.3333333333333,801.8848425196851,663.3333333333333,771.6252299700315,790,771.6252299700315"/></g><g style="mix-blend-mode: multiply;" class="link"><path stroke-width="7.1358267716535435" stroke="#9c755f" d="M536.6666666666666,730.752952755906C663.3333333333333,730.752952755906,663.3333333333333,762.776804773181,790,762.776804773181"/></g><g style="mix-blend-mode: multiply;" class="link"><path stroke-width="1" stroke="#ff9da7" d="M536.6666666666666,765.0344488188981C663.3333333333333,765.0344488188981,663.3333333333333,741.6449150094016,790,741.6449150094016"/></g><g style="mix-blend-mode: multiply;" class="link"><path stroke-width="1" stroke="#9c755f" d="M536.6666666666666,765.4625984251973C663.3333333333333,765.4625984251973,663.3333333333333,766.630151229874,790,766.630151229874"/></g><g style="mix-blend-mode: multiply;" class="link"><path stroke-width="1.4271653543307086" stroke="#ff9da7" d="M536.6666666666666,786.7470472440947C663.3333333333333,786.7470472440947,663.3333333333333,742.501214222,790,742.501214222"/></g><g style="mix-blend-mode: multiply;" class="link"><path stroke-width="4.281496062992126" stroke="#9c755f" d="M536.6666666666666,789.601377952756C663.3333333333333,789.601377952756,663.3333333333333,769.3417654031023,790,769.3417654031023"/></g><g style="mix-blend-mode: multiply;" class="link"><path stroke-width="1" stroke="#ff9da7" d="M536.6666666666666,839.2962598425197C663.3333333333333,839.2962598425197,663.3333333333333,745.0701118597952,790,745.0701118597952"/></g><g style="mix-blend-mode: multiply;" class="link"><path stroke-width="3.9960629921259843" stroke="#9c755f" d="M536.6666666666666,841.7224409448818C663.3333333333333,841.7224409448818,663.3333333333333,775.4785764267242,790,775.4785764267242"/></g><g style="mix-blend-mode: multiply;" class="link"><path stroke-width="6.279527559055118" stroke="#76b7b2" d="M536.6666666666666,846.8602362204724C663.3333333333333,846.8602362204724,663.3333333333333,846.2967959550919,790,846.2967959550919"/></g><g style="mix-blend-mode: multiply;" class="link"><path stroke-width="1.9980314960629921" stroke="#e15759" d="M10,765.834097361662C136.66666666666666,765.834097361662,136.66666666666666,735.6502222885213,263.3333333333333,735.6502222885213"/></g><g style="mix-blend-mode: multiply;" class="link"><path stroke-width="1.9980314960629921" stroke="#edc949" d="M273.3333333333333,735.6502222885213C400,735.6502222885213,400,679.3356299212603,526.6666666666666,679.3356299212603"/></g><g style="mix-blend-mode: multiply;" class="link"><path stroke-width="16.840551181102363" stroke="#76b7b2" d="M10,789.8104753144178C136.66666666666666,789.8104753144178,136.66666666666666,820.162401574803,263.3333333333333,820.162401574803"/></g><g style="mix-blend-mode: multiply;" class="link"><path stroke-width="16.840551181102363" stroke="#e15759" d="M273.3333333333333,820.4478346456691C400,820.4478346456691,400,820.4478346456694,526.6666666666666,820.4478346456694"/></g><g style="mix-blend-mode: multiply;" class="link"><path stroke-width="1" stroke="#59a14f" d="M10,774.1116564167801C136.66666666666666,774.1116564167801,136.66666666666666,763.4761899495231,263.3333333333333,763.4761899495231"/></g><g style="mix-blend-mode: multiply;" class="link"><path stroke-width="1" stroke="#4e79a7" d="M273.3333333333333,763.4761899495231C400,763.4761899495231,400,744.4635826771661,526.6666666666666,744.4635826771661"/></g><g style="mix-blend-mode: multiply;" class="link"><path stroke-width="1" stroke="#edc949" d="M10,775.5388217711107C136.66666666666666,775.5388217711107,136.66666666666666,795.0142693162876,263.3333333333333,795.0142693162876"/></g><g style="mix-blend-mode: multiply;" class="link"><path stroke-width="1" stroke="#f28e2c" d="M273.3333333333333,795.0142693162876C400,795.0142693162876,400,775.8907480314964,526.6666666666666,775.8907480314964"/></g><g style="mix-blend-mode: multiply;" class="link"><path stroke-width="1.7125984251968505" stroke="#af7aa1" d="M10,758.8409871254415C136.66666666666666,758.8409871254415,136.66666666666666,698.7479976296408,263.3333333333333,698.7479976296408"/></g><g style="mix-blend-mode: multiply;" class="link"><path stroke-width="1.7125984251968505" stroke="#af7aa1" d="M273.3333333333333,702.4586275509007C400,702.4586275509007,400,704.9015748031501,526.6666666666666,704.9015748031501"/></g><g style="mix-blend-mode: multiply;" class="link"><path stroke-width="3.7106299212598426" stroke="#af7aa1" d="M10,761.5526012986699C136.66666666666666,761.5526012986699,136.66666666666666,701.4596118028692,263.3333333333333,701.4596118028692"/></g><g style="mix-blend-mode: multiply;" class="link"><path stroke-width="3.7106299212598426" stroke="#bab0ab" d="M273.3333333333333,699.7470133776724C400,699.7470133776724,400,692.1899606299218,526.6666666666666,692.1899606299218"/></g><g style="mix-blend-mode: multiply;" class="link"><path stroke-width="11.131889763779528" stroke="#ff9da7" d="M10,804.0821288577248C136.66666666666666,804.0821288577248,136.66666666666666,844.4340551181102,263.3333333333333,844.4340551181102"/></g><g style="mix-blend-mode: multiply;" class="link"><path stroke-width="11.131889763779528" stroke="#4e79a7" d="M273.3333333333333,844.4340551181102C400,844.4340551181102,400,844.4340551181102,526.6666666666666,844.4340551181102"/></g><g style="mix-blend-mode: multiply;" class="link"><path stroke-width="5.708661417322834" stroke="#edc949" d="M10,778.5358690152052C136.66666666666666,778.5358690152052,136.66666666666666,798.011316560382,263.3333333333333,798.011316560382"/></g><g style="mix-blend-mode: multiply;" class="link"><path stroke-width="5.708661417322834" stroke="#bab0ab" d="M273.3333333333333,798.011316560382C400,798.011316560382,400,788.8877952755907,526.6666666666666,788.8877952755907"/></g><g style="mix-blend-mode: multiply;" class="link"><path stroke-width="1" stroke="#59a14f" d="M10,774.6825225585123C136.66666666666666,774.6825225585123,136.66666666666666,764.0470560912554,263.3333333333333,764.0470560912554"/></g><g style="mix-blend-mode: multiply;" class="link"><path stroke-width="1" stroke="#9c755f" d="M273.3333333333333,764.3324891621215C400,764.3324891621215,400,765.3198818897642,526.6666666666666,765.3198818897642"/></g><g style="mix-blend-mode: multiply;" class="link"><path stroke-width="7.1358267716535435" stroke="#e15759" d="M10,770.4010264955201C136.66666666666666,770.4010264955201,136.66666666666666,740.2171514223794,263.3333333333333,740.2171514223794"/></g><g style="mix-blend-mode: multiply;" class="link"><path stroke-width="7.1358267716535435" stroke="#ff9da7" d="M273.3333333333333,740.2171514223794C400,740.2171514223794,400,730.752952755906,526.6666666666666,730.752952755906"/></g><g style="mix-blend-mode: multiply;" class="link"><path stroke-width="1" stroke="#76b7b2" d="M10,798.373467440402C136.66666666666666,798.373467440402,136.66666666666666,828.7253937007872,263.3333333333333,828.7253937007872"/></g><g style="mix-blend-mode: multiply;" class="link"><path stroke-width="1" stroke="#af7aa1" d="M273.3333333333333,811.8848425196849C400,811.8848425196849,400,801.8848425196851,526.6666666666666,801.8848425196851"/></g><g style="mix-blend-mode: multiply;" class="link"><path stroke-width="1" stroke="#59a14f" d="M10,775.2533887002446C136.66666666666666,775.2533887002446,136.66666666666666,764.6179222329877,263.3333333333333,764.6179222329877"/></g><g style="mix-blend-mode: multiply;" class="link"><path stroke-width="1" stroke="#59a14f" d="M273.3333333333333,763.7616230203893C400,763.7616230203893,400,754.7490157480321,526.6666666666666,754.7490157480321"/></g><g style="mix-blend-mode: multiply;" class="link"><path stroke-width="1.4271653543307086" stroke="#9c755f" d="M10,764.1214989364652C136.66666666666666,764.1214989364652,136.66666666666666,723.5384099396645,263.3333333333333,723.5384099396645"/></g><g style="mix-blend-mode: multiply;" class="link"><path stroke-width="1.4271653543307086" stroke="#edc949" d="M273.3333333333333,723.5384099396645C400,723.5384099396645,400,716.4714566929139,526.6666666666666,716.4714566929139"/></g></g></svg>