<svg aria-roledescription="sankey" role="graphics-document document" viewBox="0 0 800 1000.334228515625" height="1000.334228515625" xmlns:xlink="http://www.w3.org/1999/xlink" xmlns="http://www.w3.org/2000/svg" width="800" id="my-svg" style="background-color: white;"><style>#my-svg{font-family:"trebuchet ms",verdana,arial,sans-serif;font-size:16px;fill:#333;}#my-svg .error-icon{fill:#552222;}#my-svg .error-text{fill:#552222;stroke:#552222;}#my-svg .edge-thickness-normal{stroke-width:2px;}#my-svg .edge-thickness-thick{stroke-width:3.5px;}#my-svg .edge-pattern-solid{stroke-dasharray:0;}#my-svg .edge-pattern-dashed{stroke-dasharray:3;}#my-svg .edge-pattern-dotted{stroke-dasharray:2;}#my-svg .marker{fill:#333333;stroke:#333333;}#my-svg .marker.cross{stroke:#333333;}#my-svg svg{font-family:"trebuchet ms",verdana,arial,sans-serif;font-size:16px;}#my-svg :root{--mermaid-font-family:"trebuchet ms",verdana,arial,sans-serif;}</style><g/><g class="nodes"><g y="244.01315789473674" x="526.6666666666666" transform="translate(526.6666666666666,244.01315789473674)" id="node-1" class="node"><rect fill="#4e79a7" width="10" height="6.052631578947398"/></g><g y="34.30692748721327" x="790" transform="translate(790,34.30692748721327)" id="node-2" class="node"><rect fill="#f28e2c" width="10" height="136.18421052631572"/></g><g y="180.491138013529" x="790" transform="translate(790,180.491138013529)" id="node-3" class="node"><rect fill="#e15759" width="10" height="239.07894736842104"/></g><g y="260.06578947368416" x="526.6666666666666" transform="translate(526.6666666666666,260.06578947368416)" id="node-4" class="node"><rect fill="#76b7b2" width="10" height="24.21052631578948"/></g><g y="496.1842105263156" x="526.6666666666666" transform="translate(526.6666666666666,496.1842105263156)" id="node-5" class="node"><rect fill="#59a14f" width="10" height="6.052631578947398"/></g><g y="47.828947368421" x="526.6666666666666" transform="translate(526.6666666666666,47.828947368421)" id="node-6" class="node"><rect fill="#edc949" width="10" height="60.52631578947374"/></g><g y="118.35526315789474" x="526.6666666666666" transform="translate(526.6666666666666,118.35526315789474)" id="node-7" class="node"><rect fill="#af7aa1" width="10" height="30.26315789473685"/></g><g y="356.6447368421052" x="526.6666666666666" transform="translate(526.6666666666666,356.6447368421052)" id="node-8" class="node"><rect fill="#ff9da7" width="10" height="28.749999999999886"/></g><g y="158.6184210526316" x="526.6666666666666" transform="translate(526.6666666666666,158.6184210526316)" id="node-9" class="node"><rect fill="#9c755f" width="10" height="3.0263157894736423"/></g><g y="171.64473684210523" x="526.6666666666666" transform="translate(526.6666666666666,171.64473684210523)" id="node-10" class="node"><rect fill="#bab0ab" width="10" height="3.026315789473699"/></g><g y="294.27631578947364" x="526.6666666666666" transform="translate(526.6666666666666,294.27631578947364)" id="node-11" class="node"><rect fill="#4e79a7" width="10" height="13.618421052631561"/></g><g y="229.47368421052622" x="526.6666666666666" transform="translate(526.6666666666666,229.47368421052622)" id="node-12" class="node"><rect fill="#f28e2c" width="10" height="4.53947368421052"/></g><g y="395.3947368421051" x="526.6666666666666" transform="translate(526.6666666666666,395.3947368421051)" id="node-13" class="node"><rect fill="#e15759" width="10" height="90.78947368421052"/></g><g y="0" x="526.6666666666666" transform="translate(526.6666666666666,0)" id="node-14" class="node"><rect fill="#76b7b2" width="10" height="37.828947368421"/></g><g y="317.8947368421052" x="526.6666666666666" transform="translate(526.6666666666666,317.8947368421052)" id="node-15" class="node"><rect fill="#59a14f" width="10" height="28.75"/></g><g y="512.236842105263" x="526.6666666666666" transform="translate(526.6666666666666,512.236842105263)" id="node-16" class="node"><rect fill="#edc949" width="10" height="3.026315789473756"/></g><g y="184.67105263157893" x="526.6666666666666" transform="translate(526.6666666666666,184.67105263157893)" id="node-17" class="node"><rect fill="#af7aa1" width="10" height="34.802631578947285"/></g><g y="0" x="0" transform="translate(0,0)" id="node-18" class="node"><rect fill="#ff9da7" width="10" height="375.2631578947369"/></g><g y="183.42105263157896" x="263.3333333333333" transform="translate(263.3333333333333,183.42105263157896)" id="node-19" class="node"><rect fill="#9c755f" width="10" height="202.76315789473682"/></g><g y="453.5192837355321" x="263.3333333333333" transform="translate(263.3333333333333,453.5192837355321)" id="node-20" class="node"><rect fill="#bab0ab" width="10" height="3.0263157894736423"/></g><g y="47.82894736842104" x="263.3333333333333" transform="translate(263.3333333333333,47.82894736842104)" id="node-21" class="node"><rect fill="#4e79a7" width="10" height="125.59210526315792"/></g><g y="0" x="263.3333333333333" transform="translate(263.3333333333333,0)" id="node-22" class="node"><rect fill="#f28e2c" width="10" height="37.82894736842104"/></g><g y="429.46886227281584" x="263.3333333333333" transform="translate(263.3333333333333,429.46886227281584)" id="node-23" class="node"><rect fill="#e15759" width="10" height="6.052631578947398"/></g><g y="525.2631578947368" x="526.6666666666666" transform="translate(526.6666666666666,525.2631578947368)" id="node-24" class="node"><rect fill="#76b7b2" width="10" height="3.0263157894736423"/></g><g y="496.0945392907005" x="790" transform="translate(790,496.0945392907005)" id="node-25" class="node"><rect fill="#59a14f" width="10" height="105.92105263157873"/></g><g y="595.1973684210525" x="526.6666666666666" transform="translate(526.6666666666666,595.1973684210525)" id="node-26" class="node"><rect fill="#edc949" width="10" height="10.592105263157919"/></g><g y="538.2894736842104" x="526.6666666666666" transform="translate(526.6666666666666,538.2894736842104)" id="node-27" class="node"><rect fill="#af7aa1" width="10" height="46.90789473684208"/></g><g y="612.0155919222792" x="790" transform="translate(790,612.0155919222792)" id="node-28" class="node"><rect fill="#ff9da7" width="10" height="39.34210526315769"/></g><g y="709.9342105263158" x="526.6666666666666" transform="translate(526.6666666666666,709.9342105263158)" id="node-29" class="node"><rect fill="#9c755f" width="10" height="3.026315789473756"/></g><g y="615.7894736842104" x="526.6666666666666" transform="translate(526.6666666666666,615.7894736842104)" id="node-30" class="node"><rect fill="#bab0ab" width="10" height="42.36842105263156"/></g><g y="668.157894736842" x="526.6666666666666" transform="translate(526.6666666666666,668.157894736842)" id="node-31" class="node"><rect fill="#4e79a7" width="10" height="31.77631578947387"/></g><g y="722.9605263157896" x="526.6666666666666" transform="translate(526.6666666666666,722.9605263157896)" id="node-32" class="node"><rect fill="#f28e2c" width="10" height="7.565789473684163"/></g><g y="529.9213344159755" x="0" transform="translate(0,529.9213344159755)" id="node-33" class="node"><rect fill="#e15759" width="10" height="145.26315789473665"/></g><g y="571.3941834322586" x="263.3333333333333" transform="translate(263.3333333333333,571.3941834322586)" id="node-34" class="node"><rect fill="#76b7b2" width="10" height="84.73684210526312"/></g><g y="685.5435362512598" x="263.3333333333333" transform="translate(263.3333333333333,685.5435362512598)" id="node-35" class="node"><rect fill="#59a14f" width="10" height="3.026315789473756"/></g><g y="513.2205553283485" x="263.3333333333333" transform="translate(263.3333333333333,513.2205553283485)" id="node-36" class="node"><rect fill="#edc949" width="10" height="46.907894736842195"/></g><g y="500.19423953887485" x="263.3333333333333" transform="translate(263.3333333333333,500.19423953887485)" id="node-37" class="node"><rect fill="#af7aa1" width="10" height="3.0263157894736423"/></g><g y="698.5698520407334" x="263.3333333333333" transform="translate(263.3333333333333,698.5698520407334)" id="node-38" class="node"><rect fill="#ff9da7" width="10" height="7.565789473684163"/></g><g y="872.2368421052633" x="526.6666666666666" transform="translate(526.6666666666666,872.2368421052633)" id="node-39" class="node"><rect fill="#9c755f" width="10" height="15.131578947368553"/></g><g y="805.0668095003969" x="790" transform="translate(790,805.0668095003969)" id="node-40" class="node"><rect fill="#bab0ab" width="10" height="57.5"/></g><g y="872.5668095003969" x="790" transform="translate(790,872.5668095003969)" id="node-41" class="node"><rect fill="#4e79a7" width="10" height="111.97368421052647"/></g><g y="761.1184210526317" x="526.6666666666666" transform="translate(526.6666666666666,761.1184210526317)" id="node-42" class="node"><rect fill="#f28e2c" width="10" height="3.026315789473756"/></g><g y="740.5263157894738" x="526.6666666666666" transform="translate(526.6666666666666,740.5263157894738)" id="node-43" class="node"><rect fill="#e15759" width="10" height="10.592105263157919"/></g><g y="774.1447368421054" x="526.6666666666666" transform="translate(526.6666666666666,774.1447368421054)" id="node-44" class="node"><rect fill="#76b7b2" width="10" height="16.644736842105203"/></g><g y="800.7894736842106" x="526.6666666666666" transform="translate(526.6666666666666,800.7894736842106)" id="node-45" class="node"><rect fill="#59a14f" width="10" height="19.67105263157896"/></g><g y="971.8421052631581" x="526.6666666666666" transform="translate(526.6666666666666,971.8421052631581)" id="node-46" class="node"><rect fill="#edc949" width="10" height="3.026315789473756"/></g><g y="984.8684210526319" x="526.6666666666666" transform="translate(526.6666666666666,984.8684210526319)" id="node-47" class="node"><rect fill="#af7aa1" width="10" height="15.131578947368553"/></g><g y="830.4605263157896" x="526.6666666666666" transform="translate(526.6666666666666,830.4605263157896)" id="node-48" class="node"><rect fill="#ff9da7" width="10" height="31.776315789473756"/></g><g y="951.2500000000002" x="526.6666666666666" transform="translate(526.6666666666666,951.2500000000002)" id="node-49" class="node"><rect fill="#9c755f" width="10" height="10.592105263157919"/></g><g y="897.3684210526319" x="526.6666666666666" transform="translate(526.6666666666666,897.3684210526319)" id="node-50" class="node"><rect fill="#bab0ab" width="10" height="43.881578947368325"/></g><g y="749.8962297817076" x="0" transform="translate(0,749.8962297817076)" id="node-51" class="node"><rect fill="#4e79a7" width="10" height="169.47368421052636"/></g><g y="729.1619573038913" x="263.3333333333333" transform="translate(263.3333333333333,729.1619573038913)" id="node-52" class="node"><rect fill="#f28e2c" width="10" height="148.2894736842104"/></g><g y="936.6892321323348" x="263.3333333333333" transform="translate(263.3333333333333,936.6892321323348)" id="node-53" class="node"><rect fill="#e15759" width="10" height="3.026315789473756"/></g><g y="950.6769713035632" x="263.3333333333333" transform="translate(263.3333333333333,950.6769713035632)" id="node-54" class="node"><rect fill="#76b7b2" width="10" height="15.131578947368439"/></g><g y="716.1356415144176" x="263.3333333333333" transform="translate(263.3333333333333,716.1356415144176)" id="node-55" class="node"><rect fill="#59a14f" width="10" height="3.026315789473756"/></g></g><g font-size="14" font-family="sans-serif" class="node-labels"><text text-anchor="end" dy="0.35em" y="247.03947368421044" x="520.6666666666666">Lohr 2012</text><text text-anchor="end" dy="0.35em" y="102.39903275037113" x="784">DLBCL Tier 1</text><text text-anchor="end" dy="0.35em" y="300.0306116977395" x="784">DLBCL Tier 2</text><text text-anchor="end" dy="0.35em" y="272.1710526315789" x="520.6666666666666">Schmitz 2018</text><text text-anchor="end" dy="0.35em" y="499.2105263157893" x="520.6666666666666">Pasqualucci 2001</text><text text-anchor="end" dy="0.35em" y="78.09210526315786" x="520.6666666666666">Morin 2013</text><text text-anchor="end" dy="0.35em" y="133.48684210526318" x="520.6666666666666">Arthur 2018</text><text text-anchor="end" dy="0.35em" y="371.01973684210515" x="520.6666666666666">Chapuy 2018</text><text text-anchor="end" dy="0.35em" y="160.1315789473684" x="520.6666666666666">Mareschal 2016</text><text text-anchor="end" dy="0.35em" y="173.15789473684208" x="520.6666666666666">Morin 2016</text><text text-anchor="end" dy="0.35em" y="301.0855263157894" x="520.6666666666666">Pasqualucci 2011</text><text text-anchor="end" dy="0.35em" y="231.74342105263148" x="520.6666666666666">Albuquerque 2017</text><text text-anchor="end" dy="0.35em" y="440.78947368421035" x="520.6666666666666">Reddy 2017</text><text text-anchor="end" dy="0.35em" y="18.9144736842105" x="520.6666666666666">Morin 2011</text><text text-anchor="end" dy="0.35em" y="332.2697368421052" x="520.6666666666666">Zhang 2013</text><text text-anchor="end" dy="0.35em" y="513.7499999999999" x="520.6666666666666">Pararajalingam 2020</text><text text-anchor="end" dy="0.35em" y="202.07236842105257" x="520.6666666666666">Hubschmann 2021</text><text text-anchor="start" dy="0.35em" y="187.63157894736844" x="16">DLBCL</text><text text-anchor="start" dy="0.35em" y="284.8026315789474" x="279.3333333333333">DLBCL-exome</text><text text-anchor="start" dy="0.35em" y="455.0324416302689" x="279.3333333333333">DLBCL-WGS/exome</text><text text-anchor="start" dy="0.35em" y="110.625" x="279.3333333333333">DLBCL-WGS</text><text text-anchor="start" dy="0.35em" y="18.91447368421052" x="279.3333333333333">DLBCL-RNA-seq/WGS</text><text text-anchor="start" dy="0.35em" y="432.49517806228954" x="279.3333333333333">DLBCL-Sanger</text><text text-anchor="end" dy="0.35em" y="526.7763157894735" x="520.6666666666666">Vandenbrand 2017</text><text text-anchor="end" dy="0.35em" y="549.0550656064898" x="784">MZL Tier 2</text><text text-anchor="end" dy="0.35em" y="600.4934210526314" x="520.6666666666666">Parry 2013</text><text text-anchor="end" dy="0.35em" y="561.7434210526314" x="520.6666666666666">Spina 2016</text><text text-anchor="end" dy="0.35em" y="631.6866445538581" x="784">MZL Tier 1</text><text text-anchor="end" dy="0.35em" y="711.4473684210527" x="520.6666666666666">Yan 2012</text><text text-anchor="end" dy="0.35em" y="636.9736842105262" x="520.6666666666666">Jallades 2017</text><text text-anchor="end" dy="0.35em" y="684.046052631579" x="520.6666666666666">Rossi 2012</text><text text-anchor="end" dy="0.35em" y="726.7434210526317" x="520.6666666666666">Rossi 2011</text><text text-anchor="start" dy="0.35em" y="602.5529133633438" x="16">MZL</text><text text-anchor="start" dy="0.35em" y="613.7626044848902" x="279.3333333333333">MZL-exome</text><text text-anchor="start" dy="0.35em" y="687.0566941459966" x="279.3333333333333">MZL-Panel</text><text text-anchor="start" dy="0.35em" y="536.6745026967697" x="279.3333333333333">MZL-exome/panel</text><text text-anchor="start" dy="0.35em" y="501.7073974336117" x="279.3333333333333">MZL-panel</text><text text-anchor="start" dy="0.35em" y="702.3527467775755" x="279.3333333333333">MZL-Sanger</text><text text-anchor="end" dy="0.35em" y="879.8026315789476" x="520.6666666666666">Tiacci 2018</text><text text-anchor="end" dy="0.35em" y="833.8168095003969" x="784">PMBL Tier 1</text><text text-anchor="end" dy="0.35em" y="928.5536516056601" x="784">PMBL Tier 2</text><text text-anchor="end" dy="0.35em" y="762.6315789473686" x="520.6666666666666">Otto 2012</text><text text-anchor="end" dy="0.35em" y="745.8223684210527" x="520.6666666666666">Wienand 2019</text><text text-anchor="end" dy="0.35em" y="782.467105263158" x="520.6666666666666">Sarkozy 2021</text><text text-anchor="end" dy="0.35em" y="810.6250000000001" x="520.6666666666666">Duns 2021</text><text text-anchor="end" dy="0.35em" y="973.355263157895" x="520.6666666666666">Weniger 2006</text><text text-anchor="end" dy="0.35em" y="992.4342105263162" x="520.6666666666666">Desch 2020</text><text text-anchor="end" dy="0.35em" y="846.3486842105265" x="520.6666666666666">Mottok 2019</text><text text-anchor="end" dy="0.35em" y="956.5460526315792" x="520.6666666666666">Gomez 2023</text><text text-anchor="end" dy="0.35em" y="919.3092105263161" x="520.6666666666666">Reichel 2015</text><text text-anchor="start" dy="0.35em" y="834.6330718869708" x="16">PMBL</text><text text-anchor="start" dy="0.35em" y="803.3066941459965" x="279.3333333333333">PMBL-exome</text><text text-anchor="start" dy="0.35em" y="938.2023900270717" x="279.3333333333333">PMBL-Sanger</text><text text-anchor="start" dy="0.35em" y="958.2427607772474" x="279.3333333333333">PMBL-panel</text><text text-anchor="start" dy="0.35em" y="717.6487994091544" x="279.3333333333333">PMBL-Array/Sanger</text></g><g stroke-opacity="0.5" fill="none" class="links"><g style="mix-blend-mode: multiply;" class="link"><path stroke-width="4.539473684210526" stroke="#f28e2c" d="M536.6666666666666,246.282894736842C663.3333333333333,246.282894736842,663.3333333333333,116.77403275037115,790,116.77403275037115"/></g><g style="mix-blend-mode: multiply;" class="link"><path stroke-width="1.513157894736842" stroke="#e15759" d="M536.6666666666666,249.30921052631567C663.3333333333333,249.30921052631567,663.3333333333333,275.06350643458165,790,275.06350643458165"/></g><g style="mix-blend-mode: multiply;" class="link"><path stroke-width="10.592105263157894" stroke="#f28e2c" d="M536.6666666666666,265.3618421052631C663.3333333333333,265.3618421052631,663.3333333333333,124.33982222405535,790,124.33982222405535"/></g><g style="mix-blend-mode: multiply;" class="link"><path stroke-width="13.618421052631579" stroke="#e15759" d="M536.6666666666666,277.46710526315786C663.3333333333333,277.46710526315786,663.3333333333333,282.6292959082658,790,282.6292959082658"/></g><g style="mix-blend-mode: multiply;" class="link"><path stroke-width="3.026315789473684" stroke="#f28e2c" d="M536.6666666666666,497.69736842105243C663.3333333333333,497.69736842105243,663.3333333333333,168.97798011879217,790,168.97798011879217"/></g><g style="mix-blend-mode: multiply;" class="link"><path stroke-width="3.026315789473684" stroke="#e15759" d="M536.6666666666666,500.72368421052613C663.3333333333333,500.72368421052613,663.3333333333333,415.0306116977394,790,415.0306116977394"/></g><g style="mix-blend-mode: multiply;" class="link"><path stroke-width="16.644736842105264" stroke="#f28e2c" d="M536.6666666666666,56.15131578947363C663.3333333333333,56.15131578947363,663.3333333333333,78.94508538195011,790,78.94508538195011"/></g><g style="mix-blend-mode: multiply;" class="link"><path stroke-width="43.88157894736842" stroke="#e15759" d="M536.6666666666666,86.41447368421046C663.3333333333333,86.41447368421046,663.3333333333333,203.94508538195007,790,203.94508538195007"/></g><g style="mix-blend-mode: multiply;" class="link"><path stroke-width="12.105263157894736" stroke="#f28e2c" d="M536.6666666666666,124.40789473684211C663.3333333333333,124.40789473684211,663.3333333333333,93.32008538195011,790,93.32008538195011"/></g><g style="mix-blend-mode: multiply;" class="link"><path stroke-width="18.157894736842103" stroke="#e15759" d="M536.6666666666666,139.53947368421052C663.3333333333333,139.53947368421052,663.3333333333333,234.9648222240553,790,234.9648222240553"/></g><g style="mix-blend-mode: multiply;" class="link"><path stroke-width="3.026315789473684" stroke="#f28e2c" d="M536.6666666666666,358.157894736842C663.3333333333333,358.157894736842,663.3333333333333,155.3595590661606,790,155.3595590661606"/></g><g style="mix-blend-mode: multiply;" class="link"><path stroke-width="25.723684210526315" stroke="#e15759" d="M536.6666666666666,372.5328947368421C663.3333333333333,372.5328947368421,663.3333333333333,320.45824327668686,790,320.45824327668686"/></g><g style="mix-blend-mode: multiply;" class="link"><path stroke-width="3.026315789473684" stroke="#f28e2c" d="M536.6666666666666,160.13157894736844C663.3333333333333,160.13157894736844,663.3333333333333,100.88587485563431,790,100.88587485563431"/></g><g style="mix-blend-mode: multiply;" class="link"><path stroke-width="3.026315789473684" stroke="#f28e2c" d="M536.6666666666666,173.15789473684208C663.3333333333333,173.15789473684208,663.3333333333333,103.912190645108,790,103.912190645108"/></g><g style="mix-blend-mode: multiply;" class="link"><path stroke-width="4.539473684210526" stroke="#f28e2c" d="M536.6666666666666,296.5460526315789C663.3333333333333,296.5460526315789,663.3333333333333,131.90561169773957,790,131.90561169773957"/></g><g style="mix-blend-mode: multiply;" class="link"><path stroke-width="6.052631578947368" stroke="#e15759" d="M536.6666666666666,304.86842105263156C663.3333333333333,304.86842105263156,663.3333333333333,292.4648222240553,790,292.4648222240553"/></g><g style="mix-blend-mode: multiply;" class="link"><path stroke-width="4.539473684210526" stroke="#f28e2c" d="M536.6666666666666,231.74342105263148C663.3333333333333,231.74342105263148,663.3333333333333,112.23455906616063,790,112.23455906616063"/></g><g style="mix-blend-mode: multiply;" class="link"><path stroke-width="10.592105263157894" stroke="#f28e2c" d="M536.6666666666666,400.69078947368405C663.3333333333333,400.69078947368405,663.3333333333333,162.1687695924764,790,162.1687695924764"/></g><g style="mix-blend-mode: multiply;" class="link"><path stroke-width="80.19736842105263" stroke="#e15759" d="M536.6666666666666,446.0855263157893C663.3333333333333,446.0855263157893,663.3333333333333,373.4187695924763,790,373.4187695924763"/></g><g style="mix-blend-mode: multiply;" class="link"><path stroke-width="36.315789473684205" stroke="#f28e2c" d="M536.6666666666666,18.157894736842103C663.3333333333333,18.157894736842103,663.3333333333333,52.464822224055375,790,52.464822224055375"/></g><g style="mix-blend-mode: multiply;" class="link"><path stroke-width="1.513157894736842" stroke="#e15759" d="M536.6666666666666,37.07236842105262C663.3333333333333,37.07236842105262,663.3333333333333,181.2477169608974,790,181.2477169608974"/></g><g style="mix-blend-mode: multiply;" class="link"><path stroke-width="3.026315789473684" stroke="#f28e2c" d="M536.6666666666666,300.328947368421C663.3333333333333,300.328947368421,663.3333333333333,135.68850643458168,790,135.68850643458168"/></g><g style="mix-blend-mode: multiply;" class="link"><path stroke-width="16.644736842105264" stroke="#f28e2c" d="M536.6666666666666,326.21710526315786C663.3333333333333,326.21710526315786,663.3333333333333,145.52403275037113,790,145.52403275037113"/></g><g style="mix-blend-mode: multiply;" class="link"><path stroke-width="12.105263157894736" stroke="#e15759" d="M536.6666666666666,340.5921052631578C663.3333333333333,340.5921052631578,663.3333333333333,301.5437695924763,790,301.5437695924763"/></g><g style="mix-blend-mode: multiply;" class="link"><path stroke-width="3.026315789473684" stroke="#e15759" d="M536.6666666666666,513.7499999999999C663.3333333333333,513.7499999999999,663.3333333333333,418.0569274872131,790,418.0569274872131"/></g><g style="mix-blend-mode: multiply;" class="link"><path stroke-width="4.539473684210526" stroke="#f28e2c" d="M536.6666666666666,186.9407894736842C663.3333333333333,186.9407894736842,663.3333333333333,107.69508538195011,790,107.69508538195011"/></g><g style="mix-blend-mode: multiply;" class="link"><path stroke-width="30.263157894736842" stroke="#e15759" d="M536.6666666666666,204.34210526315786C663.3333333333333,204.34210526315786,663.3333333333333,259.1753485398448,790,259.1753485398448"/></g><g style="mix-blend-mode: multiply;" class="link"><path stroke-width="28.75" stroke="#9c755f" d="M10,177.79605263157896C136.66666666666666,177.79605263157896,136.66666666666666,197.79605263157896,263.3333333333333,197.79605263157896"/></g><g style="mix-blend-mode: multiply;" class="link"><path stroke-width="28.75" stroke="#59a14f" d="M273.3333333333333,252.26973684210523C400,252.26973684210523,400,332.2697368421052,526.6666666666666,332.2697368421052"/></g><g style="mix-blend-mode: multiply;" class="link"><path stroke-width="3.026315789473684" stroke="#bab0ab" d="M10,373.7499999999999C136.66666666666666,373.7499999999999,136.66666666666666,455.0324416302689,263.3333333333333,455.0324416302689"/></g><g style="mix-blend-mode: multiply;" class="link"><path stroke-width="3.026315789473684" stroke="#edc949" d="M273.3333333333333,455.0324416302689C400,455.0324416302689,400,513.7499999999999,526.6666666666666,513.7499999999999"/></g><g style="mix-blend-mode: multiply;" class="link"><path stroke-width="34.80263157894737" stroke="#4e79a7" d="M10,55.23026315789473C136.66666666666666,55.23026315789473,136.66666666666666,65.23026315789473,263.3333333333333,65.23026315789473"/></g><g style="mix-blend-mode: multiply;" class="link"><path stroke-width="34.80263157894737" stroke="#af7aa1" d="M273.3333333333333,156.01973684210526C400,156.01973684210526,400,202.0723684210526,526.6666666666666,202.0723684210526"/></g><g style="mix-blend-mode: multiply;" class="link"><path stroke-width="3.026315789473684" stroke="#9c755f" d="M10,193.6842105263158C136.66666666666666,193.6842105263158,136.66666666666666,213.6842105263158,263.3333333333333,213.6842105263158"/></g><g style="mix-blend-mode: multiply;" class="link"><path stroke-width="3.026315789473684" stroke="#9c755f" d="M273.3333333333333,184.9342105263158C400,184.9342105263158,400,160.13157894736844,526.6666666666666,160.13157894736844"/></g><g style="mix-blend-mode: multiply;" class="link"><path stroke-width="4.539473684210526" stroke="#9c755f" d="M10,197.4671052631579C136.66666666666666,197.4671052631579,136.66666666666666,217.4671052631579,263.3333333333333,217.4671052631579"/></g><g style="mix-blend-mode: multiply;" class="link"><path stroke-width="4.539473684210526" stroke="#f28e2c" d="M273.3333333333333,191.74342105263156C400,191.74342105263156,400,231.74342105263148,526.6666666666666,231.74342105263148"/></g><g style="mix-blend-mode: multiply;" class="link"><path stroke-width="10.592105263157894" stroke="#9c755f" d="M10,205.0328947368421C136.66666666666666,205.0328947368421,136.66666666666666,225.0328947368421,263.3333333333333,225.0328947368421"/></g><g style="mix-blend-mode: multiply;" class="link"><path stroke-width="10.592105263157894" stroke="#4e79a7" d="M273.3333333333333,229.57236842105263C400,229.57236842105263,400,299.5723684210526,526.6666666666666,299.5723684210526"/></g><g style="mix-blend-mode: multiply;" class="link"><path stroke-width="3.026315789473684" stroke="#9c755f" d="M10,211.8421052631579C136.66666666666666,211.8421052631579,136.66666666666666,231.8421052631579,263.3333333333333,231.8421052631579"/></g><g style="mix-blend-mode: multiply;" class="link"><path stroke-width="3.026315789473684" stroke="#bab0ab" d="M273.3333333333333,187.96052631578948C400,187.96052631578948,400,173.15789473684208,526.6666666666666,173.15789473684208"/></g><g style="mix-blend-mode: multiply;" class="link"><path stroke-width="90.78947368421052" stroke="#9c755f" d="M10,258.75C136.66666666666666,258.75,136.66666666666666,278.75,263.3333333333333,278.75"/></g><g style="mix-blend-mode: multiply;" class="link"><path stroke-width="90.78947368421052" stroke="#e15759" d="M273.3333333333333,340.78947368421046C400,340.78947368421046,400,440.78947368421035,526.6666666666666,440.78947368421035"/></g><g style="mix-blend-mode: multiply;" class="link"><path stroke-width="3.026315789473684" stroke="#9c755f" d="M10,305.657894736842C136.66666666666666,305.657894736842,136.66666666666666,325.657894736842,263.3333333333333,325.657894736842"/></g><g style="mix-blend-mode: multiply;" class="link"><path stroke-width="3.026315789473684" stroke="#4e79a7" d="M273.3333333333333,236.3815789473684C400,236.3815789473684,400,306.3815789473684,526.6666666666666,306.3815789473684"/></g><g style="mix-blend-mode: multiply;" class="link"><path stroke-width="37.82894736842105" stroke="#f28e2c" d="M10,18.914473684210524C136.66666666666666,18.914473684210524,136.66666666666666,18.914473684210524,263.3333333333333,18.914473684210524"/></g><g style="mix-blend-mode: multiply;" class="link"><path stroke-width="37.82894736842105" stroke="#76b7b2" d="M273.3333333333333,18.914473684210524C400,18.914473684210524,400,18.914473684210524,526.6666666666666,18.914473684210524"/></g><g style="mix-blend-mode: multiply;" class="link"><path stroke-width="28.75" stroke="#9c755f" d="M10,321.5460526315789C136.66666666666666,321.5460526315789,136.66666666666666,341.5460526315789,263.3333333333333,341.5460526315789"/></g><g style="mix-blend-mode: multiply;" class="link"><path stroke-width="28.75" stroke="#ff9da7" d="M273.3333333333333,281.0197368421052C400,281.0197368421052,400,371.0197368421052,526.6666666666666,371.0197368421052"/></g><g style="mix-blend-mode: multiply;" class="link"><path stroke-width="30.263157894736842" stroke="#4e79a7" d="M10,87.76315789473684C136.66666666666666,87.76315789473684,136.66666666666666,97.76315789473684,263.3333333333333,97.76315789473684"/></g><g style="mix-blend-mode: multiply;" class="link"><path stroke-width="30.263157894736842" stroke="#af7aa1" d="M273.3333333333333,123.48684210526315C400,123.48684210526315,400,133.48684210526315,526.6666666666666,133.48684210526315"/></g><g style="mix-blend-mode: multiply;" class="link"><path stroke-width="6.052631578947368" stroke="#9c755f" d="M10,338.9473684210526C136.66666666666666,338.9473684210526,136.66666666666666,358.9473684210526,263.3333333333333,358.9473684210526"/></g><g style="mix-blend-mode: multiply;" class="link"><path stroke-width="6.052631578947368" stroke="#4e79a7" d="M273.3333333333333,197.0394736842105C400,197.0394736842105,400,247.0394736842104,526.6666666666666,247.0394736842104"/></g><g style="mix-blend-mode: multiply;" class="link"><path stroke-width="24.210526315789473" stroke="#9c755f" d="M10,354.078947368421C136.66666666666666,354.078947368421,136.66666666666666,374.078947368421,263.3333333333333,374.078947368421"/></g><g style="mix-blend-mode: multiply;" class="link"><path stroke-width="24.210526315789473" stroke="#76b7b2" d="M273.3333333333333,212.17105263157893C400,212.17105263157893,400,272.1710526315789,526.6666666666666,272.1710526315789"/></g><g style="mix-blend-mode: multiply;" class="link"><path stroke-width="60.526315789473685" stroke="#4e79a7" d="M10,133.1578947368421C136.66666666666666,133.1578947368421,136.66666666666666,143.1578947368421,263.3333333333333,143.1578947368421"/></g><g style="mix-blend-mode: multiply;" class="link"><path stroke-width="60.526315789473685" stroke="#edc949" d="M273.3333333333333,78.09210526315789C400,78.09210526315789,400,78.09210526315783,526.6666666666666,78.09210526315783"/></g><g style="mix-blend-mode: multiply;" class="link"><path stroke-width="6.052631578947368" stroke="#e15759" d="M10,369.2105263157894C136.66666666666666,369.2105263157894,136.66666666666666,432.49517806228954,263.3333333333333,432.49517806228954"/></g><g style="mix-blend-mode: multiply;" class="link"><path stroke-width="6.052631578947368" stroke="#59a14f" d="M273.3333333333333,432.49517806228954C400,432.49517806228954,400,499.2105263157893,526.6666666666666,499.2105263157893"/></g><g style="mix-blend-mode: multiply;" class="link"><path stroke-width="3.026315789473684" stroke="#59a14f" d="M536.6666666666666,526.7763157894736C663.3333333333333,526.7763157894736,663.3333333333333,497.6076971854373,790,497.6076971854373"/></g><g style="mix-blend-mode: multiply;" class="link"><path stroke-width="10.592105263157894" stroke="#59a14f" d="M536.6666666666666,600.4934210526314C663.3333333333333,600.4934210526314,663.3333333333333,539.2195392907005,790,539.2195392907005"/></g><g style="mix-blend-mode: multiply;" class="link"><path stroke-width="12.105263157894736" stroke="#ff9da7" d="M536.6666666666666,579.1447368421052C663.3333333333333,579.1447368421052,663.3333333333333,618.0682235012266,790,618.0682235012266"/></g><g style="mix-blend-mode: multiply;" class="link"><path stroke-width="34.80263157894737" stroke="#59a14f" d="M536.6666666666666,555.690789473684C663.3333333333333,555.690789473684,663.3333333333333,516.5221708696479,790,516.5221708696479"/></g><g style="mix-blend-mode: multiply;" class="link"><path stroke-width="3.026315789473684" stroke="#ff9da7" d="M536.6666666666666,711.4473684210527C663.3333333333333,711.4473684210527,663.3333333333333,643.7919077117529,790,643.7919077117529"/></g><g style="mix-blend-mode: multiply;" class="link"><path stroke-width="3.026315789473684" stroke="#ff9da7" d="M536.6666666666666,656.6447368421052C663.3333333333333,656.6447368421052,663.3333333333333,625.6340129749108,790,625.6340129749108"/></g><g style="mix-blend-mode: multiply;" class="link"><path stroke-width="39.34210526315789" stroke="#59a14f" d="M536.6666666666666,635.4605263157894C663.3333333333333,635.4605263157894,663.3333333333333,564.1866445538584,790,564.1866445538584"/></g><g style="mix-blend-mode: multiply;" class="link"><path stroke-width="15.131578947368421" stroke="#ff9da7" d="M536.6666666666666,692.3684210526314C663.3333333333333,692.3684210526314,663.3333333333333,634.7129603433317,790,634.7129603433317"/></g><g style="mix-blend-mode: multiply;" class="link"><path stroke-width="16.644736842105264" stroke="#59a14f" d="M536.6666666666666,676.4802631578946C663.3333333333333,676.4802631578946,663.3333333333333,592.18006560649,790,592.18006560649"/></g><g style="mix-blend-mode: multiply;" class="link"><path stroke-width="6.052631578947368" stroke="#ff9da7" d="M536.6666666666666,727.5000000000001C663.3333333333333,727.5000000000001,663.3333333333333,648.3313813959633,790,648.3313813959633"/></g><g style="mix-blend-mode: multiply;" class="link"><path stroke-width="1.513157894736842" stroke="#59a14f" d="M536.6666666666666,723.717105263158C663.3333333333333,723.717105263158,663.3333333333333,601.2590129749111,790,601.2590129749111"/></g><g style="mix-blend-mode: multiply;" class="link"><path stroke-width="42.368421052631575" stroke="#76b7b2" d="M10,601.039755468607C136.66666666666666,601.039755468607,136.66666666666666,592.5783939585745,263.3333333333333,592.5783939585745"/></g><g style="mix-blend-mode: multiply;" class="link"><path stroke-width="42.368421052631575" stroke="#bab0ab" d="M273.3333333333333,603.1704992217324C400,603.1704992217324,400,636.9736842105262,526.6666666666666,636.9736842105262"/></g><g style="mix-blend-mode: multiply;" class="link"><path stroke-width="31.77631578947368" stroke="#76b7b2" d="M10,638.1121238896596C136.66666666666666,638.1121238896596,136.66666666666666,629.650762379627,263.3333333333333,629.650762379627"/></g><g style="mix-blend-mode: multiply;" class="link"><path stroke-width="31.77631578947368" stroke="#4e79a7" d="M273.3333333333333,640.242867642785C400,640.242867642785,400,684.0460526315788,526.6666666666666,684.0460526315788"/></g><g style="mix-blend-mode: multiply;" class="link"><path stroke-width="3.026315789473684" stroke="#59a14f" d="M10,666.1055449422912C136.66666666666666,666.1055449422912,136.66666666666666,687.0566941459966,263.3333333333333,687.0566941459966"/></g><g style="mix-blend-mode: multiply;" class="link"><path stroke-width="3.026315789473684" stroke="#9c755f" d="M273.3333333333333,687.0566941459966C400,687.0566941459966,400,711.4473684210527,526.6666666666666,711.4473684210527"/></g><g style="mix-blend-mode: multiply;" class="link"><path stroke-width="46.9078947368421" stroke="#edc949" d="M10,556.4015975738702C136.66666666666666,556.4015975738702,136.66666666666666,536.6745026967695,263.3333333333333,536.6745026967695"/></g><g style="mix-blend-mode: multiply;" class="link"><path stroke-width="46.9078947368421" stroke="#af7aa1" d="M273.3333333333333,536.6745026967695C400,536.6745026967695,400,561.7434210526314,526.6666666666666,561.7434210526314"/></g><g style="mix-blend-mode: multiply;" class="link"><path stroke-width="10.592105263157894" stroke="#76b7b2" d="M10,659.2963344159754C136.66666666666666,659.2963344159754,136.66666666666666,650.8349729059428,263.3333333333333,650.8349729059428"/></g><g style="mix-blend-mode: multiply;" class="link"><path stroke-width="10.592105263157894" stroke="#edc949" d="M273.3333333333333,576.6902360638376C400,576.6902360638376,400,600.4934210526314,526.6666666666666,600.4934210526314"/></g><g style="mix-blend-mode: multiply;" class="link"><path stroke-width="3.026315789473684" stroke="#af7aa1" d="M10,531.4344923107124C136.66666666666666,531.4344923107124,136.66666666666666,501.7073974336117,263.3333333333333,501.7073974336117"/></g><g style="mix-blend-mode: multiply;" class="link"><path stroke-width="3.026315789473684" stroke="#76b7b2" d="M273.3333333333333,501.7073974336117C400,501.7073974336117,400,526.7763157894736,526.6666666666666,526.7763157894736"/></g><g style="mix-blend-mode: multiply;" class="link"><path stroke-width="7.565789473684211" stroke="#ff9da7" d="M10,671.40159757387C136.66666666666666,671.40159757387,136.66666666666666,702.3527467775755,263.3333333333333,702.3527467775755"/></g><g style="mix-blend-mode: multiply;" class="link"><path stroke-width="7.565789473684211" stroke="#f28e2c" d="M273.3333333333333,702.3527467775755C400,702.3527467775755,400,726.7434210526317,526.6666666666666,726.7434210526317"/></g><g style="mix-blend-mode: multiply;" class="link"><path stroke-width="1.513157894736842" stroke="#bab0ab" d="M536.6666666666666,872.9934210526318C663.3333333333333,872.9934210526318,663.3333333333333,839.1128621319757,790,839.1128621319757"/></g><g style="mix-blend-mode: multiply;" class="link"><path stroke-width="13.618421052631579" stroke="#4e79a7" d="M536.6666666666666,880.5592105263161C663.3333333333333,880.5592105263161,663.3333333333333,927.7970726582915,790,927.7970726582915"/></g><g style="mix-blend-mode: multiply;" class="link"><path stroke-width="3.026315789473684" stroke="#bab0ab" d="M536.6666666666666,762.6315789473686C663.3333333333333,762.6315789473686,663.3333333333333,812.6325989740811,790,812.6325989740811"/></g><g style="mix-blend-mode: multiply;" class="link"><path stroke-width="6.052631578947368" stroke="#bab0ab" d="M536.6666666666666,743.5526315789474C663.3333333333333,743.5526315789474,663.3333333333333,808.0931252898705,790,808.0931252898705"/></g><g style="mix-blend-mode: multiply;" class="link"><path stroke-width="4.539473684210526" stroke="#4e79a7" d="M536.6666666666666,748.8486842105265C663.3333333333333,748.8486842105265,663.3333333333333,874.8365463425022,790,874.8365463425022"/></g><g style="mix-blend-mode: multiply;" class="link"><path stroke-width="7.565789473684211" stroke="#bab0ab" d="M536.6666666666666,777.9276315789475C663.3333333333333,777.9276315789475,663.3333333333333,817.92865160566,790,817.92865160566"/></g><g style="mix-blend-mode: multiply;" class="link"><path stroke-width="9.078947368421051" stroke="#4e79a7" d="M536.6666666666666,786.2500000000001C663.3333333333333,786.2500000000001,663.3333333333333,881.6457568688179,790,881.6457568688179"/></g><g style="mix-blend-mode: multiply;" class="link"><path stroke-width="7.565789473684211" stroke="#bab0ab" d="M536.6666666666666,804.5723684210527C663.3333333333333,804.5723684210527,663.3333333333333,825.4944410793441,790,825.4944410793441"/></g><g style="mix-blend-mode: multiply;" class="link"><path stroke-width="12.105263157894736" stroke="#4e79a7" d="M536.6666666666666,814.4078947368422C663.3333333333333,814.4078947368422,663.3333333333333,892.2378621319758,790,892.2378621319758"/></g><g style="mix-blend-mode: multiply;" class="link"><path stroke-width="1.513157894736842" stroke="#bab0ab" d="M536.6666666666666,972.5986842105266C663.3333333333333,972.5986842105266,663.3333333333333,860.2970726582915,790,860.2970726582915"/></g><g style="mix-blend-mode: multiply;" class="link"><path stroke-width="1.513157894736842" stroke="#4e79a7" d="M536.6666666666666,974.1118421052635C663.3333333333333,974.1118421052635,663.3333333333333,970.165493710923,790,970.165493710923"/></g><g style="mix-blend-mode: multiply;" class="link"><path stroke-width="1.513157894736842" stroke="#bab0ab" d="M536.6666666666666,985.6250000000003C663.3333333333333,985.6250000000003,663.3333333333333,861.8102305530284,790,861.8102305530284"/></g><g style="mix-blend-mode: multiply;" class="link"><path stroke-width="13.618421052631579" stroke="#4e79a7" d="M536.6666666666666,993.1907894736846C663.3333333333333,993.1907894736846,663.3333333333333,977.7312831846073,790,977.7312831846073"/></g><g style="mix-blend-mode: multiply;" class="link"><path stroke-width="9.078947368421051" stroke="#bab0ab" d="M536.6666666666666,835.0000000000001C663.3333333333333,835.0000000000001,663.3333333333333,833.8168095003967,790,833.8168095003967"/></g><g style="mix-blend-mode: multiply;" class="link"><path stroke-width="22.69736842105263" stroke="#4e79a7" d="M536.6666666666666,850.888157894737C663.3333333333333,850.888157894737,663.3333333333333,909.6391779214495,790,909.6391779214495"/></g><g style="mix-blend-mode: multiply;" class="link"><path stroke-width="3.026315789473684" stroke="#bab0ab" d="M536.6666666666666,952.7631578947371C663.3333333333333,952.7631578947371,663.3333333333333,858.0273358161863,790,858.0273358161863"/></g><g style="mix-blend-mode: multiply;" class="link"><path stroke-width="7.565789473684211" stroke="#4e79a7" d="M536.6666666666666,958.059210526316C663.3333333333333,958.059210526316,663.3333333333333,965.6260200267125,790,965.6260200267125"/></g><g style="mix-blend-mode: multiply;" class="link"><path stroke-width="16.644736842105264" stroke="#bab0ab" d="M536.6666666666666,905.6907894736845C663.3333333333333,905.6907894736845,663.3333333333333,848.1918095003967,790,848.1918095003967"/></g><g style="mix-blend-mode: multiply;" class="link"><path stroke-width="27.236842105263158" stroke="#4e79a7" d="M536.6666666666666,927.6315789473688C663.3333333333333,927.6315789473688,663.3333333333333,948.2247042372388,790,948.2247042372388"/></g><g style="mix-blend-mode: multiply;" class="link"><path stroke-width="10.592105263157894" stroke="#f28e2c" d="M10,758.2185982027602C136.66666666666666,758.2185982027602,136.66666666666666,734.4580099354703,263.3333333333333,734.4580099354703"/></g><g style="mix-blend-mode: multiply;" class="link"><path stroke-width="10.592105263157894" stroke="#9c755f" d="M273.3333333333333,872.155378356523C400,872.155378356523,400,956.5460526315792,526.6666666666666,956.5460526315792"/></g><g style="mix-blend-mode: multiply;" class="link"><path stroke-width="43.88157894736842" stroke="#f28e2c" d="M10,785.4554403080233C136.66666666666666,785.4554403080233,136.66666666666666,761.6948520407334,263.3333333333333,761.6948520407334"/></g><g style="mix-blend-mode: multiply;" class="link"><path stroke-width="43.88157894736842" stroke="#bab0ab" d="M273.3333333333333,844.9185362512598C400,844.9185362512598,400,919.3092105263161,526.6666666666666,919.3092105263161"/></g><g style="mix-blend-mode: multiply;" class="link"><path stroke-width="3.026315789473684" stroke="#e15759" d="M10,902.7251771501287C136.66666666666666,902.7251771501287,136.66666666666666,938.2023900270717,263.3333333333333,938.2023900270717"/></g><g style="mix-blend-mode: multiply;" class="link"><path stroke-width="3.026315789473684" stroke="#edc949" d="M273.3333333333333,938.2023900270717C400,938.2023900270717,400,973.355263157895,526.6666666666666,973.355263157895"/></g><g style="mix-blend-mode: multiply;" class="link"><path stroke-width="15.131578947368421" stroke="#76b7b2" d="M10,911.8041245185497C136.66666666666666,911.8041245185497,136.66666666666666,958.2427607772473,263.3333333333333,958.2427607772473"/></g><g style="mix-blend-mode: multiply;" class="link"><path stroke-width="15.131578947368421" stroke="#af7aa1" d="M273.3333333333333,958.2427607772473C400,958.2427607772473,400,992.4342105263161,526.6666666666666,992.4342105263161"/></g><g style="mix-blend-mode: multiply;" class="link"><path stroke-width="31.77631578947368" stroke="#f28e2c" d="M10,823.2843876764445C136.66666666666666,823.2843876764445,136.66666666666666,799.5237994091545,263.3333333333333,799.5237994091545"/></g><g style="mix-blend-mode: multiply;" class="link"><path stroke-width="31.77631578947368" stroke="#ff9da7" d="M273.3333333333333,791.9580099354704C400,791.9580099354704,400,846.3486842105265,526.6666666666666,846.3486842105265"/></g><g style="mix-blend-mode: multiply;" class="link"><path stroke-width="19.671052631578945" stroke="#f28e2c" d="M10,849.0080718869707C136.66666666666666,849.0080718869707,136.66666666666666,825.2474836196808,263.3333333333333,825.2474836196808"/></g><g style="mix-blend-mode: multiply;" class="link"><path stroke-width="19.671052631578945" stroke="#59a14f" d="M273.3333333333333,766.234325724944C400,766.234325724944,400,810.6250000000001,526.6666666666666,810.6250000000001"/></g><g style="mix-blend-mode: multiply;" class="link"><path stroke-width="16.644736842105264" stroke="#f28e2c" d="M10,867.1659666238128C136.66666666666666,867.1659666238128,136.66666666666666,843.4053783565229,263.3333333333333,843.4053783565229"/></g><g style="mix-blend-mode: multiply;" class="link"><path stroke-width="16.644736842105264" stroke="#76b7b2" d="M273.3333333333333,748.0764309881018C400,748.0764309881018,400,782.467105263158,526.6666666666666,782.467105263158"/></g><g style="mix-blend-mode: multiply;" class="link"><path stroke-width="10.592105263157894" stroke="#f28e2c" d="M10,880.7843876764445C136.66666666666666,880.7843876764445,136.66666666666666,857.0237994091545,263.3333333333333,857.0237994091545"/></g><g style="mix-blend-mode: multiply;" class="link"><path stroke-width="10.592105263157894" stroke="#e15759" d="M273.3333333333333,734.4580099354703C400,734.4580099354703,400,745.8223684210527,526.6666666666666,745.8223684210527"/></g><g style="mix-blend-mode: multiply;" class="link"><path stroke-width="15.131578947368421" stroke="#f28e2c" d="M10,893.6462297817076C136.66666666666666,893.6462297817076,136.66666666666666,869.8856415144177,263.3333333333333,869.8856415144177"/></g><g style="mix-blend-mode: multiply;" class="link"><path stroke-width="15.131578947368421" stroke="#9c755f" d="M273.3333333333333,815.4119573038913C400,815.4119573038913,400,879.8026315789475,526.6666666666666,879.8026315789475"/></g><g style="mix-blend-mode: multiply;" class="link"><path stroke-width="3.026315789473684" stroke="#59a14f" d="M10,751.4093876764445C136.66666666666666,751.4093876764445,136.66666666666666,717.6487994091544,263.3333333333333,717.6487994091544"/></g><g style="mix-blend-mode: multiply;" class="link"><path stroke-width="3.026315789473684" stroke="#f28e2c" d="M273.3333333333333,717.6487994091544C400,717.6487994091544,400,762.6315789473686,526.6666666666666,762.6315789473686"/></g></g></svg>