<svg aria-roledescription="sankey" role="graphics-document document" viewBox="0 -0.9012813568115234 800 1005.2756958007812" height="1005.2756958007812" xmlns:xlink="http://www.w3.org/1999/xlink" xmlns="http://www.w3.org/2000/svg" width="800" id="my-svg" style="background-color: white;"><style>#my-svg{font-family:"trebuchet ms",verdana,arial,sans-serif;font-size:16px;fill:#333;}#my-svg .error-icon{fill:#552222;}#my-svg .error-text{fill:#552222;stroke:#552222;}#my-svg .edge-thickness-normal{stroke-width:2px;}#my-svg .edge-thickness-thick{stroke-width:3.5px;}#my-svg .edge-pattern-solid{stroke-dasharray:0;}#my-svg .edge-pattern-dashed{stroke-dasharray:3;}#my-svg .edge-pattern-dotted{stroke-dasharray:2;}#my-svg .marker{fill:#333333;stroke:#333333;}#my-svg .marker.cross{stroke:#333333;}#my-svg svg{font-family:"trebuchet ms",verdana,arial,sans-serif;font-size:16px;}#my-svg :root{--mermaid-font-family:"trebuchet ms",verdana,arial,sans-serif;}</style><g/><g class="nodes"><g y="120.38461538461524" x="526.6666666666666" transform="translate(526.6666666666666,120.38461538461524)" id="node-1" class="node"><rect fill="#4e79a7" width="10" height="2.8205128205128176"/></g><g y="166.9032201643169" x="790" transform="translate(790,166.9032201643169)" id="node-2" class="node"><rect fill="#f28e2c" width="10" height="63.46153846153851"/></g><g y="45.492963754060504" x="790" transform="translate(790,45.492963754060504)" id="node-3" class="node"><rect fill="#e15759" width="10" height="111.41025641025641"/></g><g y="133.20512820512806" x="526.6666666666666" transform="translate(526.6666666666666,133.20512820512806)" id="node-4" class="node"><rect fill="#76b7b2" width="10" height="28.205128205128233"/></g><g y="286.41025641025635" x="526.6666666666666" transform="translate(526.6666666666666,286.41025641025635)" id="node-5" class="node"><rect fill="#59a14f" width="10" height="2.8205128205128176"/></g><g y="75.70512820512806" x="526.6666666666666" transform="translate(526.6666666666666,75.70512820512806)" id="node-6" class="node"><rect fill="#edc949" width="10" height="11.28205128205127"/></g><g y="0" x="526.6666666666666" transform="translate(526.6666666666666,0)" id="node-7" class="node"><rect fill="#af7aa1" width="10" height="13.397435897435855"/></g><g y="212.6923076923076" x="526.6666666666666" transform="translate(526.6666666666666,212.6923076923076)" id="node-8" class="node"><rect fill="#ff9da7" width="10" height="14.102564102564088"/></g><g y="183.5256410256409" x="526.6666666666666" transform="translate(526.6666666666666,183.5256410256409)" id="node-9" class="node"><rect fill="#9c755f" width="10" height="7.756410256410277"/></g><g y="236.79487179487168" x="526.6666666666666" transform="translate(526.6666666666666,236.79487179487168)" id="node-10" class="node"><rect fill="#bab0ab" width="10" height="1.4102564102564088"/></g><g y="171.4102564102563" x="526.6666666666666" transform="translate(526.6666666666666,171.4102564102563)" id="node-11" class="node"><rect fill="#4e79a7" width="10" height="2.115384615384613"/></g><g y="201.28205128205119" x="526.6666666666666" transform="translate(526.6666666666666,201.28205128205119)" id="node-12" class="node"><rect fill="#f28e2c" width="10" height="1.4102564102564088"/></g><g y="334.74358974358967" x="526.6666666666666" transform="translate(526.6666666666666,334.74358974358967)" id="node-13" class="node"><rect fill="#e15759" width="10" height="28.20512820512812"/></g><g y="23.397435897435855" x="526.6666666666666" transform="translate(526.6666666666666,23.397435897435855)" id="node-14" class="node"><rect fill="#76b7b2" width="10" height="42.30769230769221"/></g><g y="96.98717948717933" x="526.6666666666666" transform="translate(526.6666666666666,96.98717948717933)" id="node-15" class="node"><rect fill="#59a14f" width="10" height="13.397435897435912"/></g><g y="248.2051282051281" x="526.6666666666666" transform="translate(526.6666666666666,248.2051282051281)" id="node-16" class="node"><rect fill="#edc949" width="10" height="28.20512820512826"/></g><g y="567.7564102564099" x="526.6666666666666" transform="translate(526.6666666666666,567.7564102564099)" id="node-17" class="node"><rect fill="#af7aa1" width="10" height="6.346153846153811"/></g><g y="10.711275896770275" x="0" transform="translate(0,10.711275896770275)" id="node-18" class="node"><rect fill="#ff9da7" width="10" height="174.87179487179486"/></g><g y="173.0128205128206" x="263.3333333333333" transform="translate(263.3333333333333,173.0128205128206)" id="node-19" class="node"><rect fill="#9c755f" width="10" height="2.8205128205128744"/></g><g y="104.48717948717953" x="263.3333333333333" transform="translate(263.3333333333333,104.48717948717953)" id="node-20" class="node"><rect fill="#bab0ab" width="10" height="58.52564102564108"/></g><g y="0" x="263.3333333333333" transform="translate(263.3333333333333,0)" id="node-21" class="node"><rect fill="#4e79a7" width="10" height="94.48717948717953"/></g><g y="209.2307692307694" x="263.3333333333333" transform="translate(263.3333333333333,209.2307692307694)" id="node-22" class="node"><rect fill="#f28e2c" width="10" height="17.628205128205195"/></g><g y="277.88461538461564" x="263.3333333333333" transform="translate(263.3333333333333,277.88461538461564)" id="node-23" class="node"><rect fill="#e15759" width="10" height="1.410256410256352"/></g><g y="299.23076923076917" x="526.6666666666666" transform="translate(526.6666666666666,299.23076923076917)" id="node-24" class="node"><rect fill="#76b7b2" width="10" height="1.4102564102564088"/></g><g y="329.71201815834104" x="790" transform="translate(790,329.71201815834104)" id="node-25" class="node"><rect fill="#59a14f" width="10" height="26.794871794871824"/></g><g y="286.37175899354406" x="790" transform="translate(790,286.37175899354406)" id="node-26" class="node"><rect fill="#edc949" width="10" height="28.205128205128176"/></g><g y="310.6410256410256" x="526.6666666666666" transform="translate(526.6666666666666,310.6410256410256)" id="node-27" class="node"><rect fill="#af7aa1" width="10" height="14.102564102564088"/></g><g y="372.9487179487178" x="526.6666666666666" transform="translate(526.6666666666666,372.9487179487178)" id="node-28" class="node"><rect fill="#ff9da7" width="10" height="15.512820512820497"/></g><g y="253.92974067428338" x="0" transform="translate(0,253.92974067428338)" id="node-29" class="node"><rect fill="#9c755f" width="10" height="55"/></g><g y="236.8589743589746" x="263.3333333333333" transform="translate(263.3333333333333,236.8589743589746)" id="node-30" class="node"><rect fill="#bab0ab" width="10" height="31.02564102564105"/></g><g y="185.83333333333348" x="263.3333333333333" transform="translate(263.3333333333333,185.83333333333348)" id="node-31" class="node"><rect fill="#4e79a7" width="10" height="13.397435897435912"/></g><g y="324.67745803220566" x="263.3333333333333" transform="translate(263.3333333333333,324.67745803220566)" id="node-32" class="node"><rect fill="#f28e2c" width="10" height="10.576923076923094"/></g><g y="522.9487179487178" x="526.6666666666666" transform="translate(526.6666666666666,522.9487179487178)" id="node-33" class="node"><rect fill="#e15759" width="10" height="2.1153846153846416"/></g><g y="505.2443051856759" x="790" transform="translate(790,505.2443051856759)" id="node-34" class="node"><rect fill="#76b7b2" width="10" height="19.038461538461547"/></g><g y="388.0648180061887" x="790" transform="translate(790,388.0648180061887)" id="node-35" class="node"><rect fill="#59a14f" width="10" height="107.17948717948718"/></g><g y="398.4615384615383" x="526.6666666666666" transform="translate(526.6666666666666,398.4615384615383)" id="node-36" class="node"><rect fill="#edc949" width="10" height="35.25641025641016"/></g><g y="443.71794871794845" x="526.6666666666666" transform="translate(526.6666666666666,443.71794871794845)" id="node-37" class="node"><rect fill="#af7aa1" width="10" height="41.6025641025642"/></g><g y="495.32051282051265" x="526.6666666666666" transform="translate(526.6666666666666,495.32051282051265)" id="node-38" class="node"><rect fill="#ff9da7" width="10" height="17.62820512820514"/></g><g y="584.1025641025637" x="526.6666666666666" transform="translate(526.6666666666666,584.1025641025637)" id="node-39" class="node"><rect fill="#9c755f" width="10" height="13.397435897435798"/></g><g y="554.2307692307689" x="526.6666666666666" transform="translate(526.6666666666666,554.2307692307689)" id="node-40" class="node"><rect fill="#bab0ab" width="10" height="3.5256410256409936"/></g><g y="607.4999999999995" x="526.6666666666666" transform="translate(526.6666666666666,607.4999999999995)" id="node-41" class="node"><rect fill="#4e79a7" width="10" height="3.5256410256409936"/></g><g y="535.0641025641024" x="526.6666666666666" transform="translate(526.6666666666666,535.0641025641024)" id="node-42" class="node"><rect fill="#f28e2c" width="10" height="9.166666666666515"/></g><g y="401.25568522183335" x="0" transform="translate(0,401.25568522183335)" id="node-43" class="node"><rect fill="#e15759" width="10" height="126.21794871794884"/></g><g y="536.7051429949388" x="263.3333333333333" transform="translate(263.3333333333333,536.7051429949388)" id="node-44" class="node"><rect fill="#76b7b2" width="10" height="13.397435897436026"/></g><g y="504.16131794776817" x="263.3333333333333" transform="translate(263.3333333333333,504.16131794776817)" id="node-45" class="node"><rect fill="#59a14f" width="10" height="12.692307692307566"/></g><g y="560.1029076769591" x="263.3333333333333" transform="translate(263.3333333333333,560.1029076769591)" id="node-46" class="node"><rect fill="#edc949" width="10" height="3.5256410256409936"/></g><g y="367.39549612549644" x="263.3333333333333" transform="translate(263.3333333333333,367.39549612549644)" id="node-47" class="node"><rect fill="#af7aa1" width="10" height="35.25641025641028"/></g><g y="491.9200771025104" x="263.3333333333333" transform="translate(263.3333333333333,491.9200771025104)" id="node-48" class="node"><rect fill="#ff9da7" width="10" height="2.1153846153846416"/></g><g y="464.29187197430525" x="263.3333333333333" transform="translate(263.3333333333333,464.29187197430525)" id="node-49" class="node"><rect fill="#9c755f" width="10" height="17.628205128204968"/></g><g y="412.6893078717412" x="263.3333333333333" transform="translate(263.3333333333333,412.6893078717412)" id="node-50" class="node"><rect fill="#bab0ab" width="10" height="41.60256410256409"/></g><g y="602.6883538014051" x="790" transform="translate(790,602.6883538014051)" id="node-51" class="node"><rect fill="#4e79a7" width="10" height="15.51282051282044"/></g><g y="629.9391465360636" x="790" transform="translate(790,629.9391465360636)" id="node-52" class="node"><rect fill="#f28e2c" width="10" height="31.730769230769283"/></g><g y="650.064102564102" x="526.6666666666666" transform="translate(526.6666666666666,650.064102564102)" id="node-53" class="node"><rect fill="#e15759" width="10" height="3.52564102564088"/></g><g y="663.5897435897429" x="526.6666666666666" transform="translate(526.6666666666666,663.5897435897429)" id="node-54" class="node"><rect fill="#76b7b2" width="10" height="19.743589743589837"/></g><g y="621.0256410256405" x="526.6666666666666" transform="translate(526.6666666666666,621.0256410256405)" id="node-55" class="node"><rect fill="#59a14f" width="10" height="19.038461538461434"/></g><g y="615.4441375499697" x="0" transform="translate(0,615.4441375499697)" id="node-56" class="node"><rect fill="#edc949" width="10" height="47.24358974358984"/></g><g y="658.0847290846197" x="263.3333333333333" transform="translate(263.3333333333333,658.0847290846197)" id="node-57" class="node"><rect fill="#af7aa1" width="10" height="19.74358974358961"/></g><g y="600.8954225237662" x="263.3333333333333" transform="translate(263.3333333333333,600.8954225237662)" id="node-58" class="node"><rect fill="#ff9da7" width="10" height="23.974358974359006"/></g><g y="644.5590880589787" x="263.3333333333333" transform="translate(263.3333333333333,644.5590880589787)" id="node-59" class="node"><rect fill="#9c755f" width="10" height="3.52564102564088"/></g><g y="693.3333333333327" x="526.6666666666666" transform="translate(526.6666666666666,693.3333333333327)" id="node-60" class="node"><rect fill="#bab0ab" width="10" height="3.52564102564088"/></g><g y="715.7292130467921" x="790" transform="translate(790,715.7292130467921)" id="node-61" class="node"><rect fill="#4e79a7" width="10" height="18.333333333333258"/></g><g y="744.0625463801254" x="790" transform="translate(790,744.0625463801254)" id="node-62" class="node"><rect fill="#f28e2c" width="10" height="49.358974358974365"/></g><g y="718.2692307692299" x="526.6666666666666" transform="translate(526.6666666666666,718.2692307692299)" id="node-63" class="node"><rect fill="#e15759" width="10" height="21.858974358974365"/></g><g y="706.8589743589736" x="526.6666666666666" transform="translate(526.6666666666666,706.8589743589736)" id="node-64" class="node"><rect fill="#76b7b2" width="10" height="1.410256410256352"/></g><g y="774.9358974358964" x="526.6666666666666" transform="translate(526.6666666666666,774.9358974358964)" id="node-65" class="node"><rect fill="#59a14f" width="10" height="19.743589743589837"/></g><g y="750.1282051282043" x="526.6666666666666" transform="translate(526.6666666666666,750.1282051282043)" id="node-66" class="node"><rect fill="#edc949" width="10" height="14.80769230769215"/></g><g y="865.1282051282041" x="526.6666666666666" transform="translate(526.6666666666666,865.1282051282041)" id="node-67" class="node"><rect fill="#af7aa1" width="10" height="1.4102564102565793"/></g><g y="804.6794871794863" x="526.6666666666666" transform="translate(526.6666666666666,804.6794871794863)" id="node-68" class="node"><rect fill="#ff9da7" width="10" height="4.935897435897459"/></g><g y="712.1664044226898" x="0" transform="translate(0,712.1664044226898)" id="node-69" class="node"><rect fill="#9c755f" width="10" height="67.69230769230762"/></g><g y="744.6231906230811" x="263.3333333333333" transform="translate(263.3333333333333,744.6231906230811)" id="node-70" class="node"><rect fill="#bab0ab" width="10" height="39.487179487179446"/></g><g y="701.3539598538504" x="263.3333333333333" transform="translate(263.3333333333333,701.3539598538504)" id="node-71" class="node"><rect fill="#4e79a7" width="10" height="1.410256410256352"/></g><g y="712.7642162641067" x="263.3333333333333" transform="translate(263.3333333333333,712.7642162641067)" id="node-72" class="node"><rect fill="#f28e2c" width="10" height="21.858974358974365"/></g><g y="813.8616217871272" x="263.3333333333333" transform="translate(263.3333333333333,813.8616217871272)" id="node-73" class="node"><rect fill="#e15759" width="10" height="1.4102564102565793"/></g><g y="687.8283188282093" x="263.3333333333333" transform="translate(263.3333333333333,687.8283188282093)" id="node-74" class="node"><rect fill="#76b7b2" width="10" height="3.5256410256411073"/></g><g y="819.6153846153837" x="526.6666666666666" transform="translate(526.6666666666666,819.6153846153837)" id="node-75" class="node"><rect fill="#59a14f" width="10" height="4.935897435897459"/></g><g y="877.7991807165797" x="790" transform="translate(790,877.7991807165797)" id="node-76" class="node"><rect fill="#edc949" width="10" height="26.794871794871824"/></g><g y="914.5940525114515" x="790" transform="translate(790,914.5940525114515)" id="node-77" class="node"><rect fill="#af7aa1" width="10" height="52.17948717948707"/></g><g y="934.0384615384606" x="526.6666666666666" transform="translate(526.6666666666666,934.0384615384606)" id="node-78" class="node"><rect fill="#ff9da7" width="10" height="7.0512820512822145"/></g><g y="834.5512820512812" x="526.6666666666666" transform="translate(526.6666666666666,834.5512820512812)" id="node-79" class="node"><rect fill="#9c755f" width="10" height="1.410256410256352"/></g><g y="845.9615384615375" x="526.6666666666666" transform="translate(526.6666666666666,845.9615384615375)" id="node-80" class="node"><rect fill="#bab0ab" width="10" height="9.166666666666515"/></g><g y="876.5384615384606" x="526.6666666666666" transform="translate(526.6666666666666,876.5384615384606)" id="node-81" class="node"><rect fill="#4e79a7" width="10" height="7.7564102564103905"/></g><g y="981.5384615384609" x="526.6666666666666" transform="translate(526.6666666666666,981.5384615384609)" id="node-82" class="node"><rect fill="#f28e2c" width="10" height="1.4102564102565793"/></g><g y="992.9487179487174" x="526.6666666666666" transform="translate(526.6666666666666,992.9487179487174)" id="node-83" class="node"><rect fill="#e15759" width="10" height="7.0512820512822145"/></g><g y="894.294871794871" x="526.6666666666666" transform="translate(526.6666666666666,894.294871794871)" id="node-84" class="node"><rect fill="#76b7b2" width="10" height="14.80769230769215"/></g><g y="919.1025641025632" x="526.6666666666666" transform="translate(526.6666666666666,919.1025641025632)" id="node-85" class="node"><rect fill="#59a14f" width="10" height="4.935897435897459"/></g><g y="951.0897435897429" x="526.6666666666666" transform="translate(526.6666666666666,951.0897435897429)" id="node-86" class="node"><rect fill="#edc949" width="10" height="20.448717948718013"/></g><g y="844.5345771565457" x="0" transform="translate(0,844.5345771565457)" id="node-87" class="node"><rect fill="#af7aa1" width="10" height="78.97435897435912"/></g><g y="825.2718781973838" x="263.3333333333333" transform="translate(263.3333333333333,825.2718781973838)" id="node-88" class="node"><rect fill="#ff9da7" width="10" height="69.1025641025642"/></g><g y="802.4513653768709" x="263.3333333333333" transform="translate(263.3333333333333,802.4513653768709)" id="node-89" class="node"><rect fill="#9c755f" width="10" height="1.410256410256352"/></g><g y="962.7861894400426" x="263.3333333333333" transform="translate(263.3333333333333,962.7861894400426)" id="node-90" class="node"><rect fill="#bab0ab" width="10" height="7.051282051282101"/></g><g y="951.3759330334477" x="263.3333333333333" transform="translate(263.3333333333333,951.3759330334477)" id="node-91" class="node"><rect fill="#4e79a7" width="10" height="1.4102564102565793"/></g></g><g font-size="14" font-family="sans-serif" class="node-labels"><text text-anchor="end" dy="0.35em" y="121.79487179487165" x="520.6666666666666">Lohr 2012</text><text text-anchor="end" dy="0.35em" y="198.63398939508616" x="784">DLBCL Tier 1</text><text text-anchor="end" dy="0.35em" y="101.1980919591887" x="784">DLBCL Tier 2</text><text text-anchor="end" dy="0.35em" y="147.30769230769218" x="520.6666666666666">Morin 2013</text><text text-anchor="end" dy="0.35em" y="287.82051282051276" x="520.6666666666666">Pasqualucci 2001</text><text text-anchor="end" dy="0.35em" y="81.3461538461537" x="520.6666666666666">Schmitz 2018</text><text text-anchor="end" dy="0.35em" y="6.698717948717928" x="520.6666666666666">Chapuy 2018</text><text text-anchor="end" dy="0.35em" y="219.74358974358964" x="520.6666666666666">Arthur 2018</text><text text-anchor="end" dy="0.35em" y="187.40384615384605" x="520.6666666666666">Pasqualucci 2011</text><text text-anchor="end" dy="0.35em" y="237.4999999999999" x="520.6666666666666">Morin 2016</text><text text-anchor="end" dy="0.35em" y="172.46794871794862" x="520.6666666666666">Albuquerque 2017</text><text text-anchor="end" dy="0.35em" y="201.9871794871794" x="520.6666666666666">Mareschal 2016</text><text text-anchor="end" dy="0.35em" y="348.8461538461537" x="520.6666666666666">Morin 2011</text><text text-anchor="end" dy="0.35em" y="44.55128205128196" x="520.6666666666666">Reddy 2017</text><text text-anchor="end" dy="0.35em" y="103.68589743589729" x="520.6666666666666">Zhang 2013</text><text text-anchor="end" dy="0.35em" y="262.3076923076922" x="520.6666666666666">Hubschmann 2021</text><text text-anchor="end" dy="0.35em" y="570.9294871794868" x="520.6666666666666">Pararajalingam 2020</text><text text-anchor="start" dy="0.35em" y="98.1471733326677" x="16">DLBCL</text><text text-anchor="start" dy="0.35em" y="174.42307692307705" x="279.3333333333333">DLBCL-Sanger</text><text text-anchor="start" dy="0.35em" y="133.75000000000006" x="279.3333333333333">DLBCL-WGS</text><text text-anchor="start" dy="0.35em" y="47.243589743589766" x="279.3333333333333">DLBCL-exome</text><text text-anchor="start" dy="0.35em" y="218.044871794872" x="279.3333333333333">DLBCL-RNA-seq/WGS</text><text text-anchor="start" dy="0.35em" y="278.5897435897438" x="279.3333333333333">DLBCL-WGS/exome</text><text text-anchor="end" dy="0.35em" y="299.93589743589735" x="520.6666666666666">Okosun 2016</text><text text-anchor="end" dy="0.35em" y="343.10945405577695" x="784">FL Tier 1</text><text text-anchor="end" dy="0.35em" y="300.47432309610815" x="784">FL Tier 2</text><text text-anchor="end" dy="0.35em" y="317.6923076923076" x="520.6666666666666">Russler-germain 2023</text><text text-anchor="end" dy="0.35em" y="380.70512820512806" x="520.6666666666666">Krysiak 2017</text><text text-anchor="start" dy="0.35em" y="281.4297406742834" x="16">FL</text><text text-anchor="start" dy="0.35em" y="252.37179487179512" x="279.3333333333333">FL-exome</text><text text-anchor="start" dy="0.35em" y="192.53205128205144" x="279.3333333333333">FL-WGS</text><text text-anchor="start" dy="0.35em" y="329.9659195706672" x="279.3333333333333">FL-RNA-seq/WGS</text><text text-anchor="end" dy="0.35em" y="524.0064102564102" x="520.6666666666666">Muppidi 2014</text><text text-anchor="end" dy="0.35em" y="514.7635359549067" x="784">BL Tier 1</text><text text-anchor="end" dy="0.35em" y="441.6545615959323" x="784">BL Tier 2</text><text text-anchor="end" dy="0.35em" y="416.08974358974336" x="520.6666666666666">Panea 2019</text><text text-anchor="end" dy="0.35em" y="464.51923076923055" x="520.6666666666666">Love 2012</text><text text-anchor="end" dy="0.35em" y="504.13461538461524" x="520.6666666666666">Burkhardt 2022</text><text text-anchor="end" dy="0.35em" y="590.8012820512816" x="520.6666666666666">Schmitz 2012</text><text text-anchor="end" dy="0.35em" y="555.9935897435894" x="520.6666666666666">Thomas 2023</text><text text-anchor="end" dy="0.35em" y="609.2628205128201" x="520.6666666666666">Richter 2012</text><text text-anchor="end" dy="0.35em" y="539.6474358974357" x="520.6666666666666">Grande 2019</text><text text-anchor="start" dy="0.35em" y="464.36465958080777" x="16">BL</text><text text-anchor="start" dy="0.35em" y="543.4038609436568" x="279.3333333333333">BL-RNA-seq</text><text text-anchor="start" dy="0.35em" y="510.5074717939219" x="279.3333333333333">BL-WGS</text><text text-anchor="start" dy="0.35em" y="561.8657281897797" x="279.3333333333333">BL-RNA-seq/WGS/exome</text><text text-anchor="start" dy="0.35em" y="385.0237012537016" x="279.3333333333333">BL-RNA-seq/exome</text><text text-anchor="start" dy="0.35em" y="492.9777694102027" x="279.3333333333333">BL-Sanger</text><text text-anchor="start" dy="0.35em" y="473.10597453840774" x="279.3333333333333">BL-panel</text><text text-anchor="start" dy="0.35em" y="433.49058992302326" x="279.3333333333333">BL-exome</text><text text-anchor="end" dy="0.35em" y="610.4447640578153" x="784">MCL Tier 1</text><text text-anchor="end" dy="0.35em" y="645.8045311514483" x="784">MCL Tier 2</text><text text-anchor="end" dy="0.35em" y="651.8269230769224" x="520.6666666666666">Nadeu 2020</text><text text-anchor="end" dy="0.35em" y="673.4615384615378" x="520.6666666666666">Zhang 2014</text><text text-anchor="end" dy="0.35em" y="630.5448717948713" x="520.6666666666666">Bea 2013</text><text text-anchor="start" dy="0.35em" y="639.0659324217646" x="16">MCL</text><text text-anchor="start" dy="0.35em" y="667.9565239564145" x="279.3333333333333">MCL-exome</text><text text-anchor="start" dy="0.35em" y="612.8826020109457" x="279.3333333333333">MCL-WGS/exome</text><text text-anchor="start" dy="0.35em" y="646.3219085717991" x="279.3333333333333">MCL-WGS</text><text text-anchor="end" dy="0.35em" y="695.0961538461531" x="520.6666666666666">Rossi 2011</text><text text-anchor="end" dy="0.35em" y="724.8958797134587" x="784">MZL Tier 1</text><text text-anchor="end" dy="0.35em" y="768.7420335596125" x="784">MZL Tier 2</text><text text-anchor="end" dy="0.35em" y="729.1987179487171" x="520.6666666666666">Spina 2016</text><text text-anchor="end" dy="0.35em" y="707.5641025641017" x="520.6666666666666">Yan 2012</text><text text-anchor="end" dy="0.35em" y="784.8076923076914" x="520.6666666666666">Jallades 2017</text><text text-anchor="end" dy="0.35em" y="757.5320512820504" x="520.6666666666666">Rossi 2012</text><text text-anchor="end" dy="0.35em" y="865.8333333333323" x="520.6666666666666">Vandenbrand 2017</text><text text-anchor="end" dy="0.35em" y="807.147435897435" x="520.6666666666666">Parry 2013</text><text text-anchor="start" dy="0.35em" y="746.0125582688436" x="16">MZL</text><text text-anchor="start" dy="0.35em" y="764.3667803666708" x="279.3333333333333">MZL-exome</text><text text-anchor="start" dy="0.35em" y="702.0590880589785" x="279.3333333333333">MZL-Panel</text><text text-anchor="start" dy="0.35em" y="723.6937034435939" x="279.3333333333333">MZL-exome/panel</text><text text-anchor="start" dy="0.35em" y="814.5667499922555" x="279.3333333333333">MZL-panel</text><text text-anchor="start" dy="0.35em" y="689.5911393410298" x="279.3333333333333">MZL-Sanger</text><text text-anchor="end" dy="0.35em" y="822.0833333333325" x="520.6666666666666">Wienand 2019</text><text text-anchor="end" dy="0.35em" y="891.1966166140156" x="784">PMBL Tier 1</text><text text-anchor="end" dy="0.35em" y="940.6837961011951" x="784">PMBL Tier 2</text><text text-anchor="end" dy="0.35em" y="937.5641025641017" x="520.6666666666666">Tiacci 2018</text><text text-anchor="end" dy="0.35em" y="835.2564102564094" x="520.6666666666666">Otto 2012</text><text text-anchor="end" dy="0.35em" y="850.5448717948708" x="520.6666666666666">Duns 2021</text><text text-anchor="end" dy="0.35em" y="880.4166666666658" x="520.6666666666666">Sarkozy 2021</text><text text-anchor="end" dy="0.35em" y="982.2435897435892" x="520.6666666666666">Weniger 2006</text><text text-anchor="end" dy="0.35em" y="996.4743589743586" x="520.6666666666666">Desch 2020</text><text text-anchor="end" dy="0.35em" y="901.6987179487171" x="520.6666666666666">Mottok 2019</text><text text-anchor="end" dy="0.35em" y="921.5705128205119" x="520.6666666666666">Gomez 2023</text><text text-anchor="end" dy="0.35em" y="961.3141025641019" x="520.6666666666666">Reichel 2015</text><text text-anchor="start" dy="0.35em" y="884.0217566437252" x="16">PMBL</text><text text-anchor="start" dy="0.35em" y="859.8231602486659" x="279.3333333333333">PMBL-exome</text><text text-anchor="start" dy="0.35em" y="803.156493581999" x="279.3333333333333">PMBL-Array/Sanger</text><text text-anchor="start" dy="0.35em" y="966.3118304656837" x="279.3333333333333">PMBL-panel</text><text text-anchor="start" dy="0.35em" y="952.081061238576" x="279.3333333333333">PMBL-Sanger</text></g><g stroke-opacity="0.5" fill="none" class="links"><g style="mix-blend-mode: multiply;" class="link"><path stroke-width="2.1153846153846154" stroke="#f28e2c" d="M536.6666666666666,122.14743589743576C663.3333333333333,122.14743589743576,663.3333333333333,186.99937401047075,790,186.99937401047075"/></g><g style="mix-blend-mode: multiply;" class="link"><path stroke-width="1" stroke="#e15759" d="M536.6666666666666,120.73717948717935C663.3333333333333,120.73717948717935,663.3333333333333,107.19168170277844,790,107.19168170277844"/></g><g style="mix-blend-mode: multiply;" class="link"><path stroke-width="7.756410256410257" stroke="#f28e2c" d="M536.6666666666666,157.53205128205116C663.3333333333333,157.53205128205116,663.3333333333333,191.93527144636818,790,191.93527144636818"/></g><g style="mix-blend-mode: multiply;" class="link"><path stroke-width="20.44871794871795" stroke="#e15759" d="M536.6666666666666,143.42948717948704C663.3333333333333,143.42948717948704,663.3333333333333,117.76860477970152,790,117.76860477970152"/></g><g style="mix-blend-mode: multiply;" class="link"><path stroke-width="1.4102564102564104" stroke="#f28e2c" d="M536.6666666666666,288.525641025641C663.3333333333333,288.525641025641,663.3333333333333,212.7365534976502,790,212.7365534976502"/></g><g style="mix-blend-mode: multiply;" class="link"><path stroke-width="1.4102564102564104" stroke="#e15759" d="M536.6666666666666,287.1153846153846C663.3333333333333,287.1153846153846,663.3333333333333,154.0827073438041,790,154.0827073438041"/></g><g style="mix-blend-mode: multiply;" class="link"><path stroke-width="4.935897435897436" stroke="#f28e2c" d="M536.6666666666666,84.51923076923062C663.3333333333333,84.51923076923062,663.3333333333333,175.71732272841948,790,175.71732272841948"/></g><g style="mix-blend-mode: multiply;" class="link"><path stroke-width="6.346153846153847" stroke="#e15759" d="M536.6666666666666,78.87820512820498C663.3333333333333,78.87820512820498,663.3333333333333,98.02501503611178,790,98.02501503611178"/></g><g style="mix-blend-mode: multiply;" class="link"><path stroke-width="1.4102564102564104" stroke="#f28e2c" d="M536.6666666666666,12.692307692307692C663.3333333333333,12.692307692307692,663.3333333333333,167.6083483694451,790,167.6083483694451"/></g><g style="mix-blend-mode: multiply;" class="link"><path stroke-width="11.987179487179487" stroke="#e15759" d="M536.6666666666666,5.993589743589744C663.3333333333333,5.993589743589744,663.3333333333333,51.48655349765025,790,51.48655349765025"/></g><g style="mix-blend-mode: multiply;" class="link"><path stroke-width="5.641025641025641" stroke="#f28e2c" d="M536.6666666666666,223.97435897435886C663.3333333333333,223.97435897435886,663.3333333333333,205.68527144636815,790,205.68527144636815"/></g><g style="mix-blend-mode: multiply;" class="link"><path stroke-width="8.461538461538462" stroke="#e15759" d="M536.6666666666666,216.92307692307682C663.3333333333333,216.92307692307682,663.3333333333333,135.04424580534254,790,135.04424580534254"/></g><g style="mix-blend-mode: multiply;" class="link"><path stroke-width="2.1153846153846154" stroke="#f28e2c" d="M536.6666666666666,187.40384615384605C663.3333333333333,187.40384615384605,663.3333333333333,198.98655349765022,790,198.98655349765022"/></g><g style="mix-blend-mode: multiply;" class="link"><path stroke-width="2.8205128205128207" stroke="#e15759" d="M536.6666666666666,184.93589743589732C663.3333333333333,184.93589743589732,663.3333333333333,129.4032201643169,790,129.4032201643169"/></g><g style="mix-blend-mode: multiply;" class="link"><path stroke-width="1.4102564102564104" stroke="#f28e2c" d="M536.6666666666666,237.4999999999999C663.3333333333333,237.4999999999999,663.3333333333333,209.21091247200917,790,209.21091247200917"/></g><g style="mix-blend-mode: multiply;" class="link"><path stroke-width="2.1153846153846154" stroke="#f28e2c" d="M536.6666666666666,172.46794871794862C663.3333333333333,172.46794871794862,663.3333333333333,196.8711688822656,790,196.8711688822656"/></g><g style="mix-blend-mode: multiply;" class="link"><path stroke-width="1.4102564102564104" stroke="#f28e2c" d="M536.6666666666666,201.9871794871794C663.3333333333333,201.9871794871794,663.3333333333333,202.15963042072713,790,202.15963042072713"/></g><g style="mix-blend-mode: multiply;" class="link"><path stroke-width="16.923076923076923" stroke="#f28e2c" d="M536.6666666666666,343.91025641025635C663.3333333333333,343.91025641025635,663.3333333333333,221.90322016431685,790,221.90322016431685"/></g><g style="mix-blend-mode: multiply;" class="link"><path stroke-width="1" stroke="#e15759" d="M536.6666666666666,335.09615384615375C663.3333333333333,335.09615384615375,663.3333333333333,155.1403996514964,790,155.1403996514964"/></g><g style="mix-blend-mode: multiply;" class="link"><path stroke-width="1.4102564102564104" stroke="#f28e2c" d="M536.6666666666666,189.16666666666654C663.3333333333333,189.16666666666654,663.3333333333333,200.74937401047072,790,200.74937401047072"/></g><g style="mix-blend-mode: multiply;" class="link"><path stroke-width="4.935897435897436" stroke="#f28e2c" d="M536.6666666666666,63.237179487179446C663.3333333333333,63.237179487179446,663.3333333333333,170.78142529252204,790,170.78142529252204"/></g><g style="mix-blend-mode: multiply;" class="link"><path stroke-width="37.371794871794876" stroke="#e15759" d="M536.6666666666666,42.08333333333329C663.3333333333333,42.08333333333329,663.3333333333333,76.16604067713743,790,76.16604067713743"/></g><g style="mix-blend-mode: multiply;" class="link"><path stroke-width="7.756410256410257" stroke="#f28e2c" d="M536.6666666666666,106.50641025641009C663.3333333333333,106.50641025641009,663.3333333333333,182.06347657457331,790,182.06347657457331"/></g><g style="mix-blend-mode: multiply;" class="link"><path stroke-width="5.641025641025641" stroke="#e15759" d="M536.6666666666666,99.80769230769215C663.3333333333333,99.80769230769215,663.3333333333333,104.01860477970152,790,104.01860477970152"/></g><g style="mix-blend-mode: multiply;" class="link"><path stroke-width="2.1153846153846154" stroke="#f28e2c" d="M536.6666666666666,263.3653846153845C663.3333333333333,263.3653846153845,663.3333333333333,210.9737329848297,790,210.9737329848297"/></g><g style="mix-blend-mode: multiply;" class="link"><path stroke-width="14.102564102564104" stroke="#e15759" d="M536.6666666666666,255.25641025641013C663.3333333333333,255.25641025641013,663.3333333333333,146.3262970873938,790,146.3262970873938"/></g><g style="mix-blend-mode: multiply;" class="link"><path stroke-width="1.4102564102564104" stroke="#e15759" d="M536.6666666666666,568.4615384615381C663.3333333333333,568.4615384615381,663.3333333333333,156.1980919591887,790,156.1980919591887"/></g><g style="mix-blend-mode: multiply;" class="link"><path stroke-width="2.8205128205128207" stroke="#9c755f" d="M10,165.13435281984724C136.66666666666666,165.13435281984724,136.66666666666666,174.42307692307702,263.3333333333333,174.42307692307702"/></g><g style="mix-blend-mode: multiply;" class="link"><path stroke-width="2.8205128205128207" stroke="#59a14f" d="M273.3333333333333,174.42307692307702C400,174.42307692307702,400,287.82051282051276,526.6666666666666,287.82051282051276"/></g><g style="mix-blend-mode: multiply;" class="link"><path stroke-width="28.205128205128208" stroke="#bab0ab" d="M10,119.30101948651387C136.66666666666666,119.30101948651387,136.66666666666666,118.58974358974363,263.3333333333333,118.58974358974363"/></g><g style="mix-blend-mode: multiply;" class="link"><path stroke-width="28.205128205128208" stroke="#76b7b2" d="M273.3333333333333,118.58974358974363C400,118.58974358974363,400,147.30769230769218,526.6666666666666,147.30769230769218"/></g><g style="mix-blend-mode: multiply;" class="link"><path stroke-width="11.282051282051283" stroke="#4e79a7" d="M10,16.352301537795917C136.66666666666666,16.352301537795917,136.66666666666666,5.641025641025641,263.3333333333333,5.641025641025641"/></g><g style="mix-blend-mode: multiply;" class="link"><path stroke-width="11.282051282051283" stroke="#edc949" d="M273.3333333333333,61.346153846153854C400,61.346153846153854,400,81.3461538461537,526.6666666666666,81.3461538461537"/></g><g style="mix-blend-mode: multiply;" class="link"><path stroke-width="2.8205128205128207" stroke="#4e79a7" d="M10,23.403583589077968C136.66666666666666,23.403583589077968,136.66666666666666,12.692307692307693,263.3333333333333,12.692307692307693"/></g><g style="mix-blend-mode: multiply;" class="link"><path stroke-width="2.8205128205128207" stroke="#4e79a7" d="M273.3333333333333,81.7948717948718C400,81.7948717948718,400,121.79487179487165,526.6666666666666,121.79487179487165"/></g><g style="mix-blend-mode: multiply;" class="link"><path stroke-width="14.102564102564104" stroke="#bab0ab" d="M10,140.45486564036003C136.66666666666666,140.45486564036003,136.66666666666666,139.74358974358978,263.3333333333333,139.74358974358978"/></g><g style="mix-blend-mode: multiply;" class="link"><path stroke-width="14.102564102564104" stroke="#ff9da7" d="M273.3333333333333,139.74358974358978C400,139.74358974358978,400,219.74358974358964,526.6666666666666,219.74358974358964"/></g><g style="mix-blend-mode: multiply;" class="link"><path stroke-width="13.397435897435898" stroke="#4e79a7" d="M10,31.51255794805233C136.66666666666666,31.51255794805233,136.66666666666666,20.80128205128205,263.3333333333333,20.80128205128205"/></g><g style="mix-blend-mode: multiply;" class="link"><path stroke-width="13.397435897435898" stroke="#af7aa1" d="M273.3333333333333,6.698717948717949C400,6.698717948717949,400,6.698717948717949,526.6666666666666,6.698717948717949"/></g><g style="mix-blend-mode: multiply;" class="link"><path stroke-width="17.628205128205128" stroke="#f28e2c" d="M10,175.35871179420622C136.66666666666666,175.35871179420622,136.66666666666666,218.04487179487197,263.3333333333333,218.04487179487197"/></g><g style="mix-blend-mode: multiply;" class="link"><path stroke-width="17.628205128205128" stroke="#e15759" d="M273.3333333333333,218.04487179487197C400,218.04487179487197,400,343.5576923076922,526.6666666666666,343.5576923076922"/></g><g style="mix-blend-mode: multiply;" class="link"><path stroke-width="1.4102564102564104" stroke="#4e79a7" d="M10,38.91640410189848C136.66666666666666,38.91640410189848,136.66666666666666,28.205128205128204,263.3333333333333,28.205128205128204"/></g><g style="mix-blend-mode: multiply;" class="link"><path stroke-width="1.4102564102564104" stroke="#9c755f" d="M273.3333333333333,86.02564102564102C400,86.02564102564102,400,184.2307692307691,526.6666666666666,184.2307692307691"/></g><g style="mix-blend-mode: multiply;" class="link"><path stroke-width="42.307692307692314" stroke="#4e79a7" d="M10,60.775378460872844C136.66666666666666,60.775378460872844,136.66666666666666,50.06410256410257,263.3333333333333,50.06410256410257"/></g><g style="mix-blend-mode: multiply;" class="link"><path stroke-width="42.307692307692314" stroke="#76b7b2" d="M273.3333333333333,34.55128205128206C400,34.55128205128206,400,44.551282051282016,526.6666666666666,44.551282051282016"/></g><g style="mix-blend-mode: multiply;" class="link"><path stroke-width="1.4102564102564104" stroke="#4e79a7" d="M10,82.63435281984721C136.66666666666666,82.63435281984721,136.66666666666666,71.92307692307693,263.3333333333333,71.92307692307693"/></g><g style="mix-blend-mode: multiply;" class="link"><path stroke-width="1.4102564102564104" stroke="#bab0ab" d="M273.3333333333333,93.78205128205127C400,93.78205128205127,400,237.4999999999999,526.6666666666666,237.4999999999999"/></g><g style="mix-blend-mode: multiply;" class="link"><path stroke-width="4.935897435897436" stroke="#4e79a7" d="M10,85.80742974292413C136.66666666666666,85.80742974292413,136.66666666666666,75.09615384615385,263.3333333333333,75.09615384615385"/></g><g style="mix-blend-mode: multiply;" class="link"><path stroke-width="4.935897435897436" stroke="#9c755f" d="M273.3333333333333,89.19871794871794C400,89.19871794871794,400,187.40384615384605,526.6666666666666,187.40384615384605"/></g><g style="mix-blend-mode: multiply;" class="link"><path stroke-width="2.1153846153846154" stroke="#4e79a7" d="M10,89.33307076856515C136.66666666666666,89.33307076856515,136.66666666666666,78.62179487179488,263.3333333333333,78.62179487179488"/></g><g style="mix-blend-mode: multiply;" class="link"><path stroke-width="2.1153846153846154" stroke="#4e79a7" d="M273.3333333333333,84.26282051282051C400,84.26282051282051,400,172.46794871794862,526.6666666666666,172.46794871794862"/></g><g style="mix-blend-mode: multiply;" class="link"><path stroke-width="1.4102564102564104" stroke="#4e79a7" d="M10,91.09589128138566C136.66666666666666,91.09589128138566,136.66666666666666,80.38461538461539,263.3333333333333,80.38461538461539"/></g><g style="mix-blend-mode: multiply;" class="link"><path stroke-width="1.4102564102564104" stroke="#f28e2c" d="M273.3333333333333,92.37179487179486C400,92.37179487179486,400,201.9871794871794,526.6666666666666,201.9871794871794"/></g><g style="mix-blend-mode: multiply;" class="link"><path stroke-width="16.21794871794872" stroke="#bab0ab" d="M10,155.61512205061646C136.66666666666666,155.61512205061646,136.66666666666666,154.90384615384622,263.3333333333333,154.90384615384622"/></g><g style="mix-blend-mode: multiply;" class="link"><path stroke-width="16.21794871794872" stroke="#edc949" d="M273.3333333333333,154.90384615384622C400,154.90384615384622,400,256.3141025641024,526.6666666666666,256.3141025641024"/></g><g style="mix-blend-mode: multiply;" class="link"><path stroke-width="1.4102564102564104" stroke="#e15759" d="M10,184.877942563437C136.66666666666666,184.877942563437,136.66666666666666,278.5897435897439,263.3333333333333,278.5897435897439"/></g><g style="mix-blend-mode: multiply;" class="link"><path stroke-width="1.4102564102564104" stroke="#af7aa1" d="M273.3333333333333,278.5897435897439C400,278.5897435897439,400,568.4615384615381,526.6666666666666,568.4615384615381"/></g><g style="mix-blend-mode: multiply;" class="link"><path stroke-width="13.397435897435898" stroke="#4e79a7" d="M10,98.49973743523182C136.66666666666666,98.49973743523182,136.66666666666666,87.78846153846155,263.3333333333333,87.78846153846155"/></g><g style="mix-blend-mode: multiply;" class="link"><path stroke-width="13.397435897435898" stroke="#59a14f" d="M273.3333333333333,73.68589743589743C400,73.68589743589743,400,103.68589743589729,526.6666666666666,103.68589743589729"/></g><g style="mix-blend-mode: multiply;" class="link"><path stroke-width="1.4102564102564104" stroke="#59a14f" d="M536.6666666666666,299.9358974358974C663.3333333333333,299.9358974358974,663.3333333333333,333.2376591839821,790,333.2376591839821"/></g><g style="mix-blend-mode: multiply;" class="link"><path stroke-width="9.871794871794872" stroke="#59a14f" d="M536.6666666666666,358.0128205128205C663.3333333333333,358.0128205128205,663.3333333333333,339.58381303013596,790,339.58381303013596"/></g><g style="mix-blend-mode: multiply;" class="link"><path stroke-width="1" stroke="#edc949" d="M536.6666666666666,352.7243589743589C663.3333333333333,352.7243589743589,663.3333333333333,310.69868207046716,790,310.69868207046716"/></g><g style="mix-blend-mode: multiply;" class="link"><path stroke-width="1" stroke="#59a14f" d="M536.6666666666666,324.3910256410256C663.3333333333333,324.3910256410256,663.3333333333333,334.29535149167435,790,334.29535149167435"/></g><g style="mix-blend-mode: multiply;" class="link"><path stroke-width="13.397435897435898" stroke="#edc949" d="M536.6666666666666,317.33974358974353C663.3333333333333,317.33974358974353,663.3333333333333,303.6474000191851,790,303.6474000191851"/></g><g style="mix-blend-mode: multiply;" class="link"><path stroke-width="1.4102564102564104" stroke="#59a14f" d="M536.6666666666666,190.57692307692295C663.3333333333333,190.57692307692295,663.3333333333333,330.41714636346927,790,330.41714636346927"/></g><g style="mix-blend-mode: multiply;" class="link"><path stroke-width="11.987179487179487" stroke="#59a14f" d="M536.6666666666666,382.46794871794856C663.3333333333333,382.46794871794856,663.3333333333333,350.5133002096231,790,350.5133002096231"/></g><g style="mix-blend-mode: multiply;" class="link"><path stroke-width="3.525641025641026" stroke="#edc949" d="M536.6666666666666,374.7115384615383C663.3333333333333,374.7115384615383,663.3333333333333,312.8140666858518,790,312.8140666858518"/></g><g style="mix-blend-mode: multiply;" class="link"><path stroke-width="1.4102564102564104" stroke="#59a14f" d="M536.6666666666666,275.7051282051282C663.3333333333333,275.7051282051282,663.3333333333333,331.8274027737257,790,331.8274027737257"/></g><g style="mix-blend-mode: multiply;" class="link"><path stroke-width="10.576923076923078" stroke="#edc949" d="M536.6666666666666,269.7115384615384C663.3333333333333,269.7115384615384,663.3333333333333,291.6602205320056,790,291.6602205320056"/></g><g style="mix-blend-mode: multiply;" class="link"><path stroke-width="15.512820512820515" stroke="#bab0ab" d="M10,275.08358682812957C136.66666666666666,275.08358682812957,136.66666666666666,244.61538461538484,263.3333333333333,244.61538461538484"/></g><g style="mix-blend-mode: multiply;" class="link"><path stroke-width="15.512820512820515" stroke="#ff9da7" d="M273.3333333333333,260.12820512820537C400,260.12820512820537,400,380.70512820512806,526.6666666666666,380.70512820512806"/></g><g style="mix-blend-mode: multiply;" class="link"><path stroke-width="11.987179487179487" stroke="#4e79a7" d="M10,259.9233304178731C136.66666666666666,259.9233304178731,136.66666666666666,191.82692307692324,263.3333333333333,191.82692307692324"/></g><g style="mix-blend-mode: multiply;" class="link"><path stroke-width="11.987179487179487" stroke="#edc949" d="M273.3333333333333,191.82692307692324C400,191.82692307692324,400,270.4166666666665,526.6666666666666,270.4166666666665"/></g><g style="mix-blend-mode: multiply;" class="link"><path stroke-width="14.102564102564104" stroke="#bab0ab" d="M10,289.89127913582183C136.66666666666666,289.89127913582183,136.66666666666666,259.4230769230772,263.3333333333333,259.4230769230772"/></g><g style="mix-blend-mode: multiply;" class="link"><path stroke-width="14.102564102564104" stroke="#af7aa1" d="M273.3333333333333,245.32051282051304C400,245.32051282051304,400,317.6923076923076,526.6666666666666,317.6923076923076"/></g><g style="mix-blend-mode: multiply;" class="link"><path stroke-width="10.576923076923078" stroke="#f28e2c" d="M10,303.64127913582183C136.66666666666666,303.64127913582183,136.66666666666666,329.9659195706672,263.3333333333333,329.9659195706672"/></g><g style="mix-blend-mode: multiply;" class="link"><path stroke-width="10.576923076923078" stroke="#e15759" d="M273.3333333333333,329.9659195706672C400,329.9659195706672,400,357.66025641025635,526.6666666666666,357.66025641025635"/></g><g style="mix-blend-mode: multiply;" class="link"><path stroke-width="1.4102564102564104" stroke="#bab0ab" d="M10,297.6476893922321C136.66666666666666,297.6476893922321,136.66666666666666,267.17948717948747,263.3333333333333,267.17948717948747"/></g><g style="mix-blend-mode: multiply;" class="link"><path stroke-width="1.4102564102564104" stroke="#9c755f" d="M273.3333333333333,237.5641025641028C400,237.5641025641028,400,190.57692307692295,526.6666666666666,190.57692307692295"/></g><g style="mix-blend-mode: multiply;" class="link"><path stroke-width="1.4102564102564104" stroke="#4e79a7" d="M10,266.6220483665911C136.66666666666666,266.6220483665911,136.66666666666666,198.52564102564116,263.3333333333333,198.52564102564116"/></g><g style="mix-blend-mode: multiply;" class="link"><path stroke-width="1.4102564102564104" stroke="#76b7b2" d="M273.3333333333333,198.52564102564116C400,198.52564102564116,400,299.9358974358974,526.6666666666666,299.9358974358974"/></g><g style="mix-blend-mode: multiply;" class="link"><path stroke-width="1" stroke="#76b7b2" d="M536.6666666666666,524.7115384615383C663.3333333333333,524.7115384615383,663.3333333333333,510.53276672413745,790,510.53276672413745"/></g><g style="mix-blend-mode: multiply;" class="link"><path stroke-width="1.4102564102564104" stroke="#59a14f" d="M536.6666666666666,523.653846153846C663.3333333333333,523.653846153846,663.3333333333333,478.32122826259905,790,478.32122826259905"/></g><g style="mix-blend-mode: multiply;" class="link"><path stroke-width="2.8205128205128207" stroke="#76b7b2" d="M536.6666666666666,432.30769230769215C663.3333333333333,432.30769230769215,663.3333333333333,506.6545615959323,790,506.6545615959323"/></g><g style="mix-blend-mode: multiply;" class="link"><path stroke-width="32.43589743589744" stroke="#59a14f" d="M536.6666666666666,414.679487179487C663.3333333333333,414.679487179487,663.3333333333333,404.28276672413745,790,404.28276672413745"/></g><g style="mix-blend-mode: multiply;" class="link"><path stroke-width="2.1153846153846154" stroke="#76b7b2" d="M536.6666666666666,484.26282051282027C663.3333333333333,484.26282051282027,663.3333333333333,509.12251031388104,790,509.12251031388104"/></g><g style="mix-blend-mode: multiply;" class="link"><path stroke-width="39.48717948717949" stroke="#59a14f" d="M536.6666666666666,463.46153846153817C663.3333333333333,463.46153846153817,663.3333333333333,440.2443051856759,790,440.2443051856759"/></g><g style="mix-blend-mode: multiply;" class="link"><path stroke-width="17.628205128205128" stroke="#59a14f" d="M536.6666666666666,504.1346153846152C663.3333333333333,504.1346153846152,663.3333333333333,468.8019974933682,790,468.8019974933682"/></g><g style="mix-blend-mode: multiply;" class="link"><path stroke-width="2.1153846153846154" stroke="#76b7b2" d="M536.6666666666666,596.4423076923073C663.3333333333333,596.4423076923073,663.3333333333333,519.6994333908042,790,519.6994333908042"/></g><g style="mix-blend-mode: multiply;" class="link"><path stroke-width="11.282051282051283" stroke="#59a14f" d="M536.6666666666666,589.7435897435894C663.3333333333333,589.7435897435894,663.3333333333333,489.6032795446503,790,489.6032795446503"/></g><g style="mix-blend-mode: multiply;" class="link"><path stroke-width="1.4102564102564104" stroke="#76b7b2" d="M536.6666666666666,557.0512820512818C663.3333333333333,557.0512820512818,663.3333333333333,517.9366128779836,790,517.9366128779836"/></g><g style="mix-blend-mode: multiply;" class="link"><path stroke-width="2.1153846153846154" stroke="#59a14f" d="M536.6666666666666,555.2884615384612C663.3333333333333,555.2884615384612,663.3333333333333,482.90456159593236,790,482.90456159593236"/></g><g style="mix-blend-mode: multiply;" class="link"><path stroke-width="3.525641025641026" stroke="#76b7b2" d="M536.6666666666666,609.2628205128201C663.3333333333333,609.2628205128201,663.3333333333333,522.5199462113171,790,522.5199462113171"/></g><g style="mix-blend-mode: multiply;" class="link"><path stroke-width="6.346153846153847" stroke="#76b7b2" d="M536.6666666666666,541.0576923076922C663.3333333333333,541.0576923076922,663.3333333333333,514.0584077497786,790,514.0584077497786"/></g><g style="mix-blend-mode: multiply;" class="link"><path stroke-width="2.8205128205128207" stroke="#59a14f" d="M536.6666666666666,536.4743589743589C663.3333333333333,536.4743589743589,663.3333333333333,480.43661287798363,790,480.43661287798363"/></g><g style="mix-blend-mode: multiply;" class="link"><path stroke-width="13.397435897435898" stroke="#76b7b2" d="M10,517.2492749654232C136.66666666666666,517.2492749654232,136.66666666666666,543.4038609436567,263.3333333333333,543.4038609436567"/></g><g style="mix-blend-mode: multiply;" class="link"><path stroke-width="13.397435897435898" stroke="#9c755f" d="M273.3333333333333,543.4038609436567C400,543.4038609436567,400,590.8012820512816,526.6666666666666,590.8012820512816"/></g><g style="mix-blend-mode: multiply;" class="link"><path stroke-width="3.525641025641026" stroke="#59a14f" d="M10,499.621069837218C136.66666666666666,499.621069837218,136.66666666666666,505.92413846058867,263.3333333333333,505.92413846058867"/></g><g style="mix-blend-mode: multiply;" class="link"><path stroke-width="3.525641025641026" stroke="#bab0ab" d="M273.3333333333333,515.0908051272554C400,515.0908051272554,400,555.9935897435895,526.6666666666666,555.9935897435895"/></g><g style="mix-blend-mode: multiply;" class="link"><path stroke-width="3.525641025641026" stroke="#edc949" d="M10,525.7108134269616C136.66666666666666,525.7108134269616,136.66666666666666,561.8657281897797,263.3333333333333,561.8657281897797"/></g><g style="mix-blend-mode: multiply;" class="link"><path stroke-width="3.525641025641026" stroke="#4e79a7" d="M273.3333333333333,561.8657281897797C400,561.8657281897797,400,609.2628205128201,526.6666666666666,609.2628205128201"/></g><g style="mix-blend-mode: multiply;" class="link"><path stroke-width="9.166666666666668" stroke="#59a14f" d="M10,505.96722368337186C136.66666666666666,505.96722368337186,136.66666666666666,512.2702923067426,263.3333333333333,512.2702923067426"/></g><g style="mix-blend-mode: multiply;" class="link"><path stroke-width="9.166666666666668" stroke="#f28e2c" d="M273.3333333333333,508.7446512811015C400,508.7446512811015,400,539.6474358974358,526.6666666666666,539.6474358974358"/></g><g style="mix-blend-mode: multiply;" class="link"><path stroke-width="35.256410256410255" stroke="#af7aa1" d="M10,418.8838903500385C136.66666666666666,418.8838903500385,136.66666666666666,385.0237012537016,263.3333333333333,385.0237012537016"/></g><g style="mix-blend-mode: multiply;" class="link"><path stroke-width="35.256410256410255" stroke="#edc949" d="M273.3333333333333,385.0237012537016C400,385.0237012537016,400,416.0897435897434,526.6666666666666,416.0897435897434"/></g><g style="mix-blend-mode: multiply;" class="link"><path stroke-width="2.1153846153846154" stroke="#ff9da7" d="M10,496.80055701670517C136.66666666666666,496.80055701670517,136.66666666666666,492.9777694102027,263.3333333333333,492.9777694102027"/></g><g style="mix-blend-mode: multiply;" class="link"><path stroke-width="2.1153846153846154" stroke="#e15759" d="M273.3333333333333,492.9777694102027C400,492.9777694102027,400,524.00641025641,526.6666666666666,524.00641025641"/></g><g style="mix-blend-mode: multiply;" class="link"><path stroke-width="17.628205128205128" stroke="#9c755f" d="M10,486.92876214491025C136.66666666666666,486.92876214491025,136.66666666666666,473.1059745384078,263.3333333333333,473.1059745384078"/></g><g style="mix-blend-mode: multiply;" class="link"><path stroke-width="17.628205128205128" stroke="#ff9da7" d="M273.3333333333333,473.1059745384078C400,473.1059745384078,400,504.1346153846152,526.6666666666666,504.1346153846152"/></g><g style="mix-blend-mode: multiply;" class="link"><path stroke-width="41.6025641025641" stroke="#bab0ab" d="M10,457.31337752952567C136.66666666666666,457.31337752952567,136.66666666666666,433.49058992302326,263.3333333333333,433.49058992302326"/></g><g style="mix-blend-mode: multiply;" class="link"><path stroke-width="41.6025641025641" stroke="#af7aa1" d="M273.3333333333333,433.49058992302326C400,433.49058992302326,400,464.5192307692305,526.6666666666666,464.5192307692305"/></g><g style="mix-blend-mode: multiply;" class="link"><path stroke-width="4.230769230769231" stroke="#4e79a7" d="M536.6666666666666,571.282051282051C663.3333333333333,571.282051282051,663.3333333333333,604.8037384167898,790,604.8037384167898"/></g><g style="mix-blend-mode: multiply;" class="link"><path stroke-width="1" stroke="#f28e2c" d="M536.6666666666666,573.7499999999998C663.3333333333333,573.7499999999998,663.3333333333333,630.2917106386277,790,630.2917106386277"/></g><g style="mix-blend-mode: multiply;" class="link"><path stroke-width="2.1153846153846154" stroke="#4e79a7" d="M536.6666666666666,651.1217948717942C663.3333333333333,651.1217948717942,663.3333333333333,615.733225596277,790,615.733225596277"/></g><g style="mix-blend-mode: multiply;" class="link"><path stroke-width="1.4102564102564104" stroke="#f28e2c" d="M536.6666666666666,652.8846153846148C663.3333333333333,652.8846153846148,663.3333333333333,642.6314542283712,790,642.6314542283712"/></g><g style="mix-blend-mode: multiply;" class="link"><path stroke-width="1.4102564102564104" stroke="#4e79a7" d="M536.6666666666666,664.294871794871C663.3333333333333,664.294871794871,663.3333333333333,617.4960461090975,790,617.4960461090975"/></g><g style="mix-blend-mode: multiply;" class="link"><path stroke-width="18.333333333333336" stroke="#f28e2c" d="M536.6666666666666,674.166666666666C663.3333333333333,674.166666666666,663.3333333333333,652.5032491001662,790,652.5032491001662"/></g><g style="mix-blend-mode: multiply;" class="link"><path stroke-width="7.756410256410257" stroke="#4e79a7" d="M536.6666666666666,624.9038461538456C663.3333333333333,624.9038461538456,663.3333333333333,610.7973281603795,790,610.7973281603795"/></g><g style="mix-blend-mode: multiply;" class="link"><path stroke-width="11.282051282051283" stroke="#f28e2c" d="M536.6666666666666,634.4230769230765C663.3333333333333,634.4230769230765,663.3333333333333,636.2853003822174,790,636.2853003822174"/></g><g style="mix-blend-mode: multiply;" class="link"><path stroke-width="19.743589743589745" stroke="#af7aa1" d="M10,652.8159324217646C136.66666666666666,652.8159324217646,136.66666666666666,667.9565239564146,263.3333333333333,667.9565239564146"/></g><g style="mix-blend-mode: multiply;" class="link"><path stroke-width="19.743589743589745" stroke="#76b7b2" d="M273.3333333333333,667.9565239564146C400,667.9565239564146,400,673.4615384615378,526.6666666666666,673.4615384615378"/></g><g style="mix-blend-mode: multiply;" class="link"><path stroke-width="19.03846153846154" stroke="#ff9da7" d="M10,624.9633683192004C136.66666666666666,624.9633683192004,136.66666666666666,610.414653292997,263.3333333333333,610.414653292997"/></g><g style="mix-blend-mode: multiply;" class="link"><path stroke-width="19.03846153846154" stroke="#59a14f" d="M273.3333333333333,615.3505507288944C400,615.3505507288944,400,630.5448717948713,526.6666666666666,630.5448717948713"/></g><g style="mix-blend-mode: multiply;" class="link"><path stroke-width="4.935897435897436" stroke="#ff9da7" d="M10,636.95054780638C136.66666666666666,636.95054780638,136.66666666666666,622.4018327801765,263.3333333333333,622.4018327801765"/></g><g style="mix-blend-mode: multiply;" class="link"><path stroke-width="4.935897435897436" stroke="#af7aa1" d="M273.3333333333333,603.363371241715C400,603.363371241715,400,571.6346153846151,526.6666666666666,571.6346153846151"/></g><g style="mix-blend-mode: multiply;" class="link"><path stroke-width="3.525641025641026" stroke="#9c755f" d="M10,641.1813170371493C136.66666666666666,641.1813170371493,136.66666666666666,646.3219085717992,263.3333333333333,646.3219085717992"/></g><g style="mix-blend-mode: multiply;" class="link"><path stroke-width="3.525641025641026" stroke="#e15759" d="M273.3333333333333,646.3219085717992C400,646.3219085717992,400,651.8269230769225,526.6666666666666,651.8269230769225"/></g><g style="mix-blend-mode: multiply;" class="link"><path stroke-width="2.8205128205128207" stroke="#4e79a7" d="M536.6666666666666,694.7435897435892C663.3333333333333,694.7435897435892,663.3333333333333,717.1394694570486,790,717.1394694570486"/></g><g style="mix-blend-mode: multiply;" class="link"><path stroke-width="1" stroke="#f28e2c" d="M536.6666666666666,696.5064102564096C663.3333333333333,696.5064102564096,663.3333333333333,744.4151104826894,790,744.4151104826894"/></g><g style="mix-blend-mode: multiply;" class="link"><path stroke-width="5.641025641025641" stroke="#4e79a7" d="M536.6666666666666,721.0897435897427C663.3333333333333,721.0897435897427,663.3333333333333,722.7804950980742,790,722.7804950980742"/></g><g style="mix-blend-mode: multiply;" class="link"><path stroke-width="16.21794871794872" stroke="#f28e2c" d="M536.6666666666666,732.0192307692299C663.3333333333333,732.0192307692299,663.3333333333333,752.8766489442279,790,752.8766489442279"/></g><g style="mix-blend-mode: multiply;" class="link"><path stroke-width="1.4102564102564104" stroke="#4e79a7" d="M536.6666666666666,707.5641025641017C663.3333333333333,707.5641025641017,663.3333333333333,719.2548540724331,790,719.2548540724331"/></g><g style="mix-blend-mode: multiply;" class="link"><path stroke-width="1.4102564102564104" stroke="#4e79a7" d="M536.6666666666666,775.6410256410246C663.3333333333333,775.6410256410246,663.3333333333333,733.3574181749973,790,733.3574181749973"/></g><g style="mix-blend-mode: multiply;" class="link"><path stroke-width="18.333333333333336" stroke="#f28e2c" d="M536.6666666666666,785.5128205128195C663.3333333333333,785.5128205128195,663.3333333333333,777.9087002262792,790,777.9087002262792"/></g><g style="mix-blend-mode: multiply;" class="link"><path stroke-width="7.051282051282052" stroke="#4e79a7" d="M536.6666666666666,753.6538461538453C663.3333333333333,753.6538461538453,663.3333333333333,729.126648944228,790,729.126648944228"/></g><g style="mix-blend-mode: multiply;" class="link"><path stroke-width="7.756410256410257" stroke="#f28e2c" d="M536.6666666666666,761.0576923076915C663.3333333333333,761.0576923076915,663.3333333333333,764.8638284314073,790,764.8638284314073"/></g><g style="mix-blend-mode: multiply;" class="link"><path stroke-width="1.4102564102564104" stroke="#f28e2c" d="M536.6666666666666,865.8333333333322C663.3333333333333,865.8333333333322,663.3333333333333,792.7163925339715,790,792.7163925339715"/></g><g style="mix-blend-mode: multiply;" class="link"><path stroke-width="4.935897435897436" stroke="#f28e2c" d="M536.6666666666666,807.147435897435C663.3333333333333,807.147435897435,663.3333333333333,789.5433156108946,790,789.5433156108946"/></g><g style="mix-blend-mode: multiply;" class="link"><path stroke-width="19.743589743589745" stroke="#bab0ab" d="M10,748.8330710893565C136.66666666666666,748.8330710893565,136.66666666666666,754.494985494876,263.3333333333333,754.494985494876"/></g><g style="mix-blend-mode: multiply;" class="link"><path stroke-width="19.743589743589745" stroke="#59a14f" d="M273.3333333333333,769.3026778025683C400,769.3026778025683,400,784.8076923076914,526.6666666666666,784.8076923076914"/></g><g style="mix-blend-mode: multiply;" class="link"><path stroke-width="14.807692307692308" stroke="#bab0ab" d="M10,766.1087121149975C136.66666666666666,766.1087121149975,136.66666666666666,771.770626520517,263.3333333333333,771.770626520517"/></g><g style="mix-blend-mode: multiply;" class="link"><path stroke-width="14.807692307692308" stroke="#edc949" d="M273.3333333333333,752.0270367769273C400,752.0270367769273,400,757.5320512820505,526.6666666666666,757.5320512820505"/></g><g style="mix-blend-mode: multiply;" class="link"><path stroke-width="1.4102564102564104" stroke="#4e79a7" d="M10,716.3971736534589C136.66666666666666,716.3971736534589,136.66666666666666,702.0590880589785,263.3333333333333,702.0590880589785"/></g><g style="mix-blend-mode: multiply;" class="link"><path stroke-width="1.4102564102564104" stroke="#76b7b2" d="M273.3333333333333,702.0590880589785C400,702.0590880589785,400,707.5641025641017,526.6666666666666,707.5641025641017"/></g><g style="mix-blend-mode: multiply;" class="link"><path stroke-width="21.85897435897436" stroke="#f28e2c" d="M10,728.0317890380744C136.66666666666666,728.0317890380744,136.66666666666666,723.6937034435939,263.3333333333333,723.6937034435939"/></g><g style="mix-blend-mode: multiply;" class="link"><path stroke-width="21.85897435897436" stroke="#e15759" d="M273.3333333333333,723.6937034435939C400,723.6937034435939,400,729.1987179487171,526.6666666666666,729.1987179487171"/></g><g style="mix-blend-mode: multiply;" class="link"><path stroke-width="4.935897435897436" stroke="#bab0ab" d="M10,775.9805069867923C136.66666666666666,775.9805069867923,136.66666666666666,781.6424213923118,263.3333333333333,781.6424213923118"/></g><g style="mix-blend-mode: multiply;" class="link"><path stroke-width="4.935897435897436" stroke="#ff9da7" d="M273.3333333333333,781.6424213923118C400,781.6424213923118,400,807.147435897435,526.6666666666666,807.147435897435"/></g><g style="mix-blend-mode: multiply;" class="link"><path stroke-width="1.4102564102564104" stroke="#e15759" d="M10,779.1535839098692C136.66666666666666,779.1535839098692,136.66666666666666,814.5667499922554,263.3333333333333,814.5667499922554"/></g><g style="mix-blend-mode: multiply;" class="link"><path stroke-width="1.4102564102564104" stroke="#af7aa1" d="M273.3333333333333,814.5667499922554C400,814.5667499922554,400,865.8333333333322,526.6666666666666,865.8333333333322"/></g><g style="mix-blend-mode: multiply;" class="link"><path stroke-width="3.525641025641026" stroke="#76b7b2" d="M10,713.9292249355103C136.66666666666666,713.9292249355103,136.66666666666666,689.5911393410298,263.3333333333333,689.5911393410298"/></g><g style="mix-blend-mode: multiply;" class="link"><path stroke-width="3.525641025641026" stroke="#bab0ab" d="M273.3333333333333,689.5911393410298C400,689.5911393410298,400,695.0961538461532,526.6666666666666,695.0961538461532"/></g><g style="mix-blend-mode: multiply;" class="link"><path stroke-width="2.8205128205128207" stroke="#edc949" d="M536.6666666666666,821.0256410256402C663.3333333333333,821.0256410256402,663.3333333333333,879.2094371268362,790,879.2094371268362"/></g><g style="mix-blend-mode: multiply;" class="link"><path stroke-width="2.1153846153846154" stroke="#af7aa1" d="M536.6666666666666,823.4935897435888C663.3333333333333,823.4935897435888,663.3333333333333,915.6517448191438,790,915.6517448191438"/></g><g style="mix-blend-mode: multiply;" class="link"><path stroke-width="1" stroke="#edc949" d="M536.6666666666666,934.3910256410247C663.3333333333333,934.3910256410247,663.3333333333333,895.0748217422208,790,895.0748217422208"/></g><g style="mix-blend-mode: multiply;" class="link"><path stroke-width="6.346153846153847" stroke="#af7aa1" d="M536.6666666666666,937.9166666666657C663.3333333333333,937.9166666666657,663.3333333333333,943.8568730242721,790,943.8568730242721"/></g><g style="mix-blend-mode: multiply;" class="link"><path stroke-width="1.4102564102564104" stroke="#edc949" d="M536.6666666666666,835.2564102564094C663.3333333333333,835.2564102564094,663.3333333333333,881.3248217422207,790,881.3248217422207"/></g><g style="mix-blend-mode: multiply;" class="link"><path stroke-width="3.525641025641026" stroke="#edc949" d="M536.6666666666666,847.7243589743581C663.3333333333333,847.7243589743581,663.3333333333333,883.7927704601695,790,883.7927704601695"/></g><g style="mix-blend-mode: multiply;" class="link"><path stroke-width="5.641025641025641" stroke="#af7aa1" d="M536.6666666666666,852.3076923076914C663.3333333333333,852.3076923076914,663.3333333333333,919.529949947349,790,919.529949947349"/></g><g style="mix-blend-mode: multiply;" class="link"><path stroke-width="3.525641025641026" stroke="#edc949" d="M536.6666666666666,878.3012820512812C663.3333333333333,878.3012820512812,663.3333333333333,887.3184114858105,790,887.3184114858105"/></g><g style="mix-blend-mode: multiply;" class="link"><path stroke-width="4.230769230769231" stroke="#af7aa1" d="M536.6666666666666,882.1794871794863C663.3333333333333,882.1794871794863,663.3333333333333,924.4658473832465,790,924.4658473832465"/></g><g style="mix-blend-mode: multiply;" class="link"><path stroke-width="1" stroke="#edc949" d="M536.6666666666666,981.891025641025C663.3333333333333,981.891025641025,663.3333333333333,903.5363602037593,790,903.5363602037593"/></g><g style="mix-blend-mode: multiply;" class="link"><path stroke-width="1" stroke="#af7aa1" d="M536.6666666666666,982.5961538461531C663.3333333333333,982.5961538461531,663.3333333333333,960.0748217422208,790,960.0748217422208"/></g><g style="mix-blend-mode: multiply;" class="link"><path stroke-width="1" stroke="#edc949" d="M536.6666666666666,993.3012820512815C663.3333333333333,993.3012820512815,663.3333333333333,904.2414884088874,790,904.2414884088874"/></g><g style="mix-blend-mode: multiply;" class="link"><path stroke-width="6.346153846153847" stroke="#af7aa1" d="M536.6666666666666,996.8269230769225C663.3333333333333,996.8269230769225,663.3333333333333,963.6004627678618,790,963.6004627678618"/></g><g style="mix-blend-mode: multiply;" class="link"><path stroke-width="4.230769230769231" stroke="#edc949" d="M536.6666666666666,896.4102564102557C663.3333333333333,896.4102564102557,663.3333333333333,891.1966166140156,790,891.1966166140156"/></g><g style="mix-blend-mode: multiply;" class="link"><path stroke-width="10.576923076923078" stroke="#af7aa1" d="M536.6666666666666,903.8141025641019C663.3333333333333,903.8141025641019,663.3333333333333,931.8696935370926,790,931.8696935370926"/></g><g style="mix-blend-mode: multiply;" class="link"><path stroke-width="1.4102564102564104" stroke="#edc949" d="M536.6666666666666,919.8076923076914C663.3333333333333,919.8076923076914,663.3333333333333,894.0171294345284,790,894.0171294345284"/></g><g style="mix-blend-mode: multiply;" class="link"><path stroke-width="3.525641025641026" stroke="#af7aa1" d="M536.6666666666666,922.2756410256402C663.3333333333333,922.2756410256402,663.3333333333333,938.9209755883747,790,938.9209755883747"/></g><g style="mix-blend-mode: multiply;" class="link"><path stroke-width="7.756410256410257" stroke="#edc949" d="M536.6666666666666,954.9679487179479C663.3333333333333,954.9679487179479,663.3333333333333,899.30559097299,790,899.30559097299"/></g><g style="mix-blend-mode: multiply;" class="link"><path stroke-width="12.692307692307693" stroke="#af7aa1" d="M536.6666666666666,965.1923076923069C663.3333333333333,965.1923076923069,663.3333333333333,953.3761037935028,790,953.3761037935028"/></g><g style="mix-blend-mode: multiply;" class="link"><path stroke-width="9.166666666666668" stroke="#ff9da7" d="M10,850.5281669001355C136.66666666666666,850.5281669001355,136.66666666666666,829.8552115307172,263.3333333333333,829.8552115307172"/></g><g style="mix-blend-mode: multiply;" class="link"><path stroke-width="9.166666666666668" stroke="#bab0ab" d="M273.3333333333333,834.7911089666146C400,834.7911089666146,400,850.5448717948709,526.6666666666666,850.5448717948709"/></g><g style="mix-blend-mode: multiply;" class="link"><path stroke-width="7.756410256410257" stroke="#ff9da7" d="M10,858.9897053616738C136.66666666666666,858.9897053616738,136.66666666666666,838.3167499922555,263.3333333333333,838.3167499922555"/></g><g style="mix-blend-mode: multiply;" class="link"><path stroke-width="7.756410256410257" stroke="#4e79a7" d="M273.3333333333333,843.252647428153C400,843.252647428153,400,880.4166666666657,526.6666666666666,880.4166666666657"/></g><g style="mix-blend-mode: multiply;" class="link"><path stroke-width="4.935897435897436" stroke="#ff9da7" d="M10,865.3358592078278C136.66666666666666,865.3358592078278,136.66666666666666,844.6629038384094,263.3333333333333,844.6629038384094"/></g><g style="mix-blend-mode: multiply;" class="link"><path stroke-width="4.935897435897436" stroke="#59a14f" d="M273.3333333333333,827.7398269153325C400,827.7398269153325,400,822.0833333333325,526.6666666666666,822.0833333333325"/></g><g style="mix-blend-mode: multiply;" class="link"><path stroke-width="1.4102564102564104" stroke="#9c755f" d="M10,845.2397053616738C136.66666666666666,845.2397053616738,136.66666666666666,803.156493581999,263.3333333333333,803.156493581999"/></g><g style="mix-blend-mode: multiply;" class="link"><path stroke-width="1.4102564102564104" stroke="#9c755f" d="M273.3333333333333,803.156493581999C400,803.156493581999,400,835.2564102564094,526.6666666666666,835.2564102564094"/></g><g style="mix-blend-mode: multiply;" class="link"><path stroke-width="7.051282051282052" stroke="#ff9da7" d="M10,871.3294489514175C136.66666666666666,871.3294489514175,136.66666666666666,850.6564935819991,263.3333333333333,850.6564935819991"/></g><g style="mix-blend-mode: multiply;" class="link"><path stroke-width="7.051282051282052" stroke="#ff9da7" d="M273.3333333333333,870.4000833255889C400,870.4000833255889,400,937.5641025641016,526.6666666666666,937.5641025641016"/></g><g style="mix-blend-mode: multiply;" class="link"><path stroke-width="20.44871794871795" stroke="#ff9da7" d="M10,885.0794489514176C136.66666666666666,885.0794489514176,136.66666666666666,864.4064935819993,263.3333333333333,864.4064935819993"/></g><g style="mix-blend-mode: multiply;" class="link"><path stroke-width="20.44871794871795" stroke="#edc949" d="M273.3333333333333,884.150083325589C400,884.150083325589,400,961.3141025641019,526.6666666666666,961.3141025641019"/></g><g style="mix-blend-mode: multiply;" class="link"><path stroke-width="4.935897435897436" stroke="#ff9da7" d="M10,897.7717566437252C136.66666666666666,897.7717566437252,136.66666666666666,877.0988012743069,263.3333333333333,877.0988012743069"/></g><g style="mix-blend-mode: multiply;" class="link"><path stroke-width="4.935897435897436" stroke="#59a14f" d="M273.3333333333333,864.4064935819991C400,864.4064935819991,400,921.5705128205119,526.6666666666666,921.5705128205119"/></g><g style="mix-blend-mode: multiply;" class="link"><path stroke-width="14.807692307692308" stroke="#ff9da7" d="M10,907.6435515155201C136.66666666666666,907.6435515155201,136.66666666666666,886.9705961461018,263.3333333333333,886.9705961461018"/></g><g style="mix-blend-mode: multiply;" class="link"><path stroke-width="14.807692307692308" stroke="#76b7b2" d="M273.3333333333333,854.5346987102043C400,854.5346987102043,400,901.6987179487172,526.6666666666666,901.6987179487172"/></g><g style="mix-blend-mode: multiply;" class="link"><path stroke-width="7.051282051282052" stroke="#bab0ab" d="M10,919.9832951052637C136.66666666666666,919.9832951052637,136.66666666666666,966.3118304656836,263.3333333333333,966.3118304656836"/></g><g style="mix-blend-mode: multiply;" class="link"><path stroke-width="7.051282051282052" stroke="#e15759" d="M273.3333333333333,966.3118304656836C400,966.3118304656836,400,996.4743589743584,526.6666666666666,996.4743589743584"/></g><g style="mix-blend-mode: multiply;" class="link"><path stroke-width="1.4102564102564104" stroke="#4e79a7" d="M10,915.7525258744944C136.66666666666666,915.7525258744944,136.66666666666666,952.0810612385759,263.3333333333333,952.0810612385759"/></g><g style="mix-blend-mode: multiply;" class="link"><path stroke-width="1.4102564102564104" stroke="#f28e2c" d="M273.3333333333333,952.0810612385759C400,952.0810612385759,400,982.243589743589,526.6666666666666,982.243589743589"/></g></g></svg>