<svg aria-roledescription="sankey" role="graphics-document document" viewBox="0 0 800 1000" height="1000" xmlns:xlink="http://www.w3.org/1999/xlink" xmlns="http://www.w3.org/2000/svg" width="800" id="my-svg" style="background-color: white;"><style>#my-svg{font-family:"trebuchet ms",verdana,arial,sans-serif;font-size:33px;fill:#333;}#my-svg .error-icon{fill:hsl(220.5882352941, 100%, 98.3333333333%);}#my-svg .error-text{fill:rgb(8.5000000002, 5.7500000001, 0);stroke:rgb(8.5000000002, 5.7500000001, 0);}#my-svg .edge-thickness-normal{stroke-width:2px;}#my-svg .edge-thickness-thick{stroke-width:3.5px;}#my-svg .edge-pattern-solid{stroke-dasharray:0;}#my-svg .edge-pattern-dashed{stroke-dasharray:3;}#my-svg .edge-pattern-dotted{stroke-dasharray:2;}#my-svg .marker{fill:#0b0b0b;stroke:#0b0b0b;}#my-svg .marker.cross{stroke:#0b0b0b;}#my-svg svg{font-family:"trebuchet ms",verdana,arial,sans-serif;font-size:33px;}#my-svg :root{--mermaid-font-family:"trebuchet ms",verdana,arial,sans-serif;}</style><g/><g class="nodes"><g y="1.0348369659938543" x="0" transform="translate(0,1.0348369659938543)" id="node-1" class="node"><rect fill="#4e79a7" width="10" height="207.05128205128204"/></g><g y="1.0387138078930784" x="263.3333333333333" transform="translate(263.3333333333333,1.0387138078930784)" id="node-2" class="node"><rect fill="#f28e2c" width="10" height="207.05128205128207"/></g><g y="0" x="526.6666666666666" transform="translate(526.6666666666666,0)" id="node-3" class="node"><rect fill="#e15759" width="10" height="182.69230769230768"/></g><g y="0" x="790" transform="translate(790,0)" id="node-4" class="node"><rect fill="#76b7b2" width="10" height="462.82051282051276"/></g><g y="472.82051282051276" x="790" transform="translate(790,472.82051282051276)" id="node-5" class="node"><rect fill="#59a14f" width="10" height="487.179487179487"/></g><g y="192.69230769230768" x="526.6666666666666" transform="translate(526.6666666666666,192.69230769230768)" id="node-6" class="node"><rect fill="#edc949" width="10" height="24.358974358974365"/></g><g y="768.4282696362939" x="0" transform="translate(0,768.4282696362939)" id="node-7" class="node"><rect fill="#af7aa1" width="10" height="231.41025641025635"/></g><g y="758.5897435897436" x="263.3333333333333" transform="translate(263.3333333333333,758.5897435897436)" id="node-8" class="node"><rect fill="#ff9da7" width="10" height="24.358974358974365"/></g><g y="758.5897435897436" x="526.6666666666666" transform="translate(526.6666666666666,758.5897435897436)" id="node-9" class="node"><rect fill="#9c755f" width="10" height="24.358974358974365"/></g><g y="246.8898080978325" x="0" transform="translate(0,246.8898080978325)" id="node-10" class="node"><rect fill="#bab0ab" width="10" height="511.5384615384613"/></g><g y="227.0512820512824" x="263.3333333333333" transform="translate(263.3333333333333,227.0512820512824)" id="node-11" class="node"><rect fill="#4e79a7" width="10" height="267.9487179487178"/></g><g y="227.05128205128239" x="526.6666666666666" transform="translate(526.6666666666666,227.05128205128239)" id="node-12" class="node"><rect fill="#f28e2c" width="10" height="267.94871794871807"/></g><g y="792.948717948718" x="263.3333333333333" transform="translate(263.3333333333333,792.948717948718)" id="node-13" class="node"><rect fill="#e15759" width="10" height="207.051282051282"/></g><g y="792.948717948718" x="526.6666666666666" transform="translate(526.6666666666666,792.948717948718)" id="node-14" class="node"><rect fill="#76b7b2" width="10" height="207.051282051282"/></g><g y="505.0000000000002" x="263.3333333333333" transform="translate(263.3333333333333,505.0000000000002)" id="node-15" class="node"><rect fill="#59a14f" width="10" height="243.58974358974342"/></g><g y="505" x="526.6666666666666" transform="translate(526.6666666666666,505)" id="node-16" class="node"><rect fill="#edc949" width="10" height="243.58974358974365"/></g></g><g font-size="14" font-family="sans-serif" class="node-labels"><text text-anchor="start" dy="0.35em" y="104.56047799163488" x="16">RNA-seq/exome</text><text text-anchor="start" dy="0.35em" y="104.56435483353413" x="279.3333333333333">2011</text><text text-anchor="end" dy="0.35em" y="91.34615384615384" x="520.6666666666666">Morin 2011</text><text text-anchor="end" dy="0.35em" y="231.41025641025638" x="784">Tier 1 FL genes</text><text text-anchor="end" dy="0.35em" y="716.4102564102562" x="784">Tier 2 FL genes</text><text text-anchor="end" dy="0.35em" y="204.87179487179486" x="520.6666666666666">Pasqualucci 2011b</text><text text-anchor="start" dy="0.35em" y="884.133397841422" x="16">WGS</text><text text-anchor="start" dy="0.35em" y="770.7692307692308" x="279.3333333333333">2016 WGS</text><text text-anchor="end" dy="0.35em" y="770.7692307692308" x="520.6666666666666">Okosun 2016</text><text text-anchor="start" dy="0.35em" y="502.6590388670632" x="16">exome</text><text text-anchor="start" dy="0.35em" y="361.02564102564133" x="279.3333333333333">2017 exome</text><text text-anchor="end" dy="0.35em" y="361.02564102564145" x="520.6666666666666">Krysiak 2017</text><text text-anchor="start" dy="0.35em" y="896.474358974359" x="279.3333333333333">2021 WGS</text><text text-anchor="end" dy="0.35em" y="896.474358974359" x="520.6666666666666">Hubschmann 2021</text><text text-anchor="start" dy="0.35em" y="626.7948717948719" x="279.3333333333333">2023 exome</text><text text-anchor="end" dy="0.35em" y="626.7948717948718" x="520.6666666666666">Russler-Germain 2023</text></g><g stroke-opacity="0.5" fill="none" class="links"><g style="mix-blend-mode: multiply;" class="link"><path stroke-width="207.05128205128204" stroke="#f28e2c" d="M10,104.56047799163488C136.66666666666666,104.56047799163488,136.66666666666666,104.5643548335341,263.3333333333333,104.5643548335341"/></g><g style="mix-blend-mode: multiply;" class="link"><path stroke-width="182.69230769230768" stroke="#e15759" d="M273.3333333333333,92.38486765404691C400,92.38486765404691,400,91.34615384615384,526.6666666666666,91.34615384615384"/></g><g style="mix-blend-mode: multiply;" class="link"><path stroke-width="170.5128205128205" stroke="#76b7b2" d="M536.6666666666666,85.25641025641025C663.3333333333333,85.25641025641025,663.3333333333333,85.25641025641025,790,85.25641025641025"/></g><g style="mix-blend-mode: multiply;" class="link"><path stroke-width="12.179487179487179" stroke="#59a14f" d="M536.6666666666666,176.6025641025641C663.3333333333333,176.6025641025641,663.3333333333333,478.91025641025635,790,478.91025641025635"/></g><g style="mix-blend-mode: multiply;" class="link"><path stroke-width="24.358974358974358" stroke="#edc949" d="M273.3333333333333,195.91050867968795C400,195.91050867968795,400,204.87179487179486,526.6666666666666,204.87179487179486"/></g><g style="mix-blend-mode: multiply;" class="link"><path stroke-width="24.358974358974358" stroke="#76b7b2" d="M536.6666666666666,204.87179487179486C663.3333333333333,204.87179487179486,663.3333333333333,182.69230769230768,790,182.69230769230768"/></g><g style="mix-blend-mode: multiply;" class="link"><path stroke-width="24.358974358974358" stroke="#ff9da7" d="M10,780.607756815781C136.66666666666666,780.607756815781,136.66666666666666,770.7692307692308,263.3333333333333,770.7692307692308"/></g><g style="mix-blend-mode: multiply;" class="link"><path stroke-width="24.358974358974358" stroke="#9c755f" d="M273.3333333333333,770.7692307692308C400,770.7692307692308,400,770.7692307692308,526.6666666666666,770.7692307692308"/></g><g style="mix-blend-mode: multiply;" class="link"><path stroke-width="24.358974358974358" stroke="#76b7b2" d="M536.6666666666666,770.7692307692308C663.3333333333333,770.7692307692308,663.3333333333333,426.28205128205127,790,426.28205128205127"/></g><g style="mix-blend-mode: multiply;" class="link"><path stroke-width="267.94871794871796" stroke="#4e79a7" d="M10,380.8641670721915C136.66666666666666,380.8641670721915,136.66666666666666,361.0256410256414,263.3333333333333,361.0256410256414"/></g><g style="mix-blend-mode: multiply;" class="link"><path stroke-width="267.94871794871796" stroke="#f28e2c" d="M273.3333333333333,361.0256410256414C400,361.0256410256414,400,361.02564102564133,526.6666666666666,361.02564102564133"/></g><g style="mix-blend-mode: multiply;" class="link"><path stroke-width="60.8974358974359" stroke="#59a14f" d="M536.6666666666666,464.5512820512824C663.3333333333333,464.5512820512824,663.3333333333333,515.4487179487179,790,515.4487179487179"/></g><g style="mix-blend-mode: multiply;" class="link"><path stroke-width="207.05128205128204" stroke="#76b7b2" d="M536.6666666666666,330.57692307692344C663.3333333333333,330.57692307692344,663.3333333333333,298.3974358974359,790,298.3974358974359"/></g><g style="mix-blend-mode: multiply;" class="link"><path stroke-width="207.05128205128204" stroke="#e15759" d="M10,896.3128850209092C136.66666666666666,896.3128850209092,136.66666666666666,896.474358974359,263.3333333333333,896.474358974359"/></g><g style="mix-blend-mode: multiply;" class="link"><path stroke-width="207.05128205128204" stroke="#76b7b2" d="M273.3333333333333,896.474358974359C400,896.474358974359,400,896.474358974359,526.6666666666666,896.474358974359"/></g><g style="mix-blend-mode: multiply;" class="link"><path stroke-width="182.69230769230768" stroke="#59a14f" d="M536.6666666666666,908.6538461538462C663.3333333333333,908.6538461538462,663.3333333333333,868.653846153846,790,868.653846153846"/></g><g style="mix-blend-mode: multiply;" class="link"><path stroke-width="24.358974358974358" stroke="#76b7b2" d="M536.6666666666666,805.1282051282052C663.3333333333333,805.1282051282052,663.3333333333333,450.64102564102564,790,450.64102564102564"/></g><g style="mix-blend-mode: multiply;" class="link"><path stroke-width="243.5897435897436" stroke="#59a14f" d="M10,636.6333978414223C136.66666666666666,636.6333978414223,136.66666666666666,626.794871794872,263.3333333333333,626.794871794872"/></g><g style="mix-blend-mode: multiply;" class="link"><path stroke-width="243.5897435897436" stroke="#edc949" d="M273.3333333333333,626.794871794872C400,626.794871794872,400,626.7948717948718,526.6666666666666,626.7948717948718"/></g><g style="mix-blend-mode: multiply;" class="link"><path stroke-width="12.179487179487179" stroke="#76b7b2" d="M536.6666666666666,511.0897435897436C663.3333333333333,511.0897435897436,663.3333333333333,408.0128205128205,790,408.0128205128205"/></g><g style="mix-blend-mode: multiply;" class="link"><path stroke-width="231.4102564102564" stroke="#59a14f" d="M536.6666666666666,632.8846153846154C663.3333333333333,632.8846153846154,663.3333333333333,661.602564102564,790,661.602564102564"/></g></g></svg>