<svg aria-roledescription="sankey" role="graphics-document document" viewBox="0 0 800 750.7125244140625" height="750.7125244140625" xmlns:xlink="http://www.w3.org/1999/xlink" xmlns="http://www.w3.org/2000/svg" width="800" id="my-svg" style="background-color: white;"><style>#my-svg{font-family:"trebuchet ms",verdana,arial,sans-serif;font-size:16px;fill:#333;}#my-svg .error-icon{fill:#552222;}#my-svg .error-text{fill:#552222;stroke:#552222;}#my-svg .edge-thickness-normal{stroke-width:2px;}#my-svg .edge-thickness-thick{stroke-width:3.5px;}#my-svg .edge-pattern-solid{stroke-dasharray:0;}#my-svg .edge-pattern-dashed{stroke-dasharray:3;}#my-svg .edge-pattern-dotted{stroke-dasharray:2;}#my-svg .marker{fill:#333333;stroke:#333333;}#my-svg .marker.cross{stroke:#333333;}#my-svg svg{font-family:"trebuchet ms",verdana,arial,sans-serif;font-size:16px;}#my-svg :root{--mermaid-font-family:"trebuchet ms",verdana,arial,sans-serif;}</style><g/><g class="nodes"><g y="0" x="526.6666666666666" transform="translate(526.6666666666666,0)" id="node-1" class="node"><rect fill="#4e79a7" width="10" height="50.312499999999986"/></g><g y="0" x="790" transform="translate(790,0)" id="node-2" class="node"><rect fill="#f28e2c" width="10" height="503.1249999999999"/></g><g y="689.6874999999998" x="526.6666666666666" transform="translate(526.6666666666666,689.6874999999998)" id="node-3" class="node"><rect fill="#e15759" width="10" height="35.9375"/></g><g y="513.1249999999999" x="790" transform="translate(790,513.1249999999999)" id="node-4" class="node"><rect fill="#76b7b2" width="10" height="186.875"/></g><g y="735.6249999999998" x="526.6666666666666" transform="translate(526.6666666666666,735.6249999999998)" id="node-5" class="node"><rect fill="#59a14f" width="10" height="14.375"/></g><g y="60.312499999999986" x="526.6666666666666" transform="translate(526.6666666666666,60.312499999999986)" id="node-6" class="node"><rect fill="#edc949" width="10" height="201.25"/></g><g y="665.3124999999998" x="526.6666666666666" transform="translate(526.6666666666666,665.3124999999998)" id="node-7" class="node"><rect fill="#af7aa1" width="10" height="14.375"/></g><g y="432.4999999999998" x="526.6666666666666" transform="translate(526.6666666666666,432.4999999999998)" id="node-8" class="node"><rect fill="#ff9da7" width="10" height="222.8125"/></g><g y="271.5625" x="526.6666666666666" transform="translate(526.6666666666666,271.5625)" id="node-9" class="node"><rect fill="#9c755f" width="10" height="150.93749999999977"/></g><g y="13.940293062507234" x="0" transform="translate(0,13.940293062507234)" id="node-10" class="node"><rect fill="#bab0ab" width="10" height="690"/></g><g y="0" x="263.3333333333333" transform="translate(263.3333333333333,0)" id="node-11" class="node"><rect fill="#4e79a7" width="10" height="402.50000000000017"/></g><g y="674.3489565267026" x="263.3333333333333" transform="translate(263.3333333333333,674.3489565267026)" id="node-12" class="node"><rect fill="#f28e2c" width="10" height="35.9375"/></g><g y="720.2864565267026" x="263.3333333333333" transform="translate(263.3333333333333,720.2864565267026)" id="node-13" class="node"><rect fill="#e15759" width="10" height="14.375"/></g><g y="649.9739565267026" x="263.3333333333333" transform="translate(263.3333333333333,649.9739565267026)" id="node-14" class="node"><rect fill="#76b7b2" width="10" height="14.375"/></g><g y="417.1614565267027" x="263.3333333333333" transform="translate(263.3333333333333,417.1614565267027)" id="node-15" class="node"><rect fill="#59a14f" width="10" height="222.81249999999972"/></g></g><g font-size="14" font-family="sans-serif" class="node-labels"><text text-anchor="end" dy="0.35em" y="25.156249999999993" x="520.6666666666666">Parry 2013</text><text text-anchor="end" dy="0.35em" y="251.56249999999994" x="784">Tier 2</text><text text-anchor="end" dy="0.35em" y="707.6562499999998" x="520.6666666666666">Rossi 2011</text><text text-anchor="end" dy="0.35em" y="606.5624999999999" x="784">Tier 1</text><text text-anchor="end" dy="0.35em" y="742.8124999999998" x="520.6666666666666">Yan 2012</text><text text-anchor="end" dy="0.35em" y="160.9375" x="520.6666666666666">Jallades 2017</text><text text-anchor="end" dy="0.35em" y="672.4999999999998" x="520.6666666666666">Vandenbrand 2017</text><text text-anchor="end" dy="0.35em" y="543.9062499999998" x="520.6666666666666">Spina 2016</text><text text-anchor="end" dy="0.35em" y="347.0312499999999" x="520.6666666666666">Rossi 2012</text><text text-anchor="start" dy="0.35em" y="358.9402930625072" x="16">MZL genes</text><text text-anchor="start" dy="0.35em" y="201.25000000000009" x="279.3333333333333">MZL-exome</text><text text-anchor="start" dy="0.35em" y="692.3177065267026" x="279.3333333333333">MZL-Sanger</text><text text-anchor="start" dy="0.35em" y="727.4739565267026" x="279.3333333333333">MZL-Panel</text><text text-anchor="start" dy="0.35em" y="657.1614565267026" x="279.3333333333333">MZL-panel</text><text text-anchor="start" dy="0.35em" y="528.5677065267025" x="279.3333333333333">MZL-exome/panel</text></g><g stroke-opacity="0.5" fill="none" class="links"><g style="mix-blend-mode: multiply;" class="link"><path stroke-width="50.3125" stroke="#f28e2c" d="M536.6666666666666,25.15625C663.3333333333333,25.15625,663.3333333333333,25.15625,790,25.15625"/></g><g style="mix-blend-mode: multiply;" class="link"><path stroke-width="28.75" stroke="#76b7b2" d="M536.6666666666666,711.2499999999998C663.3333333333333,711.2499999999998,663.3333333333333,671.2499999999999,790,671.2499999999999"/></g><g style="mix-blend-mode: multiply;" class="link"><path stroke-width="7.1875" stroke="#f28e2c" d="M536.6666666666666,693.2812499999998C663.3333333333333,693.2812499999998,663.3333333333333,499.53125,790,499.53125"/></g><g style="mix-blend-mode: multiply;" class="link"><path stroke-width="14.375" stroke="#76b7b2" d="M536.6666666666666,742.8124999999998C663.3333333333333,742.8124999999998,663.3333333333333,692.8124999999999,790,692.8124999999999"/></g><g style="mix-blend-mode: multiply;" class="link"><path stroke-width="14.375" stroke="#76b7b2" d="M536.6666666666666,254.375C663.3333333333333,254.375,663.3333333333333,520.3124999999999,790,520.3124999999999"/></g><g style="mix-blend-mode: multiply;" class="link"><path stroke-width="186.875" stroke="#f28e2c" d="M536.6666666666666,153.75C663.3333333333333,153.75,663.3333333333333,143.75,790,143.75"/></g><g style="mix-blend-mode: multiply;" class="link"><path stroke-width="14.375" stroke="#f28e2c" d="M536.6666666666666,672.4999999999998C663.3333333333333,672.4999999999998,663.3333333333333,488.75,790,488.75"/></g><g style="mix-blend-mode: multiply;" class="link"><path stroke-width="57.5" stroke="#76b7b2" d="M536.6666666666666,626.5624999999998C663.3333333333333,626.5624999999998,663.3333333333333,628.1249999999999,790,628.1249999999999"/></g><g style="mix-blend-mode: multiply;" class="link"><path stroke-width="165.3125" stroke="#f28e2c" d="M536.6666666666666,515.1562499999998C663.3333333333333,515.1562499999998,663.3333333333333,398.90625,790,398.90625"/></g><g style="mix-blend-mode: multiply;" class="link"><path stroke-width="71.875" stroke="#76b7b2" d="M536.6666666666666,386.5625C663.3333333333333,386.5625,663.3333333333333,563.4374999999999,790,563.4374999999999"/></g><g style="mix-blend-mode: multiply;" class="link"><path stroke-width="79.0625" stroke="#f28e2c" d="M536.6666666666666,311.09375C663.3333333333333,311.09375,663.3333333333333,276.71875,790,276.71875"/></g><g style="mix-blend-mode: multiply;" class="link"><path stroke-width="50.3125" stroke="#4e79a7" d="M10,39.09654306250724C136.66666666666666,39.09654306250724,136.66666666666666,25.15625,263.3333333333333,25.15625"/></g><g style="mix-blend-mode: multiply;" class="link"><path stroke-width="50.3125" stroke="#4e79a7" d="M273.3333333333333,25.15625C400,25.15625,400,25.15625,526.6666666666666,25.15625"/></g><g style="mix-blend-mode: multiply;" class="link"><path stroke-width="35.9375" stroke="#f28e2c" d="M10,671.5965430625072C136.66666666666666,671.5965430625072,136.66666666666666,692.3177065267026,263.3333333333333,692.3177065267026"/></g><g style="mix-blend-mode: multiply;" class="link"><path stroke-width="35.9375" stroke="#e15759" d="M273.3333333333333,692.3177065267026C400,692.3177065267026,400,707.6562499999998,526.6666666666666,707.6562499999998"/></g><g style="mix-blend-mode: multiply;" class="link"><path stroke-width="14.375" stroke="#e15759" d="M10,696.7527930625072C136.66666666666666,696.7527930625072,136.66666666666666,727.4739565267026,263.3333333333333,727.4739565267026"/></g><g style="mix-blend-mode: multiply;" class="link"><path stroke-width="14.375" stroke="#59a14f" d="M273.3333333333333,727.4739565267026C400,727.4739565267026,400,742.8124999999998,526.6666666666666,742.8124999999998"/></g><g style="mix-blend-mode: multiply;" class="link"><path stroke-width="201.25" stroke="#4e79a7" d="M10,164.87779306250724C136.66666666666666,164.87779306250724,136.66666666666666,150.9375,263.3333333333333,150.9375"/></g><g style="mix-blend-mode: multiply;" class="link"><path stroke-width="201.25" stroke="#edc949" d="M273.3333333333333,150.9375C400,150.9375,400,160.9375,526.6666666666666,160.9375"/></g><g style="mix-blend-mode: multiply;" class="link"><path stroke-width="14.375" stroke="#76b7b2" d="M10,646.4402930625072C136.66666666666666,646.4402930625072,136.66666666666666,657.1614565267026,263.3333333333333,657.1614565267026"/></g><g style="mix-blend-mode: multiply;" class="link"><path stroke-width="14.375" stroke="#af7aa1" d="M273.3333333333333,657.1614565267026C400,657.1614565267026,400,672.4999999999998,526.6666666666666,672.4999999999998"/></g><g style="mix-blend-mode: multiply;" class="link"><path stroke-width="222.8125" stroke="#59a14f" d="M10,527.8465430625072C136.66666666666666,527.8465430625072,136.66666666666666,528.5677065267028,263.3333333333333,528.5677065267028"/></g><g style="mix-blend-mode: multiply;" class="link"><path stroke-width="222.8125" stroke="#ff9da7" d="M273.3333333333333,528.5677065267028C400,528.5677065267028,400,543.9062499999998,526.6666666666666,543.9062499999998"/></g><g style="mix-blend-mode: multiply;" class="link"><path stroke-width="150.9375" stroke="#4e79a7" d="M10,340.97154306250724C136.66666666666666,340.97154306250724,136.66666666666666,327.03125,263.3333333333333,327.03125"/></g><g style="mix-blend-mode: multiply;" class="link"><path stroke-width="150.9375" stroke="#9c755f" d="M273.3333333333333,327.03125C400,327.03125,400,347.03125,526.6666666666666,347.03125"/></g></g></svg>