<svg aria-roledescription="sankey" role="graphics-document document" viewBox="0 0 800 750" height="750" xmlns:xlink="http://www.w3.org/1999/xlink" xmlns="http://www.w3.org/2000/svg" width="800" id="my-svg" style="background-color: white;"><style>#my-svg{font-family:"trebuchet ms",verdana,arial,sans-serif;font-size:16px;fill:#333;}#my-svg .error-icon{fill:#552222;}#my-svg .error-text{fill:#552222;stroke:#552222;}#my-svg .edge-thickness-normal{stroke-width:2px;}#my-svg .edge-thickness-thick{stroke-width:3.5px;}#my-svg .edge-pattern-solid{stroke-dasharray:0;}#my-svg .edge-pattern-dashed{stroke-dasharray:3;}#my-svg .edge-pattern-dotted{stroke-dasharray:2;}#my-svg .marker{fill:#333333;stroke:#333333;}#my-svg .marker.cross{stroke:#333333;}#my-svg svg{font-family:"trebuchet ms",verdana,arial,sans-serif;font-size:16px;}#my-svg :root{--mermaid-font-family:"trebuchet ms",verdana,arial,sans-serif;}</style><g/><g class="nodes"><g y="650.3448275862067" x="526.6666666666666" transform="translate(526.6666666666666,650.3448275862067)" id="node-1" class="node"><rect fill="#4e79a7" width="10" height="11.379310344827445"/></g><g y="0" x="790" transform="translate(790,0)" id="node-2" class="node"><rect fill="#f28e2c" width="10" height="216.20689655172427"/></g><g y="693.1034482758619" x="526.6666666666666" transform="translate(526.6666666666666,693.1034482758619)" id="node-3" class="node"><rect fill="#e15759" width="10" height="56.89655172413791"/></g><g y="226.20689655172427" x="790" transform="translate(790,226.20689655172427)" id="node-4" class="node"><rect fill="#76b7b2" width="10" height="443.79310344827593"/></g><g y="175" x="526.6666666666666" transform="translate(526.6666666666666,175)" id="node-5" class="node"><rect fill="#59a14f" width="10" height="62.58620689655169"/></g><g y="0" x="526.6666666666666" transform="translate(526.6666666666666,0)" id="node-6" class="node"><rect fill="#edc949" width="10" height="165"/></g><g y="671.7241379310342" x="526.6666666666666" transform="translate(526.6666666666666,671.7241379310342)" id="node-7" class="node"><rect fill="#af7aa1" width="10" height="11.379310344827672"/></g><g y="247.5862068965517" x="526.6666666666666" transform="translate(526.6666666666666,247.5862068965517)" id="node-8" class="node"><rect fill="#ff9da7" width="10" height="39.82758620689651"/></g><g y="297.4137931034482" x="526.6666666666666" transform="translate(526.6666666666666,297.4137931034482)" id="node-9" class="node"><rect fill="#9c755f" width="10" height="73.96551724137925"/></g><g y="381.37931034482745" x="526.6666666666666" transform="translate(526.6666666666666,381.37931034482745)" id="node-10" class="node"><rect fill="#bab0ab" width="10" height="119.48275862068965"/></g><g y="510.8620689655171" x="526.6666666666666" transform="translate(526.6666666666666,510.8620689655171)" id="node-11" class="node"><rect fill="#4e79a7" width="10" height="62.58620689655186"/></g><g y="583.448275862069" x="526.6666666666666" transform="translate(526.6666666666666,583.448275862069)" id="node-12" class="node"><rect fill="#f28e2c" width="10" height="56.896551724137794"/></g><g y="0" x="0" transform="translate(0,0)" id="node-13" class="node"><rect fill="#e15759" width="10" height="659.9999999999999"/></g><g y="0" x="263.3333333333333" transform="translate(263.3333333333333,0)" id="node-14" class="node"><rect fill="#76b7b2" width="10" height="580.3448275862067"/></g><g y="625.9889886795344" x="263.3333333333333" transform="translate(263.3333333333333,625.9889886795344)" id="node-15" class="node"><rect fill="#59a14f" width="10" height="11.379310344827445"/></g><g y="650.126964418254" x="263.3333333333333" transform="translate(263.3333333333333,650.126964418254)" id="node-16" class="node"><rect fill="#edc949" width="10" height="56.89655172413791"/></g><g y="604.6096783347068" x="263.3333333333333" transform="translate(263.3333333333333,604.6096783347068)" id="node-17" class="node"><rect fill="#af7aa1" width="10" height="11.379310344827445"/></g></g><g font-size="14" font-family="sans-serif" class="node-labels"><text text-anchor="end" dy="0.35em" y="656.0344827586205" x="520.6666666666666">Otto 2012</text><text text-anchor="end" dy="0.35em" y="108.10344827586214" x="784">Tier 1</text><text text-anchor="end" dy="0.35em" y="721.5517241379308" x="520.6666666666666">Desch 2020</text><text text-anchor="end" dy="0.35em" y="448.10344827586226" x="784">Tier 2</text><text text-anchor="end" dy="0.35em" y="206.29310344827584" x="520.6666666666666">Sarkozy 2021</text><text text-anchor="end" dy="0.35em" y="82.5" x="520.6666666666666">Reichel 2015</text><text text-anchor="end" dy="0.35em" y="677.413793103448" x="520.6666666666666">Weniger 2006</text><text text-anchor="end" dy="0.35em" y="267.49999999999994" x="520.6666666666666">Wienand 2019</text><text text-anchor="end" dy="0.35em" y="334.3965517241378" x="520.6666666666666">Duns 2021</text><text text-anchor="end" dy="0.35em" y="441.12068965517227" x="520.6666666666666">Mottok 2019</text><text text-anchor="end" dy="0.35em" y="542.155172413793" x="520.6666666666666">Gomez 2023</text><text text-anchor="end" dy="0.35em" y="611.8965517241379" x="520.6666666666666">Tiacci 2018</text><text text-anchor="start" dy="0.35em" y="329.99999999999994" x="16">PMBL genes</text><text text-anchor="start" dy="0.35em" y="290.1724137931034" x="279.3333333333333">PMBL-exome</text><text text-anchor="start" dy="0.35em" y="631.6786438519481" x="279.3333333333333">PMBL-Sanger</text><text text-anchor="start" dy="0.35em" y="678.575240280323" x="279.3333333333333">PMBL-panel</text><text text-anchor="start" dy="0.35em" y="610.2993335071205" x="279.3333333333333">PMBL-Array/Sanger</text></g><g stroke-opacity="0.5" fill="none" class="links"><g style="mix-blend-mode: multiply;" class="link"><path stroke-width="11.379310344827585" stroke="#f28e2c" d="M536.6666666666666,656.0344827586206C663.3333333333333,656.0344827586206,663.3333333333333,199.13793103448273,790,199.13793103448273"/></g><g style="mix-blend-mode: multiply;" class="link"><path stroke-width="5.689655172413793" stroke="#f28e2c" d="M536.6666666666666,695.9482758620687C663.3333333333333,695.9482758620687,663.3333333333333,213.3620689655172,790,213.3620689655172"/></g><g style="mix-blend-mode: multiply;" class="link"><path stroke-width="51.206896551724135" stroke="#76b7b2" d="M536.6666666666666,724.3965517241378C663.3333333333333,724.3965517241378,663.3333333333333,644.3965517241382,790,644.3965517241382"/></g><g style="mix-blend-mode: multiply;" class="link"><path stroke-width="28.448275862068964" stroke="#f28e2c" d="M536.6666666666666,189.22413793103448C663.3333333333333,189.22413793103448,663.3333333333333,76.8103448275862,790,76.8103448275862"/></g><g style="mix-blend-mode: multiply;" class="link"><path stroke-width="34.137931034482754" stroke="#76b7b2" d="M536.6666666666666,220.51724137931032C663.3333333333333,220.51724137931032,663.3333333333333,345.68965517241395,790,345.68965517241395"/></g><g style="mix-blend-mode: multiply;" class="link"><path stroke-width="62.58620689655172" stroke="#f28e2c" d="M536.6666666666666,31.29310344827586C663.3333333333333,31.29310344827586,663.3333333333333,31.29310344827586,790,31.29310344827586"/></g><g style="mix-blend-mode: multiply;" class="link"><path stroke-width="102.41379310344827" stroke="#76b7b2" d="M536.6666666666666,113.79310344827586C663.3333333333333,113.79310344827586,663.3333333333333,277.4137931034484,790,277.4137931034484"/></g><g style="mix-blend-mode: multiply;" class="link"><path stroke-width="5.689655172413793" stroke="#f28e2c" d="M536.6666666666666,674.568965517241C663.3333333333333,674.568965517241,663.3333333333333,207.67241379310343,790,207.67241379310343"/></g><g style="mix-blend-mode: multiply;" class="link"><path stroke-width="5.689655172413793" stroke="#76b7b2" d="M536.6666666666666,680.2586206896549C663.3333333333333,680.2586206896549,663.3333333333333,615.9482758620692,790,615.9482758620692"/></g><g style="mix-blend-mode: multiply;" class="link"><path stroke-width="22.75862068965517" stroke="#f28e2c" d="M536.6666666666666,258.96551724137925C663.3333333333333,258.96551724137925,663.3333333333333,102.41379310344827,790,102.41379310344827"/></g><g style="mix-blend-mode: multiply;" class="link"><path stroke-width="17.068965517241377" stroke="#76b7b2" d="M536.6666666666666,278.87931034482756C663.3333333333333,278.87931034482756,663.3333333333333,371.293103448276,790,371.293103448276"/></g><g style="mix-blend-mode: multiply;" class="link"><path stroke-width="28.448275862068964" stroke="#f28e2c" d="M536.6666666666666,311.6379310344827C663.3333333333333,311.6379310344827,663.3333333333333,128.01724137931035,790,128.01724137931035"/></g><g style="mix-blend-mode: multiply;" class="link"><path stroke-width="45.51724137931034" stroke="#76b7b2" d="M536.6666666666666,348.6206896551723C663.3333333333333,348.6206896551723,663.3333333333333,402.58620689655186,790,402.58620689655186"/></g><g style="mix-blend-mode: multiply;" class="link"><path stroke-width="34.137931034482754" stroke="#f28e2c" d="M536.6666666666666,398.44827586206884C663.3333333333333,398.44827586206884,663.3333333333333,159.3103448275862,790,159.3103448275862"/></g><g style="mix-blend-mode: multiply;" class="link"><path stroke-width="85.34482758620689" stroke="#76b7b2" d="M536.6666666666666,458.1896551724136C663.3333333333333,458.1896551724136,663.3333333333333,468.01724137931046,790,468.01724137931046"/></g><g style="mix-blend-mode: multiply;" class="link"><path stroke-width="11.379310344827585" stroke="#f28e2c" d="M536.6666666666666,516.5517241379309C663.3333333333333,516.5517241379309,663.3333333333333,182.06896551724137,790,182.06896551724137"/></g><g style="mix-blend-mode: multiply;" class="link"><path stroke-width="51.206896551724135" stroke="#76b7b2" d="M536.6666666666666,547.8448275862067C663.3333333333333,547.8448275862067,663.3333333333333,536.293103448276,790,536.293103448276"/></g><g style="mix-blend-mode: multiply;" class="link"><path stroke-width="5.689655172413793" stroke="#f28e2c" d="M536.6666666666666,586.2931034482758C663.3333333333333,586.2931034482758,663.3333333333333,190.60344827586206,790,190.60344827586206"/></g><g style="mix-blend-mode: multiply;" class="link"><path stroke-width="51.206896551724135" stroke="#76b7b2" d="M536.6666666666666,614.7413793103449C663.3333333333333,614.7413793103449,663.3333333333333,587.5000000000002,790,587.5000000000002"/></g><g style="mix-blend-mode: multiply;" class="link"><path stroke-width="62.58620689655172" stroke="#76b7b2" d="M10,31.29310344827586C136.66666666666666,31.29310344827586,136.66666666666666,31.29310344827586,263.3333333333333,31.29310344827586"/></g><g style="mix-blend-mode: multiply;" class="link"><path stroke-width="62.58620689655172" stroke="#4e79a7" d="M273.3333333333333,492.1551724137931C400,492.1551724137931,400,542.1551724137929,526.6666666666666,542.1551724137929"/></g><g style="mix-blend-mode: multiply;" class="link"><path stroke-width="56.89655172413793" stroke="#76b7b2" d="M10,91.03448275862068C136.66666666666666,91.03448275862068,136.66666666666666,91.03448275862068,263.3333333333333,91.03448275862068"/></g><g style="mix-blend-mode: multiply;" class="link"><path stroke-width="56.89655172413793" stroke="#f28e2c" d="M273.3333333333333,551.8965517241379C400,551.8965517241379,400,611.8965517241379,526.6666666666666,611.8965517241379"/></g><g style="mix-blend-mode: multiply;" class="link"><path stroke-width="119.48275862068965" stroke="#76b7b2" d="M10,179.22413793103448C136.66666666666666,179.22413793103448,136.66666666666666,179.22413793103448,263.3333333333333,179.22413793103448"/></g><g style="mix-blend-mode: multiply;" class="link"><path stroke-width="119.48275862068965" stroke="#bab0ab" d="M273.3333333333333,401.1206896551724C400,401.1206896551724,400,441.12068965517227,526.6666666666666,441.12068965517227"/></g><g style="mix-blend-mode: multiply;" class="link"><path stroke-width="39.82758620689655" stroke="#76b7b2" d="M10,258.87931034482756C136.66666666666666,258.87931034482756,136.66666666666666,258.87931034482756,263.3333333333333,258.87931034482756"/></g><g style="mix-blend-mode: multiply;" class="link"><path stroke-width="39.82758620689655" stroke="#ff9da7" d="M273.3333333333333,247.5C400,247.5,400,267.49999999999994,526.6666666666666,267.49999999999994"/></g><g style="mix-blend-mode: multiply;" class="link"><path stroke-width="73.9655172413793" stroke="#76b7b2" d="M10,315.7758620689655C136.66666666666666,315.7758620689655,136.66666666666666,315.7758620689655,263.3333333333333,315.7758620689655"/></g><g style="mix-blend-mode: multiply;" class="link"><path stroke-width="73.9655172413793" stroke="#9c755f" d="M273.3333333333333,304.3965517241379C400,304.3965517241379,400,334.39655172413785,526.6666666666666,334.39655172413785"/></g><g style="mix-blend-mode: multiply;" class="link"><path stroke-width="165" stroke="#76b7b2" d="M10,435.2586206896552C136.66666666666666,435.2586206896552,136.66666666666666,435.2586206896552,263.3333333333333,435.2586206896552"/></g><g style="mix-blend-mode: multiply;" class="link"><path stroke-width="165" stroke="#edc949" d="M273.3333333333333,82.5C400,82.5,400,82.5,526.6666666666666,82.5"/></g><g style="mix-blend-mode: multiply;" class="link"><path stroke-width="11.379310344827585" stroke="#59a14f" d="M10,597.4137931034483C136.66666666666666,597.4137931034483,136.66666666666666,631.6786438519482,263.3333333333333,631.6786438519482"/></g><g style="mix-blend-mode: multiply;" class="link"><path stroke-width="11.379310344827585" stroke="#af7aa1" d="M273.3333333333333,631.6786438519482C400,631.6786438519482,400,677.413793103448,526.6666666666666,677.413793103448"/></g><g style="mix-blend-mode: multiply;" class="link"><path stroke-width="62.58620689655172" stroke="#76b7b2" d="M10,549.0517241379309C136.66666666666666,549.0517241379309,136.66666666666666,549.0517241379309,263.3333333333333,549.0517241379309"/></g><g style="mix-blend-mode: multiply;" class="link"><path stroke-width="62.58620689655172" stroke="#59a14f" d="M273.3333333333333,196.29310344827587C400,196.29310344827587,400,206.29310344827587,526.6666666666666,206.29310344827587"/></g><g style="mix-blend-mode: multiply;" class="link"><path stroke-width="56.89655172413793" stroke="#edc949" d="M10,631.5517241379309C136.66666666666666,631.5517241379309,136.66666666666666,678.575240280323,263.3333333333333,678.575240280323"/></g><g style="mix-blend-mode: multiply;" class="link"><path stroke-width="56.89655172413793" stroke="#e15759" d="M273.3333333333333,678.575240280323C400,678.575240280323,400,721.5517241379308,526.6666666666666,721.5517241379308"/></g><g style="mix-blend-mode: multiply;" class="link"><path stroke-width="11.379310344827585" stroke="#af7aa1" d="M10,586.0344827586207C136.66666666666666,586.0344827586207,136.66666666666666,610.2993335071207,263.3333333333333,610.2993335071207"/></g><g style="mix-blend-mode: multiply;" class="link"><path stroke-width="11.379310344827585" stroke="#4e79a7" d="M273.3333333333333,610.2993335071207C400,610.2993335071207,400,656.0344827586206,526.6666666666666,656.0344827586206"/></g></g></svg>