<svg xmlns="http://www.w3.org/2000/svg" data-testid="sjpp_block_svg" width="1495.3984375" height="694.1453125"><g transform="translate(0,0)"><g transform="translate(125.3984375, 0)"/><rect fill="#FFFF99" x="844" width="0" height="562.1453125"/><g transform="translate(125.3984375, 23)"><g transform="translate(0,0)"><text text-anchor="end" x="-13" y="-10" dominant-baseline="central" font-size="13" font-family="Arial">Protein length</text><g><g transform="translate(0,0)" fill="none" font-size="10" font-family="sans-serif" text-anchor="middle"><path class="domain" stroke="black" d="M0,-6V0H1260V-6" fill="none" stroke-width="1" shape-rendering="crispEdges"/><g class="tick" opacity="1" transform="translate(99.26045016077171,0)"><line stroke="black" y2="-6" shape-rendering="crispEdges"/><text fill="black" y="-9" dy="0em" font-family="Arial" font-size="12px" style="cursor: default;">50</text></g><g class="tick" opacity="1" transform="translate(200.5466237942122,0)"><line stroke="black" y2="-6" shape-rendering="crispEdges"/><text fill="black" y="-9" dy="0em" font-family="Arial" font-size="12px" style="cursor: default;">100</text></g><g class="tick" opacity="1" transform="translate(301.83279742765274,0)"><line stroke="black" y2="-6" shape-rendering="crispEdges"/><text fill="black" y="-9" dy="0em" font-family="Arial" font-size="12px" style="cursor: default;">150</text></g><g class="tick" opacity="1" transform="translate(403.11897106109325,0)"><line stroke="black" y2="-6" shape-rendering="crispEdges"/><text fill="black" y="-9" dy="0em" font-family="Arial" font-size="12px" style="cursor: default;">200</text></g><g class="tick" opacity="1" transform="translate(504.40514469453376,0)"><line stroke="black" y2="-6" shape-rendering="crispEdges"/><text fill="black" y="-9" dy="0em" font-family="Arial" font-size="12px" style="cursor: default;">250</text></g><g class="tick" opacity="1" transform="translate(605.6913183279743,0)"><line stroke="black" y2="-6" shape-rendering="crispEdges"/><text fill="black" y="-9" dy="0em" font-family="Arial" font-size="12px" style="cursor: default;">300</text></g><g class="tick" opacity="1" transform="translate(706.9774919614147,0)"><line stroke="black" y2="-6" shape-rendering="crispEdges"/><text fill="black" y="-9" dy="0em" font-family="Arial" font-size="12px" style="cursor: default;">350</text></g><g class="tick" opacity="1" transform="translate(808.2636655948553,0)"><line stroke="black" y2="-6" shape-rendering="crispEdges"/><text fill="black" y="-9" dy="0em" font-family="Arial" font-size="12px" style="cursor: default;">400</text></g><g class="tick" opacity="1" transform="translate(909.5498392282958,0)"><line stroke="black" y2="-6" shape-rendering="crispEdges"/><text fill="black" y="-9" dy="0em" font-family="Arial" font-size="12px" style="cursor: default;">450</text></g><g class="tick" opacity="1" transform="translate(1010.8360128617363,0)"><line stroke="black" y2="-6" shape-rendering="crispEdges"/><text fill="black" y="-9" dy="0em" font-family="Arial" font-size="12px" style="cursor: default;">500</text></g><g class="tick" opacity="1" transform="translate(1112.1221864951767,0)"><line stroke="black" y2="-6" shape-rendering="crispEdges"/><text fill="black" y="-9" dy="0em" font-family="Arial" font-size="12px" style="cursor: default;">550</text></g><g class="tick" opacity="1" transform="translate(1213.4083601286175,0)"><line stroke="black" y2="-6" shape-rendering="crispEdges"/><text fill="black" y="-9" dy="0em" font-family="Arial" font-size="12px" style="cursor: default;">600</text></g></g></g><rect fill="white" fill-opacity="0" x="0" y="-23" width="1260" height="26"/></g><g transform="translate(1260, 0)"/></g><g data-testid="sja_sample_menu_opener" transform="translate(0, 205.1671905517578)"><g transform="translate(1385.3984375, 0)"/><g transform="translate(125.3984375, 0)"><rect fill="white" fill-opacity="0" width="1260" height="135.1828125"/><g transform="translate(0,0)" style="cursor: default;"><g class="sja_skg" transform="translate(1111.7845458984375, 23.799999237060547)"><g transform="translate(0, 7)" class="sja_aa_discg"><circle fill="#2ca02c" stroke="white" r="6.5"/><text font-size="12" fill="#2ca02c" x="8" y="3.5999999999999996" font-family="Arial" class="sja_aa_disclabel" fill-opacity="1" transform="scale(1) rotate(0)">c.1647G&gt;A(p.=)</text><circle r="6.5" stroke="#2ca02c" class="sja_aa_disckick" fill="white" fill-opacity="0" stroke-opacity="0" transform="scale(1)"/><path d="M4.286263797015736e-16,-7L4.286263797015736e-16,-7Z" fill="#2ca02c" class="sja_aa_discrim" fill-opacity="1" stroke-opacity="1"/></g><circle class="sja_aa_skkick" fill="white" fill-opacity="0" stroke="none" r="8" cy="7" transform="scale(0)"/><path class="sja_aa_stem" d="M0,0v0l0,0v-23.799999999999997" stroke="#2ca02c" fill="none"/></g></g><g/><g transform="scale(0)"><rect fill="white" fill-opacity="0" width="1260" height="0"/><text data-testid="loading_message" fill="rgb(97, 124, 148)" fill-opacity="0" font-weight="bold" font-size="18px" text-anchor="middle" dominant-baseline="middle" x="630" y="15">Loading ...</text><line stroke="rgb(97, 124, 148)" stroke-width="2px" y1="30" y2="30" x2="0"/></g></g><g transform="translate(122.3984375, 0)"><text font-size="14" font-family="Arial" y="7" text-anchor="end" dominant-baseline="central" fill="black" x="-10" font-weight="bold">GAMBL DLBCL</text><g/><text font-size="14" font-family="Arial" y="26" text-anchor="end" dominant-baseline="central" class="sja_clbtext2" fill="black" x="-10">1 mutation</text></g><g transform="translate(1395.3984375, 0)"/></g><g data-testid="sja_sample_menu_opener" transform="translate(0, 340.3500061035156)"><g transform="translate(1385.3984375, 0)"/><g transform="translate(125.3984375,0)"><rect fill="white" fill-opacity="0" width="1260" height="110.2921875"/><g transform="translate(0,0)" style="cursor: default;"><g class="sja_skg" transform="translate(106.35047912597656, 23.799999237060547)"><g transform="translate(0, 7)" class="sja_aa_discg"><circle fill="#3987CC" stroke="white" r="6.5"/><text font-size="12" fill="#3987CC" x="8" y="3.5999999999999996" font-family="Arial" class="sja_aa_disclabel" fill-opacity="1" transform="scale(1) rotate(0)">p.Val53Asp</text><circle r="6.5" stroke="#3987CC" class="sja_aa_disckick" fill="white" fill-opacity="0" stroke-opacity="0" transform="scale(1)"/><path d="M4.286263797015736e-16,-7L4.286263797015736e-16,-7Z" fill="#3987CC" class="sja_aa_discrim" fill-opacity="1" stroke-opacity="1"/></g><circle class="sja_aa_skkick" fill="white" fill-opacity="0" stroke="none" r="8" cy="7" transform="scale(0)"/><path class="sja_aa_stem" d="M0,0v0l0,0v-23.799999999999997" stroke="#3987CC" fill="none"/></g></g><g/><g transform="scale(0)"><rect fill="white" fill-opacity="0" width="1260" height="0"/><text data-testid="loading_message" fill="rgb(97, 124, 148)" fill-opacity="0" font-weight="bold" font-size="18px" text-anchor="middle" dominant-baseline="middle" x="630" y="15">Loading ...</text><line stroke="rgb(97, 124, 148)" stroke-width="2px" y1="30" y2="30" x2="0"/></g></g><g transform="translate(122.3984375,0)"><text font-size="14" font-family="Arial" y="7" text-anchor="end" dominant-baseline="central" fill="black" x="-10" font-weight="bold">GAMBL FL</text><g/><text font-size="14" font-family="Arial" y="26" text-anchor="end" dominant-baseline="central" class="sja_clbtext2" fill="black" x="-10">1 mutation</text></g><g transform="translate(1395.3984375,0)"/></g><g data-testid="sja_sample_menu_opener" transform="translate(0, 31)"><g transform="translate(1385.3984375, 0)"/><g transform="translate(125.3984375,0)"><rect fill="white" fill-opacity="0" width="1260" height="127.1671875"/><g transform="translate(0,0)" style="cursor: default;"><g class="sja_skg" transform="translate(187.37942504882812, 93.3671875)"><g transform="translate(0, -7)" class="sja_aa_discg"><circle fill="#3987CC" stroke="white" r="6.5"/><text font-size="12" fill="#3987CC" x="8" y="3.5999999999999996" font-family="Arial" class="sja_aa_disclabel" fill-opacity="1" transform="scale(1) rotate(0)">p.Ile93Thr</text><circle r="6.5" stroke="#3987CC" class="sja_aa_disckick" fill="white" fill-opacity="0" stroke-opacity="0" transform="scale(1)"/><path d="M4.286263797015736e-16,-7L4.286263797015736e-16,-7Z" fill="#3987CC" class="sja_aa_discrim" fill-opacity="1" stroke-opacity="1"/></g><circle class="sja_aa_skkick" fill="white" fill-opacity="0" stroke="none" r="8" cy="-7" transform="scale(0)"/><path class="sja_aa_stem" d="M0,0v0l0,0v23.799999999999997" stroke="#3987CC" fill="none"/></g><g class="sja_skg" transform="translate(544.5819702148438, 93.3671875)"><g transform="translate(0, -7)" class="sja_aa_discg"><circle fill="#9467bd" stroke="white" r="6.5"/><text font-size="12" fill="#9467bd" x="8" y="3.5999999999999996" font-family="Arial" class="sja_aa_disclabel" fill-opacity="1" transform="scale(1) rotate(0)">c.807C&gt;T(p.=)</text><circle r="6.5" stroke="#9467bd" class="sja_aa_disckick" fill="white" fill-opacity="0" stroke-opacity="0" transform="scale(1)"/><path d="M4.286263797015736e-16,-7L4.286263797015736e-16,-7Z" fill="#9467bd" class="sja_aa_discrim" fill-opacity="1" stroke-opacity="1"/></g><circle class="sja_aa_skkick" fill="white" fill-opacity="0" stroke="none" r="8" cy="-7" transform="scale(0)"/><path class="sja_aa_stem" d="M0,0v0l0,0v23.799999999999997" stroke="#9467bd" fill="none"/></g><g class="sja_skg" transform="translate(683.6817016601562, 93.3671875)"><g transform="translate(0, -7)" class="sja_aa_discg"><circle fill="#3987CC" stroke="white" r="6.5"/><text font-size="12" fill="#3987CC" x="8" y="3.5999999999999996" font-family="Arial" class="sja_aa_disclabel" fill-opacity="1" transform="scale(1) rotate(0)">p.Glu338Ala</text><circle r="6.5" stroke="#3987CC" class="sja_aa_disckick" fill="white" fill-opacity="0" stroke-opacity="0" transform="scale(1)"/><path d="M4.286263797015736e-16,-7L4.286263797015736e-16,-7Z" fill="#3987CC" class="sja_aa_discrim" fill-opacity="1" stroke-opacity="1"/></g><circle class="sja_aa_skkick" fill="white" fill-opacity="0" stroke="none" r="8" cy="-7" transform="scale(0)"/><path class="sja_aa_stem" d="M0,0v0l0,0v23.799999999999997" stroke="#3987CC" fill="none"/></g></g><g/><g transform="scale(0)"><rect fill="white" fill-opacity="0" width="1260" height="0"/><text data-testid="loading_message" fill="rgb(97, 124, 148)" fill-opacity="0" font-weight="bold" font-size="18px" text-anchor="middle" dominant-baseline="middle" x="630" y="15">Loading ...</text><line stroke="rgb(97, 124, 148)" stroke-width="2px" y1="30" y2="30" x2="0"/></g></g><g transform="translate(122.3984375,0)"><text font-size="14" font-family="Arial" y="7" text-anchor="end" dominant-baseline="central" fill="black" x="-10" font-weight="bold">GAMBL BL</text><g/><text font-size="14" font-family="Arial" y="26" text-anchor="end" dominant-baseline="central" class="sja_clbtext2" fill="black" x="-10">3 of 5 mutations</text></g><g transform="translate(1395.3984375,0)"/></g><g data-testid="sja_sample_menu_opener" transform="translate(0, 450.6421813964844)"><g transform="translate(1385.3984375, 0)"/><g transform="translate(125.3984375,0)"><rect fill="white" fill-opacity="0" width="1260" height="116.503125"/><g transform="translate(0,0)" style="cursor: default;"><g class="sja_skg" transform="translate(680.980712890625, 23.799999237060547)"><g transform="translate(0, 7)" class="sja_aa_discg"><circle fill="#3987CC" stroke="white" r="6.5"/><text font-size="12" fill="#3987CC" x="8" y="3.5999999999999996" font-family="Arial" class="sja_aa_disclabel" fill-opacity="1" transform="scale(1) rotate(0)">p.Ser337Gly</text><circle r="6.5" stroke="#3987CC" class="sja_aa_disckick" fill="white" fill-opacity="0" stroke-opacity="0" transform="scale(1)"/><path d="M4.286263797015736e-16,-7L4.286263797015736e-16,-7Z" fill="#3987CC" class="sja_aa_discrim" fill-opacity="1" stroke-opacity="1"/></g><circle class="sja_aa_skkick" fill="white" fill-opacity="0" stroke="none" r="8" cy="7" transform="scale(0)"/><path class="sja_aa_stem" d="M0,0v0l0,0v-23.799999999999997" stroke="#3987CC" fill="none"/></g></g><g/><g transform="scale(0)"><rect fill="white" fill-opacity="0" width="1260" height="0"/><text data-testid="loading_message" fill="rgb(97, 124, 148)" fill-opacity="0" font-weight="bold" font-size="18px" text-anchor="middle" dominant-baseline="middle" x="630" y="15">Loading ...</text><line stroke="rgb(97, 124, 148)" stroke-width="2px" y1="30" y2="30" x2="0"/></g></g><g transform="translate(122.3984375,0)"><text font-size="14" font-family="Arial" y="7" text-anchor="end" dominant-baseline="central" fill="black" x="-10" font-weight="bold">GAMBL MCL</text><g/><text font-size="14" font-family="Arial" y="26" text-anchor="end" dominant-baseline="central" class="sja_clbtext2" fill="black" x="-10">1 mutation</text></g><g transform="translate(1395.3984375,0)"/></g><g data-testid="sja_sample_menu_opener" transform="translate(0, 158.1671905517578)"><g transform="translate(1385.3984375, 0)"/><g transform="translate(125.3984375,0)"><rect fill="white" fill-opacity="0" width="1260" height="47"/><g transform="translate(0,0)" style="cursor: default;"><g><line x1="0" y1="18.5" x2="1260" y2="18.5" stroke="black" shape-rendering="crispEdges"/><rect x="0" width="101.28617363344051" height="37" fill="white"/><rect x="74.95176848874598" width="26.334405144694536" height="37" fill="#80b1d3"/><rect x="101.28617363344051" width="63.47266881028939" height="37" fill="white"/><rect x="101.28617363344051" width="63.47266881028939" height="37" fill="#80b1d3"/><rect x="164.75884244372992" width="68.87459807073955" height="37" fill="white"/><rect x="164.75884244372992" width="68.87459807073955" height="37" fill="#80b1d3"/><rect x="233.63344051446947" width="72.2508038585209" height="37" fill="white"/><rect x="233.63344051446947" width="72.2508038585209" height="37" fill="#80b1d3"/><rect x="305.88424437299034" width="68.19935691318328" height="37" fill="white"/><rect x="305.88424437299034" width="68.19935691318328" height="37" fill="#80b1d3"/><rect x="362.604501607717" width="4.051446945337621" height="37" fill="#fb8072"/><rect x="358.5530546623794" width="2.0257234726688105" height="37" fill="#fb8072"/><rect x="374.08360128617363" width="53.344051446945336" height="37" fill="white"/><rect x="374.08360128617363" width="53.344051446945336" height="37" fill="#80b1d3"/><rect x="374.7588424437299" width="4.051446945337621" height="37" fill="#fb8072"/><rect x="376.7845659163987" width="2.0257234726688105" height="37" fill="#bebada"/><rect x="427.427652733119" width="118.16720257234726" height="37" fill="white"/><rect x="427.427652733119" width="118.16720257234726" height="37" fill="#80b1d3"/><rect x="429.4533762057878" width="2.0257234726688105" height="37" fill="#fb8072"/><rect x="433.5048231511254" width="2.0257234726688105" height="37" fill="#fb8072"/><rect x="545.5948553054662" width="49.96784565916399" height="37" fill="white"/><rect x="545.5948553054662" width="49.96784565916399" height="37" fill="#80b1d3"/><rect x="591.5112540192927" width="2.0257234726688105" height="37" fill="#bebada"/><rect x="595.5627009646303" width="51.31832797427653" height="37" fill="white"/><rect x="595.5627009646303" width="51.31832797427653" height="37" fill="#80b1d3"/><rect x="605.6913183279743" width="4.051446945337621" height="37" fill="#bebada"/><rect x="613.7942122186496" width="2.0257234726688105" height="37" fill="#bebada"/><rect x="646.8810289389068" width="47.942122186495176" height="37" fill="white"/><rect x="646.8810289389068" width="47.942122186495176" height="37" fill="#80b1d3"/><rect x="694.823151125402" width="81.02893890675242" height="37" fill="white"/><rect x="694.823151125402" width="81.02893890675242" height="37" fill="#80b1d3"/><rect x="775.8520900321544" width="87.10610932475885" height="37" fill="white"/><rect x="775.8520900321544" width="87.10610932475885" height="37" fill="#80b1d3"/><rect x="858.9067524115756" width="4.051446945337621" height="37" fill="#bebada"/><rect x="860.9324758842444" width="2.0257234726688105" height="37" fill="#8dd3c7"/><rect x="850.8038585209003" width="2.0257234726688105" height="37" fill="#fb8072"/><rect x="862.9581993569132" width="54.01929260450161" height="37" fill="white"/><rect x="862.9581993569132" width="38.4887459807074" height="37" fill="#80b1d3"/><rect x="869.0353697749196" width="2.0257234726688105" height="37" fill="#fb8072"/><rect x="864.983922829582" width="2.0257234726688105" height="37" fill="#fb8072"/><rect x="916.9774919614148" width="85.7556270096463" height="37" fill="white"/><rect x="1002.7331189710611" width="52.66881028938907" height="37" fill="white"/><rect x="1055.4019292604503" width="87.10610932475885" height="37" fill="white"/><rect x="1142.508038585209" width="49.29260450160772" height="37" fill="white"/><rect x="1191.8006430868168" width="68.19935691318328" height="37" fill="white"/><line x1="0" x2="1260" stroke="black"/><line x1="0" x2="1260" y1="37" y2="37" stroke="black"/><line x1="0" x2="0" y2="37" stroke="black"/><line x1="1260" x2="1260" y2="37" stroke="black"/><line class="exonboundaryclass" x1="101.28617363344051" x2="101.28617363344051" y1="0" y2="37" stroke="black" stroke-dasharray="4,2" shape-rendering="crispEdges" stroke-opacity="1"/><line class="exonboundaryclass" x1="164.75884244372992" x2="164.75884244372992" y1="0" y2="37" stroke="black" stroke-dasharray="4,2" shape-rendering="crispEdges" stroke-opacity="1"/><line class="exonboundaryclass" x1="233.63344051446947" x2="233.63344051446947" y1="0" y2="37" stroke="black" stroke-dasharray="4,2" shape-rendering="crispEdges" stroke-opacity="1"/><line class="exonboundaryclass" x1="305.88424437299034" x2="305.88424437299034" y1="0" y2="37" stroke="black" stroke-dasharray="4,2" shape-rendering="crispEdges" stroke-opacity="1"/><line class="exonboundaryclass" x1="374.08360128617363" x2="374.08360128617363" y1="0" y2="37" stroke="black" stroke-dasharray="4,2" shape-rendering="crispEdges" stroke-opacity="1"/><line class="exonboundaryclass" x1="427.427652733119" x2="427.427652733119" y1="0" y2="37" stroke="black" stroke-dasharray="4,2" shape-rendering="crispEdges" stroke-opacity="1"/><line class="exonboundaryclass" x1="545.5948553054662" x2="545.5948553054662" y1="0" y2="37" stroke="black" stroke-dasharray="4,2" shape-rendering="crispEdges" stroke-opacity="1"/><line class="exonboundaryclass" x1="595.5627009646303" x2="595.5627009646303" y1="0" y2="37" stroke="black" stroke-dasharray="4,2" shape-rendering="crispEdges" stroke-opacity="1"/><line class="exonboundaryclass" x1="646.8810289389068" x2="646.8810289389068" y1="0" y2="37" stroke="black" stroke-dasharray="4,2" shape-rendering="crispEdges" stroke-opacity="1"/><line class="exonboundaryclass" x1="694.823151125402" x2="694.823151125402" y1="0" y2="37" stroke="black" stroke-dasharray="4,2" shape-rendering="crispEdges" stroke-opacity="1"/><line class="exonboundaryclass" x1="775.8520900321544" x2="775.8520900321544" y1="0" y2="37" stroke="black" stroke-dasharray="4,2" shape-rendering="crispEdges" stroke-opacity="1"/><line class="exonboundaryclass" x1="862.9581993569132" x2="862.9581993569132" y1="0" y2="37" stroke="black" stroke-dasharray="4,2" shape-rendering="crispEdges" stroke-opacity="1"/><line class="exonboundaryclass" x1="916.9774919614148" x2="916.9774919614148" y1="0" y2="37" stroke="black" stroke-dasharray="4,2" shape-rendering="crispEdges" stroke-opacity="1"/><line class="exonboundaryclass" x1="1002.7331189710611" x2="1002.7331189710611" y1="0" y2="37" stroke="black" stroke-dasharray="4,2" shape-rendering="crispEdges" stroke-opacity="1"/><line class="exonboundaryclass" x1="1055.4019292604503" x2="1055.4019292604503" y1="0" y2="37" stroke="black" stroke-dasharray="4,2" shape-rendering="crispEdges" stroke-opacity="1"/><line class="exonboundaryclass" x1="1142.508038585209" x2="1142.508038585209" y1="0" y2="37" stroke="black" stroke-dasharray="4,2" shape-rendering="crispEdges" stroke-opacity="1"/><line class="exonboundaryclass" x1="1191.8006430868168" x2="1191.8006430868168" y1="0" y2="37" stroke="black" stroke-dasharray="4,2" shape-rendering="crispEdges" stroke-opacity="1"/><g transform="translate(0,18.5)" fill="none" font-size="10" font-family="sans-serif" text-anchor="middle"><path class="domain" stroke="none" d="M1.0128617363344052,0H1260" fill="none" stroke-width="0" shape-rendering="crispEdges"/><g class="tick" opacity="1" transform="translate(99.28070739549838,0)"><line stroke="black" y2="0" shape-rendering="crispEdges"/><text fill="black" y="3" dy="0.71em" font-family="Arial" font-size="11.666666666666666px" style="cursor: default;">50</text></g><g class="tick" opacity="1" transform="translate(201.38074522413467,0)"><line stroke="black" y2="0" shape-rendering="crispEdges"/><text fill="black" y="3" dy="0.71em" font-family="Arial" font-size="11.666666666666666px" style="cursor: default;">100</text></g><g class="tick" opacity="1" transform="translate(301.8890675241157,0)"><line stroke="black" y2="0" shape-rendering="crispEdges"/><text fill="black" y="3" dy="0.71em" font-family="Arial" font-size="11.666666666666666px" style="cursor: default;">150</text></g><g class="tick" opacity="1" transform="translate(403.56913183279744,0)"><line stroke="black" y2="0" shape-rendering="crispEdges"/><text fill="black" y="3" dy="0.71em" font-family="Arial" font-size="11.666666666666666px" style="cursor: default;">200</text></g><g class="tick" opacity="1" transform="translate(505.1968067413239,0)"><line stroke="black" y2="0" shape-rendering="crispEdges"/><text fill="black" y="3" dy="0.71em" font-family="Arial" font-size="11.666666666666666px" style="cursor: default;">250</text></g><g class="tick" opacity="1" transform="translate(606.6366559485532,0)"><line stroke="black" y2="0" shape-rendering="crispEdges"/><text fill="black" y="3" dy="0.71em" font-family="Arial" font-size="11.666666666666666px" style="cursor: default;">300</text></g><g class="tick" opacity="1" transform="translate(707.8384244372991,0)"><line stroke="black" y2="0" shape-rendering="crispEdges"/><text fill="black" y="3" dy="0.71em" font-family="Arial" font-size="11.666666666666666px" style="cursor: default;">350</text></g><g class="tick" opacity="1" transform="translate(808.899648545577,0)"><line stroke="black" y2="0" shape-rendering="crispEdges"/><text fill="black" y="3" dy="0.71em" font-family="Arial" font-size="11.666666666666666px" style="cursor: default;">400</text></g><g class="tick" opacity="1" transform="translate(910.8613653227801,0)"><line stroke="black" y2="0" shape-rendering="crispEdges"/><text fill="black" y="3" dy="0.71em" font-family="Arial" font-size="11.666666666666666px" style="cursor: default;">450</text></g><g class="tick" opacity="1" transform="translate(1011.6930497155579,0)"><line stroke="black" y2="0" shape-rendering="crispEdges"/><text fill="black" y="3" dy="0.71em" font-family="Arial" font-size="11.666666666666666px" style="cursor: default;">500</text></g><g class="tick" opacity="1" transform="translate(1112.475510356689,0)"><line stroke="black" y2="0" shape-rendering="crispEdges"/><text fill="black" y="3" dy="0.71em" font-family="Arial" font-size="11.666666666666666px" style="cursor: default;">550</text></g><g class="tick" opacity="1" transform="translate(1214.0935313031966,0)"><line stroke="black" y2="0" shape-rendering="crispEdges"/><text fill="black" y="3" dy="0.71em" font-family="Arial" font-size="11.666666666666666px" style="cursor: default;">600</text></g></g><rect x="0" width="101.28617363344051" height="37" fill="#858585" fill-opacity="0"/><rect x="101.28617363344051" width="63.47266881028939" height="37" fill="#858585" fill-opacity="0"/><rect x="164.75884244372992" width="68.87459807073955" height="37" fill="#858585" fill-opacity="0"/><rect x="233.63344051446947" width="72.2508038585209" height="37" fill="#858585" fill-opacity="0"/><rect x="305.88424437299034" width="68.19935691318328" height="37" fill="#858585" fill-opacity="0"/><rect x="374.08360128617363" width="53.344051446945336" height="37" fill="#858585" fill-opacity="0"/><rect x="427.427652733119" width="118.16720257234726" height="37" fill="#858585" fill-opacity="0"/><rect x="545.5948553054662" width="49.96784565916399" height="37" fill="#858585" fill-opacity="0"/><rect x="595.5627009646303" width="51.31832797427653" height="37" fill="#858585" fill-opacity="0"/><rect x="646.8810289389068" width="47.942122186495176" height="37" fill="#858585" fill-opacity="0"/><rect x="694.823151125402" width="81.02893890675242" height="37" fill="#858585" fill-opacity="0"/><rect x="775.8520900321544" width="87.10610932475885" height="37" fill="#858585" fill-opacity="0"/><rect x="862.9581993569132" width="54.01929260450161" height="37" fill="#858585" fill-opacity="0"/><rect x="916.9774919614148" width="85.7556270096463" height="37" fill="#858585" fill-opacity="0"/><rect x="1002.7331189710611" width="52.66881028938907" height="37" fill="#858585" fill-opacity="0"/><rect x="1055.4019292604503" width="87.10610932475885" height="37" fill="#858585" fill-opacity="0"/><rect x="1142.508038585209" width="49.29260450160772" height="37" fill="#858585" fill-opacity="0"/><rect x="1191.8006430868168" width="68.19935691318328" height="37" fill="#858585" fill-opacity="0"/></g></g><g/><g transform="scale(0)"><rect fill="white" fill-opacity="0"/><text data-testid="loading_message" fill="rgb(97, 124, 148)" fill-opacity="0" font-weight="bold" font-size="18px" text-anchor="middle" dominant-baseline="middle">Loading ...</text><line stroke="rgb(97, 124, 148)" stroke-width="2px"/></g></g><g transform="translate(122.3984375,0)"><text font-size="14" font-family="Arial" y="7" text-anchor="end" dominant-baseline="central" fill="black" x="-10" font-weight="bold">ACAD9</text><text font-size="14" font-family="Arial" y="20" text-anchor="end" dominant-baseline="central" fill="black" x="-10">NM_014049</text></g><g transform="translate(1395.3984375,0)"><text fill="#aaa" font-family="Arial" font-size="14" y="14" class="sja_clbtext2"/></g></g></g><g transform="scale(0)"><rect fill="white"/><text id="loadinggCloak" fill="rgb(97, 124, 148)" fill-opacity="0" font-weight="bold" font-size="18px" text-anchor="middle" dominant-baseline="middle">Loading ...</text></g><g/><g transform="translate(124.3984375,582.1453125)"><g transform="translate(0,0)"><rect width="15" height="20" stroke="rgb(90, 124, 148)" fill="#80b1d3" shape-rendering="crispEdges"/><text x="20" y="10" dominant-baseline="central" font-size="16" font-family="Arial" fill="black">VLCAD</text><text x="83.3515625" y="10" dominant-baseline="central" font-size="12" font-family="Arial" fill="#858585">Very long chain acyl-CoA dehydrogenase</text></g><g transform="translate(0,23)"><rect width="15" height="20" stroke="rgb(176, 90, 80)" fill="#fb8072" shape-rendering="crispEdges"/><text x="20" y="10" dominant-baseline="central" font-size="16" font-family="Arial" fill="black">other</text><text x="66.6875" y="10" dominant-baseline="central" font-size="12" font-family="Arial" fill="#858585">FAD binding site [chemical binding]</text></g><g transform="translate(0,46)"><rect width="15" height="20" stroke="rgb(133, 130, 153)" fill="#bebada" shape-rendering="crispEdges"/><text x="20" y="10" dominant-baseline="central" font-size="16" font-family="Arial" fill="black">other</text><text x="66.6875" y="10" dominant-baseline="central" font-size="12" font-family="Arial" fill="#858585">substrate binding pocket [chemical binding]</text></g><g transform="translate(0,69)"><rect width="15" height="20" stroke="rgb(99, 148, 139)" fill="#8dd3c7" shape-rendering="crispEdges"/><text x="20" y="10" dominant-baseline="central" font-size="16" font-family="Arial" fill="black">active</text><text x="71.796875" y="10" dominant-baseline="central" font-size="12" font-family="Arial" fill="#858585">catalytic base [active]</text></g></g><g transform="translate(1187.3984375,582.1453125)"><g transform="translate(0,0)"><circle cx="10" cy="10" r="10" fill="#3987CC"/><text x="30" y="10" dominant-baseline="central" font-size="16" font-family="Arial" fill="#3987CC">MISSENSE, n=4</text></g><g transform="translate(0,23)"><circle cx="10" cy="10" r="10" fill="#9467bd"/><text x="30" y="10" dominant-baseline="central" font-size="16" font-family="Arial" fill="#9467bd">SPLICE_REGION, n=1</text></g><g transform="translate(0,46)"><circle cx="10" cy="10" r="10" fill="#998199"/><text x="30" y="10" dominant-baseline="central" font-size="16" font-family="Arial" fill="#998199">UTR_3, n=2</text></g><g transform="translate(0,69)"><circle cx="10" cy="10" r="10" fill="#2ca02c"/><text x="30" y="10" dominant-baseline="central" font-size="16" font-family="Arial" fill="#2ca02c">SILENT, n=1</text></g></g></svg>