<svg xmlns="http://www.w3.org/2000/svg" data-testid="sjpp_block_svg" width="1495.3984375" height="682.9136718750001"><g transform="translate(0,0)"><g transform="translate(125.3984375, 0)"/><rect fill="#FFFF99" x="984" width="0" height="504.91367187500003"/><g transform="translate(125.3984375, 23)"><g transform="translate(0,0)"><text text-anchor="end" x="-13" y="-10" dominant-baseline="central" font-size="13" font-family="Arial">Protein length</text><g><g transform="translate(0,0)" fill="none" font-size="10" font-family="sans-serif" text-anchor="middle"><path class="domain" stroke="black" d="M0,-6V0H1260V-6" fill="none" stroke-width="1" shape-rendering="crispEdges"/><g class="tick" opacity="1" transform="translate(144.70997679814386,0)"><line stroke="black" y2="-6" shape-rendering="crispEdges"/><text fill="black" y="-9" dy="0em" font-family="Arial" font-size="12px" style="cursor: default;">100</text></g><g class="tick" opacity="1" transform="translate(290.8816705336427,0)"><line stroke="black" y2="-6" shape-rendering="crispEdges"/><text fill="black" y="-9" dy="0em" font-family="Arial" font-size="12px" style="cursor: default;">200</text></g><g class="tick" opacity="1" transform="translate(437.0533642691415,0)"><line stroke="black" y2="-6" shape-rendering="crispEdges"/><text fill="black" y="-9" dy="0em" font-family="Arial" font-size="12px" style="cursor: default;">300</text></g><g class="tick" opacity="1" transform="translate(583.2250580046403,0)"><line stroke="black" y2="-6" shape-rendering="crispEdges"/><text fill="black" y="-9" dy="0em" font-family="Arial" font-size="12px" style="cursor: default;">400</text></g><g class="tick" opacity="1" transform="translate(729.3967517401393,0)"><line stroke="black" y2="-6" shape-rendering="crispEdges"/><text fill="black" y="-9" dy="0em" font-family="Arial" font-size="12px" style="cursor: default;">500</text></g><g class="tick" opacity="1" transform="translate(875.5684454756381,0)"><line stroke="black" y2="-6" shape-rendering="crispEdges"/><text fill="black" y="-9" dy="0em" font-family="Arial" font-size="12px" style="cursor: default;">600</text></g><g class="tick" opacity="1" transform="translate(1021.7401392111368,0)"><line stroke="black" y2="-6" shape-rendering="crispEdges"/><text fill="black" y="-9" dy="0em" font-family="Arial" font-size="12px" style="cursor: default;">700</text></g><g class="tick" opacity="1" transform="translate(1167.9118329466357,0)"><line stroke="black" y2="-6" shape-rendering="crispEdges"/><text fill="black" y="-9" dy="0em" font-family="Arial" font-size="12px" style="cursor: default;">800</text></g></g></g><rect fill="white" fill-opacity="0" x="0" y="-23" width="1260" height="26"/></g><g transform="translate(1260, 0)"/></g><g data-testid="sja_sample_menu_opener" transform="translate(0, 31)"><g transform="translate(1385.3984375, 0)"/><g transform="translate(125.3984375, 0)"><rect fill="white" fill-opacity="0" width="1260" height="115.337109375"/><g transform="translate(0,0)" style="cursor: default;"><g class="sja_skg" transform="translate(593.70068359375, 81.537109375)"><g transform="translate(0, -7)" class="sja_aa_discg"><circle fill="#3987CC" stroke="white" r="6.5"/><text font-size="12" fill="#3987CC" x="8" y="3.5999999999999996" font-family="Arial" class="sja_aa_disclabel" fill-opacity="1" transform="scale(1) rotate(0)">p.Ala407Thr</text><circle r="6.5" stroke="#3987CC" class="sja_aa_disckick" fill="white" fill-opacity="0" stroke-opacity="0" transform="scale(1)"/><path d="M4.286263797015736e-16,-7L4.286263797015736e-16,-7Z" fill="#3987CC" class="sja_aa_discrim" fill-opacity="1" stroke-opacity="1"/></g><circle class="sja_aa_skkick" fill="white" fill-opacity="0" stroke="none" r="8" cy="-7" transform="scale(0)"/><path class="sja_aa_stem" d="M0,0v0l0,0v23.799999999999997" stroke="#3987CC" fill="none"/></g></g><g/><g transform="scale(0)"><rect fill="white" fill-opacity="0.5" width="1260" height="0"/><text data-testid="loading_message" fill="rgb(97, 124, 148)" fill-opacity="1" font-weight="bold" font-size="18px" text-anchor="middle" dominant-baseline="middle" x="630" y="15">Loading ...</text><line stroke="rgb(97, 124, 148)" stroke-width="2px" y1="30" y2="30" x2="0"/></g></g><g transform="translate(122.3984375, 0)"><text font-size="14" font-family="Arial" y="7" text-anchor="end" dominant-baseline="central" fill="black" x="-10" font-weight="bold">GAMBL DLBCL</text><g/><text font-size="14" font-family="Arial" y="26" text-anchor="end" dominant-baseline="central" class="sja_clbtext2" fill="black" x="-10">1 of 8 mutations</text></g><g transform="translate(1395.3984375, 0)"/></g><g data-testid="sja_sample_menu_opener" transform="translate(0, 485.9136657714844)"><g transform="translate(1385.3984375, 0)"/><g transform="translate(125.3984375,0)"><rect fill="white" fill-opacity="0" width="1260" height="24"/><g transform="translate(0,0)" style="cursor: default;"/><g/><g transform="scale(0)"><rect fill="white" fill-opacity="0.5" width="1260" height="0"/><text data-testid="loading_message" fill="rgb(97, 124, 148)" fill-opacity="1" font-weight="bold" font-size="18px" text-anchor="middle" dominant-baseline="middle" x="630" y="15">Loading ...</text><line stroke="rgb(97, 124, 148)" stroke-width="2px" y1="30" y2="30" x2="0"/></g></g><g transform="translate(122.3984375,0)"><text font-size="14" font-family="Arial" y="7" text-anchor="end" dominant-baseline="central" fill="black" x="-10" font-weight="bold">GAMBL FL</text><g/><text font-size="14" font-family="Arial" y="26" text-anchor="end" dominant-baseline="central" class="sja_clbtext2" fill="black" x="-10"/></g><g transform="translate(1395.3984375,0)"/></g><g data-testid="sja_sample_menu_opener" transform="translate(0, 193.3371124267578)"><g transform="translate(1385.3984375, 0)"/><g transform="translate(125.3984375,0)"><rect fill="white" fill-opacity="0" width="1260" height="176.51875"/><g transform="translate(0,0)" style="cursor: default;"><g class="sja_skg" transform="translate(55.3016242980957, 65.80000305175781)"><g transform="translate(0, 7)" class="sja_aa_discg"><circle fill="#3987CC" stroke="white" r="6.5"/><text font-size="12" fill="#3987CC" x="8" y="3.5999999999999996" font-family="Arial" class="sja_aa_disclabel" fill-opacity="1" transform="scale(1) rotate(0)">p.Gln38His</text><circle r="6.5" stroke="#3987CC" class="sja_aa_disckick" fill="white" fill-opacity="0" stroke-opacity="0" transform="scale(1)"/><path d="M4.286263797015736e-16,-7L4.286263797015736e-16,-7Z" fill="#3987CC" class="sja_aa_discrim" fill-opacity="1" stroke-opacity="1"/></g><circle class="sja_aa_skkick" fill="white" fill-opacity="0" stroke="none" r="8" cy="7" transform="scale(0)"/><path class="sja_aa_stem" d="M0,0v-14l0,-28v-23.799999999999997" stroke="#3987CC" fill="none"/></g><g class="sja_skg" transform="translate(946.4617309570312, 65.80000305175781)"><g transform="translate(0, 7)" class="sja_aa_discg"><circle fill="#3987CC" stroke="white" r="6.5"/><text font-size="12" fill="#3987CC" x="8" y="3.5999999999999996" font-family="Arial" class="sja_aa_disclabel" fill-opacity="1" transform="rotate(90)">p.Val648Gly</text><circle r="6.5" stroke="#3987CC" class="sja_aa_disckick" fill="white" fill-opacity="0" stroke-opacity="0" transform="scale(1)"/><path d="M4.286263797015736e-16,-7L4.286263797015736e-16,-7Z" fill="#3987CC" class="sja_aa_discrim" fill-opacity="1" stroke-opacity="1"/></g><circle class="sja_aa_skkick" fill="white" fill-opacity="0" stroke="none" r="8" cy="7" transform="scale(0)"/><path class="sja_aa_stem" d="M0,0v-14l0,-28v-23.799999999999997" stroke="#3987CC" fill="none"/></g><g class="sja_skg" transform="translate(963.5150756835938, 65.80000305175781)"><g transform="translate(0, 7)" class="sja_aa_discg"><circle fill="#3987CC" stroke="white" r="6.5"/><text font-size="12" fill="#3987CC" x="8" y="3.5999999999999996" font-family="Arial" class="sja_aa_disclabel" fill-opacity="1" transform="rotate(90)">p.Arg660Cys</text><circle r="6.5" stroke="#3987CC" class="sja_aa_disckick" fill="white" fill-opacity="0" stroke-opacity="0" transform="scale(1)"/><path d="M4.286263797015736e-16,-7L4.286263797015736e-16,-7Z" fill="#3987CC" class="sja_aa_discrim" fill-opacity="1" stroke-opacity="1"/></g><circle class="sja_aa_skkick" fill="white" fill-opacity="0" stroke="none" r="8" cy="7" transform="scale(0)"/><path class="sja_aa_stem" d="M0,0v-14l0,-28v-23.799999999999997" stroke="#3987CC" fill="none"/></g><g class="sja_skg" transform="translate(1007.3665771484375, 65.80000305175781)"><g transform="translate(0, 7)" class="sja_aa_discg"><circle fill="#2ca02c" stroke="white" r="6.5"/><text font-size="12" fill="#2ca02c" x="8" y="3.5999999999999996" font-family="Arial" class="sja_aa_disclabel" fill-opacity="1" transform="rotate(90)">c.2068C&gt;A(p.=)</text><circle r="6.5" stroke="#2ca02c" class="sja_aa_disckick" fill="white" fill-opacity="0" stroke-opacity="0" transform="scale(1)"/><path d="M4.286263797015736e-16,-7L4.286263797015736e-16,-7Z" fill="#2ca02c" class="sja_aa_discrim" fill-opacity="1" stroke-opacity="1"/></g><circle class="sja_aa_skkick" fill="white" fill-opacity="0" stroke="none" r="8" cy="7" transform="scale(0)"/><path class="sja_aa_stem" d="M0,0v-14l0,-28v-23.799999999999997" stroke="#2ca02c" fill="none"/></g><g class="sja_skg" transform="translate(1031.728515625, 65.80000305175781)"><g transform="translate(0, 7)" class="sja_aa_discg"><circle fill="#2ca02c" stroke="white" r="6.5"/><text font-size="12" fill="#2ca02c" x="8" y="3.5999999999999996" font-family="Arial" class="sja_aa_disclabel" fill-opacity="1" transform="scale(1) rotate(0)">c.2118T&gt;C(p.=)</text><circle r="6.5" stroke="#2ca02c" class="sja_aa_disckick" fill="white" fill-opacity="0" stroke-opacity="0" transform="scale(1)"/><path d="M4.286263797015736e-16,-7L4.286263797015736e-16,-7Z" fill="#2ca02c" class="sja_aa_discrim" fill-opacity="1" stroke-opacity="1"/></g><circle class="sja_aa_skkick" fill="white" fill-opacity="0" stroke="none" r="8" cy="7" transform="scale(0)"/><path class="sja_aa_stem" d="M0,0v-14l0,-28v-23.799999999999997" stroke="#2ca02c" fill="none"/></g></g><g/><g transform="scale(0)"><rect fill="white" fill-opacity="0.5" width="1260" height="0"/><text data-testid="loading_message" fill="rgb(97, 124, 148)" fill-opacity="1" font-weight="bold" font-size="18px" text-anchor="middle" dominant-baseline="middle" x="630" y="15">Loading ...</text><line stroke="rgb(97, 124, 148)" stroke-width="2px" y1="30" y2="30" x2="0"/></g></g><g transform="translate(122.3984375,0)"><text font-size="14" font-family="Arial" y="7" text-anchor="end" dominant-baseline="central" fill="black" x="-10" font-weight="bold">GAMBL BL</text><g/><text font-size="14" font-family="Arial" y="26" text-anchor="end" dominant-baseline="central" class="sja_clbtext2" fill="black" x="-10">5 of 9 mutations</text></g><g transform="translate(1395.3984375,0)"/></g><g data-testid="sja_sample_menu_opener" transform="translate(0, 369.8558654785156)"><g transform="translate(1385.3984375, 0)"/><g transform="translate(125.3984375,0)"><rect fill="white" fill-opacity="0" width="1260" height="116.0578125"/><g transform="translate(0,0)" style="cursor: default;"><g class="sja_skg" transform="translate(144.95359802246094, 23.799999237060547)"><g transform="translate(0, 7)" class="sja_aa_discg"><circle fill="#3987CC" stroke="white" r="6.5"/><text font-size="12" fill="#3987CC" x="8" y="3.5999999999999996" font-family="Arial" class="sja_aa_disclabel" fill-opacity="1" transform="scale(1) rotate(0)">p.Arg100Trp</text><circle r="6.5" stroke="#3987CC" class="sja_aa_disckick" fill="white" fill-opacity="0" stroke-opacity="0" transform="scale(1)"/><path d="M4.286263797015736e-16,-7L4.286263797015736e-16,-7Z" fill="#3987CC" class="sja_aa_discrim" fill-opacity="1" stroke-opacity="1"/></g><circle class="sja_aa_skkick" fill="white" fill-opacity="0" stroke="none" r="8" cy="7" transform="scale(0)"/><path class="sja_aa_stem" d="M0,0v0l0,0v-23.799999999999997" stroke="#3987CC" fill="none"/></g></g><g/><g transform="scale(0)"><rect fill="white" fill-opacity="0.5" width="1260" height="0"/><text data-testid="loading_message" fill="rgb(97, 124, 148)" fill-opacity="1" font-weight="bold" font-size="18px" text-anchor="middle" dominant-baseline="middle" x="630" y="15">Loading ...</text><line stroke="rgb(97, 124, 148)" stroke-width="2px" y1="30" y2="30" x2="0"/></g></g><g transform="translate(122.3984375,0)"><text font-size="14" font-family="Arial" y="7" text-anchor="end" dominant-baseline="central" fill="black" x="-10" font-weight="bold">GAMBL MCL</text><g/><text font-size="14" font-family="Arial" y="26" text-anchor="end" dominant-baseline="central" class="sja_clbtext2" fill="black" x="-10">1 mutation</text></g><g transform="translate(1395.3984375,0)"/></g><g data-testid="sja_sample_menu_opener" transform="translate(0, 146.3371124267578)"><g transform="translate(1385.3984375, 0)"/><g transform="translate(125.3984375,0)"><rect fill="white" fill-opacity="0" width="1260" height="47"/><g transform="translate(0,0)" style="cursor: default;"><g><line x1="0" y1="18.5" x2="1260.0000000000002" y2="18.5" stroke="black" shape-rendering="crispEdges"/><rect x="0" width="9.25754060324826" height="37" fill="white"/><rect x="9.25754060324826" width="80.88167053364269" height="37" fill="white"/><rect x="36.54292343387471" width="53.596287703016245" height="37" fill="#80b1d3"/><rect x="90.13921113689095" width="58.95591647331786" height="37" fill="white"/><rect x="90.13921113689095" width="58.95591647331786" height="37" fill="#80b1d3"/><rect x="149.0951276102088" width="88.67749419953597" height="37" fill="white"/><rect x="149.0951276102088" width="77.47099767981439" height="37" fill="#80b1d3"/><rect x="237.77262180974478" width="66.75174013921114" height="37" fill="white"/><rect x="241.1832946635731" width="63.341067285382834" height="37" fill="#fb8072"/><rect x="304.5243619489559" width="65.77726218097447" height="37" fill="white"/><rect x="315.73085846867747" width="54.5707656612529" height="37" fill="#a6d854"/><rect x="304.5243619489559" width="11.206496519721577" height="37" fill="#fb8072"/><rect x="370.30162412993036" width="42.87703016241299" height="37" fill="white"/><rect x="370.30162412993036" width="42.87703016241299" height="37" fill="#a6d854"/><rect x="391.74013921113686" width="1.4617169373549883" height="37" fill="#8dd3c7"/><rect x="413.17865429234337" width="72.11136890951276" height="37" fill="white"/><rect x="413.17865429234337" width="72.11136890951276" height="37" fill="#a6d854"/><rect x="434.12993039443154" width="1.4617169373549883" height="37" fill="#8dd3c7"/><rect x="439.9767981438515" width="1.4617169373549883" height="37" fill="#8dd3c7"/><rect x="479.44315545243614" width="1.4617169373549883" height="37" fill="#8dd3c7"/><rect x="413.6658932714617" width="1.4617169373549883" height="37" fill="#8dd3c7"/><rect x="476.5197215777262" width="1.4617169373549883" height="37" fill="#8dd3c7"/><rect x="466.28770301624127" width="1.4617169373549883" height="37" fill="#8dd3c7"/><rect x="485.2900232018561" width="58.46867749419954" height="37" fill="white"/><rect x="485.2900232018561" width="7.308584686774942" height="37" fill="#a6d854"/><rect x="543.7587006960557" width="62.853828306264504" height="37" fill="white"/><rect x="559.8375870069606" width="46.774941995359626" height="37" fill="#E8E89E"/><rect x="606.6125290023202" width="65.29002320185614" height="37" fill="white"/><rect x="606.6125290023202" width="65.29002320185614" height="37" fill="#E8E89E"/><rect x="671.9025522041763" width="90.13921113689095" height="37" fill="white"/><rect x="671.9025522041763" width="90.13921113689095" height="37" fill="#E8E89E"/><rect x="760.092807424594" width="1.4617169373549883" height="37" fill="#bebada"/><rect x="762.0417633410673" width="77.95823665893272" height="37" fill="white"/><rect x="762.0417633410673" width="77.95823665893272" height="37" fill="#E8E89E"/><rect x="783.4802784222737" width="5.846867749419953" height="37" fill="#bebada"/><rect x="820.0232018561485" width="1.4617169373549883" height="37" fill="#bebada"/><rect x="808.3294663573085" width="1.4617169373549883" height="37" fill="#bebada"/><rect x="814.1763341067285" width="1.4617169373549883" height="37" fill="#bebada"/><rect x="803.9443155452436" width="1.4617169373549883" height="37" fill="#bebada"/><rect x="792.2505800464037" width="1.4617169373549883" height="37" fill="#bebada"/><rect x="765.9396751740139" width="1.4617169373549883" height="37" fill="#bebada"/><rect x="840" width="153.96751740139212" height="37" fill="white"/><rect x="840" width="153.96751740139212" height="37" fill="#E8E89E"/><rect x="993.9675174013921" width="65.77726218097447" height="37" fill="white"/><rect x="993.9675174013921" width="65.77726218097447" height="37" fill="#E8E89E"/><rect x="1059.7447795823666" width="49.698375870069604" height="37" fill="white"/><rect x="1059.7447795823666" width="49.698375870069604" height="37" fill="#E8E89E"/><rect x="1109.4431554524363" width="97.4477958236659" height="37" fill="white"/><rect x="1109.4431554524363" width="87.70301624129931" height="37" fill="#E8E89E"/><rect x="1206.8909512761022" width="53.109048723897914" height="37" fill="white"/><line x1="0" x2="1260.0000000000002" stroke="black"/><line x1="0" x2="1260.0000000000002" y1="37" y2="37" stroke="black"/><line x1="0" x2="0" y2="37" stroke="black"/><line x1="1260.0000000000002" x2="1260.0000000000002" y2="37" stroke="black"/><line class="exonboundaryclass" x1="9.25754060324826" x2="9.25754060324826" y1="0" y2="37" stroke="black" stroke-dasharray="4,2" shape-rendering="crispEdges" stroke-opacity="1"/><line class="exonboundaryclass" x1="90.13921113689095" x2="90.13921113689095" y1="0" y2="37" stroke="black" stroke-dasharray="4,2" shape-rendering="crispEdges" stroke-opacity="1"/><line class="exonboundaryclass" x1="149.0951276102088" x2="149.0951276102088" y1="0" y2="37" stroke="black" stroke-dasharray="4,2" shape-rendering="crispEdges" stroke-opacity="1"/><line class="exonboundaryclass" x1="237.77262180974478" x2="237.77262180974478" y1="0" y2="37" stroke="black" stroke-dasharray="4,2" shape-rendering="crispEdges" stroke-opacity="1"/><line class="exonboundaryclass" x1="304.5243619489559" x2="304.5243619489559" y1="0" y2="37" stroke="black" stroke-dasharray="4,2" shape-rendering="crispEdges" stroke-opacity="1"/><line class="exonboundaryclass" x1="370.30162412993036" x2="370.30162412993036" y1="0" y2="37" stroke="black" stroke-dasharray="4,2" shape-rendering="crispEdges" stroke-opacity="1"/><line class="exonboundaryclass" x1="413.17865429234337" x2="413.17865429234337" y1="0" y2="37" stroke="black" stroke-dasharray="4,2" shape-rendering="crispEdges" stroke-opacity="1"/><line class="exonboundaryclass" x1="485.2900232018561" x2="485.2900232018561" y1="0" y2="37" stroke="black" stroke-dasharray="4,2" shape-rendering="crispEdges" stroke-opacity="1"/><line class="exonboundaryclass" x1="543.7587006960557" x2="543.7587006960557" y1="0" y2="37" stroke="black" stroke-dasharray="4,2" shape-rendering="crispEdges" stroke-opacity="1"/><line class="exonboundaryclass" x1="606.6125290023202" x2="606.6125290023202" y1="0" y2="37" stroke="black" stroke-dasharray="4,2" shape-rendering="crispEdges" stroke-opacity="1"/><line class="exonboundaryclass" x1="671.9025522041763" x2="671.9025522041763" y1="0" y2="37" stroke="black" stroke-dasharray="4,2" shape-rendering="crispEdges" stroke-opacity="1"/><line class="exonboundaryclass" x1="762.0417633410673" x2="762.0417633410673" y1="0" y2="37" stroke="black" stroke-dasharray="4,2" shape-rendering="crispEdges" stroke-opacity="1"/><line class="exonboundaryclass" x1="840" x2="840" y1="0" y2="37" stroke="black" stroke-dasharray="4,2" shape-rendering="crispEdges" stroke-opacity="1"/><line class="exonboundaryclass" x1="993.9675174013921" x2="993.9675174013921" y1="0" y2="37" stroke="black" stroke-dasharray="4,2" shape-rendering="crispEdges" stroke-opacity="1"/><line class="exonboundaryclass" x1="1059.7447795823666" x2="1059.7447795823666" y1="0" y2="37" stroke="black" stroke-dasharray="4,2" shape-rendering="crispEdges" stroke-opacity="1"/><line class="exonboundaryclass" x1="1109.4431554524363" x2="1109.4431554524363" y1="0" y2="37" stroke="black" stroke-dasharray="4,2" shape-rendering="crispEdges" stroke-opacity="1"/><line class="exonboundaryclass" x1="1206.8909512761022" x2="1206.8909512761022" y1="0" y2="37" stroke="black" stroke-dasharray="4,2" shape-rendering="crispEdges" stroke-opacity="1"/><g transform="translate(0,18.5)" fill="none" font-size="10" font-family="sans-serif" text-anchor="middle"><path class="domain" stroke="none" d="M0.7308584686774942,0H1260.0000000000002" fill="none" stroke-width="0" shape-rendering="crispEdges"/><g class="tick" opacity="1" transform="translate(144.76345424707145,0)"><line stroke="black" y2="0" shape-rendering="crispEdges"/><text fill="black" y="3" dy="0.71em" font-family="Arial" font-size="11.666666666666666px" style="cursor: default;">100</text></g><g class="tick" opacity="1" transform="translate(291.41657419550086,0)"><line stroke="black" y2="0" shape-rendering="crispEdges"/><text fill="black" y="3" dy="0.71em" font-family="Arial" font-size="11.666666666666666px" style="cursor: default;">200</text></g><g class="tick" opacity="1" transform="translate(437.5357308584687,0)"><line stroke="black" y2="0" shape-rendering="crispEdges"/><text fill="black" y="3" dy="0.71em" font-family="Arial" font-size="11.666666666666666px" style="cursor: default;">300</text></g><g class="tick" opacity="1" transform="translate(583.4970053418227,0)"><line stroke="black" y2="0" shape-rendering="crispEdges"/><text fill="black" y="3" dy="0.71em" font-family="Arial" font-size="11.666666666666666px" style="cursor: default;">400</text></g><g class="tick" opacity="1" transform="translate(729.970436344585,0)"><line stroke="black" y2="0" shape-rendering="crispEdges"/><text fill="black" y="3" dy="0.71em" font-family="Arial" font-size="11.666666666666666px" style="cursor: default;">500</text></g><g class="tick" opacity="1" transform="translate(876.1269316639671,0)"><line stroke="black" y2="0" shape-rendering="crispEdges"/><text fill="black" y="3" dy="0.71em" font-family="Arial" font-size="11.666666666666666px" style="cursor: default;">600</text></g><g class="tick" opacity="1" transform="translate(1022.1624129930394,0)"><line stroke="black" y2="0" shape-rendering="crispEdges"/><text fill="black" y="3" dy="0.71em" font-family="Arial" font-size="11.666666666666666px" style="cursor: default;">700</text></g><g class="tick" opacity="1" transform="translate(1168.7903395908038,0)"><line stroke="black" y2="0" shape-rendering="crispEdges"/><text fill="black" y="3" dy="0.71em" font-family="Arial" font-size="11.666666666666666px" style="cursor: default;">800</text></g></g><rect x="0" width="9.25754060324826" height="37" fill="#858585" fill-opacity="0"/><rect x="9.25754060324826" width="80.88167053364269" height="37" fill="#858585" fill-opacity="0"/><rect x="90.13921113689095" width="58.95591647331786" height="37" fill="#858585" fill-opacity="0"/><rect x="149.0951276102088" width="88.67749419953597" height="37" fill="#858585" fill-opacity="0"/><rect x="237.77262180974478" width="66.75174013921114" height="37" fill="#858585" fill-opacity="0"/><rect x="304.5243619489559" width="65.77726218097447" height="37" fill="#858585" fill-opacity="0"/><rect x="370.30162412993036" width="42.87703016241299" height="37" fill="#858585" fill-opacity="0"/><rect x="413.17865429234337" width="72.11136890951276" height="37" fill="#858585" fill-opacity="0"/><rect x="485.2900232018561" width="58.46867749419954" height="37" fill="#858585" fill-opacity="0"/><rect x="543.7587006960557" width="62.853828306264504" height="37" fill="#858585" fill-opacity="0"/><rect x="606.6125290023202" width="65.29002320185614" height="37" fill="#858585" fill-opacity="0"/><rect x="671.9025522041763" width="90.13921113689095" height="37" fill="#858585" fill-opacity="0"/><rect x="762.0417633410673" width="77.95823665893272" height="37" fill="#858585" fill-opacity="0"/><rect x="840" width="153.96751740139212" height="37" fill="#858585" fill-opacity="0"/><rect x="993.9675174013921" width="65.77726218097447" height="37" fill="#858585" fill-opacity="0"/><rect x="1059.7447795823666" width="49.698375870069604" height="37" fill="#858585" fill-opacity="0"/><rect x="1109.4431554524363" width="97.4477958236659" height="37" fill="#858585" fill-opacity="0"/><rect x="1206.8909512761022" width="53.109048723897914" height="37" fill="#858585" fill-opacity="0"/></g></g><g/><g transform="scale(0)"><rect fill="white" fill-opacity="0"/><text data-testid="loading_message" fill="rgb(97, 124, 148)" fill-opacity="0" font-weight="bold" font-size="18px" text-anchor="middle" dominant-baseline="middle">Loading ...</text><line stroke="rgb(97, 124, 148)" stroke-width="2px"/></g></g><g transform="translate(122.3984375,0)"><text font-size="14" font-family="Arial" y="7" text-anchor="end" dominant-baseline="central" fill="black" x="-10" font-weight="bold">AGO4</text><text font-size="14" font-family="Arial" y="20" text-anchor="end" dominant-baseline="central" fill="black" x="-10">NM_017629</text></g><g transform="translate(1395.3984375,0)"><text fill="#aaa" font-family="Arial" font-size="14" y="14" class="sja_clbtext2"/></g></g></g><g transform="scale(0)"><rect fill="white"/><text id="loadinggCloak" fill="rgb(97, 124, 148)" fill-opacity="0" font-weight="bold" font-size="18px" text-anchor="middle" dominant-baseline="middle">Loading ...</text></g><g/><g transform="translate(124.3984375,524.9136718750001)"><g transform="translate(0,0)"><rect width="15" height="20" stroke="rgb(90, 124, 148)" fill="#80b1d3" shape-rendering="crispEdges"/><text x="20" y="10" dominant-baseline="central" font-size="16" font-family="Arial" fill="black">ArgoN</text><text x="75.375" y="10" dominant-baseline="central" font-size="12" font-family="Arial" fill="#858585">N-terminal domain of argonaute</text></g><g transform="translate(0,23)"><rect width="15" height="20" stroke="rgb(176, 90, 80)" fill="#fb8072" shape-rendering="crispEdges"/><text x="20" y="10" dominant-baseline="central" font-size="16" font-family="Arial" fill="black">ArgoL1</text><text x="81.6171875" y="10" dominant-baseline="central" font-size="12" font-family="Arial" fill="#858585">Argonaute linker 1 domain</text></g><g transform="translate(0,46)"><rect width="15" height="20" stroke="rgb(116, 151, 59)" fill="#a6d854" shape-rendering="crispEdges"/><text x="20" y="10" dominant-baseline="central" font-size="16" font-family="Arial" fill="black">PAZ_argonaute_like</text><text x="173.796875" y="10" dominant-baseline="central" font-size="12" font-family="Arial" fill="#858585">PAZ domain, argonaute_like subfamily. Argonaute is part of the RNA-ind ...</text></g><g transform="translate(0,69)"><rect width="15" height="20" stroke="rgb(99, 148, 139)" fill="#8dd3c7" shape-rendering="crispEdges"/><text x="20" y="10" dominant-baseline="central" font-size="16" font-family="Arial" fill="black">other</text><text x="66.6875" y="10" dominant-baseline="central" font-size="12" font-family="Arial" fill="#858585">nucleic acid-binding interface [nucleotide binding]</text></g><g transform="translate(0,92)"><rect width="15" height="20" stroke="rgb(162, 162, 111)" fill="#E8E89E" shape-rendering="crispEdges"/><text x="20" y="10" dominant-baseline="central" font-size="16" font-family="Arial" fill="black">Piwi_ago-like</text><text x="124.265625" y="10" dominant-baseline="central" font-size="12" font-family="Arial" fill="#858585">PIWI domain, Argonaute-like subfamily. Argonaute is the central compon ...</text></g><g transform="translate(0,115)"><rect width="15" height="20" stroke="rgb(133, 130, 153)" fill="#bebada" shape-rendering="crispEdges"/><text x="20" y="10" dominant-baseline="central" font-size="16" font-family="Arial" fill="black">other</text><text x="66.6875" y="10" dominant-baseline="central" font-size="12" font-family="Arial" fill="#858585">5' RNA guide strand anchoring site</text></g></g><g transform="translate(1187.3984375,524.9136718750001)"><g transform="translate(0,0)"><circle cx="10" cy="10" r="10" fill="#3987CC"/><text x="30" y="10" dominant-baseline="central" font-size="16" font-family="Arial" fill="#3987CC">MISSENSE, n=5</text></g><g transform="translate(0,23)"><circle cx="10" cy="10" r="10" fill="#998199"/><text x="30" y="10" dominant-baseline="central" font-size="16" font-family="Arial" fill="#998199">UTR_3, n=12</text></g><g transform="translate(0,46)"><circle cx="10" cy="10" r="10" fill="#2ca02c"/><text x="30" y="10" dominant-baseline="central" font-size="16" font-family="Arial" fill="#2ca02c">SILENT, n=2</text></g></g></svg>