<svg xmlns="http://www.w3.org/2000/svg" data-testid="sjpp_block_svg" width="1495.3984375" height="806.725"><g transform="translate(0,0)"><g transform="translate(125.3984375, 0)"/><rect fill="#FFFF99" x="824" width="0" height="490.725"/><g transform="translate(125.3984375, 23)"><g transform="translate(0,0)"><text text-anchor="end" x="-13" y="-10" dominant-baseline="central" font-size="13" font-family="Arial">Protein length</text><g><g transform="translate(0,0)" fill="none" font-size="10" font-family="sans-serif" text-anchor="middle"><path class="domain" stroke="black" d="M0,-6V0H1260V-6" fill="none" stroke-width="1" shape-rendering="crispEdges"/><g class="tick" opacity="1" transform="translate(146.5458796025716,0)"><line stroke="black" y2="-6" shape-rendering="crispEdges"/><text fill="black" y="-9" dy="0em" font-family="Arial" font-size="12px" style="cursor: default;">200</text></g><g class="tick" opacity="1" transform="translate(293.8281706604325,0)"><line stroke="black" y2="-6" shape-rendering="crispEdges"/><text fill="black" y="-9" dy="0em" font-family="Arial" font-size="12px" style="cursor: default;">400</text></g><g class="tick" opacity="1" transform="translate(441.11046171829344,0)"><line stroke="black" y2="-6" shape-rendering="crispEdges"/><text fill="black" y="-9" dy="0em" font-family="Arial" font-size="12px" style="cursor: default;">600</text></g><g class="tick" opacity="1" transform="translate(588.3927527761543,0)"><line stroke="black" y2="-6" shape-rendering="crispEdges"/><text fill="black" y="-9" dy="0em" font-family="Arial" font-size="12px" style="cursor: default;">800</text></g><g class="tick" opacity="1" transform="translate(735.6750438340151,0)"><line stroke="black" y2="-6" shape-rendering="crispEdges"/><text fill="black" y="-9" dy="0em" font-family="Arial" font-size="12px" style="cursor: default;">1000</text></g><g class="tick" opacity="1" transform="translate(882.957334891876,0)"><line stroke="black" y2="-6" shape-rendering="crispEdges"/><text fill="black" y="-9" dy="0em" font-family="Arial" font-size="12px" style="cursor: default;">1200</text></g><g class="tick" opacity="1" transform="translate(1030.2396259497368,0)"><line stroke="black" y2="-6" shape-rendering="crispEdges"/><text fill="black" y="-9" dy="0em" font-family="Arial" font-size="12px" style="cursor: default;">1400</text></g><g class="tick" opacity="1" transform="translate(1177.521917007598,0)"><line stroke="black" y2="-6" shape-rendering="crispEdges"/><text fill="black" y="-9" dy="0em" font-family="Arial" font-size="12px" style="cursor: default;">1600</text></g></g></g><rect fill="white" fill-opacity="0" x="0" y="-23" width="1260" height="26"/></g><g transform="translate(1260, 0)"/></g><g data-testid="sja_sample_menu_opener" transform="translate(0, 31)"><g transform="translate(1385.3984375, 0)"/><g transform="translate(125.3984375, 0)"><rect fill="white" fill-opacity="0" width="1260" height="206.5421875"/><g transform="translate(0,0)" style="cursor: default;"><g class="sja_skg" transform="translate(70, 132.7421875)"><g transform="translate(0, -7)" class="sja_aa_discg"><circle fill="#ff7f0e" stroke="white" r="6.5"/><text font-size="12" fill="#ff7f0e" x="8" y="3.5999999999999996" font-family="Arial" class="sja_aa_disclabel" fill-opacity="1" transform="rotate(-90)">p.Gln97Ter</text><circle r="6.5" stroke="#ff7f0e" class="sja_aa_disckick" fill="white" fill-opacity="0" stroke-opacity="0" transform="scale(1)"/><path d="M4.286263797015736e-16,-7L4.286263797015736e-16,-7Z" fill="#ff7f0e" class="sja_aa_discrim" fill-opacity="1" stroke-opacity="1"/></g><circle class="sja_aa_skkick" fill="white" fill-opacity="0" stroke="none" r="8" cy="-7" transform="scale(0)"/><path class="sja_aa_stem" d="M0,0v14l0.8182349503214397,26v23.799999999999997" stroke="#ff7f0e" fill="none"/></g><g class="sja_skg" transform="translate(84, 132.7421875)"><g transform="translate(0, -7)" class="sja_aa_discg"><circle fill="#3987CC" stroke="white" r="6.5"/><text font-size="12" fill="#3987CC" x="8" y="3.5999999999999996" font-family="Arial" class="sja_aa_disclabel" fill-opacity="1" transform="rotate(-90)">p.Ala116Thr</text><circle r="6.5" stroke="#3987CC" class="sja_aa_disckick" fill="white" fill-opacity="0" stroke-opacity="0" transform="scale(1)"/><path d="M4.286263797015736e-16,-7L4.286263797015736e-16,-7Z" fill="#3987CC" class="sja_aa_discrim" fill-opacity="1" stroke-opacity="1"/></g><circle class="sja_aa_skkick" fill="white" fill-opacity="0" stroke="none" r="8" cy="-7" transform="scale(0)"/><path class="sja_aa_stem" d="M0,0v14l0.8100526008182243,26v23.799999999999997" stroke="#3987CC" fill="none"/></g><g class="sja_skg" transform="translate(106, 132.7421875)"><g transform="translate(0, -7)" class="sja_aa_discg"><circle fill="#db3d3d" stroke="white" r="6.5"/><text font-size="12" fill="#db3d3d" x="8" y="3.5999999999999996" font-family="Arial" class="sja_aa_disclabel" fill-opacity="1" transform="scale(1) rotate(0)">p.Asp146MetfsTer103</text><circle r="6.5" stroke="#db3d3d" class="sja_aa_disckick" fill="white" fill-opacity="0" stroke-opacity="0" transform="scale(1)"/><path d="M4.286263797015736e-16,-7L4.286263797015736e-16,-7Z" fill="#db3d3d" class="sja_aa_discrim" fill-opacity="1" stroke-opacity="1"/></g><circle class="sja_aa_skkick" fill="white" fill-opacity="0" stroke="none" r="8" cy="-7" transform="scale(0)"/><path class="sja_aa_stem" d="M0,0v14l0.9023962594973653,26v23.799999999999997" stroke="#db3d3d" fill="none"/></g><g class="sja_skg" transform="translate(340, 132.7421875)"><g transform="translate(0, -7)" class="sja_aa_discg"><circle fill="#3987CC" stroke="white" r="6.5"/><text font-size="12" fill="#3987CC" x="8" y="3.5999999999999996" font-family="Arial" class="sja_aa_disclabel" fill-opacity="1" transform="scale(1) rotate(0)">p.Arg462Ser</text><circle r="6.5" stroke="#3987CC" class="sja_aa_disckick" fill="white" fill-opacity="0" stroke-opacity="0" transform="scale(1)"/><path d="M4.286263797015736e-16,-7L4.286263797015736e-16,-7Z" fill="#3987CC" class="sja_aa_discrim" fill-opacity="1" stroke-opacity="1"/></g><circle class="sja_aa_skkick" fill="white" fill-opacity="0" stroke="none" r="8" cy="-7" transform="scale(0)"/><path class="sja_aa_stem" d="M0,0v14l0.09935710111045637,26v23.799999999999997" stroke="#3987CC" fill="none"/></g><g class="sja_skg" transform="translate(646, 132.7421875)"><g transform="translate(0, -7)" class="sja_aa_discg"><circle fill="#2ca02c" stroke="white" r="6.5"/><text font-size="12" fill="#2ca02c" x="8" y="3.5999999999999996" font-family="Arial" class="sja_aa_disclabel" fill-opacity="1" transform="scale(1) rotate(0)">c.2634T&gt;G(p.=)</text><circle r="6.5" stroke="#2ca02c" class="sja_aa_disckick" fill="white" fill-opacity="0" stroke-opacity="0" transform="scale(1)"/><path d="M4.286263797015736e-16,-7L4.286263797015736e-16,-7Z" fill="#2ca02c" class="sja_aa_discrim" fill-opacity="1" stroke-opacity="1"/></g><circle class="sja_aa_skkick" fill="white" fill-opacity="0" stroke="none" r="8" cy="-7" transform="scale(0)"/><path class="sja_aa_stem" d="M0,0v14l0.4465225014611178,26v23.799999999999997" stroke="#2ca02c" fill="none"/></g><g class="sja_skg" transform="translate(982, 132.7421875)"><g transform="translate(0, -7)" class="sja_aa_discg"><circle fill="#3987CC" stroke="white" r="6.5"/><text font-size="12" fill="#3987CC" x="8" y="3.5999999999999996" font-family="Arial" class="sja_aa_disclabel" fill-opacity="1" transform="rotate(-90)">p.Arg1335Ser</text><circle r="6.5" stroke="#3987CC" class="sja_aa_disckick" fill="white" fill-opacity="0" stroke-opacity="0" transform="scale(1)"/><path d="M4.286263797015736e-16,-7L4.286263797015736e-16,-7Z" fill="#3987CC" class="sja_aa_discrim" fill-opacity="1" stroke-opacity="1"/></g><circle class="sja_aa_skkick" fill="white" fill-opacity="0" stroke="none" r="8" cy="-7" transform="scale(0)"/><path class="sja_aa_stem" d="M0,0v14l0.98655756867322,26v23.799999999999997" stroke="#3987CC" fill="none"/></g><g class="sja_skg" transform="translate(1016, 132.7421875)"><g transform="translate(0, -7)" class="sja_aa_discg"><circle fill="#3987CC" stroke="white" r="6.5"/><text font-size="12" fill="#3987CC" x="8" y="3.5999999999999996" font-family="Arial" class="sja_aa_disclabel" fill-opacity="1" transform="rotate(-90)">p.Ser1381Pro</text><circle r="6.5" stroke="#3987CC" class="sja_aa_disckick" fill="white" fill-opacity="0" stroke-opacity="0" transform="scale(1)"/><path d="M4.286263797015736e-16,-7L4.286263797015736e-16,-7Z" fill="#3987CC" class="sja_aa_discrim" fill-opacity="1" stroke-opacity="1"/></g><circle class="sja_aa_skkick" fill="white" fill-opacity="0" stroke="none" r="8" cy="-7" transform="scale(0)"/><path class="sja_aa_stem" d="M0,0v14l0.3705435417883791,26v23.799999999999997" stroke="#3987CC" fill="none"/></g><g class="sja_skg" transform="translate(1088, 132.7421875)"><g transform="translate(0, -7)" class="sja_aa_discg"><circle fill="#3987CC" stroke="white" r="6.5"/><text font-size="12" fill="#3987CC" x="8" y="3.5999999999999996" font-family="Arial" class="sja_aa_disclabel" fill-opacity="1" transform="scale(1) rotate(0)">p.Leu1478Arg</text><circle r="6.5" stroke="#3987CC" class="sja_aa_disckick" fill="white" fill-opacity="0" stroke-opacity="0" transform="scale(1)"/><path d="M4.286263797015736e-16,-7L4.286263797015736e-16,-7Z" fill="#3987CC" class="sja_aa_discrim" fill-opacity="1" stroke-opacity="1"/></g><circle class="sja_aa_skkick" fill="white" fill-opacity="0" stroke="none" r="8" cy="-7" transform="scale(0)"/><path class="sja_aa_stem" d="M0,0v14l0.04792518994736383,26v23.799999999999997" stroke="#3987CC" fill="none"/></g></g><g/><g transform="scale(0)"><rect fill="white" fill-opacity="0.5" width="1260" height="0"/><text data-testid="loading_message" fill="rgb(97, 124, 148)" fill-opacity="1" font-weight="bold" font-size="18px" text-anchor="middle" dominant-baseline="middle" x="630" y="15">Loading ...</text><line stroke="rgb(97, 124, 148)" stroke-width="2px" y1="30" y2="30" x2="0"/></g></g><g transform="translate(122.3984375, 0)"><text font-size="14" font-family="Arial" y="7" text-anchor="end" dominant-baseline="central" fill="black" x="-10" font-weight="bold">GAMBL DLBCL</text><g/><text font-size="14" font-family="Arial" y="26" text-anchor="end" dominant-baseline="central" class="sja_clbtext2" fill="black" x="-10">8 of 9 mutations</text></g><g transform="translate(1395.3984375, 0)"/></g><g data-testid="sja_sample_menu_opener" transform="translate(0, 447.7250061035156)"><g transform="translate(1385.3984375, 0)"/><g transform="translate(125.3984375,0)"><rect fill="white" fill-opacity="0" width="1260" height="24"/><g transform="translate(0,0)" style="cursor: default;"/><g/><g transform="scale(0)"><rect fill="white" fill-opacity="0.5" width="1260" height="0"/><text data-testid="loading_message" fill="rgb(97, 124, 148)" fill-opacity="1" font-weight="bold" font-size="18px" text-anchor="middle" dominant-baseline="middle" x="630" y="15">Loading ...</text><line stroke="rgb(97, 124, 148)" stroke-width="2px" y1="30" y2="30" x2="0"/></g></g><g transform="translate(122.3984375,0)"><text font-size="14" font-family="Arial" y="7" text-anchor="end" dominant-baseline="central" fill="black" x="-10" font-weight="bold">GAMBL FL</text><g/><text font-size="14" font-family="Arial" y="26" text-anchor="end" dominant-baseline="central" class="sja_clbtext2" fill="black" x="-10"/></g><g transform="translate(1395.3984375,0)"/></g><g data-testid="sja_sample_menu_opener" transform="translate(0, 284.54217529296875)"><g transform="translate(1385.3984375, 0)"/><g transform="translate(125.3984375,0)"><rect fill="white" fill-opacity="0" width="1260" height="163.1828125"/><g transform="translate(0,0)" style="cursor: default;"><g class="sja_skg" transform="translate(210.85914611816406, 51.79999923706055)"><g transform="translate(0, 7)" class="sja_aa_discg"><circle fill="#6633FF" stroke="white" r="6.5"/><text font-size="12" fill="#6633FF" x="8" y="3.5999999999999996" font-family="Arial" class="sja_aa_disclabel" fill-opacity="1" transform="scale(1) rotate(0)">c.859+2T&gt;C</text><circle r="6.5" stroke="#6633FF" class="sja_aa_disckick" fill="white" fill-opacity="0" stroke-opacity="0" transform="scale(1)"/><path d="M4.286263797015736e-16,-7L4.286263797015736e-16,-7Z" fill="#6633FF" class="sja_aa_discrim" fill-opacity="1" stroke-opacity="1"/></g><circle class="sja_aa_skkick" fill="white" fill-opacity="0" stroke="none" r="8" cy="7" transform="scale(0)"/><path class="sja_aa_stem" d="M0,0v-14l0,-14v-23.799999999999997" stroke="#6633FF" fill="none"/></g><g class="sja_skg" transform="translate(424.78668212890625, 51.79999923706055)"><g transform="translate(0, 7)" class="sja_aa_discg"><circle fill="#2ca02c" stroke="white" r="6.5"/><text font-size="12" fill="#2ca02c" x="8" y="3.5999999999999996" font-family="Arial" class="sja_aa_disclabel" fill-opacity="1" transform="scale(1) rotate(0)">c.1731G&gt;A(p.=)</text><circle r="6.5" stroke="#2ca02c" class="sja_aa_disckick" fill="white" fill-opacity="0" stroke-opacity="0" transform="scale(1)"/><path d="M4.286263797015736e-16,-7L4.286263797015736e-16,-7Z" fill="#2ca02c" class="sja_aa_discrim" fill-opacity="1" stroke-opacity="1"/></g><circle class="sja_aa_skkick" fill="white" fill-opacity="0" stroke="none" r="8" cy="7" transform="scale(0)"/><path class="sja_aa_stem" d="M0,0v-14l0,-14v-23.799999999999997" stroke="#2ca02c" fill="none"/></g><g class="sja_skg" transform="translate(1199.24609375, 51.79999923706055)"><g transform="translate(0, 7)" class="sja_aa_discg"><circle fill="#3987CC" stroke="white" r="6.5"/><text font-size="12" fill="#3987CC" x="8" y="3.5999999999999996" font-family="Arial" class="sja_aa_disclabel" fill-opacity="1" transform="rotate(90)">p.Ser1629Cys</text><circle r="6.5" stroke="#3987CC" class="sja_aa_disckick" fill="white" fill-opacity="0" stroke-opacity="0" transform="scale(1)"/><path d="M4.286263797015736e-16,-7L4.286263797015736e-16,-7Z" fill="#3987CC" class="sja_aa_discrim" fill-opacity="1" stroke-opacity="1"/></g><circle class="sja_aa_skkick" fill="white" fill-opacity="0" stroke="none" r="8" cy="7" transform="scale(0)"/><path class="sja_aa_stem" d="M0,0v-14l0,-14v-23.799999999999997" stroke="#3987CC" fill="none"/></g><g class="sja_skg" transform="translate(1219.129150390625, 51.79999923706055)"><g transform="translate(0, 7)" class="sja_aa_discg"><circle fill="#3987CC" stroke="white" r="6.5"/><text font-size="12" fill="#3987CC" x="8" y="3.5999999999999996" font-family="Arial" class="sja_aa_disclabel" fill-opacity="1" transform="rotate(90)">p.Arg1656Thr</text><circle r="6.5" stroke="#3987CC" class="sja_aa_disckick" fill="white" fill-opacity="0" stroke-opacity="0" transform="scale(1)"/><path d="M4.286263797015736e-16,-7L4.286263797015736e-16,-7Z" fill="#3987CC" class="sja_aa_discrim" fill-opacity="1" stroke-opacity="1"/></g><circle class="sja_aa_skkick" fill="white" fill-opacity="0" stroke="none" r="8" cy="7" transform="scale(0)"/><path class="sja_aa_stem" d="M0,0v-14l0,-14v-23.799999999999997" stroke="#3987CC" fill="none"/></g></g><g/><g transform="scale(0)"><rect fill="white" fill-opacity="0.5" width="1260" height="0"/><text data-testid="loading_message" fill="rgb(97, 124, 148)" fill-opacity="1" font-weight="bold" font-size="18px" text-anchor="middle" dominant-baseline="middle" x="630" y="15">Loading ...</text><line stroke="rgb(97, 124, 148)" stroke-width="2px" y1="30" y2="30" x2="0"/></g></g><g transform="translate(122.3984375,0)"><text font-size="14" font-family="Arial" y="7" text-anchor="end" dominant-baseline="central" fill="black" x="-10" font-weight="bold">GAMBL BL</text><g/><text font-size="14" font-family="Arial" y="26" text-anchor="end" dominant-baseline="central" class="sja_clbtext2" fill="black" x="-10">4 of 7 mutations</text></g><g transform="translate(1395.3984375,0)"/></g><g data-testid="sja_sample_menu_opener" transform="translate(0, 471.7250061035156)"><g transform="translate(1385.3984375, 0)"/><g transform="translate(125.3984375,0)"><rect fill="white" fill-opacity="0" width="1260" height="24"/><g transform="translate(0,0)" style="cursor: default;"/><g/><g transform="scale(0)"><rect fill="white" fill-opacity="0.5" width="1260" height="0"/><text data-testid="loading_message" fill="rgb(97, 124, 148)" fill-opacity="1" font-weight="bold" font-size="18px" text-anchor="middle" dominant-baseline="middle" x="630" y="15">Loading ...</text><line stroke="rgb(97, 124, 148)" stroke-width="2px" y1="30" y2="30" x2="0"/></g></g><g transform="translate(122.3984375,0)"><text font-size="14" font-family="Arial" y="7" text-anchor="end" dominant-baseline="central" fill="black" x="-10" font-weight="bold">GAMBL MCL</text><g/><text font-size="14" font-family="Arial" y="26" text-anchor="end" dominant-baseline="central" class="sja_clbtext2" fill="black" x="-10"/></g><g transform="translate(1395.3984375,0)"/></g><g data-testid="sja_sample_menu_opener" transform="translate(0, 237.5421905517578)"><g transform="translate(1385.3984375, 0)"/><g transform="translate(125.3984375,0)"><rect fill="white" fill-opacity="0" width="1260" height="47"/><g transform="translate(0,0)" style="cursor: default;"><g><line x1="0" y1="18.5" x2="1259.9999999999998" y2="18.5" stroke="black" shape-rendering="crispEdges"/><rect x="0" width="13.009935710111046" height="37" fill="white"/><rect x="13.009935710111046" width="49.58503798947984" height="37" fill="white"/><rect x="62.59497369959088" width="28.720046756282873" height="37" fill="white"/><rect x="91.31502045587375" width="15.955581531268264" height="37" fill="white"/><rect x="107.27060198714202" width="36.820572764465226" height="37" fill="white"/><rect x="144.09117475160724" width="66.76797194623028" height="37" fill="white"/><rect x="202.5131502045587" width="8.345996493278784" height="37" fill="#bebada"/><rect x="210.8591466978375" width="55.47632963179427" height="37" fill="white"/><rect x="210.8591466978375" width="49.83050847457627" height="37" fill="#bebada"/><rect x="237.86090005844534" width="1.4728229105786088" height="37" fill="#80b1d3"/><rect x="254.79836353009932" width="1.4728229105786088" height="37" fill="#e5c494"/><rect x="241.54295733489187" width="1" height="37" fill="#80b1d3"/><rect x="236.38807714786674" width="1" height="37" fill="#80b1d3"/><rect x="266.3354763296318" width="24.79251899473992" height="37" fill="white"/><rect x="284.2548217416715" width="6.873173582700175" height="37" fill="#bebada"/><rect x="291.1279953243717" width="43.939216832261835" height="37" fill="white"/><rect x="291.1279953243717" width="35.10227936879018" height="37" fill="#bebada"/><rect x="312.23845704266506" width="1" height="37" fill="#80b1d3"/><rect x="299.7194623027469" width="1" height="37" fill="#80b1d3"/><rect x="335.0672121566335" width="31.420222092343657" height="37" fill="white"/><rect x="340.95850379894796" width="25.528930450029222" height="37" fill="#ffd92f"/><rect x="338.0128579777907" width="28.47457627118644" height="37" fill="#8dd3c7"/><rect x="366.48743424897714" width="53.26709526592636" height="37" fill="white"/><rect x="366.48743424897714" width="53.26709526592636" height="37" fill="#ffd92f"/><rect x="366.48743424897714" width="53.26709526592636" height="37" fill="#8dd3c7"/><rect x="373.3606078316773" width="5.154880187025131" height="37" fill="#fdb462"/><rect x="419.7545295149035" width="22.092343658679134" height="37" fill="white"/><rect x="419.7545295149035" width="22.092343658679134" height="37" fill="#ffd92f"/><rect x="419.7545295149035" width="22.092343658679134" height="37" fill="#8dd3c7"/><rect x="441.8468731735826" width="46.88486265341905" height="37" fill="white"/><rect x="441.8468731735826" width="46.88486265341905" height="37" fill="#ffd92f"/><rect x="441.8468731735826" width="46.88486265341905" height="37" fill="#8dd3c7"/><rect x="451.4202220923436" width="2.9456458211572176" height="37" fill="#fb8072"/><rect x="451.4202220923436" width="1" height="37" fill="#fdb462"/><rect x="488.73173582700167" width="46.39392168322618" height="37" fill="white"/><rect x="488.73173582700167" width="46.39392168322618" height="37" fill="#ffd92f"/><rect x="488.73173582700167" width="24.54704850964348" height="37" fill="#8dd3c7"/><rect x="535.1256575102278" width="40.01168907071887" height="37" fill="white"/><rect x="535.1256575102278" width="40.01168907071887" height="37" fill="#ffd92f"/><rect x="575.1373465809467" width="37.556984219754526" height="37" fill="white"/><rect x="575.1373465809467" width="37.556984219754526" height="37" fill="#ffd92f"/><rect x="612.6943308007012" width="17.673874926943306" height="37" fill="white"/><rect x="612.6943308007012" width="17.673874926943306" height="37" fill="#ffd92f"/><rect x="630.3682057276445" width="36.820572764465226" height="37" fill="white"/><rect x="630.3682057276445" width="36.820572764465226" height="37" fill="#ffd92f"/><rect x="667.1887784921098" width="36.575102279368785" height="37" fill="white"/><rect x="667.1887784921098" width="36.575102279368785" height="37" fill="#ffd92f"/><rect x="703.7638807714786" width="23.810637054354178" height="37" fill="white"/><rect x="703.7638807714786" width="23.810637054354178" height="37" fill="#ffd92f"/><rect x="727.5745178258328" width="23.56516656925774" height="37" fill="white"/><rect x="727.5745178258328" width="8.836937463471653" height="37" fill="#ffd92f"/><rect x="751.1396843950905" width="43.44827586206896" height="37" fill="white"/><rect x="794.5879602571595" width="39.520748100526006" height="37" fill="white"/><rect x="826.9900642898889" width="7.11864406779661" height="37" fill="#b3b3b3"/><rect x="834.1087083576855" width="10.309760374050262" height="37" fill="white"/><rect x="834.1087083576855" width="10.309760374050262" height="37" fill="#b3b3b3"/><rect x="844.4184687317357" width="32.156633547632964" height="37" fill="white"/><rect x="844.4184687317357" width="32.156633547632964" height="37" fill="#b3b3b3"/><rect x="876.5751022793687" width="34.12039742840444" height="37" fill="white"/><rect x="876.5751022793687" width="14.482758620689655" height="37" fill="#b3b3b3"/><rect x="910.6954997077731" width="37.06604324956166" height="37" fill="white"/><rect x="942.6066627703096" width="5.154880187025131" height="37" fill="#E8E89E"/><rect x="947.7615429573348" width="28.720046756282873" height="37" fill="white"/><rect x="947.7615429573348" width="28.720046756282873" height="37" fill="#E8E89E"/><rect x="976.4815897136176" width="31.66569257744009" height="37" fill="white"/><rect x="976.4815897136176" width="31.66569257744009" height="37" fill="#E8E89E"/><rect x="1008.1472822910576" width="34.61133839859731" height="37" fill="white"/><rect x="1008.1472822910576" width="23.56516656925774" height="37" fill="#E8E89E"/><rect x="1036.8673290473405" width="5.891291642314435" height="37" fill="#8dd3c7"/><rect x="1042.758620689655" width="43.939216832261835" height="37" fill="white"/><rect x="1042.758620689655" width="43.939216832261835" height="37" fill="#8dd3c7"/><rect x="1086.6978375219167" width="23.810637054354178" height="37" fill="white"/><rect x="1086.6978375219167" width="16.446522501461132" height="37" fill="#8dd3c7"/><rect x="1110.5084745762708" width="12.764465225014611" height="37" fill="white"/><rect x="1123.2729398012855" width="51.79427235534775" height="37" fill="white"/><rect x="1143.6469900642896" width="31.420222092343657" height="37" fill="#a6d854"/><rect x="1175.0672121566333" width="84.93278784336644" height="37" fill="white"/><rect x="1175.0672121566333" width="82.72355347749854" height="37" fill="#a6d854"/><line x1="0" x2="1259.9999999999998" stroke="black"/><line x1="0" x2="1259.9999999999998" y1="37" y2="37" stroke="black"/><line x1="1259.9999999999998" x2="1259.9999999999998" y2="37" stroke="black"/><line x1="0" x2="0" y2="37" stroke="black"/><line class="exonboundaryclass" x1="13.009935710111046" x2="13.009935710111046" y1="0" y2="37" stroke="black" stroke-dasharray="4,2" shape-rendering="crispEdges" stroke-opacity="1"/><line class="exonboundaryclass" x1="62.59497369959088" x2="62.59497369959088" y1="0" y2="37" stroke="black" stroke-dasharray="4,2" shape-rendering="crispEdges" stroke-opacity="1"/><line class="exonboundaryclass" x1="91.31502045587375" x2="91.31502045587375" y1="0" y2="37" stroke="black" stroke-dasharray="4,2" shape-rendering="crispEdges" stroke-opacity="1"/><line class="exonboundaryclass" x1="107.27060198714202" x2="107.27060198714202" y1="0" y2="37" stroke="black" stroke-dasharray="4,2" shape-rendering="crispEdges" stroke-opacity="1"/><line class="exonboundaryclass" x1="144.09117475160724" x2="144.09117475160724" y1="0" y2="37" stroke="black" stroke-dasharray="4,2" shape-rendering="crispEdges" stroke-opacity="1"/><line class="exonboundaryclass" x1="210.8591466978375" x2="210.8591466978375" y1="0" y2="37" stroke="black" stroke-dasharray="4,2" shape-rendering="crispEdges" stroke-opacity="1"/><line class="exonboundaryclass" x1="266.3354763296318" x2="266.3354763296318" y1="0" y2="37" stroke="black" stroke-dasharray="4,2" shape-rendering="crispEdges" stroke-opacity="1"/><line class="exonboundaryclass" x1="291.1279953243717" x2="291.1279953243717" y1="0" y2="37" stroke="black" stroke-dasharray="4,2" shape-rendering="crispEdges" stroke-opacity="1"/><line class="exonboundaryclass" x1="335.0672121566335" x2="335.0672121566335" y1="0" y2="37" stroke="black" stroke-dasharray="4,2" shape-rendering="crispEdges" stroke-opacity="1"/><line class="exonboundaryclass" x1="366.48743424897714" x2="366.48743424897714" y1="0" y2="37" stroke="black" stroke-dasharray="4,2" shape-rendering="crispEdges" stroke-opacity="1"/><line class="exonboundaryclass" x1="419.7545295149035" x2="419.7545295149035" y1="0" y2="37" stroke="black" stroke-dasharray="4,2" shape-rendering="crispEdges" stroke-opacity="1"/><line class="exonboundaryclass" x1="441.8468731735826" x2="441.8468731735826" y1="0" y2="37" stroke="black" stroke-dasharray="4,2" shape-rendering="crispEdges" stroke-opacity="1"/><line class="exonboundaryclass" x1="488.73173582700167" x2="488.73173582700167" y1="0" y2="37" stroke="black" stroke-dasharray="4,2" shape-rendering="crispEdges" stroke-opacity="1"/><line class="exonboundaryclass" x1="535.1256575102278" x2="535.1256575102278" y1="0" y2="37" stroke="black" stroke-dasharray="4,2" shape-rendering="crispEdges" stroke-opacity="1"/><line class="exonboundaryclass" x1="575.1373465809467" x2="575.1373465809467" y1="0" y2="37" stroke="black" stroke-dasharray="4,2" shape-rendering="crispEdges" stroke-opacity="1"/><line class="exonboundaryclass" x1="612.6943308007012" x2="612.6943308007012" y1="0" y2="37" stroke="black" stroke-dasharray="4,2" shape-rendering="crispEdges" stroke-opacity="1"/><line class="exonboundaryclass" x1="630.3682057276445" x2="630.3682057276445" y1="0" y2="37" stroke="black" stroke-dasharray="4,2" shape-rendering="crispEdges" stroke-opacity="1"/><line class="exonboundaryclass" x1="667.1887784921098" x2="667.1887784921098" y1="0" y2="37" stroke="black" stroke-dasharray="4,2" shape-rendering="crispEdges" stroke-opacity="1"/><line class="exonboundaryclass" x1="703.7638807714786" x2="703.7638807714786" y1="0" y2="37" stroke="black" stroke-dasharray="4,2" shape-rendering="crispEdges" stroke-opacity="1"/><line class="exonboundaryclass" x1="727.5745178258328" x2="727.5745178258328" y1="0" y2="37" stroke="black" stroke-dasharray="4,2" shape-rendering="crispEdges" stroke-opacity="1"/><line class="exonboundaryclass" x1="751.1396843950905" x2="751.1396843950905" y1="0" y2="37" stroke="black" stroke-dasharray="4,2" shape-rendering="crispEdges" stroke-opacity="1"/><line class="exonboundaryclass" x1="794.5879602571595" x2="794.5879602571595" y1="0" y2="37" stroke="black" stroke-dasharray="4,2" shape-rendering="crispEdges" stroke-opacity="1"/><line class="exonboundaryclass" x1="834.1087083576855" x2="834.1087083576855" y1="0" y2="37" stroke="black" stroke-dasharray="4,2" shape-rendering="crispEdges" stroke-opacity="1"/><line class="exonboundaryclass" x1="844.4184687317357" x2="844.4184687317357" y1="0" y2="37" stroke="black" stroke-dasharray="4,2" shape-rendering="crispEdges" stroke-opacity="1"/><line class="exonboundaryclass" x1="876.5751022793687" x2="876.5751022793687" y1="0" y2="37" stroke="black" stroke-dasharray="4,2" shape-rendering="crispEdges" stroke-opacity="1"/><line class="exonboundaryclass" x1="910.6954997077731" x2="910.6954997077731" y1="0" y2="37" stroke="black" stroke-dasharray="4,2" shape-rendering="crispEdges" stroke-opacity="1"/><line class="exonboundaryclass" x1="947.7615429573348" x2="947.7615429573348" y1="0" y2="37" stroke="black" stroke-dasharray="4,2" shape-rendering="crispEdges" stroke-opacity="1"/><line class="exonboundaryclass" x1="976.4815897136176" x2="976.4815897136176" y1="0" y2="37" stroke="black" stroke-dasharray="4,2" shape-rendering="crispEdges" stroke-opacity="1"/><line class="exonboundaryclass" x1="1008.1472822910576" x2="1008.1472822910576" y1="0" y2="37" stroke="black" stroke-dasharray="4,2" shape-rendering="crispEdges" stroke-opacity="1"/><line class="exonboundaryclass" x1="1042.758620689655" x2="1042.758620689655" y1="0" y2="37" stroke="black" stroke-dasharray="4,2" shape-rendering="crispEdges" stroke-opacity="1"/><line class="exonboundaryclass" x1="1086.6978375219167" x2="1086.6978375219167" y1="0" y2="37" stroke="black" stroke-dasharray="4,2" shape-rendering="crispEdges" stroke-opacity="1"/><line class="exonboundaryclass" x1="1110.5084745762708" x2="1110.5084745762708" y1="0" y2="37" stroke="black" stroke-dasharray="4,2" shape-rendering="crispEdges" stroke-opacity="1"/><line class="exonboundaryclass" x1="1123.2729398012855" x2="1123.2729398012855" y1="0" y2="37" stroke="black" stroke-dasharray="4,2" shape-rendering="crispEdges" stroke-opacity="1"/><line class="exonboundaryclass" x1="1175.0672121566333" x2="1175.0672121566333" y1="0" y2="37" stroke="black" stroke-dasharray="4,2" shape-rendering="crispEdges" stroke-opacity="1"/><g transform="translate(0,18.5)" fill="none" font-size="10" font-family="sans-serif" text-anchor="middle"><path class="domain" stroke="none" d="M0.3682057276446522,0H1259.9999999999998" fill="none" stroke-width="0" shape-rendering="crispEdges"/><g class="tick" opacity="1" transform="translate(146.90869037449986,0)"><line stroke="black" y2="0" shape-rendering="crispEdges"/><text fill="black" y="3" dy="0.71em" font-family="Arial" font-size="11.666666666666666px" style="cursor: default;">200</text></g><g class="tick" opacity="1" transform="translate(294.1718293395675,0)"><line stroke="black" y2="0" shape-rendering="crispEdges"/><text fill="black" y="3" dy="0.71em" font-family="Arial" font-size="11.666666666666666px" style="cursor: default;">400</text></g><g class="tick" opacity="1" transform="translate(441.1227352425481,0)"><line stroke="black" y2="0" shape-rendering="crispEdges"/><text fill="black" y="3" dy="0.71em" font-family="Arial" font-size="11.666666666666666px" style="cursor: default;">600</text></g><g class="tick" opacity="1" transform="translate(588.6310035411007,0)"><line stroke="black" y2="0" shape-rendering="crispEdges"/><text fill="black" y="3" dy="0.71em" font-family="Arial" font-size="11.666666666666666px" style="cursor: default;">800</text></g><g class="tick" opacity="1" transform="translate(735.916678842782,0)"><line stroke="black" y2="0" shape-rendering="crispEdges"/><text fill="black" y="3" dy="0.71em" font-family="Arial" font-size="11.666666666666666px" style="cursor: default;">1000</text></g><g class="tick" opacity="1" transform="translate(883.3495540365409,0)"><line stroke="black" y2="0" shape-rendering="crispEdges"/><text fill="black" y="3" dy="0.71em" font-family="Arial" font-size="11.666666666666666px" style="cursor: default;">1200</text></g><g class="tick" opacity="1" transform="translate(1030.3728067448424,0)"><line stroke="black" y2="0" shape-rendering="crispEdges"/><text fill="black" y="3" dy="0.71em" font-family="Arial" font-size="11.666666666666666px" style="cursor: default;">1400</text></g><g class="tick" opacity="1" transform="translate(1177.8774259860133,0)"><line stroke="black" y2="0" shape-rendering="crispEdges"/><text fill="black" y="3" dy="0.71em" font-family="Arial" font-size="11.666666666666666px" style="cursor: default;">1600</text></g></g><rect x="0" width="13.009935710111046" height="37" fill="#858585" fill-opacity="0"/><rect x="13.009935710111046" width="49.58503798947984" height="37" fill="#858585" fill-opacity="0"/><rect x="62.59497369959088" width="28.720046756282873" height="37" fill="#858585" fill-opacity="0"/><rect x="91.31502045587375" width="15.955581531268264" height="37" fill="#858585" fill-opacity="0"/><rect x="107.27060198714202" width="36.820572764465226" height="37" fill="#858585" fill-opacity="0"/><rect x="144.09117475160724" width="66.76797194623028" height="37" fill="#858585" fill-opacity="0"/><rect x="210.8591466978375" width="55.47632963179427" height="37" fill="#858585" fill-opacity="0"/><rect x="266.3354763296318" width="24.79251899473992" height="37" fill="#858585" fill-opacity="0"/><rect x="291.1279953243717" width="43.939216832261835" height="37" fill="#858585" fill-opacity="0"/><rect x="335.0672121566335" width="31.420222092343657" height="37" fill="#858585" fill-opacity="0"/><rect x="366.48743424897714" width="53.26709526592636" height="37" fill="#858585" fill-opacity="0"/><rect x="419.7545295149035" width="22.092343658679134" height="37" fill="#858585" fill-opacity="0"/><rect x="441.8468731735826" width="46.88486265341905" height="37" fill="#858585" fill-opacity="0"/><rect x="488.73173582700167" width="46.39392168322618" height="37" fill="#858585" fill-opacity="0"/><rect x="535.1256575102278" width="40.01168907071887" height="37" fill="#858585" fill-opacity="0"/><rect x="575.1373465809467" width="37.556984219754526" height="37" fill="#858585" fill-opacity="0"/><rect x="612.6943308007012" width="17.673874926943306" height="37" fill="#858585" fill-opacity="0"/><rect x="630.3682057276445" width="36.820572764465226" height="37" fill="#858585" fill-opacity="0"/><rect x="667.1887784921098" width="36.575102279368785" height="37" fill="#858585" fill-opacity="0"/><rect x="703.7638807714786" width="23.810637054354178" height="37" fill="#858585" fill-opacity="0"/><rect x="727.5745178258328" width="23.56516656925774" height="37" fill="#858585" fill-opacity="0"/><rect x="751.1396843950905" width="43.44827586206896" height="37" fill="#858585" fill-opacity="0"/><rect x="794.5879602571595" width="39.520748100526006" height="37" fill="#858585" fill-opacity="0"/><rect x="834.1087083576855" width="10.309760374050262" height="37" fill="#858585" fill-opacity="0"/><rect x="844.4184687317357" width="32.156633547632964" height="37" fill="#858585" fill-opacity="0"/><rect x="876.5751022793687" width="34.12039742840444" height="37" fill="#858585" fill-opacity="0"/><rect x="910.6954997077731" width="37.06604324956166" height="37" fill="#858585" fill-opacity="0"/><rect x="947.7615429573348" width="28.720046756282873" height="37" fill="#858585" fill-opacity="0"/><rect x="976.4815897136176" width="31.66569257744009" height="37" fill="#858585" fill-opacity="0"/><rect x="1008.1472822910576" width="34.61133839859731" height="37" fill="#858585" fill-opacity="0"/><rect x="1042.758620689655" width="43.939216832261835" height="37" fill="#858585" fill-opacity="0"/><rect x="1086.6978375219167" width="23.810637054354178" height="37" fill="#858585" fill-opacity="0"/><rect x="1110.5084745762708" width="12.764465225014611" height="37" fill="#858585" fill-opacity="0"/><rect x="1123.2729398012855" width="51.79427235534775" height="37" fill="#858585" fill-opacity="0"/><rect x="1175.0672121566333" width="84.93278784336644" height="37" fill="#858585" fill-opacity="0"/></g></g><g/><g transform="scale(0)"><rect fill="white" fill-opacity="0"/><text data-testid="loading_message" fill="rgb(97, 124, 148)" fill-opacity="0" font-weight="bold" font-size="18px" text-anchor="middle" dominant-baseline="middle">Loading ...</text><line stroke="rgb(97, 124, 148)" stroke-width="2px"/></g></g><g transform="translate(122.3984375,0)"><text font-size="14" font-family="Arial" y="7" text-anchor="end" dominant-baseline="central" fill="black" x="-10" font-weight="bold">CHD1</text><text font-size="14" font-family="Arial" y="20" text-anchor="end" dominant-baseline="central" fill="black" x="-10">NM_001270</text></g><g transform="translate(1395.3984375,0)"><text fill="#aaa" font-family="Arial" font-size="14" y="14" class="sja_clbtext2"/></g></g></g><g transform="scale(0)"><rect fill="white"/><text id="loadinggCloak" fill="rgb(97, 124, 148)" fill-opacity="0" font-weight="bold" font-size="18px" text-anchor="middle" dominant-baseline="middle">Loading ...</text></g><g/><g transform="translate(124.3984375,510.725)"><g transform="translate(0,0)"><rect width="15" height="20" stroke="rgb(133, 130, 153)" fill="#bebada" shape-rendering="crispEdges"/><text x="20" y="10" dominant-baseline="central" font-size="16" font-family="Arial" fill="black">CD1_tandem_CHD1-2_like</text><text x="223.8671875" y="10" dominant-baseline="central" font-size="12" font-family="Arial" fill="#858585">repeat 1 of the paired tandem chromodomains of chromodomain helicase D ...</text></g><g transform="translate(0,23)"><rect width="15" height="20" stroke="rgb(90, 124, 148)" fill="#80b1d3" shape-rendering="crispEdges"/><text x="20" y="10" dominant-baseline="central" font-size="16" font-family="Arial" fill="black">other</text><text x="66.6875" y="10" dominant-baseline="central" font-size="12" font-family="Arial" fill="#858585">peptide binding site [polypeptide binding]</text></g><g transform="translate(0,46)"><rect width="15" height="20" stroke="rgb(160, 137, 104)" fill="#e5c494" shape-rendering="crispEdges"/><text x="20" y="10" dominant-baseline="central" font-size="16" font-family="Arial" fill="black">DNA binding</text><text x="118.9453125" y="10" dominant-baseline="central" font-size="12" font-family="Arial" fill="#858585">DNA binding site [nucleotide binding]</text></g><g transform="translate(0,69)"><rect width="15" height="20" stroke="rgb(133, 130, 153)" fill="#bebada" shape-rendering="crispEdges"/><text x="20" y="10" dominant-baseline="central" font-size="16" font-family="Arial" fill="black">CD2_tandem_CHD1-2_like</text><text x="223.8671875" y="10" dominant-baseline="central" font-size="12" font-family="Arial" fill="#858585">repeat 2 of the paired tandem chromodomains of chromodomain helicase D ...</text></g><g transform="translate(0,92)"><rect width="15" height="20" stroke="rgb(99, 148, 139)" fill="#8dd3c7" shape-rendering="crispEdges"/><text x="20" y="10" dominant-baseline="central" font-size="16" font-family="Arial" fill="black">DEAD-like_helicase_N</text><text x="191.84375" y="10" dominant-baseline="central" font-size="12" font-family="Arial" fill="#858585">N-terminal helicase domain of the DEAD-box helicase superfamily</text></g><g transform="translate(0,115)"><rect width="15" height="20" stroke="rgb(179, 152, 33)" fill="#ffd92f" shape-rendering="crispEdges"/><text x="20" y="10" dominant-baseline="central" font-size="16" font-family="Arial" fill="black">PLN03142</text><text x="105.6171875" y="10" dominant-baseline="central" font-size="12" font-family="Arial" fill="#858585">Probable chromatin-remodeling complex ATPase chain</text></g><g transform="translate(0,138)"><rect width="15" height="20" stroke="rgb(177, 126, 69)" fill="#fdb462" shape-rendering="crispEdges"/><text x="20" y="10" dominant-baseline="central" font-size="16" font-family="Arial" fill="black">other</text><text x="66.6875" y="10" dominant-baseline="central" font-size="12" font-family="Arial" fill="#858585">putative ATP binding site [chemical binding]</text></g><g transform="translate(0,161)"><rect width="15" height="20" stroke="rgb(176, 90, 80)" fill="#fb8072" shape-rendering="crispEdges"/><text x="20" y="10" dominant-baseline="central" font-size="16" font-family="Arial" fill="black">other</text><text x="66.6875" y="10" dominant-baseline="central" font-size="12" font-family="Arial" fill="#858585">DEAD box helicase motif</text></g><g transform="translate(0,184)"><rect width="15" height="20" stroke="rgb(125, 125, 125)" fill="#b3b3b3" shape-rendering="crispEdges"/><text x="20" y="10" dominant-baseline="central" font-size="16" font-family="Arial" fill="black">CDH1_2_SANT_HL1</text><text x="181.1796875" y="10" dominant-baseline="central" font-size="12" font-family="Arial" fill="#858585">CDH1/2 SANT-Helical linker 1</text></g><g transform="translate(0,207)"><rect width="15" height="20" stroke="rgb(162, 162, 111)" fill="#E8E89E" shape-rendering="crispEdges"/><text x="20" y="10" dominant-baseline="central" font-size="16" font-family="Arial" fill="black">AF-4</text><text x="64.6953125" y="10" dominant-baseline="central" font-size="12" font-family="Arial" fill="#858585">AF-4 proto-oncoprotein</text></g><g transform="translate(0,230)"><rect width="15" height="20" stroke="rgb(99, 148, 139)" fill="#8dd3c7" shape-rendering="crispEdges"/><text x="20" y="10" dominant-baseline="central" font-size="16" font-family="Arial" fill="black">DUF4208</text><text x="98.4765625" y="10" dominant-baseline="central" font-size="12" font-family="Arial" fill="#858585">Domain of unknown function (DUF4208)</text></g><g transform="translate(0,253)"><rect width="15" height="20" stroke="rgb(116, 151, 59)" fill="#a6d854" shape-rendering="crispEdges"/><text x="20" y="10" dominant-baseline="central" font-size="16" font-family="Arial" fill="black">THRAP3_BCLAF1</text><text x="162.4921875" y="10" dominant-baseline="central" font-size="12" font-family="Arial" fill="#858585">THRAP3/BCLAF1 family</text></g></g><g transform="translate(1187.3984375,510.725)"><g transform="translate(0,0)"><circle cx="10" cy="10" r="10" fill="#b5a174"/><text x="30" y="10" dominant-baseline="central" font-size="16" font-family="Arial" fill="#b5a174">Sequence deletion, n=1</text></g><g transform="translate(0,23)"><circle cx="10" cy="10" r="10" fill="#3987CC"/><text x="30" y="10" dominant-baseline="central" font-size="16" font-family="Arial" fill="#3987CC">MISSENSE, n=7</text></g><g transform="translate(0,46)"><circle cx="10" cy="10" r="10" fill="#2ca02c"/><text x="30" y="10" dominant-baseline="central" font-size="16" font-family="Arial" fill="#2ca02c">SILENT, n=2</text></g><g transform="translate(0,69)"><circle cx="10" cy="10" r="10" fill="#db3d3d"/><text x="30" y="10" dominant-baseline="central" font-size="16" font-family="Arial" fill="#db3d3d">FRAMESHIFT, n=1</text></g><g transform="translate(0,92)"><circle cx="10" cy="10" r="10" fill="#ff7f0e"/><text x="30" y="10" dominant-baseline="central" font-size="16" font-family="Arial" fill="#ff7f0e">NONSENSE, n=1</text></g><g transform="translate(0,115)"><circle cx="10" cy="10" r="10" fill="#6633FF"/><text x="30" y="10" dominant-baseline="central" font-size="16" font-family="Arial" fill="#6633FF">SPLICE, n=1</text></g><g transform="translate(0,138)"><circle cx="10" cy="10" r="10" fill="#819981"/><text x="30" y="10" dominant-baseline="central" font-size="16" font-family="Arial" fill="#819981">UTR_5, n=3</text></g></g></svg>