<svg xmlns="http://www.w3.org/2000/svg" data-testid="sjpp_block_svg" width="1335.3984375" height="629.1135416666666"><g transform="translate(0,0)"><g transform="translate(125.3984375, 0)"/><rect fill="#FFFF99" x="849" width="0" height="474.11354166666666"/><g transform="translate(125.3984375, 23)"><g transform="translate(0,0)"><text text-anchor="end" x="-13" y="-10" dominant-baseline="central" font-size="13" font-family="Arial">Protein length</text><g><g transform="translate(0,0)" fill="none" font-size="10" font-family="sans-serif" text-anchor="middle"><path class="domain" stroke="black" d="M0,-6V0H1100V-6" fill="none" stroke-width="1" shape-rendering="crispEdges"/><g class="tick" opacity="1" transform="translate(96.28647214854112,0)"><line stroke="black" y2="-6" shape-rendering="crispEdges"/><text fill="black" y="-9" dy="0em" font-family="Arial" font-size="12px" style="cursor: default;">100</text></g><g class="tick" opacity="1" transform="translate(193.54553492484527,0)"><line stroke="black" y2="-6" shape-rendering="crispEdges"/><text fill="black" y="-9" dy="0em" font-family="Arial" font-size="12px" style="cursor: default;">200</text></g><g class="tick" opacity="1" transform="translate(290.8045977011494,0)"><line stroke="black" y2="-6" shape-rendering="crispEdges"/><text fill="black" y="-9" dy="0em" font-family="Arial" font-size="12px" style="cursor: default;">300</text></g><g class="tick" opacity="1" transform="translate(388.0636604774536,0)"><line stroke="black" y2="-6" shape-rendering="crispEdges"/><text fill="black" y="-9" dy="0em" font-family="Arial" font-size="12px" style="cursor: default;">400</text></g><g class="tick" opacity="1" transform="translate(485.3227232537577,0)"><line stroke="black" y2="-6" shape-rendering="crispEdges"/><text fill="black" y="-9" dy="0em" font-family="Arial" font-size="12px" style="cursor: default;">500</text></g><g class="tick" opacity="1" transform="translate(582.581786030062,0)"><line stroke="black" y2="-6" shape-rendering="crispEdges"/><text fill="black" y="-9" dy="0em" font-family="Arial" font-size="12px" style="cursor: default;">600</text></g><g class="tick" opacity="1" transform="translate(679.840848806366,0)"><line stroke="black" y2="-6" shape-rendering="crispEdges"/><text fill="black" y="-9" dy="0em" font-family="Arial" font-size="12px" style="cursor: default;">700</text></g><g class="tick" opacity="1" transform="translate(777.0999115826702,0)"><line stroke="black" y2="-6" shape-rendering="crispEdges"/><text fill="black" y="-9" dy="0em" font-family="Arial" font-size="12px" style="cursor: default;">800</text></g><g class="tick" opacity="1" transform="translate(874.3589743589743,0)"><line stroke="black" y2="-6" shape-rendering="crispEdges"/><text fill="black" y="-9" dy="0em" font-family="Arial" font-size="12px" style="cursor: default;">900</text></g><g class="tick" opacity="1" transform="translate(971.6180371352785,0)"><line stroke="black" y2="-6" shape-rendering="crispEdges"/><text fill="black" y="-9" dy="0em" font-family="Arial" font-size="12px" style="cursor: default;">1000</text></g><g class="tick" opacity="1" transform="translate(1068.8770999115827,0)"><line stroke="black" y2="-6" shape-rendering="crispEdges"/><text fill="black" y="-9" dy="0em" font-family="Arial" font-size="12px" style="cursor: default;">1100</text></g></g></g><rect fill="white" fill-opacity="0" x="0" y="-23" width="1100" height="26"/></g><g transform="translate(1100, 0)"/></g><g data-testid="sja_sample_menu_opener" transform="translate(0, 321.2484436035156)"><g transform="translate(1225.3984375, 0)"/><g transform="translate(125.3984375, 0)"><rect fill="white" fill-opacity="0" width="1100" height="157.86510416666664"/><g transform="translate(0,0)" style="cursor: default;"><g class="sja_skg" transform="translate(283.18597412109375, 56.46666717529297)"><g transform="translate(0, 7)" class="sja_aa_discg"><circle fill="#3987CC" stroke="white" r="6.5"/><text font-size="12" fill="#3987CC" x="8" y="3.5999999999999996" font-family="Arial" class="sja_aa_disclabel" fill-opacity="1" transform="scale(1) rotate(0)">p.Pro292Ser</text><circle r="6.5" stroke="#3987CC" class="sja_aa_disckick" fill="white" fill-opacity="0" stroke-opacity="0" transform="scale(1)"/><path d="M4.286263797015736e-16,-7L4.286263797015736e-16,-7Z" fill="#3987CC" class="sja_aa_discrim" fill-opacity="1" stroke-opacity="1"/></g><circle class="sja_aa_skkick" fill="white" fill-opacity="0" stroke="none" r="8" cy="7" transform="scale(0)"/><path class="sja_aa_stem" d="M0,0v-14l0,-18.666666666666668v-23.799999999999997" stroke="#3987CC" fill="none"/></g><g class="sja_skg" transform="translate(488.7267761230469, 56.46666717529297)"><g transform="translate(0, 7)" class="sja_aa_discg"><circle fill="#3987CC" stroke="white" r="6.5"/><text font-size="12" fill="#3987CC" x="8" y="3.5999999999999996" font-family="Arial" class="sja_aa_disclabel" fill-opacity="1" transform="scale(1) rotate(0)">p.Glu503Gly</text><circle r="6.5" stroke="#3987CC" class="sja_aa_disckick" fill="white" fill-opacity="0" stroke-opacity="0" transform="scale(1)"/><path d="M4.286263797015736e-16,-7L4.286263797015736e-16,-7Z" fill="#3987CC" class="sja_aa_discrim" fill-opacity="1" stroke-opacity="1"/></g><circle class="sja_aa_skkick" fill="white" fill-opacity="0" stroke="none" r="8" cy="7" transform="scale(0)"/><path class="sja_aa_stem" d="M0,0v-14l0,-18.666666666666668v-23.799999999999997" stroke="#3987CC" fill="none"/></g><g class="sja_skg" transform="translate(656.0123901367188, 56.46666717529297)"><g transform="translate(0, 7)" class="sja_aa_discg"><circle fill="#3987CC" stroke="white" r="6.5"/><text font-size="12" fill="#3987CC" x="8" y="3.5999999999999996" font-family="Arial" class="sja_aa_disclabel" fill-opacity="1" transform="scale(1) rotate(0)">p.Leu675Arg</text><circle r="6.5" stroke="#3987CC" class="sja_aa_disckick" fill="white" fill-opacity="0" stroke-opacity="0" transform="scale(1)"/><path d="M4.286263797015736e-16,-7L4.286263797015736e-16,-7Z" fill="#3987CC" class="sja_aa_discrim" fill-opacity="1" stroke-opacity="1"/></g><circle class="sja_aa_skkick" fill="white" fill-opacity="0" stroke="none" r="8" cy="7" transform="scale(0)"/><path class="sja_aa_stem" d="M0,0v-14l0,-18.666666666666668v-23.799999999999997" stroke="#3987CC" fill="none"/></g><g class="sja_skg" transform="translate(801.9010009765625, 56.46666717529297)"><g transform="translate(0, 7)" class="sja_aa_discg"><circle fill="#3987CC" stroke="white" r="6.5"/><text font-size="12" fill="#3987CC" x="8" y="3.5999999999999996" font-family="Arial" class="sja_aa_disclabel" fill-opacity="1" transform="rotate(90)">p.Val825Gly</text><circle r="6.5" stroke="#3987CC" class="sja_aa_disckick" fill="white" fill-opacity="0" stroke-opacity="0" transform="scale(1)"/><path d="M4.286263797015736e-16,-7L4.286263797015736e-16,-7Z" fill="#3987CC" class="sja_aa_discrim" fill-opacity="1" stroke-opacity="1"/></g><circle class="sja_aa_skkick" fill="white" fill-opacity="0" stroke="none" r="8" cy="7" transform="scale(0)"/><path class="sja_aa_stem" d="M0,0v-14l0,-18.666666666666668v-23.799999999999997" stroke="#3987CC" fill="none"/></g><g class="sja_skg" transform="translate(838.8594360351562, 56.46666717529297)"><g transform="translate(0, 7)" class="sja_aa_discg"><circle fill="#3987CC" stroke="white" r="6.5"/><text font-size="12" fill="#3987CC" x="8" y="3.5999999999999996" font-family="Arial" class="sja_aa_disclabel" fill-opacity="1" transform="scale(1) rotate(0)">p.Leu863Pro</text><circle r="6.5" stroke="#3987CC" class="sja_aa_disckick" fill="white" fill-opacity="0" stroke-opacity="0" transform="scale(1)"/><path d="M4.286263797015736e-16,-7L4.286263797015736e-16,-7Z" fill="#3987CC" class="sja_aa_discrim" fill-opacity="1" stroke-opacity="1"/></g><circle class="sja_aa_skkick" fill="white" fill-opacity="0" stroke="none" r="8" cy="7" transform="scale(0)"/><path class="sja_aa_stem" d="M0,0v-14l0,-18.666666666666668v-23.799999999999997" stroke="#3987CC" fill="none"/></g><g class="sja_skg" transform="translate(1020.8959350585938, 56.46666717529297)"><g transform="translate(0, 7)" class="sja_aa_discg"><circle fill="#6633FF" stroke="white" r="6.5"/><text font-size="12" fill="#6633FF" x="8" y="3.5999999999999996" font-family="Arial" class="sja_aa_disclabel" fill-opacity="1" transform="rotate(90)">c.3149+1G&gt;C</text><circle r="6.5" stroke="#6633FF" class="sja_aa_disckick" fill="white" fill-opacity="0" stroke-opacity="0" transform="scale(1)"/><path d="M4.286263797015736e-16,-7L4.286263797015736e-16,-7Z" fill="#6633FF" class="sja_aa_discrim" fill-opacity="1" stroke-opacity="1"/></g><circle class="sja_aa_skkick" fill="white" fill-opacity="0" stroke="none" r="8" cy="7" transform="scale(0)"/><path class="sja_aa_stem" d="M0,0v-14l0,-18.666666666666668v-23.799999999999997" stroke="#6633FF" fill="none"/></g><g class="sja_skg" transform="translate(1065.4730224609375, 56.46666717529297)"><g transform="translate(0, 7)" class="sja_aa_discg"><circle fill="#3987CC" stroke="white" r="6.5"/><text font-size="12" fill="#3987CC" x="8" y="3.5999999999999996" font-family="Arial" class="sja_aa_disclabel" fill-opacity="1" transform="rotate(90)">p.Leu1096Arg</text><circle r="6.5" stroke="#3987CC" class="sja_aa_disckick" fill="white" fill-opacity="0" stroke-opacity="0" transform="scale(1)"/><path d="M4.286263797015736e-16,-7L4.286263797015736e-16,-7Z" fill="#3987CC" class="sja_aa_discrim" fill-opacity="1" stroke-opacity="1"/></g><circle class="sja_aa_skkick" fill="white" fill-opacity="0" stroke="none" r="8" cy="7" transform="scale(0)"/><path class="sja_aa_stem" d="M0,0v-14l0,-18.666666666666668v-23.799999999999997" stroke="#3987CC" fill="none"/></g></g><g/><g transform="scale(0)"><rect fill="white" fill-opacity="0" width="1100" height="0"/><text data-testid="loading_message" fill="rgb(97, 124, 148)" fill-opacity="0" font-weight="bold" font-size="18px" text-anchor="middle" dominant-baseline="middle" x="550" y="15">Loading ...</text><line stroke="rgb(97, 124, 148)" stroke-width="2px" y1="30" y2="30" x2="0"/></g></g><g transform="translate(122.3984375, 0)"><text font-size="14" font-family="Arial" y="7" text-anchor="end" dominant-baseline="central" fill="black" x="-10" font-weight="bold">GAMBL DLBCL</text><g/><text font-size="14" font-family="Arial" y="26" text-anchor="end" dominant-baseline="central" class="sja_clbtext2" fill="black" x="-10">7 mutations</text></g><g transform="translate(1235.3984375, 0)"/></g><g data-testid="sja_sample_menu_opener" transform="translate(0, 31)"><g transform="translate(1225.3984375, 0)"/><g transform="translate(125.3984375,0)"><rect fill="white" fill-opacity="0" width="1100" height="118.05"/><g transform="translate(0,0)" style="cursor: default;"><g class="sja_skg" transform="translate(95.47598266601562, 84.25)"><g transform="translate(0, -7)" class="sja_aa_discg"><circle fill="#3987CC" stroke="white" r="6.5"/><text font-size="12" fill="#3987CC" x="8" y="3.5999999999999996" font-family="Arial" class="sja_aa_disclabel" fill-opacity="1" transform="scale(1) rotate(0)">p.Ala99Thr</text><circle r="6.5" stroke="#3987CC" class="sja_aa_disckick" fill="white" fill-opacity="0" stroke-opacity="0" transform="scale(1)"/><path d="M4.286263797015736e-16,-7L4.286263797015736e-16,-7Z" fill="#3987CC" class="sja_aa_discrim" fill-opacity="1" stroke-opacity="1"/></g><circle class="sja_aa_skkick" fill="white" fill-opacity="0" stroke="none" r="8" cy="-7" transform="scale(0)"/><path class="sja_aa_stem" d="M0,0v0l0,0v23.799999999999997" stroke="#3987CC" fill="none"/></g><g class="sja_skg" transform="translate(856.6902465820312, 84.25)"><g transform="translate(0, -7)" class="sja_aa_discg"><circle fill="#3987CC" stroke="white" r="6.5"/><text font-size="12" fill="#3987CC" x="8" y="3.5999999999999996" font-family="Arial" class="sja_aa_disclabel" fill-opacity="1" transform="scale(1) rotate(0)">p.Cys881Trp</text><circle r="6.5" stroke="#3987CC" class="sja_aa_disckick" fill="white" fill-opacity="0" stroke-opacity="0" transform="scale(1)"/><path d="M4.286263797015736e-16,-7L4.286263797015736e-16,-7Z" fill="#3987CC" class="sja_aa_discrim" fill-opacity="1" stroke-opacity="1"/></g><circle class="sja_aa_skkick" fill="white" fill-opacity="0" stroke="none" r="8" cy="-7" transform="scale(0)"/><path class="sja_aa_stem" d="M0,0v0l0,0v23.799999999999997" stroke="#3987CC" fill="none"/></g></g><g/><g transform="scale(0)"><rect fill="white" fill-opacity="0" width="1100" height="0"/><text data-testid="loading_message" fill="rgb(97, 124, 148)" fill-opacity="0" font-weight="bold" font-size="18px" text-anchor="middle" dominant-baseline="middle" x="550" y="15">Loading ...</text><line stroke="rgb(97, 124, 148)" stroke-width="2px" y1="30" y2="30" x2="0"/></g></g><g transform="translate(122.3984375,0)"><text font-size="14" font-family="Arial" y="7" text-anchor="end" dominant-baseline="central" fill="black" x="-10" font-weight="bold">GAMBL FL</text><g/><text font-size="14" font-family="Arial" y="26" text-anchor="end" dominant-baseline="central" class="sja_clbtext2" fill="black" x="-10">2 mutations</text></g><g transform="translate(1235.3984375,0)"/></g><g data-testid="sja_sample_menu_opener" transform="translate(0, 196.0500030517578)"><g transform="translate(1225.3984375, 0)"/><g transform="translate(125.3984375,0)"><rect fill="white" fill-opacity="0" width="1100" height="125.1984375"/><g transform="translate(0,0)" style="cursor: default;"><g class="sja_skg" transform="translate(579.177734375, 23.799999237060547)"><g transform="translate(0, 7)" class="sja_aa_discg"><circle fill="#3987CC" stroke="white" r="6.5"/><text font-size="12" fill="#3987CC" x="8" y="3.5999999999999996" font-family="Arial" class="sja_aa_disclabel" fill-opacity="1" transform="scale(1) rotate(0)">p.Thr596Met</text><circle r="6.5" stroke="#3987CC" class="sja_aa_disckick" fill="white" fill-opacity="0" stroke-opacity="0" transform="scale(1)"/><path d="M4.286263797015736e-16,-7L4.286263797015736e-16,-7Z" fill="#3987CC" class="sja_aa_discrim" fill-opacity="1" stroke-opacity="1"/></g><circle class="sja_aa_skkick" fill="white" fill-opacity="0" stroke="none" r="8" cy="7" transform="scale(0)"/><path class="sja_aa_stem" d="M0,0v0l0,0v-23.799999999999997" stroke="#3987CC" fill="none"/></g><g class="sja_skg" transform="translate(830.7545166015625, 23.799999237060547)"><g transform="translate(0, 7)" class="sja_aa_discg"><circle fill="#3987CC" stroke="white" r="6.5"/><text font-size="12" fill="#3987CC" x="8" y="3.5999999999999996" font-family="Arial" class="sja_aa_disclabel" fill-opacity="1" transform="scale(1) rotate(0)">p.Ala855Thr</text><circle r="6.5" stroke="#3987CC" class="sja_aa_disckick" fill="white" fill-opacity="0" stroke-opacity="0" transform="scale(1)"/><path d="M4.286263797015736e-16,-7L4.286263797015736e-16,-7Z" fill="#3987CC" class="sja_aa_discrim" fill-opacity="1" stroke-opacity="1"/></g><circle class="sja_aa_skkick" fill="white" fill-opacity="0" stroke="none" r="8" cy="7" transform="scale(0)"/><path class="sja_aa_stem" d="M0,0v0l0,0v-23.799999999999997" stroke="#3987CC" fill="none"/></g><g class="sja_skg" transform="translate(1006.14501953125, 23.799999237060547)"><g transform="translate(0, 7)" class="sja_aa_discg"><circle fill="#3987CC" stroke="white" r="6.5"/><text font-size="12" fill="#3987CC" x="8" y="3.5999999999999996" font-family="Arial" class="sja_aa_disclabel" fill-opacity="1" transform="scale(1) rotate(0)">p.Leu1035Pro</text><circle r="6.5" stroke="#3987CC" class="sja_aa_disckick" fill="white" fill-opacity="0" stroke-opacity="0" transform="scale(1)"/><path d="M4.286263797015736e-16,-7L4.286263797015736e-16,-7Z" fill="#3987CC" class="sja_aa_discrim" fill-opacity="1" stroke-opacity="1"/></g><circle class="sja_aa_skkick" fill="white" fill-opacity="0" stroke="none" r="8" cy="7" transform="scale(0)"/><path class="sja_aa_stem" d="M0,0v0l0,0v-23.799999999999997" stroke="#3987CC" fill="none"/></g></g><g/><g transform="scale(0)"><rect fill="white" fill-opacity="0" width="1100" height="0"/><text data-testid="loading_message" fill="rgb(97, 124, 148)" fill-opacity="0" font-weight="bold" font-size="18px" text-anchor="middle" dominant-baseline="middle" x="550" y="15">Loading ...</text><line stroke="rgb(97, 124, 148)" stroke-width="2px" y1="30" y2="30" x2="0"/></g></g><g transform="translate(122.3984375,0)"><text font-size="14" font-family="Arial" y="7" text-anchor="end" dominant-baseline="central" fill="black" x="-10" font-weight="bold">GAMBL BL</text><g/><text font-size="14" font-family="Arial" y="26" text-anchor="end" dominant-baseline="central" class="sja_clbtext2" fill="black" x="-10">3 mutations</text></g><g transform="translate(1235.3984375,0)"/></g><g data-testid="sja_sample_menu_opener" transform="translate(0, 149.0500030517578)"><g transform="translate(1225.3984375, 0)"/><g transform="translate(125.3984375,0)"><rect fill="white" fill-opacity="0" width="1100" height="47"/><g transform="translate(0,0)" style="cursor: default;"><g><line x1="0" y1="18.5" x2="1100" y2="18.5" stroke="black" shape-rendering="crispEdges"/><rect x="0" width="16.85823754789272" height="37" fill="white"/><rect x="16.85823754789272" width="47.65694076038904" height="37" fill="white"/><rect x="64.51517830828176" width="31.12290008841733" height="37" fill="white"/><rect x="95.63807839669909" width="20.424403183023873" height="37" fill="white"/><rect x="116.06248157972296" width="25.28735632183908" height="37" fill="white"/><rect x="141.34983790156204" width="14.588859416445624" height="37" fill="white"/><rect x="155.93869731800766" width="47.65694076038904" height="37" fill="white"/><rect x="203.5956380783967" width="46.684350132625994" height="37" fill="white"/><rect x="250.27998821102267" width="53.49248452696729" height="37" fill="white"/><rect x="303.77247273799" width="22.369584438549957" height="37" fill="white"/><rect x="326.14205717653994" width="535.2490421455939" height="37" fill="white"/><rect x="766.4014146772768" width="94.98968464485706" height="37" fill="#E8E89E"/><rect x="401.6799292661362" width="165.34040671971707" height="37" fill="#bebada"/><rect x="798.4969053934572" width="1.9451812555260832" height="37" fill="#fb8072"/><rect x="770.291777188329" width="1" height="37" fill="#8dd3c7"/><rect x="827.6746242263484" width="1" height="37" fill="#8dd3c7"/><rect x="858.7975243147657" width="1" height="37" fill="#8dd3c7"/><rect x="802.3872679045094" width="1" height="37" fill="#8dd3c7"/><rect x="773.2095490716181" width="1" height="37" fill="#8dd3c7"/><rect x="822.8116710875331" width="1" height="37" fill="#8dd3c7"/><rect x="775.1547303271441" width="1" height="37" fill="#8dd3c7"/><rect x="795.579133510168" width="1" height="37" fill="#8dd3c7"/><rect x="797.524314765694" width="1" height="37" fill="#8dd3c7"/><rect x="819.893899204244" width="1" height="37" fill="#8dd3c7"/><rect x="824.7568523430593" width="1" height="37" fill="#8dd3c7"/><rect x="768.3465959328029" width="1" height="37" fill="#8dd3c7"/><rect x="829.6198054818744" width="1" height="37" fill="#8dd3c7"/><rect x="789.7435897435898" width="1" height="37" fill="#8dd3c7"/><rect x="860.7427055702917" width="1" height="37" fill="#fb8072"/><rect x="853.9345711759506" width="1" height="37" fill="#8dd3c7"/><rect x="800.4420866489831" width="1" height="37" fill="#8dd3c7"/><rect x="856.8523430592397" width="1" height="37" fill="#8dd3c7"/><rect x="861.3910993221339" width="51.54730327144121" height="37" fill="white"/><rect x="861.3910993221339" width="51.54730327144121" height="37" fill="#E8E89E"/><rect x="863.6604774535809" width="1" height="37" fill="#8dd3c7"/><rect x="907.4270557029179" width="1" height="37" fill="#8dd3c7"/><rect x="876.3041556145005" width="1" height="37" fill="#8dd3c7"/><rect x="879.2219274977896" width="1" height="37" fill="#8dd3c7"/><rect x="912.2900088417331" width="1" height="37" fill="#8dd3c7"/><rect x="909.3722369584439" width="1" height="37" fill="#8dd3c7"/><rect x="904.5092838196288" width="1" height="37" fill="#8dd3c7"/><rect x="911.31741821397" width="1" height="37" fill="#fb8072"/><rect x="861.7152961980548" width="1" height="37" fill="#8dd3c7"/><rect x="884.0848806366048" width="1" height="37" fill="#8dd3c7"/><rect x="861.3910993221339" width="1" height="37" fill="#fb8072"/><rect x="886.0300618921309" width="1" height="37" fill="#8dd3c7"/><rect x="881.1671087533157" width="1" height="37" fill="#8dd3c7"/><rect x="912.9384025935751" width="23.342175066312997" height="37" fill="white"/><rect x="912.9384025935751" width="23.342175066312997" height="37" fill="#E8E89E"/><rect x="912.9384025935751" width="1" height="37" fill="#8dd3c7"/><rect x="934.659593280283" width="1" height="37" fill="#8dd3c7"/><rect x="929.7966401414678" width="1" height="37" fill="#8dd3c7"/><rect x="914.2351900972592" width="1" height="37" fill="#8dd3c7"/><rect x="932.7144120247569" width="1" height="37" fill="#8dd3c7"/><rect x="936.2805776598881" width="26.259946949602124" height="37" fill="white"/><rect x="936.2805776598881" width="26.259946949602124" height="37" fill="#E8E89E"/><rect x="958.001768346596" width="4.538756262894195" height="37" fill="#80b1d3"/><rect x="936.604774535809" width="1" height="37" fill="#fb8072"/><rect x="937.5773651635722" width="1" height="37" fill="#8dd3c7"/><rect x="958.001768346596" width="1" height="37" fill="#8dd3c7"/><rect x="960.9195402298851" width="1" height="37" fill="#8dd3c7"/><rect x="939.5225464190983" width="1" height="37" fill="#8dd3c7"/><rect x="962.5405246094901" width="30.15030946065429" height="37" fill="white"/><rect x="962.5405246094901" width="30.15030946065429" height="37" fill="#E8E89E"/><rect x="988.1520778072503" width="4.538756262894195" height="37" fill="#80b1d3"/><rect x="962.5405246094901" width="22.69378131447097" height="37" fill="#80b1d3"/><rect x="991.0698496905394" width="1" height="37" fill="#8dd3c7"/><rect x="962.8647214854111" width="1" height="37" fill="#8dd3c7"/><rect x="970.6454465075155" width="1" height="37" fill="#8dd3c7"/><rect x="968.7002652519894" width="1" height="37" fill="#8dd3c7"/><rect x="988.1520778072503" width="1" height="37" fill="#8dd3c7"/><rect x="992.6908340701444" width="28.205128205128208" height="37" fill="white"/><rect x="992.6908340701444" width="28.205128205128208" height="37" fill="#E8E89E"/><rect x="992.6908340701444" width="28.205128205128208" height="37" fill="#80b1d3"/><rect x="994.9602122015915" width="1" height="37" fill="#fb8072"/><rect x="1019.2749778956676" width="1" height="37" fill="#8dd3c7"/><rect x="995.9328028293546" width="1" height="37" fill="#8dd3c7"/><rect x="1020.2475685234306" width="1" height="37" fill="#fb8072"/><rect x="993.0150309460654" width="1" height="37" fill="#8dd3c7"/><rect x="997.8779840848806" width="1" height="37" fill="#8dd3c7"/><rect x="1016.3572060123785" width="1" height="37" fill="#8dd3c7"/><rect x="1020.8959622752726" width="27.232537577365164" height="37" fill="white"/><rect x="1020.8959622752726" width="27.232537577365164" height="37" fill="#E8E89E"/><rect x="1020.8959622752726" width="5.187150014736222" height="37" fill="#80b1d3"/><rect x="1040.6719717064545" width="7.456528146183319" height="37" fill="#80b1d3"/><rect x="1024.1379310344828" width="1" height="37" fill="#8dd3c7"/><rect x="1026.0831122900088" width="1" height="37" fill="#8dd3c7"/><rect x="1020.8959622752726" width="1" height="37" fill="#fb8072"/><rect x="1047.4801061007956" width="1" height="37" fill="#fb8072"/><rect x="1046.5075154730328" width="1" height="37" fill="#8dd3c7"/><rect x="1021.2201591511936" width="1" height="37" fill="#8dd3c7"/><rect x="1043.5897435897436" width="1" height="37" fill="#8dd3c7"/><rect x="1022.1927497789567" width="1" height="37" fill="#fb8072"/><rect x="1048.1284998526378" width="27.232537577365164" height="37" fill="white"/><rect x="1048.1284998526378" width="27.232537577365164" height="37" fill="#E8E89E"/><rect x="1048.1284998526378" width="22.69378131447097" height="37" fill="#80b1d3"/><rect x="1072.767462422635" width="1" height="37" fill="#8dd3c7"/><rect x="1051.3704686118479" width="1" height="37" fill="#8dd3c7"/><rect x="1048.4526967285587" width="1" height="37" fill="#8dd3c7"/><rect x="1048.1284998526378" width="1" height="37" fill="#fb8072"/><rect x="1053.315649867374" width="1" height="37" fill="#8dd3c7"/><rect x="1075.3610374300029" width="24.638962569997055" height="37" fill="white"/><rect x="1075.3610374300029" width="8.104921898025347" height="37" fill="#E8E89E"/><rect x="1082.4933687002651" width="1" height="37" fill="#8dd3c7"/><rect x="1077.63041556145" width="1" height="37" fill="#8dd3c7"/><rect x="1080.5481874447391" width="1" height="37" fill="#8dd3c7"/><rect x="1076.657824933687" width="1" height="37" fill="#fb8072"/><rect x="1075.6852343059238" width="1" height="37" fill="#8dd3c7"/><line x1="0" x2="1100" stroke="black"/><line x1="0" x2="1100" y1="37" y2="37" stroke="black"/><line x1="0" x2="0" y2="37" stroke="black"/><line x1="1100" x2="1100" y2="37" stroke="black"/><line class="exonboundaryclass" x1="16.85823754789272" x2="16.85823754789272" y1="0" y2="37" stroke="black" stroke-dasharray="4,2" shape-rendering="crispEdges" stroke-opacity="1"/><line class="exonboundaryclass" x1="64.51517830828176" x2="64.51517830828176" y1="0" y2="37" stroke="black" stroke-dasharray="4,2" shape-rendering="crispEdges" stroke-opacity="1"/><line class="exonboundaryclass" x1="95.63807839669909" x2="95.63807839669909" y1="0" y2="37" stroke="black" stroke-dasharray="4,2" shape-rendering="crispEdges" stroke-opacity="1"/><line class="exonboundaryclass" x1="116.06248157972296" x2="116.06248157972296" y1="0" y2="37" stroke="black" stroke-dasharray="4,2" shape-rendering="crispEdges" stroke-opacity="1"/><line class="exonboundaryclass" x1="141.34983790156204" x2="141.34983790156204" y1="0" y2="37" stroke="black" stroke-dasharray="4,2" shape-rendering="crispEdges" stroke-opacity="1"/><line class="exonboundaryclass" x1="155.93869731800766" x2="155.93869731800766" y1="0" y2="37" stroke="black" stroke-dasharray="4,2" shape-rendering="crispEdges" stroke-opacity="1"/><line class="exonboundaryclass" x1="203.5956380783967" x2="203.5956380783967" y1="0" y2="37" stroke="black" stroke-dasharray="4,2" shape-rendering="crispEdges" stroke-opacity="1"/><line class="exonboundaryclass" x1="250.27998821102267" x2="250.27998821102267" y1="0" y2="37" stroke="black" stroke-dasharray="4,2" shape-rendering="crispEdges" stroke-opacity="1"/><line class="exonboundaryclass" x1="303.77247273799" x2="303.77247273799" y1="0" y2="37" stroke="black" stroke-dasharray="4,2" shape-rendering="crispEdges" stroke-opacity="1"/><line class="exonboundaryclass" x1="326.14205717653994" x2="326.14205717653994" y1="0" y2="37" stroke="black" stroke-dasharray="4,2" shape-rendering="crispEdges" stroke-opacity="1"/><line class="exonboundaryclass" x1="861.3910993221339" x2="861.3910993221339" y1="0" y2="37" stroke="black" stroke-dasharray="4,2" shape-rendering="crispEdges" stroke-opacity="1"/><line class="exonboundaryclass" x1="912.9384025935751" x2="912.9384025935751" y1="0" y2="37" stroke="black" stroke-dasharray="4,2" shape-rendering="crispEdges" stroke-opacity="1"/><line class="exonboundaryclass" x1="936.2805776598881" x2="936.2805776598881" y1="0" y2="37" stroke="black" stroke-dasharray="4,2" shape-rendering="crispEdges" stroke-opacity="1"/><line class="exonboundaryclass" x1="962.5405246094901" x2="962.5405246094901" y1="0" y2="37" stroke="black" stroke-dasharray="4,2" shape-rendering="crispEdges" stroke-opacity="1"/><line class="exonboundaryclass" x1="992.6908340701444" x2="992.6908340701444" y1="0" y2="37" stroke="black" stroke-dasharray="4,2" shape-rendering="crispEdges" stroke-opacity="1"/><line class="exonboundaryclass" x1="1020.8959622752726" x2="1020.8959622752726" y1="0" y2="37" stroke="black" stroke-dasharray="4,2" shape-rendering="crispEdges" stroke-opacity="1"/><line class="exonboundaryclass" x1="1048.1284998526378" x2="1048.1284998526378" y1="0" y2="37" stroke="black" stroke-dasharray="4,2" shape-rendering="crispEdges" stroke-opacity="1"/><line class="exonboundaryclass" x1="1075.3610374300029" x2="1075.3610374300029" y1="0" y2="37" stroke="black" stroke-dasharray="4,2" shape-rendering="crispEdges" stroke-opacity="1"/><g transform="translate(0,18.5)" fill="none" font-size="10" font-family="sans-serif" text-anchor="middle"><path class="domain" stroke="none" d="M0.4862953138815208,0H1100" fill="none" stroke-width="0" shape-rendering="crispEdges"/><g class="tick" opacity="1" transform="translate(96.76504848918643,0)"><line stroke="black" y2="0" shape-rendering="crispEdges"/><text fill="black" y="3" dy="0.71em" font-family="Arial" font-size="11.666666666666666px" style="cursor: default;">100</text></g><g class="tick" opacity="1" transform="translate(193.9028131146358,0)"><line stroke="black" y2="0" shape-rendering="crispEdges"/><text fill="black" y="3" dy="0.71em" font-family="Arial" font-size="11.666666666666666px" style="cursor: default;">200</text></g><g class="tick" opacity="1" transform="translate(291.16710875331563,0)"><line stroke="black" y2="0" shape-rendering="crispEdges"/><text fill="black" y="3" dy="0.71em" font-family="Arial" font-size="11.666666666666666px" style="cursor: default;">300</text></g><g class="tick" opacity="1" transform="translate(388.56881815502504,0)"><line stroke="black" y2="0" shape-rendering="crispEdges"/><text fill="black" y="3" dy="0.71em" font-family="Arial" font-size="11.666666666666666px" style="cursor: default;">400</text></g><g class="tick" opacity="1" transform="translate(485.8573533745947,0)"><line stroke="black" y2="0" shape-rendering="crispEdges"/><text fill="black" y="3" dy="0.71em" font-family="Arial" font-size="11.666666666666666px" style="cursor: default;">500</text></g><g class="tick" opacity="1" transform="translate(583.1458885941645,0)"><line stroke="black" y2="0" shape-rendering="crispEdges"/><text fill="black" y="3" dy="0.71em" font-family="Arial" font-size="11.666666666666666px" style="cursor: default;">600</text></g><g class="tick" opacity="1" transform="translate(680.4344238137342,0)"><line stroke="black" y2="0" shape-rendering="crispEdges"/><text fill="black" y="3" dy="0.71em" font-family="Arial" font-size="11.666666666666666px" style="cursor: default;">700</text></g><g class="tick" opacity="1" transform="translate(777.7229590333039,0)"><line stroke="black" y2="0" shape-rendering="crispEdges"/><text fill="black" y="3" dy="0.71em" font-family="Arial" font-size="11.666666666666666px" style="cursor: default;">800</text></g><g class="tick" opacity="1" transform="translate(874.8880881281664,0)"><line stroke="black" y2="0" shape-rendering="crispEdges"/><text fill="black" y="3" dy="0.71em" font-family="Arial" font-size="11.666666666666666px" style="cursor: default;">900</text></g><g class="tick" opacity="1" transform="translate(972.1566222678571,0)"><line stroke="black" y2="0" shape-rendering="crispEdges"/><text fill="black" y="3" dy="0.71em" font-family="Arial" font-size="11.666666666666666px" style="cursor: default;">1000</text></g><g class="tick" opacity="1" transform="translate(1069.4907582838616,0)"><line stroke="black" y2="0" shape-rendering="crispEdges"/><text fill="black" y="3" dy="0.71em" font-family="Arial" font-size="11.666666666666666px" style="cursor: default;">1100</text></g></g><rect x="0" width="16.85823754789272" height="37" fill="#858585" fill-opacity="0"/><rect x="16.85823754789272" width="47.65694076038904" height="37" fill="#858585" fill-opacity="0"/><rect x="64.51517830828176" width="31.12290008841733" height="37" fill="#858585" fill-opacity="0"/><rect x="95.63807839669909" width="20.424403183023873" height="37" fill="#858585" fill-opacity="0"/><rect x="116.06248157972296" width="25.28735632183908" height="37" fill="#858585" fill-opacity="0"/><rect x="141.34983790156204" width="14.588859416445624" height="37" fill="#858585" fill-opacity="0"/><rect x="155.93869731800766" width="47.65694076038904" height="37" fill="#858585" fill-opacity="0"/><rect x="203.5956380783967" width="46.684350132625994" height="37" fill="#858585" fill-opacity="0"/><rect x="250.27998821102267" width="53.49248452696729" height="37" fill="#858585" fill-opacity="0"/><rect x="303.77247273799" width="22.369584438549957" height="37" fill="#858585" fill-opacity="0"/><rect x="326.14205717653994" width="535.2490421455939" height="37" fill="#858585" fill-opacity="0"/><rect x="861.3910993221339" width="51.54730327144121" height="37" fill="#858585" fill-opacity="0"/><rect x="912.9384025935751" width="23.342175066312997" height="37" fill="#858585" fill-opacity="0"/><rect x="936.2805776598881" width="26.259946949602124" height="37" fill="#858585" fill-opacity="0"/><rect x="962.5405246094901" width="30.15030946065429" height="37" fill="#858585" fill-opacity="0"/><rect x="992.6908340701444" width="28.205128205128208" height="37" fill="#858585" fill-opacity="0"/><rect x="1020.8959622752726" width="27.232537577365164" height="37" fill="#858585" fill-opacity="0"/><rect x="1048.1284998526378" width="27.232537577365164" height="37" fill="#858585" fill-opacity="0"/><rect x="1075.3610374300029" width="24.638962569997055" height="37" fill="#858585" fill-opacity="0"/></g></g><g/><g transform="scale(0)"><rect fill="white" fill-opacity="0"/><text data-testid="loading_message" fill="rgb(97, 124, 148)" fill-opacity="0" font-weight="bold" font-size="18px" text-anchor="middle" dominant-baseline="middle">Loading ...</text><line stroke="rgb(97, 124, 148)" stroke-width="2px"/></g></g><g transform="translate(122.3984375,0)"><text font-size="14" font-family="Arial" y="7" text-anchor="end" dominant-baseline="central" fill="black" x="-10" font-weight="bold">CIITA</text><text font-size="14" font-family="Arial" y="20" text-anchor="end" dominant-baseline="central" fill="black" x="-10">NM_000246</text></g><g transform="translate(1235.3984375,0)"><text fill="#aaa" font-family="Arial" font-size="14" y="14" class="sja_clbtext2"/></g></g></g><g transform="scale(0)"><rect fill="white"/><text id="loadinggCloak" fill="rgb(97, 124, 148)" fill-opacity="0" font-weight="bold" font-size="18px" text-anchor="middle" dominant-baseline="middle">Loading ...</text></g><g/><g transform="translate(124.3984375,494.11354166666666)"><g transform="translate(0,0)"><rect width="15" height="20" stroke="rgb(133, 130, 153)" fill="#bebada" shape-rendering="crispEdges"/><text x="20" y="10" dominant-baseline="central" font-size="16" font-family="Arial" fill="black">NACHT</text><text x="85.109375" y="10" dominant-baseline="central" font-size="12" font-family="Arial" fill="#858585">NACHT domain</text></g><g transform="translate(0,23)"><rect width="15" height="20" stroke="rgb(162, 162, 111)" fill="#E8E89E" shape-rendering="crispEdges"/><text x="20" y="10" dominant-baseline="central" font-size="16" font-family="Arial" fill="black">LRR_RI</text><text x="86.90625" y="10" dominant-baseline="central" font-size="12" font-family="Arial" fill="#858585">Leucine-rich repeats (LRRs), ribonuclease inhibitor (RI)-like subfamil ...</text></g><g transform="translate(0,46)"><rect width="15" height="20" stroke="rgb(99, 148, 139)" fill="#8dd3c7" shape-rendering="crispEdges"/><text x="20" y="10" dominant-baseline="central" font-size="16" font-family="Arial" fill="black">other</text><text x="66.6875" y="10" dominant-baseline="central" font-size="12" font-family="Arial" fill="#858585">Leucine-rich repeats</text></g><g transform="translate(0,69)"><rect width="15" height="20" stroke="rgb(176, 90, 80)" fill="#fb8072" shape-rendering="crispEdges"/><text x="20" y="10" dominant-baseline="central" font-size="16" font-family="Arial" fill="black">other</text><text x="66.6875" y="10" dominant-baseline="central" font-size="12" font-family="Arial" fill="#858585">Substrate binding site [chemical binding]</text></g><g transform="translate(0,92)"><rect width="15" height="20" stroke="rgb(90, 124, 148)" fill="#80b1d3" shape-rendering="crispEdges"/><text x="20" y="10" dominant-baseline="central" font-size="16" font-family="Arial" fill="black">leucine-rich repeat</text><text x="161.625" y="10" dominant-baseline="central" font-size="12" font-family="Arial" fill="#858585">leucine-rich repeat [structural motif]</text></g></g><g transform="translate(1027.3984375,494.11354166666666)"><g transform="translate(0,0)"><circle cx="10" cy="10" r="10" fill="#3987CC"/><text x="30" y="10" dominant-baseline="central" font-size="16" font-family="Arial" fill="#3987CC">MISSENSE, n=11</text></g><g transform="translate(0,23)"><circle cx="10" cy="10" r="10" fill="#6633FF"/><text x="30" y="10" dominant-baseline="central" font-size="16" font-family="Arial" fill="#6633FF">SPLICE, n=1</text></g></g></svg>