<svg xmlns="http://www.w3.org/2000/svg" data-testid="sjpp_block_svg" width="1495.3984375" height="678.5302083333333"><g transform="translate(0,0)"><g transform="translate(125.3984375, 0)"/><rect fill="#FFFF99" x="976" width="2" height="500.53020833333335"/><g transform="translate(125.3984375, 23)"><g transform="translate(0,0)"><text text-anchor="end" x="-13" y="-10" dominant-baseline="central" font-size="13" font-family="Arial">Protein length</text><g><g transform="translate(0,0)" fill="none" font-size="10" font-family="sans-serif" text-anchor="middle"><path class="domain" stroke="black" d="M0,-6V0H1260V-6" fill="none" stroke-width="1" shape-rendering="crispEdges"/><g class="tick" opacity="1" transform="translate(171.34615384615384,0)"><line stroke="black" y2="-6" shape-rendering="crispEdges"/><text fill="black" y="-9" dy="0em" font-family="Arial" font-size="12px" style="cursor: default;">100</text></g><g class="tick" opacity="1" transform="translate(344.4230769230769,0)"><line stroke="black" y2="-6" shape-rendering="crispEdges"/><text fill="black" y="-9" dy="0em" font-family="Arial" font-size="12px" style="cursor: default;">200</text></g><g class="tick" opacity="1" transform="translate(517.5,0)"><line stroke="black" y2="-6" shape-rendering="crispEdges"/><text fill="black" y="-9" dy="0em" font-family="Arial" font-size="12px" style="cursor: default;">300</text></g><g class="tick" opacity="1" transform="translate(690.5769230769231,0)"><line stroke="black" y2="-6" shape-rendering="crispEdges"/><text fill="black" y="-9" dy="0em" font-family="Arial" font-size="12px" style="cursor: default;">400</text></g><g class="tick" opacity="1" transform="translate(863.6538461538462,0)"><line stroke="black" y2="-6" shape-rendering="crispEdges"/><text fill="black" y="-9" dy="0em" font-family="Arial" font-size="12px" style="cursor: default;">500</text></g><g class="tick" opacity="1" transform="translate(1036.7307692307693,0)"><line stroke="black" y2="-6" shape-rendering="crispEdges"/><text fill="black" y="-9" dy="0em" font-family="Arial" font-size="12px" style="cursor: default;">600</text></g><g class="tick" opacity="1" transform="translate(1209.8076923076924,0)"><line stroke="black" y2="-6" shape-rendering="crispEdges"/><text fill="black" y="-9" dy="0em" font-family="Arial" font-size="12px" style="cursor: default;">700</text></g></g></g><rect fill="white" fill-opacity="0" x="0" y="-23" width="1260" height="26"/></g><g transform="translate(1260, 0)"/></g><g data-testid="sja_sample_menu_opener" transform="translate(0, 333.0140686035156)"><g transform="translate(1385.3984375, 0)"/><g transform="translate(125.3984375, 0)"><rect fill="white" fill-opacity="0" width="1260" height="172.51614583333333"/><g transform="translate(0,0)" style="cursor: default;"><g class="sja_skg" transform="translate(445.6730651855469, 61.13333511352539)"><g transform="translate(0, 7)" class="sja_aa_discg"><circle fill="#3987CC" stroke="white" r="6.5"/><text font-size="12" fill="#3987CC" x="8" y="3.5999999999999996" font-family="Arial" class="sja_aa_disclabel" fill-opacity="1" transform="scale(1) rotate(0)">p.Lys258Arg</text><circle r="6.5" stroke="#3987CC" class="sja_aa_disckick" fill="white" fill-opacity="0" stroke-opacity="0" transform="scale(1)"/><path d="M4.286263797015736e-16,-7L4.286263797015736e-16,-7Z" fill="#3987CC" class="sja_aa_discrim" fill-opacity="1" stroke-opacity="1"/></g><circle class="sja_aa_skkick" fill="white" fill-opacity="0" stroke="none" r="8" cy="7" transform="scale(0)"/><path class="sja_aa_stem" d="M0,0v-14l0,-23.333333333333336v-23.799999999999997" stroke="#3987CC" fill="none"/></g><g class="sja_skg" transform="translate(786.6346435546875, 61.13333511352539)"><g transform="translate(0, 7)" class="sja_aa_discg"><circle fill="#3987CC" stroke="white" r="6.5"/><text font-size="12" fill="#3987CC" x="8" y="3.5999999999999996" font-family="Arial" class="sja_aa_disclabel" fill-opacity="1" transform="rotate(90)">p.His455Arg</text><circle r="6.5" stroke="#3987CC" class="sja_aa_disckick" fill="white" fill-opacity="0" stroke-opacity="0" transform="scale(1)"/><path d="M4.286263797015736e-16,-7L4.286263797015736e-16,-7Z" fill="#3987CC" class="sja_aa_discrim" fill-opacity="1" stroke-opacity="1"/></g><circle class="sja_aa_skkick" fill="white" fill-opacity="0" stroke="none" r="8" cy="7" transform="scale(0)"/><path class="sja_aa_stem" d="M0,0v-14l0,-23.333333333333336v-23.799999999999997" stroke="#3987CC" fill="none"/></g><g class="sja_skg" transform="translate(804.5192260742188, 61.13333511352539)"><g transform="translate(0, 7)" class="sja_aa_discg"><circle fill="#2ca02c" stroke="white" r="6.5"/><text font-size="12" fill="#2ca02c" x="8" y="3.5999999999999996" font-family="Arial" class="sja_aa_disclabel" fill-opacity="1" transform="rotate(90)">c.1395A&gt;G(p.=)</text><circle r="6.5" stroke="#2ca02c" class="sja_aa_disckick" fill="white" fill-opacity="0" stroke-opacity="0" transform="scale(1)"/><path d="M4.286263797015736e-16,-7L4.286263797015736e-16,-7Z" fill="#2ca02c" class="sja_aa_discrim" fill-opacity="1" stroke-opacity="1"/></g><circle class="sja_aa_skkick" fill="white" fill-opacity="0" stroke="none" r="8" cy="7" transform="scale(0)"/><path class="sja_aa_stem" d="M0,0v-14l0,-23.333333333333336v-23.799999999999997" stroke="#2ca02c" fill="none"/></g><g class="sja_skg" transform="translate(869.1346435546875, 61.13333511352539)"><g transform="translate(0, 7)" class="sja_aa_discg"><circle fill="#3987CC" stroke="white" r="6.5"/><text font-size="12" fill="#3987CC" x="8" y="3.5999999999999996" font-family="Arial" class="sja_aa_disclabel" fill-opacity="1" transform="scale(1) rotate(0)">p.Ala503Thr</text><circle r="6.5" stroke="#3987CC" class="sja_aa_disckick" fill="white" fill-opacity="0" stroke-opacity="0" transform="scale(1)"/><path d="M4.286263797015736e-16,-7L4.286263797015736e-16,-7Z" fill="#3987CC" class="sja_aa_discrim" fill-opacity="1" stroke-opacity="1"/></g><circle class="sja_aa_skkick" fill="white" fill-opacity="0" stroke="none" r="8" cy="7" transform="scale(0)"/><path class="sja_aa_stem" d="M0,0v-14l0,-23.333333333333336v-23.799999999999997" stroke="#3987CC" fill="none"/></g></g><g/><g transform="scale(0)"><rect fill="white" fill-opacity="0" width="1260" height="0"/><text data-testid="loading_message" fill="rgb(97, 124, 148)" fill-opacity="0" font-weight="bold" font-size="18px" text-anchor="middle" dominant-baseline="middle" x="630" y="15">Loading ...</text><line stroke="rgb(97, 124, 148)" stroke-width="2px" y1="30" y2="30" x2="0"/></g></g><g transform="translate(122.3984375, 0)"><text font-size="14" font-family="Arial" y="7" text-anchor="end" dominant-baseline="central" fill="black" x="-10" font-weight="bold">GAMBL DLBCL</text><g/><text font-size="14" font-family="Arial" y="26" text-anchor="end" dominant-baseline="central" class="sja_clbtext2" fill="black" x="-10">4 of 7 mutations</text></g><g transform="translate(1395.3984375, 0)"/></g><g data-testid="sja_sample_menu_opener" transform="translate(0, 189.8390655517578)"><g transform="translate(1385.3984375, 0)"/><g transform="translate(125.3984375,0)"><rect fill="white" fill-opacity="0" width="1260" height="24"/><g transform="translate(0,0)" style="cursor: default;"/><g/><g transform="scale(0)"><rect fill="white" fill-opacity="0" width="1260" height="0"/><text data-testid="loading_message" fill="rgb(97, 124, 148)" fill-opacity="0" font-weight="bold" font-size="18px" text-anchor="middle" dominant-baseline="middle" x="630" y="15">Loading ...</text><line stroke="rgb(97, 124, 148)" stroke-width="2px" y1="30" y2="30" x2="0"/></g></g><g transform="translate(122.3984375,0)"><text font-size="14" font-family="Arial" y="7" text-anchor="end" dominant-baseline="central" fill="black" x="-10" font-weight="bold">GAMBL FL</text><g/><text font-size="14" font-family="Arial" y="26" text-anchor="end" dominant-baseline="central" class="sja_clbtext2" fill="black" x="-10"/></g><g transform="translate(1395.3984375,0)"/></g><g data-testid="sja_sample_menu_opener" transform="translate(0, 213.8390655517578)"><g transform="translate(1385.3984375, 0)"/><g transform="translate(125.3984375,0)"><rect fill="white" fill-opacity="0" width="1260" height="119.175"/><g transform="translate(0,0)" style="cursor: default;"><g class="sja_skg" transform="translate(109.90384674072266, 23.799999237060547)"><g transform="translate(0, 7)" class="sja_aa_discg"><circle fill="#3987CC" stroke="white" r="6.5"/><text font-size="12" fill="#3987CC" x="8" y="3.5999999999999996" font-family="Arial" class="sja_aa_disclabel" fill-opacity="1" transform="scale(1) rotate(0)">p.Glu64Gly</text><circle r="6.5" stroke="#3987CC" class="sja_aa_disckick" fill="white" fill-opacity="0" stroke-opacity="0" transform="scale(1)"/><path d="M4.286263797015736e-16,-7L4.286263797015736e-16,-7Z" fill="#3987CC" class="sja_aa_discrim" fill-opacity="1" stroke-opacity="1"/></g><circle class="sja_aa_skkick" fill="white" fill-opacity="0" stroke="none" r="8" cy="7" transform="scale(0)"/><path class="sja_aa_stem" d="M0,0v0l0,0v-23.799999999999997" stroke="#3987CC" fill="none"/></g><g class="sja_skg" transform="translate(635.4807739257812, 23.799999237060547)"><g transform="translate(0, 7)" class="sja_aa_discg"><circle fill="#3987CC" stroke="white" r="6.5"/><text font-size="12" fill="#3987CC" x="8" y="3.5999999999999996" font-family="Arial" class="sja_aa_disclabel" fill-opacity="1" transform="scale(1) rotate(0)">p.Arg368Cys</text><circle r="6.5" stroke="#3987CC" class="sja_aa_disckick" fill="white" fill-opacity="0" stroke-opacity="0" transform="scale(1)"/><path d="M4.286263797015736e-16,-7L4.286263797015736e-16,-7Z" fill="#3987CC" class="sja_aa_discrim" fill-opacity="1" stroke-opacity="1"/></g><circle class="sja_aa_skkick" fill="white" fill-opacity="0" stroke="none" r="8" cy="7" transform="scale(0)"/><path class="sja_aa_stem" d="M0,0v0l0,0v-23.799999999999997" stroke="#3987CC" fill="none"/></g><g class="sja_skg" transform="translate(779.7115478515625, 23.799999237060547)"><g transform="translate(0, 7)" class="sja_aa_discg"><circle fill="#3987CC" stroke="white" r="6.5"/><text font-size="12" fill="#3987CC" x="8" y="3.5999999999999996" font-family="Arial" class="sja_aa_disclabel" fill-opacity="1" transform="scale(1) rotate(0)">p.Asp451Gly</text><circle r="6.5" stroke="#3987CC" class="sja_aa_disckick" fill="white" fill-opacity="0" stroke-opacity="0" transform="scale(1)"/><path d="M4.286263797015736e-16,-7L4.286263797015736e-16,-7Z" fill="#3987CC" class="sja_aa_discrim" fill-opacity="1" stroke-opacity="1"/></g><circle class="sja_aa_skkick" fill="white" fill-opacity="0" stroke="none" r="8" cy="7" transform="scale(0)"/><path class="sja_aa_stem" d="M0,0v0l0,0v-23.799999999999997" stroke="#3987CC" fill="none"/></g><g class="sja_skg" transform="translate(982.7884521484375, 23.799999237060547)"><g transform="translate(0, 7)" class="sja_aa_discg"><circle fill="#3987CC" stroke="white" r="6.5"/><text font-size="12" fill="#3987CC" x="8" y="3.5999999999999996" font-family="Arial" class="sja_aa_disclabel" fill-opacity="1" transform="scale(1) rotate(0)">p.Asn568Lys</text><circle r="6.5" stroke="#3987CC" class="sja_aa_disckick" fill="white" fill-opacity="0" stroke-opacity="0" transform="scale(1)"/><path d="M4.286263797015736e-16,-7L4.286263797015736e-16,-7Z" fill="#3987CC" class="sja_aa_discrim" fill-opacity="1" stroke-opacity="1"/></g><circle class="sja_aa_skkick" fill="white" fill-opacity="0" stroke="none" r="8" cy="7" transform="scale(0)"/><path class="sja_aa_stem" d="M0,0v0l0,0v-23.799999999999997" stroke="#3987CC" fill="none"/></g></g><g/><g transform="scale(0)"><rect fill="white" fill-opacity="0" width="1260" height="0"/><text data-testid="loading_message" fill="rgb(97, 124, 148)" fill-opacity="0" font-weight="bold" font-size="18px" text-anchor="middle" dominant-baseline="middle" x="630" y="15">Loading ...</text><line stroke="rgb(97, 124, 148)" stroke-width="2px" y1="30" y2="30" x2="0"/></g></g><g transform="translate(122.3984375,0)"><text font-size="14" font-family="Arial" y="7" text-anchor="end" dominant-baseline="central" fill="black" x="-10" font-weight="bold">GAMBL BL</text><g/><text font-size="14" font-family="Arial" y="26" text-anchor="end" dominant-baseline="central" class="sja_clbtext2" fill="black" x="-10">4 of 5 mutations</text></g><g transform="translate(1395.3984375,0)"/></g><g data-testid="sja_sample_menu_opener" transform="translate(0, 31)"><g transform="translate(1385.3984375, 0)"/><g transform="translate(125.3984375,0)"><rect fill="white" fill-opacity="0" width="1260" height="111.8390625"/><g transform="translate(0,0)" style="cursor: default;"><g class="sja_skg" transform="translate(54.519229888916016, 78.0390625)"><g transform="translate(0, -7)" class="sja_aa_discg"><circle fill="#3987CC" stroke="white" r="6.5"/><text font-size="12" fill="#3987CC" x="8" y="3.5999999999999996" font-family="Arial" class="sja_aa_disclabel" fill-opacity="1" transform="scale(1) rotate(0)">p.Gly32Asp</text><circle r="6.5" stroke="#3987CC" class="sja_aa_disckick" fill="white" fill-opacity="0" stroke-opacity="0" transform="scale(1)"/><path d="M4.286263797015736e-16,-7L4.286263797015736e-16,-7Z" fill="#3987CC" class="sja_aa_discrim" fill-opacity="1" stroke-opacity="1"/></g><circle class="sja_aa_skkick" fill="white" fill-opacity="0" stroke="none" r="8" cy="-7" transform="scale(0)"/><path class="sja_aa_stem" d="M0,0v0l0,0v23.799999999999997" stroke="#3987CC" fill="none"/></g></g><g/><g transform="scale(0)"><rect fill="white" fill-opacity="0" width="1260" height="0"/><text data-testid="loading_message" fill="rgb(97, 124, 148)" fill-opacity="0" font-weight="bold" font-size="18px" text-anchor="middle" dominant-baseline="middle" x="630" y="15">Loading ...</text><line stroke="rgb(97, 124, 148)" stroke-width="2px" y1="30" y2="30" x2="0"/></g></g><g transform="translate(122.3984375,0)"><text font-size="14" font-family="Arial" y="7" text-anchor="end" dominant-baseline="central" fill="black" x="-10" font-weight="bold">GAMBL MCL</text><g/><text font-size="14" font-family="Arial" y="26" text-anchor="end" dominant-baseline="central" class="sja_clbtext2" fill="black" x="-10">1 of 3 mutations</text></g><g transform="translate(1395.3984375,0)"/></g><g data-testid="sja_sample_menu_opener" transform="translate(0, 142.8390655517578)"><g transform="translate(1385.3984375, 0)"/><g transform="translate(125.3984375,0)"><rect fill="white" fill-opacity="0" width="1260" height="47"/><g transform="translate(0,0)" style="cursor: default;"><g><line x1="0" y1="18.5" x2="1259.9999999999998" y2="18.5" stroke="black" shape-rendering="crispEdges"/><rect x="0" width="450.57692307692304" height="37" fill="white"/><rect x="450.57692307692304" width="98.65384615384615" height="37" fill="white"/><rect x="482.88461538461536" width="44.99999999999999" height="37" fill="#E8E89E"/><rect x="533.076923076923" width="16.153846153846153" height="37" fill="#E8E89E"/><rect x="458.65384615384613" width="41.53846153846153" height="37" fill="#a6d854"/><rect x="462.1153846153846" width="36.34615384615384" height="37" fill="#8dd3c7"/><rect x="510.57692307692304" width="36.34615384615384" height="37" fill="#8dd3c7"/><rect x="488.07692307692304" width="3.4615384615384612" height="37" fill="#bebada"/><rect x="536.5384615384614" width="3.4615384615384612" height="37" fill="#bebada"/><rect x="481.15384615384613" width="3.4615384615384612" height="37" fill="#bebada"/><rect x="529.6153846153845" width="3.4615384615384612" height="37" fill="#bebada"/><rect x="489.80769230769226" width="1.7307692307692306" height="37" fill="#fb8072"/><rect x="543.4615384615385" width="1.7307692307692306" height="37" fill="#bebada"/><rect x="462.1153846153846" width="1.7307692307692306" height="37" fill="#fb8072"/><rect x="470.7692307692307" width="1.7307692307692306" height="37" fill="#bebada"/><rect x="545.1923076923076" width="1.7307692307692306" height="37" fill="#fb8072"/><rect x="522.6923076923076" width="1.7307692307692306" height="37" fill="#bebada"/><rect x="510.57692307692304" width="1.7307692307692306" height="37" fill="#fb8072"/><rect x="515.7692307692307" width="1.7307692307692306" height="37" fill="#fb8072"/><rect x="519.2307692307692" width="1.7307692307692306" height="37" fill="#bebada"/><rect x="467.30769230769226" width="1.7307692307692306" height="37" fill="#fb8072"/><rect x="494.99999999999994" width="1.7307692307692306" height="37" fill="#bebada"/><rect x="474.23076923076917" width="1.7307692307692306" height="37" fill="#bebada"/><rect x="538.2692307692307" width="1.7307692307692306" height="37" fill="#fb8072"/><rect x="477.6923076923076" width="1.7307692307692306" height="37" fill="#bebada"/><rect x="496.73076923076917" width="1.7307692307692306" height="37" fill="#fb8072"/><rect x="549.2307692307692" width="77.3076923076923" height="37" fill="white"/><rect x="549.2307692307692" width="27.115384615384613" height="37" fill="#E8E89E"/><rect x="605.7692307692307" width="20.769230769230766" height="37" fill="#a6d854"/><rect x="559.0384615384614" width="41.53846153846153" height="37" fill="#8dd3c7"/><rect x="609.2307692307692" width="17.307692307692307" height="37" fill="#8dd3c7"/><rect x="584.9999999999999" width="3.4615384615384612" height="37" fill="#bebada"/><rect x="578.076923076923" width="3.4615384615384612" height="37" fill="#bebada"/><rect x="597.1153846153845" width="1.7307692307692306" height="37" fill="#bebada"/><rect x="567.6923076923076" width="1.7307692307692306" height="37" fill="#bebada"/><rect x="598.8461538461538" width="1.7307692307692306" height="37" fill="#fb8072"/><rect x="564.2307692307692" width="1.7307692307692306" height="37" fill="#fb8072"/><rect x="574.6153846153845" width="1.7307692307692306" height="37" fill="#bebada"/><rect x="609.2307692307692" width="1.7307692307692306" height="37" fill="#fb8072"/><rect x="559.0384615384614" width="1.7307692307692306" height="37" fill="#fb8072"/><rect x="571.1538461538461" width="1.7307692307692306" height="37" fill="#bebada"/><rect x="586.7307692307692" width="1.7307692307692306" height="37" fill="#fb8072"/><rect x="614.4230769230769" width="1.7307692307692306" height="37" fill="#fb8072"/><rect x="626.5384615384614" width="69.8076923076923" height="37" fill="white"/><rect x="631.7307692307692" width="64.61538461538461" height="37" fill="#80b1d3"/><rect x="626.5384615384614" width="22.499999999999996" height="37" fill="#a6d854"/><rect x="657.6923076923076" width="36.34615384615384" height="37" fill="#8dd3c7"/><rect x="626.5384615384614" width="19.038461538461537" height="37" fill="#8dd3c7"/><rect x="685.3846153846152" width="1.7307692307692306" height="37" fill="#fb8072"/><rect x="643.8461538461537" width="1.7307692307692306" height="37" fill="#fb8072"/><rect x="657.6923076923076" width="1.7307692307692306" height="37" fill="#fb8072"/><rect x="636.9230769230768" width="1.7307692307692306" height="37" fill="#fb8072"/><rect x="662.8846153846152" width="1.7307692307692306" height="37" fill="#fb8072"/><rect x="692.3076923076922" width="1.7307692307692306" height="37" fill="#fb8072"/><rect x="696.3461538461537" width="86.53846153846153" height="37" fill="white"/><rect x="696.3461538461537" width="86.53846153846153" height="37" fill="#80b1d3"/><rect x="758.0769230769229" width="24.807692307692307" height="37" fill="#8dd3c7"/><rect x="706.153846153846" width="31.15384615384615" height="37" fill="#8dd3c7"/><rect x="782.8846153846152" width="92.88461538461537" height="37" fill="white"/><rect x="782.8846153846152" width="82.49999999999999" height="37" fill="#80b1d3"/><rect x="809.9999999999999" width="36.34615384615384" height="37" fill="#8dd3c7"/><rect x="858.4615384615383" width="17.307692307692307" height="37" fill="#8dd3c7"/><rect x="782.8846153846152" width="8.076923076923077" height="37" fill="#8dd3c7"/><rect x="829.0384615384614" width="3.4615384615384612" height="37" fill="#bebada"/><rect x="835.9615384615383" width="3.4615384615384612" height="37" fill="#bebada"/><rect x="842.8846153846152" width="1.7307692307692306" height="37" fill="#bebada"/><rect x="863.653846153846" width="1.7307692307692306" height="37" fill="#fb8072"/><rect x="818.653846153846" width="1.7307692307692306" height="37" fill="#bebada"/><rect x="815.1923076923075" width="1.7307692307692306" height="37" fill="#fb8072"/><rect x="822.1153846153845" width="1.7307692307692306" height="37" fill="#bebada"/><rect x="858.4615384615383" width="1.7307692307692306" height="37" fill="#fb8072"/><rect x="844.6153846153845" width="1.7307692307692306" height="37" fill="#fb8072"/><rect x="809.9999999999999" width="1.7307692307692306" height="37" fill="#fb8072"/><rect x="867.1153846153845" width="1.7307692307692306" height="37" fill="#bebada"/><rect x="870.5769230769229" width="1.7307692307692306" height="37" fill="#bebada"/><rect x="825.576923076923" width="1.7307692307692306" height="37" fill="#bebada"/><rect x="837.6923076923075" width="1.7307692307692306" height="37" fill="#fb8072"/><rect x="875.7692307692306" width="105.57692307692307" height="37" fill="white"/><rect x="879.230769230769" width="44.99999999999999" height="37" fill="#E8E89E"/><rect x="906.9230769230768" width="38.07692307692307" height="37" fill="#8dd3c7"/><rect x="875.7692307692306" width="19.038461538461537" height="37" fill="#8dd3c7"/><rect x="962.3076923076922" width="19.038461538461537" height="37" fill="#8dd3c7"/><rect x="932.8846153846152" width="3.4615384615384612" height="37" fill="#bebada"/><rect x="884.4230769230768" width="3.4615384615384612" height="37" fill="#bebada"/><rect x="877.4999999999999" width="3.4615384615384612" height="37" fill="#bebada"/><rect x="925.9615384615383" width="3.4615384615384612" height="37" fill="#bebada"/><rect x="891.3461538461537" width="1.7307692307692306" height="37" fill="#bebada"/><rect x="886.153846153846" width="1.7307692307692306" height="37" fill="#fb8072"/><rect x="934.6153846153844" width="1.7307692307692306" height="37" fill="#fb8072"/><rect x="941.5384615384613" width="1.7307692307692306" height="37" fill="#bebada"/><rect x="943.2692307692306" width="1.7307692307692306" height="37" fill="#fb8072"/><rect x="893.0769230769229" width="1.7307692307692306" height="37" fill="#fb8072"/><rect x="906.9230769230768" width="1.7307692307692306" height="37" fill="#fb8072"/><rect x="912.1153846153844" width="1.7307692307692306" height="37" fill="#fb8072"/><rect x="915.5769230769229" width="1.7307692307692306" height="37" fill="#bebada"/><rect x="919.0384615384613" width="1.7307692307692306" height="37" fill="#bebada"/><rect x="922.4999999999998" width="1.7307692307692306" height="37" fill="#bebada"/><rect x="981.3461538461537" width="78.46153846153845" height="37" fill="white"/><rect x="981.3461538461537" width="10.384615384615383" height="37" fill="#8dd3c7"/><rect x="1059.8076923076922" width="93.46153846153845" height="37" fill="white"/><rect x="1153.2692307692305" width="106.73076923076923" height="37" fill="white"/><line x1="0" x2="1259.9999999999998" stroke="black"/><line x1="0" x2="1259.9999999999998" y1="37" y2="37" stroke="black"/><line x1="0" x2="0" y2="37" stroke="black"/><line x1="1259.9999999999998" x2="1259.9999999999998" y2="37" stroke="black"/><line class="exonboundaryclass" x1="450.57692307692304" x2="450.57692307692304" y1="0" y2="37" stroke="black" stroke-dasharray="4,2" shape-rendering="crispEdges" stroke-opacity="1"/><line class="exonboundaryclass" x1="549.2307692307692" x2="549.2307692307692" y1="0" y2="37" stroke="black" stroke-dasharray="4,2" shape-rendering="crispEdges" stroke-opacity="1"/><line class="exonboundaryclass" x1="626.5384615384614" x2="626.5384615384614" y1="0" y2="37" stroke="black" stroke-dasharray="4,2" shape-rendering="crispEdges" stroke-opacity="1"/><line class="exonboundaryclass" x1="696.3461538461537" x2="696.3461538461537" y1="0" y2="37" stroke="black" stroke-dasharray="4,2" shape-rendering="crispEdges" stroke-opacity="1"/><line class="exonboundaryclass" x1="782.8846153846152" x2="782.8846153846152" y1="0" y2="37" stroke="black" stroke-dasharray="4,2" shape-rendering="crispEdges" stroke-opacity="1"/><line class="exonboundaryclass" x1="875.7692307692306" x2="875.7692307692306" y1="0" y2="37" stroke="black" stroke-dasharray="4,2" shape-rendering="crispEdges" stroke-opacity="1"/><line class="exonboundaryclass" x1="981.3461538461537" x2="981.3461538461537" y1="0" y2="37" stroke="black" stroke-dasharray="4,2" shape-rendering="crispEdges" stroke-opacity="1"/><line class="exonboundaryclass" x1="1059.8076923076922" x2="1059.8076923076922" y1="0" y2="37" stroke="black" stroke-dasharray="4,2" shape-rendering="crispEdges" stroke-opacity="1"/><line class="exonboundaryclass" x1="1153.2692307692305" x2="1153.2692307692305" y1="0" y2="37" stroke="black" stroke-dasharray="4,2" shape-rendering="crispEdges" stroke-opacity="1"/><g transform="translate(0,18.5)" fill="none" font-size="10" font-family="sans-serif" text-anchor="middle"><path class="domain" stroke="none" d="M0.8653846153846153,0H1259.9999999999998" fill="none" stroke-width="0" shape-rendering="crispEdges"/><g class="tick" opacity="1" transform="translate(172.1017011834319,0)"><line stroke="black" y2="0" shape-rendering="crispEdges"/><text fill="black" y="3" dy="0.71em" font-family="Arial" font-size="11.666666666666666px" style="cursor: default;">100</text></g><g class="tick" opacity="1" transform="translate(345.0676775147928,0)"><line stroke="black" y2="0" shape-rendering="crispEdges"/><text fill="black" y="3" dy="0.71em" font-family="Arial" font-size="11.666666666666666px" style="cursor: default;">200</text></g><g class="tick" opacity="1" transform="translate(518.1680161943319,0)"><line stroke="black" y2="0" shape-rendering="crispEdges"/><text fill="black" y="3" dy="0.71em" font-family="Arial" font-size="11.666666666666666px" style="cursor: default;">300</text></g><g class="tick" opacity="1" transform="translate(691.1754807692306,0)"><line stroke="black" y2="0" shape-rendering="crispEdges"/><text fill="black" y="3" dy="0.71em" font-family="Arial" font-size="11.666666666666666px" style="cursor: default;">400</text></g><g class="tick" opacity="1" transform="translate(863.7660256410255,0)"><line stroke="black" y2="0" shape-rendering="crispEdges"/><text fill="black" y="3" dy="0.71em" font-family="Arial" font-size="11.666666666666666px" style="cursor: default;">500</text></g><g class="tick" opacity="1" transform="translate(1037.3910256410254,0)"><line stroke="black" y2="0" shape-rendering="crispEdges"/><text fill="black" y="3" dy="0.71em" font-family="Arial" font-size="11.666666666666666px" style="cursor: default;">600</text></g><g class="tick" opacity="1" transform="translate(1210.21246898263,0)"><line stroke="black" y2="0" shape-rendering="crispEdges"/><text fill="black" y="3" dy="0.71em" font-family="Arial" font-size="11.666666666666666px" style="cursor: default;">700</text></g></g><rect x="0" width="450.57692307692304" height="37" fill="#858585" fill-opacity="0"/><rect x="450.57692307692304" width="98.65384615384615" height="37" fill="#858585" fill-opacity="0"/><rect x="549.2307692307692" width="77.3076923076923" height="37" fill="#858585" fill-opacity="0"/><rect x="626.5384615384614" width="69.8076923076923" height="37" fill="#858585" fill-opacity="0"/><rect x="696.3461538461537" width="86.53846153846153" height="37" fill="#858585" fill-opacity="0"/><rect x="782.8846153846152" width="92.88461538461537" height="37" fill="#858585" fill-opacity="0"/><rect x="875.7692307692306" width="105.57692307692307" height="37" fill="#858585" fill-opacity="0"/><rect x="981.3461538461537" width="78.46153846153845" height="37" fill="#858585" fill-opacity="0"/><rect x="1059.8076923076922" width="93.46153846153845" height="37" fill="#858585" fill-opacity="0"/><rect x="1153.2692307692305" width="106.73076923076923" height="37" fill="#858585" fill-opacity="0"/></g></g><g/><g transform="scale(0)"><rect fill="white" fill-opacity="0"/><text data-testid="loading_message" fill="rgb(97, 124, 148)" fill-opacity="0" font-weight="bold" font-size="18px" text-anchor="middle" dominant-baseline="middle">Loading ...</text><line stroke="rgb(97, 124, 148)" stroke-width="2px"/></g></g><g transform="translate(122.3984375,0)"><text font-size="14" font-family="Arial" y="7" text-anchor="end" dominant-baseline="central" fill="black" x="-10" font-weight="bold">CTCF</text><text font-size="14" font-family="Arial" y="20" text-anchor="end" dominant-baseline="central" fill="black" x="-10">NM_006565</text></g><g transform="translate(1395.3984375,0)"><text fill="#aaa" font-family="Arial" font-size="14" y="14" class="sja_clbtext2"/></g></g></g><g transform="scale(0)"><rect fill="white"/><text id="loadinggCloak" fill="rgb(97, 124, 148)" fill-opacity="0" font-weight="bold" font-size="18px" text-anchor="middle" dominant-baseline="middle">Loading ...</text></g><g/><g transform="translate(124.3984375,520.5302083333333)"><g transform="translate(0,0)"><rect width="15" height="20" stroke="rgb(116, 151, 59)" fill="#a6d854" shape-rendering="crispEdges"/><text x="20" y="10" dominant-baseline="central" font-size="16" font-family="Arial" fill="black">zf-H2C2_5</text><text x="106.4765625" y="10" dominant-baseline="central" font-size="12" font-family="Arial" fill="#858585">C2H2-type zinc-finger domain</text></g><g transform="translate(0,23)"><rect width="15" height="20" stroke="rgb(99, 148, 139)" fill="#8dd3c7" shape-rendering="crispEdges"/><text x="20" y="10" dominant-baseline="central" font-size="16" font-family="Arial" fill="black">C2H2 Zn finger</text><text x="138.7109375" y="10" dominant-baseline="central" font-size="12" font-family="Arial" fill="#858585">C2H2 Zn finger [structural motif]</text></g><g transform="translate(0,46)"><rect width="15" height="20" stroke="rgb(176, 90, 80)" fill="#fb8072" shape-rendering="crispEdges"/><text x="20" y="10" dominant-baseline="central" font-size="16" font-family="Arial" fill="black">other</text><text x="66.6875" y="10" dominant-baseline="central" font-size="12" font-family="Arial" fill="#858585">Zn binding site [ion binding]</text></g><g transform="translate(0,69)"><rect width="15" height="20" stroke="rgb(133, 130, 153)" fill="#bebada" shape-rendering="crispEdges"/><text x="20" y="10" dominant-baseline="central" font-size="16" font-family="Arial" fill="black">other</text><text x="66.6875" y="10" dominant-baseline="central" font-size="12" font-family="Arial" fill="#858585">putative nucleic acid binding site [nucleotide binding]</text></g><g transform="translate(0,92)"><rect width="15" height="20" stroke="rgb(162, 162, 111)" fill="#E8E89E" shape-rendering="crispEdges"/><text x="20" y="10" dominant-baseline="central" font-size="16" font-family="Arial" fill="black">zf-H2C2_2</text><text x="106.4765625" y="10" dominant-baseline="central" font-size="12" font-family="Arial" fill="#858585">Zinc-finger double domain</text></g><g transform="translate(0,115)"><rect width="15" height="20" stroke="rgb(90, 124, 148)" fill="#80b1d3" shape-rendering="crispEdges"/><text x="20" y="10" dominant-baseline="central" font-size="16" font-family="Arial" fill="black">COG5048</text><text x="102.0390625" y="10" dominant-baseline="central" font-size="12" font-family="Arial" fill="#858585">FOG: Zn-finger [General function prediction only]</text></g></g><g transform="translate(1187.3984375,520.5302083333333)"><g transform="translate(0,0)"><circle cx="10" cy="10" r="10" fill="#3987CC"/><text x="30" y="10" dominant-baseline="central" font-size="16" font-family="Arial" fill="#3987CC">MISSENSE, n=8</text></g><g transform="translate(0,23)"><circle cx="10" cy="10" r="10" fill="#998199"/><text x="30" y="10" dominant-baseline="central" font-size="16" font-family="Arial" fill="#998199">UTR_3, n=7</text></g><g transform="translate(0,46)"><circle cx="10" cy="10" r="10" fill="#2ca02c"/><text x="30" y="10" dominant-baseline="central" font-size="16" font-family="Arial" fill="#2ca02c">SILENT, n=1</text></g></g></svg>