<svg xmlns="http://www.w3.org/2000/svg" data-testid="sjpp_block_svg" width="1500.40625" height="722.3902343750001"><g transform="translate(0,0)"><g transform="translate(130.40625, 0)"/><rect fill="#FFFF99" x="857" width="2" height="475.39023437500003"/><g transform="translate(130.40625, 23)"><g transform="translate(0,0)"><text text-anchor="end" x="-13" y="-10" dominant-baseline="central" font-size="13" font-family="Arial">Protein length</text><g><g transform="translate(0,0)" fill="none" font-size="10" font-family="sans-serif" text-anchor="middle"><path class="domain" stroke="black" d="M0,-6V0H1260V-6" fill="none" stroke-width="1" shape-rendering="crispEdges"/><g class="tick" opacity="1" transform="translate(139.36794582392778,0)"><line stroke="black" y2="-6" shape-rendering="crispEdges"/><text fill="black" y="-9" dy="0em" font-family="Arial" font-size="12px" style="cursor: default;">50</text></g><g class="tick" opacity="1" transform="translate(281.5801354401806,0)"><line stroke="black" y2="-6" shape-rendering="crispEdges"/><text fill="black" y="-9" dy="0em" font-family="Arial" font-size="12px" style="cursor: default;">100</text></g><g class="tick" opacity="1" transform="translate(423.7923250564334,0)"><line stroke="black" y2="-6" shape-rendering="crispEdges"/><text fill="black" y="-9" dy="0em" font-family="Arial" font-size="12px" style="cursor: default;">150</text></g><g class="tick" opacity="1" transform="translate(566.0045146726862,0)"><line stroke="black" y2="-6" shape-rendering="crispEdges"/><text fill="black" y="-9" dy="0em" font-family="Arial" font-size="12px" style="cursor: default;">200</text></g><g class="tick" opacity="1" transform="translate(708.216704288939,0)"><line stroke="black" y2="-6" shape-rendering="crispEdges"/><text fill="black" y="-9" dy="0em" font-family="Arial" font-size="12px" style="cursor: default;">250</text></g><g class="tick" opacity="1" transform="translate(850.4288939051918,0)"><line stroke="black" y2="-6" shape-rendering="crispEdges"/><text fill="black" y="-9" dy="0em" font-family="Arial" font-size="12px" style="cursor: default;">300</text></g><g class="tick" opacity="1" transform="translate(992.6410835214448,0)"><line stroke="black" y2="-6" shape-rendering="crispEdges"/><text fill="black" y="-9" dy="0em" font-family="Arial" font-size="12px" style="cursor: default;">350</text></g><g class="tick" opacity="1" transform="translate(1134.8532731376977,0)"><line stroke="black" y2="-6" shape-rendering="crispEdges"/><text fill="black" y="-9" dy="0em" font-family="Arial" font-size="12px" style="cursor: default;">400</text></g></g></g><rect fill="white" fill-opacity="0" x="0" y="-23" width="1260" height="26"/></g><g transform="translate(1260, 0)"/></g><g data-testid="sja_sample_menu_opener" transform="translate(0, 31)"><g transform="translate(1390.40625, 0)"/><g transform="translate(130.40625, 0)"><rect fill="white" fill-opacity="0" width="1260" height="141.846875"/><g transform="translate(0,0)" style="cursor: default;"><g class="sja_skg" transform="translate(8.058691024780273, 108.046875)"><g transform="translate(0, -7)" class="sja_aa_discg"><circle fill="#2ca02c" stroke="white" r="6.5"/><text font-size="12" fill="#2ca02c" x="8" y="3.5999999999999996" font-family="Arial" class="sja_aa_disclabel" fill-opacity="1" transform="scale(1) rotate(0)">c.279G&gt;A(p.=)</text><circle r="6.5" stroke="#2ca02c" class="sja_aa_disckick" fill="white" fill-opacity="0" stroke-opacity="0" transform="scale(1)"/><path d="M4.286263797015736e-16,-7L4.286263797015736e-16,-7Z" fill="#2ca02c" class="sja_aa_discrim" fill-opacity="1" stroke-opacity="1"/></g><circle class="sja_aa_skkick" fill="white" fill-opacity="0" stroke="none" r="8" cy="-7" transform="scale(0)"/><path class="sja_aa_stem" d="M0,0v0l0,0v23.799999999999997" stroke="#2ca02c" fill="none"/></g><g class="sja_skg" transform="translate(109.50338745117188, 108.046875)"><g transform="translate(0, -7)" class="sja_aa_discg"><circle fill="#3987CC" stroke="white" r="6.5"/><text font-size="12" fill="#3987CC" x="8" y="3.5999999999999996" font-family="Arial" class="sja_aa_disclabel" fill-opacity="1" transform="scale(1) rotate(0)">p.Leu129Arg</text><circle r="6.5" stroke="#3987CC" class="sja_aa_disckick" fill="white" fill-opacity="0" stroke-opacity="0" transform="scale(1)"/><path d="M4.286263797015736e-16,-7L4.286263797015736e-16,-7Z" fill="#3987CC" class="sja_aa_discrim" fill-opacity="1" stroke-opacity="1"/></g><circle class="sja_aa_skkick" fill="white" fill-opacity="0" stroke="none" r="8" cy="-7" transform="scale(0)"/><path class="sja_aa_stem" d="M0,0v0l0,0v23.799999999999997" stroke="#3987CC" fill="none"/></g><g class="sja_skg" transform="translate(626.2077026367188, 108.046875)"><g transform="translate(0, -7)" class="sja_aa_discg"><circle fill="#3987CC" stroke="white" r="6.5"/><text font-size="12" fill="#3987CC" x="8" y="3.5999999999999996" font-family="Arial" class="sja_aa_disclabel" fill-opacity="1" transform="scale(1) rotate(0)">p.Glu311Lys</text><circle r="6.5" stroke="#3987CC" class="sja_aa_disckick" fill="white" fill-opacity="0" stroke-opacity="0" transform="scale(1)"/><path d="M4.286263797015736e-16,-7L4.286263797015736e-16,-7Z" fill="#3987CC" class="sja_aa_discrim" fill-opacity="1" stroke-opacity="1"/></g><circle class="sja_aa_skkick" fill="white" fill-opacity="0" stroke="none" r="8" cy="-7" transform="scale(0)"/><path class="sja_aa_stem" d="M0,0v0l0,0v23.799999999999997" stroke="#3987CC" fill="none"/></g><g class="sja_skg" transform="translate(831.9412841796875, 108.046875)"><g transform="translate(0, -7)" class="sja_aa_discg"><circle fill="#db3d3d" stroke="white" r="6.5"/><text font-size="12" fill="#db3d3d" x="8" y="3.5999999999999996" font-family="Arial" class="sja_aa_disclabel" fill-opacity="1" transform="scale(1) rotate(0)">p.Tyr383IlefsTer3</text><circle r="6.5" stroke="#db3d3d" class="sja_aa_disckick" fill="white" fill-opacity="0" stroke-opacity="0" transform="scale(1)"/><path d="M4.286263797015736e-16,-7L4.286263797015736e-16,-7Z" fill="#db3d3d" class="sja_aa_discrim" fill-opacity="1" stroke-opacity="1"/></g><circle class="sja_aa_skkick" fill="white" fill-opacity="0" stroke="none" r="8" cy="-7" transform="scale(0)"/><path class="sja_aa_stem" d="M0,0v0l0,0v23.799999999999997" stroke="#db3d3d" fill="none"/></g><g class="sja_skg" transform="translate(1124.8984375, 108.046875)"><g transform="translate(0, -7)" class="sja_aa_discg"><circle fill="#3987CC" stroke="white" r="6.5"/><text font-size="12" fill="#3987CC" x="8" y="3.5999999999999996" font-family="Arial" class="sja_aa_disclabel" fill-opacity="1" transform="scale(1) rotate(0)">p.Cys486Tyr</text><circle r="6.5" stroke="#3987CC" class="sja_aa_disckick" fill="white" fill-opacity="0" stroke-opacity="0" transform="scale(1)"/><path d="M4.286263797015736e-16,-7L4.286263797015736e-16,-7Z" fill="#3987CC" class="sja_aa_discrim" fill-opacity="1" stroke-opacity="1"/></g><circle class="sja_aa_skkick" fill="white" fill-opacity="0" stroke="none" r="8" cy="-7" transform="scale(0)"/><path class="sja_aa_stem" d="M0,0v0l0,0v23.799999999999997" stroke="#3987CC" fill="none"/></g></g><g/><g transform="scale(0)"><rect fill="white" fill-opacity="0.5" width="1260" height="0"/><text data-testid="loading_message" fill="rgb(97, 124, 148)" fill-opacity="1" font-weight="bold" font-size="18px" text-anchor="middle" dominant-baseline="middle" x="630" y="15">Loading ...</text><line stroke="rgb(97, 124, 148)" stroke-width="2px" y1="30" y2="30" x2="0"/></g></g><g transform="translate(127.40625, 0)"><text font-size="14" font-family="Arial" y="7" text-anchor="end" dominant-baseline="central" fill="black" x="-10" font-weight="bold">GAMBL DLBCL</text><g/><text font-size="14" font-family="Arial" y="26" text-anchor="end" dominant-baseline="central" class="sja_clbtext2" fill="black" x="-10">5 of 12 mutations</text></g><g transform="translate(1400.40625, 0)"/></g><g data-testid="sja_sample_menu_opener" transform="translate(0, 365.0531311035156)"><g transform="translate(1390.40625, 0)"/><g transform="translate(130.40625, 0)"><rect fill="white" fill-opacity="0" width="1260" height="115.337109375"/><g transform="translate(0,0)" style="cursor: default;"><g class="sja_skg" transform="translate(398.6681823730469, 23.799999237060547)"><g transform="translate(0, 7)" class="sja_aa_discg"><circle fill="#3987CC" stroke="white" r="6.5"/><text font-size="12" fill="#3987CC" x="8" y="3.5999999999999996" font-family="Arial" class="sja_aa_disclabel" fill-opacity="1" transform="scale(1) rotate(0)">p.Ala231Thr</text><circle r="6.5" stroke="#3987CC" class="sja_aa_disckick" fill="white" fill-opacity="0" stroke-opacity="0" transform="scale(1)"/><path d="M4.286263797015736e-16,-7L4.286263797015736e-16,-7Z" fill="#3987CC" class="sja_aa_discrim" fill-opacity="1" stroke-opacity="1"/></g><circle class="sja_aa_skkick" fill="white" fill-opacity="0" stroke="none" r="8" cy="7" transform="scale(0)"/><path class="sja_aa_stem" d="M0,0v0l0,0v-23.799999999999997" stroke="#3987CC" fill="none"/></g></g><g/><g transform="scale(0)"><rect fill="white" fill-opacity="0.5" width="1260" height="0"/><text data-testid="loading_message" fill="rgb(97, 124, 148)" fill-opacity="1" font-weight="bold" font-size="18px" text-anchor="middle" dominant-baseline="middle" x="630" y="15">Loading ...</text><line stroke="rgb(97, 124, 148)" stroke-width="2px" y1="30" y2="30" x2="0"/></g></g><g transform="translate(127.40625, 0)"><text font-size="14" font-family="Arial" y="7" text-anchor="end" dominant-baseline="central" fill="black" x="-10" font-weight="bold">GAMBL FL</text><g/><text font-size="14" font-family="Arial" y="26" text-anchor="end" dominant-baseline="central" class="sja_clbtext2" fill="black" x="-10">1 of 2 mutations</text></g><g transform="translate(1400.40625, 0)"/></g><g data-testid="sja_sample_menu_opener" transform="translate(0, 219.8468780517578)"><g transform="translate(1390.40625, 0)"/><g transform="translate(130.40625, 0)"><rect fill="white" fill-opacity="0" width="1260" height="121.20625"/><g transform="translate(0,0)" style="cursor: default;"><g class="sja_skg" transform="translate(936.230224609375, 23.799999237060547)"><g transform="translate(0, 7)" class="sja_aa_discg"><circle fill="#3987CC" stroke="white" r="6.5"/><text font-size="12" fill="#3987CC" x="8" y="3.5999999999999996" font-family="Arial" class="sja_aa_disclabel" fill-opacity="1" transform="scale(1) rotate(0)">p.Leu420Phe</text><circle r="6.5" stroke="#3987CC" class="sja_aa_disckick" fill="white" fill-opacity="0" stroke-opacity="0" transform="scale(1)"/><path d="M4.286263797015736e-16,-7L4.286263797015736e-16,-7Z" fill="#3987CC" class="sja_aa_discrim" fill-opacity="1" stroke-opacity="1"/></g><circle class="sja_aa_skkick" fill="white" fill-opacity="0" stroke="none" r="8" cy="7" transform="scale(0)"/><path class="sja_aa_stem" d="M0,0v0l0,0v-23.799999999999997" stroke="#3987CC" fill="none"/></g></g><g/><g transform="scale(0)"><rect fill="white" fill-opacity="0.5" width="1260" height="0"/><text data-testid="loading_message" fill="rgb(97, 124, 148)" fill-opacity="1" font-weight="bold" font-size="18px" text-anchor="middle" dominant-baseline="middle" x="630" y="15">Loading ...</text><line stroke="rgb(97, 124, 148)" stroke-width="2px" y1="30" y2="30" x2="0"/></g></g><g transform="translate(127.40625, 0)"><text font-size="14" font-family="Arial" y="7" text-anchor="end" dominant-baseline="central" fill="black" x="-10" font-weight="bold">GAMBL BL</text><g/><text font-size="14" font-family="Arial" y="26" text-anchor="end" dominant-baseline="central" class="sja_clbtext2" fill="black" x="-10">1 of 5 mutations</text></g><g transform="translate(1400.40625, 0)"/></g><g data-testid="sja_sample_menu_opener" transform="translate(0, 341.0531311035156)"><g transform="translate(1390.40625, 0)"/><g transform="translate(130.40625, 0)"><rect fill="white" fill-opacity="0" width="1260" height="24"/><g transform="translate(0,0)" style="cursor: default;"/><g/><g transform="scale(0)"><rect fill="white" fill-opacity="0.5" width="1260" height="0"/><text data-testid="loading_message" fill="rgb(97, 124, 148)" fill-opacity="1" font-weight="bold" font-size="18px" text-anchor="middle" dominant-baseline="middle" x="630" y="15">Loading ...</text><line stroke="rgb(97, 124, 148)" stroke-width="2px" y1="30" y2="30" x2="0"/></g></g><g transform="translate(127.40625, 0)"><text font-size="14" font-family="Arial" y="7" text-anchor="end" dominant-baseline="central" fill="black" x="-10" font-weight="bold">GAMBL MCL</text><g/><text font-size="14" font-family="Arial" y="26" text-anchor="end" dominant-baseline="central" class="sja_clbtext2" fill="black" x="-10"/></g><g transform="translate(1400.40625, 0)"/></g><g data-testid="sja_sample_menu_opener" transform="translate(0, 172.8468780517578)"><g transform="translate(1390.40625, 0)"/><g transform="translate(130.40625, 0)"><rect fill="white" fill-opacity="0" width="1260" height="47"/><g transform="translate(0,0)" style="cursor: default;"><g><line x1="0" y1="18.5" x2="1259.9999999999998" y2="18.5" stroke="black" shape-rendering="crispEdges"/><rect x="0" width="457.92325056433407" height="37" fill="white"/><rect x="287.2686230248307" width="170.6546275395034" height="37" fill="#b3b3b3"/><rect x="290.11286681715575" width="76.79458239277652" height="37" fill="#fdb462"/><rect x="383.9729119638826" width="73.95033860045147" height="37" fill="#e5c494"/><rect x="455.07900677200905" width="2.8442437923250563" height="37" fill="#80b1d3"/><rect x="446.54627539503383" width="2.8442437923250563" height="37" fill="#80b1d3"/><rect x="457.92325056433407" width="107.13318284424379" height="37" fill="white"/><rect x="457.92325056433407" width="107.13318284424379" height="37" fill="#b3b3b3"/><rect x="492.0541760722347" width="73.00225733634312" height="37" fill="#E8E89E"/><rect x="457.92325056433407" width="2.8442437923250563" height="37" fill="#e5c494"/><rect x="492.0541760722347" width="17.06546275395034" height="37" fill="#80b1d3"/><rect x="511.9638826185101" width="5.688487584650113" height="37" fill="#80b1d3"/><rect x="457.92325056433407" width="2.8442437923250563" height="37" fill="#80b1d3"/><rect x="523.3408577878104" width="2.8442437923250563" height="37" fill="#80b1d3"/><rect x="565.0564334085778" width="194.35665914221218" height="37" fill="white"/><rect x="565.0564334085778" width="194.35665914221218" height="37" fill="#b3b3b3"/><rect x="565.0564334085778" width="15.169300225733634" height="37" fill="#E8E89E"/><rect x="611.5124153498871" width="59.729119638826184" height="37" fill="#a6d854"/><rect x="657.020316027088" width="14.221218961625283" height="37" fill="#80b1d3"/><rect x="651.3318284424379" width="2.8442437923250563" height="37" fill="#80b1d3"/><rect x="759.41309255079" width="142.21218961625283" height="37" fill="white"/><rect x="759.41309255079" width="142.21218961625283" height="37" fill="#b3b3b3"/><rect x="895.9367945823927" width="5.688487584650113" height="37" fill="#ffd92f"/><rect x="765.1015801354401" width="73.95033860045147" height="37" fill="#8dd3c7"/><rect x="785.0112866817155" width="8.53273137697517" height="37" fill="#80b1d3"/><rect x="773.6343115124153" width="8.53273137697517" height="37" fill="#80b1d3"/><rect x="796.3882618510157" width="5.688487584650113" height="37" fill="#80b1d3"/><rect x="765.1015801354401" width="2.8442437923250563" height="37" fill="#80b1d3"/><rect x="901.6252821670428" width="127.04288939051919" height="37" fill="white"/><rect x="901.6252821670428" width="127.04288939051919" height="37" fill="#b3b3b3"/><rect x="901.6252821670428" width="82.48306997742664" height="37" fill="#ffd92f"/><rect x="969.8871331828441" width="5.688487584650113" height="37" fill="#80b1d3"/><rect x="961.354401805869" width="5.688487584650113" height="37" fill="#80b1d3"/><rect x="952.8216704288938" width="2.8442437923250563" height="37" fill="#80b1d3"/><rect x="981.2641083521444" width="2.8442437923250563" height="37" fill="#80b1d3"/><rect x="1028.668171557562" width="103.34085778781038" height="37" fill="white"/><rect x="1028.668171557562" width="100.49661399548533" height="37" fill="#b3b3b3"/><rect x="1035.3047404063204" width="73.95033860045147" height="37" fill="#fb8072"/><rect x="1040.9932279909706" width="8.53273137697517" height="37" fill="#80b1d3"/><rect x="1063.747178329571" width="5.688487584650113" height="37" fill="#80b1d3"/><rect x="1032.4604966139952" width="5.688487584650113" height="37" fill="#80b1d3"/><rect x="1055.2144469525958" width="2.8442437923250563" height="37" fill="#80b1d3"/><rect x="1132.0090293453723" width="127.99097065462755" height="37" fill="white"/><line x1="0" x2="1259.9999999999998" stroke="black"/><line x1="0" x2="1259.9999999999998" y1="37" y2="37" stroke="black"/><line x1="1259.9999999999998" x2="1259.9999999999998" y2="37" stroke="black"/><line x1="0" x2="0" y2="37" stroke="black"/><line class="exonboundaryclass" x1="457.92325056433407" x2="457.92325056433407" y1="0" y2="37" stroke="black" stroke-dasharray="4,2" shape-rendering="crispEdges" stroke-opacity="1"/><line class="exonboundaryclass" x1="565.0564334085778" x2="565.0564334085778" y1="0" y2="37" stroke="black" stroke-dasharray="4,2" shape-rendering="crispEdges" stroke-opacity="1"/><line class="exonboundaryclass" x1="759.41309255079" x2="759.41309255079" y1="0" y2="37" stroke="black" stroke-dasharray="4,2" shape-rendering="crispEdges" stroke-opacity="1"/><line class="exonboundaryclass" x1="901.6252821670428" x2="901.6252821670428" y1="0" y2="37" stroke="black" stroke-dasharray="4,2" shape-rendering="crispEdges" stroke-opacity="1"/><line class="exonboundaryclass" x1="1028.668171557562" x2="1028.668171557562" y1="0" y2="37" stroke="black" stroke-dasharray="4,2" shape-rendering="crispEdges" stroke-opacity="1"/><line class="exonboundaryclass" x1="1132.0090293453723" x2="1132.0090293453723" y1="0" y2="37" stroke="black" stroke-dasharray="4,2" shape-rendering="crispEdges" stroke-opacity="1"/><g transform="translate(0,18.5)" fill="none" font-size="10" font-family="sans-serif" text-anchor="middle"><path class="domain" stroke="none" d="M1.4221218961625282,0H1259.9999999999998" fill="none" stroke-width="0" shape-rendering="crispEdges"/><g class="tick" opacity="1" transform="translate(140.35724801256256,0)"><line stroke="black" y2="0" shape-rendering="crispEdges"/><text fill="black" y="3" dy="0.71em" font-family="Arial" font-size="11.666666666666666px" style="cursor: default;">50</text></g><g class="tick" opacity="1" transform="translate(282.127784866032,0)"><line stroke="black" y2="0" shape-rendering="crispEdges"/><text fill="black" y="3" dy="0.71em" font-family="Arial" font-size="11.666666666666666px" style="cursor: default;">100</text></g><g class="tick" opacity="1" transform="translate(423.8983217195014,0)"><line stroke="black" y2="0" shape-rendering="crispEdges"/><text fill="black" y="3" dy="0.71em" font-family="Arial" font-size="11.666666666666666px" style="cursor: default;">150</text></g><g class="tick" opacity="1" transform="translate(567.4060261065855,0)"><line stroke="black" y2="0" shape-rendering="crispEdges"/><text fill="black" y="3" dy="0.71em" font-family="Arial" font-size="11.666666666666666px" style="cursor: default;">200</text></g><g class="tick" opacity="1" transform="translate(708.587692609677,0)"><line stroke="black" y2="0" shape-rendering="crispEdges"/><text fill="black" y="3" dy="0.71em" font-family="Arial" font-size="11.666666666666666px" style="cursor: default;">250</text></g><g class="tick" opacity="1" transform="translate(850.9408577878103,0)"><line stroke="black" y2="0" shape-rendering="crispEdges"/><text fill="black" y="3" dy="0.71em" font-family="Arial" font-size="11.666666666666666px" style="cursor: default;">300</text></g><g class="tick" opacity="1" transform="translate(994.4079622409192,0)"><line stroke="black" y2="0" shape-rendering="crispEdges"/><text fill="black" y="3" dy="0.71em" font-family="Arial" font-size="11.666666666666666px" style="cursor: default;">350</text></g><g class="tick" opacity="1" transform="translate(1136.2437923250561,0)"><line stroke="black" y2="0" shape-rendering="crispEdges"/><text fill="black" y="3" dy="0.71em" font-family="Arial" font-size="11.666666666666666px" style="cursor: default;">400</text></g></g><rect x="0" width="457.92325056433407" height="37" fill="#858585" fill-opacity="0"/><rect x="457.92325056433407" width="107.13318284424379" height="37" fill="#858585" fill-opacity="0"/><rect x="565.0564334085778" width="194.35665914221218" height="37" fill="#858585" fill-opacity="0"/><rect x="759.41309255079" width="142.21218961625283" height="37" fill="#858585" fill-opacity="0"/><rect x="901.6252821670428" width="127.04288939051919" height="37" fill="#858585" fill-opacity="0"/><rect x="1028.668171557562" width="103.34085778781038" height="37" fill="#858585" fill-opacity="0"/><rect x="1132.0090293453723" width="127.99097065462755" height="37" fill="#858585" fill-opacity="0"/></g></g><g/><g transform="scale(0)"><rect fill="white" fill-opacity="0"/><text data-testid="loading_message" fill="rgb(97, 124, 148)" fill-opacity="0" font-weight="bold" font-size="18px" text-anchor="middle" dominant-baseline="middle">Loading ...</text><line stroke="rgb(97, 124, 148)" stroke-width="2px"/></g></g><g transform="translate(127.40625, 0)"><text font-size="14" font-family="Arial" y="7" text-anchor="end" dominant-baseline="central" fill="black" x="-10" font-weight="bold">EDNRB</text><text font-size="14" font-family="Arial" y="20" text-anchor="end" dominant-baseline="central" fill="black" x="-10">NM_000115</text></g><g transform="translate(1400.40625, 0)"><text fill="#aaa" font-family="Arial" font-size="14" y="14" class="sja_clbtext2"/></g></g></g><g transform="scale(0)"><rect fill="white"/><text id="loadinggCloak" fill="rgb(97, 124, 148)" fill-opacity="0" font-weight="bold" font-size="18px" text-anchor="middle" dominant-baseline="middle">Loading ...</text></g><g/><g transform="translate(129.40625,495.39023437500003)"><g transform="translate(0,0)"><rect width="15" height="20" stroke="rgb(125, 125, 125)" fill="#b3b3b3" shape-rendering="crispEdges"/><text x="20" y="10" dominant-baseline="central" font-size="16" font-family="Arial" fill="black">7tmA_ET-BR</text><text x="123.359375" y="10" dominant-baseline="central" font-size="12" font-family="Arial" fill="#858585">endothelin B receptor, member of the class A family of seven-transmemb ...</text></g><g transform="translate(0,23)"><rect width="15" height="20" stroke="rgb(177, 126, 69)" fill="#fdb462" shape-rendering="crispEdges"/><text x="20" y="10" dominant-baseline="central" font-size="16" font-family="Arial" fill="black">TM helix 1</text><text x="103.796875" y="10" dominant-baseline="central" font-size="12" font-family="Arial" fill="#858585">TM helix 1 [structural motif]</text></g><g transform="translate(0,46)"><rect width="15" height="20" stroke="rgb(160, 137, 104)" fill="#e5c494" shape-rendering="crispEdges"/><text x="20" y="10" dominant-baseline="central" font-size="16" font-family="Arial" fill="black">TM helix 2</text><text x="103.796875" y="10" dominant-baseline="central" font-size="12" font-family="Arial" fill="#858585">TM helix 2 [structural motif]</text></g><g transform="translate(0,69)"><rect width="15" height="20" stroke="rgb(90, 124, 148)" fill="#80b1d3" shape-rendering="crispEdges"/><text x="20" y="10" dominant-baseline="central" font-size="16" font-family="Arial" fill="black">other</text><text x="66.6875" y="10" dominant-baseline="central" font-size="12" font-family="Arial" fill="#858585">putative peptide ligand binding pocket [polypeptide binding]</text></g><g transform="translate(0,92)"><rect width="15" height="20" stroke="rgb(162, 162, 111)" fill="#E8E89E" shape-rendering="crispEdges"/><text x="20" y="10" dominant-baseline="central" font-size="16" font-family="Arial" fill="black">TM helix 3</text><text x="103.796875" y="10" dominant-baseline="central" font-size="12" font-family="Arial" fill="#858585">TM helix 3 [structural motif]</text></g><g transform="translate(0,115)"><rect width="15" height="20" stroke="rgb(116, 151, 59)" fill="#a6d854" shape-rendering="crispEdges"/><text x="20" y="10" dominant-baseline="central" font-size="16" font-family="Arial" fill="black">TM helix 4</text><text x="103.796875" y="10" dominant-baseline="central" font-size="12" font-family="Arial" fill="#858585">TM helix 4 [structural motif]</text></g><g transform="translate(0,138)"><rect width="15" height="20" stroke="rgb(99, 148, 139)" fill="#8dd3c7" shape-rendering="crispEdges"/><text x="20" y="10" dominant-baseline="central" font-size="16" font-family="Arial" fill="black">TM helix 5</text><text x="103.796875" y="10" dominant-baseline="central" font-size="12" font-family="Arial" fill="#858585">TM helix 5 [structural motif]</text></g><g transform="translate(0,161)"><rect width="15" height="20" stroke="rgb(179, 152, 33)" fill="#ffd92f" shape-rendering="crispEdges"/><text x="20" y="10" dominant-baseline="central" font-size="16" font-family="Arial" fill="black">TM helix 6</text><text x="103.796875" y="10" dominant-baseline="central" font-size="12" font-family="Arial" fill="#858585">TM helix 6 [structural motif]</text></g><g transform="translate(0,184)"><rect width="15" height="20" stroke="rgb(176, 90, 80)" fill="#fb8072" shape-rendering="crispEdges"/><text x="20" y="10" dominant-baseline="central" font-size="16" font-family="Arial" fill="black">TM helix 7</text><text x="103.796875" y="10" dominant-baseline="central" font-size="12" font-family="Arial" fill="#858585">TM helix 7 [structural motif]</text></g></g><g transform="translate(1192.40625,495.39023437500003)"><g transform="translate(0,0)"><circle cx="10" cy="10" r="10" fill="#998199"/><text x="30" y="10" dominant-baseline="central" font-size="16" font-family="Arial" fill="#998199">UTR_3, n=12</text></g><g transform="translate(0,23)"><circle cx="10" cy="10" r="10" fill="#3987CC"/><text x="30" y="10" dominant-baseline="central" font-size="16" font-family="Arial" fill="#3987CC">MISSENSE, n=6</text></g><g transform="translate(0,46)"><circle cx="10" cy="10" r="10" fill="#db3d3d"/><text x="30" y="10" dominant-baseline="central" font-size="16" font-family="Arial" fill="#db3d3d">FRAMESHIFT, n=1</text></g><g transform="translate(0,69)"><circle cx="10" cy="10" r="10" fill="#2ca02c"/><text x="30" y="10" dominant-baseline="central" font-size="16" font-family="Arial" fill="#2ca02c">SILENT, n=1</text></g><g transform="translate(0,92)"><circle cx="10" cy="10" r="10" fill="#6633FF"/><text x="30" y="10" dominant-baseline="central" font-size="16" font-family="Arial" fill="#6633FF">SPLICE, n=1</text></g></g></svg>