<svg xmlns="http://www.w3.org/2000/svg" data-testid="sjpp_block_svg" width="1495.3984375" height="796.3578125"><g transform="translate(0,0)"><g transform="translate(125.3984375, 0)"/><rect fill="#FFFF99" x="905" width="0" height="411.3578125"/><g transform="translate(125.3984375, 23)"><g transform="translate(0,0)"><text text-anchor="end" x="-13" y="-10" dominant-baseline="central" font-size="13" font-family="Arial">Protein length</text><g><g transform="translate(0,0)" fill="none" font-size="10" font-family="sans-serif" text-anchor="middle"><path class="domain" stroke="black" d="M0,-6V0H1260V-6" fill="none" stroke-width="1" shape-rendering="crispEdges"/><g class="tick" opacity="1" transform="translate(126.38297872340425,0)"><line stroke="black" y2="-6" shape-rendering="crispEdges"/><text fill="black" y="-9" dy="0em" font-family="Arial" font-size="12px" style="cursor: default;">100</text></g><g class="tick" opacity="1" transform="translate(254.04255319148936,0)"><line stroke="black" y2="-6" shape-rendering="crispEdges"/><text fill="black" y="-9" dy="0em" font-family="Arial" font-size="12px" style="cursor: default;">200</text></g><g class="tick" opacity="1" transform="translate(381.70212765957444,0)"><line stroke="black" y2="-6" shape-rendering="crispEdges"/><text fill="black" y="-9" dy="0em" font-family="Arial" font-size="12px" style="cursor: default;">300</text></g><g class="tick" opacity="1" transform="translate(509.36170212765956,0)"><line stroke="black" y2="-6" shape-rendering="crispEdges"/><text fill="black" y="-9" dy="0em" font-family="Arial" font-size="12px" style="cursor: default;">400</text></g><g class="tick" opacity="1" transform="translate(637.0212765957447,0)"><line stroke="black" y2="-6" shape-rendering="crispEdges"/><text fill="black" y="-9" dy="0em" font-family="Arial" font-size="12px" style="cursor: default;">500</text></g><g class="tick" opacity="1" transform="translate(764.6808510638298,0)"><line stroke="black" y2="-6" shape-rendering="crispEdges"/><text fill="black" y="-9" dy="0em" font-family="Arial" font-size="12px" style="cursor: default;">600</text></g><g class="tick" opacity="1" transform="translate(892.3404255319149,0)"><line stroke="black" y2="-6" shape-rendering="crispEdges"/><text fill="black" y="-9" dy="0em" font-family="Arial" font-size="12px" style="cursor: default;">700</text></g><g class="tick" opacity="1" transform="translate(1020,0)"><line stroke="black" y2="-6" shape-rendering="crispEdges"/><text fill="black" y="-9" dy="0em" font-family="Arial" font-size="12px" style="cursor: default;">800</text></g><g class="tick" opacity="1" transform="translate(1147.659574468085,0)"><line stroke="black" y2="-6" shape-rendering="crispEdges"/><text fill="black" y="-9" dy="0em" font-family="Arial" font-size="12px" style="cursor: default;">900</text></g></g></g><rect fill="white" fill-opacity="0" x="0" y="-23" width="1260" height="26"/></g><g transform="translate(1260, 0)"/></g><g data-testid="sja_sample_menu_opener" transform="translate(0, 31)"><g transform="translate(1385.3984375, 0)"/><g transform="translate(125.3984375, 0)"><rect fill="white" fill-opacity="0" width="1260" height="127.846875"/><g transform="translate(0,0)" style="cursor: default;"><g class="sja_skg" transform="translate(110.85106658935547, 94.046875)"><g transform="translate(0, -7)" class="sja_aa_discg"><circle fill="#2ca02c" stroke="white" r="6.5"/><text font-size="12" fill="#2ca02c" x="8" y="3.5999999999999996" font-family="Arial" class="sja_aa_disclabel" fill-opacity="1" transform="scale(1) rotate(0)">c.261C&gt;T(p.=)</text><circle r="6.5" stroke="#2ca02c" class="sja_aa_disckick" fill="white" fill-opacity="0" stroke-opacity="0" transform="scale(1)"/><path d="M4.286263797015736e-16,-7L4.286263797015736e-16,-7Z" fill="#2ca02c" class="sja_aa_discrim" fill-opacity="1" stroke-opacity="1"/></g><circle class="sja_aa_skkick" fill="white" fill-opacity="0" stroke="none" r="8" cy="-7" transform="scale(0)"/><path class="sja_aa_stem" d="M0,0v0l0,0v23.799999999999997" stroke="#2ca02c" fill="none"/></g><g class="sja_skg" transform="translate(285.74468994140625, 94.046875)"><g transform="translate(0, -7)" class="sja_aa_discg"><circle fill="#2ca02c" stroke="white" r="6.5"/><text font-size="12" fill="#2ca02c" x="8" y="3.5999999999999996" font-family="Arial" class="sja_aa_disclabel" fill-opacity="1" transform="scale(1) rotate(0)">c.672C&gt;A(p.=)</text><circle r="6.5" stroke="#2ca02c" class="sja_aa_disckick" fill="white" fill-opacity="0" stroke-opacity="0" transform="scale(1)"/><path d="M4.286263797015736e-16,-7L4.286263797015736e-16,-7Z" fill="#2ca02c" class="sja_aa_discrim" fill-opacity="1" stroke-opacity="1"/></g><circle class="sja_aa_skkick" fill="white" fill-opacity="0" stroke="none" r="8" cy="-7" transform="scale(0)"/><path class="sja_aa_stem" d="M0,0v0l0,0v23.799999999999997" stroke="#2ca02c" fill="none"/></g><g class="sja_skg" transform="translate(630.85107421875, 94.046875)"><g transform="translate(0, -7)" class="sja_aa_discg"><circle fill="#3987CC" stroke="white" r="6.5"/><text font-size="12" fill="#3987CC" x="8" y="3.5999999999999996" font-family="Arial" class="sja_aa_disclabel" fill-opacity="1" transform="scale(1) rotate(0)">p.Val495Met</text><circle r="6.5" stroke="#3987CC" class="sja_aa_disckick" fill="white" fill-opacity="0" stroke-opacity="0" transform="scale(1)"/><path d="M4.286263797015736e-16,-7L4.286263797015736e-16,-7Z" fill="#3987CC" class="sja_aa_discrim" fill-opacity="1" stroke-opacity="1"/></g><circle class="sja_aa_skkick" fill="white" fill-opacity="0" stroke="none" r="8" cy="-7" transform="scale(0)"/><path class="sja_aa_stem" d="M0,0v0l0,0v23.799999999999997" stroke="#3987CC" fill="none"/></g><g class="sja_skg" transform="translate(869.574462890625, 94.046875)"><g transform="translate(0, -7)" class="sja_aa_discg"><circle fill="#3987CC" stroke="white" r="6.5"/><text font-size="12" fill="#3987CC" x="8" y="3.5999999999999996" font-family="Arial" class="sja_aa_disclabel" fill-opacity="1" transform="scale(1) rotate(0)">p.Val683Ile</text><circle r="6.5" stroke="#3987CC" class="sja_aa_disckick" fill="white" fill-opacity="0" stroke-opacity="0" transform="scale(1)"/><path d="M4.286263797015736e-16,-7L4.286263797015736e-16,-7Z" fill="#3987CC" class="sja_aa_discrim" fill-opacity="1" stroke-opacity="1"/></g><circle class="sja_aa_skkick" fill="white" fill-opacity="0" stroke="none" r="8" cy="-7" transform="scale(0)"/><path class="sja_aa_stem" d="M0,0v0l0,0v23.799999999999997" stroke="#3987CC" fill="none"/></g></g><g/><g transform="scale(0)"><rect fill="white" fill-opacity="0.5" width="1260" height="0"/><text data-testid="loading_message" fill="rgb(97, 124, 148)" fill-opacity="1" font-weight="bold" font-size="18px" text-anchor="middle" dominant-baseline="middle" x="630" y="15">Loading ...</text><line stroke="rgb(97, 124, 148)" stroke-width="2px" y1="30" y2="30" x2="0"/></g></g><g transform="translate(122.3984375, 0)"><text font-size="14" font-family="Arial" y="7" text-anchor="end" dominant-baseline="central" fill="black" x="-10" font-weight="bold">GAMBL DLBCL</text><g/><text font-size="14" font-family="Arial" y="26" text-anchor="end" dominant-baseline="central" class="sja_clbtext2" fill="black" x="-10">4 of 8 mutations</text></g><g transform="translate(1395.3984375, 0)"/></g><g data-testid="sja_sample_menu_opener" transform="translate(0, 205.8468780517578)"><g transform="translate(1385.3984375, 0)"/><g transform="translate(125.3984375,0)"><rect fill="white" fill-opacity="0" width="1260" height="24"/><g transform="translate(0,0)" style="cursor: default;"/><g/><g transform="scale(0)"><rect fill="white" fill-opacity="0.5" width="1260" height="0"/><text data-testid="loading_message" fill="rgb(97, 124, 148)" fill-opacity="1" font-weight="bold" font-size="18px" text-anchor="middle" dominant-baseline="middle" x="630" y="15">Loading ...</text><line stroke="rgb(97, 124, 148)" stroke-width="2px" y1="30" y2="30" x2="0"/></g></g><g transform="translate(122.3984375,0)"><text font-size="14" font-family="Arial" y="7" text-anchor="end" dominant-baseline="central" fill="black" x="-10" font-weight="bold">GAMBL FL</text><g/><text font-size="14" font-family="Arial" y="26" text-anchor="end" dominant-baseline="central" class="sja_clbtext2" fill="black" x="-10"/></g><g transform="translate(1395.3984375,0)"/></g><g data-testid="sja_sample_menu_opener" transform="translate(0, 229.8468780517578)"><g transform="translate(1385.3984375, 0)"/><g transform="translate(125.3984375,0)"><rect fill="white" fill-opacity="0" width="1260" height="162.5109375"/><g transform="translate(0,0)" style="cursor: default;"><g class="sja_skg" transform="translate(73.40425872802734, 51.79999923706055)"><g transform="translate(0, 7)" class="sja_aa_discg"><circle fill="#3987CC" stroke="white" r="6.5"/><text font-size="12" fill="#3987CC" x="8" y="3.5999999999999996" font-family="Arial" class="sja_aa_disclabel" fill-opacity="1" transform="scale(1) rotate(0)">p.Thr58Met</text><circle r="6.5" stroke="#3987CC" class="sja_aa_disckick" fill="white" fill-opacity="0" stroke-opacity="0" transform="scale(1)"/><path d="M4.286263797015736e-16,-7L4.286263797015736e-16,-7Z" fill="#3987CC" class="sja_aa_discrim" fill-opacity="1" stroke-opacity="1"/></g><circle class="sja_aa_skkick" fill="white" fill-opacity="0" stroke="none" r="8" cy="7" transform="scale(0)"/><path class="sja_aa_stem" d="M0,0v-14l0,-14v-23.799999999999997" stroke="#3987CC" fill="none"/></g><g class="sja_skg" transform="translate(1087.44677734375, 51.79999923706055)"><g transform="translate(0, 7)" class="sja_aa_discg"><circle fill="#2ca02c" stroke="white" r="6.5"/><text font-size="12" fill="#2ca02c" x="8" y="3.5999999999999996" font-family="Arial" class="sja_aa_disclabel" fill-opacity="1" transform="rotate(90)">c.2559G&gt;T(p.=)</text><circle r="6.5" stroke="#2ca02c" class="sja_aa_disckick" fill="white" fill-opacity="0" stroke-opacity="0" transform="scale(1)"/><path d="M4.286263797015736e-16,-7L4.286263797015736e-16,-7Z" fill="#2ca02c" class="sja_aa_discrim" fill-opacity="1" stroke-opacity="1"/></g><circle class="sja_aa_skkick" fill="white" fill-opacity="0" stroke="none" r="8" cy="7" transform="scale(0)"/><path class="sja_aa_stem" d="M0,0v-14l0,-14v-23.799999999999997" stroke="#2ca02c" fill="none"/></g><g class="sja_skg" transform="translate(1125.74462890625, 51.79999923706055)"><g transform="translate(0, 7)" class="sja_aa_discg"><circle fill="#3987CC" stroke="white" r="6.5"/><text font-size="12" fill="#3987CC" x="8" y="3.5999999999999996" font-family="Arial" class="sja_aa_disclabel" fill-opacity="1" transform="scale(1) rotate(0)">p.Lys883Asn</text><circle r="6.5" stroke="#3987CC" class="sja_aa_disckick" fill="white" fill-opacity="0" stroke-opacity="0" transform="scale(1)"/><path d="M4.286263797015736e-16,-7L4.286263797015736e-16,-7Z" fill="#3987CC" class="sja_aa_discrim" fill-opacity="1" stroke-opacity="1"/></g><circle class="sja_aa_skkick" fill="white" fill-opacity="0" stroke="none" r="8" cy="7" transform="scale(0)"/><path class="sja_aa_stem" d="M0,0v-14l0,-14v-23.799999999999997" stroke="#3987CC" fill="none"/></g></g><g/><g transform="scale(0)"><rect fill="white" fill-opacity="0.5" width="1260" height="0"/><text data-testid="loading_message" fill="rgb(97, 124, 148)" fill-opacity="1" font-weight="bold" font-size="18px" text-anchor="middle" dominant-baseline="middle" x="630" y="15">Loading ...</text><line stroke="rgb(97, 124, 148)" stroke-width="2px" y1="30" y2="30" x2="0"/></g></g><g transform="translate(122.3984375,0)"><text font-size="14" font-family="Arial" y="7" text-anchor="end" dominant-baseline="central" fill="black" x="-10" font-weight="bold">GAMBL BL</text><g/><text font-size="14" font-family="Arial" y="26" text-anchor="end" dominant-baseline="central" class="sja_clbtext2" fill="black" x="-10">3 of 4 mutations</text></g><g transform="translate(1395.3984375,0)"/></g><g data-testid="sja_sample_menu_opener" transform="translate(0, 392.3578186035156)"><g transform="translate(1385.3984375, 0)"/><g transform="translate(125.3984375,0)"><rect fill="white" fill-opacity="0" width="1260" height="24"/><g transform="translate(0,0)" style="cursor: default;"/><g/><g transform="scale(0)"><rect fill="white" fill-opacity="0.5" width="1260" height="0"/><text data-testid="loading_message" fill="rgb(97, 124, 148)" fill-opacity="1" font-weight="bold" font-size="18px" text-anchor="middle" dominant-baseline="middle" x="630" y="15">Loading ...</text><line stroke="rgb(97, 124, 148)" stroke-width="2px" y1="30" y2="30" x2="0"/></g></g><g transform="translate(122.3984375,0)"><text font-size="14" font-family="Arial" y="7" text-anchor="end" dominant-baseline="central" fill="black" x="-10" font-weight="bold">GAMBL MCL</text><g/><text font-size="14" font-family="Arial" y="26" text-anchor="end" dominant-baseline="central" class="sja_clbtext2" fill="black" x="-10"/></g><g transform="translate(1395.3984375,0)"/></g><g data-testid="sja_sample_menu_opener" transform="translate(0, 158.8468780517578)"><g transform="translate(1385.3984375, 0)"/><g transform="translate(125.3984375,0)"><rect fill="white" fill-opacity="0" width="1260" height="47"/><g transform="translate(0,0)" style="cursor: default;"><g><line x1="0" y1="18.5" x2="1260" y2="18.5" stroke="black" shape-rendering="crispEdges"/><rect x="0" width="25.95744680851064" height="37" fill="white"/><rect x="22.97872340425532" width="2.978723404255319" height="37" fill="#ffd92f"/><rect x="25.95744680851064" width="27.659574468085108" height="37" fill="white"/><rect x="25.95744680851064" width="27.659574468085108" height="37" fill="#ffd92f"/><rect x="34.46808510638298" width="3.8297872340425534" height="37" fill="#8dd3c7"/><rect x="39.57446808510638" width="1.2765957446808511" height="37" fill="#8dd3c7"/><rect x="53.61702127659575" width="291.48936170212767" height="37" fill="white"/><rect x="53.61702127659575" width="196.59574468085106" height="37" fill="#ffd92f"/><rect x="188.93617021276597" width="10.212765957446809" height="37" fill="#8dd3c7"/><rect x="54.893617021276604" width="5.1063829787234045" height="37" fill="#8dd3c7"/><rect x="117.4468085106383" width="3.8297872340425534" height="37" fill="#8dd3c7"/><rect x="200.4255319148936" width="2.5531914893617023" height="37" fill="#8dd3c7"/><rect x="236.17021276595744" width="1.2765957446808511" height="37" fill="#8dd3c7"/><rect x="127.65957446808511" width="1.2765957446808511" height="37" fill="#8dd3c7"/><rect x="125.10638297872342" width="1.2765957446808511" height="37" fill="#8dd3c7"/><rect x="186.38297872340425" width="1.2765957446808511" height="37" fill="#8dd3c7"/><rect x="238.72340425531917" width="1.2765957446808511" height="37" fill="#8dd3c7"/><rect x="68.93617021276596" width="1.2765957446808511" height="37" fill="#8dd3c7"/><rect x="61.276595744680854" width="1.2765957446808511" height="37" fill="#8dd3c7"/><rect x="71.48936170212767" width="1.2765957446808511" height="37" fill="#8dd3c7"/><rect x="75.31914893617022" width="1.2765957446808511" height="37" fill="#8dd3c7"/><rect x="66.38297872340426" width="1.2765957446808511" height="37" fill="#8dd3c7"/><rect x="233.61702127659575" width="1.2765957446808511" height="37" fill="#8dd3c7"/><rect x="345.10638297872345" width="66.38297872340425" height="37" fill="white"/><rect x="411.48936170212767" width="142.97872340425533" height="37" fill="white"/><rect x="414.8936170212766" width="120" height="37" fill="#8dd3c7"/><rect x="534.8936170212766" width="2.5531914893617023" height="37" fill="#e5c494"/><rect x="509.36170212765956" width="1.2765957446808511" height="37" fill="#b3b3b3"/><rect x="532.3404255319149" width="1.2765957446808511" height="37" fill="#e5c494"/><rect x="529.7872340425532" width="1.2765957446808511" height="37" fill="#e5c494"/><rect x="413.6170212765958" width="1.2765957446808511" height="37" fill="#b3b3b3"/><rect x="528.5106382978723" width="1.2765957446808511" height="37" fill="#b3b3b3"/><rect x="554.468085106383" width="53.191489361702125" height="37" fill="white"/><rect x="556.5957446808511" width="51.06382978723404" height="37" fill="#8dd3c7"/><rect x="555.3191489361702" width="1.2765957446808511" height="37" fill="#b3b3b3"/><rect x="607.6595744680851" width="69.36170212765957" height="37" fill="white"/><rect x="607.6595744680851" width="54.8936170212766" height="37" fill="#8dd3c7"/><rect x="661.2765957446809" width="2.5531914893617023" height="37" fill="#e5c494"/><rect x="657.4468085106383" width="2.5531914893617023" height="37" fill="#e5c494"/><rect x="656.1702127659574" width="1.2765957446808511" height="37" fill="#b3b3b3"/><rect x="637.0212765957447" width="1.2765957446808511" height="37" fill="#b3b3b3"/><rect x="677.0212765957447" width="46.38297872340426" height="37" fill="white"/><rect x="698.2978723404256" width="25.106382978723403" height="37" fill="#E8E89E"/><rect x="723.4042553191489" width="27.659574468085108" height="37" fill="white"/><rect x="723.4042553191489" width="27.659574468085108" height="37" fill="#E8E89E"/><rect x="751.063829787234" width="52.340425531914896" height="37" fill="white"/><rect x="785.1063829787233" width="18.29787234042553" height="37" fill="#fb8072"/><rect x="751.063829787234" width="35.319148936170215" height="37" fill="#E8E89E"/><rect x="799.1489361702127" width="3.8297872340425534" height="37" fill="#E8E89E"/><rect x="803.4042553191489" width="105.53191489361703" height="37" fill="white"/><rect x="803.4042553191489" width="105.53191489361703" height="37" fill="#fb8072"/><rect x="891.063829787234" width="2.5531914893617023" height="37" fill="#E8E89E"/><rect x="809.3617021276596" width="1.2765957446808511" height="37" fill="#E8E89E"/><rect x="829.7872340425531" width="1.2765957446808511" height="37" fill="#E8E89E"/><rect x="900" width="1.2765957446808511" height="37" fill="#E8E89E"/><rect x="894.8936170212766" width="1.2765957446808511" height="37" fill="#E8E89E"/><rect x="804.2553191489361" width="1.2765957446808511" height="37" fill="#E8E89E"/><rect x="832.3404255319149" width="1.2765957446808511" height="37" fill="#E8E89E"/><rect x="908.9361702127659" width="91.91489361702128" height="37" fill="white"/><rect x="908.9361702127659" width="91.91489361702128" height="37" fill="#fb8072"/><rect x="972.7659574468084" width="28.085106382978722" height="37" fill="#80b1d3"/><rect x="959.9999999999999" width="1.2765957446808511" height="37" fill="#E8E89E"/><rect x="951.063829787234" width="1.2765957446808511" height="37" fill="#fb8072"/><rect x="974.0425531914893" width="1.2765957446808511" height="37" fill="#E8E89E"/><rect x="957.4468085106382" width="1.2765957446808511" height="37" fill="#E8E89E"/><rect x="956.1702127659573" width="1.2765957446808511" height="37" fill="#fb8072"/><rect x="1000.8510638297871" width="63.829787234042556" height="37" fill="white"/><rect x="1000.8510638297871" width="63.829787234042556" height="37" fill="#fb8072"/><rect x="1000.8510638297871" width="8.936170212765958" height="37" fill="#80b1d3"/><rect x="1000.8510638297871" width="6.382978723404255" height="37" fill="#fb8072"/><rect x="1060.851063829787" width="1.2765957446808511" height="37" fill="#fb8072"/><rect x="1017.4468085106382" width="1.2765957446808511" height="37" fill="#fb8072"/><rect x="1064.6808510638298" width="82.55319148936171" height="37" fill="white"/><rect x="1064.6808510638298" width="63.829787234042556" height="37" fill="#fb8072"/><rect x="1147.2340425531916" width="66.38297872340425" height="37" fill="white"/><rect x="1160.4255319148938" width="53.191489361702125" height="37" fill="#80b1d3"/><rect x="1206.3829787234042" width="7.23404255319149" height="37" fill="#bebada"/><rect x="1162.9787234042553" width="2.5531914893617023" height="37" fill="#bebada"/><rect x="1202.5531914893618" width="2.5531914893617023" height="37" fill="#bebada"/><rect x="1162.9787234042553" width="1.2765957446808511" height="37" fill="#a6d854"/><rect x="1194.8936170212767" width="1.2765957446808511" height="37" fill="#bebada"/><rect x="1201.276595744681" width="1.2765957446808511" height="37" fill="#a6d854"/><rect x="1166.808510638298" width="1.2765957446808511" height="37" fill="#a6d854"/><rect x="1174.4680851063831" width="1.2765957446808511" height="37" fill="#a6d854"/><rect x="1166.808510638298" width="1.2765957446808511" height="37" fill="#bebada"/><rect x="1185.9574468085107" width="1.2765957446808511" height="37" fill="#fdb462"/><rect x="1213.6170212765958" width="46.38297872340426" height="37" fill="white"/><rect x="1213.6170212765958" width="37.4468085106383" height="37" fill="#80b1d3"/><rect x="1213.6170212765958" width="1" height="37" fill="#bebada"/><rect x="1224.2553191489362" width="5.1063829787234045" height="37" fill="#bebada"/><rect x="1230.6382978723404" width="2.5531914893617023" height="37" fill="#bebada"/><rect x="1240.8510638297873" width="2.5531914893617023" height="37" fill="#a6d854"/><rect x="1247.2340425531916" width="2.5531914893617023" height="37" fill="#bebada"/><rect x="1214.0425531914893" width="1.2765957446808511" height="37" fill="#bebada"/><rect x="1239.5744680851064" width="1.2765957446808511" height="37" fill="#bebada"/><rect x="1237.0212765957447" width="1.2765957446808511" height="37" fill="#a6d854"/><rect x="1228.0851063829787" width="1.2765957446808511" height="37" fill="#fdb462"/><rect x="1216.595744680851" width="1.2765957446808511" height="37" fill="#bebada"/><rect x="1242.1276595744682" width="1.2765957446808511" height="37" fill="#bebada"/><rect x="1247.2340425531916" width="1.2765957446808511" height="37" fill="#bebada"/><rect x="1243.404255319149" width="1.2765957446808511" height="37" fill="#bebada"/><line x1="0" x2="1260" stroke="black"/><line x1="0" x2="1260" y1="37" y2="37" stroke="black"/><line x1="0" x2="0" y2="37" stroke="black"/><line x1="1260" x2="1260" y2="37" stroke="black"/><line class="exonboundaryclass" x1="25.95744680851064" x2="25.95744680851064" y1="0" y2="37" stroke="black" stroke-dasharray="4,2" shape-rendering="crispEdges" stroke-opacity="1"/><line class="exonboundaryclass" x1="53.61702127659575" x2="53.61702127659575" y1="0" y2="37" stroke="black" stroke-dasharray="4,2" shape-rendering="crispEdges" stroke-opacity="1"/><line class="exonboundaryclass" x1="345.10638297872345" x2="345.10638297872345" y1="0" y2="37" stroke="black" stroke-dasharray="4,2" shape-rendering="crispEdges" stroke-opacity="1"/><line class="exonboundaryclass" x1="411.48936170212767" x2="411.48936170212767" y1="0" y2="37" stroke="black" stroke-dasharray="4,2" shape-rendering="crispEdges" stroke-opacity="1"/><line class="exonboundaryclass" x1="554.468085106383" x2="554.468085106383" y1="0" y2="37" stroke="black" stroke-dasharray="4,2" shape-rendering="crispEdges" stroke-opacity="1"/><line class="exonboundaryclass" x1="607.6595744680851" x2="607.6595744680851" y1="0" y2="37" stroke="black" stroke-dasharray="4,2" shape-rendering="crispEdges" stroke-opacity="1"/><line class="exonboundaryclass" x1="677.0212765957447" x2="677.0212765957447" y1="0" y2="37" stroke="black" stroke-dasharray="4,2" shape-rendering="crispEdges" stroke-opacity="1"/><line class="exonboundaryclass" x1="723.4042553191489" x2="723.4042553191489" y1="0" y2="37" stroke="black" stroke-dasharray="4,2" shape-rendering="crispEdges" stroke-opacity="1"/><line class="exonboundaryclass" x1="751.063829787234" x2="751.063829787234" y1="0" y2="37" stroke="black" stroke-dasharray="4,2" shape-rendering="crispEdges" stroke-opacity="1"/><line class="exonboundaryclass" x1="803.4042553191489" x2="803.4042553191489" y1="0" y2="37" stroke="black" stroke-dasharray="4,2" shape-rendering="crispEdges" stroke-opacity="1"/><line class="exonboundaryclass" x1="908.9361702127659" x2="908.9361702127659" y1="0" y2="37" stroke="black" stroke-dasharray="4,2" shape-rendering="crispEdges" stroke-opacity="1"/><line class="exonboundaryclass" x1="1000.8510638297871" x2="1000.8510638297871" y1="0" y2="37" stroke="black" stroke-dasharray="4,2" shape-rendering="crispEdges" stroke-opacity="1"/><line class="exonboundaryclass" x1="1064.6808510638298" x2="1064.6808510638298" y1="0" y2="37" stroke="black" stroke-dasharray="4,2" shape-rendering="crispEdges" stroke-opacity="1"/><line class="exonboundaryclass" x1="1147.2340425531916" x2="1147.2340425531916" y1="0" y2="37" stroke="black" stroke-dasharray="4,2" shape-rendering="crispEdges" stroke-opacity="1"/><line class="exonboundaryclass" x1="1213.6170212765958" x2="1213.6170212765958" y1="0" y2="37" stroke="black" stroke-dasharray="4,2" shape-rendering="crispEdges" stroke-opacity="1"/><g transform="translate(0,18.5)" fill="none" font-size="10" font-family="sans-serif" text-anchor="middle"><path class="domain" stroke="none" d="M0.6382978723404256,0H1260" fill="none" stroke-width="0" shape-rendering="crispEdges"/><g class="tick" opacity="1" transform="translate(126.968085106383,0)"><line stroke="black" y2="0" shape-rendering="crispEdges"/><text fill="black" y="3" dy="0.71em" font-family="Arial" font-size="11.666666666666666px" style="cursor: default;">100</text></g><g class="tick" opacity="1" transform="translate(254.53434117207917,0)"><line stroke="black" y2="0" shape-rendering="crispEdges"/><text fill="black" y="3" dy="0.71em" font-family="Arial" font-size="11.666666666666666px" style="cursor: default;">200</text></g><g class="tick" opacity="1" transform="translate(382.2217675941081,0)"><line stroke="black" y2="0" shape-rendering="crispEdges"/><text fill="black" y="3" dy="0.71em" font-family="Arial" font-size="11.666666666666666px" style="cursor: default;">300</text></g><g class="tick" opacity="1" transform="translate(509.85372340425533,0)"><line stroke="black" y2="0" shape-rendering="crispEdges"/><text fill="black" y="3" dy="0.71em" font-family="Arial" font-size="11.666666666666666px" style="cursor: default;">400</text></g><g class="tick" opacity="1" transform="translate(637.5689519306541,0)"><line stroke="black" y2="0" shape-rendering="crispEdges"/><text fill="black" y="3" dy="0.71em" font-family="Arial" font-size="11.666666666666666px" style="cursor: default;">500</text></g><g class="tick" opacity="1" transform="translate(765.2620653866113,0)"><line stroke="black" y2="0" shape-rendering="crispEdges"/><text fill="black" y="3" dy="0.71em" font-family="Arial" font-size="11.666666666666666px" style="cursor: default;">600</text></g><g class="tick" opacity="1" transform="translate(892.4403998974622,0)"><line stroke="black" y2="0" shape-rendering="crispEdges"/><text fill="black" y="3" dy="0.71em" font-family="Arial" font-size="11.666666666666666px" style="cursor: default;">700</text></g><g class="tick" opacity="1" transform="translate(1020.4468085106382,0)"><line stroke="black" y2="0" shape-rendering="crispEdges"/><text fill="black" y="3" dy="0.71em" font-family="Arial" font-size="11.666666666666666px" style="cursor: default;">800</text></g><g class="tick" opacity="1" transform="translate(1148.3019639934535,0)"><line stroke="black" y2="0" shape-rendering="crispEdges"/><text fill="black" y="3" dy="0.71em" font-family="Arial" font-size="11.666666666666666px" style="cursor: default;">900</text></g></g><rect x="0" width="25.95744680851064" height="37" fill="#858585" fill-opacity="0"/><rect x="25.95744680851064" width="27.659574468085108" height="37" fill="#858585" fill-opacity="0"/><rect x="53.61702127659575" width="291.48936170212767" height="37" fill="#858585" fill-opacity="0"/><rect x="345.10638297872345" width="66.38297872340425" height="37" fill="#858585" fill-opacity="0"/><rect x="411.48936170212767" width="142.97872340425533" height="37" fill="#858585" fill-opacity="0"/><rect x="554.468085106383" width="53.191489361702125" height="37" fill="#858585" fill-opacity="0"/><rect x="607.6595744680851" width="69.36170212765957" height="37" fill="#858585" fill-opacity="0"/><rect x="677.0212765957447" width="46.38297872340426" height="37" fill="#858585" fill-opacity="0"/><rect x="723.4042553191489" width="27.659574468085108" height="37" fill="#858585" fill-opacity="0"/><rect x="751.063829787234" width="52.340425531914896" height="37" fill="#858585" fill-opacity="0"/><rect x="803.4042553191489" width="105.53191489361703" height="37" fill="#858585" fill-opacity="0"/><rect x="908.9361702127659" width="91.91489361702128" height="37" fill="#858585" fill-opacity="0"/><rect x="1000.8510638297871" width="63.829787234042556" height="37" fill="#858585" fill-opacity="0"/><rect x="1064.6808510638298" width="82.55319148936171" height="37" fill="#858585" fill-opacity="0"/><rect x="1147.2340425531916" width="66.38297872340425" height="37" fill="#858585" fill-opacity="0"/><rect x="1213.6170212765958" width="46.38297872340426" height="37" fill="#858585" fill-opacity="0"/></g></g><g/><g transform="scale(0)"><rect fill="white" fill-opacity="0"/><text data-testid="loading_message" fill="rgb(97, 124, 148)" fill-opacity="0" font-weight="bold" font-size="18px" text-anchor="middle" dominant-baseline="middle">Loading ...</text><line stroke="rgb(97, 124, 148)" stroke-width="2px"/></g></g><g transform="translate(122.3984375,0)"><text font-size="14" font-family="Arial" y="7" text-anchor="end" dominant-baseline="central" fill="black" x="-10" font-weight="bold">EPHB2</text><text font-size="14" font-family="Arial" y="20" text-anchor="end" dominant-baseline="central" fill="black" x="-10">NM_017449</text></g><g transform="translate(1395.3984375,0)"><text fill="#aaa" font-family="Arial" font-size="14" y="14" class="sja_clbtext2"/></g></g></g><g transform="scale(0)"><rect fill="white"/><text id="loadinggCloak" fill="rgb(97, 124, 148)" fill-opacity="0" font-weight="bold" font-size="18px" text-anchor="middle" dominant-baseline="middle">Loading ...</text></g><g/><g transform="translate(124.3984375,431.3578125)"><g transform="translate(0,0)"><rect width="15" height="20" stroke="rgb(179, 152, 33)" fill="#ffd92f" shape-rendering="crispEdges"/><text x="20" y="10" dominant-baseline="central" font-size="16" font-family="Arial" fill="black">EphR_LBD_B2</text><text x="138.515625" y="10" dominant-baseline="central" font-size="12" font-family="Arial" fill="#858585">Ligand Binding Domain of Ephrin type-B Receptor 2</text></g><g transform="translate(0,23)"><rect width="15" height="20" stroke="rgb(99, 148, 139)" fill="#8dd3c7" shape-rendering="crispEdges"/><text x="20" y="10" dominant-baseline="central" font-size="16" font-family="Arial" fill="black">other</text><text x="66.6875" y="10" dominant-baseline="central" font-size="12" font-family="Arial" fill="#858585">ephrin binding site [polypeptide binding]</text></g><g transform="translate(0,46)"><rect width="15" height="20" stroke="rgb(125, 125, 125)" fill="#b3b3b3" shape-rendering="crispEdges"/><text x="20" y="10" dominant-baseline="central" font-size="16" font-family="Arial" fill="black">other</text><text x="66.6875" y="10" dominant-baseline="central" font-size="12" font-family="Arial" fill="#858585">Interdomain contacts</text></g><g transform="translate(0,69)"><rect width="15" height="20" stroke="rgb(99, 148, 139)" fill="#8dd3c7" shape-rendering="crispEdges"/><text x="20" y="10" dominant-baseline="central" font-size="16" font-family="Arial" fill="black">fn3</text><text x="52.2421875" y="10" dominant-baseline="central" font-size="12" font-family="Arial" fill="#858585">Fibronectin type III domain</text></g><g transform="translate(0,92)"><rect width="15" height="20" stroke="rgb(160, 137, 104)" fill="#e5c494" shape-rendering="crispEdges"/><text x="20" y="10" dominant-baseline="central" font-size="16" font-family="Arial" fill="black">other</text><text x="66.6875" y="10" dominant-baseline="central" font-size="12" font-family="Arial" fill="#858585">Cytokine receptor motif</text></g><g transform="translate(0,115)"><rect width="15" height="20" stroke="rgb(162, 162, 111)" fill="#E8E89E" shape-rendering="crispEdges"/><text x="20" y="10" dominant-baseline="central" font-size="16" font-family="Arial" fill="black">EphA2_TM</text><text x="110.0390625" y="10" dominant-baseline="central" font-size="12" font-family="Arial" fill="#858585">Ephrin type-A receptor 2 transmembrane domain</text></g><g transform="translate(0,138)"><rect width="15" height="20" stroke="rgb(176, 90, 80)" fill="#fb8072" shape-rendering="crispEdges"/><text x="20" y="10" dominant-baseline="central" font-size="16" font-family="Arial" fill="black">PTKc_EphR_B</text><text x="137.609375" y="10" dominant-baseline="central" font-size="12" font-family="Arial" fill="#858585">Catalytic domain of the Protein Tyrosine Kinases, Class EphB Ephrin Receptors</text></g><g transform="translate(0,161)"><rect width="15" height="20" stroke="rgb(162, 162, 111)" fill="#E8E89E" shape-rendering="crispEdges"/><text x="20" y="10" dominant-baseline="central" font-size="16" font-family="Arial" fill="black">other</text><text x="66.6875" y="10" dominant-baseline="central" font-size="12" font-family="Arial" fill="#858585">ATP binding site [chemical binding]</text></g><g transform="translate(0,184)"><rect width="15" height="20" stroke="rgb(176, 90, 80)" fill="#fb8072" shape-rendering="crispEdges"/><text x="20" y="10" dominant-baseline="central" font-size="16" font-family="Arial" fill="black">other</text><text x="66.6875" y="10" dominant-baseline="central" font-size="12" font-family="Arial" fill="#858585">polypeptide substrate binding site [polypeptide binding]</text></g><g transform="translate(0,207)"><rect width="15" height="20" stroke="rgb(90, 124, 148)" fill="#80b1d3" shape-rendering="crispEdges"/><text x="20" y="10" dominant-baseline="central" font-size="16" font-family="Arial" fill="black">other</text><text x="66.6875" y="10" dominant-baseline="central" font-size="12" font-family="Arial" fill="#858585">activation loop (A-loop)</text></g><g transform="translate(0,230)"><rect width="15" height="20" stroke="rgb(90, 124, 148)" fill="#80b1d3" shape-rendering="crispEdges"/><text x="20" y="10" dominant-baseline="central" font-size="16" font-family="Arial" fill="black">SAM_EPH-B2</text><text x="131.3671875" y="10" dominant-baseline="central" font-size="12" font-family="Arial" fill="#858585">SAM domain of EPH-B2 subfamily of tyrosine kinase receptors</text></g><g transform="translate(0,253)"><rect width="15" height="20" stroke="rgb(133, 130, 153)" fill="#bebada" shape-rendering="crispEdges"/><text x="20" y="10" dominant-baseline="central" font-size="16" font-family="Arial" fill="black">other</text><text x="66.6875" y="10" dominant-baseline="central" font-size="12" font-family="Arial" fill="#858585">homooligomer interface [polypeptide binding]</text></g><g transform="translate(0,276)"><rect width="15" height="20" stroke="rgb(116, 151, 59)" fill="#a6d854" shape-rendering="crispEdges"/><text x="20" y="10" dominant-baseline="central" font-size="16" font-family="Arial" fill="black">other</text><text x="66.6875" y="10" dominant-baseline="central" font-size="12" font-family="Arial" fill="#858585">putative homodimer interface (head-to-head) [polypeptide binding]</text></g><g transform="translate(0,299)"><rect width="15" height="20" stroke="rgb(177, 126, 69)" fill="#fdb462" shape-rendering="crispEdges"/><text x="20" y="10" dominant-baseline="central" font-size="16" font-family="Arial" fill="black">other</text><text x="66.6875" y="10" dominant-baseline="central" font-size="12" font-family="Arial" fill="#858585">putative phosphorylation site [posttranslational modification]</text></g><g transform="translate(0,322)"><rect width="15" height="20" stroke="rgb(133, 130, 153)" fill="#bebada" shape-rendering="crispEdges"/><text x="20" y="10" dominant-baseline="central" font-size="16" font-family="Arial" fill="black">other</text><text x="66.6875" y="10" dominant-baseline="central" font-size="12" font-family="Arial" fill="#858585">homodimer interface (tail-to-tail) [polypeptide binding]</text></g></g><g transform="translate(1187.3984375,431.3578125)"><g transform="translate(0,0)"><circle cx="10" cy="10" r="10" fill="#2ca02c"/><text x="30" y="10" dominant-baseline="central" font-size="16" font-family="Arial" fill="#2ca02c">SILENT, n=3</text></g><g transform="translate(0,23)"><circle cx="10" cy="10" r="10" fill="#3987CC"/><text x="30" y="10" dominant-baseline="central" font-size="16" font-family="Arial" fill="#3987CC">MISSENSE, n=4</text></g><g transform="translate(0,46)"><circle cx="10" cy="10" r="10" fill="#998199"/><text x="30" y="10" dominant-baseline="central" font-size="16" font-family="Arial" fill="#998199">UTR_3, n=3</text></g><g transform="translate(0,69)"><circle cx="10" cy="10" r="10" fill="#bd8e91"/><text x="30" y="10" dominant-baseline="central" font-size="16" font-family="Arial" fill="#bd8e91">Sequence insertion, n=1</text></g><g transform="translate(0,92)"><circle cx="10" cy="10" r="10" fill="#b5a174"/><text x="30" y="10" dominant-baseline="central" font-size="16" font-family="Arial" fill="#b5a174">Sequence deletion, n=1</text></g><g transform="translate(0,115)"><circle cx="10" cy="10" r="10" fill="#92a2d4"/><text x="30" y="10" dominant-baseline="central" font-size="16" font-family="Arial" fill="#92a2d4">SNV, n=1</text></g></g></svg>