<svg xmlns="http://www.w3.org/2000/svg" data-testid="sjpp_block_svg" width="1335.3984375" height="763.7078125"><g transform="translate(0,0)"><g transform="translate(125.3984375, 0)"/><rect fill="#FFFF99" x="868" width="0" height="516.7078125"/><g transform="translate(125.3984375, 23)"><g transform="translate(0,0)"><text text-anchor="end" x="-13" y="-10" dominant-baseline="central" font-size="13" font-family="Arial">Protein length</text><g><g transform="translate(0,0)" fill="none" font-size="10" font-family="sans-serif" text-anchor="middle"><path class="domain" stroke="black" d="M0,-6V0H1100V-6" fill="none" stroke-width="1" shape-rendering="crispEdges"/><g class="tick" opacity="1" transform="translate(145.7831325301205,0)"><line stroke="black" y2="-6" shape-rendering="crispEdges"/><text fill="black" y="-9" dy="0em" font-family="Arial" font-size="12px" style="cursor: default;">100</text></g><g class="tick" opacity="1" transform="translate(293.0388219544846,0)"><line stroke="black" y2="-6" shape-rendering="crispEdges"/><text fill="black" y="-9" dy="0em" font-family="Arial" font-size="12px" style="cursor: default;">200</text></g><g class="tick" opacity="1" transform="translate(440.2945113788487,0)"><line stroke="black" y2="-6" shape-rendering="crispEdges"/><text fill="black" y="-9" dy="0em" font-family="Arial" font-size="12px" style="cursor: default;">300</text></g><g class="tick" opacity="1" transform="translate(587.5502008032129,0)"><line stroke="black" y2="-6" shape-rendering="crispEdges"/><text fill="black" y="-9" dy="0em" font-family="Arial" font-size="12px" style="cursor: default;">400</text></g><g class="tick" opacity="1" transform="translate(734.8058902275769,0)"><line stroke="black" y2="-6" shape-rendering="crispEdges"/><text fill="black" y="-9" dy="0em" font-family="Arial" font-size="12px" style="cursor: default;">500</text></g><g class="tick" opacity="1" transform="translate(882.0615796519411,0)"><line stroke="black" y2="-6" shape-rendering="crispEdges"/><text fill="black" y="-9" dy="0em" font-family="Arial" font-size="12px" style="cursor: default;">600</text></g><g class="tick" opacity="1" transform="translate(1029.3172690763051,0)"><line stroke="black" y2="-6" shape-rendering="crispEdges"/><text fill="black" y="-9" dy="0em" font-family="Arial" font-size="12px" style="cursor: default;">700</text></g></g></g><rect fill="white" fill-opacity="0" x="0" y="-23" width="1100" height="26"/></g><g transform="translate(1100, 0)"/></g><g data-testid="sja_sample_menu_opener" transform="translate(0, 31)"><g transform="translate(1225.3984375, 0)"/><g transform="translate(125.3984375, 0)"><rect fill="white" fill-opacity="0" width="1100" height="159.175"/><g transform="translate(0,0)" style="cursor: default;"><g class="sja_skg" transform="translate(899, 83.375)"><g transform="translate(0, -7)" class="sja_aa_discg"><circle fill="#3987CC" stroke="white" r="6.5"/><text font-size="12" fill="#3987CC" x="8" y="3.5999999999999996" font-family="Arial" class="sja_aa_disclabel" fill-opacity="1" transform="">p.Tyr646Phe</text><circle r="6.5" stroke="#3987CC" class="sja_aa_disckick" fill="white" fill-opacity="0" stroke-opacity="0" transform="scale(1)"/><path d="M4.286263797015736e-16,-7L4.286263797015736e-16,-7Z" fill="#3987CC" class="sja_aa_discrim" fill-opacity="1" stroke-opacity="1"/></g><g transform="translate(0, -21)" class="sja_aa_discg"><circle fill="#3987CC" stroke="white" r="6.5"/><text font-size="12" fill="#3987CC" x="8" y="3.5999999999999996" font-family="Arial" class="sja_aa_disclabel" fill-opacity="1" transform="">p.Tyr646Cys</text><circle r="6.5" stroke="#3987CC" class="sja_aa_disckick" fill="white" fill-opacity="0" stroke-opacity="0" transform="scale(1)"/><path d="M4.286263797015736e-16,-7L4.286263797015736e-16,-7Z" fill="#3987CC" class="sja_aa_discrim" fill-opacity="1" stroke-opacity="1"/></g><g transform="translate(0, -35)" class="sja_aa_discg"><circle fill="#3987CC" stroke="white" r="6.5"/><text font-size="12" fill="#3987CC" x="8" y="3.5999999999999996" font-family="Arial" class="sja_aa_disclabel" fill-opacity="1" transform="">p.Tyr646Ser</text><circle r="6.5" stroke="#3987CC" class="sja_aa_disckick" fill="white" fill-opacity="0" stroke-opacity="0" transform="scale(1)"/><path d="M4.286263797015736e-16,-7L4.286263797015736e-16,-7Z" fill="#3987CC" class="sja_aa_discrim" fill-opacity="1" stroke-opacity="1"/></g><g transform="translate(0, -49)" class="sja_aa_discg"><circle fill="#3987CC" stroke="white" r="6.5"/><text font-size="12" fill="#3987CC" x="8" y="3.5999999999999996" font-family="Arial" class="sja_aa_disclabel" fill-opacity="1" transform="">p.Tyr646His</text><circle r="6.5" stroke="#3987CC" class="sja_aa_disckick" fill="white" fill-opacity="0" stroke-opacity="0" transform="scale(1)"/><path d="M4.286263797015736e-16,-7L4.286263797015736e-16,-7Z" fill="#3987CC" class="sja_aa_discrim" fill-opacity="1" stroke-opacity="1"/></g><g transform="translate(0, -63)" class="sja_aa_discg"><circle fill="#3987CC" stroke="white" r="6.5"/><text font-size="12" fill="#3987CC" x="8" y="3.5999999999999996" font-family="Arial" class="sja_aa_disclabel" fill-opacity="1" transform="">p.Tyr646Asn</text><circle r="6.5" stroke="#3987CC" class="sja_aa_disckick" fill="white" fill-opacity="0" stroke-opacity="0" transform="scale(1)"/><path d="M4.286263797015736e-16,-7L4.286263797015736e-16,-7Z" fill="#3987CC" class="sja_aa_discrim" fill-opacity="1" stroke-opacity="1"/></g><circle class="sja_aa_skkick" fill="white" fill-opacity="0" stroke="none" r="8" cy="-7" transform="scale(0)"/><path class="sja_aa_stem" d="M0,0v14l44.172690763052174,28v23.799999999999997" stroke="#3987CC" fill="none"/><rect class="sja_aa_ssk_bg" shape-rendering="crispEdges" fill-opacity="0" height="14" fill="#3987CC" width="14" x="-7" transform="scale(1)" y="0"/><text class="sja_aa_ssk_text" fill="white" fill-opacity="0" font-weight="bold" text-anchor="middle" dominant-baseline="central" font-size="14" transform="scale(1)" y="7">5</text><rect class="sja_aa_ssk_kick" fill="white" fill-opacity="0" stroke="none" height="14" x="-7" width="14" transform="scale(1)" y="0"/></g><g class="sja_skg" transform="translate(982.046875, 83.375)"><g transform="translate(0, -7)" class="sja_aa_discg"><circle fill="#3987CC" stroke="white" r="6.5"/><text font-size="12" fill="#3987CC" x="8" y="3.5999999999999996" font-family="Arial" class="sja_aa_disclabel" fill-opacity="1" transform="rotate(-90)">p.Tyr666Asn</text><circle r="6.5" stroke="#3987CC" class="sja_aa_disckick" fill="white" fill-opacity="0" stroke-opacity="0" transform="scale(1)"/><path d="M4.286263797015736e-16,-7L4.286263797015736e-16,-7Z" fill="#3987CC" class="sja_aa_discrim" fill-opacity="1" stroke-opacity="1"/></g><circle class="sja_aa_skkick" fill="white" fill-opacity="0" stroke="none" r="8" cy="-7" transform="scale(0)"/><path class="sja_aa_stem" d="M0,0v14l-9.91389865015617,28v23.799999999999997" stroke="#3987CC" fill="none"/></g><g class="sja_skg" transform="translate(996.046875, 83.375)"><g transform="translate(0, -7)" class="sja_aa_discg"><circle fill="#3987CC" stroke="white" r="6.5"/><text font-size="12" fill="#3987CC" x="8" y="3.5999999999999996" font-family="Arial" class="sja_aa_disclabel" fill-opacity="1" transform="scale(1) rotate(0)">p.Ala682Gly</text><circle r="6.5" stroke="#3987CC" class="sja_aa_disckick" fill="white" fill-opacity="0" stroke-opacity="0" transform="scale(1)"/><path d="M4.286263797015736e-16,-7L4.286263797015736e-16,-7Z" fill="#3987CC" class="sja_aa_discrim" fill-opacity="1" stroke-opacity="1"/></g><circle class="sja_aa_skkick" fill="white" fill-opacity="0" stroke="none" r="8" cy="-7" transform="scale(0)"/><path class="sja_aa_stem" d="M0,0v14l0.1378639558232635,28v23.799999999999997" stroke="#3987CC" fill="none"/></g></g><g/><g transform="scale(0)"><rect fill="white" fill-opacity="0" width="1100" height="0"/><text data-testid="loading_message" fill="rgb(97, 124, 148)" fill-opacity="0" font-weight="bold" font-size="18px" text-anchor="middle" dominant-baseline="middle" x="550" y="15">Loading ...</text><line stroke="rgb(97, 124, 148)" stroke-width="2px" y1="30" y2="30" x2="0"/></g></g><g transform="translate(122.3984375, 0)"><text font-size="14" font-family="Arial" y="7" text-anchor="end" dominant-baseline="central" fill="black" x="-10" font-weight="bold">GAMBL DLBCL</text><g/><text font-size="14" font-family="Arial" y="26" text-anchor="end" dominant-baseline="central" class="sja_clbtext2" fill="black" x="-10">7 mutations</text></g><g transform="translate(1235.3984375, 0)"/></g><g data-testid="sja_sample_menu_opener" transform="translate(0, 237.1750030517578)"><g transform="translate(1225.3984375, 0)"/><g transform="translate(125.3984375,0)"><rect fill="white" fill-opacity="0" width="1100" height="166.00625000000002"/><g transform="translate(0,0)" style="cursor: default;"><g class="sja_skg" transform="translate(641, 68.5999984741211)"><g transform="translate(0, 7)" class="sja_aa_discg"><circle fill="#3987CC" stroke="white" r="6.5"/><text font-size="12" fill="#3987CC" x="8" y="3.5999999999999996" font-family="Arial" class="sja_aa_disclabel" fill-opacity="1" transform="scale(1) rotate(0)">p.Glu441Val</text><circle r="6.5" stroke="#3987CC" class="sja_aa_disckick" fill="white" fill-opacity="0" stroke-opacity="0" transform="scale(1)"/><path d="M4.286263797015736e-16,-7L4.286263797015736e-16,-7Z" fill="#3987CC" class="sja_aa_discrim" fill-opacity="1" stroke-opacity="1"/></g><circle class="sja_aa_skkick" fill="white" fill-opacity="0" stroke="none" r="8" cy="7" transform="scale(0)"/><path class="sja_aa_stem" d="M0,0v-14l0.29852744310574053,-30.8v-23.799999999999997" stroke="#3987CC" fill="none"/></g><g class="sja_skg" transform="translate(886, 68.5999984741211)"><g transform="translate(0, 7)" class="sja_aa_discg"><circle fill="#3987CC" stroke="white" r="6.5"/><text font-size="12" fill="#3987CC" x="8" y="3.5999999999999996" font-family="Arial" class="sja_aa_disclabel" fill-opacity="1" transform="rotate(90)">p.Asn640Ser</text><circle r="6.5" stroke="#3987CC" class="sja_aa_disckick" fill="white" fill-opacity="0" stroke-opacity="0" transform="scale(1)"/><path d="M4.286263797015736e-16,-7L4.286263797015736e-16,-7Z" fill="#3987CC" class="sja_aa_discrim" fill-opacity="1" stroke-opacity="1"/></g><circle class="sja_aa_skkick" fill="white" fill-opacity="0" stroke="none" r="8" cy="7" transform="scale(0)"/><path class="sja_aa_stem" d="M0,0v-14l48.33734939759029,-30.8v-23.799999999999997" stroke="#3987CC" fill="none"/></g><g class="sja_skg" transform="translate(900, 68.5999984741211)"><g transform="translate(0, 7)" class="sja_aa_discg"><circle fill="#3987CC" stroke="white" r="6.5"/><text font-size="12" fill="#3987CC" x="8" y="3.5999999999999996" font-family="Arial" class="sja_aa_disclabel" fill-opacity="1" transform="">p.Tyr646Phe</text><circle r="6.5" stroke="#3987CC" class="sja_aa_disckick" fill="white" fill-opacity="0" stroke-opacity="0" transform="scale(1)"/><path d="M4.286263797015736e-16,-7L4.286263797015736e-16,-7Z" fill="#3987CC" class="sja_aa_discrim" fill-opacity="1" stroke-opacity="1"/></g><g transform="translate(0, 21)" class="sja_aa_discg"><circle fill="#3987CC" stroke="white" r="6.5"/><text font-size="12" fill="#3987CC" x="8" y="3.5999999999999996" font-family="Arial" class="sja_aa_disclabel" fill-opacity="1" transform="">p.Tyr646Cys</text><circle r="6.5" stroke="#3987CC" class="sja_aa_disckick" fill="white" fill-opacity="0" stroke-opacity="0" transform="scale(1)"/><path d="M4.286263797015736e-16,-7L4.286263797015736e-16,-7Z" fill="#3987CC" class="sja_aa_discrim" fill-opacity="1" stroke-opacity="1"/></g><g transform="translate(0, 35)" class="sja_aa_discg"><circle fill="#3987CC" stroke="white" r="6.5"/><text font-size="12" fill="#3987CC" x="8" y="3.5999999999999996" font-family="Arial" class="sja_aa_disclabel" fill-opacity="1" transform="">p.Tyr646Ser</text><circle r="6.5" stroke="#3987CC" class="sja_aa_disckick" fill="white" fill-opacity="0" stroke-opacity="0" transform="scale(1)"/><path d="M4.286263797015736e-16,-7L4.286263797015736e-16,-7Z" fill="#3987CC" class="sja_aa_discrim" fill-opacity="1" stroke-opacity="1"/></g><g transform="translate(0, 49)" class="sja_aa_discg"><circle fill="#3987CC" stroke="white" r="6.5"/><text font-size="12" fill="#3987CC" x="8" y="3.5999999999999996" font-family="Arial" class="sja_aa_disclabel" fill-opacity="1" transform="">p.Tyr646His</text><circle r="6.5" stroke="#3987CC" class="sja_aa_disckick" fill="white" fill-opacity="0" stroke-opacity="0" transform="scale(1)"/><path d="M4.286263797015736e-16,-7L4.286263797015736e-16,-7Z" fill="#3987CC" class="sja_aa_discrim" fill-opacity="1" stroke-opacity="1"/></g><g transform="translate(0, 63)" class="sja_aa_discg"><circle fill="#3987CC" stroke="white" r="6.5"/><text font-size="12" fill="#3987CC" x="8" y="3.5999999999999996" font-family="Arial" class="sja_aa_disclabel" fill-opacity="1" transform="">p.Tyr646Asn</text><circle r="6.5" stroke="#3987CC" class="sja_aa_disckick" fill="white" fill-opacity="0" stroke-opacity="0" transform="scale(1)"/><path d="M4.286263797015736e-16,-7L4.286263797015736e-16,-7Z" fill="#3987CC" class="sja_aa_discrim" fill-opacity="1" stroke-opacity="1"/></g><circle class="sja_aa_skkick" fill="white" fill-opacity="0" stroke="none" r="8" cy="7" transform="scale(0)"/><path class="sja_aa_stem" d="M0,0v-14l43.172690763052174,-30.8v-23.799999999999997" stroke="#3987CC" fill="none"/><rect class="sja_aa_ssk_bg" shape-rendering="crispEdges" fill-opacity="0" height="14" fill="#3987CC" width="14" x="-7" transform="scale(1)" y="-14"/><text class="sja_aa_ssk_text" fill="white" fill-opacity="0" font-weight="bold" text-anchor="middle" dominant-baseline="central" font-size="14" transform="scale(1)" y="-7">5</text><rect class="sja_aa_ssk_kick" fill="white" fill-opacity="0" stroke="none" height="14" x="-7" width="14" transform="scale(1)" y="-14"/></g><g class="sja_skg" transform="translate(983.046875, 68.5999984741211)"><g transform="translate(0, 7)" class="sja_aa_discg"><circle fill="#3987CC" stroke="white" r="6.5"/><text font-size="12" fill="#3987CC" x="8" y="3.5999999999999996" font-family="Arial" class="sja_aa_disclabel" fill-opacity="1" transform="rotate(90)">p.Phe670Leu</text><circle r="6.5" stroke="#3987CC" class="sja_aa_disckick" fill="white" fill-opacity="0" stroke-opacity="0" transform="scale(1)"/><path d="M4.286263797015736e-16,-7L4.286263797015736e-16,-7Z" fill="#3987CC" class="sja_aa_discrim" fill-opacity="1" stroke-opacity="1"/></g><circle class="sja_aa_skkick" fill="white" fill-opacity="0" stroke="none" r="8" cy="7" transform="scale(0)"/><path class="sja_aa_stem" d="M0,0v-14l-5.023671073181617,-30.8v-23.799999999999997" stroke="#3987CC" fill="none"/></g><g class="sja_skg" transform="translate(997.046875, 68.5999984741211)"><g transform="translate(0, 7)" class="sja_aa_discg"><circle fill="#3987CC" stroke="white" r="6.5"/><text font-size="12" fill="#3987CC" x="8" y="3.5999999999999996" font-family="Arial" class="sja_aa_disclabel" fill-opacity="1" transform="rotate(90)">p.Ala682Gly</text><circle r="6.5" stroke="#3987CC" class="sja_aa_disckick" fill="white" fill-opacity="0" stroke-opacity="0" transform="scale(1)"/><path d="M4.286263797015736e-16,-7L4.286263797015736e-16,-7Z" fill="#3987CC" class="sja_aa_discrim" fill-opacity="1" stroke-opacity="1"/></g><circle class="sja_aa_skkick" fill="white" fill-opacity="0" stroke="none" r="8" cy="7" transform="scale(0)"/><path class="sja_aa_stem" d="M0,0v-14l-0.8621360441767365,-30.8v-23.799999999999997" stroke="#3987CC" fill="none"/></g><g class="sja_skg" transform="translate(1011.046875, 68.5999984741211)"><g transform="translate(0, 7)" class="sja_aa_discg"><circle fill="#3987CC" stroke="white" r="6.5"/><text font-size="12" fill="#3987CC" x="8" y="3.5999999999999996" font-family="Arial" class="sja_aa_disclabel" fill-opacity="1" transform="scale(1) rotate(0)">p.Ala692Val</text><circle r="6.5" stroke="#3987CC" class="sja_aa_disckick" fill="white" fill-opacity="0" stroke-opacity="0" transform="scale(1)"/><path d="M4.286263797015736e-16,-7L4.286263797015736e-16,-7Z" fill="#3987CC" class="sja_aa_discrim" fill-opacity="1" stroke-opacity="1"/></g><circle class="sja_aa_skkick" fill="white" fill-opacity="0" stroke="none" r="8" cy="7" transform="scale(0)"/><path class="sja_aa_stem" d="M0,0v-14l-0.1365671017402974,-30.8v-23.799999999999997" stroke="#3987CC" fill="none"/></g></g><g/><g transform="scale(0)"><rect fill="white" fill-opacity="0" width="1100" height="0"/><text data-testid="loading_message" fill="rgb(97, 124, 148)" fill-opacity="0" font-weight="bold" font-size="18px" text-anchor="middle" dominant-baseline="middle" x="550" y="15">Loading ...</text><line stroke="rgb(97, 124, 148)" stroke-width="2px" y1="30" y2="30" x2="0"/></g></g><g transform="translate(122.3984375,0)"><text font-size="14" font-family="Arial" y="7" text-anchor="end" dominant-baseline="central" fill="black" x="-10" font-weight="bold">GAMBL FL</text><g/><text font-size="14" font-family="Arial" y="26" text-anchor="end" dominant-baseline="central" class="sja_clbtext2" fill="black" x="-10">10 mutations</text></g><g transform="translate(1235.3984375,0)"/></g><g data-testid="sja_sample_menu_opener" transform="translate(0, 403.1812438964844)"><g transform="translate(1225.3984375, 0)"/><g transform="translate(125.3984375,0)"><rect fill="white" fill-opacity="0" width="1100" height="118.5265625"/><g transform="translate(0,0)" style="cursor: default;"><g class="sja_skg" transform="translate(122.95850372314453, 23.799999237060547)"><g transform="translate(0, 7)" class="sja_aa_discg"><circle fill="#3987CC" stroke="white" r="6.5"/><text font-size="12" fill="#3987CC" x="8" y="3.5999999999999996" font-family="Arial" class="sja_aa_disclabel" fill-opacity="1" transform="scale(1) rotate(0)">p.Ser84Leu</text><circle r="6.5" stroke="#3987CC" class="sja_aa_disckick" fill="white" fill-opacity="0" stroke-opacity="0" transform="scale(1)"/><path d="M4.286263797015736e-16,-7L4.286263797015736e-16,-7Z" fill="#3987CC" class="sja_aa_discrim" fill-opacity="1" stroke-opacity="1"/></g><circle class="sja_aa_skkick" fill="white" fill-opacity="0" stroke="none" r="8" cy="7" transform="scale(0)"/><path class="sja_aa_stem" d="M0,0v0l0,0v-23.799999999999997" stroke="#3987CC" fill="none"/></g><g class="sja_skg" transform="translate(820.950439453125, 23.799999237060547)"><g transform="translate(0, 7)" class="sja_aa_discg"><circle fill="#3987CC" stroke="white" r="6.5"/><text font-size="12" fill="#3987CC" x="8" y="3.5999999999999996" font-family="Arial" class="sja_aa_disclabel" fill-opacity="1" transform="scale(1) rotate(0)">p.Pro563Leu</text><circle r="6.5" stroke="#3987CC" class="sja_aa_disckick" fill="white" fill-opacity="0" stroke-opacity="0" transform="scale(1)"/><path d="M4.286263797015736e-16,-7L4.286263797015736e-16,-7Z" fill="#3987CC" class="sja_aa_discrim" fill-opacity="1" stroke-opacity="1"/></g><circle class="sja_aa_skkick" fill="white" fill-opacity="0" stroke="none" r="8" cy="7" transform="scale(0)"/><path class="sja_aa_stem" d="M0,0v0l0,0v-23.799999999999997" stroke="#3987CC" fill="none"/></g><g class="sja_skg" transform="translate(942.6818237304688, 23.799999237060547)"><g transform="translate(0, 7)" class="sja_aa_discg"><circle fill="#3987CC" stroke="white" r="6.5"/><text font-size="12" fill="#3987CC" x="8" y="3.5999999999999996" font-family="Arial" class="sja_aa_disclabel" fill-opacity="1" transform="scale(1) rotate(0)">p.Tyr646Asn</text><circle r="6.5" stroke="#3987CC" class="sja_aa_disckick" fill="white" fill-opacity="0" stroke-opacity="0" transform="scale(1)"/><path d="M4.286263797015736e-16,-7L4.286263797015736e-16,-7Z" fill="#3987CC" class="sja_aa_discrim" fill-opacity="1" stroke-opacity="1"/></g><circle class="sja_aa_skkick" fill="white" fill-opacity="0" stroke="none" r="8" cy="7" transform="scale(0)"/><path class="sja_aa_stem" d="M0,0v0l0,0v-23.799999999999997" stroke="#3987CC" fill="none"/></g></g><g/><g transform="scale(0)"><rect fill="white" fill-opacity="0" width="1100" height="0"/><text data-testid="loading_message" fill="rgb(97, 124, 148)" fill-opacity="0" font-weight="bold" font-size="18px" text-anchor="middle" dominant-baseline="middle" x="550" y="15">Loading ...</text><line stroke="rgb(97, 124, 148)" stroke-width="2px" y1="30" y2="30" x2="0"/></g></g><g transform="translate(122.3984375,0)"><text font-size="14" font-family="Arial" y="7" text-anchor="end" dominant-baseline="central" fill="black" x="-10" font-weight="bold">GAMBL BL</text><g/><text font-size="14" font-family="Arial" y="26" text-anchor="end" dominant-baseline="central" class="sja_clbtext2" fill="black" x="-10">3 mutations</text></g><g transform="translate(1235.3984375,0)"/></g><g data-testid="sja_sample_menu_opener" transform="translate(0, 190.1750030517578)"><g transform="translate(1225.3984375, 0)"/><g transform="translate(125.3984375,0)"><rect fill="white" fill-opacity="0" width="1100" height="47"/><g transform="translate(0,0)" style="cursor: default;"><g><line x1="0" y1="18.5" x2="1100" y2="18.5" stroke="black" shape-rendering="crispEdges"/><rect x="0" width="57.429718875502004" height="37" fill="white"/><rect x="55.957161981258366" width="1.4725568942436411" height="37" fill="#bebada"/><rect x="57.429718875502004" width="63.31994645247657" height="37" fill="white"/><rect x="57.429718875502004" width="41.231593038821956" height="37" fill="#bebada"/><rect x="120.74966532797858" width="57.429718875502004" height="37" fill="white"/><rect x="178.1793842034806" width="59.39312806782686" height="37" fill="white"/><rect x="231.19143239625168" width="6.381079875055779" height="37" fill="#b3b3b3"/><rect x="237.57251227130746" width="69.21017402945114" height="37" fill="white"/><rect x="237.57251227130746" width="69.21017402945114" height="37" fill="#b3b3b3"/><rect x="306.7826863007586" width="50.557786702365014" height="37" fill="white"/><rect x="306.7826863007586" width="50.557786702365014" height="37" fill="#b3b3b3"/><rect x="357.34047300312363" width="80.49977688531905" height="37" fill="white"/><rect x="357.34047300312363" width="9.32619366354306" height="37" fill="#b3b3b3"/><rect x="437.8402498884427" width="45.15841142347166" height="37" fill="white"/><rect x="482.99866131191436" width="118.29540383757251" height="37" fill="white"/><rect x="601.2940651494869" width="83.44489067380633" height="37" fill="white"/><rect x="684.7389558232932" width="46.6309683177153" height="37" fill="white"/><rect x="731.3699241410085" width="20.124944221329763" height="37" fill="white"/><rect x="751.4948683623383" width="61.847389558232926" height="37" fill="white"/><rect x="813.3422579205712" width="87.86256135653726" height="37" fill="white"/><rect x="895.3145917001339" width="5.8902275769745644" height="37" fill="#fdb462"/><rect x="821.6867469879519" width="47.121820615796516" height="37" fill="#ffd92f"/><rect x="901.2048192771085" width="47.121820615796516" height="37" fill="white"/><rect x="901.2048192771085" width="47.121820615796516" height="37" fill="#fdb462"/><rect x="904.1499330655959" width="5.8902275769745644" height="37" fill="#fb8072"/><rect x="915.930388219545" width="2.9451137884872822" height="37" fill="#80b1d3"/><rect x="915.930388219545" width="2.9451137884872822" height="37" fill="#a6d854"/><rect x="917.4029451137886" width="1.4725568942436411" height="37" fill="#fb8072"/><rect x="924.7657295850067" width="1.4725568942436411" height="37" fill="#fb8072"/><rect x="942.4364123159305" width="1.4725568942436411" height="37" fill="#E8E89E"/><rect x="911.512717536814" width="1.4725568942436411" height="37" fill="#fb8072"/><rect x="921.8206157965195" width="1.4725568942436411" height="37" fill="#fb8072"/><rect x="901.2048192771085" width="1.4725568942436411" height="37" fill="#fb8072"/><rect x="948.3266398929051" width="40.249888442659525" height="37" fill="white"/><rect x="948.3266398929051" width="40.249888442659525" height="37" fill="#fdb462"/><rect x="979.2503346720215" width="4.417670682730924" height="37" fill="#E8E89E"/><rect x="957.161981258367" width="2.9451137884872822" height="37" fill="#E8E89E"/><rect x="965.9973226238287" width="2.9451137884872822" height="37" fill="#a6d854"/><rect x="965.9973226238287" width="2.9451137884872822" height="37" fill="#80b1d3"/><rect x="976.3052208835343" width="1.4725568942436411" height="37" fill="#E8E89E"/><rect x="968.942436412316" width="1.4725568942436411" height="37" fill="#E8E89E"/><rect x="963.0522088353415" width="1.4725568942436411" height="37" fill="#E8E89E"/><rect x="971.8875502008033" width="1.4725568942436411" height="37" fill="#80b1d3"/><rect x="974.8326639892906" width="1.4725568942436411" height="37" fill="#80b1d3"/><rect x="974.8326639892906" width="1.4725568942436411" height="37" fill="#a6d854"/><rect x="971.8875502008033" width="1.4725568942436411" height="37" fill="#a6d854"/><rect x="977.7777777777779" width="1.4725568942436411" height="37" fill="#80b1d3"/><rect x="977.7777777777779" width="1.4725568942436411" height="37" fill="#a6d854"/><rect x="952.744310575636" width="1.4725568942436411" height="37" fill="#E8E89E"/><rect x="988.5765283355646" width="39.75903614457831" height="37" fill="white"/><rect x="988.5765283355646" width="39.75903614457831" height="37" fill="#fdb462"/><rect x="1007.2289156626507" width="7.362784471218206" height="37" fill="#a6d854"/><rect x="1007.2289156626507" width="5.8902275769745644" height="37" fill="#80b1d3"/><rect x="998.3935742971889" width="2.9451137884872822" height="37" fill="#fb8072"/><rect x="996.9210174029453" width="1.4725568942436411" height="37" fill="#80b1d3"/><rect x="996.9210174029453" width="1.4725568942436411" height="37" fill="#a6d854"/><rect x="1004.2838018741635" width="1.4725568942436411" height="37" fill="#fb8072"/><rect x="1024.8995983935745" width="1.4725568942436411" height="37" fill="#E8E89E"/><rect x="1028.335564480143" width="41.722445336903164" height="37" fill="white"/><rect x="1028.335564480143" width="41.722445336903164" height="37" fill="#fdb462"/><rect x="1067.60374832664" width="2.4542614904060684" height="37" fill="#E8E89E"/><rect x="1064.6586345381527" width="1.4725568942436411" height="37" fill="#E8E89E"/><rect x="1067.60374832664" width="1.4725568942436411" height="37" fill="#a6d854"/><rect x="1033.7349397590363" width="1.4725568942436411" height="37" fill="#fb8072"/><rect x="1067.60374832664" width="1.4725568942436411" height="37" fill="#e5c494"/><rect x="1057.2958500669345" width="1.4725568942436411" height="37" fill="#fb8072"/><rect x="1070.058009817046" width="29.941990182954036" height="37" fill="white"/><rect x="1070.058009817046" width="1.963409192324855" height="37" fill="#fdb462"/><rect x="1070.058009817046" width="1.963409192324855" height="37" fill="#E8E89E"/><line x1="0" x2="1100" stroke="black"/><line x1="0" x2="1100" y1="37" y2="37" stroke="black"/><line x1="1100" x2="1100" y2="37" stroke="black"/><line x1="0" x2="0" y2="37" stroke="black"/><line class="exonboundaryclass" x1="57.429718875502004" x2="57.429718875502004" y1="0" y2="37" stroke="black" stroke-dasharray="4,2" shape-rendering="crispEdges" stroke-opacity="1"/><line class="exonboundaryclass" x1="120.74966532797858" x2="120.74966532797858" y1="0" y2="37" stroke="black" stroke-dasharray="4,2" shape-rendering="crispEdges" stroke-opacity="1"/><line class="exonboundaryclass" x1="178.1793842034806" x2="178.1793842034806" y1="0" y2="37" stroke="black" stroke-dasharray="4,2" shape-rendering="crispEdges" stroke-opacity="1"/><line class="exonboundaryclass" x1="237.57251227130746" x2="237.57251227130746" y1="0" y2="37" stroke="black" stroke-dasharray="4,2" shape-rendering="crispEdges" stroke-opacity="1"/><line class="exonboundaryclass" x1="306.7826863007586" x2="306.7826863007586" y1="0" y2="37" stroke="black" stroke-dasharray="4,2" shape-rendering="crispEdges" stroke-opacity="1"/><line class="exonboundaryclass" x1="357.34047300312363" x2="357.34047300312363" y1="0" y2="37" stroke="black" stroke-dasharray="4,2" shape-rendering="crispEdges" stroke-opacity="1"/><line class="exonboundaryclass" x1="437.8402498884427" x2="437.8402498884427" y1="0" y2="37" stroke="black" stroke-dasharray="4,2" shape-rendering="crispEdges" stroke-opacity="1"/><line class="exonboundaryclass" x1="482.99866131191436" x2="482.99866131191436" y1="0" y2="37" stroke="black" stroke-dasharray="4,2" shape-rendering="crispEdges" stroke-opacity="1"/><line class="exonboundaryclass" x1="601.2940651494869" x2="601.2940651494869" y1="0" y2="37" stroke="black" stroke-dasharray="4,2" shape-rendering="crispEdges" stroke-opacity="1"/><line class="exonboundaryclass" x1="684.7389558232932" x2="684.7389558232932" y1="0" y2="37" stroke="black" stroke-dasharray="4,2" shape-rendering="crispEdges" stroke-opacity="1"/><line class="exonboundaryclass" x1="731.3699241410085" x2="731.3699241410085" y1="0" y2="37" stroke="black" stroke-dasharray="4,2" shape-rendering="crispEdges" stroke-opacity="1"/><line class="exonboundaryclass" x1="751.4948683623383" x2="751.4948683623383" y1="0" y2="37" stroke="black" stroke-dasharray="4,2" shape-rendering="crispEdges" stroke-opacity="1"/><line class="exonboundaryclass" x1="813.3422579205712" x2="813.3422579205712" y1="0" y2="37" stroke="black" stroke-dasharray="4,2" shape-rendering="crispEdges" stroke-opacity="1"/><line class="exonboundaryclass" x1="901.2048192771085" x2="901.2048192771085" y1="0" y2="37" stroke="black" stroke-dasharray="4,2" shape-rendering="crispEdges" stroke-opacity="1"/><line class="exonboundaryclass" x1="948.3266398929051" x2="948.3266398929051" y1="0" y2="37" stroke="black" stroke-dasharray="4,2" shape-rendering="crispEdges" stroke-opacity="1"/><line class="exonboundaryclass" x1="988.5765283355646" x2="988.5765283355646" y1="0" y2="37" stroke="black" stroke-dasharray="4,2" shape-rendering="crispEdges" stroke-opacity="1"/><line class="exonboundaryclass" x1="1028.335564480143" x2="1028.335564480143" y1="0" y2="37" stroke="black" stroke-dasharray="4,2" shape-rendering="crispEdges" stroke-opacity="1"/><line class="exonboundaryclass" x1="1070.058009817046" x2="1070.058009817046" y1="0" y2="37" stroke="black" stroke-dasharray="4,2" shape-rendering="crispEdges" stroke-opacity="1"/><g transform="translate(0,18.5)" fill="none" font-size="10" font-family="sans-serif" text-anchor="middle"><path class="domain" stroke="none" d="M0.7362784471218206,0H1100" fill="none" stroke-width="0" shape-rendering="crispEdges"/><g class="tick" opacity="1" transform="translate(146.19846909003536,0)"><line stroke="black" y2="0" shape-rendering="crispEdges"/><text fill="black" y="3" dy="0.71em" font-family="Arial" font-size="11.666666666666666px" style="cursor: default;">100</text></g><g class="tick" opacity="1" transform="translate(293.5766707491906,0)"><line stroke="black" y2="0" shape-rendering="crispEdges"/><text fill="black" y="3" dy="0.71em" font-family="Arial" font-size="11.666666666666666px" style="cursor: default;">200</text></g><g class="tick" opacity="1" transform="translate(440.98328799067247,0)"><line stroke="black" y2="0" shape-rendering="crispEdges"/><text fill="black" y="3" dy="0.71em" font-family="Arial" font-size="11.666666666666666px" style="cursor: default;">300</text></g><g class="tick" opacity="1" transform="translate(588.0686635430611,0)"><line stroke="black" y2="0" shape-rendering="crispEdges"/><text fill="black" y="3" dy="0.71em" font-family="Arial" font-size="11.666666666666666px" style="cursor: default;">400</text></g><g class="tick" opacity="1" transform="translate(735.4895773570472,0)"><line stroke="black" y2="0" shape-rendering="crispEdges"/><text fill="black" y="3" dy="0.71em" font-family="Arial" font-size="11.666666666666666px" style="cursor: default;">500</text></g><g class="tick" opacity="1" transform="translate(882.2211066488176,0)"><line stroke="black" y2="0" shape-rendering="crispEdges"/><text fill="black" y="3" dy="0.71em" font-family="Arial" font-size="11.666666666666666px" style="cursor: default;">600</text></g><g class="tick" opacity="1" transform="translate(1030.0623127430358,0)"><line stroke="black" y2="0" shape-rendering="crispEdges"/><text fill="black" y="3" dy="0.71em" font-family="Arial" font-size="11.666666666666666px" style="cursor: default;">700</text></g></g><rect x="0" width="57.429718875502004" height="37" fill="#858585" fill-opacity="0"/><rect x="57.429718875502004" width="63.31994645247657" height="37" fill="#858585" fill-opacity="0"/><rect x="120.74966532797858" width="57.429718875502004" height="37" fill="#858585" fill-opacity="0"/><rect x="178.1793842034806" width="59.39312806782686" height="37" fill="#858585" fill-opacity="0"/><rect x="237.57251227130746" width="69.21017402945114" height="37" fill="#858585" fill-opacity="0"/><rect x="306.7826863007586" width="50.557786702365014" height="37" fill="#858585" fill-opacity="0"/><rect x="357.34047300312363" width="80.49977688531905" height="37" fill="#858585" fill-opacity="0"/><rect x="437.8402498884427" width="45.15841142347166" height="37" fill="#858585" fill-opacity="0"/><rect x="482.99866131191436" width="118.29540383757251" height="37" fill="#858585" fill-opacity="0"/><rect x="601.2940651494869" width="83.44489067380633" height="37" fill="#858585" fill-opacity="0"/><rect x="684.7389558232932" width="46.6309683177153" height="37" fill="#858585" fill-opacity="0"/><rect x="731.3699241410085" width="20.124944221329763" height="37" fill="#858585" fill-opacity="0"/><rect x="751.4948683623383" width="61.847389558232926" height="37" fill="#858585" fill-opacity="0"/><rect x="813.3422579205712" width="87.86256135653726" height="37" fill="#858585" fill-opacity="0"/><rect x="901.2048192771085" width="47.121820615796516" height="37" fill="#858585" fill-opacity="0"/><rect x="948.3266398929051" width="40.249888442659525" height="37" fill="#858585" fill-opacity="0"/><rect x="988.5765283355646" width="39.75903614457831" height="37" fill="#858585" fill-opacity="0"/><rect x="1028.335564480143" width="41.722445336903164" height="37" fill="#858585" fill-opacity="0"/><rect x="1070.058009817046" width="29.941990182954036" height="37" fill="#858585" fill-opacity="0"/></g></g><g/><g transform="scale(0)"><rect fill="white" fill-opacity="0"/><text data-testid="loading_message" fill="rgb(97, 124, 148)" fill-opacity="0" font-weight="bold" font-size="18px" text-anchor="middle" dominant-baseline="middle">Loading ...</text><line stroke="rgb(97, 124, 148)" stroke-width="2px"/></g></g><g transform="translate(122.3984375,0)"><text font-size="14" font-family="Arial" y="7" text-anchor="end" dominant-baseline="central" fill="black" x="-10" font-weight="bold">EZH2</text><text font-size="14" font-family="Arial" y="20" text-anchor="end" dominant-baseline="central" fill="black" x="-10">NM_001203247</text></g><g transform="translate(1235.3984375,0)"><text fill="#aaa" font-family="Arial" font-size="14" y="14" class="sja_clbtext2"/></g></g></g><g transform="scale(0)"><rect fill="white"/><text id="loadinggCloak" fill="rgb(97, 124, 148)" fill-opacity="0" font-weight="bold" font-size="18px" text-anchor="middle" dominant-baseline="middle">Loading ...</text></g><g/><g transform="translate(124.3984375,536.7078125)"><g transform="translate(0,0)"><rect width="15" height="20" stroke="rgb(133, 130, 153)" fill="#bebada" shape-rendering="crispEdges"/><text x="20" y="10" dominant-baseline="central" font-size="16" font-family="Arial" fill="black">EZH2_WD-Binding</text><text x="165.15625" y="10" dominant-baseline="central" font-size="12" font-family="Arial" fill="#858585">WD repeat binding protein EZH2</text></g><g transform="translate(0,23)"><rect width="15" height="20" stroke="rgb(125, 125, 125)" fill="#b3b3b3" shape-rendering="crispEdges"/><text x="20" y="10" dominant-baseline="central" font-size="16" font-family="Arial" fill="black">PRC2_HTH_1</text><text x="132.2578125" y="10" dominant-baseline="central" font-size="12" font-family="Arial" fill="#858585">Polycomb repressive complex 2 tri-helical domain</text></g><g transform="translate(0,46)"><rect width="15" height="20" stroke="rgb(179, 152, 33)" fill="#ffd92f" shape-rendering="crispEdges"/><text x="20" y="10" dominant-baseline="central" font-size="16" font-family="Arial" fill="black">preSET_CXC</text><text x="126.921875" y="10" dominant-baseline="central" font-size="12" font-family="Arial" fill="#858585">CXC domain</text></g><g transform="translate(0,69)"><rect width="15" height="20" stroke="rgb(177, 126, 69)" fill="#fdb462" shape-rendering="crispEdges"/><text x="20" y="10" dominant-baseline="central" font-size="16" font-family="Arial" fill="black">SET_EZH2</text><text x="110.9140625" y="10" dominant-baseline="central" font-size="12" font-family="Arial" fill="#858585">SET domain found in enhancer of zeste homolog 2 (EZH2) and similar proteins</text></g><g transform="translate(0,92)"><rect width="15" height="20" stroke="rgb(176, 90, 80)" fill="#fb8072" shape-rendering="crispEdges"/><text x="20" y="10" dominant-baseline="central" font-size="16" font-family="Arial" fill="black">other</text><text x="66.6875" y="10" dominant-baseline="central" font-size="12" font-family="Arial" fill="#858585">oligomer interface [polypeptide binding]</text></g><g transform="translate(0,115)"><rect width="15" height="20" stroke="rgb(116, 151, 59)" fill="#a6d854" shape-rendering="crispEdges"/><text x="20" y="10" dominant-baseline="central" font-size="16" font-family="Arial" fill="black">other</text><text x="66.6875" y="10" dominant-baseline="central" font-size="12" font-family="Arial" fill="#858585">SAM binding site</text></g><g transform="translate(0,138)"><rect width="15" height="20" stroke="rgb(90, 124, 148)" fill="#80b1d3" shape-rendering="crispEdges"/><text x="20" y="10" dominant-baseline="central" font-size="16" font-family="Arial" fill="black">inhibition</text><text x="93.15625" y="10" dominant-baseline="central" font-size="12" font-family="Arial" fill="#858585">inhibitor binding site [chemical binding]</text></g><g transform="translate(0,161)"><rect width="15" height="20" stroke="rgb(162, 162, 111)" fill="#E8E89E" shape-rendering="crispEdges"/><text x="20" y="10" dominant-baseline="central" font-size="16" font-family="Arial" fill="black">other</text><text x="66.6875" y="10" dominant-baseline="central" font-size="12" font-family="Arial" fill="#858585">polypeptide substrate binding site [polypeptide binding]</text></g><g transform="translate(0,184)"><rect width="15" height="20" stroke="rgb(160, 137, 104)" fill="#e5c494" shape-rendering="crispEdges"/><text x="20" y="10" dominant-baseline="central" font-size="16" font-family="Arial" fill="black">active</text><text x="71.796875" y="10" dominant-baseline="central" font-size="12" font-family="Arial" fill="#858585">catalytic residue [active]</text></g></g><g transform="translate(1027.3984375,536.7078125)"><g transform="translate(0,0)"><circle cx="10" cy="10" r="10" fill="#3987CC"/><text x="30" y="10" dominant-baseline="central" font-size="16" font-family="Arial" fill="#3987CC">MISSENSE, n=20</text></g></g></svg>