<svg xmlns="http://www.w3.org/2000/svg" data-testid="sjpp_block_svg" width="1274.9375" height="849.1289292279412"><g transform="translate(0,0)"><g transform="translate(144.9375, 0)"/><rect fill="#FFFF99" x="922" width="0" height="625.1289292279412"/><g transform="translate(144.9375, 23)"><g transform="translate(0,0)"><text text-anchor="end" x="-13" y="-10" dominant-baseline="central" font-size="13" font-family="Arial">Protein length</text><g><g transform="translate(0,0)" fill="none" font-size="10" font-family="sans-serif" text-anchor="middle"><path class="domain" stroke="black" d="M0,-6V0H1020V-6" fill="none" stroke-width="1" shape-rendering="crispEdges"/><g class="tick" opacity="1" transform="translate(129.8181818181818,0)"><line stroke="black" y2="-6" shape-rendering="crispEdges"/><text fill="black" y="-9" dy="0em" font-family="Arial" font-size="12px" style="cursor: default;">50</text></g><g class="tick" opacity="1" transform="translate(262.2857142857143,0)"><line stroke="black" y2="-6" shape-rendering="crispEdges"/><text fill="black" y="-9" dy="0em" font-family="Arial" font-size="12px" style="cursor: default;">100</text></g><g class="tick" opacity="1" transform="translate(394.7532467532468,0)"><line stroke="black" y2="-6" shape-rendering="crispEdges"/><text fill="black" y="-9" dy="0em" font-family="Arial" font-size="12px" style="cursor: default;">150</text></g><g class="tick" opacity="1" transform="translate(527.2207792207791,0)"><line stroke="black" y2="-6" shape-rendering="crispEdges"/><text fill="black" y="-9" dy="0em" font-family="Arial" font-size="12px" style="cursor: default;">200</text></g><g class="tick" opacity="1" transform="translate(659.6883116883117,0)"><line stroke="black" y2="-6" shape-rendering="crispEdges"/><text fill="black" y="-9" dy="0em" font-family="Arial" font-size="12px" style="cursor: default;">250</text></g><g class="tick" opacity="1" transform="translate(792.1558441558442,0)"><line stroke="black" y2="-6" shape-rendering="crispEdges"/><text fill="black" y="-9" dy="0em" font-family="Arial" font-size="12px" style="cursor: default;">300</text></g><g class="tick" opacity="1" transform="translate(924.6233766233765,0)"><line stroke="black" y2="-6" shape-rendering="crispEdges"/><text fill="black" y="-9" dy="0em" font-family="Arial" font-size="12px" style="cursor: default;">350</text></g></g></g><rect fill="white" fill-opacity="0" x="0" y="-23" width="1020" height="26"/></g><g transform="translate(1020, 0)"/></g><g data-testid="sja_sample_menu_opener" transform="translate(0, 450.255859375)"><g transform="translate(1164.9375, 0)"/><g transform="translate(144.9375, 0)"><rect fill="white" fill-opacity="0" width="1020" height="179.87306985294117"/><g transform="translate(0,0)" style="cursor: default;"><g class="sja_skg" transform="translate(7, 76.5058822631836)"><g transform="translate(0, 7)" class="sja_aa_discg"><circle fill="#3987CC" stroke="white" r="6.5"/><text font-size="12" fill="#3987CC" x="8" y="3.5999999999999996" font-family="Arial" class="sja_aa_disclabel" fill-opacity="1" transform="rotate(90)">p.Ala2Thr</text><circle r="6.5" stroke="#3987CC" class="sja_aa_disckick" fill="white" fill-opacity="0" stroke-opacity="0" transform="scale(1)"/><path d="M4.286263797015736e-16,-7L4.286263797015736e-16,-7Z" fill="#3987CC" class="sja_aa_discrim" fill-opacity="1" stroke-opacity="1"/></g><circle class="sja_aa_skkick" fill="white" fill-opacity="0" stroke="none" r="8" cy="7" transform="scale(0)"/><path class="sja_aa_stem" d="M0,0v-14l-3.909090909090909,-38.705882352941174v-23.799999999999997" stroke="#3987CC" fill="none"/></g><g class="sja_skg" transform="translate(21, 76.5058822631836)"><g transform="translate(0, 7)" class="sja_aa_discg"><circle fill="#2ca02c" stroke="white" r="6.5"/><text font-size="12" fill="#2ca02c" x="8" y="3.5999999999999996" font-family="Arial" class="sja_aa_disclabel" fill-opacity="1" transform="rotate(90)">c.9C&gt;T(p.=)</text><circle r="6.5" stroke="#2ca02c" class="sja_aa_disckick" fill="white" fill-opacity="0" stroke-opacity="0" transform="scale(1)"/><path d="M4.286263797015736e-16,-7L4.286263797015736e-16,-7Z" fill="#2ca02c" class="sja_aa_discrim" fill-opacity="1" stroke-opacity="1"/></g><circle class="sja_aa_skkick" fill="white" fill-opacity="0" stroke="none" r="8" cy="7" transform="scale(0)"/><path class="sja_aa_stem" d="M0,0v-14l-13.493506493506494,-38.705882352941174v-23.799999999999997" stroke="#2ca02c" fill="none"/></g><g class="sja_skg" transform="translate(35, 76.5058822631836)"><g transform="translate(0, 7)" class="sja_aa_discg"><circle fill="#db3d3d" stroke="white" r="6.5"/><text font-size="12" fill="#db3d3d" x="8" y="3.5999999999999996" font-family="Arial" class="sja_aa_disclabel" fill-opacity="1" transform="rotate(90)">p.Leu4Ter</text><circle r="6.5" stroke="#db3d3d" class="sja_aa_disckick" fill="white" fill-opacity="0" stroke-opacity="0" transform="scale(1)"/><path d="M4.286263797015736e-16,-7L4.286263797015736e-16,-7Z" fill="#db3d3d" class="sja_aa_discrim" fill-opacity="1" stroke-opacity="1"/></g><circle class="sja_aa_skkick" fill="white" fill-opacity="0" stroke="none" r="8" cy="7" transform="scale(0)"/><path class="sja_aa_stem" d="M0,0v-14l-26.61038961038961,-38.705882352941174v-23.799999999999997" stroke="#db3d3d" fill="none"/></g><g class="sja_skg" transform="translate(49, 76.5058822631836)"><g transform="translate(0, 7)" class="sja_aa_discg"><circle fill="#3987CC" stroke="white" r="6.5"/><text font-size="12" fill="#3987CC" x="8" y="3.5999999999999996" font-family="Arial" class="sja_aa_disclabel" fill-opacity="1" transform="rotate(90)">p.Lys9Arg</text><circle r="6.5" stroke="#3987CC" class="sja_aa_disckick" fill="white" fill-opacity="0" stroke-opacity="0" transform="scale(1)"/><path d="M4.286263797015736e-16,-7L4.286263797015736e-16,-7Z" fill="#3987CC" class="sja_aa_discrim" fill-opacity="1" stroke-opacity="1"/></g><circle class="sja_aa_skkick" fill="white" fill-opacity="0" stroke="none" r="8" cy="7" transform="scale(0)"/><path class="sja_aa_stem" d="M0,0v-14l-26.480519480519483,-38.705882352941174v-23.799999999999997" stroke="#3987CC" fill="none"/></g><g class="sja_skg" transform="translate(63, 76.5058822631836)"><g transform="translate(0, 7)" class="sja_aa_discg"><circle fill="#2ca02c" stroke="white" r="6.5"/><text font-size="12" fill="#2ca02c" x="8" y="3.5999999999999996" font-family="Arial" class="sja_aa_disclabel" fill-opacity="1" transform="rotate(90)">c.36C&gt;T(p.=)</text><circle r="6.5" stroke="#2ca02c" class="sja_aa_disckick" fill="white" fill-opacity="0" stroke-opacity="0" transform="scale(1)"/><path d="M4.286263797015736e-16,-7L4.286263797015736e-16,-7Z" fill="#2ca02c" class="sja_aa_discrim" fill-opacity="1" stroke-opacity="1"/></g><circle class="sja_aa_skkick" fill="white" fill-opacity="0" stroke="none" r="8" cy="7" transform="scale(0)"/><path class="sja_aa_stem" d="M0,0v-14l-31.64935064935065,-38.705882352941174v-23.799999999999997" stroke="#2ca02c" fill="none"/></g><g class="sja_skg" transform="translate(77, 76.5058822631836)"><g transform="translate(0, 7)" class="sja_aa_discg"><circle fill="#3987CC" stroke="white" r="6.5"/><text font-size="12" fill="#3987CC" x="8" y="3.5999999999999996" font-family="Arial" class="sja_aa_disclabel" fill-opacity="1" transform="rotate(90)">p.Glu20Gly</text><circle r="6.5" stroke="#3987CC" class="sja_aa_disckick" fill="white" fill-opacity="0" stroke-opacity="0" transform="scale(1)"/><path d="M4.286263797015736e-16,-7L4.286263797015736e-16,-7Z" fill="#3987CC" class="sja_aa_discrim" fill-opacity="1" stroke-opacity="1"/></g><circle class="sja_aa_skkick" fill="white" fill-opacity="0" stroke="none" r="8" cy="7" transform="scale(0)"/><path class="sja_aa_stem" d="M0,0v-14l-25.337662337662337,-38.705882352941174v-23.799999999999997" stroke="#3987CC" fill="none"/></g><g class="sja_skg" transform="translate(91, 76.5058822631836)"><g transform="translate(0, 7)" class="sja_aa_discg"><circle fill="#3987CC" stroke="white" r="6.5"/><text font-size="12" fill="#3987CC" x="8" y="3.5999999999999996" font-family="Arial" class="sja_aa_disclabel" fill-opacity="1" transform="rotate(90)">p.Ala23Glu</text><circle r="6.5" stroke="#3987CC" class="sja_aa_disckick" fill="white" fill-opacity="0" stroke-opacity="0" transform="scale(1)"/><path d="M4.286263797015736e-16,-7L4.286263797015736e-16,-7Z" fill="#3987CC" class="sja_aa_discrim" fill-opacity="1" stroke-opacity="1"/></g><circle class="sja_aa_skkick" fill="white" fill-opacity="0" stroke="none" r="8" cy="7" transform="scale(0)"/><path class="sja_aa_stem" d="M0,0v-14l-31.38961038961039,-38.705882352941174v-23.799999999999997" stroke="#3987CC" fill="none"/></g><g class="sja_skg" transform="translate(105, 76.5058822631836)"><g transform="translate(0, 7)" class="sja_aa_discg"><circle fill="#3987CC" stroke="white" r="6.5"/><text font-size="12" fill="#3987CC" x="8" y="3.5999999999999996" font-family="Arial" class="sja_aa_disclabel" fill-opacity="1" transform="">p.Val24Ala</text><circle r="6.5" stroke="#3987CC" class="sja_aa_disckick" fill="white" fill-opacity="0" stroke-opacity="0" transform="scale(1)"/><path d="M4.286263797015736e-16,-7L4.286263797015736e-16,-7Z" fill="#3987CC" class="sja_aa_discrim" fill-opacity="1" stroke-opacity="1"/></g><g transform="translate(0, 21)" class="sja_aa_discg"><circle fill="#3987CC" stroke="white" r="6.5"/><text font-size="12" fill="#3987CC" x="8" y="3.5999999999999996" font-family="Arial" class="sja_aa_disclabel" fill-opacity="1" transform="">p.Val24Ile</text><circle r="6.5" stroke="#3987CC" class="sja_aa_disckick" fill="white" fill-opacity="0" stroke-opacity="0" transform="scale(1)"/><path d="M4.286263797015736e-16,-7L4.286263797015736e-16,-7Z" fill="#3987CC" class="sja_aa_discrim" fill-opacity="1" stroke-opacity="1"/></g><circle class="sja_aa_skkick" fill="white" fill-opacity="0" stroke="none" r="8" cy="7" transform="scale(0)"/><path class="sja_aa_stem" d="M0,0v-14l-42.740259740259745,-38.705882352941174v-23.799999999999997" stroke="#3987CC" fill="none"/><rect class="sja_aa_ssk_bg" shape-rendering="crispEdges" fill-opacity="0" height="14" fill="#3987CC" width="14" x="-7" transform="scale(1)" y="-14"/><text class="sja_aa_ssk_text" fill="white" fill-opacity="0" font-weight="bold" text-anchor="middle" dominant-baseline="central" font-size="14" transform="scale(1)" y="-7">2</text><rect class="sja_aa_ssk_kick" fill="white" fill-opacity="0" stroke="none" height="14" x="-7" width="14" transform="scale(1)" y="-14"/></g><g class="sja_skg" transform="translate(177.15625, 76.5058822631836)"><g transform="translate(0, 7)" class="sja_aa_discg"><circle fill="#3987CC" stroke="white" r="6.5"/><text font-size="12" fill="#3987CC" x="8" y="3.5999999999999996" font-family="Arial" class="sja_aa_disclabel" fill-opacity="1" transform="rotate(90)">p.Phe26Ser</text><circle r="6.5" stroke="#3987CC" class="sja_aa_disckick" fill="white" fill-opacity="0" stroke-opacity="0" transform="scale(1)"/><path d="M4.286263797015736e-16,-7L4.286263797015736e-16,-7Z" fill="#3987CC" class="sja_aa_discrim" fill-opacity="1" stroke-opacity="1"/></g><circle class="sja_aa_skkick" fill="white" fill-opacity="0" stroke="none" r="8" cy="7" transform="scale(0)"/><path class="sja_aa_stem" d="M0,0v-14l-109.59780844155844,-38.705882352941174v-23.799999999999997" stroke="#3987CC" fill="none"/></g><g class="sja_skg" transform="translate(191.15625, 76.5058822631836)"><g transform="translate(0, 7)" class="sja_aa_discg"><circle fill="#3987CC" stroke="white" r="6.5"/><text font-size="12" fill="#3987CC" x="8" y="3.5999999999999996" font-family="Arial" class="sja_aa_disclabel" fill-opacity="1" transform="rotate(90)">p.Val27Leu</text><circle r="6.5" stroke="#3987CC" class="sja_aa_disckick" fill="white" fill-opacity="0" stroke-opacity="0" transform="scale(1)"/><path d="M4.286263797015736e-16,-7L4.286263797015736e-16,-7Z" fill="#3987CC" class="sja_aa_discrim" fill-opacity="1" stroke-opacity="1"/></g><circle class="sja_aa_skkick" fill="white" fill-opacity="0" stroke="none" r="8" cy="7" transform="scale(0)"/><path class="sja_aa_stem" d="M0,0v-14l-121.83157467532467,-38.705882352941174v-23.799999999999997" stroke="#3987CC" fill="none"/></g><g class="sja_skg" transform="translate(205.15625, 76.5058822631836)"><g transform="translate(0, 7)" class="sja_aa_discg"><circle fill="#3987CC" stroke="white" r="6.5"/><text font-size="12" fill="#3987CC" x="8" y="3.5999999999999996" font-family="Arial" class="sja_aa_disclabel" fill-opacity="1" transform="rotate(90)">p.Leu31Arg</text><circle r="6.5" stroke="#3987CC" class="sja_aa_disckick" fill="white" fill-opacity="0" stroke-opacity="0" transform="scale(1)"/><path d="M4.286263797015736e-16,-7L4.286263797015736e-16,-7Z" fill="#3987CC" class="sja_aa_discrim" fill-opacity="1" stroke-opacity="1"/></g><circle class="sja_aa_skkick" fill="white" fill-opacity="0" stroke="none" r="8" cy="7" transform="scale(0)"/><path class="sja_aa_stem" d="M0,0v-14l-124.3510551948052,-38.705882352941174v-23.799999999999997" stroke="#3987CC" fill="none"/></g><g class="sja_skg" transform="translate(219.15625, 76.5058822631836)"><g transform="translate(0, 7)" class="sja_aa_discg"><circle fill="#3987CC" stroke="white" r="6.5"/><text font-size="12" fill="#3987CC" x="8" y="3.5999999999999996" font-family="Arial" class="sja_aa_disclabel" fill-opacity="1" transform="rotate(90)">p.Cys33Tyr</text><circle r="6.5" stroke="#3987CC" class="sja_aa_disckick" fill="white" fill-opacity="0" stroke-opacity="0" transform="scale(1)"/><path d="M4.286263797015736e-16,-7L4.286263797015736e-16,-7Z" fill="#3987CC" class="sja_aa_discrim" fill-opacity="1" stroke-opacity="1"/></g><circle class="sja_aa_skkick" fill="white" fill-opacity="0" stroke="none" r="8" cy="7" transform="scale(0)"/><path class="sja_aa_stem" d="M0,0v-14l-133.0523538961039,-38.705882352941174v-23.799999999999997" stroke="#3987CC" fill="none"/></g><g class="sja_skg" transform="translate(233.15625, 76.5058822631836)"><g transform="translate(0, 7)" class="sja_aa_discg"><circle fill="#3987CC" stroke="white" r="6.5"/><text font-size="12" fill="#3987CC" x="8" y="3.5999999999999996" font-family="Arial" class="sja_aa_disclabel" fill-opacity="1" transform="rotate(90)">p.Asp39Asn</text><circle r="6.5" stroke="#3987CC" class="sja_aa_disckick" fill="white" fill-opacity="0" stroke-opacity="0" transform="scale(1)"/><path d="M4.286263797015736e-16,-7L4.286263797015736e-16,-7Z" fill="#3987CC" class="sja_aa_discrim" fill-opacity="1" stroke-opacity="1"/></g><circle class="sja_aa_skkick" fill="white" fill-opacity="0" stroke="none" r="8" cy="7" transform="scale(0)"/><path class="sja_aa_stem" d="M0,0v-14l-132.03936688311688,-38.705882352941174v-23.799999999999997" stroke="#3987CC" fill="none"/></g><g class="sja_skg" transform="translate(247.15625, 76.5058822631836)"><g transform="translate(0, 7)" class="sja_aa_discg"><circle fill="#3987CC" stroke="white" r="6.5"/><text font-size="12" fill="#3987CC" x="8" y="3.5999999999999996" font-family="Arial" class="sja_aa_disclabel" fill-opacity="1" transform="">p.Asp42Glu</text><circle r="6.5" stroke="#3987CC" class="sja_aa_disckick" fill="white" fill-opacity="0" stroke-opacity="0" transform="scale(1)"/><path d="M4.286263797015736e-16,-7L4.286263797015736e-16,-7Z" fill="#3987CC" class="sja_aa_discrim" fill-opacity="1" stroke-opacity="1"/></g><g transform="translate(0, 21)" class="sja_aa_discg"><circle fill="#2ca02c" stroke="white" r="6.5"/><text font-size="12" fill="#2ca02c" x="8" y="3.5999999999999996" font-family="Arial" class="sja_aa_disclabel" fill-opacity="1" transform="">c.126T&gt;C(p.=)</text><circle r="6.5" stroke="#2ca02c" class="sja_aa_disckick" fill="white" fill-opacity="0" stroke-opacity="0" transform="scale(1)"/><path d="M4.286263797015736e-16,-7L4.286263797015736e-16,-7Z" fill="#2ca02c" class="sja_aa_discrim" fill-opacity="1" stroke-opacity="1"/></g><circle class="sja_aa_skkick" fill="white" fill-opacity="0" stroke="none" r="8" cy="7" transform="scale(0)"/><path class="sja_aa_stem" d="M0,0v-14l-136.32508116883116,-38.705882352941174v-23.799999999999997" stroke="#3987CC" fill="none"/><rect class="sja_aa_ssk_bg" shape-rendering="crispEdges" fill-opacity="0" height="14" fill="#3987CC" width="14" x="-7" transform="scale(1)" y="-14"/><text class="sja_aa_ssk_text" fill="white" fill-opacity="0" font-weight="bold" text-anchor="middle" dominant-baseline="central" font-size="14" transform="scale(1)" y="-7">2</text><rect class="sja_aa_ssk_kick" fill="white" fill-opacity="0" stroke="none" height="14" x="-7" width="14" transform="scale(1)" y="-14"/></g><g class="sja_skg" transform="translate(339.5234375, 76.5058822631836)"><g transform="translate(0, 7)" class="sja_aa_discg"><circle fill="#2ca02c" stroke="white" r="6.5"/><text font-size="12" fill="#2ca02c" x="8" y="3.5999999999999996" font-family="Arial" class="sja_aa_disclabel" fill-opacity="1" transform="rotate(90)">c.132C&gt;T(p.=)</text><circle r="6.5" stroke="#2ca02c" class="sja_aa_disckick" fill="white" fill-opacity="0" stroke-opacity="0" transform="scale(1)"/><path d="M4.286263797015736e-16,-7L4.286263797015736e-16,-7Z" fill="#2ca02c" class="sja_aa_discrim" fill-opacity="1" stroke-opacity="1"/></g><circle class="sja_aa_skkick" fill="white" fill-opacity="0" stroke="none" r="8" cy="7" transform="scale(0)"/><path class="sja_aa_stem" d="M0,0v-14l-223.39356737012986,-38.705882352941174v-23.799999999999997" stroke="#2ca02c" fill="none"/></g><g class="sja_skg" transform="translate(353.5234375, 76.5058822631836)"><g transform="translate(0, 7)" class="sja_aa_discg"><circle fill="#9467bd" stroke="white" r="6.5"/><text font-size="12" fill="#9467bd" x="8" y="3.5999999999999996" font-family="Arial" class="sja_aa_disclabel" fill-opacity="1" transform="">c.146+8C&gt;T</text><circle r="6.5" stroke="#9467bd" class="sja_aa_disckick" fill="white" fill-opacity="0" stroke-opacity="0" transform="scale(1)"/><path d="M4.286263797015736e-16,-7L4.286263797015736e-16,-7Z" fill="#9467bd" class="sja_aa_discrim" fill-opacity="1" stroke-opacity="1"/></g><g transform="translate(0, 21)" class="sja_aa_discg"><circle fill="#9467bd" stroke="white" r="6.5"/><text font-size="12" fill="#9467bd" x="8" y="3.5999999999999996" font-family="Arial" class="sja_aa_disclabel" fill-opacity="1" transform="">c.146+7_146+8delGCinsCT</text><circle r="6.5" stroke="#9467bd" class="sja_aa_disckick" fill="white" fill-opacity="0" stroke-opacity="0" transform="scale(1)"/><path d="M4.286263797015736e-16,-7L4.286263797015736e-16,-7Z" fill="#9467bd" class="sja_aa_discrim" fill-opacity="1" stroke-opacity="1"/></g><g transform="translate(0, 35)" class="sja_aa_discg"><circle fill="#6633FF" stroke="white" r="6.5"/><text font-size="12" fill="#6633FF" x="8" y="3.5999999999999996" font-family="Arial" class="sja_aa_disclabel" fill-opacity="1" transform="">c.146+2T&gt;G</text><circle r="6.5" stroke="#6633FF" class="sja_aa_disckick" fill="white" fill-opacity="0" stroke-opacity="0" transform="scale(1)"/><path d="M4.286263797015736e-16,-7L4.286263797015736e-16,-7Z" fill="#6633FF" class="sja_aa_discrim" fill-opacity="1" stroke-opacity="1"/></g><circle class="sja_aa_skkick" fill="white" fill-opacity="0" stroke="none" r="8" cy="7" transform="scale(0)"/><path class="sja_aa_stem" d="M0,0v-14l-224.58837256493507,-38.705882352941174v-23.799999999999997" stroke="#9467bd" fill="none"/><rect class="sja_aa_ssk_bg" shape-rendering="crispEdges" fill-opacity="0" height="14" fill="#9467bd" width="14" x="-7" transform="scale(1)" y="-14"/><text class="sja_aa_ssk_text" fill="white" fill-opacity="0" font-weight="bold" text-anchor="middle" dominant-baseline="central" font-size="14" transform="scale(1)" y="-7">3</text><rect class="sja_aa_ssk_kick" fill="white" fill-opacity="0" stroke="none" height="14" x="-7" width="14" transform="scale(1)" y="-14"/></g><g class="sja_skg" transform="translate(517.2890625, 76.5058822631836)"><g transform="translate(0, 7)" class="sja_aa_discg"><circle fill="#9467bd" stroke="white" r="6.5"/><text font-size="12" fill="#9467bd" x="8" y="3.5999999999999996" font-family="Arial" class="sja_aa_disclabel" fill-opacity="1" transform="scale(1) rotate(0)">c.462-6C&gt;A</text><circle r="6.5" stroke="#9467bd" class="sja_aa_disckick" fill="white" fill-opacity="0" stroke-opacity="0" transform="scale(1)"/><path d="M4.286263797015736e-16,-7L4.286263797015736e-16,-7Z" fill="#9467bd" class="sja_aa_discrim" fill-opacity="1" stroke-opacity="1"/></g><circle class="sja_aa_skkick" fill="white" fill-opacity="0" stroke="none" r="8" cy="7" transform="scale(0)"/><path class="sja_aa_stem" d="M0,0v-14l-110.17217938311688,-38.705882352941174v-23.799999999999997" stroke="#9467bd" fill="none"/></g><g class="sja_skg" transform="translate(881.2890625, 76.5058822631836)"><g transform="translate(0, 7)" class="sja_aa_discg"><circle fill="#2ca02c" stroke="white" r="6.5"/><text font-size="12" fill="#2ca02c" x="8" y="3.5999999999999996" font-family="Arial" class="sja_aa_disclabel" fill-opacity="1" transform="scale(1) rotate(0)">c.999C&gt;T(p.=)</text><circle r="6.5" stroke="#2ca02c" class="sja_aa_disckick" fill="white" fill-opacity="0" stroke-opacity="0" transform="scale(1)"/><path d="M4.286263797015736e-16,-7L4.286263797015736e-16,-7Z" fill="#2ca02c" class="sja_aa_discrim" fill-opacity="1" stroke-opacity="1"/></g><circle class="sja_aa_skkick" fill="white" fill-opacity="0" stroke="none" r="8" cy="7" transform="scale(0)"/><path class="sja_aa_stem" d="M0,0v-14l0.5031452922077051,-38.705882352941174v-23.799999999999997" stroke="#2ca02c" fill="none"/></g></g><g/><g transform="scale(0)"><rect fill="white" fill-opacity="0" width="1020" height="0"/><text data-testid="loading_message" fill="rgb(97, 124, 148)" fill-opacity="0" font-weight="bold" font-size="18px" text-anchor="middle" dominant-baseline="middle" x="510" y="15">Loading ...</text><line stroke="rgb(97, 124, 148)" stroke-width="2px" y1="30" y2="30" x2="0"/></g></g><g transform="translate(141.9375, 0)"><text font-size="14" font-family="Arial" y="7" text-anchor="end" dominant-baseline="central" fill="black" x="-10" font-weight="bold">GAMBL DLBCL</text><g/><text font-size="14" font-family="Arial" y="26" text-anchor="end" dominant-baseline="central" class="sja_clbtext2" fill="black" x="-10">22 of 119 mutations</text></g><g transform="translate(1174.9375, 0)"/></g><g data-testid="sja_sample_menu_opener" transform="translate(0, 280.91094970703125)"><g transform="translate(1164.9375, 0)"/><g transform="translate(144.9375, 0)"><rect fill="white" fill-opacity="0" width="1020" height="169.344921875"/><g transform="translate(0,0)" style="cursor: default;"><g class="sja_skg" transform="translate(7, 79.80000305175781)"><g transform="translate(0, 7)" class="sja_aa_discg"><circle fill="#3987CC" stroke="white" r="6.5"/><text font-size="12" fill="#3987CC" x="8" y="3.5999999999999996" font-family="Arial" class="sja_aa_disclabel" fill-opacity="1" transform="rotate(90)">p.Phe3Cys</text><circle r="6.5" stroke="#3987CC" class="sja_aa_disckick" fill="white" fill-opacity="0" stroke-opacity="0" transform="scale(1)"/><path d="M4.286263797015736e-16,-7L4.286263797015736e-16,-7Z" fill="#3987CC" class="sja_aa_discrim" fill-opacity="1" stroke-opacity="1"/></g><circle class="sja_aa_skkick" fill="white" fill-opacity="0" stroke="none" r="8" cy="7" transform="scale(0)"/><path class="sja_aa_stem" d="M0,0v-14l-0.3766233766233773,-42v-23.799999999999997" stroke="#3987CC" fill="none"/></g><g class="sja_skg" transform="translate(21, 79.80000305175781)"><g transform="translate(0, 7)" class="sja_aa_discg"><circle fill="#3987CC" stroke="white" r="6.5"/><text font-size="12" fill="#3987CC" x="8" y="3.5999999999999996" font-family="Arial" class="sja_aa_disclabel" fill-opacity="1" transform="rotate(90)">p.Lys6Gln</text><circle r="6.5" stroke="#3987CC" class="sja_aa_disckick" fill="white" fill-opacity="0" stroke-opacity="0" transform="scale(1)"/><path d="M4.286263797015736e-16,-7L4.286263797015736e-16,-7Z" fill="#3987CC" class="sja_aa_discrim" fill-opacity="1" stroke-opacity="1"/></g><circle class="sja_aa_skkick" fill="white" fill-opacity="0" stroke="none" r="8" cy="7" transform="scale(0)"/><path class="sja_aa_stem" d="M0,0v-14l-7.311688311688313,-42v-23.799999999999997" stroke="#3987CC" fill="none"/></g><g class="sja_skg" transform="translate(67, 79.80000305175781)"><g transform="translate(0, 7)" class="sja_aa_discg"><circle fill="#3987CC" stroke="white" r="6.5"/><text font-size="12" fill="#3987CC" x="8" y="3.5999999999999996" font-family="Arial" class="sja_aa_disclabel" fill-opacity="1" transform="scale(1) rotate(0)">p.Phe26Ser</text><circle r="6.5" stroke="#3987CC" class="sja_aa_disckick" fill="white" fill-opacity="0" stroke-opacity="0" transform="scale(1)"/><path d="M4.286263797015736e-16,-7L4.286263797015736e-16,-7Z" fill="#3987CC" class="sja_aa_discrim" fill-opacity="1" stroke-opacity="1"/></g><circle class="sja_aa_skkick" fill="white" fill-opacity="0" stroke="none" r="8" cy="7" transform="scale(0)"/><path class="sja_aa_stem" d="M0,0v-14l0.5584415584415581,-42v-23.799999999999997" stroke="#3987CC" fill="none"/></g></g><g/><g transform="scale(0)"><rect fill="white" fill-opacity="0" width="1020" height="0"/><text data-testid="loading_message" fill="rgb(97, 124, 148)" fill-opacity="0" font-weight="bold" font-size="18px" text-anchor="middle" dominant-baseline="middle" x="510" y="15">Loading ...</text><line stroke="rgb(97, 124, 148)" stroke-width="2px" y1="30" y2="30" x2="0"/></g></g><g transform="translate(141.9375, 0)"><text font-size="14" font-family="Arial" y="7" text-anchor="end" dominant-baseline="central" fill="black" x="-10" font-weight="bold">GAMBL FL</text><g/><text font-size="14" font-family="Arial" y="26" text-anchor="end" dominant-baseline="central" class="sja_clbtext2" fill="black" x="-10">3 of 29 mutations</text></g><g transform="translate(1174.9375, 0)"/></g><g data-testid="sja_sample_menu_opener" transform="translate(0, 102)"><g transform="translate(1164.9375, 0)"/><g transform="translate(144.9375, 0)"><rect fill="white" fill-opacity="0" width="1020" height="178.9109375"/><g transform="translate(0,0)" style="cursor: default;"><g class="sja_skg" transform="translate(7, 74.19999694824219)"><g transform="translate(0, 7)" class="sja_aa_discg"><circle fill="#3987CC" stroke="white" r="6.5"/><text font-size="12" fill="#3987CC" x="8" y="3.5999999999999996" font-family="Arial" class="sja_aa_disclabel" fill-opacity="1" transform="rotate(90)">p.Ala2Pro</text><circle r="6.5" stroke="#3987CC" class="sja_aa_disckick" fill="white" fill-opacity="0" stroke-opacity="0" transform="scale(1)"/><path d="M4.286263797015736e-16,-7L4.286263797015736e-16,-7Z" fill="#3987CC" class="sja_aa_discrim" fill-opacity="1" stroke-opacity="1"/></g><circle class="sja_aa_skkick" fill="white" fill-opacity="0" stroke="none" r="8" cy="7" transform="scale(0)"/><path class="sja_aa_stem" d="M0,0v-14l-3.909090909090909,-36.4v-23.799999999999997" stroke="#3987CC" fill="none"/></g><g class="sja_skg" transform="translate(29, 74.19999694824219)"><g transform="translate(0, 7)" class="sja_aa_discg"><circle fill="#3987CC" stroke="white" r="6.5"/><text font-size="12" fill="#3987CC" x="8" y="3.5999999999999996" font-family="Arial" class="sja_aa_disclabel" fill-opacity="1" transform="rotate(90)">p.Phe12Leu</text><circle r="6.5" stroke="#3987CC" class="sja_aa_disckick" fill="white" fill-opacity="0" stroke-opacity="0" transform="scale(1)"/><path d="M4.286263797015736e-16,-7L4.286263797015736e-16,-7Z" fill="#3987CC" class="sja_aa_discrim" fill-opacity="1" stroke-opacity="1"/></g><circle class="sja_aa_skkick" fill="white" fill-opacity="0" stroke="none" r="8" cy="7" transform="scale(0)"/><path class="sja_aa_stem" d="M0,0v-14l0.5844155844155843,-36.4v-23.799999999999997" stroke="#3987CC" fill="none"/></g><g class="sja_skg" transform="translate(101, 74.19999694824219)"><g transform="translate(0, 7)" class="sja_aa_discg"><circle fill="#3987CC" stroke="white" r="6.5"/><text font-size="12" fill="#3987CC" x="8" y="3.5999999999999996" font-family="Arial" class="sja_aa_disclabel" fill-opacity="1" transform="rotate(90)">p.Asp39His</text><circle r="6.5" stroke="#3987CC" class="sja_aa_disckick" fill="white" fill-opacity="0" stroke-opacity="0" transform="scale(1)"/><path d="M4.286263797015736e-16,-7L4.286263797015736e-16,-7Z" fill="#3987CC" class="sja_aa_discrim" fill-opacity="1" stroke-opacity="1"/></g><circle class="sja_aa_skkick" fill="white" fill-opacity="0" stroke="none" r="8" cy="7" transform="scale(0)"/><path class="sja_aa_stem" d="M0,0v-14l0.11688311688311614,-36.4v-23.799999999999997" stroke="#3987CC" fill="none"/></g><g class="sja_skg" transform="translate(118, 74.19999694824219)"><g transform="translate(0, 7)" class="sja_aa_discg"><circle fill="#3987CC" stroke="white" r="6.5"/><text font-size="12" fill="#3987CC" x="8" y="3.5999999999999996" font-family="Arial" class="sja_aa_disclabel" fill-opacity="1" transform="rotate(90)">p.Ser45Arg</text><circle r="6.5" stroke="#3987CC" class="sja_aa_disckick" fill="white" fill-opacity="0" stroke-opacity="0" transform="scale(1)"/><path d="M4.286263797015736e-16,-7L4.286263797015736e-16,-7Z" fill="#3987CC" class="sja_aa_discrim" fill-opacity="1" stroke-opacity="1"/></g><circle class="sja_aa_skkick" fill="white" fill-opacity="0" stroke="none" r="8" cy="7" transform="scale(0)"/><path class="sja_aa_stem" d="M0,0v-14l0.779220779220779,-36.4v-23.799999999999997" stroke="#3987CC" fill="none"/></g><g class="sja_skg" transform="translate(132, 74.19999694824219)"><g transform="translate(0, 7)" class="sja_aa_discg"><circle fill="#9467bd" stroke="white" r="6.5"/><text font-size="12" fill="#9467bd" x="8" y="3.5999999999999996" font-family="Arial" class="sja_aa_disclabel" fill-opacity="1" transform="">c.146+4G&gt;A</text><circle r="6.5" stroke="#9467bd" class="sja_aa_disckick" fill="white" fill-opacity="0" stroke-opacity="0" transform="scale(1)"/><path d="M4.286263797015736e-16,-7L4.286263797015736e-16,-7Z" fill="#9467bd" class="sja_aa_discrim" fill-opacity="1" stroke-opacity="1"/></g><g transform="translate(0, 21)" class="sja_aa_discg"><circle fill="#6633FF" stroke="white" r="6.5"/><text font-size="12" fill="#6633FF" x="8" y="3.5999999999999996" font-family="Arial" class="sja_aa_disclabel" fill-opacity="1" transform="">c.146+2T&gt;A</text><circle r="6.5" stroke="#6633FF" class="sja_aa_disckick" fill="white" fill-opacity="0" stroke-opacity="0" transform="scale(1)"/><path d="M4.286263797015736e-16,-7L4.286263797015736e-16,-7Z" fill="#6633FF" class="sja_aa_discrim" fill-opacity="1" stroke-opacity="1"/></g><circle class="sja_aa_skkick" fill="white" fill-opacity="0" stroke="none" r="8" cy="7" transform="scale(0)"/><path class="sja_aa_stem" d="M0,0v-14l-3.064935064935071,-36.4v-23.799999999999997" stroke="#9467bd" fill="none"/><rect class="sja_aa_ssk_bg" shape-rendering="crispEdges" fill-opacity="0" height="14" fill="#9467bd" width="14" x="-7" transform="scale(1)" y="-14"/><text class="sja_aa_ssk_text" fill="white" fill-opacity="0" font-weight="bold" text-anchor="middle" dominant-baseline="central" font-size="14" transform="scale(1)" y="-7">2</text><rect class="sja_aa_ssk_kick" fill="white" fill-opacity="0" stroke="none" height="14" x="-7" width="14" transform="scale(1)" y="-14"/></g><g class="sja_skg" transform="translate(248.400390625, 74.19999694824219)"><g transform="translate(0, 7)" class="sja_aa_discg"><circle fill="#2ca02c" stroke="white" r="6.5"/><text font-size="12" fill="#2ca02c" x="8" y="3.5999999999999996" font-family="Arial" class="sja_aa_disclabel" fill-opacity="1" transform="scale(1) rotate(0)">c.282G&gt;A(p.=)</text><circle r="6.5" stroke="#2ca02c" class="sja_aa_disckick" fill="white" fill-opacity="0" stroke-opacity="0" transform="scale(1)"/><path d="M4.286263797015736e-16,-7L4.286263797015736e-16,-7Z" fill="#2ca02c" class="sja_aa_discrim" fill-opacity="1" stroke-opacity="1"/></g><circle class="sja_aa_skkick" fill="white" fill-opacity="0" stroke="none" r="8" cy="7" transform="scale(0)"/><path class="sja_aa_stem" d="M0,0v-14l0.19701197240257784,-36.4v-23.799999999999997" stroke="#2ca02c" fill="none"/></g></g><g/><g transform="scale(0)"><rect fill="white" fill-opacity="0" width="1020" height="0"/><text data-testid="loading_message" fill="rgb(97, 124, 148)" fill-opacity="0" font-weight="bold" font-size="18px" text-anchor="middle" dominant-baseline="middle" x="510" y="15">Loading ...</text><line stroke="rgb(97, 124, 148)" stroke-width="2px" y1="30" y2="30" x2="0"/></g></g><g transform="translate(141.9375, 0)"><text font-size="14" font-family="Arial" y="7" text-anchor="end" dominant-baseline="central" fill="black" x="-10" font-weight="bold">GAMBL BL</text><g/><text font-size="14" font-family="Arial" y="26" text-anchor="end" dominant-baseline="central" class="sja_clbtext2" fill="black" x="-10">7 of 77 mutations</text></g><g transform="translate(1174.9375, 0)"/></g><g data-testid="sja_sample_menu_opener" transform="translate(0, 31)"><g transform="translate(1164.9375, 0)"/><g transform="translate(144.9375, 0)"><rect fill="white" fill-opacity="0" width="1020" height="24"/><g transform="translate(0,0)" style="cursor: default;"><text x="510" text-anchor="middle" y="7" dominant-baseline="central" font-size="14px" font-family="Arial">GAMBL MCL: no mutation in undefined</text></g><g/><g transform="scale(0)"><rect fill="white" fill-opacity="0" width="1020" height="0"/><text data-testid="loading_message" fill="rgb(97, 124, 148)" fill-opacity="0" font-weight="bold" font-size="18px" text-anchor="middle" dominant-baseline="middle" x="510" y="15">Loading ...</text><line stroke="rgb(97, 124, 148)" stroke-width="2px" y1="30" y2="30" x2="0"/></g></g><g transform="translate(141.9375, 0)"><text font-size="14" font-family="Arial" y="7" text-anchor="end" dominant-baseline="central" fill="black" x="-10" font-weight="bold">GAMBL MCL</text><g/><text font-size="14" font-family="Arial" y="26" text-anchor="end" dominant-baseline="central" class="sja_clbtext2" fill="black" x="-10"/></g><g transform="translate(1174.9375, 0)"/></g><g data-testid="sja_sample_menu_opener" transform="translate(0, 55)"><g transform="translate(1164.9375, 0)"/><g transform="translate(144.9375, 0)"><rect fill="white" fill-opacity="0" width="1020" height="47"/><g transform="translate(0,0)" style="cursor: default;"><g><line x1="0" y1="18.5" x2="1020.0000000000001" y2="18.5" stroke="black" shape-rendering="crispEdges"/><rect x="0" width="128.93506493506493" height="37" fill="white"/><rect x="29.142857142857142" width="99.79220779220779" height="37" fill="#8dd3c7"/><rect x="128.93506493506493" width="106.85714285714285" height="37" fill="white"/><rect x="128.93506493506493" width="106.85714285714285" height="37" fill="#8dd3c7"/><rect x="235.79220779220776" width="26.49350649350649" height="37" fill="white"/><rect x="235.79220779220776" width="26.49350649350649" height="37" fill="#8dd3c7"/><rect x="262.2857142857143" width="103.32467532467533" height="37" fill="white"/><rect x="262.2857142857143" width="103.32467532467533" height="37" fill="#8dd3c7"/><rect x="365.6103896103896" width="41.506493506493506" height="37" fill="white"/><rect x="365.6103896103896" width="37.090909090909086" height="37" fill="#8dd3c7"/><rect x="407.11688311688306" width="136.88311688311688" height="37" fill="white"/><rect x="544" width="92.72727272727272" height="37" fill="white"/><rect x="636.7272727272727" width="173.0909090909091" height="37" fill="white"/><rect x="809.8181818181819" width="107.74025974025973" height="37" fill="white"/><rect x="917.5584415584416" width="61.81818181818181" height="37" fill="white"/><rect x="979.3766233766235" width="40.62337662337662" height="37" fill="white"/><line x1="0" x2="1020.0000000000001" stroke="black"/><line x1="0" x2="1020.0000000000001" y1="37" y2="37" stroke="black"/><line x1="1020.0000000000001" x2="1020.0000000000001" y2="37" stroke="black"/><line x1="0" x2="0" y2="37" stroke="black"/><line class="exonboundaryclass" x1="128.93506493506493" x2="128.93506493506493" y1="0" y2="37" stroke="black" stroke-dasharray="4,2" shape-rendering="crispEdges" stroke-opacity="1"/><line class="exonboundaryclass" x1="235.79220779220776" x2="235.79220779220776" y1="0" y2="37" stroke="black" stroke-dasharray="4,2" shape-rendering="crispEdges" stroke-opacity="1"/><line class="exonboundaryclass" x1="262.2857142857143" x2="262.2857142857143" y1="0" y2="37" stroke="black" stroke-dasharray="4,2" shape-rendering="crispEdges" stroke-opacity="1"/><line class="exonboundaryclass" x1="365.6103896103896" x2="365.6103896103896" y1="0" y2="37" stroke="black" stroke-dasharray="4,2" shape-rendering="crispEdges" stroke-opacity="1"/><line class="exonboundaryclass" x1="407.11688311688306" x2="407.11688311688306" y1="0" y2="37" stroke="black" stroke-dasharray="4,2" shape-rendering="crispEdges" stroke-opacity="1"/><line class="exonboundaryclass" x1="544" x2="544" y1="0" y2="37" stroke="black" stroke-dasharray="4,2" shape-rendering="crispEdges" stroke-opacity="1"/><line class="exonboundaryclass" x1="636.7272727272727" x2="636.7272727272727" y1="0" y2="37" stroke="black" stroke-dasharray="4,2" shape-rendering="crispEdges" stroke-opacity="1"/><line class="exonboundaryclass" x1="809.8181818181819" x2="809.8181818181819" y1="0" y2="37" stroke="black" stroke-dasharray="4,2" shape-rendering="crispEdges" stroke-opacity="1"/><line class="exonboundaryclass" x1="917.5584415584416" x2="917.5584415584416" y1="0" y2="37" stroke="black" stroke-dasharray="4,2" shape-rendering="crispEdges" stroke-opacity="1"/><line class="exonboundaryclass" x1="979.3766233766235" x2="979.3766233766235" y1="0" y2="37" stroke="black" stroke-dasharray="4,2" shape-rendering="crispEdges" stroke-opacity="1"/><g transform="translate(0,18.5)" fill="none" font-size="10" font-family="sans-serif" text-anchor="middle"><path class="domain" stroke="none" d="M1.3246753246753247,0H1020.0000000000001" fill="none" stroke-width="0" shape-rendering="crispEdges"/><g class="tick" opacity="1" transform="translate(131.11054798859675,0)"><line stroke="black" y2="0" shape-rendering="crispEdges"/><text fill="black" y="3" dy="0.71em" font-family="Arial" font-size="11.666666666666666px" style="cursor: default;">50</text></g><g class="tick" opacity="1" transform="translate(263.6103896103896,0)"><line stroke="black" y2="0" shape-rendering="crispEdges"/><text fill="black" y="3" dy="0.71em" font-family="Arial" font-size="11.666666666666666px" style="cursor: default;">100</text></g><g class="tick" opacity="1" transform="translate(396.4017316017315,0)"><line stroke="black" y2="0" shape-rendering="crispEdges"/><text fill="black" y="3" dy="0.71em" font-family="Arial" font-size="11.666666666666666px" style="cursor: default;">150</text></g><g class="tick" opacity="1" transform="translate(528.1548451548451,0)"><line stroke="black" y2="0" shape-rendering="crispEdges"/><text fill="black" y="3" dy="0.71em" font-family="Arial" font-size="11.666666666666666px" style="cursor: default;">200</text></g><g class="tick" opacity="1" transform="translate(661.0741258741259,0)"><line stroke="black" y2="0" shape-rendering="crispEdges"/><text fill="black" y="3" dy="0.71em" font-family="Arial" font-size="11.666666666666666px" style="cursor: default;">250</text></g><g class="tick" opacity="1" transform="translate(793.8813186813188,0)"><line stroke="black" y2="0" shape-rendering="crispEdges"/><text fill="black" y="3" dy="0.71em" font-family="Arial" font-size="11.666666666666666px" style="cursor: default;">300</text></g><g class="tick" opacity="1" transform="translate(926.0056465273857,0)"><line stroke="black" y2="0" shape-rendering="crispEdges"/><text fill="black" y="3" dy="0.71em" font-family="Arial" font-size="11.666666666666666px" style="cursor: default;">350</text></g></g><rect x="0" width="128.93506493506493" height="37" fill="#858585" fill-opacity="0"/><rect x="128.93506493506493" width="106.85714285714285" height="37" fill="#858585" fill-opacity="0"/><rect x="235.79220779220776" width="26.49350649350649" height="37" fill="#858585" fill-opacity="0"/><rect x="262.2857142857143" width="103.32467532467533" height="37" fill="#858585" fill-opacity="0"/><rect x="365.6103896103896" width="41.506493506493506" height="37" fill="#858585" fill-opacity="0"/><rect x="407.11688311688306" width="136.88311688311688" height="37" fill="#858585" fill-opacity="0"/><rect x="544" width="92.72727272727272" height="37" fill="#858585" fill-opacity="0"/><rect x="636.7272727272727" width="173.0909090909091" height="37" fill="#858585" fill-opacity="0"/><rect x="809.8181818181819" width="107.74025974025973" height="37" fill="#858585" fill-opacity="0"/><rect x="917.5584415584416" width="61.81818181818181" height="37" fill="#858585" fill-opacity="0"/><rect x="979.3766233766235" width="40.62337662337662" height="37" fill="#858585" fill-opacity="0"/></g></g><g/><g transform="scale(0)"><rect fill="white" fill-opacity="0"/><text data-testid="loading_message" fill="rgb(97, 124, 148)" fill-opacity="0" font-weight="bold" font-size="18px" text-anchor="middle" dominant-baseline="middle">Loading ...</text><line stroke="rgb(97, 124, 148)" stroke-width="2px"/></g></g><g transform="translate(141.9375, 0)"><text font-size="14" font-family="Arial" y="7" text-anchor="end" dominant-baseline="central" fill="black" x="-10" font-weight="bold">FAM102A</text><text font-size="14" font-family="Arial" y="20" text-anchor="end" dominant-baseline="central" fill="black" x="-10">NM_001035254</text></g><g transform="translate(1174.9375, 0)"><text fill="#aaa" font-family="Arial" font-size="14" y="14" class="sja_clbtext2"/></g></g></g><g transform="scale(0)"><rect fill="white"/><text id="loadinggCloak" fill="rgb(97, 124, 148)" fill-opacity="0" font-weight="bold" font-size="18px" text-anchor="middle" dominant-baseline="middle">Loading ...</text></g><g/><g transform="translate(143.9375,645.1289292279412)"><g transform="translate(0,0)"><rect width="15" height="20" stroke="rgb(99, 148, 139)" fill="#8dd3c7" shape-rendering="crispEdges"/><text x="20" y="10" dominant-baseline="central" font-size="16" font-family="Arial" fill="black">NT-C2</text><text x="76.2265625" y="10" dominant-baseline="central" font-size="12" font-family="Arial" fill="#858585">N-terminal C2 in EEIG1 and EHBP1 proteins</text></g></g><g transform="translate(966.9375,645.1289292279412)"><g transform="translate(0,0)"><circle cx="10" cy="10" r="10" fill="#92a2d4"/><text x="30" y="10" dominant-baseline="central" font-size="16" font-family="Arial" fill="#92a2d4">SNV, n=6</text></g><g transform="translate(0,23)"><circle cx="10" cy="10" r="10" fill="#998199"/><text x="30" y="10" dominant-baseline="central" font-size="16" font-family="Arial" fill="#998199">UTR_3, n=13</text></g><g transform="translate(0,46)"><circle cx="10" cy="10" r="10" fill="#2ca02c"/><text x="30" y="10" dominant-baseline="central" font-size="16" font-family="Arial" fill="#2ca02c">SILENT, n=6</text></g><g transform="translate(0,69)"><circle cx="10" cy="10" r="10" fill="#9467bd"/><text x="30" y="10" dominant-baseline="central" font-size="16" font-family="Arial" fill="#9467bd">SPLICE_REGION, n=4</text></g><g transform="translate(0,92)"><circle cx="10" cy="10" r="10" fill="#6633FF"/><text x="30" y="10" dominant-baseline="central" font-size="16" font-family="Arial" fill="#6633FF">SPLICE, n=2</text></g><g transform="translate(0,115)"><circle cx="10" cy="10" r="10" fill="#3987CC"/><text x="30" y="10" dominant-baseline="central" font-size="16" font-family="Arial" fill="#3987CC">MISSENSE, n=19</text></g><g transform="translate(0,138)"><circle cx="10" cy="10" r="10" fill="#819981"/><text x="30" y="10" dominant-baseline="central" font-size="16" font-family="Arial" fill="#819981">UTR_5, n=35</text></g><g transform="translate(0,161)"><circle cx="10" cy="10" r="10" fill="#db3d3d"/><text x="30" y="10" dominant-baseline="central" font-size="16" font-family="Arial" fill="#db3d3d">FRAMESHIFT, n=1</text></g></g></svg>