<svg xmlns="http://www.w3.org/2000/svg" data-testid="sjpp_block_svg" width="1335.3984375" height="442.6203125"><g transform="translate(0,0)"><g transform="translate(125.3984375, 0)"/><rect fill="#FFFF99" x="889" width="0" height="287.6203125"/><g transform="translate(125.3984375, 23)"><g transform="translate(0,0)"><text text-anchor="end" x="-13" y="-10" dominant-baseline="central" font-size="13" font-family="Arial">Protein length</text><g><g transform="translate(0,0)" fill="none" font-size="10" font-family="sans-serif" text-anchor="middle"><path class="domain" stroke="black" d="M0,-6V0H1100V-6" fill="none" stroke-width="1" shape-rendering="crispEdges"/><g class="tick" opacity="1" transform="translate(163.82978723404256,0)"><line stroke="black" y2="-6" shape-rendering="crispEdges"/><text fill="black" y="-9" dy="0em" font-family="Arial" font-size="12px" style="cursor: default;">50</text></g><g class="tick" opacity="1" transform="translate(331.00303951367783,0)"><line stroke="black" y2="-6" shape-rendering="crispEdges"/><text fill="black" y="-9" dy="0em" font-family="Arial" font-size="12px" style="cursor: default;">100</text></g><g class="tick" opacity="1" transform="translate(498.17629179331306,0)"><line stroke="black" y2="-6" shape-rendering="crispEdges"/><text fill="black" y="-9" dy="0em" font-family="Arial" font-size="12px" style="cursor: default;">150</text></g><g class="tick" opacity="1" transform="translate(665.3495440729483,0)"><line stroke="black" y2="-6" shape-rendering="crispEdges"/><text fill="black" y="-9" dy="0em" font-family="Arial" font-size="12px" style="cursor: default;">200</text></g><g class="tick" opacity="1" transform="translate(832.5227963525836,0)"><line stroke="black" y2="-6" shape-rendering="crispEdges"/><text fill="black" y="-9" dy="0em" font-family="Arial" font-size="12px" style="cursor: default;">250</text></g><g class="tick" opacity="1" transform="translate(999.6960486322189,0)"><line stroke="black" y2="-6" shape-rendering="crispEdges"/><text fill="black" y="-9" dy="0em" font-family="Arial" font-size="12px" style="cursor: default;">300</text></g></g></g><rect fill="white" fill-opacity="0" x="0" y="-23" width="1100" height="26"/></g><g transform="translate(1100, 0)"/></g><g data-testid="sja_sample_menu_opener" transform="translate(0, 31)"><g transform="translate(1225.3984375, 0)"/><g transform="translate(125.3984375, 0)"><rect fill="white" fill-opacity="0" width="1100" height="166.6203125"/><g transform="translate(0,0)" style="cursor: default;"><g class="sja_skg" transform="translate(92, 83.8203125)"><g transform="translate(0, -7)" class="sja_aa_discg"><circle fill="#6633FF" stroke="white" r="6.5"/><text font-size="12" fill="#6633FF" x="8" y="3.5999999999999996" font-family="Arial" class="sja_aa_disclabel" fill-opacity="1" transform="">c.84-1G&gt;A</text><circle r="6.5" stroke="#6633FF" class="sja_aa_disckick" fill="white" fill-opacity="0" stroke-opacity="0" transform="scale(1)"/><path d="M4.286263797015736e-16,-7L4.286263797015736e-16,-7Z" fill="#6633FF" class="sja_aa_discrim" fill-opacity="1" stroke-opacity="1"/></g><g transform="translate(0, -21)" class="sja_aa_discg"><circle fill="#6633FF" stroke="white" r="6.5"/><text font-size="12" fill="#6633FF" x="8" y="3.5999999999999996" font-family="Arial" class="sja_aa_disclabel" fill-opacity="1" transform="">c.84-1G&gt;C</text><circle r="6.5" stroke="#6633FF" class="sja_aa_disckick" fill="white" fill-opacity="0" stroke-opacity="0" transform="scale(1)"/><path d="M4.286263797015736e-16,-7L4.286263797015736e-16,-7Z" fill="#6633FF" class="sja_aa_discrim" fill-opacity="1" stroke-opacity="1"/></g><circle class="sja_aa_skkick" fill="white" fill-opacity="0" stroke="none" r="8" cy="-7" transform="scale(0)"/><path class="sja_aa_stem" d="M0,0v14l0.5025329280648378,35v23.799999999999997" stroke="#6633FF" fill="none"/><rect class="sja_aa_ssk_bg" shape-rendering="crispEdges" fill-opacity="0" height="14" fill="#6633FF" width="14" x="-7" transform="scale(1)" y="0"/><text class="sja_aa_ssk_text" fill="white" fill-opacity="0" font-weight="bold" text-anchor="middle" dominant-baseline="central" font-size="14" transform="scale(1)" y="7">2</text><rect class="sja_aa_ssk_kick" fill="white" fill-opacity="0" stroke="none" height="14" x="-7" width="14" transform="scale(1)" y="0"/></g><g class="sja_skg" transform="translate(165.359375, 83.8203125)"><g transform="translate(0, -7)" class="sja_aa_discg"><circle fill="#3987CC" stroke="white" r="6.5"/><text font-size="12" fill="#3987CC" x="8" y="3.5999999999999996" font-family="Arial" class="sja_aa_disclabel" fill-opacity="1" transform="rotate(-90)">p.Gly48Arg</text><circle r="6.5" stroke="#3987CC" class="sja_aa_disckick" fill="white" fill-opacity="0" stroke-opacity="0" transform="scale(1)"/><path d="M4.286263797015736e-16,-7L4.286263797015736e-16,-7Z" fill="#3987CC" class="sja_aa_discrim" fill-opacity="1" stroke-opacity="1"/></g><circle class="sja_aa_skkick" fill="white" fill-opacity="0" stroke="none" r="8" cy="-7" transform="scale(0)"/><path class="sja_aa_stem" d="M0,0v14l-7.659273682877426,35v23.799999999999997" stroke="#3987CC" fill="none"/></g><g class="sja_skg" transform="translate(179.359375, 83.8203125)"><g transform="translate(0, -7)" class="sja_aa_discg"><circle fill="#3987CC" stroke="white" r="6.5"/><text font-size="12" fill="#3987CC" x="8" y="3.5999999999999996" font-family="Arial" class="sja_aa_disclabel" fill-opacity="1" transform="rotate(-90)">p.Ala50Thr</text><circle r="6.5" stroke="#3987CC" class="sja_aa_disckick" fill="white" fill-opacity="0" stroke-opacity="0" transform="scale(1)"/><path d="M4.286263797015736e-16,-7L4.286263797015736e-16,-7Z" fill="#3987CC" class="sja_aa_discrim" fill-opacity="1" stroke-opacity="1"/></g><circle class="sja_aa_skkick" fill="white" fill-opacity="0" stroke="none" r="8" cy="-7" transform="scale(0)"/><path class="sja_aa_stem" d="M0,0v14l-14.97234359169201,35v23.799999999999997" stroke="#3987CC" fill="none"/></g><g class="sja_skg" transform="translate(198.359375, 83.8203125)"><g transform="translate(0, -7)" class="sja_aa_discg"><circle fill="#3987CC" stroke="white" r="6.5"/><text font-size="12" fill="#3987CC" x="8" y="3.5999999999999996" font-family="Arial" class="sja_aa_disclabel" fill-opacity="1" transform="rotate(-90)">p.Ser60Phe</text><circle r="6.5" stroke="#3987CC" class="sja_aa_disckick" fill="white" fill-opacity="0" stroke-opacity="0" transform="scale(1)"/><path d="M4.286263797015736e-16,-7L4.286263797015736e-16,-7Z" fill="#3987CC" class="sja_aa_discrim" fill-opacity="1" stroke-opacity="1"/></g><circle class="sja_aa_skkick" fill="white" fill-opacity="0" stroke="none" r="8" cy="-7" transform="scale(0)"/><path class="sja_aa_stem" d="M0,0v14l0.5767952127659441,35v23.799999999999997" stroke="#3987CC" fill="none"/></g><g class="sja_skg" transform="translate(218.359375, 83.8203125)"><g transform="translate(0, -7)" class="sja_aa_discg"><circle fill="#3987CC" stroke="white" r="6.5"/><text font-size="12" fill="#3987CC" x="8" y="3.5999999999999996" font-family="Arial" class="sja_aa_disclabel" fill-opacity="1" transform="rotate(-90)">p.Arg66Lys</text><circle r="6.5" stroke="#3987CC" class="sja_aa_disckick" fill="white" fill-opacity="0" stroke-opacity="0" transform="scale(1)"/><path d="M4.286263797015736e-16,-7L4.286263797015736e-16,-7Z" fill="#3987CC" class="sja_aa_discrim" fill-opacity="1" stroke-opacity="1"/></g><circle class="sja_aa_skkick" fill="white" fill-opacity="0" stroke="none" r="8" cy="-7" transform="scale(0)"/><path class="sja_aa_stem" d="M0,0v14l0.6375854863221662,35v23.799999999999997" stroke="#3987CC" fill="none"/></g><g class="sja_skg" transform="translate(232.359375, 83.8203125)"><g transform="translate(0, -7)" class="sja_aa_discg"><circle fill="#3987CC" stroke="white" r="6.5"/><text font-size="12" fill="#3987CC" x="8" y="3.5999999999999996" font-family="Arial" class="sja_aa_disclabel" fill-opacity="1" transform="rotate(-90)">p.Ala70Asp</text><circle r="6.5" stroke="#3987CC" class="sja_aa_disckick" fill="white" fill-opacity="0" stroke-opacity="0" transform="scale(1)"/><path d="M4.286263797015736e-16,-7L4.286263797015736e-16,-7Z" fill="#3987CC" class="sja_aa_discrim" fill-opacity="1" stroke-opacity="1"/></g><circle class="sja_aa_skkick" fill="white" fill-opacity="0" stroke="none" r="8" cy="-7" transform="scale(0)"/><path class="sja_aa_stem" d="M0,0v14l0.011445668692999789,35v23.799999999999997" stroke="#3987CC" fill="none"/></g><g class="sja_skg" transform="translate(246.359375, 83.8203125)"><g transform="translate(0, -7)" class="sja_aa_discg"><circle fill="#3987CC" stroke="white" r="6.5"/><text font-size="12" fill="#3987CC" x="8" y="3.5999999999999996" font-family="Arial" class="sja_aa_disclabel" fill-opacity="1" transform="scale(1) rotate(0)">p.Ala71Val</text><circle r="6.5" stroke="#3987CC" class="sja_aa_disckick" fill="white" fill-opacity="0" stroke-opacity="0" transform="scale(1)"/><path d="M4.286263797015736e-16,-7L4.286263797015736e-16,-7Z" fill="#3987CC" class="sja_aa_discrim" fill-opacity="1" stroke-opacity="1"/></g><circle class="sja_aa_skkick" fill="white" fill-opacity="0" stroke="none" r="8" cy="-7" transform="scale(0)"/><path class="sja_aa_stem" d="M0,0v14l-10.645089285714306,35v23.799999999999997" stroke="#3987CC" fill="none"/></g><g class="sja_skg" transform="translate(365.359375, 83.8203125)"><g transform="translate(0, -7)" class="sja_aa_discg"><circle fill="#3987CC" stroke="white" r="6.5"/><text font-size="12" fill="#3987CC" x="8" y="3.5999999999999996" font-family="Arial" class="sja_aa_disclabel" fill-opacity="1" transform="rotate(-90)">p.Thr110Asn</text><circle r="6.5" stroke="#3987CC" class="sja_aa_disckick" fill="white" fill-opacity="0" stroke-opacity="0" transform="scale(1)"/><path d="M4.286263797015736e-16,-7L4.286263797015736e-16,-7Z" fill="#3987CC" class="sja_aa_discrim" fill-opacity="1" stroke-opacity="1"/></g><circle class="sja_aa_skkick" fill="white" fill-opacity="0" stroke="none" r="8" cy="-7" transform="scale(0)"/><path class="sja_aa_stem" d="M0,0v14l0.7500474924011655,35v23.799999999999997" stroke="#3987CC" fill="none"/></g><g class="sja_skg" transform="translate(379.359375, 83.8203125)"><g transform="translate(0, -7)" class="sja_aa_discg"><circle fill="#3987CC" stroke="white" r="6.5"/><text font-size="12" fill="#3987CC" x="8" y="3.5999999999999996" font-family="Arial" class="sja_aa_disclabel" fill-opacity="1" transform="scale(1) rotate(0)">p.Ala112Gly</text><circle r="6.5" stroke="#3987CC" class="sja_aa_disckick" fill="white" fill-opacity="0" stroke-opacity="0" transform="scale(1)"/><path d="M4.286263797015736e-16,-7L4.286263797015736e-16,-7Z" fill="#3987CC" class="sja_aa_discrim" fill-opacity="1" stroke-opacity="1"/></g><circle class="sja_aa_skkick" fill="white" fill-opacity="0" stroke="none" r="8" cy="-7" transform="scale(0)"/><path class="sja_aa_stem" d="M0,0v14l-6.563022416413389,35v23.799999999999997" stroke="#3987CC" fill="none"/></g></g><g/><g transform="scale(0)"><rect fill="white" fill-opacity="0.5" width="1100" height="0"/><text data-testid="loading_message" fill="rgb(97, 124, 148)" fill-opacity="1" font-weight="bold" font-size="18px" text-anchor="middle" dominant-baseline="middle" x="550" y="15">Loading ...</text><line stroke="rgb(97, 124, 148)" stroke-width="2px" y1="30" y2="30" x2="0"/></g></g><g transform="translate(122.3984375, 0)"><text font-size="14" font-family="Arial" y="7" text-anchor="end" dominant-baseline="central" fill="black" x="-10" font-weight="bold">GAMBL DLBCL</text><g/><text font-size="14" font-family="Arial" y="26" text-anchor="end" dominant-baseline="central" class="sja_clbtext2" fill="black" x="-10">10 mutations</text></g><g transform="translate(1235.3984375, 0)"/></g><g data-testid="sja_sample_menu_opener" transform="translate(0, 244.6203155517578)"><g transform="translate(1225.3984375, 0)"/><g transform="translate(125.3984375,0)"><rect fill="white" fill-opacity="0" width="1100" height="24"/><g transform="translate(0,0)" style="cursor: default;"/><g/><g transform="scale(0)"><rect fill="white" fill-opacity="0.5" width="1100" height="0"/><text data-testid="loading_message" fill="rgb(97, 124, 148)" fill-opacity="1" font-weight="bold" font-size="18px" text-anchor="middle" dominant-baseline="middle" x="550" y="15">Loading ...</text><line stroke="rgb(97, 124, 148)" stroke-width="2px" y1="30" y2="30" x2="0"/></g></g><g transform="translate(122.3984375,0)"><text font-size="14" font-family="Arial" y="7" text-anchor="end" dominant-baseline="central" fill="black" x="-10" font-weight="bold">GAMBL FL</text><g/><text font-size="14" font-family="Arial" y="26" text-anchor="end" dominant-baseline="central" class="sja_clbtext2" fill="black" x="-10"/></g><g transform="translate(1235.3984375,0)"/></g><g data-testid="sja_sample_menu_opener" transform="translate(0, 268.62030029296875)"><g transform="translate(1225.3984375, 0)"/><g transform="translate(125.3984375,0)"><rect fill="white" fill-opacity="0" width="1100" height="24"/><g transform="translate(0,0)" style="cursor: default;"/><g/><g transform="scale(0)"><rect fill="white" fill-opacity="0.5" width="1100" height="0"/><text data-testid="loading_message" fill="rgb(97, 124, 148)" fill-opacity="1" font-weight="bold" font-size="18px" text-anchor="middle" dominant-baseline="middle" x="550" y="15">Loading ...</text><line stroke="rgb(97, 124, 148)" stroke-width="2px" y1="30" y2="30" x2="0"/></g></g><g transform="translate(122.3984375,0)"><text font-size="14" font-family="Arial" y="7" text-anchor="end" dominant-baseline="central" fill="black" x="-10" font-weight="bold">GAMBL BL</text><g/><text font-size="14" font-family="Arial" y="26" text-anchor="end" dominant-baseline="central" class="sja_clbtext2" fill="black" x="-10"/></g><g transform="translate(1235.3984375,0)"/></g><g data-testid="sja_sample_menu_opener" transform="translate(0, 197.6203155517578)"><g transform="translate(1225.3984375, 0)"/><g transform="translate(125.3984375,0)"><rect fill="white" fill-opacity="0" width="1100" height="47"/><g transform="translate(0,0)" style="cursor: default;"><g><line x1="0" y1="18.5" x2="1099.9999999999998" y2="18.5" stroke="black" shape-rendering="crispEdges"/><rect x="0" width="92.50253292806484" height="37" fill="white"/><rect x="20.06079027355623" width="72.4417426545086" height="37" fill="#E8E89E"/><rect x="40.12158054711246" width="6.68693009118541" height="37" fill="#bebada"/><rect x="50.15197568389057" width="3.343465045592705" height="37" fill="#bebada"/><rect x="92.50253292806484" width="145.9979736575481" height="37" fill="white"/><rect x="92.50253292806484" width="145.9979736575481" height="37" fill="#E8E89E"/><rect x="190.57750759878417" width="10.030395136778115" height="37" fill="#bebada"/><rect x="193.9209726443769" width="3.343465045592705" height="37" fill="#8dd3c7"/><rect x="238.50050658561292" width="81.35764944275581" height="37" fill="white"/><rect x="238.50050658561292" width="81.35764944275581" height="37" fill="#E8E89E"/><rect x="270.82066869300905" width="10.030395136778115" height="37" fill="#8dd3c7"/><rect x="274.1641337386018" width="6.68693009118541" height="37" fill="#fb8072"/><rect x="267.4772036474164" width="3.343465045592705" height="37" fill="#bebada"/><rect x="319.85815602836874" width="130.3951367781155" height="37" fill="white"/><rect x="319.85815602836874" width="130.3951367781155" height="37" fill="#E8E89E"/><rect x="374.4680851063829" width="6.68693009118541" height="37" fill="#bebada"/><rect x="361.0942249240121" width="6.68693009118541" height="37" fill="#bebada"/><rect x="384.498480243161" width="6.68693009118541" height="37" fill="#bebada"/><rect x="397.8723404255319" width="3.343465045592705" height="37" fill="#bebada"/><rect x="354.40729483282666" width="3.343465045592705" height="37" fill="#8dd3c7"/><rect x="417.9331306990881" width="3.343465045592705" height="37" fill="#bebada"/><rect x="411.24620060790267" width="3.343465045592705" height="37" fill="#bebada"/><rect x="444.6808510638297" width="3.343465045592705" height="37" fill="#bebada"/><rect x="367.7811550151975" width="3.343465045592705" height="37" fill="#fb8072"/><rect x="450.25329280648424" width="99.18946301925024" height="37" fill="white"/><rect x="450.25329280648424" width="99.18946301925024" height="37" fill="#E8E89E"/><rect x="464.74164133738594" width="23.404255319148934" height="37" fill="#bebada"/><rect x="531.61094224924" width="16.717325227963524" height="37" fill="#fb8072"/><rect x="491.4893617021276" width="16.717325227963524" height="37" fill="#bebada"/><rect x="451.36778115501517" width="3.343465045592705" height="37" fill="#bebada"/><rect x="458.05471124620055" width="3.343465045592705" height="37" fill="#bebada"/><rect x="549.4427558257345" width="117.02127659574467" height="37" fill="white"/><rect x="549.4427558257345" width="117.02127659574467" height="37" fill="#E8E89E"/><rect x="608.5106382978722" width="10.030395136778115" height="37" fill="#fb8072"/><rect x="565.0455927051671" width="6.68693009118541" height="37" fill="#bebada"/><rect x="578.4194528875379" width="6.68693009118541" height="37" fill="#bebada"/><rect x="625.2279635258358" width="3.343465045592705" height="37" fill="#fb8072"/><rect x="666.4640324214791" width="151.57041540020262" height="37" fill="white"/><rect x="666.4640324214791" width="151.57041540020262" height="37" fill="#E8E89E"/><rect x="809.1185410334346" width="8.915906788247213" height="37" fill="#fb8072"/><rect x="715.5015197568388" width="10.030395136778115" height="37" fill="#fb8072"/><rect x="735.5623100303951" width="6.68693009118541" height="37" fill="#fb8072"/><rect x="815.80547112462" width="2.2289766970618032" height="37" fill="#8dd3c7"/><rect x="815.80547112462" width="2.2289766970618032" height="37" fill="#80b1d3"/><rect x="818.0344478216817" width="145.9979736575481" height="37" fill="white"/><rect x="818.0344478216817" width="145.9979736575481" height="37" fill="#E8E89E"/><rect x="962.9179331306989" width="1.1144883485309016" height="37" fill="#bebada"/><rect x="818.0344478216817" width="1.1144883485309016" height="37" fill="#fb8072"/><rect x="912.7659574468083" width="6.68693009118541" height="37" fill="#bebada"/><rect x="896.0486322188449" width="6.68693009118541" height="37" fill="#fb8072"/><rect x="818.0344478216817" width="1.1144883485309016" height="37" fill="#8dd3c7"/><rect x="818.0344478216817" width="1.1144883485309016" height="37" fill="#80b1d3"/><rect x="912.7659574468083" width="3.343465045592705" height="37" fill="#80b1d3"/><rect x="942.8571428571427" width="3.343465045592705" height="37" fill="#bebada"/><rect x="964.0324214792298" width="135.96757852077" height="37" fill="white"/><rect x="964.0324214792298" width="102.53292806484295" height="37" fill="#E8E89E"/><rect x="964.0324214792298" width="22.289766970618032" height="37" fill="#bebada"/><rect x="989.6656534954406" width="13.37386018237082" height="37" fill="#bebada"/><rect x="982.9787234042551" width="6.68693009118541" height="37" fill="#fb8072"/><rect x="986.3221884498479" width="3.343465045592705" height="37" fill="#8dd3c7"/><rect x="976.2917933130698" width="3.343465045592705" height="37" fill="#fb8072"/><rect x="976.2917933130698" width="3.343465045592705" height="37" fill="#80b1d3"/><rect x="1006.3829787234041" width="3.343465045592705" height="37" fill="#bebada"/><rect x="976.2917933130698" width="3.343465045592705" height="37" fill="#8dd3c7"/><line x1="0" x2="1099.9999999999998" stroke="black"/><line x1="0" x2="1099.9999999999998" y1="37" y2="37" stroke="black"/><line x1="0" x2="0" y2="37" stroke="black"/><line x1="1099.9999999999998" x2="1099.9999999999998" y2="37" stroke="black"/><line class="exonboundaryclass" x1="92.50253292806484" x2="92.50253292806484" y1="0" y2="37" stroke="black" stroke-dasharray="4,2" shape-rendering="crispEdges" stroke-opacity="1"/><line class="exonboundaryclass" x1="238.50050658561292" x2="238.50050658561292" y1="0" y2="37" stroke="black" stroke-dasharray="4,2" shape-rendering="crispEdges" stroke-opacity="1"/><line class="exonboundaryclass" x1="319.85815602836874" x2="319.85815602836874" y1="0" y2="37" stroke="black" stroke-dasharray="4,2" shape-rendering="crispEdges" stroke-opacity="1"/><line class="exonboundaryclass" x1="450.25329280648424" x2="450.25329280648424" y1="0" y2="37" stroke="black" stroke-dasharray="4,2" shape-rendering="crispEdges" stroke-opacity="1"/><line class="exonboundaryclass" x1="549.4427558257345" x2="549.4427558257345" y1="0" y2="37" stroke="black" stroke-dasharray="4,2" shape-rendering="crispEdges" stroke-opacity="1"/><line class="exonboundaryclass" x1="666.4640324214791" x2="666.4640324214791" y1="0" y2="37" stroke="black" stroke-dasharray="4,2" shape-rendering="crispEdges" stroke-opacity="1"/><line class="exonboundaryclass" x1="818.0344478216817" x2="818.0344478216817" y1="0" y2="37" stroke="black" stroke-dasharray="4,2" shape-rendering="crispEdges" stroke-opacity="1"/><line class="exonboundaryclass" x1="964.0324214792298" x2="964.0324214792298" y1="0" y2="37" stroke="black" stroke-dasharray="4,2" shape-rendering="crispEdges" stroke-opacity="1"/><g transform="translate(0,18.5)" fill="none" font-size="10" font-family="sans-serif" text-anchor="middle"><path class="domain" stroke="none" d="M1.6717325227963524,0H1099.9999999999998" fill="none" stroke-width="0" shape-rendering="crispEdges"/><g class="tick" opacity="1" transform="translate(165.22289766970616,0)"><line stroke="black" y2="0" shape-rendering="crispEdges"/><text fill="black" y="3" dy="0.71em" font-family="Arial" font-size="11.666666666666666px" style="cursor: default;">50</text></g><g class="tick" opacity="1" transform="translate(332.7319252851167,0)"><line stroke="black" y2="0" shape-rendering="crispEdges"/><text fill="black" y="3" dy="0.71em" font-family="Arial" font-size="11.666666666666666px" style="cursor: default;">100</text></g><g class="tick" opacity="1" transform="translate(499.5694022289766,0)"><line stroke="black" y2="0" shape-rendering="crispEdges"/><text fill="black" y="3" dy="0.71em" font-family="Arial" font-size="11.666666666666666px" style="cursor: default;">150</text></g><g class="tick" opacity="1" transform="translate(667.0212765957446,0)"><line stroke="black" y2="0" shape-rendering="crispEdges"/><text fill="black" y="3" dy="0.71em" font-family="Arial" font-size="11.666666666666666px" style="cursor: default;">200</text></g><g class="tick" opacity="1" transform="translate(834.1312056737587,0)"><line stroke="black" y2="0" shape-rendering="crispEdges"/><text fill="black" y="3" dy="0.71em" font-family="Arial" font-size="11.666666666666666px" style="cursor: default;">250</text></g><g class="tick" opacity="1" transform="translate(1000.919267551338,0)"><line stroke="black" y2="0" shape-rendering="crispEdges"/><text fill="black" y="3" dy="0.71em" font-family="Arial" font-size="11.666666666666666px" style="cursor: default;">300</text></g></g><rect x="0" width="92.50253292806484" height="37" fill="#858585" fill-opacity="0"/><rect x="92.50253292806484" width="145.9979736575481" height="37" fill="#858585" fill-opacity="0"/><rect x="238.50050658561292" width="81.35764944275581" height="37" fill="#858585" fill-opacity="0"/><rect x="319.85815602836874" width="130.3951367781155" height="37" fill="#858585" fill-opacity="0"/><rect x="450.25329280648424" width="99.18946301925024" height="37" fill="#858585" fill-opacity="0"/><rect x="549.4427558257345" width="117.02127659574467" height="37" fill="#858585" fill-opacity="0"/><rect x="666.4640324214791" width="151.57041540020262" height="37" fill="#858585" fill-opacity="0"/><rect x="818.0344478216817" width="145.9979736575481" height="37" fill="#858585" fill-opacity="0"/><rect x="964.0324214792298" width="135.96757852077" height="37" fill="#858585" fill-opacity="0"/></g></g><g/><g transform="scale(0)"><rect fill="white" fill-opacity="0"/><text data-testid="loading_message" fill="rgb(97, 124, 148)" fill-opacity="0" font-weight="bold" font-size="18px" text-anchor="middle" dominant-baseline="middle">Loading ...</text><line stroke="rgb(97, 124, 148)" stroke-width="2px"/></g></g><g transform="translate(122.3984375,0)"><text font-size="14" font-family="Arial" y="7" text-anchor="end" dominant-baseline="central" fill="black" x="-10" font-weight="bold">GRHPR</text><text font-size="14" font-family="Arial" y="20" text-anchor="end" dominant-baseline="central" fill="black" x="-10">NM_012203</text></g><g transform="translate(1235.3984375,0)"><text fill="#aaa" font-family="Arial" font-size="14" y="14" class="sja_clbtext2"/></g></g></g><g transform="scale(0)"><rect fill="white"/><text id="loadinggCloak" fill="rgb(97, 124, 148)" fill-opacity="0" font-weight="bold" font-size="18px" text-anchor="middle" dominant-baseline="middle">Loading ...</text></g><g/><g transform="translate(124.3984375,307.6203125)"><g transform="translate(0,0)"><rect width="15" height="20" stroke="rgb(162, 162, 111)" fill="#E8E89E" shape-rendering="crispEdges"/><text x="20" y="10" dominant-baseline="central" font-size="16" font-family="Arial" fill="black">GDH</text><text x="65.5546875" y="10" dominant-baseline="central" font-size="12" font-family="Arial" fill="#858585">D-glycerate dehydrogenase/hydroxypyruvate reductase (GDH)</text></g><g transform="translate(0,23)"><rect width="15" height="20" stroke="rgb(133, 130, 153)" fill="#bebada" shape-rendering="crispEdges"/><text x="20" y="10" dominant-baseline="central" font-size="16" font-family="Arial" fill="black">other</text><text x="66.6875" y="10" dominant-baseline="central" font-size="12" font-family="Arial" fill="#858585">dimerization interface [polypeptide binding]</text></g><g transform="translate(0,46)"><rect width="15" height="20" stroke="rgb(99, 148, 139)" fill="#8dd3c7" shape-rendering="crispEdges"/><text x="20" y="10" dominant-baseline="central" font-size="16" font-family="Arial" fill="black">other</text><text x="66.6875" y="10" dominant-baseline="central" font-size="12" font-family="Arial" fill="#858585">ligand binding site [chemical binding]</text></g><g transform="translate(0,69)"><rect width="15" height="20" stroke="rgb(176, 90, 80)" fill="#fb8072" shape-rendering="crispEdges"/><text x="20" y="10" dominant-baseline="central" font-size="16" font-family="Arial" fill="black">other</text><text x="66.6875" y="10" dominant-baseline="central" font-size="12" font-family="Arial" fill="#858585">NADP binding site [chemical binding]</text></g><g transform="translate(0,92)"><rect width="15" height="20" stroke="rgb(90, 124, 148)" fill="#80b1d3" shape-rendering="crispEdges"/><text x="20" y="10" dominant-baseline="central" font-size="16" font-family="Arial" fill="black">active</text><text x="71.796875" y="10" dominant-baseline="central" font-size="12" font-family="Arial" fill="#858585">catalytic site [active]</text></g></g><g transform="translate(1027.3984375,307.6203125)"><g transform="translate(0,0)"><circle cx="10" cy="10" r="10" fill="#6633FF"/><text x="30" y="10" dominant-baseline="central" font-size="16" font-family="Arial" fill="#6633FF">SPLICE, n=2</text></g><g transform="translate(0,23)"><circle cx="10" cy="10" r="10" fill="#3987CC"/><text x="30" y="10" dominant-baseline="central" font-size="16" font-family="Arial" fill="#3987CC">MISSENSE, n=8</text></g></g></svg>