<svg xmlns="http://www.w3.org/2000/svg" data-testid="sjpp_block_svg" width="1495.3984375" height="876.103125"><g transform="translate(0,0)"><g transform="translate(125.3984375, 0)"/><rect fill="#FFFF99" x="839" width="0" height="514.103125"/><g transform="translate(125.3984375, 23)"><g transform="translate(0,0)"><text text-anchor="end" x="-13" y="-10" dominant-baseline="central" font-size="13" font-family="Arial">Protein length</text><g><g transform="translate(0,0)" fill="none" font-size="10" font-family="sans-serif" text-anchor="middle"><path class="domain" stroke="black" d="M0,-6V0H1260V-6" fill="none" stroke-width="1" shape-rendering="crispEdges"/><g class="tick" opacity="1" transform="translate(107.62726488352028,0)"><line stroke="black" y2="-6" shape-rendering="crispEdges"/><text fill="black" y="-9" dy="0em" font-family="Arial" font-size="12px" style="cursor: default;">100</text></g><g class="tick" opacity="1" transform="translate(216.3416738567731,0)"><line stroke="black" y2="-6" shape-rendering="crispEdges"/><text fill="black" y="-9" dy="0em" font-family="Arial" font-size="12px" style="cursor: default;">200</text></g><g class="tick" opacity="1" transform="translate(325.05608283002584,0)"><line stroke="black" y2="-6" shape-rendering="crispEdges"/><text fill="black" y="-9" dy="0em" font-family="Arial" font-size="12px" style="cursor: default;">300</text></g><g class="tick" opacity="1" transform="translate(433.7704918032787,0)"><line stroke="black" y2="-6" shape-rendering="crispEdges"/><text fill="black" y="-9" dy="0em" font-family="Arial" font-size="12px" style="cursor: default;">400</text></g><g class="tick" opacity="1" transform="translate(542.4849007765315,0)"><line stroke="black" y2="-6" shape-rendering="crispEdges"/><text fill="black" y="-9" dy="0em" font-family="Arial" font-size="12px" style="cursor: default;">500</text></g><g class="tick" opacity="1" transform="translate(651.1993097497842,0)"><line stroke="black" y2="-6" shape-rendering="crispEdges"/><text fill="black" y="-9" dy="0em" font-family="Arial" font-size="12px" style="cursor: default;">600</text></g><g class="tick" opacity="1" transform="translate(759.9137187230372,0)"><line stroke="black" y2="-6" shape-rendering="crispEdges"/><text fill="black" y="-9" dy="0em" font-family="Arial" font-size="12px" style="cursor: default;">700</text></g><g class="tick" opacity="1" transform="translate(868.6281276962899,0)"><line stroke="black" y2="-6" shape-rendering="crispEdges"/><text fill="black" y="-9" dy="0em" font-family="Arial" font-size="12px" style="cursor: default;">800</text></g><g class="tick" opacity="1" transform="translate(977.3425366695427,0)"><line stroke="black" y2="-6" shape-rendering="crispEdges"/><text fill="black" y="-9" dy="0em" font-family="Arial" font-size="12px" style="cursor: default;">900</text></g><g class="tick" opacity="1" transform="translate(1086.0569456427954,0)"><line stroke="black" y2="-6" shape-rendering="crispEdges"/><text fill="black" y="-9" dy="0em" font-family="Arial" font-size="12px" style="cursor: default;">1000</text></g><g class="tick" opacity="1" transform="translate(1194.7713546160483,0)"><line stroke="black" y2="-6" shape-rendering="crispEdges"/><text fill="black" y="-9" dy="0em" font-family="Arial" font-size="12px" style="cursor: default;">1100</text></g></g></g><rect fill="white" fill-opacity="0" x="0" y="-23" width="1260" height="26"/></g><g transform="translate(1260, 0)"/></g><g data-testid="sja_sample_menu_opener" transform="translate(0, 237.1828155517578)"><g transform="translate(1385.3984375, 0)"/><g transform="translate(125.3984375, 0)"><rect fill="white" fill-opacity="0" width="1260" height="163.1828125"/><g transform="translate(0,0)" style="cursor: default;"><g class="sja_skg" transform="translate(60.69887924194336, 51.79999923706055)"><g transform="translate(0, 7)" class="sja_aa_discg"><circle fill="#9467bd" stroke="white" r="6.5"/><text font-size="12" fill="#9467bd" x="8" y="3.5999999999999996" font-family="Arial" class="sja_aa_disclabel" fill-opacity="1" transform="scale(1) rotate(0)">c.330A&gt;C(p.=)</text><circle r="6.5" stroke="#9467bd" class="sja_aa_disckick" fill="white" fill-opacity="0" stroke-opacity="0" transform="scale(1)"/><path d="M4.286263797015736e-16,-7L4.286263797015736e-16,-7Z" fill="#9467bd" class="sja_aa_discrim" fill-opacity="1" stroke-opacity="1"/></g><circle class="sja_aa_skkick" fill="white" fill-opacity="0" stroke="none" r="8" cy="7" transform="scale(0)"/><path class="sja_aa_stem" d="M0,0v-14l0,-14v-23.799999999999997" stroke="#9467bd" fill="none"/></g><g class="sja_skg" transform="translate(164.33995056152344, 51.79999923706055)"><g transform="translate(0, 7)" class="sja_aa_discg"><circle fill="#3987CC" stroke="white" r="6.5"/><text font-size="12" fill="#3987CC" x="8" y="3.5999999999999996" font-family="Arial" class="sja_aa_disclabel" fill-opacity="1" transform="scale(1) rotate(0)">p.Asp206Tyr</text><circle r="6.5" stroke="#3987CC" class="sja_aa_disckick" fill="white" fill-opacity="0" stroke-opacity="0" transform="scale(1)"/><path d="M4.286263797015736e-16,-7L4.286263797015736e-16,-7Z" fill="#3987CC" class="sja_aa_discrim" fill-opacity="1" stroke-opacity="1"/></g><circle class="sja_aa_skkick" fill="white" fill-opacity="0" stroke="none" r="8" cy="7" transform="scale(0)"/><path class="sja_aa_stem" d="M0,0v-14l0,-14v-23.799999999999997" stroke="#3987CC" fill="none"/></g><g class="sja_skg" transform="translate(780.3882446289062, 51.79999923706055)"><g transform="translate(0, 7)" class="sja_aa_discg"><circle fill="#2ca02c" stroke="white" r="6.5"/><text font-size="12" fill="#2ca02c" x="8" y="3.5999999999999996" font-family="Arial" class="sja_aa_disclabel" fill-opacity="1" transform="scale(1) rotate(0)">c.2316T&gt;C(p.=)</text><circle r="6.5" stroke="#2ca02c" class="sja_aa_disckick" fill="white" fill-opacity="0" stroke-opacity="0" transform="scale(1)"/><path d="M4.286263797015736e-16,-7L4.286263797015736e-16,-7Z" fill="#2ca02c" class="sja_aa_discrim" fill-opacity="1" stroke-opacity="1"/></g><circle class="sja_aa_skkick" fill="white" fill-opacity="0" stroke="none" r="8" cy="7" transform="scale(0)"/><path class="sja_aa_stem" d="M0,0v-14l0,-14v-23.799999999999997" stroke="#2ca02c" fill="none"/></g><g class="sja_skg" transform="translate(1027.894775390625, 51.79999923706055)"><g transform="translate(0, 7)" class="sja_aa_discg"><circle fill="#3987CC" stroke="white" r="6.5"/><text font-size="12" fill="#3987CC" x="8" y="3.5999999999999996" font-family="Arial" class="sja_aa_disclabel" fill-opacity="1" transform="scale(1) rotate(0)">p.Gln1000Leu</text><circle r="6.5" stroke="#3987CC" class="sja_aa_disckick" fill="white" fill-opacity="0" stroke-opacity="0" transform="scale(1)"/><path d="M4.286263797015736e-16,-7L4.286263797015736e-16,-7Z" fill="#3987CC" class="sja_aa_discrim" fill-opacity="1" stroke-opacity="1"/></g><circle class="sja_aa_skkick" fill="white" fill-opacity="0" stroke="none" r="8" cy="7" transform="scale(0)"/><path class="sja_aa_stem" d="M0,0v-14l0,-14v-23.799999999999997" stroke="#3987CC" fill="none"/></g><g class="sja_skg" transform="translate(1155.090576171875, 51.79999923706055)"><g transform="translate(0, 7)" class="sja_aa_discg"><circle fill="#3987CC" stroke="white" r="6.5"/><text font-size="12" fill="#3987CC" x="8" y="3.5999999999999996" font-family="Arial" class="sja_aa_disclabel" fill-opacity="1" transform="rotate(90)">p.Phe1117Tyr</text><circle r="6.5" stroke="#3987CC" class="sja_aa_disckick" fill="white" fill-opacity="0" stroke-opacity="0" transform="scale(1)"/><path d="M4.286263797015736e-16,-7L4.286263797015736e-16,-7Z" fill="#3987CC" class="sja_aa_discrim" fill-opacity="1" stroke-opacity="1"/></g><circle class="sja_aa_skkick" fill="white" fill-opacity="0" stroke="none" r="8" cy="7" transform="scale(0)"/><path class="sja_aa_stem" d="M0,0v-14l0,-14v-23.799999999999997" stroke="#3987CC" fill="none"/></g><g class="sja_skg" transform="translate(1170.6729736328125, 51.79999923706055)"><g transform="translate(0, 7)" class="sja_aa_discg"><circle fill="#2ca02c" stroke="white" r="6.5"/><text font-size="12" fill="#2ca02c" x="8" y="3.5999999999999996" font-family="Arial" class="sja_aa_disclabel" fill-opacity="1" transform="rotate(90)">c.3393A&gt;G(p.=)</text><circle r="6.5" stroke="#2ca02c" class="sja_aa_disckick" fill="white" fill-opacity="0" stroke-opacity="0" transform="scale(1)"/><path d="M4.286263797015736e-16,-7L4.286263797015736e-16,-7Z" fill="#2ca02c" class="sja_aa_discrim" fill-opacity="1" stroke-opacity="1"/></g><circle class="sja_aa_skkick" fill="white" fill-opacity="0" stroke="none" r="8" cy="7" transform="scale(0)"/><path class="sja_aa_stem" d="M0,0v-14l0,-14v-23.799999999999997" stroke="#2ca02c" fill="none"/></g></g><g/><g transform="scale(0)"><rect fill="white" fill-opacity="0.5" width="1260" height="0"/><text data-testid="loading_message" fill="rgb(97, 124, 148)" fill-opacity="1" font-weight="bold" font-size="18px" text-anchor="middle" dominant-baseline="middle" x="630" y="15">Loading ...</text><line stroke="rgb(97, 124, 148)" stroke-width="2px" y1="30" y2="30" x2="0"/></g></g><g transform="translate(122.3984375, 0)"><text font-size="14" font-family="Arial" y="7" text-anchor="end" dominant-baseline="central" fill="black" x="-10" font-weight="bold">GAMBL DLBCL</text><g/><text font-size="14" font-family="Arial" y="26" text-anchor="end" dominant-baseline="central" class="sja_clbtext2" fill="black" x="-10">6 mutations</text></g><g transform="translate(1395.3984375, 0)"/></g><g data-testid="sja_sample_menu_opener" transform="translate(0, 31)"><g transform="translate(1385.3984375, 0)"/><g transform="translate(125.3984375,0)"><rect fill="white" fill-opacity="0" width="1260" height="24"/><g transform="translate(0,0)" style="cursor: default;"/><g/><g transform="scale(0)"><rect fill="white" fill-opacity="0.5" width="1260" height="0"/><text data-testid="loading_message" fill="rgb(97, 124, 148)" fill-opacity="1" font-weight="bold" font-size="18px" text-anchor="middle" dominant-baseline="middle" x="630" y="15">Loading ...</text><line stroke="rgb(97, 124, 148)" stroke-width="2px" y1="30" y2="30" x2="0"/></g></g><g transform="translate(122.3984375,0)"><text font-size="14" font-family="Arial" y="7" text-anchor="end" dominant-baseline="central" fill="black" x="-10" font-weight="bold">GAMBL FL</text><g/><text font-size="14" font-family="Arial" y="26" text-anchor="end" dominant-baseline="central" class="sja_clbtext2" fill="black" x="-10"/></g><g transform="translate(1395.3984375,0)"/></g><g data-testid="sja_sample_menu_opener" transform="translate(0, 102)"><g transform="translate(1385.3984375, 0)"/><g transform="translate(125.3984375,0)"><rect fill="white" fill-opacity="0" width="1260" height="135.1828125"/><g transform="translate(0,0)" style="cursor: default;"><g class="sja_skg" transform="translate(408.5849914550781, 23.799999237060547)"><g transform="translate(0, 7)" class="sja_aa_discg"><circle fill="#2ca02c" stroke="white" r="6.5"/><text font-size="12" fill="#2ca02c" x="8" y="3.5999999999999996" font-family="Arial" class="sja_aa_disclabel" fill-opacity="1" transform="scale(1) rotate(0)">c.1290A&gt;G(p.=)</text><circle r="6.5" stroke="#2ca02c" class="sja_aa_disckick" fill="white" fill-opacity="0" stroke-opacity="0" transform="scale(1)"/><path d="M4.286263797015736e-16,-7L4.286263797015736e-16,-7Z" fill="#2ca02c" class="sja_aa_discrim" fill-opacity="1" stroke-opacity="1"/></g><circle class="sja_aa_skkick" fill="white" fill-opacity="0" stroke="none" r="8" cy="7" transform="scale(0)"/><path class="sja_aa_stem" d="M0,0v0l0,0v-23.799999999999997" stroke="#2ca02c" fill="none"/></g></g><g/><g transform="scale(0)"><rect fill="white" fill-opacity="0.5" width="1260" height="0"/><text data-testid="loading_message" fill="rgb(97, 124, 148)" fill-opacity="1" font-weight="bold" font-size="18px" text-anchor="middle" dominant-baseline="middle" x="630" y="15">Loading ...</text><line stroke="rgb(97, 124, 148)" stroke-width="2px" y1="30" y2="30" x2="0"/></g></g><g transform="translate(122.3984375,0)"><text font-size="14" font-family="Arial" y="7" text-anchor="end" dominant-baseline="central" fill="black" x="-10" font-weight="bold">GAMBL BL</text><g/><text font-size="14" font-family="Arial" y="26" text-anchor="end" dominant-baseline="central" class="sja_clbtext2" fill="black" x="-10">1 mutation</text></g><g transform="translate(1395.3984375,0)"/></g><g data-testid="sja_sample_menu_opener" transform="translate(0, 400.3656311035156)"><g transform="translate(1385.3984375, 0)"/><g transform="translate(125.3984375,0)"><rect fill="white" fill-opacity="0" width="1260" height="118.7375"/><g transform="translate(0,0)" style="cursor: default;"><g class="sja_skg" transform="translate(1011.949951171875, 23.799999237060547)"><g transform="translate(0, 7)" class="sja_aa_discg"><circle fill="#3987CC" stroke="white" r="6.5"/><text font-size="12" fill="#3987CC" x="8" y="3.5999999999999996" font-family="Arial" class="sja_aa_disclabel" fill-opacity="1" transform="scale(1) rotate(0)">p.Asn985Lys</text><circle r="6.5" stroke="#3987CC" class="sja_aa_disckick" fill="white" fill-opacity="0" stroke-opacity="0" transform="scale(1)"/><path d="M4.286263797015736e-16,-7L4.286263797015736e-16,-7Z" fill="#3987CC" class="sja_aa_discrim" fill-opacity="1" stroke-opacity="1"/></g><circle class="sja_aa_skkick" fill="white" fill-opacity="0" stroke="none" r="8" cy="7" transform="scale(0)"/><path class="sja_aa_stem" d="M0,0v0l0,0v-23.799999999999997" stroke="#3987CC" fill="none"/></g></g><g/><g transform="scale(0)"><rect fill="white" fill-opacity="0.5" width="1260" height="0"/><text data-testid="loading_message" fill="rgb(97, 124, 148)" fill-opacity="1" font-weight="bold" font-size="18px" text-anchor="middle" dominant-baseline="middle" x="630" y="15">Loading ...</text><line stroke="rgb(97, 124, 148)" stroke-width="2px" y1="30" y2="30" x2="0"/></g></g><g transform="translate(122.3984375,0)"><text font-size="14" font-family="Arial" y="7" text-anchor="end" dominant-baseline="central" fill="black" x="-10" font-weight="bold">GAMBL MCL</text><g/><text font-size="14" font-family="Arial" y="26" text-anchor="end" dominant-baseline="central" class="sja_clbtext2" fill="black" x="-10">1 mutation</text></g><g transform="translate(1395.3984375,0)"/></g><g data-testid="sja_sample_menu_opener" transform="translate(0, 55)"><g transform="translate(1385.3984375, 0)"/><g transform="translate(125.3984375,0)"><rect fill="white" fill-opacity="0" width="1260" height="47"/><g transform="translate(0,0)" style="cursor: default;"><g><line x1="0" y1="18.5" x2="1259.9999999999998" y2="18.5" stroke="black" shape-rendering="crispEdges"/><rect x="0" width="60.517687661777394" height="37" fill="white"/><rect x="60.517687661777394" width="88.78343399482313" height="37" fill="white"/><rect x="85.88438308886971" width="63.4167385677308" height="37" fill="#bebada"/><rect x="127.19585849870577" width="6.522864538395169" height="37" fill="#bebada"/><rect x="135.893011216566" width="5.43572044866264" height="37" fill="#bebada"/><rect x="122.84728213977567" width="3.2614322691975843" height="37" fill="#bebada"/><rect x="115.23727351164797" width="2.174288179465056" height="37" fill="#bebada"/><rect x="96.755823986195" width="2.174288179465056" height="37" fill="#bebada"/><rect x="100.01725625539258" width="2.174288179465056" height="37" fill="#bebada"/><rect x="119.58584987057809" width="2.174288179465056" height="37" fill="#bebada"/><rect x="85.88438308886971" width="1.087144089732528" height="37" fill="#bebada"/><rect x="88.05867126833478" width="1.087144089732528" height="37" fill="#bebada"/><rect x="94.58153580672993" width="1.087144089732528" height="37" fill="#bebada"/><rect x="149.30112165660051" width="77.18723037100949" height="37" fill="white"/><rect x="149.30112165660051" width="77.18723037100949" height="37" fill="#bebada"/><rect x="159.81018119068162" width="6.522864538395169" height="37" fill="#bebada"/><rect x="196.77308024158756" width="2.174288179465056" height="37" fill="#80b1d3"/><rect x="210.90595340811043" width="1.087144089732528" height="37" fill="#80b1d3"/><rect x="201.1216566005177" width="1.087144089732528" height="37" fill="#80b1d3"/><rect x="196.77308024158756" width="1.087144089732528" height="37" fill="#e5c494"/><rect x="206.55737704918033" width="1.087144089732528" height="37" fill="#80b1d3"/><rect x="191.33735979292493" width="1.087144089732528" height="37" fill="#bebada"/><rect x="189.16307161345986" width="1.087144089732528" height="37" fill="#bebada"/><rect x="194.59879206212253" width="1.087144089732528" height="37" fill="#e5c494"/><rect x="203.29594477998273" width="1.087144089732528" height="37" fill="#80b1d3"/><rect x="213.0802415875755" width="1.087144089732528" height="37" fill="#80b1d3"/><rect x="194.59879206212253" width="1.087144089732528" height="37" fill="#80b1d3"/><rect x="170.6816220880069" width="1.087144089732528" height="37" fill="#bebada"/><rect x="226.48835202761" width="66.31578947368422" height="37" fill="white"/><rect x="226.48835202761" width="58.34339948231234" height="37" fill="#bebada"/><rect x="252.2174288179465" width="6.522864538395169" height="37" fill="#bebada"/><rect x="267.4374460742019" width="5.43572044866264" height="37" fill="#bebada"/><rect x="242.43313201035375" width="3.2614322691975843" height="37" fill="#80b1d3"/><rect x="246.78170836928388" width="1.087144089732528" height="37" fill="#80b1d3"/><rect x="262.0017256255393" width="1.087144089732528" height="37" fill="#e5c494"/><rect x="264.1760138050043" width="1.087144089732528" height="37" fill="#80b1d3"/><rect x="248.9559965487489" width="1.087144089732528" height="37" fill="#bebada"/><rect x="275.0474547023296" width="1.087144089732528" height="37" fill="#bebada"/><rect x="250.04314063848145" width="1.087144089732528" height="37" fill="#80b1d3"/><rect x="262.0017256255393" width="1.087144089732528" height="37" fill="#80b1d3"/><rect x="277.2217428817946" width="1.087144089732528" height="37" fill="#bebada"/><rect x="259.8274374460742" width="1.087144089732528" height="37" fill="#80b1d3"/><rect x="266.35030198446935" width="1.087144089732528" height="37" fill="#80b1d3"/><rect x="259.8274374460742" width="1.087144089732528" height="37" fill="#e5c494"/><rect x="256.5660051768766" width="1.087144089732528" height="37" fill="#80b1d3"/><rect x="292.8041415012942" width="92.40724762726488" height="37" fill="white"/><rect x="300.05176876617776" width="85.15962036238136" height="37" fill="#8dd3c7"/><rect x="353.32182916307164" width="11.958584987057808" height="37" fill="#fdb462"/><rect x="327.23037100949097" width="4.348576358930112" height="37" fill="#fdb462"/><rect x="315.27178602243316" width="4.348576358930112" height="37" fill="#fdb462"/><rect x="321.7946505608283" width="3.2614322691975843" height="37" fill="#fdb462"/><rect x="381.5875754961173" width="3.2614322691975843" height="37" fill="#80b1d3"/><rect x="376.1518550474547" width="3.2614322691975843" height="37" fill="#fdb462"/><rect x="302.2260569456428" width="3.2614322691975843" height="37" fill="#fdb462"/><rect x="344.6246764452114" width="3.2614322691975843" height="37" fill="#fdb462"/><rect x="310.92320966350303" width="3.2614322691975843" height="37" fill="#fdb462"/><rect x="348.9732528041415" width="2.174288179465056" height="37" fill="#fdb462"/><rect x="333.7532355478861" width="2.174288179465056" height="37" fill="#fdb462"/><rect x="380.5004314063848" width="1.087144089732528" height="37" fill="#fdb462"/><rect x="306.5746333045729" width="1.087144089732528" height="37" fill="#fdb462"/><rect x="385.2113891285591" width="61.242450388265745" height="37" fill="white"/><rect x="385.2113891285591" width="61.242450388265745" height="37" fill="#8dd3c7"/><rect x="412.02761000862813" width="5.43572044866264" height="37" fill="#80b1d3"/><rect x="435.94477998274374" width="5.43572044866264" height="37" fill="#fb8072"/><rect x="416.37618636755826" width="3.2614322691975843" height="37" fill="#fdb462"/><rect x="429.4219154443486" width="3.2614322691975843" height="37" fill="#E8E89E"/><rect x="441.3805004314064" width="3.2614322691975843" height="37" fill="#fdb462"/><rect x="441.3805004314064" width="2.174288179465056" height="37" fill="#E8E89E"/><rect x="403.3304572907679" width="2.174288179465056" height="37" fill="#E8E89E"/><rect x="425.07333908541847" width="2.174288179465056" height="37" fill="#E8E89E"/><rect x="391.3718723037101" width="1.087144089732528" height="37" fill="#E8E89E"/><rect x="389.19758412424505" width="1.087144089732528" height="37" fill="#fb8072"/><rect x="438.1190681622088" width="1.087144089732528" height="37" fill="#E8E89E"/><rect x="412.02761000862813" width="1.087144089732528" height="37" fill="#fb8072"/><rect x="391.3718723037101" width="1.087144089732528" height="37" fill="#fb8072"/><rect x="434.8576358930112" width="1.087144089732528" height="37" fill="#a6d854"/><rect x="442.46764452113894" width="1.087144089732528" height="37" fill="#fb8072"/><rect x="409.85332182916306" width="1.087144089732528" height="37" fill="#fb8072"/><rect x="387.02329594478" width="1.087144089732528" height="37" fill="#fb8072"/><rect x="402.2433132010354" width="1.087144089732528" height="37" fill="#fdb462"/><rect x="407.67903364969806" width="1.087144089732528" height="37" fill="#fb8072"/><rect x="406.5918895599655" width="1.087144089732528" height="37" fill="#E8E89E"/><rect x="388.1104400345125" width="1.087144089732528" height="37" fill="#a6d854"/><rect x="435.94477998274374" width="1.087144089732528" height="37" fill="#E8E89E"/><rect x="396.8075927523727" width="1.087144089732528" height="37" fill="#E8E89E"/><rect x="403.3304572907679" width="1.087144089732528" height="37" fill="#80b1d3"/><rect x="440.29335634167387" width="1.087144089732528" height="37" fill="#a6d854"/><rect x="445.72907679033653" width="1" height="37" fill="#a6d854"/><rect x="431.59620362381366" width="1.087144089732528" height="37" fill="#fdb462"/><rect x="403.3304572907679" width="1.087144089732528" height="37" fill="#fb8072"/><rect x="446.45383951682487" width="49.646246764452115" height="37" fill="white"/><rect x="467.4719585849871" width="28.628127696289905" height="37" fill="#ffd92f"/><rect x="446.45383951682487" width="6.885245901639345" height="37" fill="#8dd3c7"/><rect x="481.60483175150995" width="2.174288179465056" height="37" fill="#fb8072"/><rect x="484.86626402070755" width="2.174288179465056" height="37" fill="#fb8072"/><rect x="490.30198446937015" width="2.174288179465056" height="37" fill="#fb8072"/><rect x="446.81622088006907" width="1.087144089732528" height="37" fill="#fdb462"/><rect x="448.9905090595341" width="1.087144089732528" height="37" fill="#E8E89E"/><rect x="488.1276962899051" width="1.087144089732528" height="37" fill="#fb8072"/><rect x="446.45383951682487" width="1" height="37" fill="#a6d854"/><rect x="496.10008628127696" width="47.83433994823123" height="37" fill="white"/><rect x="496.10008628127696" width="47.83433994823123" height="37" fill="#ffd92f"/><rect x="513.1320103537532" width="6.522864538395169" height="37" fill="#fb8072"/><rect x="521.8291630716135" width="5.43572044866264" height="37" fill="#fb8072"/><rect x="509.87057808455563" width="2.174288179465056" height="37" fill="#fb8072"/><rect x="543.9344262295082" width="76.82484900776532" height="37" fill="white"/><rect x="543.9344262295082" width="76.82484900776532" height="37" fill="#ffd92f"/><rect x="547.9206212251942" width="6.522864538395169" height="37" fill="#fb8072"/><rect x="584.8835202761001" width="2.174288179465056" height="37" fill="#bebada"/><rect x="588.1449525452977" width="2.174288179465056" height="37" fill="#bebada"/><rect x="584.8835202761001" width="1.087144089732528" height="37" fill="#fb8072"/><rect x="582.709232096635" width="1.087144089732528" height="37" fill="#bebada"/><rect x="591.4063848144953" width="1.087144089732528" height="37" fill="#bebada"/><rect x="556.6177739430543" width="1.087144089732528" height="37" fill="#fb8072"/><rect x="577.2735116479723" width="1.087144089732528" height="37" fill="#fb8072"/><rect x="620.7592752372735" width="54.71958584987058" height="37" fill="white"/><rect x="620.7592752372735" width="54.71958584987058" height="37" fill="#ffd92f"/><rect x="651.1993097497843" width="6.522864538395169" height="37" fill="#fb8072"/><rect x="626.1949956859362" width="4.348576358930112" height="37" fill="#bebada"/><rect x="638.1535806729939" width="3.2614322691975843" height="37" fill="#fb8072"/><rect x="650.1121656600518" width="2.174288179465056" height="37" fill="#bebada"/><rect x="639.2407247627265" width="1.087144089732528" height="37" fill="#bebada"/><rect x="659.8964624676446" width="1.087144089732528" height="37" fill="#fb8072"/><rect x="634.8921484037963" width="1.087144089732528" height="37" fill="#bebada"/><rect x="644.6764452113891" width="1.087144089732528" height="37" fill="#fb8072"/><rect x="655.5478861087145" width="1.087144089732528" height="37" fill="#bebada"/><rect x="664.2450388265746" width="1.087144089732528" height="37" fill="#fb8072"/><rect x="631.6307161345989" width="1.087144089732528" height="37" fill="#bebada"/><rect x="641.4150129421915" width="1.087144089732528" height="37" fill="#bebada"/><rect x="662.0707506471095" width="1.087144089732528" height="37" fill="#fb8072"/><rect x="642.5021570319241" width="1.087144089732528" height="37" fill="#fb8072"/><rect x="644.6764452113891" width="1.087144089732528" height="37" fill="#bebada"/><rect x="675.4788610871441" width="77.18723037100949" height="37" fill="white"/><rect x="675.4788610871441" width="5.073339085418464" height="37" fill="#ffd92f"/><rect x="682.7264883520276" width="69.93960310612597" height="37" fill="#b3b3b3"/><rect x="742.5194132873166" width="5.43572044866264" height="37" fill="#E8E89E"/><rect x="692.5107851596204" width="4.348576358930112" height="37" fill="#E8E89E"/><rect x="735.9965487489214" width="4.348576358930112" height="37" fill="#E8E89E"/><rect x="697.946505608283" width="3.2614322691975843" height="37" fill="#E8E89E"/><rect x="677.290767903365" width="3.2614322691975843" height="37" fill="#fb8072"/><rect x="684.9007765314926" width="3.2614322691975843" height="37" fill="#E8E89E"/><rect x="728.3865401207938" width="2.174288179465056" height="37" fill="#E8E89E"/><rect x="704.4693701466782" width="2.174288179465056" height="37" fill="#E8E89E"/><rect x="708.8179465056082" width="2.174288179465056" height="37" fill="#E8E89E"/><rect x="689.2493528904228" width="1.087144089732528" height="37" fill="#E8E89E"/><rect x="697.946505608283" width="1.087144089732528" height="37" fill="#bebada"/><rect x="731.6479723899913" width="1.087144089732528" height="37" fill="#E8E89E"/><rect x="733.8222605694564" width="1.087144089732528" height="37" fill="#E8E89E"/><rect x="752.6660914581536" width="77.54961173425367" height="37" fill="white"/><rect x="752.6660914581536" width="77.54961173425367" height="37" fill="#b3b3b3"/><rect x="783.8308886971527" width="7.610008628127696" height="37" fill="#8dd3c7"/><rect x="796.876617773943" width="5.43572044866264" height="37" fill="#E8E89E"/><rect x="818.6194995685936" width="5.43572044866264" height="37" fill="#80b1d3"/><rect x="794.702329594478" width="4.348576358930112" height="37" fill="#bebada"/><rect x="758.8265746333045" width="3.2614322691975843" height="37" fill="#E8E89E"/><rect x="764.2622950819672" width="3.2614322691975843" height="37" fill="#bebada"/><rect x="824.0552200172563" width="2.174288179465056" height="37" fill="#8dd3c7"/><rect x="812.0966350301984" width="2.174288179465056" height="37" fill="#8dd3c7"/><rect x="807.7480586712684" width="2.174288179465056" height="37" fill="#8dd3c7"/><rect x="781.6566005176877" width="1.087144089732528" height="37" fill="#8dd3c7"/><rect x="822.9680759275237" width="1.087144089732528" height="37" fill="#a6d854"/><rect x="786.0051768766177" width="1.087144089732528" height="37" fill="#80b1d3"/><rect x="788.1794650560828" width="1.087144089732528" height="37" fill="#80b1d3"/><rect x="777.3080241587576" width="1.087144089732528" height="37" fill="#8dd3c7"/><rect x="790.3537532355479" width="1.087144089732528" height="37" fill="#80b1d3"/><rect x="771.8723037100949" width="1.087144089732528" height="37" fill="#80b1d3"/><rect x="767.5237273511648" width="1.087144089732528" height="37" fill="#80b1d3"/><rect x="817.5323554788611" width="1.087144089732528" height="37" fill="#a6d854"/><rect x="779.4823123382226" width="1.087144089732528" height="37" fill="#8dd3c7"/><rect x="770.7851596203624" width="1.087144089732528" height="37" fill="#a6d854"/><rect x="764.2622950819672" width="1.087144089732528" height="37" fill="#E8E89E"/><rect x="816.4452113891285" width="1.087144089732528" height="37" fill="#8dd3c7"/><rect x="794.702329594478" width="1.087144089732528" height="37" fill="#80b1d3"/><rect x="769.6980155306298" width="1.087144089732528" height="37" fill="#80b1d3"/><rect x="792.5280414150129" width="1.087144089732528" height="37" fill="#80b1d3"/><rect x="783.8308886971527" width="1.087144089732528" height="37" fill="#bebada"/><rect x="774.04659188956" width="1.087144089732528" height="37" fill="#8dd3c7"/><rect x="783.8308886971527" width="1.087144089732528" height="37" fill="#80b1d3"/><rect x="828.4037963761864" width="1.087144089732528" height="37" fill="#a6d854"/><rect x="820.7937877480587" width="1.087144089732528" height="37" fill="#8dd3c7"/><rect x="830.2157031924072" width="50.73339085418464" height="37" fill="white"/><rect x="854.495254529767" width="26.45383951682485" height="37" fill="#fb8072"/><rect x="830.2157031924072" width="9.0595340811044" height="37" fill="#b3b3b3"/><rect x="865.3666954270923" width="7.610008628127696" height="37" fill="#80b1d3"/><rect x="875.1509922346851" width="2.174288179465056" height="37" fill="#80b1d3"/><rect x="863.1924072476272" width="1.087144089732528" height="37" fill="#80b1d3"/><rect x="880.9490940465919" width="47.83433994823123" height="37" fill="white"/><rect x="880.9490940465919" width="47.83433994823123" height="37" fill="#fb8072"/><rect x="899.0681622088007" width="11.958584987057808" height="37" fill="#80b1d3"/><rect x="891.458153580673" width="4.348576358930112" height="37" fill="#80b1d3"/><rect x="896.8938740293356" width="1.087144089732528" height="37" fill="#80b1d3"/><rect x="928.7834339948231" width="38.77480586712684" height="37" fill="white"/><rect x="928.7834339948231" width="38.77480586712684" height="37" fill="#fb8072"/><rect x="932.7696289905091" width="6.522864538395169" height="37" fill="#80b1d3"/><rect x="964.2968075927523" width="1.087144089732528" height="37" fill="#80b1d3"/><rect x="962.1225194132873" width="1.087144089732528" height="37" fill="#80b1d3"/><rect x="959.9482312338222" width="1.087144089732528" height="37" fill="#80b1d3"/><rect x="941.4667817083692" width="1.087144089732528" height="37" fill="#80b1d3"/><rect x="943.6410698878343" width="1.087144089732528" height="37" fill="#80b1d3"/><rect x="967.5582398619499" width="81.89818809318378" height="37" fill="white"/><rect x="967.5582398619499" width="75.01294219154444" height="37" fill="#fb8072"/><rect x="999.0854184641933" width="9.784296807592753" height="37" fill="#fb8072"/><rect x="1025.1768766177738" width="5.43572044866264" height="37" fill="#80b1d3"/><rect x="1032.7868852459017" width="3.2614322691975843" height="37" fill="#80b1d3"/><rect x="1006.6954270923209" width="3.2614322691975843" height="37" fill="#80b1d3"/><rect x="969.732528041415" width="2.174288179465056" height="37" fill="#fb8072"/><rect x="1023.0025884383089" width="2.174288179465056" height="37" fill="#fb8072"/><rect x="972.9939603106126" width="2.174288179465056" height="37" fill="#fb8072"/><rect x="1017.5668679896462" width="1.087144089732528" height="37" fill="#fb8072"/><rect x="1037.1354616048318" width="1.087144089732528" height="37" fill="#80b1d3"/><rect x="1028.4383088869715" width="1.087144089732528" height="37" fill="#fb8072"/><rect x="969.732528041415" width="1.087144089732528" height="37" fill="#80b1d3"/><rect x="1014.3054357204486" width="1.087144089732528" height="37" fill="#fb8072"/><rect x="1013.2182916307161" width="1.087144089732528" height="37" fill="#80b1d3"/><rect x="1011.044003451251" width="1.087144089732528" height="37" fill="#80b1d3"/><rect x="1015.3925798101811" width="1.087144089732528" height="37" fill="#80b1d3"/><rect x="1021.9154443485763" width="1.087144089732528" height="37" fill="#80b1d3"/><rect x="1049.4564279551337" width="50.73339085418464" height="37" fill="white"/><rect x="1057.7911993097498" width="42.398619499568596" height="37" fill="#80b1d3"/><rect x="1100.1898188093182" width="59.06816220880069" height="37" fill="white"/><rect x="1100.1898188093182" width="59.06816220880069" height="37" fill="#80b1d3"/><rect x="1159.257981018119" width="16.30716134598792" height="37" fill="white"/><rect x="1159.257981018119" width="16.30716134598792" height="37" fill="#80b1d3"/><rect x="1175.5651423641068" width="84.43485763589301" height="37" fill="white"/><rect x="1175.5651423641068" width="38.77480586712684" height="37" fill="#80b1d3"/><line x1="0" x2="1259.9999999999998" stroke="black"/><line x1="0" x2="1259.9999999999998" y1="37" y2="37" stroke="black"/><line x1="0" x2="0" y2="37" stroke="black"/><line x1="1259.9999999999998" x2="1259.9999999999998" y2="37" stroke="black"/><line class="exonboundaryclass" x1="60.517687661777394" x2="60.517687661777394" y1="0" y2="37" stroke="black" stroke-dasharray="4,2" shape-rendering="crispEdges" stroke-opacity="1"/><line class="exonboundaryclass" x1="149.30112165660051" x2="149.30112165660051" y1="0" y2="37" stroke="black" stroke-dasharray="4,2" shape-rendering="crispEdges" stroke-opacity="1"/><line class="exonboundaryclass" x1="226.48835202761" x2="226.48835202761" y1="0" y2="37" stroke="black" stroke-dasharray="4,2" shape-rendering="crispEdges" stroke-opacity="1"/><line class="exonboundaryclass" x1="292.8041415012942" x2="292.8041415012942" y1="0" y2="37" stroke="black" stroke-dasharray="4,2" shape-rendering="crispEdges" stroke-opacity="1"/><line class="exonboundaryclass" x1="385.2113891285591" x2="385.2113891285591" y1="0" y2="37" stroke="black" stroke-dasharray="4,2" shape-rendering="crispEdges" stroke-opacity="1"/><line class="exonboundaryclass" x1="446.45383951682487" x2="446.45383951682487" y1="0" y2="37" stroke="black" stroke-dasharray="4,2" shape-rendering="crispEdges" stroke-opacity="1"/><line class="exonboundaryclass" x1="496.10008628127696" x2="496.10008628127696" y1="0" y2="37" stroke="black" stroke-dasharray="4,2" shape-rendering="crispEdges" stroke-opacity="1"/><line class="exonboundaryclass" x1="543.9344262295082" x2="543.9344262295082" y1="0" y2="37" stroke="black" stroke-dasharray="4,2" shape-rendering="crispEdges" stroke-opacity="1"/><line class="exonboundaryclass" x1="620.7592752372735" x2="620.7592752372735" y1="0" y2="37" stroke="black" stroke-dasharray="4,2" shape-rendering="crispEdges" stroke-opacity="1"/><line class="exonboundaryclass" x1="675.4788610871441" x2="675.4788610871441" y1="0" y2="37" stroke="black" stroke-dasharray="4,2" shape-rendering="crispEdges" stroke-opacity="1"/><line class="exonboundaryclass" x1="752.6660914581536" x2="752.6660914581536" y1="0" y2="37" stroke="black" stroke-dasharray="4,2" shape-rendering="crispEdges" stroke-opacity="1"/><line class="exonboundaryclass" x1="830.2157031924072" x2="830.2157031924072" y1="0" y2="37" stroke="black" stroke-dasharray="4,2" shape-rendering="crispEdges" stroke-opacity="1"/><line class="exonboundaryclass" x1="880.9490940465919" x2="880.9490940465919" y1="0" y2="37" stroke="black" stroke-dasharray="4,2" shape-rendering="crispEdges" stroke-opacity="1"/><line class="exonboundaryclass" x1="928.7834339948231" x2="928.7834339948231" y1="0" y2="37" stroke="black" stroke-dasharray="4,2" shape-rendering="crispEdges" stroke-opacity="1"/><line class="exonboundaryclass" x1="967.5582398619499" x2="967.5582398619499" y1="0" y2="37" stroke="black" stroke-dasharray="4,2" shape-rendering="crispEdges" stroke-opacity="1"/><line class="exonboundaryclass" x1="1049.4564279551337" x2="1049.4564279551337" y1="0" y2="37" stroke="black" stroke-dasharray="4,2" shape-rendering="crispEdges" stroke-opacity="1"/><line class="exonboundaryclass" x1="1100.1898188093182" x2="1100.1898188093182" y1="0" y2="37" stroke="black" stroke-dasharray="4,2" shape-rendering="crispEdges" stroke-opacity="1"/><line class="exonboundaryclass" x1="1159.257981018119" x2="1159.257981018119" y1="0" y2="37" stroke="black" stroke-dasharray="4,2" shape-rendering="crispEdges" stroke-opacity="1"/><line class="exonboundaryclass" x1="1175.5651423641068" x2="1175.5651423641068" y1="0" y2="37" stroke="black" stroke-dasharray="4,2" shape-rendering="crispEdges" stroke-opacity="1"/><g transform="translate(0,18.5)" fill="none" font-size="10" font-family="sans-serif" text-anchor="middle"><path class="domain" stroke="none" d="M0.543572044866264,0H1259.9999999999998" fill="none" stroke-width="0" shape-rendering="crispEdges"/><g class="tick" opacity="1" transform="translate(108.07361266019907,0)"><line stroke="black" y2="0" shape-rendering="crispEdges"/><text fill="black" y="3" dy="0.71em" font-family="Arial" font-size="11.666666666666666px" style="cursor: default;">100</text></g><g class="tick" opacity="1" transform="translate(216.72702305289891,0)"><line stroke="black" y2="0" shape-rendering="crispEdges"/><text fill="black" y="3" dy="0.71em" font-family="Arial" font-size="11.666666666666666px" style="cursor: default;">200</text></g><g class="tick" opacity="1" transform="translate(325.53570522255495,0)"><line stroke="black" y2="0" shape-rendering="crispEdges"/><text fill="black" y="3" dy="0.71em" font-family="Arial" font-size="11.666666666666666px" style="cursor: default;">300</text></g><g class="tick" opacity="1" transform="translate(434.4596635030199,0)"><line stroke="black" y2="0" shape-rendering="crispEdges"/><text fill="black" y="3" dy="0.71em" font-family="Arial" font-size="11.666666666666666px" style="cursor: default;">400</text></g><g class="tick" opacity="1" transform="translate(542.8514001098125,0)"><line stroke="black" y2="0" shape-rendering="crispEdges"/><text fill="black" y="3" dy="0.71em" font-family="Arial" font-size="11.666666666666666px" style="cursor: default;">500</text></g><g class="tick" opacity="1" transform="translate(651.6414150129422,0)"><line stroke="black" y2="0" shape-rendering="crispEdges"/><text fill="black" y="3" dy="0.71em" font-family="Arial" font-size="11.666666666666666px" style="cursor: default;">600</text></g><g class="tick" opacity="1" transform="translate(760.4751546379225,0)"><line stroke="black" y2="0" shape-rendering="crispEdges"/><text fill="black" y="3" dy="0.71em" font-family="Arial" font-size="11.666666666666666px" style="cursor: default;">700</text></g><g class="tick" opacity="1" transform="translate(869.0329153892754,0)"><line stroke="black" y2="0" shape-rendering="crispEdges"/><text fill="black" y="3" dy="0.71em" font-family="Arial" font-size="11.666666666666666px" style="cursor: default;">800</text></g><g class="tick" opacity="1" transform="translate(977.8643658326142,0)"><line stroke="black" y2="0" shape-rendering="crispEdges"/><text fill="black" y="3" dy="0.71em" font-family="Arial" font-size="11.666666666666666px" style="cursor: default;">900</text></g><g class="tick" opacity="1" transform="translate(1086.207295357333,0)"><line stroke="black" y2="0" shape-rendering="crispEdges"/><text fill="black" y="3" dy="0.71em" font-family="Arial" font-size="11.666666666666666px" style="cursor: default;">1000</text></g><g class="tick" opacity="1" transform="translate(1195.189486958253,0)"><line stroke="black" y2="0" shape-rendering="crispEdges"/><text fill="black" y="3" dy="0.71em" font-family="Arial" font-size="11.666666666666666px" style="cursor: default;">1100</text></g></g><rect x="0" width="60.517687661777394" height="37" fill="#858585" fill-opacity="0"/><rect x="60.517687661777394" width="88.78343399482313" height="37" fill="#858585" fill-opacity="0"/><rect x="149.30112165660051" width="77.18723037100949" height="37" fill="#858585" fill-opacity="0"/><rect x="226.48835202761" width="66.31578947368422" height="37" fill="#858585" fill-opacity="0"/><rect x="292.8041415012942" width="92.40724762726488" height="37" fill="#858585" fill-opacity="0"/><rect x="385.2113891285591" width="61.242450388265745" height="37" fill="#858585" fill-opacity="0"/><rect x="446.45383951682487" width="49.646246764452115" height="37" fill="#858585" fill-opacity="0"/><rect x="496.10008628127696" width="47.83433994823123" height="37" fill="#858585" fill-opacity="0"/><rect x="543.9344262295082" width="76.82484900776532" height="37" fill="#858585" fill-opacity="0"/><rect x="620.7592752372735" width="54.71958584987058" height="37" fill="#858585" fill-opacity="0"/><rect x="675.4788610871441" width="77.18723037100949" height="37" fill="#858585" fill-opacity="0"/><rect x="752.6660914581536" width="77.54961173425367" height="37" fill="#858585" fill-opacity="0"/><rect x="830.2157031924072" width="50.73339085418464" height="37" fill="#858585" fill-opacity="0"/><rect x="880.9490940465919" width="47.83433994823123" height="37" fill="#858585" fill-opacity="0"/><rect x="928.7834339948231" width="38.77480586712684" height="37" fill="#858585" fill-opacity="0"/><rect x="967.5582398619499" width="81.89818809318378" height="37" fill="#858585" fill-opacity="0"/><rect x="1049.4564279551337" width="50.73339085418464" height="37" fill="#858585" fill-opacity="0"/><rect x="1100.1898188093182" width="59.06816220880069" height="37" fill="#858585" fill-opacity="0"/><rect x="1159.257981018119" width="16.30716134598792" height="37" fill="#858585" fill-opacity="0"/><rect x="1175.5651423641068" width="84.43485763589301" height="37" fill="#858585" fill-opacity="0"/></g></g><g/><g transform="scale(0)"><rect fill="white" fill-opacity="0"/><text data-testid="loading_message" fill="rgb(97, 124, 148)" fill-opacity="0" font-weight="bold" font-size="18px" text-anchor="middle" dominant-baseline="middle">Loading ...</text><line stroke="rgb(97, 124, 148)" stroke-width="2px"/></g></g><g transform="translate(122.3984375,0)"><text font-size="14" font-family="Arial" y="7" text-anchor="end" dominant-baseline="central" fill="black" x="-10" font-weight="bold">HEPH</text><text font-size="14" font-family="Arial" y="20" text-anchor="end" dominant-baseline="central" fill="black" x="-10">NM_138737</text></g><g transform="translate(1395.3984375,0)"><text fill="#aaa" font-family="Arial" font-size="14" y="14" class="sja_clbtext2"/></g></g></g><g transform="scale(0)"><rect fill="white"/><text id="loadinggCloak" fill="rgb(97, 124, 148)" fill-opacity="0" font-weight="bold" font-size="18px" text-anchor="middle" dominant-baseline="middle">Loading ...</text></g><g/><g transform="translate(124.3984375,534.103125)"><g transform="translate(0,0)"><rect width="15" height="20" stroke="rgb(133, 130, 153)" fill="#bebada" shape-rendering="crispEdges"/><text x="20" y="10" dominant-baseline="central" font-size="16" font-family="Arial" fill="black">CuRO_1_ceruloplasmin</text><text x="199.859375" y="10" dominant-baseline="central" font-size="12" font-family="Arial" fill="#858585">The first cupredoxin domain of Ceruloplasmin</text></g><g transform="translate(0,23)"><rect width="15" height="20" stroke="rgb(133, 130, 153)" fill="#bebada" shape-rendering="crispEdges"/><text x="20" y="10" dominant-baseline="central" font-size="16" font-family="Arial" fill="black">other</text><text x="66.6875" y="10" dominant-baseline="central" font-size="12" font-family="Arial" fill="#858585">Domain 2 interface [polypeptide binding]</text></g><g transform="translate(0,46)"><rect width="15" height="20" stroke="rgb(90, 124, 148)" fill="#80b1d3" shape-rendering="crispEdges"/><text x="20" y="10" dominant-baseline="central" font-size="16" font-family="Arial" fill="black">other</text><text x="66.6875" y="10" dominant-baseline="central" font-size="12" font-family="Arial" fill="#858585">Domain 6 interface [polypeptide binding]</text></g><g transform="translate(0,69)"><rect width="15" height="20" stroke="rgb(160, 137, 104)" fill="#e5c494" shape-rendering="crispEdges"/><text x="20" y="10" dominant-baseline="central" font-size="16" font-family="Arial" fill="black">other</text><text x="66.6875" y="10" dominant-baseline="central" font-size="12" font-family="Arial" fill="#858585">trinuclear Cu binding site [ion binding]</text></g><g transform="translate(0,92)"><rect width="15" height="20" stroke="rgb(99, 148, 139)" fill="#8dd3c7" shape-rendering="crispEdges"/><text x="20" y="10" dominant-baseline="central" font-size="16" font-family="Arial" fill="black">CuRO_2_ceruloplasmin</text><text x="199.859375" y="10" dominant-baseline="central" font-size="12" font-family="Arial" fill="#858585">The second cupredoxin domain of Ceruloplasmin</text></g><g transform="translate(0,115)"><rect width="15" height="20" stroke="rgb(177, 126, 69)" fill="#fdb462" shape-rendering="crispEdges"/><text x="20" y="10" dominant-baseline="central" font-size="16" font-family="Arial" fill="black">other</text><text x="66.6875" y="10" dominant-baseline="central" font-size="12" font-family="Arial" fill="#858585">Domain 1 interface [polypeptide binding]</text></g><g transform="translate(0,138)"><rect width="15" height="20" stroke="rgb(176, 90, 80)" fill="#fb8072" shape-rendering="crispEdges"/><text x="20" y="10" dominant-baseline="central" font-size="16" font-family="Arial" fill="black">other</text><text x="66.6875" y="10" dominant-baseline="central" font-size="12" font-family="Arial" fill="#858585">Domain 4 interface [polypeptide binding]</text></g><g transform="translate(0,161)"><rect width="15" height="20" stroke="rgb(116, 151, 59)" fill="#a6d854" shape-rendering="crispEdges"/><text x="20" y="10" dominant-baseline="central" font-size="16" font-family="Arial" fill="black">other</text><text x="66.6875" y="10" dominant-baseline="central" font-size="12" font-family="Arial" fill="#858585">Type 1 (T1) Cu binding site [ion binding]</text></g><g transform="translate(0,184)"><rect width="15" height="20" stroke="rgb(162, 162, 111)" fill="#E8E89E" shape-rendering="crispEdges"/><text x="20" y="10" dominant-baseline="central" font-size="16" font-family="Arial" fill="black">other</text><text x="66.6875" y="10" dominant-baseline="central" font-size="12" font-family="Arial" fill="#858585">Domain 3 interface [polypeptide binding]</text></g><g transform="translate(0,207)"><rect width="15" height="20" stroke="rgb(179, 152, 33)" fill="#ffd92f" shape-rendering="crispEdges"/><text x="20" y="10" dominant-baseline="central" font-size="16" font-family="Arial" fill="black">CuRO_3_ceruloplasmin</text><text x="199.859375" y="10" dominant-baseline="central" font-size="12" font-family="Arial" fill="#858585">The third cupredoxin domain of Ceruloplasmin</text></g><g transform="translate(0,230)"><rect width="15" height="20" stroke="rgb(125, 125, 125)" fill="#b3b3b3" shape-rendering="crispEdges"/><text x="20" y="10" dominant-baseline="central" font-size="16" font-family="Arial" fill="black">CuRO_4_ceruloplasmin</text><text x="199.859375" y="10" dominant-baseline="central" font-size="12" font-family="Arial" fill="#858585">The fourth cupredoxin domain of Ceruloplasmin</text></g><g transform="translate(0,253)"><rect width="15" height="20" stroke="rgb(99, 148, 139)" fill="#8dd3c7" shape-rendering="crispEdges"/><text x="20" y="10" dominant-baseline="central" font-size="16" font-family="Arial" fill="black">other</text><text x="66.6875" y="10" dominant-baseline="central" font-size="12" font-family="Arial" fill="#858585">Domain 5 interface [polypeptide binding]</text></g><g transform="translate(0,276)"><rect width="15" height="20" stroke="rgb(176, 90, 80)" fill="#fb8072" shape-rendering="crispEdges"/><text x="20" y="10" dominant-baseline="central" font-size="16" font-family="Arial" fill="black">CuRO_5_ceruloplasmin</text><text x="199.859375" y="10" dominant-baseline="central" font-size="12" font-family="Arial" fill="#858585">The fifth cupredoxin domain of Ceruloplasmin</text></g><g transform="translate(0,299)"><rect width="15" height="20" stroke="rgb(90, 124, 148)" fill="#80b1d3" shape-rendering="crispEdges"/><text x="20" y="10" dominant-baseline="central" font-size="16" font-family="Arial" fill="black">Cupredoxin</text><text x="111.828125" y="10" dominant-baseline="central" font-size="12" font-family="Arial" fill="#858585">Cupredoxin superfamily</text></g></g><g transform="translate(1187.3984375,534.103125)"><g transform="translate(0,0)"><circle cx="10" cy="10" r="10" fill="#998199"/><text x="30" y="10" dominant-baseline="central" font-size="16" font-family="Arial" fill="#998199">UTR_3, n=1</text></g><g transform="translate(0,23)"><circle cx="10" cy="10" r="10" fill="#2ca02c"/><text x="30" y="10" dominant-baseline="central" font-size="16" font-family="Arial" fill="#2ca02c">SILENT, n=3</text></g><g transform="translate(0,46)"><circle cx="10" cy="10" r="10" fill="#9467bd"/><text x="30" y="10" dominant-baseline="central" font-size="16" font-family="Arial" fill="#9467bd">SPLICE_REGION, n=1</text></g><g transform="translate(0,69)"><circle cx="10" cy="10" r="10" fill="#3987CC"/><text x="30" y="10" dominant-baseline="central" font-size="16" font-family="Arial" fill="#3987CC">MISSENSE, n=4</text></g></g></svg>