<svg xmlns="http://www.w3.org/2000/svg" data-testid="sjpp_block_svg" width="1035.3984375" height="663.0203125"><g transform="translate(0,0)"><g transform="translate(125.3984375, 0)"/><rect fill="#FFFF99" x="847" width="0" height="531.0203125"/><g transform="translate(125.3984375, 23)"><g transform="translate(0,0)"><text text-anchor="end" x="-13" y="-10" dominant-baseline="central" font-size="13" font-family="Arial">Protein length</text><g><g transform="translate(0,0)" fill="none" font-size="10" font-family="sans-serif" text-anchor="middle"><path class="domain" stroke="black" d="M0,-6V0H800V-6" fill="none" stroke-width="1" shape-rendering="crispEdges"/><g class="tick" opacity="1" transform="translate(110.4602510460251,0)"><line stroke="black" y2="-6" shape-rendering="crispEdges"/><text fill="black" y="-9" dy="0em" font-family="Arial" font-size="12px" style="cursor: default;">100</text></g><g class="tick" opacity="1" transform="translate(222.03626220362622,0)"><line stroke="black" y2="-6" shape-rendering="crispEdges"/><text fill="black" y="-9" dy="0em" font-family="Arial" font-size="12px" style="cursor: default;">200</text></g><g class="tick" opacity="1" transform="translate(333.6122733612273,0)"><line stroke="black" y2="-6" shape-rendering="crispEdges"/><text fill="black" y="-9" dy="0em" font-family="Arial" font-size="12px" style="cursor: default;">300</text></g><g class="tick" opacity="1" transform="translate(445.1882845188284,0)"><line stroke="black" y2="-6" shape-rendering="crispEdges"/><text fill="black" y="-9" dy="0em" font-family="Arial" font-size="12px" style="cursor: default;">400</text></g><g class="tick" opacity="1" transform="translate(556.7642956764296,0)"><line stroke="black" y2="-6" shape-rendering="crispEdges"/><text fill="black" y="-9" dy="0em" font-family="Arial" font-size="12px" style="cursor: default;">500</text></g><g class="tick" opacity="1" transform="translate(668.3403068340307,0)"><line stroke="black" y2="-6" shape-rendering="crispEdges"/><text fill="black" y="-9" dy="0em" font-family="Arial" font-size="12px" style="cursor: default;">600</text></g><g class="tick" opacity="1" transform="translate(779.9163179916318,0)"><line stroke="black" y2="-6" shape-rendering="crispEdges"/><text fill="black" y="-9" dy="0em" font-family="Arial" font-size="12px" style="cursor: default;">700</text></g></g></g><rect fill="white" fill-opacity="0" x="0" y="-23" width="800" height="26"/></g><g transform="translate(800, 0)"/></g><g data-testid="sja_sample_menu_opener" transform="translate(0, 31)"><g transform="translate(925.3984375, 0)"/><g transform="translate(125.3984375, 0)"><rect fill="white" fill-opacity="0" width="800" height="116.0578125"/><g transform="translate(0,0)" style="cursor: default;"><g class="sja_skg" transform="translate(179.82333374023438, 82.2578125)"><g transform="translate(0, -7)" class="sja_aa_discg"><circle fill="#3987CC" stroke="white" r="6.5"/><text font-size="12" fill="#3987CC" x="8" y="3.5999999999999996" font-family="Arial" class="sja_aa_disclabel" fill-opacity="1" transform="scale(1) rotate(0)">p.Arg162Trp</text><circle r="6.5" stroke="#3987CC" class="sja_aa_disckick" fill="white" fill-opacity="0" stroke-opacity="0" transform="scale(1)"/><path d="M4.286263797015736e-16,-7L4.286263797015736e-16,-7Z" fill="#3987CC" class="sja_aa_discrim" fill-opacity="1" stroke-opacity="1"/></g><circle class="sja_aa_skkick" fill="white" fill-opacity="0" stroke="none" r="8" cy="-7" transform="scale(0)"/><path class="sja_aa_stem" d="M0,0v0l0,0v23.799999999999997" stroke="#3987CC" fill="none"/></g></g><g/><g transform="scale(0)"><rect fill="white" fill-opacity="0.5" width="800" height="0"/><text data-testid="loading_message" fill="rgb(97, 124, 148)" fill-opacity="1" font-weight="bold" font-size="18px" text-anchor="middle" dominant-baseline="middle" x="400" y="15">Loading ...</text><line stroke="rgb(97, 124, 148)" stroke-width="2px" y1="30" y2="30" x2="0"/></g></g><g transform="translate(122.3984375, 0)"><text font-size="14" font-family="Arial" y="7" text-anchor="end" dominant-baseline="central" fill="black" x="-10" font-weight="bold">GAMBL DLBCL</text><g/><text font-size="14" font-family="Arial" y="26" text-anchor="end" dominant-baseline="central" class="sja_clbtext2" fill="black" x="-10">1 mutation</text></g><g transform="translate(935.3984375, 0)"/></g><g data-testid="sja_sample_menu_opener" transform="translate(0, 310.3500061035156)"><g transform="translate(925.3984375, 0)"/><g transform="translate(125.3984375,0)"><rect fill="white" fill-opacity="0" width="800" height="109.1671875"/><g transform="translate(0,0)" style="cursor: default;"><g class="sja_skg" transform="translate(29.567642211914062, 23.799999237060547)"><g transform="translate(0, 7)" class="sja_aa_discg"><circle fill="#3987CC" stroke="white" r="6.5"/><text font-size="12" fill="#3987CC" x="8" y="3.5999999999999996" font-family="Arial" class="sja_aa_disclabel" fill-opacity="1" transform="scale(1) rotate(0)">p.Arg27His</text><circle r="6.5" stroke="#3987CC" class="sja_aa_disckick" fill="white" fill-opacity="0" stroke-opacity="0" transform="scale(1)"/><path d="M4.286263797015736e-16,-7L4.286263797015736e-16,-7Z" fill="#3987CC" class="sja_aa_discrim" fill-opacity="1" stroke-opacity="1"/></g><circle class="sja_aa_skkick" fill="white" fill-opacity="0" stroke="none" r="8" cy="7" transform="scale(0)"/><path class="sja_aa_stem" d="M0,0v0l0,0v-23.799999999999997" stroke="#3987CC" fill="none"/></g></g><g/><g transform="scale(0)"><rect fill="white" fill-opacity="0.5" width="800" height="0"/><text data-testid="loading_message" fill="rgb(97, 124, 148)" fill-opacity="1" font-weight="bold" font-size="18px" text-anchor="middle" dominant-baseline="middle" x="400" y="15">Loading ...</text><line stroke="rgb(97, 124, 148)" stroke-width="2px" y1="30" y2="30" x2="0"/></g></g><g transform="translate(122.3984375,0)"><text font-size="14" font-family="Arial" y="7" text-anchor="end" dominant-baseline="central" fill="black" x="-10" font-weight="bold">GAMBL FL</text><g/><text font-size="14" font-family="Arial" y="26" text-anchor="end" dominant-baseline="central" class="sja_clbtext2" fill="black" x="-10">1 mutation</text></g><g transform="translate(935.3984375,0)"/></g><g data-testid="sja_sample_menu_opener" transform="translate(0, 419.5171813964844)"><g transform="translate(925.3984375, 0)"/><g transform="translate(125.3984375,0)"><rect fill="white" fill-opacity="0" width="800" height="116.503125"/><g transform="translate(0,0)" style="cursor: default;"><g class="sja_skg" transform="translate(491.12042236328125, 23.799999237060547)"><g transform="translate(0, 7)" class="sja_aa_discg"><circle fill="#3987CC" stroke="white" r="6.5"/><text font-size="12" fill="#3987CC" x="8" y="3.5999999999999996" font-family="Arial" class="sja_aa_disclabel" fill-opacity="1" transform="scale(1) rotate(0)">p.Arg441Gly</text><circle r="6.5" stroke="#3987CC" class="sja_aa_disckick" fill="white" fill-opacity="0" stroke-opacity="0" transform="scale(1)"/><path d="M4.286263797015736e-16,-7L4.286263797015736e-16,-7Z" fill="#3987CC" class="sja_aa_discrim" fill-opacity="1" stroke-opacity="1"/></g><circle class="sja_aa_skkick" fill="white" fill-opacity="0" stroke="none" r="8" cy="7" transform="scale(0)"/><path class="sja_aa_stem" d="M0,0v0l0,0v-23.799999999999997" stroke="#3987CC" fill="none"/></g></g><g/><g transform="scale(0)"><rect fill="white" fill-opacity="0.5" width="800" height="0"/><text data-testid="loading_message" fill="rgb(97, 124, 148)" fill-opacity="1" font-weight="bold" font-size="18px" text-anchor="middle" dominant-baseline="middle" x="400" y="15">Loading ...</text><line stroke="rgb(97, 124, 148)" stroke-width="2px" y1="30" y2="30" x2="0"/></g></g><g transform="translate(122.3984375,0)"><text font-size="14" font-family="Arial" y="7" text-anchor="end" dominant-baseline="central" fill="black" x="-10" font-weight="bold">GAMBL BL</text><g/><text font-size="14" font-family="Arial" y="26" text-anchor="end" dominant-baseline="central" class="sja_clbtext2" fill="black" x="-10">1 of 2 mutations</text></g><g transform="translate(935.3984375,0)"/></g><g data-testid="sja_sample_menu_opener" transform="translate(0, 194.0578155517578)"><g transform="translate(925.3984375, 0)"/><g transform="translate(125.3984375,0)"><rect fill="white" fill-opacity="0" width="800" height="116.2921875"/><g transform="translate(0,0)" style="cursor: default;"><g class="sja_skg" transform="translate(665.1790161132812, 23.799999237060547)"><g transform="translate(0, 7)" class="sja_aa_discg"><circle fill="#3987CC" stroke="white" r="6.5"/><text font-size="12" fill="#3987CC" x="8" y="3.5999999999999996" font-family="Arial" class="sja_aa_disclabel" fill-opacity="1" transform="scale(1) rotate(0)">p.Val597Met</text><circle r="6.5" stroke="#3987CC" class="sja_aa_disckick" fill="white" fill-opacity="0" stroke-opacity="0" transform="scale(1)"/><path d="M4.286263797015736e-16,-7L4.286263797015736e-16,-7Z" fill="#3987CC" class="sja_aa_discrim" fill-opacity="1" stroke-opacity="1"/></g><circle class="sja_aa_skkick" fill="white" fill-opacity="0" stroke="none" r="8" cy="7" transform="scale(0)"/><path class="sja_aa_stem" d="M0,0v0l0,0v-23.799999999999997" stroke="#3987CC" fill="none"/></g></g><g/><g transform="scale(0)"><rect fill="white" fill-opacity="0.5" width="800" height="0"/><text data-testid="loading_message" fill="rgb(97, 124, 148)" fill-opacity="1" font-weight="bold" font-size="18px" text-anchor="middle" dominant-baseline="middle" x="400" y="15">Loading ...</text><line stroke="rgb(97, 124, 148)" stroke-width="2px" y1="30" y2="30" x2="0"/></g></g><g transform="translate(122.3984375,0)"><text font-size="14" font-family="Arial" y="7" text-anchor="end" dominant-baseline="central" fill="black" x="-10" font-weight="bold">GAMBL MCL</text><g/><text font-size="14" font-family="Arial" y="26" text-anchor="end" dominant-baseline="central" class="sja_clbtext2" fill="black" x="-10">1 mutation</text></g><g transform="translate(935.3984375,0)"/></g><g data-testid="sja_sample_menu_opener" transform="translate(0, 147.0578155517578)"><g transform="translate(925.3984375, 0)"/><g transform="translate(125.3984375,0)"><rect fill="white" fill-opacity="0" width="800" height="47"/><g transform="translate(0,0)" style="cursor: default;"><g><line x1="0" y1="18.5" x2="799.9999999999999" y2="18.5" stroke="black" shape-rendering="crispEdges"/><rect x="0" width="32.357043235704325" height="37" fill="white"/><rect x="15.620641562064156" width="16.736401673640167" height="37" fill="#bebada"/><rect x="15.620641562064156" width="4.463040446304045" height="37" fill="#80b1d3"/><rect x="22.315202231520225" width="1.1157601115760112" height="37" fill="#80b1d3"/><rect x="24.546722454672246" width="1.1157601115760112" height="37" fill="#80b1d3"/><rect x="32.357043235704325" width="52.440725244072524" height="37" fill="white"/><rect x="32.357043235704325" width="52.440725244072524" height="37" fill="#bebada"/><rect x="39.05160390516039" width="1.1157601115760112" height="37" fill="#80b1d3"/><rect x="74.75592747559276" width="1.1157601115760112" height="37" fill="#80b1d3"/><rect x="41.283124128312416" width="1.1157601115760112" height="37" fill="#80b1d3"/><rect x="84.79776847977685" width="48.34960483496049" height="37" fill="white"/><rect x="84.79776847977685" width="48.34960483496049" height="37" fill="#bebada"/><rect x="94.83960948396094" width="4.463040446304045" height="37" fill="#80b1d3"/><rect x="133.14737331473734" width="67.68944676894468" height="37" fill="white"/><rect x="133.14737331473734" width="67.68944676894468" height="37" fill="#bebada"/><rect x="172.94281729428172" width="2.2315202231520224" height="37" fill="#80b1d3"/><rect x="153.97489539748955" width="2.2315202231520224" height="37" fill="#80b1d3"/><rect x="149.5118549511855" width="1.1157601115760112" height="37" fill="#80b1d3"/><rect x="157.32217573221757" width="1.1157601115760112" height="37" fill="#80b1d3"/><rect x="200.83682008368203" width="59.8791259879126" height="37" fill="white"/><rect x="200.83682008368203" width="59.8791259879126" height="37" fill="#bebada"/><rect x="260.71594607159466" width="41.283124128312416" height="37" fill="white"/><rect x="260.71594607159466" width="41.283124128312416" height="37" fill="#bebada"/><rect x="301.99907019990707" width="66.94560669456067" height="37" fill="white"/><rect x="301.99907019990707" width="66.20176662017667" height="37" fill="#bebada"/><rect x="330.2649930264993" width="38.679683867968386" height="37" fill="#fb8072"/><rect x="351.4644351464436" width="1.1157601115760112" height="37" fill="#8dd3c7"/><rect x="368.94467689446776" width="71.03672710367272" height="37" fill="white"/><rect x="368.94467689446776" width="58.39144583914459" height="37" fill="#fb8072"/><rect x="425.1046025104603" width="1.1157601115760112" height="37" fill="#8dd3c7"/><rect x="392.747559274756" width="1.1157601115760112" height="37" fill="#8dd3c7"/><rect x="439.9814039981405" width="24.174802417480244" height="37" fill="white"/><rect x="464.1562064156207" width="34.216643421664344" height="37" fill="white"/><rect x="498.37284983728506" width="32.357043235704325" height="37" fill="white"/><rect x="530.7298930729894" width="28.265922826592284" height="37" fill="white"/><rect x="558.9958158995817" width="42.02696420269642" height="37" fill="white"/><rect x="601.022780102278" width="28.637842863784286" height="37" fill="white"/><rect x="629.6606229660623" width="14.876801487680149" height="37" fill="white"/><rect x="644.5374244537425" width="37.93584379358438" height="37" fill="white"/><rect x="682.4732682473268" width="36.07624360762436" height="37" fill="white"/><rect x="718.5495118549512" width="42.02696420269642" height="37" fill="white"/><rect x="760.5764760576476" width="26.778242677824267" height="37" fill="white"/><rect x="787.3547187354718" width="12.645281264528126" height="37" fill="white"/><line x1="0" x2="799.9999999999999" stroke="black"/><line x1="0" x2="799.9999999999999" y1="37" y2="37" stroke="black"/><line x1="0" x2="0" y2="37" stroke="black"/><line x1="799.9999999999999" x2="799.9999999999999" y2="37" stroke="black"/><line class="exonboundaryclass" x1="32.357043235704325" x2="32.357043235704325" y1="0" y2="37" stroke="black" stroke-dasharray="4,2" shape-rendering="crispEdges" stroke-opacity="1"/><line class="exonboundaryclass" x1="84.79776847977685" x2="84.79776847977685" y1="0" y2="37" stroke="black" stroke-dasharray="4,2" shape-rendering="crispEdges" stroke-opacity="1"/><line class="exonboundaryclass" x1="133.14737331473734" x2="133.14737331473734" y1="0" y2="37" stroke="black" stroke-dasharray="4,2" shape-rendering="crispEdges" stroke-opacity="1"/><line class="exonboundaryclass" x1="200.83682008368203" x2="200.83682008368203" y1="0" y2="37" stroke="black" stroke-dasharray="4,2" shape-rendering="crispEdges" stroke-opacity="1"/><line class="exonboundaryclass" x1="260.71594607159466" x2="260.71594607159466" y1="0" y2="37" stroke="black" stroke-dasharray="4,2" shape-rendering="crispEdges" stroke-opacity="1"/><line class="exonboundaryclass" x1="301.99907019990707" x2="301.99907019990707" y1="0" y2="37" stroke="black" stroke-dasharray="4,2" shape-rendering="crispEdges" stroke-opacity="1"/><line class="exonboundaryclass" x1="368.94467689446776" x2="368.94467689446776" y1="0" y2="37" stroke="black" stroke-dasharray="4,2" shape-rendering="crispEdges" stroke-opacity="1"/><line class="exonboundaryclass" x1="439.9814039981405" x2="439.9814039981405" y1="0" y2="37" stroke="black" stroke-dasharray="4,2" shape-rendering="crispEdges" stroke-opacity="1"/><line class="exonboundaryclass" x1="464.1562064156207" x2="464.1562064156207" y1="0" y2="37" stroke="black" stroke-dasharray="4,2" shape-rendering="crispEdges" stroke-opacity="1"/><line class="exonboundaryclass" x1="498.37284983728506" x2="498.37284983728506" y1="0" y2="37" stroke="black" stroke-dasharray="4,2" shape-rendering="crispEdges" stroke-opacity="1"/><line class="exonboundaryclass" x1="530.7298930729894" x2="530.7298930729894" y1="0" y2="37" stroke="black" stroke-dasharray="4,2" shape-rendering="crispEdges" stroke-opacity="1"/><line class="exonboundaryclass" x1="558.9958158995817" x2="558.9958158995817" y1="0" y2="37" stroke="black" stroke-dasharray="4,2" shape-rendering="crispEdges" stroke-opacity="1"/><line class="exonboundaryclass" x1="601.022780102278" x2="601.022780102278" y1="0" y2="37" stroke="black" stroke-dasharray="4,2" shape-rendering="crispEdges" stroke-opacity="1"/><line class="exonboundaryclass" x1="629.6606229660623" x2="629.6606229660623" y1="0" y2="37" stroke="black" stroke-dasharray="4,2" shape-rendering="crispEdges" stroke-opacity="1"/><line class="exonboundaryclass" x1="644.5374244537425" x2="644.5374244537425" y1="0" y2="37" stroke="black" stroke-dasharray="4,2" shape-rendering="crispEdges" stroke-opacity="1"/><line class="exonboundaryclass" x1="682.4732682473268" x2="682.4732682473268" y1="0" y2="37" stroke="black" stroke-dasharray="4,2" shape-rendering="crispEdges" stroke-opacity="1"/><line class="exonboundaryclass" x1="718.5495118549512" x2="718.5495118549512" y1="0" y2="37" stroke="black" stroke-dasharray="4,2" shape-rendering="crispEdges" stroke-opacity="1"/><line class="exonboundaryclass" x1="760.5764760576476" x2="760.5764760576476" y1="0" y2="37" stroke="black" stroke-dasharray="4,2" shape-rendering="crispEdges" stroke-opacity="1"/><line class="exonboundaryclass" x1="787.3547187354718" x2="787.3547187354718" y1="0" y2="37" stroke="black" stroke-dasharray="4,2" shape-rendering="crispEdges" stroke-opacity="1"/><g transform="translate(0,18.5)" fill="none" font-size="10" font-family="sans-serif" text-anchor="middle"><path class="domain" stroke="none" d="M0.5578800557880056,0H799.9999999999999" fill="none" stroke-width="0" shape-rendering="crispEdges"/><g class="tick" opacity="1" transform="translate(110.91866411512223,0)"><line stroke="black" y2="0" shape-rendering="crispEdges"/><text fill="black" y="3" dy="0.71em" font-family="Arial" font-size="11.666666666666666px" style="cursor: default;">100</text></g><g class="tick" opacity="1" transform="translate(222.66080717174114,0)"><line stroke="black" y2="0" shape-rendering="crispEdges"/><text fill="black" y="3" dy="0.71em" font-family="Arial" font-size="11.666666666666666px" style="cursor: default;">200</text></g><g class="tick" opacity="1" transform="translate(334.26003409267014,0)"><line stroke="black" y2="0" shape-rendering="crispEdges"/><text fill="black" y="3" dy="0.71em" font-family="Arial" font-size="11.666666666666666px" style="cursor: default;">300</text></g><g class="tick" opacity="1" transform="translate(445.6193736528465,0)"><line stroke="black" y2="0" shape-rendering="crispEdges"/><text fill="black" y="3" dy="0.71em" font-family="Arial" font-size="11.666666666666666px" style="cursor: default;">400</text></g><g class="tick" opacity="1" transform="translate(556.8072095268749,0)"><line stroke="black" y2="0" shape-rendering="crispEdges"/><text fill="black" y="3" dy="0.71em" font-family="Arial" font-size="11.666666666666666px" style="cursor: default;">500</text></g><g class="tick" opacity="1" transform="translate(669.0185139606749,0)"><line stroke="black" y2="0" shape-rendering="crispEdges"/><text fill="black" y="3" dy="0.71em" font-family="Arial" font-size="11.666666666666666px" style="cursor: default;">600</text></g><g class="tick" opacity="1" transform="translate(780.6136680613668,0)"><line stroke="black" y2="0" shape-rendering="crispEdges"/><text fill="black" y="3" dy="0.71em" font-family="Arial" font-size="11.666666666666666px" style="cursor: default;">700</text></g></g><rect x="0" width="32.357043235704325" height="37" fill="#858585" fill-opacity="0"/><rect x="32.357043235704325" width="52.440725244072524" height="37" fill="#858585" fill-opacity="0"/><rect x="84.79776847977685" width="48.34960483496049" height="37" fill="#858585" fill-opacity="0"/><rect x="133.14737331473734" width="67.68944676894468" height="37" fill="#858585" fill-opacity="0"/><rect x="200.83682008368203" width="59.8791259879126" height="37" fill="#858585" fill-opacity="0"/><rect x="260.71594607159466" width="41.283124128312416" height="37" fill="#858585" fill-opacity="0"/><rect x="301.99907019990707" width="66.94560669456067" height="37" fill="#858585" fill-opacity="0"/><rect x="368.94467689446776" width="71.03672710367272" height="37" fill="#858585" fill-opacity="0"/><rect x="439.9814039981405" width="24.174802417480244" height="37" fill="#858585" fill-opacity="0"/><rect x="464.1562064156207" width="34.216643421664344" height="37" fill="#858585" fill-opacity="0"/><rect x="498.37284983728506" width="32.357043235704325" height="37" fill="#858585" fill-opacity="0"/><rect x="530.7298930729894" width="28.265922826592284" height="37" fill="#858585" fill-opacity="0"/><rect x="558.9958158995817" width="42.02696420269642" height="37" fill="#858585" fill-opacity="0"/><rect x="601.022780102278" width="28.637842863784286" height="37" fill="#858585" fill-opacity="0"/><rect x="629.6606229660623" width="14.876801487680149" height="37" fill="#858585" fill-opacity="0"/><rect x="644.5374244537425" width="37.93584379358438" height="37" fill="#858585" fill-opacity="0"/><rect x="682.4732682473268" width="36.07624360762436" height="37" fill="#858585" fill-opacity="0"/><rect x="718.5495118549512" width="42.02696420269642" height="37" fill="#858585" fill-opacity="0"/><rect x="760.5764760576476" width="26.778242677824267" height="37" fill="#858585" fill-opacity="0"/><rect x="787.3547187354718" width="12.645281264528126" height="37" fill="#858585" fill-opacity="0"/></g></g><g/><g transform="scale(0)"><rect fill="white" fill-opacity="0"/><text data-testid="loading_message" fill="rgb(97, 124, 148)" fill-opacity="0" font-weight="bold" font-size="18px" text-anchor="middle" dominant-baseline="middle">Loading ...</text><line stroke="rgb(97, 124, 148)" stroke-width="2px"/></g></g><g transform="translate(122.3984375,0)"><text font-size="14" font-family="Arial" y="7" text-anchor="end" dominant-baseline="central" fill="black" x="-10" font-weight="bold">IKBKE</text><text font-size="14" font-family="Arial" y="20" text-anchor="end" dominant-baseline="central" fill="black" x="-10">NM_014002</text></g><g transform="translate(935.3984375,0)"><text fill="#aaa" font-family="Arial" font-size="14" y="14" class="sja_clbtext2"/></g></g></g><g transform="scale(0)"><rect fill="white"/><text id="loadinggCloak" fill="rgb(97, 124, 148)" fill-opacity="0" font-weight="bold" font-size="18px" text-anchor="middle" dominant-baseline="middle">Loading ...</text></g><g/><g transform="translate(124.3984375,551.0203125)"><g transform="translate(0,0)"><rect width="15" height="20" stroke="rgb(133, 130, 153)" fill="#bebada" shape-rendering="crispEdges"/><text x="20" y="10" dominant-baseline="central" font-size="16" font-family="Arial" fill="black">PKc_like</text><text x="92.25" y="10" dominant-baseline="central" font-size="12" font-family="Arial" fill="#858585">Protein Kinases, catalytic domain</text></g><g transform="translate(0,23)"><rect width="15" height="20" stroke="rgb(90, 124, 148)" fill="#80b1d3" shape-rendering="crispEdges"/><text x="20" y="10" dominant-baseline="central" font-size="16" font-family="Arial" fill="black">other</text><text x="66.6875" y="10" dominant-baseline="central" font-size="12" font-family="Arial" fill="#858585">ATP binding site [chemical binding]</text></g><g transform="translate(0,46)"><rect width="15" height="20" stroke="rgb(176, 90, 80)" fill="#fb8072" shape-rendering="crispEdges"/><text x="20" y="10" dominant-baseline="central" font-size="16" font-family="Arial" fill="black">UBL_TBK1_like</text><text x="142.9453125" y="10" dominant-baseline="central" font-size="12" font-family="Arial" fill="#858585">Ubiquitin-Like Domain Of Human Tbk1 and similar proteins</text></g><g transform="translate(0,69)"><rect width="15" height="20" stroke="rgb(99, 148, 139)" fill="#8dd3c7" shape-rendering="crispEdges"/><text x="20" y="10" dominant-baseline="central" font-size="16" font-family="Arial" fill="black">other</text><text x="66.6875" y="10" dominant-baseline="central" font-size="12" font-family="Arial" fill="#858585">hydrophobic patch [polypeptide binding]</text></g></g><g transform="translate(727.3984375,551.0203125)"><g transform="translate(0,0)"><circle cx="10" cy="10" r="10" fill="#3987CC"/><text x="30" y="10" dominant-baseline="central" font-size="16" font-family="Arial" fill="#3987CC">MISSENSE, n=4</text></g><g transform="translate(0,23)"><circle cx="10" cy="10" r="10" fill="#819981"/><text x="30" y="10" dominant-baseline="central" font-size="16" font-family="Arial" fill="#819981">UTR_5, n=1</text></g></g></svg>