<svg xmlns="http://www.w3.org/2000/svg" data-testid="sjpp_block_svg" width="1335.3984375" height="508.7171875"><g transform="translate(0,0)"><g transform="translate(125.3984375, 0)"/><rect fill="#FFFF99" x="819" width="0" height="376.7171875"/><g transform="translate(125.3984375, 23)"><g transform="translate(0,0)"><text text-anchor="end" x="-13" y="-10" dominant-baseline="central" font-size="13" font-family="Arial">Protein length</text><g><g transform="translate(0,0)" fill="none" font-size="10" font-family="sans-serif" text-anchor="middle"><path class="domain" stroke="black" d="M0,-6V0H1100V-6" fill="none" stroke-width="1" shape-rendering="crispEdges"/><g class="tick" opacity="1" transform="translate(131.8401937046005,0)"><line stroke="black" y2="-6" shape-rendering="crispEdges"/><text fill="black" y="-9" dy="0em" font-family="Arial" font-size="12px" style="cursor: default;">100</text></g><g class="tick" opacity="1" transform="translate(265.01210653753026,0)"><line stroke="black" y2="-6" shape-rendering="crispEdges"/><text fill="black" y="-9" dy="0em" font-family="Arial" font-size="12px" style="cursor: default;">200</text></g><g class="tick" opacity="1" transform="translate(398.1840193704601,0)"><line stroke="black" y2="-6" shape-rendering="crispEdges"/><text fill="black" y="-9" dy="0em" font-family="Arial" font-size="12px" style="cursor: default;">300</text></g><g class="tick" opacity="1" transform="translate(531.3559322033898,0)"><line stroke="black" y2="-6" shape-rendering="crispEdges"/><text fill="black" y="-9" dy="0em" font-family="Arial" font-size="12px" style="cursor: default;">400</text></g><g class="tick" opacity="1" transform="translate(664.5278450363196,0)"><line stroke="black" y2="-6" shape-rendering="crispEdges"/><text fill="black" y="-9" dy="0em" font-family="Arial" font-size="12px" style="cursor: default;">500</text></g><g class="tick" opacity="1" transform="translate(797.6997578692494,0)"><line stroke="black" y2="-6" shape-rendering="crispEdges"/><text fill="black" y="-9" dy="0em" font-family="Arial" font-size="12px" style="cursor: default;">600</text></g><g class="tick" opacity="1" transform="translate(930.8716707021791,0)"><line stroke="black" y2="-6" shape-rendering="crispEdges"/><text fill="black" y="-9" dy="0em" font-family="Arial" font-size="12px" style="cursor: default;">700</text></g><g class="tick" opacity="1" transform="translate(1064.0435835351088,0)"><line stroke="black" y2="-6" shape-rendering="crispEdges"/><text fill="black" y="-9" dy="0em" font-family="Arial" font-size="12px" style="cursor: default;">800</text></g></g></g><rect fill="white" fill-opacity="0" x="0" y="-23" width="1100" height="26"/></g><g transform="translate(1100, 0)"/></g><g data-testid="sja_sample_menu_opener" transform="translate(0, 196.5109405517578)"><g transform="translate(1225.3984375, 0)"/><g transform="translate(125.3984375, 0)"><rect fill="white" fill-opacity="0" width="1100" height="161.20625"/><g transform="translate(0,0)" style="cursor: default;"><g class="sja_skg" transform="translate(44, 63.79999923706055)"><g transform="translate(0, 7)" class="sja_aa_discg"><circle fill="#3987CC" stroke="white" r="6.5"/><text font-size="12" fill="#3987CC" x="8" y="3.5999999999999996" font-family="Arial" class="sja_aa_disclabel" fill-opacity="1" transform="rotate(90)">p.Cys34Phe</text><circle r="6.5" stroke="#3987CC" class="sja_aa_disckick" fill="white" fill-opacity="0" stroke-opacity="0" transform="scale(1)"/><path d="M4.286263797015736e-16,-7L4.286263797015736e-16,-7Z" fill="#3987CC" class="sja_aa_discrim" fill-opacity="1" stroke-opacity="1"/></g><circle class="sja_aa_skkick" fill="white" fill-opacity="0" stroke="none" r="8" cy="7" transform="scale(0)"/><path class="sja_aa_stem" d="M0,0v-14l0.6125907990314801,-26v-23.799999999999997" stroke="#3987CC" fill="none"/></g><g class="sja_skg" transform="translate(97, 63.79999923706055)"><g transform="translate(0, 7)" class="sja_aa_discg"><circle fill="#3987CC" stroke="white" r="6.5"/><text font-size="12" fill="#3987CC" x="8" y="3.5999999999999996" font-family="Arial" class="sja_aa_disclabel" fill-opacity="1" transform="scale(1) rotate(0)">p.Cys74Gly</text><circle r="6.5" stroke="#3987CC" class="sja_aa_disckick" fill="white" fill-opacity="0" stroke-opacity="0" transform="scale(1)"/><path d="M4.286263797015736e-16,-7L4.286263797015736e-16,-7Z" fill="#3987CC" class="sja_aa_discrim" fill-opacity="1" stroke-opacity="1"/></g><circle class="sja_aa_skkick" fill="white" fill-opacity="0" stroke="none" r="8" cy="7" transform="scale(0)"/><path class="sja_aa_stem" d="M0,0v-14l0.43744955609362535,-26v-23.799999999999997" stroke="#3987CC" fill="none"/></g><g class="sja_skg" transform="translate(265, 63.79999923706055)"><g transform="translate(0, 7)" class="sja_aa_discg"><circle fill="#3987CC" stroke="white" r="6.5"/><text font-size="12" fill="#3987CC" x="8" y="3.5999999999999996" font-family="Arial" class="sja_aa_disclabel" fill-opacity="1" transform="rotate(90)">p.Arg200Trp</text><circle r="6.5" stroke="#3987CC" class="sja_aa_disckick" fill="white" fill-opacity="0" stroke-opacity="0" transform="scale(1)"/><path d="M4.286263797015736e-16,-7L4.286263797015736e-16,-7Z" fill="#3987CC" class="sja_aa_discrim" fill-opacity="1" stroke-opacity="1"/></g><circle class="sja_aa_skkick" fill="white" fill-opacity="0" stroke="none" r="8" cy="7" transform="scale(0)"/><path class="sja_aa_stem" d="M0,0v-14l0.23405972558515487,-26v-23.799999999999997" stroke="#3987CC" fill="none"/></g><g class="sja_skg" transform="translate(279, 63.79999923706055)"><g transform="translate(0, 7)" class="sja_aa_discg"><circle fill="#3987CC" stroke="white" r="6.5"/><text font-size="12" fill="#3987CC" x="8" y="3.5999999999999996" font-family="Arial" class="sja_aa_disclabel" fill-opacity="1" transform="rotate(90)">p.Val201Gly</text><circle r="6.5" stroke="#3987CC" class="sja_aa_disckick" fill="white" fill-opacity="0" stroke-opacity="0" transform="scale(1)"/><path d="M4.286263797015736e-16,-7L4.286263797015736e-16,-7Z" fill="#3987CC" class="sja_aa_discrim" fill-opacity="1" stroke-opacity="1"/></g><circle class="sja_aa_skkick" fill="white" fill-opacity="0" stroke="none" r="8" cy="7" transform="scale(0)"/><path class="sja_aa_stem" d="M0,0v-14l-11.990314769975782,-26v-23.799999999999997" stroke="#3987CC" fill="none"/></g><g class="sja_skg" transform="translate(321, 63.79999923706055)"><g transform="translate(0, 7)" class="sja_aa_discg"><circle fill="#3987CC" stroke="white" r="6.5"/><text font-size="12" fill="#3987CC" x="8" y="3.5999999999999996" font-family="Arial" class="sja_aa_disclabel" fill-opacity="1" transform="scale(1) rotate(0)">p.Ile242Asn</text><circle r="6.5" stroke="#3987CC" class="sja_aa_disckick" fill="white" fill-opacity="0" stroke-opacity="0" transform="scale(1)"/><path d="M4.286263797015736e-16,-7L4.286263797015736e-16,-7Z" fill="#3987CC" class="sja_aa_discrim" fill-opacity="1" stroke-opacity="1"/></g><circle class="sja_aa_skkick" fill="white" fill-opacity="0" stroke="none" r="8" cy="7" transform="scale(0)"/><path class="sja_aa_stem" d="M0,0v-14l0.6101694915254257,-26v-23.799999999999997" stroke="#3987CC" fill="none"/></g><g class="sja_skg" transform="translate(525, 63.79999923706055)"><g transform="translate(0, 7)" class="sja_aa_discg"><circle fill="#3987CC" stroke="white" r="6.5"/><text font-size="12" fill="#3987CC" x="8" y="3.5999999999999996" font-family="Arial" class="sja_aa_disclabel" fill-opacity="1" transform="rotate(90)">p.Phe395Leu</text><circle r="6.5" stroke="#3987CC" class="sja_aa_disckick" fill="white" fill-opacity="0" stroke-opacity="0" transform="scale(1)"/><path d="M4.286263797015736e-16,-7L4.286263797015736e-16,-7Z" fill="#3987CC" class="sja_aa_discrim" fill-opacity="1" stroke-opacity="1"/></g><circle class="sja_aa_skkick" fill="white" fill-opacity="0" stroke="none" r="8" cy="7" transform="scale(0)"/><path class="sja_aa_stem" d="M0,0v-14l0.8071025020177558,-26v-23.799999999999997" stroke="#3987CC" fill="none"/></g><g class="sja_skg" transform="translate(539, 63.79999923706055)"><g transform="translate(0, 7)" class="sja_aa_discg"><circle fill="#3987CC" stroke="white" r="6.5"/><text font-size="12" fill="#3987CC" x="8" y="3.5999999999999996" font-family="Arial" class="sja_aa_disclabel" fill-opacity="1" transform="scale(1) rotate(0)">p.Arg405Trp</text><circle r="6.5" stroke="#3987CC" class="sja_aa_disckick" fill="white" fill-opacity="0" stroke-opacity="0" transform="scale(1)"/><path d="M4.286263797015736e-16,-7L4.286263797015736e-16,-7Z" fill="#3987CC" class="sja_aa_discrim" fill-opacity="1" stroke-opacity="1"/></g><circle class="sja_aa_skkick" fill="white" fill-opacity="0" stroke="none" r="8" cy="7" transform="scale(0)"/><path class="sja_aa_stem" d="M0,0v-14l-0.7635189669088049,-26v-23.799999999999997" stroke="#3987CC" fill="none"/></g><g class="sja_skg" transform="translate(911, 63.79999923706055)"><g transform="translate(0, 7)" class="sja_aa_discg"><circle fill="#ff7f0e" stroke="white" r="6.5"/><text font-size="12" fill="#ff7f0e" x="8" y="3.5999999999999996" font-family="Arial" class="sja_aa_disclabel" fill-opacity="1" transform="scale(1) rotate(0)">p.Lys685Ter</text><circle r="6.5" stroke="#ff7f0e" class="sja_aa_disckick" fill="white" fill-opacity="0" stroke-opacity="0" transform="scale(1)"/><path d="M4.286263797015736e-16,-7L4.286263797015736e-16,-7Z" fill="#ff7f0e" class="sja_aa_discrim" fill-opacity="1" stroke-opacity="1"/></g><circle class="sja_aa_skkick" fill="white" fill-opacity="0" stroke="none" r="8" cy="7" transform="scale(0)"/><path class="sja_aa_stem" d="M0,0v-14l0.1178369652946003,-26v-23.799999999999997" stroke="#ff7f0e" fill="none"/></g></g><g/><g transform="scale(0)"><rect fill="white" fill-opacity="0.5" width="1100" height="0"/><text data-testid="loading_message" fill="rgb(97, 124, 148)" fill-opacity="1" font-weight="bold" font-size="18px" text-anchor="middle" dominant-baseline="middle" x="550" y="15">Loading ...</text><line stroke="rgb(97, 124, 148)" stroke-width="2px" y1="30" y2="30" x2="0"/></g></g><g transform="translate(122.3984375, 0)"><text font-size="14" font-family="Arial" y="7" text-anchor="end" dominant-baseline="central" fill="black" x="-10" font-weight="bold">GAMBL DLBCL</text><g/><text font-size="14" font-family="Arial" y="26" text-anchor="end" dominant-baseline="central" class="sja_clbtext2" fill="black" x="-10">8 mutations</text></g><g transform="translate(1235.3984375, 0)"/></g><g data-testid="sja_sample_menu_opener" transform="translate(0, 357.7171936035156)"><g transform="translate(1225.3984375, 0)"/><g transform="translate(125.3984375,0)"><rect fill="white" fill-opacity="0" width="1100" height="24"/><g transform="translate(0,0)" style="cursor: default;"/><g/><g transform="scale(0)"><rect fill="white" fill-opacity="0.5" width="1100" height="0"/><text data-testid="loading_message" fill="rgb(97, 124, 148)" fill-opacity="1" font-weight="bold" font-size="18px" text-anchor="middle" dominant-baseline="middle" x="550" y="15">Loading ...</text><line stroke="rgb(97, 124, 148)" stroke-width="2px" y1="30" y2="30" x2="0"/></g></g><g transform="translate(122.3984375,0)"><text font-size="14" font-family="Arial" y="7" text-anchor="end" dominant-baseline="central" fill="black" x="-10" font-weight="bold">GAMBL FL</text><g/><text font-size="14" font-family="Arial" y="26" text-anchor="end" dominant-baseline="central" class="sja_clbtext2" fill="black" x="-10"/></g><g transform="translate(1235.3984375,0)"/></g><g data-testid="sja_sample_menu_opener" transform="translate(0, 31)"><g transform="translate(1225.3984375, 0)"/><g transform="translate(125.3984375,0)"><rect fill="white" fill-opacity="0" width="1100" height="118.5109375"/><g transform="translate(0,0)" style="cursor: default;"><g class="sja_skg" transform="translate(321.61016845703125, 84.7109375)"><g transform="translate(0, -7)" class="sja_aa_discg"><circle fill="#3987CC" stroke="white" r="6.5"/><text font-size="12" fill="#3987CC" x="8" y="3.5999999999999996" font-family="Arial" class="sja_aa_disclabel" fill-opacity="1" transform="scale(1) rotate(0)">p.Ile242Asn</text><circle r="6.5" stroke="#3987CC" class="sja_aa_disckick" fill="white" fill-opacity="0" stroke-opacity="0" transform="scale(1)"/><path d="M4.286263797015736e-16,-7L4.286263797015736e-16,-7Z" fill="#3987CC" class="sja_aa_discrim" fill-opacity="1" stroke-opacity="1"/></g><circle class="sja_aa_skkick" fill="white" fill-opacity="0" stroke="none" r="8" cy="-7" transform="scale(0)"/><path class="sja_aa_stem" d="M0,0v0l0,0v23.799999999999997" stroke="#3987CC" fill="none"/></g><g class="sja_skg" transform="translate(566.646484375, 84.7109375)"><g transform="translate(0, -7)" class="sja_aa_discg"><circle fill="#3987CC" stroke="white" r="6.5"/><text font-size="12" fill="#3987CC" x="8" y="3.5999999999999996" font-family="Arial" class="sja_aa_disclabel" fill-opacity="1" transform="scale(1) rotate(0)">p.Asp426Gly</text><circle r="6.5" stroke="#3987CC" class="sja_aa_disckick" fill="white" fill-opacity="0" stroke-opacity="0" transform="scale(1)"/><path d="M4.286263797015736e-16,-7L4.286263797015736e-16,-7Z" fill="#3987CC" class="sja_aa_discrim" fill-opacity="1" stroke-opacity="1"/></g><circle class="sja_aa_skkick" fill="white" fill-opacity="0" stroke="none" r="8" cy="-7" transform="scale(0)"/><path class="sja_aa_stem" d="M0,0v0l0,0v23.799999999999997" stroke="#3987CC" fill="none"/></g><g class="sja_skg" transform="translate(880.48828125, 84.7109375)"><g transform="translate(0, -7)" class="sja_aa_discg"><circle fill="#3987CC" stroke="white" r="6.5"/><text font-size="12" fill="#3987CC" x="8" y="3.5999999999999996" font-family="Arial" class="sja_aa_disclabel" fill-opacity="1" transform="scale(1) rotate(0)">p.Pro662Ser</text><circle r="6.5" stroke="#3987CC" class="sja_aa_disckick" fill="white" fill-opacity="0" stroke-opacity="0" transform="scale(1)"/><path d="M4.286263797015736e-16,-7L4.286263797015736e-16,-7Z" fill="#3987CC" class="sja_aa_discrim" fill-opacity="1" stroke-opacity="1"/></g><circle class="sja_aa_skkick" fill="white" fill-opacity="0" stroke="none" r="8" cy="-7" transform="scale(0)"/><path class="sja_aa_stem" d="M0,0v0l0,0v23.799999999999997" stroke="#3987CC" fill="none"/></g></g><g/><g transform="scale(0)"><rect fill="white" fill-opacity="0.5" width="1100" height="0"/><text data-testid="loading_message" fill="rgb(97, 124, 148)" fill-opacity="1" font-weight="bold" font-size="18px" text-anchor="middle" dominant-baseline="middle" x="550" y="15">Loading ...</text><line stroke="rgb(97, 124, 148)" stroke-width="2px" y1="30" y2="30" x2="0"/></g></g><g transform="translate(122.3984375,0)"><text font-size="14" font-family="Arial" y="7" text-anchor="end" dominant-baseline="central" fill="black" x="-10" font-weight="bold">GAMBL BL</text><g/><text font-size="14" font-family="Arial" y="26" text-anchor="end" dominant-baseline="central" class="sja_clbtext2" fill="black" x="-10">3 mutations</text></g><g transform="translate(1235.3984375,0)"/></g><g data-testid="sja_sample_menu_opener" transform="translate(0, 149.5109405517578)"><g transform="translate(1225.3984375, 0)"/><g transform="translate(125.3984375,0)"><rect fill="white" fill-opacity="0" width="1100" height="47"/><g transform="translate(0,0)" style="cursor: default;"><g><line x1="0" y1="18.5" x2="1100" y2="18.5" stroke="black" shape-rendering="crispEdges"/><rect x="0" width="31.073446327683616" height="37" fill="white"/><rect x="31.073446327683616" width="61.702986279257466" height="37" fill="white"/><rect x="41.28329297820824" width="51.493139628732855" height="37" fill="#fb8072"/><rect x="92.77643260694109" width="67.47376916868443" height="37" fill="white"/><rect x="92.77643260694109" width="67.47376916868443" height="37" fill="#fb8072"/><rect x="160.2502017756255" width="67.47376916868443" height="37" fill="white"/><rect x="162.46973365617433" width="65.2542372881356" height="37" fill="#80b1d3"/><rect x="160.2502017756255" width="1" height="37" fill="#fb8072"/><rect x="162.46973365617433" width="1.331719128329298" height="37" fill="#bebada"/><rect x="227.72397094430994" width="69.69330104923326" height="37" fill="white"/><rect x="227.72397094430994" width="63.9225181598063" height="37" fill="#80b1d3"/><rect x="284.98789346246974" width="2.663438256658596" height="37" fill="#8dd3c7"/><rect x="280.9927360774819" width="2.663438256658596" height="37" fill="#8dd3c7"/><rect x="255.6900726392252" width="1.331719128329298" height="37" fill="#bebada"/><rect x="279.66101694915255" width="1.331719128329298" height="37" fill="#bebada"/><rect x="297.4172719935432" width="44.3906376109766" height="37" fill="white"/><rect x="341.80790960451975" width="35.06860371267151" height="37" fill="white"/><rect x="376.87651331719127" width="22.1953188054883" height="37" fill="white"/><rect x="399.07183212267955" width="700.9281678773204" height="37" fill="white"/><line x1="0" x2="1100" stroke="black"/><line x1="0" x2="1100" y1="37" y2="37" stroke="black"/><line x1="0" x2="0" y2="37" stroke="black"/><line x1="1100" x2="1100" y2="37" stroke="black"/><line class="exonboundaryclass" x1="31.073446327683616" x2="31.073446327683616" y1="0" y2="37" stroke="black" stroke-dasharray="4,2" shape-rendering="crispEdges" stroke-opacity="1"/><line class="exonboundaryclass" x1="92.77643260694109" x2="92.77643260694109" y1="0" y2="37" stroke="black" stroke-dasharray="4,2" shape-rendering="crispEdges" stroke-opacity="1"/><line class="exonboundaryclass" x1="160.2502017756255" x2="160.2502017756255" y1="0" y2="37" stroke="black" stroke-dasharray="4,2" shape-rendering="crispEdges" stroke-opacity="1"/><line class="exonboundaryclass" x1="227.72397094430994" x2="227.72397094430994" y1="0" y2="37" stroke="black" stroke-dasharray="4,2" shape-rendering="crispEdges" stroke-opacity="1"/><line class="exonboundaryclass" x1="297.4172719935432" x2="297.4172719935432" y1="0" y2="37" stroke="black" stroke-dasharray="4,2" shape-rendering="crispEdges" stroke-opacity="1"/><line class="exonboundaryclass" x1="341.80790960451975" x2="341.80790960451975" y1="0" y2="37" stroke="black" stroke-dasharray="4,2" shape-rendering="crispEdges" stroke-opacity="1"/><line class="exonboundaryclass" x1="376.87651331719127" x2="376.87651331719127" y1="0" y2="37" stroke="black" stroke-dasharray="4,2" shape-rendering="crispEdges" stroke-opacity="1"/><line class="exonboundaryclass" x1="399.07183212267955" x2="399.07183212267955" y1="0" y2="37" stroke="black" stroke-dasharray="4,2" shape-rendering="crispEdges" stroke-opacity="1"/><g transform="translate(0,18.5)" fill="none" font-size="10" font-family="sans-serif" text-anchor="middle"><path class="domain" stroke="none" d="M0.665859564164649,0H1100" fill="none" stroke-width="0" shape-rendering="crispEdges"/><g class="tick" opacity="1" transform="translate(132.3754925699093,0)"><line stroke="black" y2="0" shape-rendering="crispEdges"/><text fill="black" y="3" dy="0.71em" font-family="Arial" font-size="11.666666666666666px" style="cursor: default;">100</text></g><g class="tick" opacity="1" transform="translate(265.55845284658847,0)"><line stroke="black" y2="0" shape-rendering="crispEdges"/><text fill="black" y="3" dy="0.71em" font-family="Arial" font-size="11.666666666666666px" style="cursor: default;">200</text></g><g class="tick" opacity="1" transform="translate(398.84987893462466,0)"><line stroke="black" y2="0" shape-rendering="crispEdges"/><text fill="black" y="3" dy="0.71em" font-family="Arial" font-size="11.666666666666666px" style="cursor: default;">300</text></g><g class="tick" opacity="1" transform="translate(531.8954427041456,0)"><line stroke="black" y2="0" shape-rendering="crispEdges"/><text fill="black" y="3" dy="0.71em" font-family="Arial" font-size="11.666666666666666px" style="cursor: default;">400</text></g><g class="tick" opacity="1" transform="translate(664.9410064736664,0)"><line stroke="black" y2="0" shape-rendering="crispEdges"/><text fill="black" y="3" dy="0.71em" font-family="Arial" font-size="11.666666666666666px" style="cursor: default;">500</text></g><g class="tick" opacity="1" transform="translate(797.9865702431874,0)"><line stroke="black" y2="0" shape-rendering="crispEdges"/><text fill="black" y="3" dy="0.71em" font-family="Arial" font-size="11.666666666666666px" style="cursor: default;">600</text></g><g class="tick" opacity="1" transform="translate(931.0321340127084,0)"><line stroke="black" y2="0" shape-rendering="crispEdges"/><text fill="black" y="3" dy="0.71em" font-family="Arial" font-size="11.666666666666666px" style="cursor: default;">700</text></g><g class="tick" opacity="1" transform="translate(1064.0776977822293,0)"><line stroke="black" y2="0" shape-rendering="crispEdges"/><text fill="black" y="3" dy="0.71em" font-family="Arial" font-size="11.666666666666666px" style="cursor: default;">800</text></g></g><rect x="0" width="31.073446327683616" height="37" fill="#858585" fill-opacity="0"/><rect x="31.073446327683616" width="61.702986279257466" height="37" fill="#858585" fill-opacity="0"/><rect x="92.77643260694109" width="67.47376916868443" height="37" fill="#858585" fill-opacity="0"/><rect x="160.2502017756255" width="67.47376916868443" height="37" fill="#858585" fill-opacity="0"/><rect x="227.72397094430994" width="69.69330104923326" height="37" fill="#858585" fill-opacity="0"/><rect x="297.4172719935432" width="44.3906376109766" height="37" fill="#858585" fill-opacity="0"/><rect x="341.80790960451975" width="35.06860371267151" height="37" fill="#858585" fill-opacity="0"/><rect x="376.87651331719127" width="22.1953188054883" height="37" fill="#858585" fill-opacity="0"/><rect x="399.07183212267955" width="700.9281678773204" height="37" fill="#858585" fill-opacity="0"/></g></g><g/><g transform="scale(0)"><rect fill="white" fill-opacity="0"/><text data-testid="loading_message" fill="rgb(97, 124, 148)" fill-opacity="0" font-weight="bold" font-size="18px" text-anchor="middle" dominant-baseline="middle">Loading ...</text><line stroke="rgb(97, 124, 148)" stroke-width="2px"/></g></g><g transform="translate(122.3984375,0)"><text font-size="14" font-family="Arial" y="7" text-anchor="end" dominant-baseline="central" fill="black" x="-10" font-weight="bold">IL4R</text><text font-size="14" font-family="Arial" y="20" text-anchor="end" dominant-baseline="central" fill="black" x="-10">NM_000418</text></g><g transform="translate(1235.3984375,0)"><text fill="#aaa" font-family="Arial" font-size="14" y="14" class="sja_clbtext2"/></g></g></g><g transform="scale(0)"><rect fill="white"/><text id="loadinggCloak" fill="rgb(97, 124, 148)" fill-opacity="0" font-weight="bold" font-size="18px" text-anchor="middle" dominant-baseline="middle">Loading ...</text></g><g/><g transform="translate(124.3984375,396.7171875)"><g transform="translate(0,0)"><rect width="15" height="20" stroke="rgb(176, 90, 80)" fill="#fb8072" shape-rendering="crispEdges"/><text x="20" y="10" dominant-baseline="central" font-size="16" font-family="Arial" fill="black">IL4Ra_N</text><text x="93.1484375" y="10" dominant-baseline="central" font-size="12" font-family="Arial" fill="#858585">Interleukin-4 receptor alpha chain, N-terminal</text></g><g transform="translate(0,23)"><rect width="15" height="20" stroke="rgb(90, 124, 148)" fill="#80b1d3" shape-rendering="crispEdges"/><text x="20" y="10" dominant-baseline="central" font-size="16" font-family="Arial" fill="black">FN3</text><text x="60.2265625" y="10" dominant-baseline="central" font-size="12" font-family="Arial" fill="#858585">Fibronectin type 3 domain; One of three types of internal repeats foun ...</text></g><g transform="translate(0,46)"><rect width="15" height="20" stroke="rgb(133, 130, 153)" fill="#bebada" shape-rendering="crispEdges"/><text x="20" y="10" dominant-baseline="central" font-size="16" font-family="Arial" fill="black">other</text><text x="66.6875" y="10" dominant-baseline="central" font-size="12" font-family="Arial" fill="#858585">Interdomain contacts</text></g><g transform="translate(0,69)"><rect width="15" height="20" stroke="rgb(99, 148, 139)" fill="#8dd3c7" shape-rendering="crispEdges"/><text x="20" y="10" dominant-baseline="central" font-size="16" font-family="Arial" fill="black">other</text><text x="66.6875" y="10" dominant-baseline="central" font-size="12" font-family="Arial" fill="#858585">Cytokine receptor motif</text></g></g><g transform="translate(1027.3984375,396.7171875)"><g transform="translate(0,0)"><circle cx="10" cy="10" r="10" fill="#3987CC"/><text x="30" y="10" dominant-baseline="central" font-size="16" font-family="Arial" fill="#3987CC">MISSENSE, n=10</text></g><g transform="translate(0,23)"><circle cx="10" cy="10" r="10" fill="#ff7f0e"/><text x="30" y="10" dominant-baseline="central" font-size="16" font-family="Arial" fill="#ff7f0e">NONSENSE, n=1</text></g></g></svg>