<svg xmlns="http://www.w3.org/2000/svg" data-testid="sjpp_block_svg" width="1500.40625" height="617.195703125"><g transform="translate(0,0)"><g transform="translate(130.40625, 0)"/><rect fill="#FFFF99" x="851" width="0" height="416.195703125"/><g transform="translate(130.40625, 23)"><g transform="translate(0,0)"><text text-anchor="end" x="-13" y="-10" dominant-baseline="central" font-size="13" font-family="Arial">Protein length</text><g><g transform="translate(0,0)" fill="none" font-size="10" font-family="sans-serif" text-anchor="middle"><path class="domain" stroke="black" d="M0,-6V0H1260V-6" fill="none" stroke-width="1" shape-rendering="crispEdges"/><g class="tick" opacity="1" transform="translate(161.62303664921467,0)"><line stroke="black" y2="-6" shape-rendering="crispEdges"/><text fill="black" y="-9" dy="0em" font-family="Arial" font-size="12px" style="cursor: default;">50</text></g><g class="tick" opacity="1" transform="translate(326.5445026178011,0)"><line stroke="black" y2="-6" shape-rendering="crispEdges"/><text fill="black" y="-9" dy="0em" font-family="Arial" font-size="12px" style="cursor: default;">100</text></g><g class="tick" opacity="1" transform="translate(491.4659685863874,0)"><line stroke="black" y2="-6" shape-rendering="crispEdges"/><text fill="black" y="-9" dy="0em" font-family="Arial" font-size="12px" style="cursor: default;">150</text></g><g class="tick" opacity="1" transform="translate(656.3874345549739,0)"><line stroke="black" y2="-6" shape-rendering="crispEdges"/><text fill="black" y="-9" dy="0em" font-family="Arial" font-size="12px" style="cursor: default;">200</text></g><g class="tick" opacity="1" transform="translate(821.3089005235602,0)"><line stroke="black" y2="-6" shape-rendering="crispEdges"/><text fill="black" y="-9" dy="0em" font-family="Arial" font-size="12px" style="cursor: default;">250</text></g><g class="tick" opacity="1" transform="translate(986.2303664921466,0)"><line stroke="black" y2="-6" shape-rendering="crispEdges"/><text fill="black" y="-9" dy="0em" font-family="Arial" font-size="12px" style="cursor: default;">300</text></g><g class="tick" opacity="1" transform="translate(1151.151832460733,0)"><line stroke="black" y2="-6" shape-rendering="crispEdges"/><text fill="black" y="-9" dy="0em" font-family="Arial" font-size="12px" style="cursor: default;">350</text></g></g></g><rect fill="white" fill-opacity="0" x="0" y="-23" width="1260" height="26"/></g><g transform="translate(1260, 0)"/></g><g data-testid="sja_sample_menu_opener" transform="translate(0, 102)"><g transform="translate(1390.40625, 0)"/><g transform="translate(130.40625, 0)"><rect fill="white" fill-opacity="0" width="1260" height="184.692578125"/><g transform="translate(0,0)" style="cursor: default;"><g class="sja_skg" transform="translate(17, 51.79999923706055)"><g transform="translate(0, 7)" class="sja_aa_discg"><circle fill="#6633FF" stroke="white" r="6.5"/><text font-size="12" fill="#6633FF" x="8" y="3.5999999999999996" font-family="Arial" class="sja_aa_disclabel" fill-opacity="1" transform="scale(1) rotate(0)">c.16+1G&gt;C</text><circle r="6.5" stroke="#6633FF" class="sja_aa_disckick" fill="white" fill-opacity="0" stroke-opacity="0" transform="scale(1)"/><path d="M4.286263797015736e-16,-7L4.286263797015736e-16,-7Z" fill="#6633FF" class="sja_aa_discrim" fill-opacity="1" stroke-opacity="1"/></g><circle class="sja_aa_skkick" fill="white" fill-opacity="0" stroke="none" r="8" cy="7" transform="scale(0)"/><path class="sja_aa_stem" d="M0,0v-14l0.5916230366492137,-14v-23.799999999999997" stroke="#6633FF" fill="none"/></g><g class="sja_skg" transform="translate(275, 51.79999923706055)"><g transform="translate(0, 7)" class="sja_aa_discg"><circle fill="#db3d3d" stroke="white" r="6.5"/><text font-size="12" fill="#db3d3d" x="8" y="3.5999999999999996" font-family="Arial" class="sja_aa_disclabel" fill-opacity="1" transform="scale(1) rotate(0)">p.Met86AsnfsTer15</text><circle r="6.5" stroke="#db3d3d" class="sja_aa_disckick" fill="white" fill-opacity="0" stroke-opacity="0" transform="scale(1)"/><path d="M4.286263797015736e-16,-7L4.286263797015736e-16,-7Z" fill="#db3d3d" class="sja_aa_discrim" fill-opacity="1" stroke-opacity="1"/></g><circle class="sja_aa_skkick" fill="white" fill-opacity="0" stroke="none" r="8" cy="7" transform="scale(0)"/><path class="sja_aa_stem" d="M0,0v-14l0.41884816753923815,-14v-23.799999999999997" stroke="#db3d3d" fill="none"/></g><g class="sja_skg" transform="translate(663, 51.79999923706055)"><g transform="translate(0, 7)" class="sja_aa_discg"><circle fill="#3987CC" stroke="white" r="6.5"/><text font-size="12" fill="#3987CC" x="8" y="3.5999999999999996" font-family="Arial" class="sja_aa_disclabel" fill-opacity="1" transform="scale(1) rotate(0)">p.Leu202Phe</text><circle r="6.5" stroke="#3987CC" class="sja_aa_disckick" fill="white" fill-opacity="0" stroke-opacity="0" transform="scale(1)"/><path d="M4.286263797015736e-16,-7L4.286263797015736e-16,-7Z" fill="#3987CC" class="sja_aa_discrim" fill-opacity="1" stroke-opacity="1"/></g><circle class="sja_aa_skkick" fill="white" fill-opacity="0" stroke="none" r="8" cy="7" transform="scale(0)"/><path class="sja_aa_stem" d="M0,0v-14l0.5340314136125244,-14v-23.799999999999997" stroke="#3987CC" fill="none"/></g><g class="sja_skg" transform="translate(1038, 51.79999923706055)"><g transform="translate(0, 7)" class="sja_aa_discg"><circle fill="#3987CC" stroke="white" r="6.5"/><text font-size="12" fill="#3987CC" x="8" y="3.5999999999999996" font-family="Arial" class="sja_aa_disclabel" fill-opacity="1" transform="rotate(90)">p.AspArg315GluSer</text><circle r="6.5" stroke="#3987CC" class="sja_aa_disckick" fill="white" fill-opacity="0" stroke-opacity="0" transform="scale(1)"/><path d="M4.286263797015736e-16,-7L4.286263797015736e-16,-7Z" fill="#3987CC" class="sja_aa_discrim" fill-opacity="1" stroke-opacity="1"/></g><circle class="sja_aa_skkick" fill="white" fill-opacity="0" stroke="none" r="8" cy="7" transform="scale(0)"/><path class="sja_aa_stem" d="M0,0v-14l0.4554973821989279,-14v-23.799999999999997" stroke="#3987CC" fill="none"/></g><g class="sja_skg" transform="translate(1052, 51.79999923706055)"><g transform="translate(0, 7)" class="sja_aa_discg"><circle fill="#db3d3d" stroke="white" r="6.5"/><text font-size="12" fill="#db3d3d" x="8" y="3.5999999999999996" font-family="Arial" class="sja_aa_disclabel" fill-opacity="1" transform="scale(1) rotate(0)">p.Ser317GlufsTer15</text><circle r="6.5" stroke="#db3d3d" class="sja_aa_disckick" fill="white" fill-opacity="0" stroke-opacity="0" transform="scale(1)"/><path d="M4.286263797015736e-16,-7L4.286263797015736e-16,-7Z" fill="#db3d3d" class="sja_aa_discrim" fill-opacity="1" stroke-opacity="1"/></g><circle class="sja_aa_skkick" fill="white" fill-opacity="0" stroke="none" r="8" cy="7" transform="scale(0)"/><path class="sja_aa_stem" d="M0,0v-14l-10.246073298429337,-14v-23.799999999999997" stroke="#db3d3d" fill="none"/></g></g><g/><g transform="scale(0)"><rect fill="white" fill-opacity="0.5" width="1260" height="0"/><text data-testid="loading_message" fill="rgb(97, 124, 148)" fill-opacity="1" font-weight="bold" font-size="18px" text-anchor="middle" dominant-baseline="middle" x="630" y="15">Loading ...</text><line stroke="rgb(97, 124, 148)" stroke-width="2px" y1="30" y2="30" x2="0"/></g></g><g transform="translate(127.40625, 0)"><text font-size="14" font-family="Arial" y="7" text-anchor="end" dominant-baseline="central" fill="black" x="-10" font-weight="bold">GAMBL DLBCL</text><g/><text font-size="14" font-family="Arial" y="26" text-anchor="end" dominant-baseline="central" class="sja_clbtext2" fill="black" x="-10">5 of 10 mutations</text></g><g transform="translate(1400.40625, 0)"/></g><g data-testid="sja_sample_menu_opener" transform="translate(0, 310.69256591796875)"><g transform="translate(1390.40625, 0)"/><g transform="translate(130.40625, 0)"><rect fill="white" fill-opacity="0" width="1260" height="110.503125"/><g transform="translate(0,0)" style="cursor: default;"><g class="sja_skg" transform="translate(173.16754150390625, 23.799999237060547)"><g transform="translate(0, 7)" class="sja_aa_discg"><circle fill="#3987CC" stroke="white" r="6.5"/><text font-size="12" fill="#3987CC" x="8" y="3.5999999999999996" font-family="Arial" class="sja_aa_disclabel" fill-opacity="1" transform="scale(1) rotate(0)">p.Gln53Pro</text><circle r="6.5" stroke="#3987CC" class="sja_aa_disckick" fill="white" fill-opacity="0" stroke-opacity="0" transform="scale(1)"/><path d="M4.286263797015736e-16,-7L4.286263797015736e-16,-7Z" fill="#3987CC" class="sja_aa_discrim" fill-opacity="1" stroke-opacity="1"/></g><circle class="sja_aa_skkick" fill="white" fill-opacity="0" stroke="none" r="8" cy="7" transform="scale(0)"/><path class="sja_aa_stem" d="M0,0v0l0,0v-23.799999999999997" stroke="#3987CC" fill="none"/></g></g><g/><g transform="scale(0)"><rect fill="white" fill-opacity="0.5" width="1260" height="0"/><text data-testid="loading_message" fill="rgb(97, 124, 148)" fill-opacity="1" font-weight="bold" font-size="18px" text-anchor="middle" dominant-baseline="middle" x="630" y="15">Loading ...</text><line stroke="rgb(97, 124, 148)" stroke-width="2px" y1="30" y2="30" x2="0"/></g></g><g transform="translate(127.40625, 0)"><text font-size="14" font-family="Arial" y="7" text-anchor="end" dominant-baseline="central" fill="black" x="-10" font-weight="bold">GAMBL FL</text><g/><text font-size="14" font-family="Arial" y="26" text-anchor="end" dominant-baseline="central" class="sja_clbtext2" fill="black" x="-10">1 of 2 mutations</text></g><g transform="translate(1400.40625, 0)"/></g><g data-testid="sja_sample_menu_opener" transform="translate(0, 31)"><g transform="translate(1390.40625, 0)"/><g transform="translate(130.40625, 0)"><rect fill="white" fill-opacity="0" width="1260" height="24"/><g transform="translate(0,0)" style="cursor: default;"/><g/><g transform="scale(0)"><rect fill="white" fill-opacity="0.5" width="1260" height="0"/><text data-testid="loading_message" fill="rgb(97, 124, 148)" fill-opacity="1" font-weight="bold" font-size="18px" text-anchor="middle" dominant-baseline="middle" x="630" y="15">Loading ...</text><line stroke="rgb(97, 124, 148)" stroke-width="2px" y1="30" y2="30" x2="0"/></g></g><g transform="translate(127.40625, 0)"><text font-size="14" font-family="Arial" y="7" text-anchor="end" dominant-baseline="central" fill="black" x="-10" font-weight="bold">GAMBL BL</text><g/><text font-size="14" font-family="Arial" y="26" text-anchor="end" dominant-baseline="central" class="sja_clbtext2" fill="black" x="-10"/></g><g transform="translate(1400.40625, 0)"/></g><g data-testid="sja_sample_menu_opener" transform="translate(0, 286.69256591796875)"><g transform="translate(1390.40625, 0)"/><g transform="translate(130.40625, 0)"><rect fill="white" fill-opacity="0" width="1260" height="24"/><g transform="translate(0,0)" style="cursor: default;"/><g/><g transform="scale(0)"><rect fill="white" fill-opacity="0.5" width="1260" height="0"/><text data-testid="loading_message" fill="rgb(97, 124, 148)" fill-opacity="1" font-weight="bold" font-size="18px" text-anchor="middle" dominant-baseline="middle" x="630" y="15">Loading ...</text><line stroke="rgb(97, 124, 148)" stroke-width="2px" y1="30" y2="30" x2="0"/></g></g><g transform="translate(127.40625, 0)"><text font-size="14" font-family="Arial" y="7" text-anchor="end" dominant-baseline="central" fill="black" x="-10" font-weight="bold">GAMBL MCL</text><g/><text font-size="14" font-family="Arial" y="26" text-anchor="end" dominant-baseline="central" class="sja_clbtext2" fill="black" x="-10"/></g><g transform="translate(1400.40625, 0)"/></g><g data-testid="sja_sample_menu_opener" transform="translate(0, 55)"><g transform="translate(1390.40625, 0)"/><g transform="translate(130.40625, 0)"><rect fill="white" fill-opacity="0" width="1260" height="47"/><g transform="translate(0,0)" style="cursor: default;"><g><line x1="0" y1="18.5" x2="1260" y2="18.5" stroke="black" shape-rendering="crispEdges"/><rect x="0" width="17.591623036649214" height="37" fill="white"/><rect x="17.591623036649214" width="184.71204188481676" height="37" fill="white"/><rect x="19.790575916230367" width="161.62303664921464" height="37" fill="#fdb462"/><rect x="85.75916230366491" width="3.298429319371728" height="37" fill="#8dd3c7"/><rect x="92.35602094240836" width="3.298429319371728" height="37" fill="#bebada"/><rect x="26.387434554973822" width="3.298429319371728" height="37" fill="#8dd3c7"/><rect x="85.75916230366491" width="3.298429319371728" height="37" fill="#fb8072"/><rect x="36.282722513089" width="3.298429319371728" height="37" fill="#8dd3c7"/><rect x="36.282722513089" width="3.298429319371728" height="37" fill="#80b1d3"/><rect x="65.96858638743456" width="3.298429319371728" height="37" fill="#bebada"/><rect x="178.1151832460733" width="3.298429319371728" height="37" fill="#E8E89E"/><rect x="26.387434554973822" width="3.298429319371728" height="37" fill="#80b1d3"/><rect x="105.54973821989527" width="3.298429319371728" height="37" fill="#80b1d3"/><rect x="75.86387434554973" width="3.298429319371728" height="37" fill="#8dd3c7"/><rect x="148.42931937172776" width="3.298429319371728" height="37" fill="#fb8072"/><rect x="148.42931937172776" width="3.298429319371728" height="37" fill="#8dd3c7"/><rect x="75.86387434554973" width="3.298429319371728" height="37" fill="#fb8072"/><rect x="115.44502617801047" width="3.298429319371728" height="37" fill="#80b1d3"/><rect x="72.56544502617801" width="3.298429319371728" height="37" fill="#bebada"/><rect x="161.62303664921467" width="3.298429319371728" height="37" fill="#8dd3c7"/><rect x="118.74345549738219" width="3.298429319371728" height="37" fill="#E8E89E"/><rect x="98.95287958115182" width="3.298429319371728" height="37" fill="#bebada"/><rect x="69.26701570680628" width="3.298429319371728" height="37" fill="#E8E89E"/><rect x="161.62303664921467" width="3.298429319371728" height="37" fill="#fb8072"/><rect x="168.2198952879581" width="3.298429319371728" height="37" fill="#E8E89E"/><rect x="29.68586387434555" width="3.298429319371728" height="37" fill="#bebada"/><rect x="115.44502617801047" width="3.298429319371728" height="37" fill="#8dd3c7"/><rect x="105.54973821989527" width="3.298429319371728" height="37" fill="#8dd3c7"/><rect x="202.30366492146598" width="153.92670157068062" height="37" fill="white"/><rect x="250.6806282722513" width="105.54973821989529" height="37" fill="#a6d854"/><rect x="356.2303664921466" width="112.14659685863873" height="37" fill="white"/><rect x="356.2303664921466" width="92.35602094240838" height="37" fill="#a6d854"/><rect x="468.37696335078533" width="192.40837696335078" height="37" fill="white"/><rect x="660.7853403141361" width="311.151832460733" height="37" fill="white"/><rect x="971.937172774869" width="288.0628272251309" height="37" fill="white"/><line x1="0" x2="1260" stroke="black"/><line x1="0" x2="1260" y1="37" y2="37" stroke="black"/><line x1="0" x2="0" y2="37" stroke="black"/><line x1="1260" x2="1260" y2="37" stroke="black"/><line class="exonboundaryclass" x1="17.591623036649214" x2="17.591623036649214" y1="0" y2="37" stroke="black" stroke-dasharray="4,2" shape-rendering="crispEdges" stroke-opacity="1"/><line class="exonboundaryclass" x1="202.30366492146598" x2="202.30366492146598" y1="0" y2="37" stroke="black" stroke-dasharray="4,2" shape-rendering="crispEdges" stroke-opacity="1"/><line class="exonboundaryclass" x1="356.2303664921466" x2="356.2303664921466" y1="0" y2="37" stroke="black" stroke-dasharray="4,2" shape-rendering="crispEdges" stroke-opacity="1"/><line class="exonboundaryclass" x1="468.37696335078533" x2="468.37696335078533" y1="0" y2="37" stroke="black" stroke-dasharray="4,2" shape-rendering="crispEdges" stroke-opacity="1"/><line class="exonboundaryclass" x1="660.7853403141361" x2="660.7853403141361" y1="0" y2="37" stroke="black" stroke-dasharray="4,2" shape-rendering="crispEdges" stroke-opacity="1"/><line class="exonboundaryclass" x1="971.937172774869" x2="971.937172774869" y1="0" y2="37" stroke="black" stroke-dasharray="4,2" shape-rendering="crispEdges" stroke-opacity="1"/><g transform="translate(0,18.5)" fill="none" font-size="10" font-family="sans-serif" text-anchor="middle"><path class="domain" stroke="none" d="M1.649214659685864,0H1260" fill="none" stroke-width="0" shape-rendering="crispEdges"/><g class="tick" opacity="1" transform="translate(162.84031413612567,0)"><line stroke="black" y2="0" shape-rendering="crispEdges"/><text fill="black" y="3" dy="0.71em" font-family="Arial" font-size="11.666666666666666px" style="cursor: default;">50</text></g><g class="tick" opacity="1" transform="translate(326.86030968029405,0)"><line stroke="black" y2="0" shape-rendering="crispEdges"/><text fill="black" y="3" dy="0.71em" font-family="Arial" font-size="11.666666666666666px" style="cursor: default;">100</text></g><g class="tick" opacity="1" transform="translate(493.04883552987906,0)"><line stroke="black" y2="0" shape-rendering="crispEdges"/><text fill="black" y="3" dy="0.71em" font-family="Arial" font-size="11.666666666666666px" style="cursor: default;">150</text></g><g class="tick" opacity="1" transform="translate(657.4963892399348,0)"><line stroke="black" y2="0" shape-rendering="crispEdges"/><text fill="black" y="3" dy="0.71em" font-family="Arial" font-size="11.666666666666666px" style="cursor: default;">200</text></g><g class="tick" opacity="1" transform="translate(823.2446808510638,0)"><line stroke="black" y2="0" shape-rendering="crispEdges"/><text fill="black" y="3" dy="0.71em" font-family="Arial" font-size="11.666666666666666px" style="cursor: default;">250</text></g><g class="tick" opacity="1" transform="translate(987.7858757734413,0)"><line stroke="black" y2="0" shape-rendering="crispEdges"/><text fill="black" y="3" dy="0.71em" font-family="Arial" font-size="11.666666666666666px" style="cursor: default;">300</text></g><g class="tick" opacity="1" transform="translate(1151.7702879581152,0)"><line stroke="black" y2="0" shape-rendering="crispEdges"/><text fill="black" y="3" dy="0.71em" font-family="Arial" font-size="11.666666666666666px" style="cursor: default;">350</text></g></g><rect x="0" width="17.591623036649214" height="37" fill="#858585" fill-opacity="0"/><rect x="17.591623036649214" width="184.71204188481676" height="37" fill="#858585" fill-opacity="0"/><rect x="202.30366492146598" width="153.92670157068062" height="37" fill="#858585" fill-opacity="0"/><rect x="356.2303664921466" width="112.14659685863873" height="37" fill="#858585" fill-opacity="0"/><rect x="468.37696335078533" width="192.40837696335078" height="37" fill="#858585" fill-opacity="0"/><rect x="660.7853403141361" width="311.151832460733" height="37" fill="#858585" fill-opacity="0"/><rect x="971.937172774869" width="288.0628272251309" height="37" fill="#858585" fill-opacity="0"/></g></g><g/><g transform="scale(0)"><rect fill="white" fill-opacity="0"/><text data-testid="loading_message" fill="rgb(97, 124, 148)" fill-opacity="0" font-weight="bold" font-size="18px" text-anchor="middle" dominant-baseline="middle">Loading ...</text><line stroke="rgb(97, 124, 148)" stroke-width="2px"/></g></g><g transform="translate(127.40625, 0)"><text font-size="14" font-family="Arial" y="7" text-anchor="end" dominant-baseline="central" fill="black" x="-10" font-weight="bold">KCMF1</text><text font-size="14" font-family="Arial" y="20" text-anchor="end" dominant-baseline="central" fill="black" x="-10">NM_020122</text></g><g transform="translate(1400.40625, 0)"><text fill="#aaa" font-family="Arial" font-size="14" y="14" class="sja_clbtext2"/></g></g></g><g transform="scale(0)"><rect fill="white"/><text id="loadinggCloak" fill="rgb(97, 124, 148)" fill-opacity="0" font-weight="bold" font-size="18px" text-anchor="middle" dominant-baseline="middle">Loading ...</text></g><g/><g transform="translate(129.40625,436.195703125)"><g transform="translate(0,0)"><rect width="15" height="20" stroke="rgb(177, 126, 69)" fill="#fdb462" shape-rendering="crispEdges"/><text x="20" y="10" dominant-baseline="central" font-size="16" font-family="Arial" fill="black">ZZ_PCMF_like</text><text x="136.6796875" y="10" dominant-baseline="central" font-size="12" font-family="Arial" fill="#858585">Zinc finger, ZZ type. Zinc finger present in potassium channel modulat ...</text></g><g transform="translate(0,23)"><rect width="15" height="20" stroke="rgb(99, 148, 139)" fill="#8dd3c7" shape-rendering="crispEdges"/><text x="20" y="10" dominant-baseline="central" font-size="16" font-family="Arial" fill="black">other</text><text x="66.6875" y="10" dominant-baseline="central" font-size="12" font-family="Arial" fill="#858585">Zinc-binding sites [ion binding]</text></g><g transform="translate(0,46)"><rect width="15" height="20" stroke="rgb(90, 124, 148)" fill="#80b1d3" shape-rendering="crispEdges"/><text x="20" y="10" dominant-baseline="central" font-size="16" font-family="Arial" fill="black">other</text><text x="66.6875" y="10" dominant-baseline="central" font-size="12" font-family="Arial" fill="#858585">zinc cluster 1 [ion binding]</text></g><g transform="translate(0,69)"><rect width="15" height="20" stroke="rgb(133, 130, 153)" fill="#bebada" shape-rendering="crispEdges"/><text x="20" y="10" dominant-baseline="central" font-size="16" font-family="Arial" fill="black">other</text><text x="66.6875" y="10" dominant-baseline="central" font-size="12" font-family="Arial" fill="#858585">putative charged binding surface</text></g><g transform="translate(0,92)"><rect width="15" height="20" stroke="rgb(162, 162, 111)" fill="#E8E89E" shape-rendering="crispEdges"/><text x="20" y="10" dominant-baseline="central" font-size="16" font-family="Arial" fill="black">other</text><text x="66.6875" y="10" dominant-baseline="central" font-size="12" font-family="Arial" fill="#858585">putative hydrophobic binding surface</text></g><g transform="translate(0,115)"><rect width="15" height="20" stroke="rgb(176, 90, 80)" fill="#fb8072" shape-rendering="crispEdges"/><text x="20" y="10" dominant-baseline="central" font-size="16" font-family="Arial" fill="black">other</text><text x="66.6875" y="10" dominant-baseline="central" font-size="12" font-family="Arial" fill="#858585">zinc cluster 2 [ion binding]</text></g><g transform="translate(0,138)"><rect width="15" height="20" stroke="rgb(116, 151, 59)" fill="#a6d854" shape-rendering="crispEdges"/><text x="20" y="10" dominant-baseline="central" font-size="16" font-family="Arial" fill="black">zf-Di19</text><text x="80.6796875" y="10" dominant-baseline="central" font-size="12" font-family="Arial" fill="#858585">Drought induced 19 protein (Di19), zinc-binding</text></g></g><g transform="translate(1192.40625,436.195703125)"><g transform="translate(0,0)"><circle cx="10" cy="10" r="10" fill="#998199"/><text x="30" y="10" dominant-baseline="central" font-size="16" font-family="Arial" fill="#998199">UTR_3, n=15</text></g><g transform="translate(0,23)"><circle cx="10" cy="10" r="10" fill="#6633FF"/><text x="30" y="10" dominant-baseline="central" font-size="16" font-family="Arial" fill="#6633FF">SPLICE, n=1</text></g><g transform="translate(0,46)"><circle cx="10" cy="10" r="10" fill="#db3d3d"/><text x="30" y="10" dominant-baseline="central" font-size="16" font-family="Arial" fill="#db3d3d">FRAMESHIFT, n=2</text></g><g transform="translate(0,69)"><circle cx="10" cy="10" r="10" fill="#3987CC"/><text x="30" y="10" dominant-baseline="central" font-size="16" font-family="Arial" fill="#3987CC">MISSENSE, n=3</text></g></g></svg>