<svg xmlns="http://www.w3.org/2000/svg" data-testid="sjpp_block_svg" width="1275.9765625" height="687.4046875"><g transform="translate(0,0)"><g transform="translate(145.9765625, 0)"/><rect fill="#FFFF99" x="1158" width="0" height="532.4046875"/><g transform="translate(145.9765625, 23)"><g transform="translate(0,0)"><text text-anchor="end" x="-13" y="-10" dominant-baseline="central" font-size="13" font-family="Arial">Protein length</text><g><g transform="translate(0,0)" fill="none" font-size="10" font-family="sans-serif" text-anchor="middle"><path class="domain" stroke="black" d="M0,-6V0H1020V-6" fill="none" stroke-width="1" shape-rendering="crispEdges"/><g class="tick" opacity="1" transform="translate(81.53344208809135,0)"><line stroke="black" y2="-6" shape-rendering="crispEdges"/><text fill="black" y="-9" dy="0em" font-family="Arial" font-size="12px" style="cursor: default;">50</text></g><g class="tick" opacity="1" transform="translate(164.73083197389886,0)"><line stroke="black" y2="-6" shape-rendering="crispEdges"/><text fill="black" y="-9" dy="0em" font-family="Arial" font-size="12px" style="cursor: default;">100</text></g><g class="tick" opacity="1" transform="translate(247.92822185970638,0)"><line stroke="black" y2="-6" shape-rendering="crispEdges"/><text fill="black" y="-9" dy="0em" font-family="Arial" font-size="12px" style="cursor: default;">150</text></g><g class="tick" opacity="1" transform="translate(331.1256117455138,0)"><line stroke="black" y2="-6" shape-rendering="crispEdges"/><text fill="black" y="-9" dy="0em" font-family="Arial" font-size="12px" style="cursor: default;">200</text></g><g class="tick" opacity="1" transform="translate(414.3230016313214,0)"><line stroke="black" y2="-6" shape-rendering="crispEdges"/><text fill="black" y="-9" dy="0em" font-family="Arial" font-size="12px" style="cursor: default;">250</text></g><g class="tick" opacity="1" transform="translate(497.52039151712887,0)"><line stroke="black" y2="-6" shape-rendering="crispEdges"/><text fill="black" y="-9" dy="0em" font-family="Arial" font-size="12px" style="cursor: default;">300</text></g><g class="tick" opacity="1" transform="translate(580.7177814029363,0)"><line stroke="black" y2="-6" shape-rendering="crispEdges"/><text fill="black" y="-9" dy="0em" font-family="Arial" font-size="12px" style="cursor: default;">350</text></g><g class="tick" opacity="1" transform="translate(663.9151712887439,0)"><line stroke="black" y2="-6" shape-rendering="crispEdges"/><text fill="black" y="-9" dy="0em" font-family="Arial" font-size="12px" style="cursor: default;">400</text></g><g class="tick" opacity="1" transform="translate(747.1125611745514,0)"><line stroke="black" y2="-6" shape-rendering="crispEdges"/><text fill="black" y="-9" dy="0em" font-family="Arial" font-size="12px" style="cursor: default;">450</text></g><g class="tick" opacity="1" transform="translate(830.3099510603589,0)"><line stroke="black" y2="-6" shape-rendering="crispEdges"/><text fill="black" y="-9" dy="0em" font-family="Arial" font-size="12px" style="cursor: default;">500</text></g><g class="tick" opacity="1" transform="translate(913.5073409461664,0)"><line stroke="black" y2="-6" shape-rendering="crispEdges"/><text fill="black" y="-9" dy="0em" font-family="Arial" font-size="12px" style="cursor: default;">550</text></g><g class="tick" opacity="1" transform="translate(996.7047308319738,0)"><line stroke="black" y2="-6" shape-rendering="crispEdges"/><text fill="black" y="-9" dy="0em" font-family="Arial" font-size="12px" style="cursor: default;">600</text></g></g></g><rect fill="white" fill-opacity="0" x="0" y="-23" width="1020" height="26"/></g><g transform="translate(1020, 0)"/></g><g data-testid="sja_sample_menu_opener" transform="translate(0, 31)"><g transform="translate(1165.9765625, 0)"/><g transform="translate(145.9765625, 0)"><rect fill="white" fill-opacity="0" width="1020" height="173.046875"/><g transform="translate(0,0)" style="cursor: default;"><g class="sja_skg" transform="translate(174.43719482421875, 100.046875)"><g transform="translate(0, -7)" class="sja_aa_discg"><circle fill="#2ca02c" stroke="white" r="6.5"/><text font-size="12" fill="#2ca02c" x="8" y="3.5999999999999996" font-family="Arial" class="sja_aa_disclabel" fill-opacity="1" transform="rotate(-90)">c.315C&gt;T(p.=)</text><circle r="6.5" stroke="#2ca02c" class="sja_aa_disckick" fill="white" fill-opacity="0" stroke-opacity="0" transform="scale(1)"/><path d="M4.286263797015736e-16,-7L4.286263797015736e-16,-7Z" fill="#2ca02c" class="sja_aa_discrim" fill-opacity="1" stroke-opacity="1"/></g><circle class="sja_aa_skkick" fill="white" fill-opacity="0" stroke="none" r="8" cy="-7" transform="scale(0)"/><path class="sja_aa_stem" d="M0,0v14l0,25.200000000000003v23.799999999999997" stroke="#2ca02c" fill="none"/></g><g class="sja_skg" transform="translate(202.16966247558594, 100.046875)"><g transform="translate(0, -7)" class="sja_aa_discg"><circle fill="#3987CC" stroke="white" r="6.5"/><text font-size="12" fill="#3987CC" x="8" y="3.5999999999999996" font-family="Arial" class="sja_aa_disclabel" fill-opacity="1" transform="scale(1) rotate(0)">p.Asp122Val</text><circle r="6.5" stroke="#3987CC" class="sja_aa_disckick" fill="white" fill-opacity="0" stroke-opacity="0" transform="scale(1)"/><path d="M4.286263797015736e-16,-7L4.286263797015736e-16,-7Z" fill="#3987CC" class="sja_aa_discrim" fill-opacity="1" stroke-opacity="1"/></g><circle class="sja_aa_skkick" fill="white" fill-opacity="0" stroke="none" r="8" cy="-7" transform="scale(0)"/><path class="sja_aa_stem" d="M0,0v14l0,25.200000000000003v23.799999999999997" stroke="#3987CC" fill="none"/></g><g class="sja_skg" transform="translate(684.1598510742188, 100.046875)"><g transform="translate(0, -7)" class="sja_aa_discg"><circle fill="#3987CC" stroke="white" r="6.5"/><text font-size="12" fill="#3987CC" x="8" y="3.5999999999999996" font-family="Arial" class="sja_aa_disclabel" fill-opacity="1" transform="scale(1) rotate(0)">p.Tyr412His</text><circle r="6.5" stroke="#3987CC" class="sja_aa_disckick" fill="white" fill-opacity="0" stroke-opacity="0" transform="scale(1)"/><path d="M4.286263797015736e-16,-7L4.286263797015736e-16,-7Z" fill="#3987CC" class="sja_aa_discrim" fill-opacity="1" stroke-opacity="1"/></g><circle class="sja_aa_skkick" fill="white" fill-opacity="0" stroke="none" r="8" cy="-7" transform="scale(0)"/><path class="sja_aa_stem" d="M0,0v14l0,25.200000000000003v23.799999999999997" stroke="#3987CC" fill="none"/></g><g class="sja_skg" transform="translate(854.9918212890625, 100.046875)"><g transform="translate(0, -7)" class="sja_aa_discg"><circle fill="#2ca02c" stroke="white" r="6.5"/><text font-size="12" fill="#2ca02c" x="8" y="3.5999999999999996" font-family="Arial" class="sja_aa_disclabel" fill-opacity="1" transform="rotate(-90)">c.1542C&gt;T(p.=)</text><circle r="6.5" stroke="#2ca02c" class="sja_aa_disckick" fill="white" fill-opacity="0" stroke-opacity="0" transform="scale(1)"/><path d="M4.286263797015736e-16,-7L4.286263797015736e-16,-7Z" fill="#2ca02c" class="sja_aa_discrim" fill-opacity="1" stroke-opacity="1"/></g><circle class="sja_aa_skkick" fill="white" fill-opacity="0" stroke="none" r="8" cy="-7" transform="scale(0)"/><path class="sja_aa_stem" d="M0,0v14l0,25.200000000000003v23.799999999999997" stroke="#2ca02c" fill="none"/></g><g class="sja_skg" transform="translate(881.3377075195312, 100.046875)"><g transform="translate(0, -7)" class="sja_aa_discg"><circle fill="#9467bd" stroke="white" r="6.5"/><text font-size="12" fill="#9467bd" x="8" y="3.5999999999999996" font-family="Arial" class="sja_aa_disclabel" fill-opacity="1" transform="rotate(-90)">c.1589+6C&gt;T</text><circle r="6.5" stroke="#9467bd" class="sja_aa_disckick" fill="white" fill-opacity="0" stroke-opacity="0" transform="scale(1)"/><path d="M4.286263797015736e-16,-7L4.286263797015736e-16,-7Z" fill="#9467bd" class="sja_aa_discrim" fill-opacity="1" stroke-opacity="1"/></g><circle class="sja_aa_skkick" fill="white" fill-opacity="0" stroke="none" r="8" cy="-7" transform="scale(0)"/><path class="sja_aa_stem" d="M0,0v14l0,25.200000000000003v23.799999999999997" stroke="#9467bd" fill="none"/></g><g class="sja_skg" transform="translate(951.5007934570312, 100.046875)"><g transform="translate(0, -7)" class="sja_aa_discg"><circle fill="#2ca02c" stroke="white" r="6.5"/><text font-size="12" fill="#2ca02c" x="8" y="3.5999999999999996" font-family="Arial" class="sja_aa_disclabel" fill-opacity="1" transform="rotate(-90)">c.1716C&gt;T(p.=)</text><circle r="6.5" stroke="#2ca02c" class="sja_aa_disckick" fill="white" fill-opacity="0" stroke-opacity="0" transform="scale(1)"/><path d="M4.286263797015736e-16,-7L4.286263797015736e-16,-7Z" fill="#2ca02c" class="sja_aa_discrim" fill-opacity="1" stroke-opacity="1"/></g><circle class="sja_aa_skkick" fill="white" fill-opacity="0" stroke="none" r="8" cy="-7" transform="scale(0)"/><path class="sja_aa_stem" d="M0,0v14l0,25.200000000000003v23.799999999999997" stroke="#2ca02c" fill="none"/></g></g><g/><g transform="scale(0)"><rect fill="white" fill-opacity="0" width="1020" height="0"/><text data-testid="loading_message" fill="rgb(97, 124, 148)" fill-opacity="0" font-weight="bold" font-size="18px" text-anchor="middle" dominant-baseline="middle" x="510" y="15">Loading ...</text><line stroke="rgb(97, 124, 148)" stroke-width="2px" y1="30" y2="30" x2="0"/></g></g><g transform="translate(142.9765625, 0)"><text font-size="14" font-family="Arial" y="7" text-anchor="end" dominant-baseline="central" fill="black" x="-10" font-weight="bold">GAMBL DLBCL</text><g/><text font-size="14" font-family="Arial" y="26" text-anchor="end" dominant-baseline="central" class="sja_clbtext2" fill="black" x="-10">6 of 1896 mutations</text></g><g transform="translate(1175.9765625, 0)"/></g><g data-testid="sja_sample_menu_opener" transform="translate(0, 251.046875)"><g transform="translate(1165.9765625, 0)"/><g transform="translate(145.9765625, 0)"><rect fill="white" fill-opacity="0" width="1020" height="133.846875"/><g transform="translate(0,0)" style="cursor: default;"><g class="sja_skg" transform="translate(149.4779815673828, 23.799999237060547)"><g transform="translate(0, 7)" class="sja_aa_discg"><circle fill="#2ca02c" stroke="white" r="6.5"/><text font-size="12" fill="#2ca02c" x="8" y="3.5999999999999996" font-family="Arial" class="sja_aa_disclabel" fill-opacity="1" transform="scale(1) rotate(0)">c.270T&gt;G(p.=)</text><circle r="6.5" stroke="#2ca02c" class="sja_aa_disckick" fill="white" fill-opacity="0" stroke-opacity="0" transform="scale(1)"/><path d="M4.286263797015736e-16,-7L4.286263797015736e-16,-7Z" fill="#2ca02c" class="sja_aa_discrim" fill-opacity="1" stroke-opacity="1"/></g><circle class="sja_aa_skkick" fill="white" fill-opacity="0" stroke="none" r="8" cy="7" transform="scale(0)"/><path class="sja_aa_stem" d="M0,0v0l0,0v-23.799999999999997" stroke="#2ca02c" fill="none"/></g><g class="sja_skg" transform="translate(951.5007934570312, 23.799999237060547)"><g transform="translate(0, 7)" class="sja_aa_discg"><circle fill="#2ca02c" stroke="white" r="6.5"/><text font-size="12" fill="#2ca02c" x="8" y="3.5999999999999996" font-family="Arial" class="sja_aa_disclabel" fill-opacity="1" transform="rotate(90)">c.1716C&gt;T(p.=)</text><circle r="6.5" stroke="#2ca02c" class="sja_aa_disckick" fill="white" fill-opacity="0" stroke-opacity="0" transform="scale(1)"/><path d="M4.286263797015736e-16,-7L4.286263797015736e-16,-7Z" fill="#2ca02c" class="sja_aa_discrim" fill-opacity="1" stroke-opacity="1"/></g><circle class="sja_aa_skkick" fill="white" fill-opacity="0" stroke="none" r="8" cy="7" transform="scale(0)"/><path class="sja_aa_stem" d="M0,0v0l0,0v-23.799999999999997" stroke="#2ca02c" fill="none"/></g></g><g/><g transform="scale(0)"><rect fill="white" fill-opacity="0" width="1020" height="0"/><text data-testid="loading_message" fill="rgb(97, 124, 148)" fill-opacity="0" font-weight="bold" font-size="18px" text-anchor="middle" dominant-baseline="middle" x="510" y="15">Loading ...</text><line stroke="rgb(97, 124, 148)" stroke-width="2px" y1="30" y2="30" x2="0"/></g></g><g transform="translate(142.9765625, 0)"><text font-size="14" font-family="Arial" y="7" text-anchor="end" dominant-baseline="central" fill="black" x="-10" font-weight="bold">GAMBL FL</text><g/><text font-size="14" font-family="Arial" y="26" text-anchor="end" dominant-baseline="central" class="sja_clbtext2" fill="black" x="-10">2 of 591 mutations</text></g><g transform="translate(1175.9765625, 0)"/></g><g data-testid="sja_sample_menu_opener" transform="translate(0, 384.89373779296875)"><g transform="translate(1165.9765625, 0)"/><g transform="translate(145.9765625, 0)"><rect fill="white" fill-opacity="0" width="1020" height="128.5109375"/><g transform="translate(0,0)" style="cursor: default;"><g class="sja_skg" transform="translate(352.4796142578125, 23.799999237060547)"><g transform="translate(0, 7)" class="sja_aa_discg"><circle fill="#2ca02c" stroke="white" r="6.5"/><text font-size="12" fill="#2ca02c" x="8" y="3.5999999999999996" font-family="Arial" class="sja_aa_disclabel" fill-opacity="1" transform="scale(1) rotate(0)">c.636G&gt;A(p.=)</text><circle r="6.5" stroke="#2ca02c" class="sja_aa_disckick" fill="white" fill-opacity="0" stroke-opacity="0" transform="scale(1)"/><path d="M4.286263797015736e-16,-7L4.286263797015736e-16,-7Z" fill="#2ca02c" class="sja_aa_discrim" fill-opacity="1" stroke-opacity="1"/></g><circle class="sja_aa_skkick" fill="white" fill-opacity="0" stroke="none" r="8" cy="7" transform="scale(0)"/><path class="sja_aa_stem" d="M0,0v0l0,0v-23.799999999999997" stroke="#2ca02c" fill="none"/></g></g><g/><g transform="scale(0)"><rect fill="white" fill-opacity="0" width="1020" height="0"/><text data-testid="loading_message" fill="rgb(97, 124, 148)" fill-opacity="0" font-weight="bold" font-size="18px" text-anchor="middle" dominant-baseline="middle" x="510" y="15">Loading ...</text><line stroke="rgb(97, 124, 148)" stroke-width="2px" y1="30" y2="30" x2="0"/></g></g><g transform="translate(142.9765625, 0)"><text font-size="14" font-family="Arial" y="7" text-anchor="end" dominant-baseline="central" fill="black" x="-10" font-weight="bold">GAMBL BL</text><g/><text font-size="14" font-family="Arial" y="26" text-anchor="end" dominant-baseline="central" class="sja_clbtext2" fill="black" x="-10">1 of 1026 mutations</text></g><g transform="translate(1175.9765625, 0)"/></g><g data-testid="sja_sample_menu_opener" transform="translate(0, 513.4046630859375)"><g transform="translate(1165.9765625, 0)"/><g transform="translate(145.9765625, 0)"><rect fill="white" fill-opacity="0" width="1020" height="24"/><g transform="translate(0,0)" style="cursor: default;"><text x="510" text-anchor="middle" y="7" dominant-baseline="central" font-size="14px" font-family="Arial">GAMBL MCL: no mutation in undefined</text></g><g/><g transform="scale(0)"><rect fill="white" fill-opacity="0" width="1020" height="0"/><text data-testid="loading_message" fill="rgb(97, 124, 148)" fill-opacity="0" font-weight="bold" font-size="18px" text-anchor="middle" dominant-baseline="middle" x="510" y="15">Loading ...</text><line stroke="rgb(97, 124, 148)" stroke-width="2px" y1="30" y2="30" x2="0"/></g></g><g transform="translate(142.9765625, 0)"><text font-size="14" font-family="Arial" y="7" text-anchor="end" dominant-baseline="central" fill="black" x="-10" font-weight="bold">GAMBL MCL</text><g/><text font-size="14" font-family="Arial" y="26" text-anchor="end" dominant-baseline="central" class="sja_clbtext2" fill="black" x="-10"/></g><g transform="translate(1175.9765625, 0)"/></g><g data-testid="sja_sample_menu_opener" transform="translate(0, 204.046875)"><g transform="translate(1165.9765625, 0)"/><g transform="translate(145.9765625, 0)"><rect fill="white" fill-opacity="0" width="1020" height="47"/><g transform="translate(0,0)" style="cursor: default;"><g><line x1="0" y1="18.5" x2="1020" y2="18.5" stroke="black" shape-rendering="crispEdges"/><rect x="0" width="107.04730831973899" height="37" fill="white"/><rect x="29.9510603588907" width="77.09624796084829" height="37" fill="#fb8072"/><rect x="107.04730831973899" width="62.67536704730831" height="37" fill="white"/><rect x="107.04730831973899" width="62.67536704730831" height="37" fill="#fb8072"/><rect x="169.72267536704732" width="68.22185970636215" height="37" fill="white"/><rect x="169.72267536704732" width="68.22185970636215" height="37" fill="#fb8072"/><rect x="237.94453507340947" width="379.3800978792822" height="37" fill="white"/><rect x="237.94453507340947" width="379.3800978792822" height="37" fill="#fb8072"/><rect x="617.3246329526917" width="70.44045676998368" height="37" fill="white"/><rect x="617.3246329526917" width="28.28711256117455" height="37" fill="#fb8072"/><rect x="687.7650897226754" width="94.29037520391516" height="37" fill="white"/><rect x="690.5383360522023" width="89.8531810766721" height="37" fill="#E8E89E"/><rect x="695.5301794453508" width="1.6639477977161499" height="37" fill="#8dd3c7"/><rect x="772.0717781402936" width="1.6639477977161499" height="37" fill="#8dd3c7"/><rect x="777.0636215334421" width="1.6639477977161499" height="37" fill="#8dd3c7"/><rect x="737.1288743882545" width="1.6639477977161499" height="37" fill="#8dd3c7"/><rect x="742.120717781403" width="1.6639477977161499" height="37" fill="#8dd3c7"/><rect x="690.5383360522023" width="1.6639477977161499" height="37" fill="#8dd3c7"/><rect x="732.1370309951061" width="1.6639477977161499" height="37" fill="#8dd3c7"/><rect x="727.1451876019576" width="1.6639477977161499" height="37" fill="#8dd3c7"/><rect x="782.0554649265905" width="99.28221859706362" height="37" fill="white"/><rect x="790.3752039151713" width="88.18923327895595" height="37" fill="#bebada"/><rect x="838.6296900489396" width="1.6639477977161499" height="37" fill="#8dd3c7"/><rect x="833.6378466557911" width="1.6639477977161499" height="37" fill="#8dd3c7"/><rect x="875.2365415986949" width="1.6639477977161499" height="37" fill="#8dd3c7"/><rect x="828.6460032626427" width="1.6639477977161499" height="37" fill="#8dd3c7"/><rect x="870.2446982055465" width="1.6639477977161499" height="37" fill="#8dd3c7"/><rect x="823.6541598694943" width="1.6639477977161499" height="37" fill="#8dd3c7"/><rect x="790.3752039151713" width="1.6639477977161499" height="37" fill="#8dd3c7"/><rect x="795.3670473083197" width="1.6639477977161499" height="37" fill="#8dd3c7"/><rect x="881.3376835236542" width="67.11256117455139" height="37" fill="white"/><rect x="890.2120717781403" width="58.238172920065246" height="37" fill="#80b1d3"/><rect x="895.2039151712887" width="1.6639477977161499" height="37" fill="#8dd3c7"/><rect x="940.1305057096248" width="1.6639477977161499" height="37" fill="#8dd3c7"/><rect x="890.2120717781403" width="1.6639477977161499" height="37" fill="#8dd3c7"/><rect x="935.1386623164764" width="1.6639477977161499" height="37" fill="#8dd3c7"/><rect x="945.1223491027732" width="1.6639477977161499" height="37" fill="#8dd3c7"/><rect x="948.4502446982056" width="71.54975530179445" height="37" fill="white"/><rect x="948.4502446982056" width="51.58238172920065" height="37" fill="#80b1d3"/><rect x="985.0570962479609" width="1.6639477977161499" height="37" fill="#8dd3c7"/><rect x="950.1141924959217" width="1.6639477977161499" height="37" fill="#8dd3c7"/><rect x="990.0489396411093" width="1.6639477977161499" height="37" fill="#8dd3c7"/><line x1="0" x2="1020" stroke="black"/><line x1="0" x2="1020" y1="37" y2="37" stroke="black"/><line x1="0" x2="0" y2="37" stroke="black"/><line x1="1020" x2="1020" y2="37" stroke="black"/><line class="exonboundaryclass" x1="107.04730831973899" x2="107.04730831973899" y1="0" y2="37" stroke="black" stroke-dasharray="4,2" shape-rendering="crispEdges" stroke-opacity="1"/><line class="exonboundaryclass" x1="169.72267536704732" x2="169.72267536704732" y1="0" y2="37" stroke="black" stroke-dasharray="4,2" shape-rendering="crispEdges" stroke-opacity="1"/><line class="exonboundaryclass" x1="237.94453507340947" x2="237.94453507340947" y1="0" y2="37" stroke="black" stroke-dasharray="4,2" shape-rendering="crispEdges" stroke-opacity="1"/><line class="exonboundaryclass" x1="617.3246329526917" x2="617.3246329526917" y1="0" y2="37" stroke="black" stroke-dasharray="4,2" shape-rendering="crispEdges" stroke-opacity="1"/><line class="exonboundaryclass" x1="687.7650897226754" x2="687.7650897226754" y1="0" y2="37" stroke="black" stroke-dasharray="4,2" shape-rendering="crispEdges" stroke-opacity="1"/><line class="exonboundaryclass" x1="782.0554649265905" x2="782.0554649265905" y1="0" y2="37" stroke="black" stroke-dasharray="4,2" shape-rendering="crispEdges" stroke-opacity="1"/><line class="exonboundaryclass" x1="881.3376835236542" x2="881.3376835236542" y1="0" y2="37" stroke="black" stroke-dasharray="4,2" shape-rendering="crispEdges" stroke-opacity="1"/><line class="exonboundaryclass" x1="948.4502446982056" x2="948.4502446982056" y1="0" y2="37" stroke="black" stroke-dasharray="4,2" shape-rendering="crispEdges" stroke-opacity="1"/><g transform="translate(0,18.5)" fill="none" font-size="10" font-family="sans-serif" text-anchor="middle"><path class="domain" stroke="none" d="M0.8319738988580749,0H1020" fill="none" stroke-width="0" shape-rendering="crispEdges"/><g class="tick" opacity="1" transform="translate(82.15308931484503,0)"><line stroke="black" y2="0" shape-rendering="crispEdges"/><text fill="black" y="3" dy="0.71em" font-family="Arial" font-size="11.666666666666666px" style="cursor: default;">50</text></g><g class="tick" opacity="1" transform="translate(164.7965141238087,0)"><line stroke="black" y2="0" shape-rendering="crispEdges"/><text fill="black" y="3" dy="0.71em" font-family="Arial" font-size="11.666666666666666px" style="cursor: default;">100</text></g><g class="tick" opacity="1" transform="translate(248.73830170859452,0)"><line stroke="black" y2="0" shape-rendering="crispEdges"/><text fill="black" y="3" dy="0.71em" font-family="Arial" font-size="11.666666666666666px" style="cursor: default;">150</text></g><g class="tick" opacity="1" transform="translate(331.75324117798573,0)"><line stroke="black" y2="0" shape-rendering="crispEdges"/><text fill="black" y="3" dy="0.71em" font-family="Arial" font-size="11.666666666666666px" style="cursor: default;">200</text></g><g class="tick" opacity="1" transform="translate(414.76818064737705,0)"><line stroke="black" y2="0" shape-rendering="crispEdges"/><text fill="black" y="3" dy="0.71em" font-family="Arial" font-size="11.666666666666666px" style="cursor: default;">250</text></g><g class="tick" opacity="1" transform="translate(497.78312011676826,0)"><line stroke="black" y2="0" shape-rendering="crispEdges"/><text fill="black" y="3" dy="0.71em" font-family="Arial" font-size="11.666666666666666px" style="cursor: default;">300</text></g><g class="tick" opacity="1" transform="translate(580.7980595861595,0)"><line stroke="black" y2="0" shape-rendering="crispEdges"/><text fill="black" y="3" dy="0.71em" font-family="Arial" font-size="11.666666666666666px" style="cursor: default;">350</text></g><g class="tick" opacity="1" transform="translate(664.5622620989668,0)"><line stroke="black" y2="0" shape-rendering="crispEdges"/><text fill="black" y="3" dy="0.71em" font-family="Arial" font-size="11.666666666666666px" style="cursor: default;">400</text></g><g class="tick" opacity="1" transform="translate(747.4190778741307,0)"><line stroke="black" y2="0" shape-rendering="crispEdges"/><text fill="black" y="3" dy="0.71em" font-family="Arial" font-size="11.666666666666666px" style="cursor: default;">450</text></g><g class="tick" opacity="1" transform="translate(831.2782370669395,0)"><line stroke="black" y2="0" shape-rendering="crispEdges"/><text fill="black" y="3" dy="0.71em" font-family="Arial" font-size="11.666666666666666px" style="cursor: default;">500</text></g><g class="tick" opacity="1" transform="translate(913.9334739187523,0)"><line stroke="black" y2="0" shape-rendering="crispEdges"/><text fill="black" y="3" dy="0.71em" font-family="Arial" font-size="11.666666666666666px" style="cursor: default;">550</text></g><g class="tick" opacity="1" transform="translate(996.975606054858,0)"><line stroke="black" y2="0" shape-rendering="crispEdges"/><text fill="black" y="3" dy="0.71em" font-family="Arial" font-size="11.666666666666666px" style="cursor: default;">600</text></g></g><rect x="0" width="107.04730831973899" height="37" fill="#858585" fill-opacity="0"/><rect x="107.04730831973899" width="62.67536704730831" height="37" fill="#858585" fill-opacity="0"/><rect x="169.72267536704732" width="68.22185970636215" height="37" fill="#858585" fill-opacity="0"/><rect x="237.94453507340947" width="379.3800978792822" height="37" fill="#858585" fill-opacity="0"/><rect x="617.3246329526917" width="70.44045676998368" height="37" fill="#858585" fill-opacity="0"/><rect x="687.7650897226754" width="94.29037520391516" height="37" fill="#858585" fill-opacity="0"/><rect x="782.0554649265905" width="99.28221859706362" height="37" fill="#858585" fill-opacity="0"/><rect x="881.3376835236542" width="67.11256117455139" height="37" fill="#858585" fill-opacity="0"/><rect x="948.4502446982056" width="71.54975530179445" height="37" fill="#858585" fill-opacity="0"/></g></g><g/><g transform="scale(0)"><rect fill="white" fill-opacity="0"/><text data-testid="loading_message" fill="rgb(97, 124, 148)" fill-opacity="0" font-weight="bold" font-size="18px" text-anchor="middle" dominant-baseline="middle">Loading ...</text><line stroke="rgb(97, 124, 148)" stroke-width="2px"/></g></g><g transform="translate(142.9765625, 0)"><text font-size="14" font-family="Arial" y="7" text-anchor="end" dominant-baseline="central" fill="black" x="-10" font-weight="bold">LPP</text><text font-size="14" font-family="Arial" y="20" text-anchor="end" dominant-baseline="central" fill="black" x="-10">NM_005578</text></g><g transform="translate(1175.9765625, 0)"><text fill="#aaa" font-family="Arial" font-size="14" y="14" class="sja_clbtext2"/></g></g></g><g transform="scale(0)"><rect fill="white"/><text id="loadinggCloak" fill="rgb(97, 124, 148)" fill-opacity="0" font-weight="bold" font-size="18px" text-anchor="middle" dominant-baseline="middle">Loading ...</text></g><g/><g transform="translate(144.9765625,552.4046875)"><g transform="translate(0,0)"><rect width="15" height="20" stroke="rgb(176, 90, 80)" fill="#fb8072" shape-rendering="crispEdges"/><text x="20" y="10" dominant-baseline="central" font-size="16" font-family="Arial" fill="black">PHA03247</text><text x="107.390625" y="10" dominant-baseline="central" font-size="12" font-family="Arial" fill="#858585">large tegument protein UL36</text></g><g transform="translate(0,23)"><rect width="15" height="20" stroke="rgb(162, 162, 111)" fill="#E8E89E" shape-rendering="crispEdges"/><text x="20" y="10" dominant-baseline="central" font-size="16" font-family="Arial" fill="black">LIM1_TRIP6</text><text x="119.8125" y="10" dominant-baseline="central" font-size="12" font-family="Arial" fill="#858585">The first LIM domain of Thyroid receptor-interacting protein 6 (TRIP6)</text></g><g transform="translate(0,46)"><rect width="15" height="20" stroke="rgb(99, 148, 139)" fill="#8dd3c7" shape-rendering="crispEdges"/><text x="20" y="10" dominant-baseline="central" font-size="16" font-family="Arial" fill="black">other</text><text x="66.6875" y="10" dominant-baseline="central" font-size="12" font-family="Arial" fill="#858585">Zn binding site [ion binding]</text></g><g transform="translate(0,69)"><rect width="15" height="20" stroke="rgb(133, 130, 153)" fill="#bebada" shape-rendering="crispEdges"/><text x="20" y="10" dominant-baseline="central" font-size="16" font-family="Arial" fill="black">LIM2_TRIP6</text><text x="119.8125" y="10" dominant-baseline="central" font-size="12" font-family="Arial" fill="#858585">The second LIM domain of Thyroid receptor-interacting protein 6 (TRIP6)</text></g><g transform="translate(0,92)"><rect width="15" height="20" stroke="rgb(90, 124, 148)" fill="#80b1d3" shape-rendering="crispEdges"/><text x="20" y="10" dominant-baseline="central" font-size="16" font-family="Arial" fill="black">LIM3_TRIP6</text><text x="119.8125" y="10" dominant-baseline="central" font-size="12" font-family="Arial" fill="#858585">The third LIM domain of Thyroid receptor-interacting protein 6 (TRIP6)</text></g></g><g transform="translate(967.9765625,552.4046875)"><g transform="translate(0,0)"><circle cx="10" cy="10" r="10" fill="#2ca02c"/><text x="30" y="10" dominant-baseline="central" font-size="16" font-family="Arial" fill="#2ca02c">SILENT, n=6</text></g><g transform="translate(0,23)"><circle cx="10" cy="10" r="10" fill="#3987CC"/><text x="30" y="10" dominant-baseline="central" font-size="16" font-family="Arial" fill="#3987CC">MISSENSE, n=2</text></g><g transform="translate(0,46)"><circle cx="10" cy="10" r="10" fill="#9467bd"/><text x="30" y="10" dominant-baseline="central" font-size="16" font-family="Arial" fill="#9467bd">SPLICE_REGION, n=1</text></g><g transform="translate(0,69)"><circle cx="10" cy="10" r="10" fill="#998199"/><text x="30" y="10" dominant-baseline="central" font-size="16" font-family="Arial" fill="#998199">UTR_3, n=49</text></g><g transform="translate(0,92)"><circle cx="10" cy="10" r="10" fill="#819981"/><text x="30" y="10" dominant-baseline="central" font-size="16" font-family="Arial" fill="#819981">UTR_5, n=2</text></g></g></svg>