<svg xmlns="http://www.w3.org/2000/svg" data-testid="sjpp_block_svg" width="1275.3984375" height="646.7359375000001"><g transform="translate(0,0)"><g transform="translate(125.3984375, 0)"/><rect fill="#FFFF99" x="869" width="0" height="445.73593750000003"/><g transform="translate(125.3984375, 23)"><g transform="translate(0,0)"><text text-anchor="end" x="-13" y="-10" dominant-baseline="central" font-size="13" font-family="Arial">Protein length</text><g><g transform="translate(0,0)" fill="none" font-size="10" font-family="sans-serif" text-anchor="middle"><path class="domain" stroke="black" d="M0,-6V0H1040V-6" fill="none" stroke-width="1" shape-rendering="crispEdges"/><g class="tick" opacity="1" transform="translate(129.34010152284264,0)"><line stroke="black" y2="-6" shape-rendering="crispEdges"/><text fill="black" y="-9" dy="0em" font-family="Arial" font-size="12px" style="cursor: default;">50</text></g><g class="tick" opacity="1" transform="translate(261.3197969543147,0)"><line stroke="black" y2="-6" shape-rendering="crispEdges"/><text fill="black" y="-9" dy="0em" font-family="Arial" font-size="12px" style="cursor: default;">100</text></g><g class="tick" opacity="1" transform="translate(393.29949238578683,0)"><line stroke="black" y2="-6" shape-rendering="crispEdges"/><text fill="black" y="-9" dy="0em" font-family="Arial" font-size="12px" style="cursor: default;">150</text></g><g class="tick" opacity="1" transform="translate(525.2791878172588,0)"><line stroke="black" y2="-6" shape-rendering="crispEdges"/><text fill="black" y="-9" dy="0em" font-family="Arial" font-size="12px" style="cursor: default;">200</text></g><g class="tick" opacity="1" transform="translate(657.258883248731,0)"><line stroke="black" y2="-6" shape-rendering="crispEdges"/><text fill="black" y="-9" dy="0em" font-family="Arial" font-size="12px" style="cursor: default;">250</text></g><g class="tick" opacity="1" transform="translate(789.2385786802031,0)"><line stroke="black" y2="-6" shape-rendering="crispEdges"/><text fill="black" y="-9" dy="0em" font-family="Arial" font-size="12px" style="cursor: default;">300</text></g><g class="tick" opacity="1" transform="translate(921.2182741116752,0)"><line stroke="black" y2="-6" shape-rendering="crispEdges"/><text fill="black" y="-9" dy="0em" font-family="Arial" font-size="12px" style="cursor: default;">350</text></g></g></g><rect fill="white" fill-opacity="0" x="0" y="-23" width="1040" height="26"/></g><g transform="translate(1040, 0)"/></g><g data-testid="sja_sample_menu_opener" transform="translate(0, 221.8546905517578)"><g transform="translate(1165.3984375, 0)"/><g transform="translate(125.3984375, 0)"><rect fill="white" fill-opacity="0" width="1040" height="109.548046875"/><g transform="translate(0,0)" style="cursor: default;"><g class="sja_skg" transform="translate(149.13705444335938, 23.799999237060547)"><g transform="translate(0, 7)" class="sja_aa_discg"><circle fill="#3987CC" stroke="white" r="6.5"/><text font-size="12" fill="#3987CC" x="8" y="3.5999999999999996" font-family="Arial" class="sja_aa_disclabel" fill-opacity="1" transform="scale(1) rotate(0)">p.Lys57Thr</text><circle r="6.5" stroke="#3987CC" class="sja_aa_disckick" fill="white" fill-opacity="0" stroke-opacity="0" transform="scale(1)"/><path d="M4.286263797015736e-16,-7L4.286263797015736e-16,-7Z" fill="#3987CC" class="sja_aa_discrim" fill-opacity="1" stroke-opacity="1"/></g><circle class="sja_aa_skkick" fill="white" fill-opacity="0" stroke="none" r="8" cy="7" transform="scale(0)"/><path class="sja_aa_stem" d="M0,0v0l0,0v-23.799999999999997" stroke="#3987CC" fill="none"/></g></g><g/><g transform="scale(0)"><rect fill="white" fill-opacity="0" width="1040" height="0"/><text data-testid="loading_message" fill="rgb(97, 124, 148)" fill-opacity="0" font-weight="bold" font-size="18px" text-anchor="middle" dominant-baseline="middle" x="520" y="15">Loading ...</text><line stroke="rgb(97, 124, 148)" stroke-width="2px" y1="30" y2="30" x2="0"/></g></g><g transform="translate(122.3984375, 0)"><text font-size="14" font-family="Arial" y="7" text-anchor="end" dominant-baseline="central" fill="black" x="-10" font-weight="bold">GAMBL DLBCL</text><g/><text font-size="14" font-family="Arial" y="26" text-anchor="end" dominant-baseline="central" class="sja_clbtext2" fill="black" x="-10">1 of 4 mutations</text></g><g transform="translate(1175.3984375, 0)"/></g><g data-testid="sja_sample_menu_opener" transform="translate(0, 331.4027404785156)"><g transform="translate(1165.3984375, 0)"/><g transform="translate(125.3984375,0)"><rect fill="white" fill-opacity="0" width="1040" height="119.333203125"/><g transform="translate(0,0)" style="cursor: default;"><g class="sja_skg" transform="translate(317.1911926269531, 23.799999237060547)"><g transform="translate(0, 7)" class="sja_aa_discg"><circle fill="#3987CC" stroke="white" r="6.5"/><text font-size="12" fill="#3987CC" x="8" y="3.5999999999999996" font-family="Arial" class="sja_aa_disclabel" fill-opacity="1" transform="scale(1) rotate(0)">p.Cys121Ser</text><circle r="6.5" stroke="#3987CC" class="sja_aa_disckick" fill="white" fill-opacity="0" stroke-opacity="0" transform="scale(1)"/><path d="M4.286263797015736e-16,-7L4.286263797015736e-16,-7Z" fill="#3987CC" class="sja_aa_discrim" fill-opacity="1" stroke-opacity="1"/></g><circle class="sja_aa_skkick" fill="white" fill-opacity="0" stroke="none" r="8" cy="7" transform="scale(0)"/><path class="sja_aa_stem" d="M0,0v0l0,0v-23.799999999999997" stroke="#3987CC" fill="none"/></g></g><g/><g transform="scale(0)"><rect fill="white" fill-opacity="0" width="1040" height="0"/><text data-testid="loading_message" fill="rgb(97, 124, 148)" fill-opacity="0" font-weight="bold" font-size="18px" text-anchor="middle" dominant-baseline="middle" x="520" y="15">Loading ...</text><line stroke="rgb(97, 124, 148)" stroke-width="2px" y1="30" y2="30" x2="0"/></g></g><g transform="translate(122.3984375,0)"><text font-size="14" font-family="Arial" y="7" text-anchor="end" dominant-baseline="central" fill="black" x="-10" font-weight="bold">GAMBL FL</text><g/><text font-size="14" font-family="Arial" y="26" text-anchor="end" dominant-baseline="central" class="sja_clbtext2" fill="black" x="-10">1 of 3 mutations</text></g><g transform="translate(1175.3984375,0)"/></g><g data-testid="sja_sample_menu_opener" transform="translate(0, 102)"><g transform="translate(1165.3984375, 0)"/><g transform="translate(125.3984375,0)"><rect fill="white" fill-opacity="0" width="1040" height="119.8546875"/><g transform="translate(0,0)" style="cursor: default;"><g class="sja_skg" transform="translate(137.69882202148438, 23.799999237060547)"><g transform="translate(0, 7)" class="sja_aa_discg"><circle fill="#3987CC" stroke="white" r="6.5"/><text font-size="12" fill="#3987CC" x="8" y="3.5999999999999996" font-family="Arial" class="sja_aa_disclabel" fill-opacity="1" transform="scale(1) rotate(0)">p.Phe53Leu</text><circle r="6.5" stroke="#3987CC" class="sja_aa_disckick" fill="white" fill-opacity="0" stroke-opacity="0" transform="scale(1)"/><path d="M4.286263797015736e-16,-7L4.286263797015736e-16,-7Z" fill="#3987CC" class="sja_aa_discrim" fill-opacity="1" stroke-opacity="1"/></g><circle class="sja_aa_skkick" fill="white" fill-opacity="0" stroke="none" r="8" cy="7" transform="scale(0)"/><path class="sja_aa_stem" d="M0,0v0l0,0v-23.799999999999997" stroke="#3987CC" fill="none"/></g><g class="sja_skg" transform="translate(604.9069213867188, 23.799999237060547)"><g transform="translate(0, 7)" class="sja_aa_discg"><circle fill="#3987CC" stroke="white" r="6.5"/><text font-size="12" fill="#3987CC" x="8" y="3.5999999999999996" font-family="Arial" class="sja_aa_disclabel" fill-opacity="1" transform="scale(1) rotate(0)">p.Met230Leu</text><circle r="6.5" stroke="#3987CC" class="sja_aa_disckick" fill="white" fill-opacity="0" stroke-opacity="0" transform="scale(1)"/><path d="M4.286263797015736e-16,-7L4.286263797015736e-16,-7Z" fill="#3987CC" class="sja_aa_discrim" fill-opacity="1" stroke-opacity="1"/></g><circle class="sja_aa_skkick" fill="white" fill-opacity="0" stroke="none" r="8" cy="7" transform="scale(0)"/><path class="sja_aa_stem" d="M0,0v0l0,0v-23.799999999999997" stroke="#3987CC" fill="none"/></g></g><g/><g transform="scale(0)"><rect fill="white" fill-opacity="0" width="1040" height="0"/><text data-testid="loading_message" fill="rgb(97, 124, 148)" fill-opacity="0" font-weight="bold" font-size="18px" text-anchor="middle" dominant-baseline="middle" x="520" y="15">Loading ...</text><line stroke="rgb(97, 124, 148)" stroke-width="2px" y1="30" y2="30" x2="0"/></g></g><g transform="translate(122.3984375,0)"><text font-size="14" font-family="Arial" y="7" text-anchor="end" dominant-baseline="central" fill="black" x="-10" font-weight="bold">GAMBL BL</text><g/><text font-size="14" font-family="Arial" y="26" text-anchor="end" dominant-baseline="central" class="sja_clbtext2" fill="black" x="-10">2 of 4 mutations</text></g><g transform="translate(1175.3984375,0)"/></g><g data-testid="sja_sample_menu_opener" transform="translate(0, 31)"><g transform="translate(1165.3984375, 0)"/><g transform="translate(125.3984375,0)"><rect fill="white" fill-opacity="0" width="1040" height="24"/><g transform="translate(0,0)" style="cursor: default;"/><g/><g transform="scale(0)"><rect fill="white" fill-opacity="0" width="1040" height="0"/><text data-testid="loading_message" fill="rgb(97, 124, 148)" fill-opacity="0" font-weight="bold" font-size="18px" text-anchor="middle" dominant-baseline="middle" x="520" y="15">Loading ...</text><line stroke="rgb(97, 124, 148)" stroke-width="2px" y1="30" y2="30" x2="0"/></g></g><g transform="translate(122.3984375,0)"><text font-size="14" font-family="Arial" y="7" text-anchor="end" dominant-baseline="central" fill="black" x="-10" font-weight="bold">GAMBL MCL</text><g/><text font-size="14" font-family="Arial" y="26" text-anchor="end" dominant-baseline="central" class="sja_clbtext2" fill="black" x="-10"/></g><g transform="translate(1175.3984375,0)"/></g><g data-testid="sja_sample_menu_opener" transform="translate(0, 55)"><g transform="translate(1165.3984375, 0)"/><g transform="translate(125.3984375,0)"><rect fill="white" fill-opacity="0" width="1040" height="47"/><g transform="translate(0,0)" style="cursor: default;"><g><line x1="0" y1="18.5" x2="1040" y2="18.5" stroke="black" shape-rendering="crispEdges"/><rect x="0" width="70.38917089678512" height="37" fill="white"/><rect x="70.38917089678512" width="185.65143824027075" height="37" fill="white"/><rect x="161.01522842639594" width="95.0253807106599" height="37" fill="#fdb462"/><rect x="192.69035532994926" width="13.19796954314721" height="37" fill="#8dd3c7"/><rect x="200.60913705583758" width="5.279187817258883" height="37" fill="#bebada"/><rect x="200.60913705583758" width="5.279187817258883" height="37" fill="#80b1d3"/><rect x="253.40101522842642" width="2.6395939086294415" height="37" fill="#8dd3c7"/><rect x="248.12182741116752" width="2.6395939086294415" height="37" fill="#8dd3c7"/><rect x="211.16751269035535" width="2.6395939086294415" height="37" fill="#E8E89E"/><rect x="253.40101522842642" width="2.6395939086294415" height="37" fill="#80b1d3"/><rect x="208.5279187817259" width="2.6395939086294415" height="37" fill="#8dd3c7"/><rect x="213.80710659898477" width="2.6395939086294415" height="37" fill="#8dd3c7"/><rect x="256.04060913705587" width="129.34010152284264" height="37" fill="white"/><rect x="256.04060913705587" width="129.34010152284264" height="37" fill="#fdb462"/><rect x="374.82233502538077" width="10.558375634517766" height="37" fill="#8dd3c7"/><rect x="263.9593908629442" width="5.279187817258883" height="37" fill="#E8E89E"/><rect x="332.5888324873097" width="2.6395939086294415" height="37" fill="#80b1d3"/><rect x="332.5888324873097" width="2.6395939086294415" height="37" fill="#8dd3c7"/><rect x="308.8324873096447" width="2.6395939086294415" height="37" fill="#80b1d3"/><rect x="300.9137055837564" width="2.6395939086294415" height="37" fill="#80b1d3"/><rect x="358.9847715736041" width="2.6395939086294415" height="37" fill="#E8E89E"/><rect x="369.54314720812187" width="2.6395939086294415" height="37" fill="#80b1d3"/><rect x="374.82233502538077" width="2.6395939086294415" height="37" fill="#80b1d3"/><rect x="385.3807106598985" width="68.62944162436548" height="37" fill="white"/><rect x="385.3807106598985" width="68.62944162436548" height="37" fill="#fdb462"/><rect x="390.6598984771574" width="5.279187817258883" height="37" fill="#8dd3c7"/><rect x="398.57868020304574" width="5.279187817258883" height="37" fill="#8dd3c7"/><rect x="454.010152284264" width="45.752961082910325" height="37" fill="white"/><rect x="454.010152284264" width="45.752961082910325" height="37" fill="#fdb462"/><rect x="498.8832487309645" width="1" height="37" fill="#bebada"/><rect x="499.7631133671743" width="109.98307952622675" height="37" fill="white"/><rect x="499.7631133671743" width="109.98307952622675" height="37" fill="#fdb462"/><rect x="543.756345177665" width="58.07106598984772" height="37" fill="#a6d854"/><rect x="580.7106598984772" width="15.837563451776651" height="37" fill="#fb8072"/><rect x="585.989847715736" width="10.558375634517766" height="37" fill="#bebada"/><rect x="504.16243654822335" width="7.9187817258883255" height="37" fill="#bebada"/><rect x="509.44162436548226" width="5.279187817258883" height="37" fill="#8dd3c7"/><rect x="546.3959390862944" width="5.279187817258883" height="37" fill="#80b1d3"/><rect x="564.8730964467005" width="5.279187817258883" height="37" fill="#80b1d3"/><rect x="554.3147208121827" width="5.279187817258883" height="37" fill="#80b1d3"/><rect x="599.1878172588832" width="2.6395939086294415" height="37" fill="#fb8072"/><rect x="504.16243654822335" width="2.6395939086294415" height="37" fill="#8dd3c7"/><rect x="554.3147208121827" width="2.6395939086294415" height="37" fill="#bebada"/><rect x="499.7631133671743" width="1.7597292724196278" height="37" fill="#bebada"/><rect x="546.3959390862944" width="2.6395939086294415" height="37" fill="#8dd3c7"/><rect x="575.4314720812183" width="2.6395939086294415" height="37" fill="#80b1d3"/><rect x="517.3604060913706" width="2.6395939086294415" height="37" fill="#8dd3c7"/><rect x="599.1878172588832" width="2.6395939086294415" height="37" fill="#bebada"/><rect x="604.4670050761422" width="2.6395939086294415" height="37" fill="#fb8072"/><rect x="604.4670050761422" width="2.6395939086294415" height="37" fill="#E8E89E"/><rect x="609.746192893401" width="177.7326565143824" height="37" fill="white"/><rect x="609.746192893401" width="177.7326565143824" height="37" fill="#fdb462"/><rect x="615.0253807106599" width="10.558375634517766" height="37" fill="#fb8072"/><rect x="615.0253807106599" width="10.558375634517766" height="37" fill="#E8E89E"/><rect x="670.4568527918782" width="2.6395939086294415" height="37" fill="#bebada"/><rect x="694.2131979695432" width="2.6395939086294415" height="37" fill="#bebada"/><rect x="787.4788494077834" width="57.19120135363791" height="37" fill="white"/><rect x="787.4788494077834" width="57.19120135363791" height="37" fill="#fdb462"/><rect x="812.994923857868" width="7.9187817258883255" height="37" fill="#fb8072"/><rect x="826.1928934010152" width="5.279187817258883" height="37" fill="#fb8072"/><rect x="836.751269035533" width="5.279187817258883" height="37" fill="#E8E89E"/><rect x="826.1928934010152" width="5.279187817258883" height="37" fill="#E8E89E"/><rect x="818.2741116751268" width="2.6395939086294415" height="37" fill="#E8E89E"/><rect x="836.751269035533" width="2.6395939086294415" height="37" fill="#fb8072"/><rect x="844.6700507614213" width="54.551607445008464" height="37" fill="white"/><rect x="844.6700507614213" width="54.551607445008464" height="37" fill="#fdb462"/><rect x="899.2216582064298" width="40.47377326565144" height="37" fill="white"/><rect x="899.2216582064298" width="40.47377326565144" height="37" fill="#fdb462"/><rect x="939.6954314720812" width="100.30456852791879" height="37" fill="white"/><rect x="939.6954314720812" width="63.350253807106604" height="37" fill="#fdb462"/><line x1="0" x2="1040" stroke="black"/><line x1="0" x2="1040" y1="37" y2="37" stroke="black"/><line x1="0" x2="0" y2="37" stroke="black"/><line x1="1040" x2="1040" y2="37" stroke="black"/><line class="exonboundaryclass" x1="70.38917089678512" x2="70.38917089678512" y1="0" y2="37" stroke="black" stroke-dasharray="4,2" shape-rendering="crispEdges" stroke-opacity="1"/><line class="exonboundaryclass" x1="256.04060913705587" x2="256.04060913705587" y1="0" y2="37" stroke="black" stroke-dasharray="4,2" shape-rendering="crispEdges" stroke-opacity="1"/><line class="exonboundaryclass" x1="385.3807106598985" x2="385.3807106598985" y1="0" y2="37" stroke="black" stroke-dasharray="4,2" shape-rendering="crispEdges" stroke-opacity="1"/><line class="exonboundaryclass" x1="454.010152284264" x2="454.010152284264" y1="0" y2="37" stroke="black" stroke-dasharray="4,2" shape-rendering="crispEdges" stroke-opacity="1"/><line class="exonboundaryclass" x1="499.7631133671743" x2="499.7631133671743" y1="0" y2="37" stroke="black" stroke-dasharray="4,2" shape-rendering="crispEdges" stroke-opacity="1"/><line class="exonboundaryclass" x1="609.746192893401" x2="609.746192893401" y1="0" y2="37" stroke="black" stroke-dasharray="4,2" shape-rendering="crispEdges" stroke-opacity="1"/><line class="exonboundaryclass" x1="787.4788494077834" x2="787.4788494077834" y1="0" y2="37" stroke="black" stroke-dasharray="4,2" shape-rendering="crispEdges" stroke-opacity="1"/><line class="exonboundaryclass" x1="844.6700507614213" x2="844.6700507614213" y1="0" y2="37" stroke="black" stroke-dasharray="4,2" shape-rendering="crispEdges" stroke-opacity="1"/><line class="exonboundaryclass" x1="899.2216582064298" x2="899.2216582064298" y1="0" y2="37" stroke="black" stroke-dasharray="4,2" shape-rendering="crispEdges" stroke-opacity="1"/><line class="exonboundaryclass" x1="939.6954314720812" x2="939.6954314720812" y1="0" y2="37" stroke="black" stroke-dasharray="4,2" shape-rendering="crispEdges" stroke-opacity="1"/><g transform="translate(0,18.5)" fill="none" font-size="10" font-family="sans-serif" text-anchor="middle"><path class="domain" stroke="none" d="M1.3197969543147208,0H1040" fill="none" stroke-width="0" shape-rendering="crispEdges"/><g class="tick" opacity="1" transform="translate(130.2323586187174,0)"><line stroke="black" y2="0" shape-rendering="crispEdges"/><text fill="black" y="3" dy="0.71em" font-family="Arial" font-size="11.666666666666666px" style="cursor: default;">50</text></g><g class="tick" opacity="1" transform="translate(262.585724645188,0)"><line stroke="black" y2="0" shape-rendering="crispEdges"/><text fill="black" y="3" dy="0.71em" font-family="Arial" font-size="11.666666666666666px" style="cursor: default;">100</text></g><g class="tick" opacity="1" transform="translate(394.46700507614213,0)"><line stroke="black" y2="0" shape-rendering="crispEdges"/><text fill="black" y="3" dy="0.71em" font-family="Arial" font-size="11.666666666666666px" style="cursor: default;">150</text></g><g class="tick" opacity="1" transform="translate(526.2847474014986,0)"><line stroke="black" y2="0" shape-rendering="crispEdges"/><text fill="black" y="3" dy="0.71em" font-family="Arial" font-size="11.666666666666666px" style="cursor: default;">200</text></g><g class="tick" opacity="1" transform="translate(658.4604894310175,0)"><line stroke="black" y2="0" shape-rendering="crispEdges"/><text fill="black" y="3" dy="0.71em" font-family="Arial" font-size="11.666666666666666px" style="cursor: default;">250</text></g><g class="tick" opacity="1" transform="translate(790.498384863867,0)"><line stroke="black" y2="0" shape-rendering="crispEdges"/><text fill="black" y="3" dy="0.71em" font-family="Arial" font-size="11.666666666666666px" style="cursor: default;">300</text></g><g class="tick" opacity="1" transform="translate(921.7956852791879,0)"><line stroke="black" y2="0" shape-rendering="crispEdges"/><text fill="black" y="3" dy="0.71em" font-family="Arial" font-size="11.666666666666666px" style="cursor: default;">350</text></g></g><rect x="0" width="70.38917089678512" height="37" fill="#858585" fill-opacity="0"/><rect x="70.38917089678512" width="185.65143824027075" height="37" fill="#858585" fill-opacity="0"/><rect x="256.04060913705587" width="129.34010152284264" height="37" fill="#858585" fill-opacity="0"/><rect x="385.3807106598985" width="68.62944162436548" height="37" fill="#858585" fill-opacity="0"/><rect x="454.010152284264" width="45.752961082910325" height="37" fill="#858585" fill-opacity="0"/><rect x="499.7631133671743" width="109.98307952622675" height="37" fill="#858585" fill-opacity="0"/><rect x="609.746192893401" width="177.7326565143824" height="37" fill="#858585" fill-opacity="0"/><rect x="787.4788494077834" width="57.19120135363791" height="37" fill="#858585" fill-opacity="0"/><rect x="844.6700507614213" width="54.551607445008464" height="37" fill="#858585" fill-opacity="0"/><rect x="899.2216582064298" width="40.47377326565144" height="37" fill="#858585" fill-opacity="0"/><rect x="939.6954314720812" width="100.30456852791879" height="37" fill="#858585" fill-opacity="0"/></g></g><g/><g transform="scale(0)"><rect fill="white" fill-opacity="0"/><text data-testid="loading_message" fill="rgb(97, 124, 148)" fill-opacity="0" font-weight="bold" font-size="18px" text-anchor="middle" dominant-baseline="middle">Loading ...</text><line stroke="rgb(97, 124, 148)" stroke-width="2px"/></g></g><g transform="translate(122.3984375,0)"><text font-size="14" font-family="Arial" y="7" text-anchor="end" dominant-baseline="central" fill="black" x="-10" font-weight="bold">MAP2K1</text><text font-size="14" font-family="Arial" y="20" text-anchor="end" dominant-baseline="central" fill="black" x="-10">NM_002755</text></g><g transform="translate(1175.3984375,0)"><text fill="#aaa" font-family="Arial" font-size="14" y="14" class="sja_clbtext2"/></g></g></g><g transform="scale(0)"><rect fill="white"/><text id="loadinggCloak" fill="rgb(97, 124, 148)" fill-opacity="0" font-weight="bold" font-size="18px" text-anchor="middle" dominant-baseline="middle">Loading ...</text></g><g/><g transform="translate(124.3984375,465.73593750000003)"><g transform="translate(0,0)"><rect width="15" height="20" stroke="rgb(177, 126, 69)" fill="#fdb462" shape-rendering="crispEdges"/><text x="20" y="10" dominant-baseline="central" font-size="16" font-family="Arial" fill="black">PKc_MEK1</text><text x="111.8125" y="10" dominant-baseline="central" font-size="12" font-family="Arial" fill="#858585">Catalytic domain of the dual-specificity Protein Kinase, Mitogen-Activ ...</text></g><g transform="translate(0,23)"><rect width="15" height="20" stroke="rgb(99, 148, 139)" fill="#8dd3c7" shape-rendering="crispEdges"/><text x="20" y="10" dominant-baseline="central" font-size="16" font-family="Arial" fill="black">other</text><text x="66.6875" y="10" dominant-baseline="central" font-size="12" font-family="Arial" fill="#858585">ATP binding site [chemical binding]</text></g><g transform="translate(0,46)"><rect width="15" height="20" stroke="rgb(133, 130, 153)" fill="#bebada" shape-rendering="crispEdges"/><text x="20" y="10" dominant-baseline="central" font-size="16" font-family="Arial" fill="black">other</text><text x="66.6875" y="10" dominant-baseline="central" font-size="12" font-family="Arial" fill="#858585">polypeptide substrate binding site [polypeptide binding]</text></g><g transform="translate(0,69)"><rect width="15" height="20" stroke="rgb(90, 124, 148)" fill="#80b1d3" shape-rendering="crispEdges"/><text x="20" y="10" dominant-baseline="central" font-size="16" font-family="Arial" fill="black">other</text><text x="66.6875" y="10" dominant-baseline="central" font-size="12" font-family="Arial" fill="#858585">noncompetitive inhibitor binding site [chemical binding]</text></g><g transform="translate(0,92)"><rect width="15" height="20" stroke="rgb(162, 162, 111)" fill="#E8E89E" shape-rendering="crispEdges"/><text x="20" y="10" dominant-baseline="central" font-size="16" font-family="Arial" fill="black">other</text><text x="66.6875" y="10" dominant-baseline="central" font-size="12" font-family="Arial" fill="#858585">homodimer interface [polypeptide binding]</text></g><g transform="translate(0,115)"><rect width="15" height="20" stroke="rgb(116, 151, 59)" fill="#a6d854" shape-rendering="crispEdges"/><text x="20" y="10" dominant-baseline="central" font-size="16" font-family="Arial" fill="black">other</text><text x="66.6875" y="10" dominant-baseline="central" font-size="12" font-family="Arial" fill="#858585">activation loop (A-loop)</text></g><g transform="translate(0,138)"><rect width="15" height="20" stroke="rgb(176, 90, 80)" fill="#fb8072" shape-rendering="crispEdges"/><text x="20" y="10" dominant-baseline="central" font-size="16" font-family="Arial" fill="black">other</text><text x="66.6875" y="10" dominant-baseline="central" font-size="12" font-family="Arial" fill="#858585">KSR interface [polypeptide binding]</text></g></g><g transform="translate(967.3984375,465.73593750000003)"><g transform="translate(0,0)"><circle cx="10" cy="10" r="10" fill="#819981"/><text x="30" y="10" dominant-baseline="central" font-size="16" font-family="Arial" fill="#819981">UTR_5, n=2</text></g><g transform="translate(0,23)"><circle cx="10" cy="10" r="10" fill="#3987CC"/><text x="30" y="10" dominant-baseline="central" font-size="16" font-family="Arial" fill="#3987CC">MISSENSE, n=4</text></g><g transform="translate(0,46)"><circle cx="10" cy="10" r="10" fill="#998199"/><text x="30" y="10" dominant-baseline="central" font-size="16" font-family="Arial" fill="#998199">UTR_3, n=6</text></g></g></svg>