<svg xmlns="http://www.w3.org/2000/svg" data-testid="sjpp_block_svg" width="1495.3984375" height="771.64375"><g transform="translate(0,0)"><g transform="translate(125.3984375, 0)"/><rect fill="#FFFF99" x="1303" width="0" height="593.64375"/><g transform="translate(125.3984375, 23)"><g transform="translate(0,0)"><text text-anchor="end" x="-13" y="-10" dominant-baseline="central" font-size="13" font-family="Arial">Protein length</text><g><g transform="translate(0,0)" fill="none" font-size="10" font-family="sans-serif" text-anchor="middle"><path class="domain" stroke="black" d="M0,-6V0H1260V-6" fill="none" stroke-width="1" shape-rendering="crispEdges"/><g class="tick" opacity="1" transform="translate(96.77269200930954,0)"><line stroke="black" y2="-6" shape-rendering="crispEdges"/><text fill="black" y="-9" dy="0em" font-family="Arial" font-size="12px" style="cursor: default;">100</text></g><g class="tick" opacity="1" transform="translate(194.52288595810705,0)"><line stroke="black" y2="-6" shape-rendering="crispEdges"/><text fill="black" y="-9" dy="0em" font-family="Arial" font-size="12px" style="cursor: default;">200</text></g><g class="tick" opacity="1" transform="translate(292.27307990690457,0)"><line stroke="black" y2="-6" shape-rendering="crispEdges"/><text fill="black" y="-9" dy="0em" font-family="Arial" font-size="12px" style="cursor: default;">300</text></g><g class="tick" opacity="1" transform="translate(390.0232738557021,0)"><line stroke="black" y2="-6" shape-rendering="crispEdges"/><text fill="black" y="-9" dy="0em" font-family="Arial" font-size="12px" style="cursor: default;">400</text></g><g class="tick" opacity="1" transform="translate(487.7734678044996,0)"><line stroke="black" y2="-6" shape-rendering="crispEdges"/><text fill="black" y="-9" dy="0em" font-family="Arial" font-size="12px" style="cursor: default;">500</text></g><g class="tick" opacity="1" transform="translate(585.5236617532971,0)"><line stroke="black" y2="-6" shape-rendering="crispEdges"/><text fill="black" y="-9" dy="0em" font-family="Arial" font-size="12px" style="cursor: default;">600</text></g><g class="tick" opacity="1" transform="translate(683.2738557020947,0)"><line stroke="black" y2="-6" shape-rendering="crispEdges"/><text fill="black" y="-9" dy="0em" font-family="Arial" font-size="12px" style="cursor: default;">700</text></g><g class="tick" opacity="1" transform="translate(781.0240496508922,0)"><line stroke="black" y2="-6" shape-rendering="crispEdges"/><text fill="black" y="-9" dy="0em" font-family="Arial" font-size="12px" style="cursor: default;">800</text></g><g class="tick" opacity="1" transform="translate(878.7742435996896,0)"><line stroke="black" y2="-6" shape-rendering="crispEdges"/><text fill="black" y="-9" dy="0em" font-family="Arial" font-size="12px" style="cursor: default;">900</text></g><g class="tick" opacity="1" transform="translate(976.5244375484873,0)"><line stroke="black" y2="-6" shape-rendering="crispEdges"/><text fill="black" y="-9" dy="0em" font-family="Arial" font-size="12px" style="cursor: default;">1000</text></g><g class="tick" opacity="1" transform="translate(1074.2746314972846,0)"><line stroke="black" y2="-6" shape-rendering="crispEdges"/><text fill="black" y="-9" dy="0em" font-family="Arial" font-size="12px" style="cursor: default;">1100</text></g><g class="tick" opacity="1" transform="translate(1172.024825446082,0)"><line stroke="black" y2="-6" shape-rendering="crispEdges"/><text fill="black" y="-9" dy="0em" font-family="Arial" font-size="12px" style="cursor: default;">1200</text></g></g></g><rect fill="white" fill-opacity="0" x="0" y="-23" width="1260" height="26"/></g><g transform="translate(1260, 0)"/></g><g data-testid="sja_sample_menu_opener" transform="translate(0, 196.5265655517578)"><g transform="translate(1385.3984375, 0)"/><g transform="translate(125.3984375, 0)"><rect fill="white" fill-opacity="0" width="1260" height="116.6671875"/><g transform="translate(0,0)" style="cursor: default;"><g class="sja_skg" transform="translate(693.2117919921875, 23.799999237060547)"><g transform="translate(0, 7)" class="sja_aa_discg"><circle fill="#3987CC" stroke="white" r="6.5"/><text font-size="12" fill="#3987CC" x="8" y="3.5999999999999996" font-family="Arial" class="sja_aa_disclabel" fill-opacity="1" transform="scale(1) rotate(0)">p.Gly710Ser</text><circle r="6.5" stroke="#3987CC" class="sja_aa_disckick" fill="white" fill-opacity="0" stroke-opacity="0" transform="scale(1)"/><path d="M4.286263797015736e-16,-7L4.286263797015736e-16,-7Z" fill="#3987CC" class="sja_aa_discrim" fill-opacity="1" stroke-opacity="1"/></g><circle class="sja_aa_skkick" fill="white" fill-opacity="0" stroke="none" r="8" cy="7" transform="scale(0)"/><path class="sja_aa_stem" d="M0,0v0l0,0v-23.799999999999997" stroke="#3987CC" fill="none"/></g></g><g/><g transform="scale(0)"><rect fill="white" fill-opacity="0.5" width="1260" height="0"/><text data-testid="loading_message" fill="rgb(97, 124, 148)" fill-opacity="1" font-weight="bold" font-size="18px" text-anchor="middle" dominant-baseline="middle" x="630" y="15">Loading ...</text><line stroke="rgb(97, 124, 148)" stroke-width="2px" y1="30" y2="30" x2="0"/></g></g><g transform="translate(122.3984375, 0)"><text font-size="14" font-family="Arial" y="7" text-anchor="end" dominant-baseline="central" fill="black" x="-10" font-weight="bold">GAMBL DLBCL</text><g/><text font-size="14" font-family="Arial" y="26" text-anchor="end" dominant-baseline="central" class="sja_clbtext2" fill="black" x="-10">1 mutation</text></g><g transform="translate(1395.3984375, 0)"/></g><g data-testid="sja_sample_menu_opener" transform="translate(0, 313.1937561035156)"><g transform="translate(1385.3984375, 0)"/><g transform="translate(125.3984375,0)"><rect fill="white" fill-opacity="0" width="1260" height="116.6671875"/><g transform="translate(0,0)" style="cursor: default;"><g class="sja_skg" transform="translate(693.2117919921875, 23.799999237060547)"><g transform="translate(0, 7)" class="sja_aa_discg"><circle fill="#3987CC" stroke="white" r="6.5"/><text font-size="12" fill="#3987CC" x="8" y="3.5999999999999996" font-family="Arial" class="sja_aa_disclabel" fill-opacity="1" transform="scale(1) rotate(0)">p.Gly710Ser</text><circle r="6.5" stroke="#3987CC" class="sja_aa_disckick" fill="white" fill-opacity="0" stroke-opacity="0" transform="scale(1)"/><path d="M4.286263797015736e-16,-7L4.286263797015736e-16,-7Z" fill="#3987CC" class="sja_aa_discrim" fill-opacity="1" stroke-opacity="1"/></g><circle class="sja_aa_skkick" fill="white" fill-opacity="0" stroke="none" r="8" cy="7" transform="scale(0)"/><path class="sja_aa_stem" d="M0,0v0l0,0v-23.799999999999997" stroke="#3987CC" fill="none"/></g></g><g/><g transform="scale(0)"><rect fill="white" fill-opacity="0.5" width="1260" height="0"/><text data-testid="loading_message" fill="rgb(97, 124, 148)" fill-opacity="1" font-weight="bold" font-size="18px" text-anchor="middle" dominant-baseline="middle" x="630" y="15">Loading ...</text><line stroke="rgb(97, 124, 148)" stroke-width="2px" y1="30" y2="30" x2="0"/></g></g><g transform="translate(122.3984375,0)"><text font-size="14" font-family="Arial" y="7" text-anchor="end" dominant-baseline="central" fill="black" x="-10" font-weight="bold">GAMBL FL</text><g/><text font-size="14" font-family="Arial" y="26" text-anchor="end" dominant-baseline="central" class="sja_clbtext2" fill="black" x="-10">1 mutation</text></g><g transform="translate(1395.3984375,0)"/></g><g data-testid="sja_sample_menu_opener" transform="translate(0, 429.8609313964844)"><g transform="translate(1385.3984375, 0)"/><g transform="translate(125.3984375,0)"><rect fill="white" fill-opacity="0" width="1260" height="168.78281249999998"/><g transform="translate(0,0)" style="cursor: default;"><g class="sja_skg" transform="translate(48.06051254272461, 57.400001525878906)"><g transform="translate(0, 7)" class="sja_aa_discg"><circle fill="#3987CC" stroke="white" r="6.5"/><text font-size="12" fill="#3987CC" x="8" y="3.5999999999999996" font-family="Arial" class="sja_aa_disclabel" fill-opacity="1" transform="scale(1) rotate(0)">p.Val50Leu</text><circle r="6.5" stroke="#3987CC" class="sja_aa_disckick" fill="white" fill-opacity="0" stroke-opacity="0" transform="scale(1)"/><path d="M4.286263797015736e-16,-7L4.286263797015736e-16,-7Z" fill="#3987CC" class="sja_aa_discrim" fill-opacity="1" stroke-opacity="1"/></g><circle class="sja_aa_skkick" fill="white" fill-opacity="0" stroke="none" r="8" cy="7" transform="scale(0)"/><path class="sja_aa_stem" d="M0,0v-14l0,-19.6v-23.799999999999997" stroke="#3987CC" fill="none"/></g><g class="sja_skg" transform="translate(567.7656860351562, 57.400001525878906)"><g transform="translate(0, 7)" class="sja_aa_discg"><circle fill="#2ca02c" stroke="white" r="6.5"/><text font-size="12" fill="#2ca02c" x="8" y="3.5999999999999996" font-family="Arial" class="sja_aa_disclabel" fill-opacity="1" transform="rotate(90)">c.1743A&gt;G(p.=)</text><circle r="6.5" stroke="#2ca02c" class="sja_aa_disckick" fill="white" fill-opacity="0" stroke-opacity="0" transform="scale(1)"/><path d="M4.286263797015736e-16,-7L4.286263797015736e-16,-7Z" fill="#2ca02c" class="sja_aa_discrim" fill-opacity="1" stroke-opacity="1"/></g><circle class="sja_aa_skkick" fill="white" fill-opacity="0" stroke="none" r="8" cy="7" transform="scale(0)"/><path class="sja_aa_stem" d="M0,0v-14l0,-19.6v-23.799999999999997" stroke="#2ca02c" fill="none"/></g><g class="sja_skg" transform="translate(614.0341186523438, 57.400001525878906)"><g transform="translate(0, 7)" class="sja_aa_discg"><circle fill="#3987CC" stroke="white" r="6.5"/><text font-size="12" fill="#3987CC" x="8" y="3.5999999999999996" font-family="Arial" class="sja_aa_disclabel" fill-opacity="1" transform="scale(1) rotate(0)">p.Ala629Thr</text><circle r="6.5" stroke="#3987CC" class="sja_aa_disckick" fill="white" fill-opacity="0" stroke-opacity="0" transform="scale(1)"/><path d="M4.286263797015736e-16,-7L4.286263797015736e-16,-7Z" fill="#3987CC" class="sja_aa_discrim" fill-opacity="1" stroke-opacity="1"/></g><circle class="sja_aa_skkick" fill="white" fill-opacity="0" stroke="none" r="8" cy="7" transform="scale(0)"/><path class="sja_aa_stem" d="M0,0v-14l0,-19.6v-23.799999999999997" stroke="#3987CC" fill="none"/></g><g class="sja_skg" transform="translate(852.8704223632812, 57.400001525878906)"><g transform="translate(0, 7)" class="sja_aa_discg"><circle fill="#3987CC" stroke="white" r="6.5"/><text font-size="12" fill="#3987CC" x="8" y="3.5999999999999996" font-family="Arial" class="sja_aa_disclabel" fill-opacity="1" transform="rotate(90)">p.Ser873Ile</text><circle r="6.5" stroke="#3987CC" class="sja_aa_disckick" fill="white" fill-opacity="0" stroke-opacity="0" transform="scale(1)"/><path d="M4.286263797015736e-16,-7L4.286263797015736e-16,-7Z" fill="#3987CC" class="sja_aa_discrim" fill-opacity="1" stroke-opacity="1"/></g><circle class="sja_aa_skkick" fill="white" fill-opacity="0" stroke="none" r="8" cy="7" transform="scale(0)"/><path class="sja_aa_stem" d="M0,0v-14l0,-19.6v-23.799999999999997" stroke="#3987CC" fill="none"/></g><g class="sja_skg" transform="translate(867.2071533203125, 57.400001525878906)"><g transform="translate(0, 7)" class="sja_aa_discg"><circle fill="#3987CC" stroke="white" r="6.5"/><text font-size="12" fill="#3987CC" x="8" y="3.5999999999999996" font-family="Arial" class="sja_aa_disclabel" fill-opacity="1" transform="scale(1) rotate(0)">p.Glu888Lys</text><circle r="6.5" stroke="#3987CC" class="sja_aa_disckick" fill="white" fill-opacity="0" stroke-opacity="0" transform="scale(1)"/><path d="M4.286263797015736e-16,-7L4.286263797015736e-16,-7Z" fill="#3987CC" class="sja_aa_discrim" fill-opacity="1" stroke-opacity="1"/></g><circle class="sja_aa_skkick" fill="white" fill-opacity="0" stroke="none" r="8" cy="7" transform="scale(0)"/><path class="sja_aa_stem" d="M0,0v-14l0,-19.6v-23.799999999999997" stroke="#3987CC" fill="none"/></g><g class="sja_skg" transform="translate(1122.00927734375, 57.400001525878906)"><g transform="translate(0, 7)" class="sja_aa_discg"><circle fill="#2ca02c" stroke="white" r="6.5"/><text font-size="12" fill="#2ca02c" x="8" y="3.5999999999999996" font-family="Arial" class="sja_aa_disclabel" fill-opacity="1" transform="scale(1) rotate(0)">c.3444G&gt;A(p.=)</text><circle r="6.5" stroke="#2ca02c" class="sja_aa_disckick" fill="white" fill-opacity="0" stroke-opacity="0" transform="scale(1)"/><path d="M4.286263797015736e-16,-7L4.286263797015736e-16,-7Z" fill="#2ca02c" class="sja_aa_discrim" fill-opacity="1" stroke-opacity="1"/></g><circle class="sja_aa_skkick" fill="white" fill-opacity="0" stroke="none" r="8" cy="7" transform="scale(0)"/><path class="sja_aa_stem" d="M0,0v-14l0,-19.6v-23.799999999999997" stroke="#2ca02c" fill="none"/></g></g><g/><g transform="scale(0)"><rect fill="white" fill-opacity="0.5" width="1260" height="0"/><text data-testid="loading_message" fill="rgb(97, 124, 148)" fill-opacity="1" font-weight="bold" font-size="18px" text-anchor="middle" dominant-baseline="middle" x="630" y="15">Loading ...</text><line stroke="rgb(97, 124, 148)" stroke-width="2px" y1="30" y2="30" x2="0"/></g></g><g transform="translate(122.3984375,0)"><text font-size="14" font-family="Arial" y="7" text-anchor="end" dominant-baseline="central" fill="black" x="-10" font-weight="bold">GAMBL BL</text><g/><text font-size="14" font-family="Arial" y="26" text-anchor="end" dominant-baseline="central" class="sja_clbtext2" fill="black" x="-10">6 mutations</text></g><g transform="translate(1395.3984375,0)"/></g><g data-testid="sja_sample_menu_opener" transform="translate(0, 31)"><g transform="translate(1385.3984375, 0)"/><g transform="translate(125.3984375,0)"><rect fill="white" fill-opacity="0" width="1260" height="118.5265625"/><g transform="translate(0,0)" style="cursor: default;"><g class="sja_skg" transform="translate(283.9643249511719, 84.7265625)"><g transform="translate(0, -7)" class="sja_aa_discg"><circle fill="#3987CC" stroke="white" r="6.5"/><text font-size="12" fill="#3987CC" x="8" y="3.5999999999999996" font-family="Arial" class="sja_aa_disclabel" fill-opacity="1" transform="scale(1) rotate(0)">p.Ser291Leu</text><circle r="6.5" stroke="#3987CC" class="sja_aa_disckick" fill="white" fill-opacity="0" stroke-opacity="0" transform="scale(1)"/><path d="M4.286263797015736e-16,-7L4.286263797015736e-16,-7Z" fill="#3987CC" class="sja_aa_discrim" fill-opacity="1" stroke-opacity="1"/></g><circle class="sja_aa_skkick" fill="white" fill-opacity="0" stroke="none" r="8" cy="-7" transform="scale(0)"/><path class="sja_aa_stem" d="M0,0v0l0,0v23.799999999999997" stroke="#3987CC" fill="none"/></g></g><g/><g transform="scale(0)"><rect fill="white" fill-opacity="0.5" width="1260" height="0"/><text data-testid="loading_message" fill="rgb(97, 124, 148)" fill-opacity="1" font-weight="bold" font-size="18px" text-anchor="middle" dominant-baseline="middle" x="630" y="15">Loading ...</text><line stroke="rgb(97, 124, 148)" stroke-width="2px" y1="30" y2="30" x2="0"/></g></g><g transform="translate(122.3984375,0)"><text font-size="14" font-family="Arial" y="7" text-anchor="end" dominant-baseline="central" fill="black" x="-10" font-weight="bold">GAMBL MCL</text><g/><text font-size="14" font-family="Arial" y="26" text-anchor="end" dominant-baseline="central" class="sja_clbtext2" fill="black" x="-10">1 mutation</text></g><g transform="translate(1395.3984375,0)"/></g><g data-testid="sja_sample_menu_opener" transform="translate(0, 149.5265655517578)"><g transform="translate(1385.3984375, 0)"/><g transform="translate(125.3984375,0)"><rect fill="white" fill-opacity="0" width="1260" height="47"/><g transform="translate(0,0)" style="cursor: default;"><g><line x1="0" y1="18.5" x2="1259.9999999999998" y2="18.5" stroke="black" shape-rendering="crispEdges"/><rect x="0" width="110.78355314197051" height="37" fill="white"/><rect x="110.78355314197051" width="45.61675717610551" height="37" fill="white"/><rect x="125.12024825446082" width="31.280062063615205" height="37" fill="#80b1d3"/><rect x="156.40031031807604" width="7.820015515903801" height="37" fill="white"/><rect x="156.40031031807604" width="7.820015515903801" height="37" fill="#80b1d3"/><rect x="164.22032583397984" width="62.23429014740108" height="37" fill="white"/><rect x="164.22032583397984" width="62.23429014740108" height="37" fill="#80b1d3"/><rect x="226.45461598138093" width="55.06594259115593" height="37" fill="white"/><rect x="226.45461598138093" width="55.06594259115593" height="37" fill="#80b1d3"/><rect x="281.52055857253686" width="34.86423584173778" height="37" fill="white"/><rect x="281.52055857253686" width="34.86423584173778" height="37" fill="#80b1d3"/><rect x="316.38479441427467" width="55.717610550814584" height="37" fill="white"/><rect x="316.38479441427467" width="55.717610550814584" height="37" fill="#80b1d3"/><rect x="372.10240496508925" width="36.81923972071373" height="37" fill="white"/><rect x="372.10240496508925" width="36.81923972071373" height="37" fill="#80b1d3"/><rect x="408.92164468580296" width="52.13343677269201" height="37" fill="white"/><rect x="408.92164468580296" width="52.13343677269201" height="37" fill="#80b1d3"/><rect x="461.05508145849495" width="53.11093871217998" height="37" fill="white"/><rect x="461.05508145849495" width="33.56089992242048" height="37" fill="#80b1d3"/><rect x="514.166020170675" width="35.19006982156711" height="37" fill="white"/><rect x="549.3560899922421" width="16.29169899146625" height="37" fill="white"/><rect x="565.6477889837083" width="31.280062063615205" height="37" fill="white"/><rect x="596.9278510473235" width="28.673390224980604" height="37" fill="white"/><rect x="623.6462373933282" width="1.9550038789759503" height="37" fill="#a6d854"/><rect x="625.6012412723042" width="43.66175329712956" height="37" fill="white"/><rect x="625.6012412723042" width="43.66175329712956" height="37" fill="#a6d854"/><rect x="637.3312645461599" width="31.931730023273854" height="37" fill="#fb8072"/><rect x="638.3087664856479" width="4.887509697439876" height="37" fill="#bebada"/><rect x="641.2412723041117" width="1.9550038789759503" height="37" fill="#8dd3c7"/><rect x="646.1287820015516" width="1" height="37" fill="#bebada"/><rect x="660.7913110938713" width="1" height="37" fill="#bebada"/><rect x="658.8363072148953" width="1" height="37" fill="#bebada"/><rect x="669.2629945694337" width="41.706749418153606" height="37" fill="white"/><rect x="669.2629945694337" width="41.706749418153606" height="37" fill="#a6d854"/><rect x="669.2629945694337" width="41.706749418153606" height="37" fill="#fb8072"/><rect x="704.7788983708301" width="3.9100077579519006" height="37" fill="#bebada"/><rect x="709.66640806827" width="1.3033359193173002" height="37" fill="#bebada"/><rect x="689.1388673390225" width="1" height="37" fill="#bebada"/><rect x="710.9697439875872" width="44.63925523661753" height="37" fill="white"/><rect x="710.9697439875872" width="44.63925523661753" height="37" fill="#a6d854"/><rect x="710.9697439875872" width="44.63925523661753" height="37" fill="#fb8072"/><rect x="754.6314972847167" width="1" height="37" fill="#8dd3c7"/><rect x="710.9697439875872" width="1.6291698991466252" height="37" fill="#bebada"/><rect x="752.6764934057408" width="1" height="37" fill="#8dd3c7"/><rect x="714.5539177657098" width="1" height="37" fill="#bebada"/><rect x="755.6089992242047" width="34.538401861908454" height="37" fill="white"/><rect x="755.6089992242047" width="34.538401861908454" height="37" fill="#a6d854"/><rect x="755.6089992242047" width="34.538401861908454" height="37" fill="#fb8072"/><rect x="770.2715283165243" width="19.875872769588828" height="37" fill="#E8E89E"/><rect x="787.8665632273079" width="2.2808378588052753" height="37" fill="#8dd3c7"/><rect x="770.2715283165243" width="2.9325058184639254" height="37" fill="#bebada"/><rect x="755.6089992242047" width="1.9550038789759503" height="37" fill="#8dd3c7"/><rect x="756.5865011636927" width="1.9550038789759503" height="37" fill="#bebada"/><rect x="774.1815360744762" width="1" height="37" fill="#8dd3c7"/><rect x="759.5190069821566" width="1" height="37" fill="#bebada"/><rect x="790.1474010861132" width="51.481768813033355" height="37" fill="white"/><rect x="790.1474010861132" width="51.481768813033355" height="37" fill="#a6d854"/><rect x="790.1474010861132" width="51.481768813033355" height="37" fill="#fb8072"/><rect x="790.1474010861132" width="3.5841737781225755" height="37" fill="#E8E89E"/><rect x="790.1474010861132" width="1.6291698991466252" height="37" fill="#8dd3c7"/><rect x="821.1016291698991" width="1" height="37" fill="#8dd3c7"/><rect x="792.7540729247478" width="1" height="37" fill="#8dd3c7"/><rect x="829.8991466252909" width="1" height="37" fill="#8dd3c7"/><rect x="841.6291698991465" width="62.885958107059736" height="37" fill="white"/><rect x="841.6291698991465" width="43.987587276958884" height="37" fill="#a6d854"/><rect x="841.6291698991465" width="43.987587276958884" height="37" fill="#fb8072"/><rect x="904.5151280062063" width="45.29092319627618" height="37" fill="white"/><rect x="949.8060512024824" width="54.08844065166796" height="37" fill="white"/><rect x="1003.8944918541504" width="57.672614429790535" height="37" fill="white"/><rect x="1061.5671062839408" width="34.538401861908454" height="37" fill="white"/><rect x="1096.1055081458492" width="52.13343677269201" height="37" fill="white"/><rect x="1148.2389449185412" width="36.81923972071373" height="37" fill="white"/><rect x="1185.058184639255" width="24.111714507370053" height="37" fill="white"/><rect x="1209.169899146625" width="25.08921644685803" height="37" fill="white"/><rect x="1234.259115593483" width="25.740884406516678" height="37" fill="white"/><line x1="0" x2="1259.9999999999998" stroke="black"/><line x1="0" x2="1259.9999999999998" y1="37" y2="37" stroke="black"/><line x1="1259.9999999999998" x2="1259.9999999999998" y2="37" stroke="black"/><line x1="0" x2="0" y2="37" stroke="black"/><line class="exonboundaryclass" x1="110.78355314197051" x2="110.78355314197051" y1="0" y2="37" stroke="black" stroke-dasharray="4,2" shape-rendering="crispEdges" stroke-opacity="1"/><line class="exonboundaryclass" x1="156.40031031807604" x2="156.40031031807604" y1="0" y2="37" stroke="black" stroke-dasharray="4,2" shape-rendering="crispEdges" stroke-opacity="1"/><line class="exonboundaryclass" x1="164.22032583397984" x2="164.22032583397984" y1="0" y2="37" stroke="black" stroke-dasharray="4,2" shape-rendering="crispEdges" stroke-opacity="1"/><line class="exonboundaryclass" x1="226.45461598138093" x2="226.45461598138093" y1="0" y2="37" stroke="black" stroke-dasharray="4,2" shape-rendering="crispEdges" stroke-opacity="1"/><line class="exonboundaryclass" x1="281.52055857253686" x2="281.52055857253686" y1="0" y2="37" stroke="black" stroke-dasharray="4,2" shape-rendering="crispEdges" stroke-opacity="1"/><line class="exonboundaryclass" x1="316.38479441427467" x2="316.38479441427467" y1="0" y2="37" stroke="black" stroke-dasharray="4,2" shape-rendering="crispEdges" stroke-opacity="1"/><line class="exonboundaryclass" x1="372.10240496508925" x2="372.10240496508925" y1="0" y2="37" stroke="black" stroke-dasharray="4,2" shape-rendering="crispEdges" stroke-opacity="1"/><line class="exonboundaryclass" x1="408.92164468580296" x2="408.92164468580296" y1="0" y2="37" stroke="black" stroke-dasharray="4,2" shape-rendering="crispEdges" stroke-opacity="1"/><line class="exonboundaryclass" x1="461.05508145849495" x2="461.05508145849495" y1="0" y2="37" stroke="black" stroke-dasharray="4,2" shape-rendering="crispEdges" stroke-opacity="1"/><line class="exonboundaryclass" x1="514.166020170675" x2="514.166020170675" y1="0" y2="37" stroke="black" stroke-dasharray="4,2" shape-rendering="crispEdges" stroke-opacity="1"/><line class="exonboundaryclass" x1="549.3560899922421" x2="549.3560899922421" y1="0" y2="37" stroke="black" stroke-dasharray="4,2" shape-rendering="crispEdges" stroke-opacity="1"/><line class="exonboundaryclass" x1="565.6477889837083" x2="565.6477889837083" y1="0" y2="37" stroke="black" stroke-dasharray="4,2" shape-rendering="crispEdges" stroke-opacity="1"/><line class="exonboundaryclass" x1="596.9278510473235" x2="596.9278510473235" y1="0" y2="37" stroke="black" stroke-dasharray="4,2" shape-rendering="crispEdges" stroke-opacity="1"/><line class="exonboundaryclass" x1="625.6012412723042" x2="625.6012412723042" y1="0" y2="37" stroke="black" stroke-dasharray="4,2" shape-rendering="crispEdges" stroke-opacity="1"/><line class="exonboundaryclass" x1="669.2629945694337" x2="669.2629945694337" y1="0" y2="37" stroke="black" stroke-dasharray="4,2" shape-rendering="crispEdges" stroke-opacity="1"/><line class="exonboundaryclass" x1="710.9697439875872" x2="710.9697439875872" y1="0" y2="37" stroke="black" stroke-dasharray="4,2" shape-rendering="crispEdges" stroke-opacity="1"/><line class="exonboundaryclass" x1="755.6089992242047" x2="755.6089992242047" y1="0" y2="37" stroke="black" stroke-dasharray="4,2" shape-rendering="crispEdges" stroke-opacity="1"/><line class="exonboundaryclass" x1="790.1474010861132" x2="790.1474010861132" y1="0" y2="37" stroke="black" stroke-dasharray="4,2" shape-rendering="crispEdges" stroke-opacity="1"/><line class="exonboundaryclass" x1="841.6291698991465" x2="841.6291698991465" y1="0" y2="37" stroke="black" stroke-dasharray="4,2" shape-rendering="crispEdges" stroke-opacity="1"/><line class="exonboundaryclass" x1="904.5151280062063" x2="904.5151280062063" y1="0" y2="37" stroke="black" stroke-dasharray="4,2" shape-rendering="crispEdges" stroke-opacity="1"/><line class="exonboundaryclass" x1="949.8060512024824" x2="949.8060512024824" y1="0" y2="37" stroke="black" stroke-dasharray="4,2" shape-rendering="crispEdges" stroke-opacity="1"/><line class="exonboundaryclass" x1="1003.8944918541504" x2="1003.8944918541504" y1="0" y2="37" stroke="black" stroke-dasharray="4,2" shape-rendering="crispEdges" stroke-opacity="1"/><line class="exonboundaryclass" x1="1061.5671062839408" x2="1061.5671062839408" y1="0" y2="37" stroke="black" stroke-dasharray="4,2" shape-rendering="crispEdges" stroke-opacity="1"/><line class="exonboundaryclass" x1="1096.1055081458492" x2="1096.1055081458492" y1="0" y2="37" stroke="black" stroke-dasharray="4,2" shape-rendering="crispEdges" stroke-opacity="1"/><line class="exonboundaryclass" x1="1148.2389449185412" x2="1148.2389449185412" y1="0" y2="37" stroke="black" stroke-dasharray="4,2" shape-rendering="crispEdges" stroke-opacity="1"/><line class="exonboundaryclass" x1="1185.058184639255" x2="1185.058184639255" y1="0" y2="37" stroke="black" stroke-dasharray="4,2" shape-rendering="crispEdges" stroke-opacity="1"/><line class="exonboundaryclass" x1="1209.169899146625" x2="1209.169899146625" y1="0" y2="37" stroke="black" stroke-dasharray="4,2" shape-rendering="crispEdges" stroke-opacity="1"/><line class="exonboundaryclass" x1="1234.259115593483" x2="1234.259115593483" y1="0" y2="37" stroke="black" stroke-dasharray="4,2" shape-rendering="crispEdges" stroke-opacity="1"/><g transform="translate(0,18.5)" fill="none" font-size="10" font-family="sans-serif" text-anchor="middle"><path class="domain" stroke="none" d="M0.4887509697439876,0H1259.9999999999998" fill="none" stroke-width="0" shape-rendering="crispEdges"/><g class="tick" opacity="1" transform="translate(97.118710394969,0)"><line stroke="black" y2="0" shape-rendering="crispEdges"/><text fill="black" y="3" dy="0.71em" font-family="Arial" font-size="11.666666666666666px" style="cursor: default;">100</text></g><g class="tick" opacity="1" transform="translate(195.09180243082494,0)"><line stroke="black" y2="0" shape-rendering="crispEdges"/><text fill="black" y="3" dy="0.71em" font-family="Arial" font-size="11.666666666666666px" style="cursor: default;">200</text></g><g class="tick" opacity="1" transform="translate(292.8130333591932,0)"><line stroke="black" y2="0" shape-rendering="crispEdges"/><text fill="black" y="3" dy="0.71em" font-family="Arial" font-size="11.666666666666666px" style="cursor: default;">300</text></g><g class="tick" opacity="1" transform="translate(390.4305663304888,0)"><line stroke="black" y2="0" shape-rendering="crispEdges"/><text fill="black" y="3" dy="0.71em" font-family="Arial" font-size="11.666666666666666px" style="cursor: default;">400</text></g><g class="tick" opacity="1" transform="translate(488.0134000987376,0)"><line stroke="black" y2="0" shape-rendering="crispEdges"/><text fill="black" y="3" dy="0.71em" font-family="Arial" font-size="11.666666666666666px" style="cursor: default;">500</text></g><g class="tick" opacity="1" transform="translate(586.1193269976727,0)"><line stroke="black" y2="0" shape-rendering="crispEdges"/><text fill="black" y="3" dy="0.71em" font-family="Arial" font-size="11.666666666666666px" style="cursor: default;">600</text></g><g class="tick" opacity="1" transform="translate(683.705775163729,0)"><line stroke="black" y2="0" shape-rendering="crispEdges"/><text fill="black" y="3" dy="0.71em" font-family="Arial" font-size="11.666666666666666px" style="cursor: default;">700</text></g><g class="tick" opacity="1" transform="translate(781.3917765709851,0)"><line stroke="black" y2="0" shape-rendering="crispEdges"/><text fill="black" y="3" dy="0.71em" font-family="Arial" font-size="11.666666666666666px" style="cursor: default;">800</text></g><g class="tick" opacity="1" transform="translate(879.1662626066717,0)"><line stroke="black" y2="0" shape-rendering="crispEdges"/><text fill="black" y="3" dy="0.71em" font-family="Arial" font-size="11.666666666666666px" style="cursor: default;">900</text></g><g class="tick" opacity="1" transform="translate(976.768813033359,0)"><line stroke="black" y2="0" shape-rendering="crispEdges"/><text fill="black" y="3" dy="0.71em" font-family="Arial" font-size="11.666666666666666px" style="cursor: default;">1000</text></g><g class="tick" opacity="1" transform="translate(1074.702870442203,0)"><line stroke="black" y2="0" shape-rendering="crispEdges"/><text fill="black" y="3" dy="0.71em" font-family="Arial" font-size="11.666666666666666px" style="cursor: default;">1100</text></g><g class="tick" opacity="1" transform="translate(1172.4063941856189,0)"><line stroke="black" y2="0" shape-rendering="crispEdges"/><text fill="black" y="3" dy="0.71em" font-family="Arial" font-size="11.666666666666666px" style="cursor: default;">1200</text></g></g><rect x="0" width="110.78355314197051" height="37" fill="#858585" fill-opacity="0"/><rect x="110.78355314197051" width="45.61675717610551" height="37" fill="#858585" fill-opacity="0"/><rect x="156.40031031807604" width="7.820015515903801" height="37" fill="#858585" fill-opacity="0"/><rect x="164.22032583397984" width="62.23429014740108" height="37" fill="#858585" fill-opacity="0"/><rect x="226.45461598138093" width="55.06594259115593" height="37" fill="#858585" fill-opacity="0"/><rect x="281.52055857253686" width="34.86423584173778" height="37" fill="#858585" fill-opacity="0"/><rect x="316.38479441427467" width="55.717610550814584" height="37" fill="#858585" fill-opacity="0"/><rect x="372.10240496508925" width="36.81923972071373" height="37" fill="#858585" fill-opacity="0"/><rect x="408.92164468580296" width="52.13343677269201" height="37" fill="#858585" fill-opacity="0"/><rect x="461.05508145849495" width="53.11093871217998" height="37" fill="#858585" fill-opacity="0"/><rect x="514.166020170675" width="35.19006982156711" height="37" fill="#858585" fill-opacity="0"/><rect x="549.3560899922421" width="16.29169899146625" height="37" fill="#858585" fill-opacity="0"/><rect x="565.6477889837083" width="31.280062063615205" height="37" fill="#858585" fill-opacity="0"/><rect x="596.9278510473235" width="28.673390224980604" height="37" fill="#858585" fill-opacity="0"/><rect x="625.6012412723042" width="43.66175329712956" height="37" fill="#858585" fill-opacity="0"/><rect x="669.2629945694337" width="41.706749418153606" height="37" fill="#858585" fill-opacity="0"/><rect x="710.9697439875872" width="44.63925523661753" height="37" fill="#858585" fill-opacity="0"/><rect x="755.6089992242047" width="34.538401861908454" height="37" fill="#858585" fill-opacity="0"/><rect x="790.1474010861132" width="51.481768813033355" height="37" fill="#858585" fill-opacity="0"/><rect x="841.6291698991465" width="62.885958107059736" height="37" fill="#858585" fill-opacity="0"/><rect x="904.5151280062063" width="45.29092319627618" height="37" fill="#858585" fill-opacity="0"/><rect x="949.8060512024824" width="54.08844065166796" height="37" fill="#858585" fill-opacity="0"/><rect x="1003.8944918541504" width="57.672614429790535" height="37" fill="#858585" fill-opacity="0"/><rect x="1061.5671062839408" width="34.538401861908454" height="37" fill="#858585" fill-opacity="0"/><rect x="1096.1055081458492" width="52.13343677269201" height="37" fill="#858585" fill-opacity="0"/><rect x="1148.2389449185412" width="36.81923972071373" height="37" fill="#858585" fill-opacity="0"/><rect x="1185.058184639255" width="24.111714507370053" height="37" fill="#858585" fill-opacity="0"/><rect x="1209.169899146625" width="25.08921644685803" height="37" fill="#858585" fill-opacity="0"/><rect x="1234.259115593483" width="25.740884406516678" height="37" fill="#858585" fill-opacity="0"/></g></g><g/><g transform="scale(0)"><rect fill="white" fill-opacity="0"/><text data-testid="loading_message" fill="rgb(97, 124, 148)" fill-opacity="0" font-weight="bold" font-size="18px" text-anchor="middle" dominant-baseline="middle">Loading ...</text><line stroke="rgb(97, 124, 148)" stroke-width="2px"/></g></g><g transform="translate(122.3984375,0)"><text font-size="14" font-family="Arial" y="7" text-anchor="end" dominant-baseline="central" fill="black" x="-10" font-weight="bold">MAP3K6</text><text font-size="14" font-family="Arial" y="20" text-anchor="end" dominant-baseline="central" fill="black" x="-10">NM_004672</text></g><g transform="translate(1395.3984375,0)"><text fill="#aaa" font-family="Arial" font-size="14" y="14" class="sja_clbtext2"/></g></g></g><g transform="scale(0)"><rect fill="white"/><text id="loadinggCloak" fill="rgb(97, 124, 148)" fill-opacity="0" font-weight="bold" font-size="18px" text-anchor="middle" dominant-baseline="middle">Loading ...</text></g><g/><g transform="translate(124.3984375,613.64375)"><g transform="translate(0,0)"><rect width="15" height="20" stroke="rgb(90, 124, 148)" fill="#80b1d3" shape-rendering="crispEdges"/><text x="20" y="10" dominant-baseline="central" font-size="16" font-family="Arial" fill="black">DUF4071</text><text x="98.4765625" y="10" dominant-baseline="central" font-size="12" font-family="Arial" fill="#858585">Domain of unknown function (DUF4071)</text></g><g transform="translate(0,23)"><rect width="15" height="20" stroke="rgb(116, 151, 59)" fill="#a6d854" shape-rendering="crispEdges"/><text x="20" y="10" dominant-baseline="central" font-size="16" font-family="Arial" fill="black">STKc_ASK</text><text x="110.03125" y="10" dominant-baseline="central" font-size="12" font-family="Arial" fill="#858585">Catalytic domain of the Serine/Threonine Kinase, Apoptosis signal-regu ...</text></g><g transform="translate(0,46)"><rect width="15" height="20" stroke="rgb(176, 90, 80)" fill="#fb8072" shape-rendering="crispEdges"/><text x="20" y="10" dominant-baseline="central" font-size="16" font-family="Arial" fill="black">S_TKc</text><text x="78.015625" y="10" dominant-baseline="central" font-size="12" font-family="Arial" fill="#858585">Serine/Threonine protein kinases, catalytic domain</text></g><g transform="translate(0,69)"><rect width="15" height="20" stroke="rgb(133, 130, 153)" fill="#bebada" shape-rendering="crispEdges"/><text x="20" y="10" dominant-baseline="central" font-size="16" font-family="Arial" fill="black">other</text><text x="66.6875" y="10" dominant-baseline="central" font-size="12" font-family="Arial" fill="#858585">ATP binding site [chemical binding]</text></g><g transform="translate(0,92)"><rect width="15" height="20" stroke="rgb(99, 148, 139)" fill="#8dd3c7" shape-rendering="crispEdges"/><text x="20" y="10" dominant-baseline="central" font-size="16" font-family="Arial" fill="black">other</text><text x="66.6875" y="10" dominant-baseline="central" font-size="12" font-family="Arial" fill="#858585">polypeptide substrate binding site [polypeptide binding]</text></g><g transform="translate(0,115)"><rect width="15" height="20" stroke="rgb(162, 162, 111)" fill="#E8E89E" shape-rendering="crispEdges"/><text x="20" y="10" dominant-baseline="central" font-size="16" font-family="Arial" fill="black">other</text><text x="66.6875" y="10" dominant-baseline="central" font-size="12" font-family="Arial" fill="#858585">activation loop (A-loop)</text></g></g><g transform="translate(1187.3984375,613.64375)"><g transform="translate(0,0)"><circle cx="10" cy="10" r="10" fill="#3987CC"/><text x="30" y="10" dominant-baseline="central" font-size="16" font-family="Arial" fill="#3987CC">MISSENSE, n=7</text></g><g transform="translate(0,23)"><circle cx="10" cy="10" r="10" fill="#2ca02c"/><text x="30" y="10" dominant-baseline="central" font-size="16" font-family="Arial" fill="#2ca02c">SILENT, n=2</text></g></g></svg>