<svg xmlns="http://www.w3.org/2000/svg" data-testid="sjpp_block_svg" width="1268.1875" height="1025.775"><g transform="translate(0,0)"><g transform="translate(138.1875, 0)"/><rect fill="#FFFF99" x="873" width="2" height="732.7750000000001"/><g transform="translate(138.1875, 23)"><g transform="translate(0,0)"><text text-anchor="end" x="-13" y="-10" dominant-baseline="central" font-size="13" font-family="Arial">Protein length</text><g><g transform="translate(0,0)" fill="none" font-size="10" font-family="sans-serif" text-anchor="middle"><path class="domain" stroke="black" d="M0,-6V0H1020V-6" fill="none" stroke-width="1" shape-rendering="crispEdges"/><g class="tick" opacity="1" transform="translate(142.4421052631579,0)"><line stroke="black" y2="-6" shape-rendering="crispEdges"/><text fill="black" y="-9" dy="0em" font-family="Arial" font-size="12px" style="cursor: default;">200</text></g><g class="tick" opacity="1" transform="translate(285.6,0)"><line stroke="black" y2="-6" shape-rendering="crispEdges"/><text fill="black" y="-9" dy="0em" font-family="Arial" font-size="12px" style="cursor: default;">400</text></g><g class="tick" opacity="1" transform="translate(428.7578947368421,0)"><line stroke="black" y2="-6" shape-rendering="crispEdges"/><text fill="black" y="-9" dy="0em" font-family="Arial" font-size="12px" style="cursor: default;">600</text></g><g class="tick" opacity="1" transform="translate(571.9157894736842,0)"><line stroke="black" y2="-6" shape-rendering="crispEdges"/><text fill="black" y="-9" dy="0em" font-family="Arial" font-size="12px" style="cursor: default;">800</text></g><g class="tick" opacity="1" transform="translate(715.0736842105263,0)"><line stroke="black" y2="-6" shape-rendering="crispEdges"/><text fill="black" y="-9" dy="0em" font-family="Arial" font-size="12px" style="cursor: default;">1000</text></g><g class="tick" opacity="1" transform="translate(858.2315789473685,0)"><line stroke="black" y2="-6" shape-rendering="crispEdges"/><text fill="black" y="-9" dy="0em" font-family="Arial" font-size="12px" style="cursor: default;">1200</text></g><g class="tick" opacity="1" transform="translate(1001.3894736842105,0)"><line stroke="black" y2="-6" shape-rendering="crispEdges"/><text fill="black" y="-9" dy="0em" font-family="Arial" font-size="12px" style="cursor: default;">1400</text></g></g></g><rect fill="white" fill-opacity="0" x="0" y="-23" width="1020" height="26"/></g><g transform="translate(1020, 0)"/></g><g data-testid="sja_sample_menu_opener" transform="translate(0, 31)"><g transform="translate(1158.1875, 0)"/><g transform="translate(138.1875, 0)"><rect fill="white" fill-opacity="0" width="1020" height="159.0546875"/><g transform="translate(0,0)" style="cursor: default;"><g class="sja_skg" transform="translate(25.17193031311035, 86.0546875)"><g transform="translate(0, -7)" class="sja_aa_discg"><circle fill="#3987CC" stroke="white" r="6.5"/><text font-size="12" fill="#3987CC" x="8" y="3.5999999999999996" font-family="Arial" class="sja_aa_disclabel" fill-opacity="1" transform="rotate(-90)">p.Arg36Trp</text><circle r="6.5" stroke="#3987CC" class="sja_aa_disckick" fill="white" fill-opacity="0" stroke-opacity="0" transform="scale(1)"/><path d="M4.286263797015736e-16,-7L4.286263797015736e-16,-7Z" fill="#3987CC" class="sja_aa_discrim" fill-opacity="1" stroke-opacity="1"/></g><circle class="sja_aa_skkick" fill="white" fill-opacity="0" stroke="none" r="8" cy="-7" transform="scale(0)"/><path class="sja_aa_stem" d="M0,0v14l0,25.200000000000003v23.799999999999997" stroke="#3987CC" fill="none"/></g><g class="sja_skg" transform="translate(71.93684387207031, 86.0546875)"><g transform="translate(0, -7)" class="sja_aa_discg"><circle fill="#3987CC" stroke="white" r="6.5"/><text font-size="12" fill="#3987CC" x="8" y="3.5999999999999996" font-family="Arial" class="sja_aa_disclabel" fill-opacity="1" transform="rotate(-90)">p.Ser101Phe</text><circle r="6.5" stroke="#3987CC" class="sja_aa_disckick" fill="white" fill-opacity="0" stroke-opacity="0" transform="scale(1)"/><path d="M4.286263797015736e-16,-7L4.286263797015736e-16,-7Z" fill="#3987CC" class="sja_aa_discrim" fill-opacity="1" stroke-opacity="1"/></g><circle class="sja_aa_skkick" fill="white" fill-opacity="0" stroke="none" r="8" cy="-7" transform="scale(0)"/><path class="sja_aa_stem" d="M0,0v14l0,25.200000000000003v23.799999999999997" stroke="#3987CC" fill="none"/></g><g class="sja_skg" transform="translate(92.45613861083984, 86.0546875)"><g transform="translate(0, -7)" class="sja_aa_discg"><circle fill="#ff7f0e" stroke="white" r="6.5"/><text font-size="12" fill="#ff7f0e" x="8" y="3.5999999999999996" font-family="Arial" class="sja_aa_disclabel" fill-opacity="1" transform="scale(1) rotate(0)">p.Arg130Ter</text><circle r="6.5" stroke="#ff7f0e" class="sja_aa_disckick" fill="white" fill-opacity="0" stroke-opacity="0" transform="scale(1)"/><path d="M4.286263797015736e-16,-7L4.286263797015736e-16,-7Z" fill="#ff7f0e" class="sja_aa_discrim" fill-opacity="1" stroke-opacity="1"/></g><circle class="sja_aa_skkick" fill="white" fill-opacity="0" stroke="none" r="8" cy="-7" transform="scale(0)"/><path class="sja_aa_stem" d="M0,0v14l0,25.200000000000003v23.799999999999997" stroke="#ff7f0e" fill="none"/></g><g class="sja_skg" transform="translate(510.4772033691406, 86.0546875)"><g transform="translate(0, -7)" class="sja_aa_discg"><circle fill="#3987CC" stroke="white" r="6.5"/><text font-size="12" fill="#3987CC" x="8" y="3.5999999999999996" font-family="Arial" class="sja_aa_disclabel" fill-opacity="1" transform="rotate(-90)">p.Thr714Ala</text><circle r="6.5" stroke="#3987CC" class="sja_aa_disckick" fill="white" fill-opacity="0" stroke-opacity="0" transform="scale(1)"/><path d="M4.286263797015736e-16,-7L4.286263797015736e-16,-7Z" fill="#3987CC" class="sja_aa_discrim" fill-opacity="1" stroke-opacity="1"/></g><circle class="sja_aa_skkick" fill="white" fill-opacity="0" stroke="none" r="8" cy="-7" transform="scale(0)"/><path class="sja_aa_stem" d="M0,0v14l0,25.200000000000003v23.799999999999997" stroke="#3987CC" fill="none"/></g><g class="sja_skg" transform="translate(562.7297973632812, 86.0546875)"><g transform="translate(0, -7)" class="sja_aa_discg"><circle fill="#3987CC" stroke="white" r="6.5"/><text font-size="12" fill="#3987CC" x="8" y="3.5999999999999996" font-family="Arial" class="sja_aa_disclabel" fill-opacity="1" transform="scale(1) rotate(0)">p.Thr787Pro</text><circle r="6.5" stroke="#3987CC" class="sja_aa_disckick" fill="white" fill-opacity="0" stroke-opacity="0" transform="scale(1)"/><path d="M4.286263797015736e-16,-7L4.286263797015736e-16,-7Z" fill="#3987CC" class="sja_aa_discrim" fill-opacity="1" stroke-opacity="1"/></g><circle class="sja_aa_skkick" fill="white" fill-opacity="0" stroke="none" r="8" cy="-7" transform="scale(0)"/><path class="sja_aa_stem" d="M0,0v14l0,25.200000000000003v23.799999999999997" stroke="#3987CC" fill="none"/></g><g class="sja_skg" transform="translate(667.235107421875, 86.0546875)"><g transform="translate(0, -7)" class="sja_aa_discg"><circle fill="#3987CC" stroke="white" r="6.5"/><text font-size="12" fill="#3987CC" x="8" y="3.5999999999999996" font-family="Arial" class="sja_aa_disclabel" fill-opacity="1" transform="scale(1) rotate(0)">p.Met933Leu</text><circle r="6.5" stroke="#3987CC" class="sja_aa_disckick" fill="white" fill-opacity="0" stroke-opacity="0" transform="scale(1)"/><path d="M4.286263797015736e-16,-7L4.286263797015736e-16,-7Z" fill="#3987CC" class="sja_aa_discrim" fill-opacity="1" stroke-opacity="1"/></g><circle class="sja_aa_skkick" fill="white" fill-opacity="0" stroke="none" r="8" cy="-7" transform="scale(0)"/><path class="sja_aa_stem" d="M0,0v14l0,25.200000000000003v23.799999999999997" stroke="#3987CC" fill="none"/></g></g><g/><g transform="scale(0)"><rect fill="white" fill-opacity="0" width="1020" height="0"/><text data-testid="loading_message" fill="rgb(97, 124, 148)" fill-opacity="0" font-weight="bold" font-size="18px" text-anchor="middle" dominant-baseline="middle" x="510" y="15">Loading ...</text><line stroke="rgb(97, 124, 148)" stroke-width="2px" y1="30" y2="30" x2="0"/></g></g><g transform="translate(135.1875, 0)"><text font-size="14" font-family="Arial" y="7" text-anchor="end" dominant-baseline="central" fill="black" x="-10" font-weight="bold">GAMBL DLBCL</text><g/><text font-size="14" font-family="Arial" y="26" text-anchor="end" dominant-baseline="central" class="sja_clbtext2" fill="black" x="-10">6 of 277 mutations</text></g><g transform="translate(1168.1875, 0)"/></g><g data-testid="sja_sample_menu_opener" transform="translate(0, 583.7562255859375)"><g transform="translate(1158.1875, 0)"/><g transform="translate(138.1875, 0)"><rect fill="white" fill-opacity="0" width="1020" height="154.01875"/><g transform="translate(0,0)" style="cursor: default;"><g class="sja_skg" transform="translate(200.54034423828125, 51.79999923706055)"><g transform="translate(0, 7)" class="sja_aa_discg"><circle fill="#3987CC" stroke="white" r="6.5"/><text font-size="12" fill="#3987CC" x="8" y="3.5999999999999996" font-family="Arial" class="sja_aa_disclabel" fill-opacity="1" transform="scale(1) rotate(0)">p.Asp281Tyr</text><circle r="6.5" stroke="#3987CC" class="sja_aa_disckick" fill="white" fill-opacity="0" stroke-opacity="0" transform="scale(1)"/><path d="M4.286263797015736e-16,-7L4.286263797015736e-16,-7Z" fill="#3987CC" class="sja_aa_discrim" fill-opacity="1" stroke-opacity="1"/></g><circle class="sja_aa_skkick" fill="white" fill-opacity="0" stroke="none" r="8" cy="7" transform="scale(0)"/><path class="sja_aa_stem" d="M0,0v-14l0,-14v-23.799999999999997" stroke="#3987CC" fill="none"/></g><g class="sja_skg" transform="translate(774.8421020507812, 51.79999923706055)"><g transform="translate(0, 7)" class="sja_aa_discg"><circle fill="#3987CC" stroke="white" r="6.5"/><text font-size="12" fill="#3987CC" x="8" y="3.5999999999999996" font-family="Arial" class="sja_aa_disclabel" fill-opacity="1" transform="rotate(90)">p.Asn1083Ser</text><circle r="6.5" stroke="#3987CC" class="sja_aa_disckick" fill="white" fill-opacity="0" stroke-opacity="0" transform="scale(1)"/><path d="M4.286263797015736e-16,-7L4.286263797015736e-16,-7Z" fill="#3987CC" class="sja_aa_discrim" fill-opacity="1" stroke-opacity="1"/></g><circle class="sja_aa_skkick" fill="white" fill-opacity="0" stroke="none" r="8" cy="7" transform="scale(0)"/><path class="sja_aa_stem" d="M0,0v-14l0,-14v-23.799999999999997" stroke="#3987CC" fill="none"/></g><g class="sja_skg" transform="translate(839.9789428710938, 51.79999923706055)"><g transform="translate(0, 7)" class="sja_aa_discg"><circle fill="#3987CC" stroke="white" r="6.5"/><text font-size="12" fill="#3987CC" x="8" y="3.5999999999999996" font-family="Arial" class="sja_aa_disclabel" fill-opacity="1" transform="scale(1) rotate(0)">p.Leu1174Pro</text><circle r="6.5" stroke="#3987CC" class="sja_aa_disckick" fill="white" fill-opacity="0" stroke-opacity="0" transform="scale(1)"/><path d="M4.286263797015736e-16,-7L4.286263797015736e-16,-7Z" fill="#3987CC" class="sja_aa_discrim" fill-opacity="1" stroke-opacity="1"/></g><circle class="sja_aa_skkick" fill="white" fill-opacity="0" stroke="none" r="8" cy="7" transform="scale(0)"/><path class="sja_aa_stem" d="M0,0v-14l0,-14v-23.799999999999997" stroke="#3987CC" fill="none"/></g></g><g/><g transform="scale(0)"><rect fill="white" fill-opacity="0" width="1020" height="0"/><text data-testid="loading_message" fill="rgb(97, 124, 148)" fill-opacity="0" font-weight="bold" font-size="18px" text-anchor="middle" dominant-baseline="middle" x="510" y="15">Loading ...</text><line stroke="rgb(97, 124, 148)" stroke-width="2px" y1="30" y2="30" x2="0"/></g></g><g transform="translate(135.1875, 0)"><text font-size="14" font-family="Arial" y="7" text-anchor="end" dominant-baseline="central" fill="black" x="-10" font-weight="bold">GAMBL FL</text><g/><text font-size="14" font-family="Arial" y="26" text-anchor="end" dominant-baseline="central" class="sja_clbtext2" fill="black" x="-10">3 of 109 mutations</text></g><g transform="translate(1168.1875, 0)"/></g><g data-testid="sja_sample_menu_opener" transform="translate(0, 237.0546875)"><g transform="translate(1158.1875, 0)"/><g transform="translate(138.1875, 0)"><rect fill="white" fill-opacity="0" width="1020" height="169.51875"/><g transform="translate(0,0)" style="cursor: default;"><g class="sja_skg" transform="translate(7, 58.79999923706055)"><g transform="translate(0, 7)" class="sja_aa_discg"><circle fill="#2ca02c" stroke="white" r="6.5"/><text font-size="12" fill="#2ca02c" x="8" y="3.5999999999999996" font-family="Arial" class="sja_aa_disclabel" fill-opacity="1" transform="rotate(90)">c.10T&gt;C(p.=)</text><circle r="6.5" stroke="#2ca02c" class="sja_aa_disckick" fill="white" fill-opacity="0" stroke-opacity="0" transform="scale(1)"/><path d="M4.286263797015736e-16,-7L4.286263797015736e-16,-7Z" fill="#2ca02c" class="sja_aa_discrim" fill-opacity="1" stroke-opacity="1"/></g><circle class="sja_aa_skkick" fill="white" fill-opacity="0" stroke="none" r="8" cy="7" transform="scale(0)"/><path class="sja_aa_stem" d="M0,0v-14l-4.733333333333333,-21v-23.799999999999997" stroke="#2ca02c" fill="none"/></g><g class="sja_skg" transform="translate(72, 58.79999923706055)"><g transform="translate(0, 7)" class="sja_aa_discg"><circle fill="#3987CC" stroke="white" r="6.5"/><text font-size="12" fill="#3987CC" x="8" y="3.5999999999999996" font-family="Arial" class="sja_aa_disclabel" fill-opacity="1" transform="scale(1) rotate(0)">p.Ser102Phe</text><circle r="6.5" stroke="#3987CC" class="sja_aa_disckick" fill="white" fill-opacity="0" stroke-opacity="0" transform="scale(1)"/><path d="M4.286263797015736e-16,-7L4.286263797015736e-16,-7Z" fill="#3987CC" class="sja_aa_discrim" fill-opacity="1" stroke-opacity="1"/></g><circle class="sja_aa_skkick" fill="white" fill-opacity="0" stroke="none" r="8" cy="7" transform="scale(0)"/><path class="sja_aa_stem" d="M0,0v-14l0.6526315789473642,-21v-23.799999999999997" stroke="#3987CC" fill="none"/></g><g class="sja_skg" transform="translate(388, 58.79999923706055)"><g transform="translate(0, 7)" class="sja_aa_discg"><circle fill="#3987CC" stroke="white" r="6.5"/><text font-size="12" fill="#3987CC" x="8" y="3.5999999999999996" font-family="Arial" class="sja_aa_disclabel" fill-opacity="1" transform="scale(1) rotate(0)">p.Pro544Ser</text><circle r="6.5" stroke="#3987CC" class="sja_aa_disckick" fill="white" fill-opacity="0" stroke-opacity="0" transform="scale(1)"/><path d="M4.286263797015736e-16,-7L4.286263797015736e-16,-7Z" fill="#3987CC" class="sja_aa_discrim" fill-opacity="1" stroke-opacity="1"/></g><circle class="sja_aa_skkick" fill="white" fill-opacity="0" stroke="none" r="8" cy="7" transform="scale(0)"/><path class="sja_aa_stem" d="M0,0v-14l0.7929824561403507,-21v-23.799999999999997" stroke="#3987CC" fill="none"/></g><g class="sja_skg" transform="translate(584, 58.79999923706055)"><g transform="translate(0, 7)" class="sja_aa_discg"><circle fill="#2ca02c" stroke="white" r="6.5"/><text font-size="12" fill="#2ca02c" x="8" y="3.5999999999999996" font-family="Arial" class="sja_aa_disclabel" fill-opacity="1" transform="scale(1) rotate(0)">c.2451A&gt;C(p.=)</text><circle r="6.5" stroke="#2ca02c" class="sja_aa_disckick" fill="white" fill-opacity="0" stroke-opacity="0" transform="scale(1)"/><path d="M4.286263797015736e-16,-7L4.286263797015736e-16,-7Z" fill="#2ca02c" class="sja_aa_discrim" fill-opacity="1" stroke-opacity="1"/></g><circle class="sja_aa_skkick" fill="white" fill-opacity="0" stroke="none" r="8" cy="7" transform="scale(0)"/><path class="sja_aa_stem" d="M0,0v-14l0.6807017543859502,-21v-23.799999999999997" stroke="#2ca02c" fill="none"/></g><g class="sja_skg" transform="translate(944, 58.79999923706055)"><g transform="translate(0, 7)" class="sja_aa_discg"><circle fill="#3987CC" stroke="white" r="6.5"/><text font-size="12" fill="#3987CC" x="8" y="3.5999999999999996" font-family="Arial" class="sja_aa_disclabel" fill-opacity="1" transform="rotate(90)">p.Gln1320Pro</text><circle r="6.5" stroke="#3987CC" class="sja_aa_disckick" fill="white" fill-opacity="0" stroke-opacity="0" transform="scale(1)"/><path d="M4.286263797015736e-16,-7L4.286263797015736e-16,-7Z" fill="#3987CC" class="sja_aa_discrim" fill-opacity="1" stroke-opacity="1"/></g><circle class="sja_aa_skkick" fill="white" fill-opacity="0" stroke="none" r="8" cy="7" transform="scale(0)"/><path class="sja_aa_stem" d="M0,0v-14l0.48421052631579187,-21v-23.799999999999997" stroke="#3987CC" fill="none"/></g></g><g/><g transform="scale(0)"><rect fill="white" fill-opacity="0" width="1020" height="0"/><text data-testid="loading_message" fill="rgb(97, 124, 148)" fill-opacity="0" font-weight="bold" font-size="18px" text-anchor="middle" dominant-baseline="middle" x="510" y="15">Loading ...</text><line stroke="rgb(97, 124, 148)" stroke-width="2px" y1="30" y2="30" x2="0"/></g></g><g transform="translate(135.1875, 0)"><text font-size="14" font-family="Arial" y="7" text-anchor="end" dominant-baseline="central" fill="black" x="-10" font-weight="bold">GAMBL BL</text><g/><text font-size="14" font-family="Arial" y="26" text-anchor="end" dominant-baseline="central" class="sja_clbtext2" fill="black" x="-10">5 of 214 mutations</text></g><g transform="translate(1168.1875, 0)"/></g><g data-testid="sja_sample_menu_opener" transform="translate(0, 406.57342529296875)"><g transform="translate(1158.1875, 0)"/><g transform="translate(138.1875, 0)"><rect fill="white" fill-opacity="0" width="1020" height="177.1828125"/><g transform="translate(0,0)" style="cursor: default;"><g class="sja_skg" transform="translate(7, 65.80000305175781)"><g transform="translate(0, 7)" class="sja_aa_discg"><circle fill="#2ca02c" stroke="white" r="6.5"/><text font-size="12" fill="#2ca02c" x="8" y="3.5999999999999996" font-family="Arial" class="sja_aa_disclabel" fill-opacity="1" transform="scale(1) rotate(0)">c.10T&gt;C(p.=)</text><circle r="6.5" stroke="#2ca02c" class="sja_aa_disckick" fill="white" fill-opacity="0" stroke-opacity="0" transform="scale(1)"/><path d="M4.286263797015736e-16,-7L4.286263797015736e-16,-7Z" fill="#2ca02c" class="sja_aa_discrim" fill-opacity="1" stroke-opacity="1"/></g><circle class="sja_aa_skkick" fill="white" fill-opacity="0" stroke="none" r="8" cy="7" transform="scale(0)"/><path class="sja_aa_stem" d="M0,0v-14l-4.733333333333333,-28v-23.799999999999997" stroke="#2ca02c" fill="none"/></g><g class="sja_skg" transform="translate(802, 65.80000305175781)"><g transform="translate(0, 7)" class="sja_aa_discg"><circle fill="#3987CC" stroke="white" r="6.5"/><text font-size="12" fill="#3987CC" x="8" y="3.5999999999999996" font-family="Arial" class="sja_aa_disclabel" fill-opacity="1" transform="rotate(90)">p.Met1122Val</text><circle r="6.5" stroke="#3987CC" class="sja_aa_disckick" fill="white" fill-opacity="0" stroke-opacity="0" transform="scale(1)"/><path d="M4.286263797015736e-16,-7L4.286263797015736e-16,-7Z" fill="#3987CC" class="sja_aa_discrim" fill-opacity="1" stroke-opacity="1"/></g><circle class="sja_aa_skkick" fill="white" fill-opacity="0" stroke="none" r="8" cy="7" transform="scale(0)"/><path class="sja_aa_stem" d="M0,0v-14l0.5192982456139816,-28v-23.799999999999997" stroke="#3987CC" fill="none"/></g><g class="sja_skg" transform="translate(878, 65.80000305175781)"><g transform="translate(0, 7)" class="sja_aa_discg"><circle fill="#2ca02c" stroke="white" r="6.5"/><text font-size="12" fill="#2ca02c" x="8" y="3.5999999999999996" font-family="Arial" class="sja_aa_disclabel" fill-opacity="1" transform="scale(1) rotate(0)">c.3684A&gt;G(p.=)</text><circle r="6.5" stroke="#2ca02c" class="sja_aa_disckick" fill="white" fill-opacity="0" stroke-opacity="0" transform="scale(1)"/><path d="M4.286263797015736e-16,-7L4.286263797015736e-16,-7Z" fill="#2ca02c" class="sja_aa_discrim" fill-opacity="1" stroke-opacity="1"/></g><circle class="sja_aa_skkick" fill="white" fill-opacity="0" stroke="none" r="8" cy="7" transform="scale(0)"/><path class="sja_aa_stem" d="M0,0v-14l0.8701754385964477,-28v-23.799999999999997" stroke="#2ca02c" fill="none"/></g></g><g/><g transform="scale(0)"><rect fill="white" fill-opacity="0" width="1020" height="0"/><text data-testid="loading_message" fill="rgb(97, 124, 148)" fill-opacity="0" font-weight="bold" font-size="18px" text-anchor="middle" dominant-baseline="middle" x="510" y="15">Loading ...</text><line stroke="rgb(97, 124, 148)" stroke-width="2px" y1="30" y2="30" x2="0"/></g></g><g transform="translate(135.1875, 0)"><text font-size="14" font-family="Arial" y="7" text-anchor="end" dominant-baseline="central" fill="black" x="-10" font-weight="bold">GAMBL MCL</text><g/><text font-size="14" font-family="Arial" y="26" text-anchor="end" dominant-baseline="central" class="sja_clbtext2" fill="black" x="-10">3 of 55 mutations</text></g><g transform="translate(1168.1875, 0)"/></g><g data-testid="sja_sample_menu_opener" transform="translate(0, 190.0546875)"><g transform="translate(1158.1875, 0)"/><g transform="translate(138.1875, 0)"><rect fill="white" fill-opacity="0" width="1020" height="47"/><g transform="translate(0,0)" style="cursor: default;"><g><line x1="0" y1="18.5" x2="1019.9999999999999" y2="18.5" stroke="black" shape-rendering="crispEdges"/><rect x="0" width="19.803508771929824" height="37" fill="white"/><rect x="19.803508771929824" width="41.27719298245614" height="37" fill="white"/><rect x="23.621052631578948" width="37.459649122807015" height="37" fill="#bebada"/><rect x="30.77894736842105" width="1.431578947368421" height="37" fill="#8dd3c7"/><rect x="55.1157894736842" width="1.431578947368421" height="37" fill="#8dd3c7"/><rect x="32.92631578947368" width="1.431578947368421" height="37" fill="#8dd3c7"/><rect x="60.12631578947368" width="1" height="37" fill="#8dd3c7"/><rect x="27.91578947368421" width="1.431578947368421" height="37" fill="#8dd3c7"/><rect x="58.69473684210526" width="1" height="37" fill="#8dd3c7"/><rect x="53.684210526315795" width="1" height="37" fill="#8dd3c7"/><rect x="48.67368421052632" width="1" height="37" fill="#8dd3c7"/><rect x="50.82105263157895" width="1" height="37" fill="#8dd3c7"/><rect x="23.621052631578948" width="1" height="37" fill="#ffd92f"/><rect x="61.08070175438597" width="24.098245614035086" height="37" fill="white"/><rect x="83.03157894736843" width="2.1473684210526316" height="37" fill="#a6d854"/><rect x="82.31578947368422" width="2.863157894736842" height="37" fill="#b3b3b3"/><rect x="61.08070175438597" width="1.9087719298245613" height="37" fill="#bebada"/><rect x="61.08070175438597" width="1" height="37" fill="#8dd3c7"/><rect x="85.17894736842106" width="41.75438596491228" height="37" fill="white"/><rect x="85.17894736842106" width="41.75438596491228" height="37" fill="#a6d854"/><rect x="85.17894736842106" width="38.652631578947364" height="37" fill="#b3b3b3"/><rect x="126.93333333333334" width="45.09473684210526" height="37" fill="white"/><rect x="126.93333333333334" width="26.96140350877193" height="37" fill="#a6d854"/><rect x="172.0280701754386" width="24.336842105263155" height="37" fill="white"/><rect x="188.96842105263158" width="7.396491228070175" height="37" fill="#fdb462"/><rect x="196.36491228070173" width="33.642105263157895" height="37" fill="white"/><rect x="196.36491228070173" width="33.642105263157895" height="37" fill="#fdb462"/><rect x="230.00701754385963" width="35.31228070175438" height="37" fill="white"/><rect x="230.00701754385963" width="35.31228070175438" height="37" fill="#fdb462"/><rect x="265.319298245614" width="93.5298245614035" height="37" fill="white"/><rect x="327.83157894736837" width="31.017543859649123" height="37" fill="#e5c494"/><rect x="265.319298245614" width="3.101754385964912" height="37" fill="#fdb462"/><rect x="358.84912280701747" width="208.0561403508772" height="37" fill="white"/><rect x="358.84912280701747" width="50.58245614035088" height="37" fill="#e5c494"/><rect x="516.8" width="50.10526315789473" height="37" fill="#fb8072"/><rect x="443.07368421052627" width="60.84210526315789" height="37" fill="#8dd3c7"/><rect x="566.9052631578946" width="32.449122807017545" height="37" fill="white"/><rect x="566.9052631578946" width="12.884210526315789" height="37" fill="#fb8072"/><rect x="599.3543859649121" width="46.526315789473685" height="37" fill="white"/><rect x="645.8807017543858" width="58.694736842105264" height="37" fill="white"/><rect x="704.575438596491" width="30.301754385964912" height="37" fill="white"/><rect x="734.877192982456" width="41.03859649122807" height="37" fill="white"/><rect x="747.2842105263156" width="28.63157894736842" height="37" fill="#E8E89E"/><rect x="775.9157894736841" width="70.14736842105263" height="37" fill="white"/><rect x="775.9157894736841" width="5.726315789473684" height="37" fill="#E8E89E"/><rect x="846.0631578947367" width="25.052631578947366" height="37" fill="white"/><rect x="871.1157894736841" width="70.3859649122807" height="37" fill="white"/><rect x="923.3684210526314" width="18.133333333333333" height="37" fill="#80b1d3"/><rect x="941.5017543859648" width="41.75438596491228" height="37" fill="white"/><rect x="941.5017543859648" width="23.382456140350875" height="37" fill="#80b1d3"/><rect x="983.2561403508771" width="33.88070175438597" height="37" fill="white"/><rect x="1017.1368421052631" width="2.863157894736842" height="37" fill="white"/><line x1="0" x2="1019.9999999999999" stroke="black"/><line x1="0" x2="1019.9999999999999" y1="37" y2="37" stroke="black"/><line x1="0" x2="0" y2="37" stroke="black"/><line x1="1019.9999999999999" x2="1019.9999999999999" y2="37" stroke="black"/><line class="exonboundaryclass" x1="19.803508771929824" x2="19.803508771929824" y1="0" y2="37" stroke="black" stroke-dasharray="4,2" shape-rendering="crispEdges" stroke-opacity="1"/><line class="exonboundaryclass" x1="61.08070175438597" x2="61.08070175438597" y1="0" y2="37" stroke="black" stroke-dasharray="4,2" shape-rendering="crispEdges" stroke-opacity="1"/><line class="exonboundaryclass" x1="85.17894736842106" x2="85.17894736842106" y1="0" y2="37" stroke="black" stroke-dasharray="4,2" shape-rendering="crispEdges" stroke-opacity="1"/><line class="exonboundaryclass" x1="126.93333333333334" x2="126.93333333333334" y1="0" y2="37" stroke="black" stroke-dasharray="4,2" shape-rendering="crispEdges" stroke-opacity="1"/><line class="exonboundaryclass" x1="172.0280701754386" x2="172.0280701754386" y1="0" y2="37" stroke="black" stroke-dasharray="4,2" shape-rendering="crispEdges" stroke-opacity="1"/><line class="exonboundaryclass" x1="196.36491228070173" x2="196.36491228070173" y1="0" y2="37" stroke="black" stroke-dasharray="4,2" shape-rendering="crispEdges" stroke-opacity="1"/><line class="exonboundaryclass" x1="230.00701754385963" x2="230.00701754385963" y1="0" y2="37" stroke="black" stroke-dasharray="4,2" shape-rendering="crispEdges" stroke-opacity="1"/><line class="exonboundaryclass" x1="265.319298245614" x2="265.319298245614" y1="0" y2="37" stroke="black" stroke-dasharray="4,2" shape-rendering="crispEdges" stroke-opacity="1"/><line class="exonboundaryclass" x1="358.84912280701747" x2="358.84912280701747" y1="0" y2="37" stroke="black" stroke-dasharray="4,2" shape-rendering="crispEdges" stroke-opacity="1"/><line class="exonboundaryclass" x1="566.9052631578946" x2="566.9052631578946" y1="0" y2="37" stroke="black" stroke-dasharray="4,2" shape-rendering="crispEdges" stroke-opacity="1"/><line class="exonboundaryclass" x1="599.3543859649121" x2="599.3543859649121" y1="0" y2="37" stroke="black" stroke-dasharray="4,2" shape-rendering="crispEdges" stroke-opacity="1"/><line class="exonboundaryclass" x1="645.8807017543858" x2="645.8807017543858" y1="0" y2="37" stroke="black" stroke-dasharray="4,2" shape-rendering="crispEdges" stroke-opacity="1"/><line class="exonboundaryclass" x1="704.575438596491" x2="704.575438596491" y1="0" y2="37" stroke="black" stroke-dasharray="4,2" shape-rendering="crispEdges" stroke-opacity="1"/><line class="exonboundaryclass" x1="734.877192982456" x2="734.877192982456" y1="0" y2="37" stroke="black" stroke-dasharray="4,2" shape-rendering="crispEdges" stroke-opacity="1"/><line class="exonboundaryclass" x1="775.9157894736841" x2="775.9157894736841" y1="0" y2="37" stroke="black" stroke-dasharray="4,2" shape-rendering="crispEdges" stroke-opacity="1"/><line class="exonboundaryclass" x1="846.0631578947367" x2="846.0631578947367" y1="0" y2="37" stroke="black" stroke-dasharray="4,2" shape-rendering="crispEdges" stroke-opacity="1"/><line class="exonboundaryclass" x1="871.1157894736841" x2="871.1157894736841" y1="0" y2="37" stroke="black" stroke-dasharray="4,2" shape-rendering="crispEdges" stroke-opacity="1"/><line class="exonboundaryclass" x1="941.5017543859648" x2="941.5017543859648" y1="0" y2="37" stroke="black" stroke-dasharray="4,2" shape-rendering="crispEdges" stroke-opacity="1"/><line class="exonboundaryclass" x1="983.2561403508771" x2="983.2561403508771" y1="0" y2="37" stroke="black" stroke-dasharray="4,2" shape-rendering="crispEdges" stroke-opacity="1"/><line class="exonboundaryclass" x1="1017.1368421052631" x2="1017.1368421052631" y1="0" y2="37" stroke="black" stroke-dasharray="4,2" shape-rendering="crispEdges" stroke-opacity="1"/><g transform="translate(0,18.5)" fill="none" font-size="10" font-family="sans-serif" text-anchor="middle"><path class="domain" stroke="none" d="M0.35789473684210527,0H1019.9999999999999" fill="none" stroke-width="0" shape-rendering="crispEdges"/><g class="tick" opacity="1" transform="translate(142.7583402951824,0)"><line stroke="black" y2="0" shape-rendering="crispEdges"/><text fill="black" y="3" dy="0.71em" font-family="Arial" font-size="11.666666666666666px" style="cursor: default;">200</text></g><g class="tick" opacity="1" transform="translate(285.9314852015534,0)"><line stroke="black" y2="0" shape-rendering="crispEdges"/><text fill="black" y="3" dy="0.71em" font-family="Arial" font-size="11.666666666666666px" style="cursor: default;">400</text></g><g class="tick" opacity="1" transform="translate(428.99526134924935,0)"><line stroke="black" y2="0" shape-rendering="crispEdges"/><text fill="black" y="3" dy="0.71em" font-family="Arial" font-size="11.666666666666666px" style="cursor: default;">600</text></g><g class="tick" opacity="1" transform="translate(572.255126705653,0)"><line stroke="black" y2="0" shape-rendering="crispEdges"/><text fill="black" y="3" dy="0.71em" font-family="Arial" font-size="11.666666666666666px" style="cursor: default;">800</text></g><g class="tick" opacity="1" transform="translate(715.4741854636588,0)"><line stroke="black" y2="0" shape-rendering="crispEdges"/><text fill="black" y="3" dy="0.71em" font-family="Arial" font-size="11.666666666666666px" style="cursor: default;">1000</text></g><g class="tick" opacity="1" transform="translate(858.4156390977442,0)"><line stroke="black" y2="0" shape-rendering="crispEdges"/><text fill="black" y="3" dy="0.71em" font-family="Arial" font-size="11.666666666666666px" style="cursor: default;">1200</text></g><g class="tick" opacity="1" transform="translate(1001.5535087719297,0)"><line stroke="black" y2="0" shape-rendering="crispEdges"/><text fill="black" y="3" dy="0.71em" font-family="Arial" font-size="11.666666666666666px" style="cursor: default;">1400</text></g></g><rect x="0" width="19.803508771929824" height="37" fill="#858585" fill-opacity="0"/><rect x="19.803508771929824" width="41.27719298245614" height="37" fill="#858585" fill-opacity="0"/><rect x="61.08070175438597" width="24.098245614035086" height="37" fill="#858585" fill-opacity="0"/><rect x="85.17894736842106" width="41.75438596491228" height="37" fill="#858585" fill-opacity="0"/><rect x="126.93333333333334" width="45.09473684210526" height="37" fill="#858585" fill-opacity="0"/><rect x="172.0280701754386" width="24.336842105263155" height="37" fill="#858585" fill-opacity="0"/><rect x="196.36491228070173" width="33.642105263157895" height="37" fill="#858585" fill-opacity="0"/><rect x="230.00701754385963" width="35.31228070175438" height="37" fill="#858585" fill-opacity="0"/><rect x="265.319298245614" width="93.5298245614035" height="37" fill="#858585" fill-opacity="0"/><rect x="358.84912280701747" width="208.0561403508772" height="37" fill="#858585" fill-opacity="0"/><rect x="566.9052631578946" width="32.449122807017545" height="37" fill="#858585" fill-opacity="0"/><rect x="599.3543859649121" width="46.526315789473685" height="37" fill="#858585" fill-opacity="0"/><rect x="645.8807017543858" width="58.694736842105264" height="37" fill="#858585" fill-opacity="0"/><rect x="704.575438596491" width="30.301754385964912" height="37" fill="#858585" fill-opacity="0"/><rect x="734.877192982456" width="41.03859649122807" height="37" fill="#858585" fill-opacity="0"/><rect x="775.9157894736841" width="70.14736842105263" height="37" fill="#858585" fill-opacity="0"/><rect x="846.0631578947367" width="25.052631578947366" height="37" fill="#858585" fill-opacity="0"/><rect x="871.1157894736841" width="70.3859649122807" height="37" fill="#858585" fill-opacity="0"/><rect x="941.5017543859648" width="41.75438596491228" height="37" fill="#858585" fill-opacity="0"/><rect x="983.2561403508771" width="33.88070175438597" height="37" fill="#858585" fill-opacity="0"/><rect x="1017.1368421052631" width="2.863157894736842" height="37" fill="#858585" fill-opacity="0"/></g></g><g/><g transform="scale(0)"><rect fill="white" fill-opacity="0"/><text data-testid="loading_message" fill="rgb(97, 124, 148)" fill-opacity="0" font-weight="bold" font-size="18px" text-anchor="middle" dominant-baseline="middle">Loading ...</text><line stroke="rgb(97, 124, 148)" stroke-width="2px"/></g></g><g transform="translate(135.1875, 0)"><text font-size="14" font-family="Arial" y="7" text-anchor="end" dominant-baseline="central" fill="black" x="-10" font-weight="bold">NCOA3</text><text font-size="14" font-family="Arial" y="20" text-anchor="end" dominant-baseline="central" fill="black" x="-10">NM_181659</text></g><g transform="translate(1168.1875, 0)"><text fill="#aaa" font-family="Arial" font-size="14" y="14" class="sja_clbtext2"/></g></g></g><g transform="scale(0)"><rect fill="white"/><text id="loadinggCloak" fill="rgb(97, 124, 148)" fill-opacity="0" font-weight="bold" font-size="18px" text-anchor="middle" dominant-baseline="middle">Loading ...</text></g><g/><g transform="translate(137.1875,752.7750000000001)"><g transform="translate(0,0)"><rect width="15" height="20" stroke="rgb(133, 130, 153)" fill="#bebada" shape-rendering="crispEdges"/><text x="20" y="10" dominant-baseline="central" font-size="16" font-family="Arial" fill="black">HLH</text><text x="62.0078125" y="10" dominant-baseline="central" font-size="12" font-family="Arial" fill="#858585">helix loop helix domain</text></g><g transform="translate(0,23)"><rect width="15" height="20" stroke="rgb(179, 152, 33)" fill="#ffd92f" shape-rendering="crispEdges"/><text x="20" y="10" dominant-baseline="central" font-size="16" font-family="Arial" fill="black">other</text><text x="66.6875" y="10" dominant-baseline="central" font-size="12" font-family="Arial" fill="#858585">E-box/N-box specificity site</text></g><g transform="translate(0,46)"><rect width="15" height="20" stroke="rgb(99, 148, 139)" fill="#8dd3c7" shape-rendering="crispEdges"/><text x="20" y="10" dominant-baseline="central" font-size="16" font-family="Arial" fill="black">other</text><text x="66.6875" y="10" dominant-baseline="central" font-size="12" font-family="Arial" fill="#858585">dimerization interface [polypeptide binding]</text></g><g transform="translate(0,69)"><rect width="15" height="20" stroke="rgb(125, 125, 125)" fill="#b3b3b3" shape-rendering="crispEdges"/><text x="20" y="10" dominant-baseline="central" font-size="16" font-family="Arial" fill="black">PAS</text><text x="60.828125" y="10" dominant-baseline="central" font-size="12" font-family="Arial" fill="#858585">PAS domain</text></g><g transform="translate(0,92)"><rect width="15" height="20" stroke="rgb(116, 151, 59)" fill="#a6d854" shape-rendering="crispEdges"/><text x="20" y="10" dominant-baseline="central" font-size="16" font-family="Arial" fill="black">PAS</text><text x="60.828125" y="10" dominant-baseline="central" font-size="12" font-family="Arial" fill="#858585">PAS fold</text></g><g transform="translate(0,115)"><rect width="15" height="20" stroke="rgb(177, 126, 69)" fill="#fdb462" shape-rendering="crispEdges"/><text x="20" y="10" dominant-baseline="central" font-size="16" font-family="Arial" fill="black">PAS_11</text><text x="86.3359375" y="10" dominant-baseline="central" font-size="12" font-family="Arial" fill="#858585">PAS domain</text></g><g transform="translate(0,138)"><rect width="15" height="20" stroke="rgb(160, 137, 104)" fill="#e5c494" shape-rendering="crispEdges"/><text x="20" y="10" dominant-baseline="central" font-size="16" font-family="Arial" fill="black">NCOA_u2</text><text x="102.921875" y="10" dominant-baseline="central" font-size="12" font-family="Arial" fill="#858585">Unstructured region on nuclear receptor coactivator protein</text></g><g transform="translate(0,161)"><rect width="15" height="20" stroke="rgb(99, 148, 139)" fill="#8dd3c7" shape-rendering="crispEdges"/><text x="20" y="10" dominant-baseline="central" font-size="16" font-family="Arial" fill="black">SRC-1</text><text x="78.0078125" y="10" dominant-baseline="central" font-size="12" font-family="Arial" fill="#858585">Steroid receptor coactivator</text></g><g transform="translate(0,184)"><rect width="15" height="20" stroke="rgb(176, 90, 80)" fill="#fb8072" shape-rendering="crispEdges"/><text x="20" y="10" dominant-baseline="central" font-size="16" font-family="Arial" fill="black">DUF4927</text><text x="98.4765625" y="10" dominant-baseline="central" font-size="12" font-family="Arial" fill="#858585">Domain of unknown function (DUF4927)</text></g><g transform="translate(0,207)"><rect width="15" height="20" stroke="rgb(162, 162, 111)" fill="#E8E89E" shape-rendering="crispEdges"/><text x="20" y="10" dominant-baseline="central" font-size="16" font-family="Arial" fill="black">Nuc_rec_co-act</text><text x="142.046875" y="10" dominant-baseline="central" font-size="12" font-family="Arial" fill="#858585">Nuclear receptor coactivator</text></g><g transform="translate(0,230)"><rect width="15" height="20" stroke="rgb(90, 124, 148)" fill="#80b1d3" shape-rendering="crispEdges"/><text x="20" y="10" dominant-baseline="central" font-size="16" font-family="Arial" fill="black">DUF1518</text><text x="98.4765625" y="10" dominant-baseline="central" font-size="12" font-family="Arial" fill="#858585">Domain of unknown function (DUF1518)</text></g></g><g transform="translate(960.1875,752.7750000000001)"><g transform="translate(0,0)"><circle cx="10" cy="10" r="10" fill="#3987CC"/><text x="30" y="10" dominant-baseline="central" font-size="16" font-family="Arial" fill="#3987CC">MISSENSE, n=12</text></g><g transform="translate(0,23)"><circle cx="10" cy="10" r="10" fill="#ff7f0e"/><text x="30" y="10" dominant-baseline="central" font-size="16" font-family="Arial" fill="#ff7f0e">NONSENSE, n=1</text></g><g transform="translate(0,46)"><circle cx="10" cy="10" r="10" fill="#92a2d4"/><text x="30" y="10" dominant-baseline="central" font-size="16" font-family="Arial" fill="#92a2d4">SNV, n=5</text></g><g transform="translate(0,69)"><circle cx="10" cy="10" r="10" fill="#2ca02c"/><text x="30" y="10" dominant-baseline="central" font-size="16" font-family="Arial" fill="#2ca02c">SILENT, n=4</text></g><g transform="translate(0,92)"><circle cx="10" cy="10" r="10" fill="#998199"/><text x="30" y="10" dominant-baseline="central" font-size="16" font-family="Arial" fill="#998199">UTR_3, n=1</text></g></g></svg>