<svg xmlns="http://www.w3.org/2000/svg" data-testid="sjpp_block_svg" width="1275.9765625" height="765.2508680555555"><g transform="translate(0,0)"><g transform="translate(145.9765625, 0)"/><rect fill="#FFFF99" x="824" width="0" height="587.2508680555555"/><g transform="translate(145.9765625, 23)"><g transform="translate(0,0)"><text text-anchor="end" x="-13" y="-10" dominant-baseline="central" font-size="13" font-family="Arial">Protein length</text><g><g transform="translate(0,0)" fill="none" font-size="10" font-family="sans-serif" text-anchor="middle"><path class="domain" stroke="black" d="M0,-6V0H1020V-6" fill="none" stroke-width="1" shape-rendering="crispEdges"/><g class="tick" opacity="1" transform="translate(84.07993338884262,0)"><line stroke="black" y2="-6" shape-rendering="crispEdges"/><text fill="black" y="-9" dy="0em" font-family="Arial" font-size="12px" style="cursor: default;">100</text></g><g class="tick" opacity="1" transform="translate(169.00915903413824,0)"><line stroke="black" y2="-6" shape-rendering="crispEdges"/><text fill="black" y="-9" dy="0em" font-family="Arial" font-size="12px" style="cursor: default;">200</text></g><g class="tick" opacity="1" transform="translate(253.9383846794338,0)"><line stroke="black" y2="-6" shape-rendering="crispEdges"/><text fill="black" y="-9" dy="0em" font-family="Arial" font-size="12px" style="cursor: default;">300</text></g><g class="tick" opacity="1" transform="translate(338.86761032472936,0)"><line stroke="black" y2="-6" shape-rendering="crispEdges"/><text fill="black" y="-9" dy="0em" font-family="Arial" font-size="12px" style="cursor: default;">400</text></g><g class="tick" opacity="1" transform="translate(423.796835970025,0)"><line stroke="black" y2="-6" shape-rendering="crispEdges"/><text fill="black" y="-9" dy="0em" font-family="Arial" font-size="12px" style="cursor: default;">500</text></g><g class="tick" opacity="1" transform="translate(508.7260616153206,0)"><line stroke="black" y2="-6" shape-rendering="crispEdges"/><text fill="black" y="-9" dy="0em" font-family="Arial" font-size="12px" style="cursor: default;">600</text></g><g class="tick" opacity="1" transform="translate(593.6552872606162,0)"><line stroke="black" y2="-6" shape-rendering="crispEdges"/><text fill="black" y="-9" dy="0em" font-family="Arial" font-size="12px" style="cursor: default;">700</text></g><g class="tick" opacity="1" transform="translate(678.5845129059118,0)"><line stroke="black" y2="-6" shape-rendering="crispEdges"/><text fill="black" y="-9" dy="0em" font-family="Arial" font-size="12px" style="cursor: default;">800</text></g><g class="tick" opacity="1" transform="translate(763.5137385512073,0)"><line stroke="black" y2="-6" shape-rendering="crispEdges"/><text fill="black" y="-9" dy="0em" font-family="Arial" font-size="12px" style="cursor: default;">900</text></g><g class="tick" opacity="1" transform="translate(848.442964196503,0)"><line stroke="black" y2="-6" shape-rendering="crispEdges"/><text fill="black" y="-9" dy="0em" font-family="Arial" font-size="12px" style="cursor: default;">1000</text></g><g class="tick" opacity="1" transform="translate(933.3721898417984,0)"><line stroke="black" y2="-6" shape-rendering="crispEdges"/><text fill="black" y="-9" dy="0em" font-family="Arial" font-size="12px" style="cursor: default;">1100</text></g><g class="tick" opacity="1" transform="translate(1018.301415487094,0)"><line stroke="black" y2="-6" shape-rendering="crispEdges"/><text fill="black" y="-9" dy="0em" font-family="Arial" font-size="12px" style="cursor: default;">1200</text></g></g></g><rect fill="white" fill-opacity="0" x="0" y="-23" width="1020" height="26"/></g><g transform="translate(1020, 0)"/></g><g data-testid="sja_sample_menu_opener" transform="translate(0, 424.8039855957031)"><g transform="translate(1165.9765625, 0)"/><g transform="translate(145.9765625, 0)"><rect fill="white" fill-opacity="0" width="1020" height="167.44687499999998"/><g transform="translate(0,0)" style="cursor: default;"><g class="sja_skg" transform="translate(241.90673828125, 57.400001525878906)"><g transform="translate(0, 7)" class="sja_aa_discg"><circle fill="#2ca02c" stroke="white" r="6.5"/><text font-size="12" fill="#2ca02c" x="8" y="3.5999999999999996" font-family="Arial" class="sja_aa_disclabel" fill-opacity="1" transform="scale(1) rotate(0)">c.855C&gt;T(p.=)</text><circle r="6.5" stroke="#2ca02c" class="sja_aa_disckick" fill="white" fill-opacity="0" stroke-opacity="0" transform="scale(1)"/><path d="M4.286263797015736e-16,-7L4.286263797015736e-16,-7Z" fill="#2ca02c" class="sja_aa_discrim" fill-opacity="1" stroke-opacity="1"/></g><circle class="sja_aa_skkick" fill="white" fill-opacity="0" stroke="none" r="8" cy="7" transform="scale(0)"/><path class="sja_aa_stem" d="M0,0v-14l0,-19.6v-23.799999999999997" stroke="#2ca02c" fill="none"/></g><g class="sja_skg" transform="translate(464.70440673828125, 57.400001525878906)"><g transform="translate(0, 7)" class="sja_aa_discg"><circle fill="#3987CC" stroke="white" r="6.5"/><text font-size="12" fill="#3987CC" x="8" y="3.5999999999999996" font-family="Arial" class="sja_aa_disclabel" fill-opacity="1" transform="scale(1) rotate(0)">p.Gly548Ser</text><circle r="6.5" stroke="#3987CC" class="sja_aa_disckick" fill="white" fill-opacity="0" stroke-opacity="0" transform="scale(1)"/><path d="M4.286263797015736e-16,-7L4.286263797015736e-16,-7Z" fill="#3987CC" class="sja_aa_discrim" fill-opacity="1" stroke-opacity="1"/></g><circle class="sja_aa_skkick" fill="white" fill-opacity="0" stroke="none" r="8" cy="7" transform="scale(0)"/><path class="sja_aa_stem" d="M0,0v-14l0,-19.6v-23.799999999999997" stroke="#3987CC" fill="none"/></g><g class="sja_skg" transform="translate(735.0624389648438, 57.400001525878906)"><g transform="translate(0, 7)" class="sja_aa_discg"><circle fill="#3987CC" stroke="white" r="6.5"/><text font-size="12" fill="#3987CC" x="8" y="3.5999999999999996" font-family="Arial" class="sja_aa_disclabel" fill-opacity="1" transform="scale(1) rotate(0)">p.Cys866Tyr</text><circle r="6.5" stroke="#3987CC" class="sja_aa_disckick" fill="white" fill-opacity="0" stroke-opacity="0" transform="scale(1)"/><path d="M4.286263797015736e-16,-7L4.286263797015736e-16,-7Z" fill="#3987CC" class="sja_aa_discrim" fill-opacity="1" stroke-opacity="1"/></g><circle class="sja_aa_skkick" fill="white" fill-opacity="0" stroke="none" r="8" cy="7" transform="scale(0)"/><path class="sja_aa_stem" d="M0,0v-14l0,-19.6v-23.799999999999997" stroke="#3987CC" fill="none"/></g><g class="sja_skg" transform="translate(859.3422241210938, 57.400001525878906)"><g transform="translate(0, 7)" class="sja_aa_discg"><circle fill="#2ca02c" stroke="white" r="6.5"/><text font-size="12" fill="#2ca02c" x="8" y="3.5999999999999996" font-family="Arial" class="sja_aa_disclabel" fill-opacity="1" transform="rotate(90)">c.3036C&gt;T(p.=)</text><circle r="6.5" stroke="#2ca02c" class="sja_aa_disckick" fill="white" fill-opacity="0" stroke-opacity="0" transform="scale(1)"/><path d="M4.286263797015736e-16,-7L4.286263797015736e-16,-7Z" fill="#2ca02c" class="sja_aa_discrim" fill-opacity="1" stroke-opacity="1"/></g><circle class="sja_aa_skkick" fill="white" fill-opacity="0" stroke="none" r="8" cy="7" transform="scale(0)"/><path class="sja_aa_stem" d="M0,0v-14l0,-19.6v-23.799999999999997" stroke="#2ca02c" fill="none"/></g><g class="sja_skg" transform="translate(923.6053466796875, 57.400001525878906)"><g transform="translate(0, 7)" class="sja_aa_discg"><circle fill="#3987CC" stroke="white" r="6.5"/><text font-size="12" fill="#3987CC" x="8" y="3.5999999999999996" font-family="Arial" class="sja_aa_disclabel" fill-opacity="1" transform="rotate(90)">p.Gly1088Glu</text><circle r="6.5" stroke="#3987CC" class="sja_aa_disckick" fill="white" fill-opacity="0" stroke-opacity="0" transform="scale(1)"/><path d="M4.286263797015736e-16,-7L4.286263797015736e-16,-7Z" fill="#3987CC" class="sja_aa_discrim" fill-opacity="1" stroke-opacity="1"/></g><circle class="sja_aa_skkick" fill="white" fill-opacity="0" stroke="none" r="8" cy="7" transform="scale(0)"/><path class="sja_aa_stem" d="M0,0v-14l0,-19.6v-23.799999999999997" stroke="#3987CC" fill="none"/></g><g class="sja_skg" transform="translate(989.5670166015625, 57.400001525878906)"><g transform="translate(0, 7)" class="sja_aa_discg"><circle fill="#3987CC" stroke="white" r="6.5"/><text font-size="12" fill="#3987CC" x="8" y="3.5999999999999996" font-family="Arial" class="sja_aa_disclabel" fill-opacity="1" transform="rotate(90)">p.Gln1166Glu</text><circle r="6.5" stroke="#3987CC" class="sja_aa_disckick" fill="white" fill-opacity="0" stroke-opacity="0" transform="scale(1)"/><path d="M4.286263797015736e-16,-7L4.286263797015736e-16,-7Z" fill="#3987CC" class="sja_aa_discrim" fill-opacity="1" stroke-opacity="1"/></g><circle class="sja_aa_skkick" fill="white" fill-opacity="0" stroke="none" r="8" cy="7" transform="scale(0)"/><path class="sja_aa_stem" d="M0,0v-14l0,-19.6v-23.799999999999997" stroke="#3987CC" fill="none"/></g></g><g/><g transform="scale(0)"><rect fill="white" fill-opacity="0" width="1020" height="0"/><text data-testid="loading_message" fill="rgb(97, 124, 148)" fill-opacity="0" font-weight="bold" font-size="18px" text-anchor="middle" dominant-baseline="middle" x="510" y="15">Loading ...</text><line stroke="rgb(97, 124, 148)" stroke-width="2px" y1="30" y2="30" x2="0"/></g></g><g transform="translate(142.9765625, 0)"><text font-size="14" font-family="Arial" y="7" text-anchor="end" dominant-baseline="central" fill="black" x="-10" font-weight="bold">GAMBL DLBCL</text><g/><text font-size="14" font-family="Arial" y="26" text-anchor="end" dominant-baseline="central" class="sja_clbtext2" fill="black" x="-10">6 of 64 mutations</text></g><g transform="translate(1175.9765625, 0)"/></g><g data-testid="sja_sample_menu_opener" transform="translate(0, 31)"><g transform="translate(1165.9765625, 0)"/><g transform="translate(145.9765625, 0)"><rect fill="white" fill-opacity="0" width="1020" height="144.7375"/><g transform="translate(0,0)" style="cursor: default;"><g class="sja_skg" transform="translate(452.2481384277344, 82.9375)"><g transform="translate(0, -7)" class="sja_aa_discg"><circle fill="#3987CC" stroke="white" r="6.5"/><text font-size="12" fill="#3987CC" x="8" y="3.5999999999999996" font-family="Arial" class="sja_aa_disclabel" fill-opacity="1" transform="rotate(-90)">p.Arg533His</text><circle r="6.5" stroke="#3987CC" class="sja_aa_disckick" fill="white" fill-opacity="0" stroke-opacity="0" transform="scale(1)"/><path d="M4.286263797015736e-16,-7L4.286263797015736e-16,-7Z" fill="#3987CC" class="sja_aa_discrim" fill-opacity="1" stroke-opacity="1"/></g><circle class="sja_aa_skkick" fill="white" fill-opacity="0" stroke="none" r="8" cy="-7" transform="scale(0)"/><path class="sja_aa_stem" d="M0,0v14l0,14v23.799999999999997" stroke="#3987CC" fill="none"/></g><g class="sja_skg" transform="translate(512.2647705078125, 82.9375)"><g transform="translate(0, -7)" class="sja_aa_discg"><circle fill="#3987CC" stroke="white" r="6.5"/><text font-size="12" fill="#3987CC" x="8" y="3.5999999999999996" font-family="Arial" class="sja_aa_disclabel" fill-opacity="1" transform="scale(1) rotate(0)">p.Glu604Lys</text><circle r="6.5" stroke="#3987CC" class="sja_aa_disckick" fill="white" fill-opacity="0" stroke-opacity="0" transform="scale(1)"/><path d="M4.286263797015736e-16,-7L4.286263797015736e-16,-7Z" fill="#3987CC" class="sja_aa_discrim" fill-opacity="1" stroke-opacity="1"/></g><circle class="sja_aa_skkick" fill="white" fill-opacity="0" stroke="none" r="8" cy="-7" transform="scale(0)"/><path class="sja_aa_stem" d="M0,0v14l0,14v23.799999999999997" stroke="#3987CC" fill="none"/></g></g><g/><g transform="scale(0)"><rect fill="white" fill-opacity="0" width="1020" height="0"/><text data-testid="loading_message" fill="rgb(97, 124, 148)" fill-opacity="0" font-weight="bold" font-size="18px" text-anchor="middle" dominant-baseline="middle" x="510" y="15">Loading ...</text><line stroke="rgb(97, 124, 148)" stroke-width="2px" y1="30" y2="30" x2="0"/></g></g><g transform="translate(142.9765625, 0)"><text font-size="14" font-family="Arial" y="7" text-anchor="end" dominant-baseline="central" fill="black" x="-10" font-weight="bold">GAMBL FL</text><g/><text font-size="14" font-family="Arial" y="26" text-anchor="end" dominant-baseline="central" class="sja_clbtext2" fill="black" x="-10">2 of 19 mutations</text></g><g transform="translate(1175.9765625, 0)"/></g><g data-testid="sja_sample_menu_opener" transform="translate(0, 246.7375030517578)"><g transform="translate(1165.9765625, 0)"/><g transform="translate(145.9765625, 0)"><rect fill="white" fill-opacity="0" width="1020" height="178.06649305555555"/><g transform="translate(0,0)" style="cursor: default;"><g class="sja_skg" transform="translate(17, 67.35555267333984)"><g transform="translate(0, 7)" class="sja_aa_discg"><circle fill="#9467bd" stroke="white" r="6.5"/><text font-size="12" fill="#9467bd" x="8" y="3.5999999999999996" font-family="Arial" class="sja_aa_disclabel" fill-opacity="1" transform="rotate(90)">c.62+4G&gt;A</text><circle r="6.5" stroke="#9467bd" class="sja_aa_disckick" fill="white" fill-opacity="0" stroke-opacity="0" transform="scale(1)"/><path d="M4.286263797015736e-16,-7L4.286263797015736e-16,-7Z" fill="#9467bd" class="sja_aa_discrim" fill-opacity="1" stroke-opacity="1"/></g><circle class="sja_aa_skkick" fill="white" fill-opacity="0" stroke="none" r="8" cy="7" transform="scale(0)"/><path class="sja_aa_stem" d="M0,0v-14l0.5520399666944193,-29.555555555555557v-23.799999999999997" stroke="#9467bd" fill="none"/></g><g class="sja_skg" transform="translate(43, 67.35555267333984)"><g transform="translate(0, 7)" class="sja_aa_discg"><circle fill="#2ca02c" stroke="white" r="6.5"/><text font-size="12" fill="#2ca02c" x="8" y="3.5999999999999996" font-family="Arial" class="sja_aa_disclabel" fill-opacity="1" transform="rotate(90)">c.153G&gt;A(p.=)</text><circle r="6.5" stroke="#2ca02c" class="sja_aa_disckick" fill="white" fill-opacity="0" stroke-opacity="0" transform="scale(1)"/><path d="M4.286263797015736e-16,-7L4.286263797015736e-16,-7Z" fill="#2ca02c" class="sja_aa_discrim" fill-opacity="1" stroke-opacity="1"/></g><circle class="sja_aa_skkick" fill="white" fill-opacity="0" stroke="none" r="8" cy="7" transform="scale(0)"/><path class="sja_aa_stem" d="M0,0v-14l0.1723563696919186,-29.555555555555557v-23.799999999999997" stroke="#2ca02c" fill="none"/></g><g class="sja_skg" transform="translate(106, 67.35555267333984)"><g transform="translate(0, 7)" class="sja_aa_discg"><circle fill="#2ca02c" stroke="white" r="6.5"/><text font-size="12" fill="#2ca02c" x="8" y="3.5999999999999996" font-family="Arial" class="sja_aa_disclabel" fill-opacity="1" transform="rotate(90)">c.375G&gt;A(p.=)</text><circle r="6.5" stroke="#2ca02c" class="sja_aa_disckick" fill="white" fill-opacity="0" stroke-opacity="0" transform="scale(1)"/><path d="M4.286263797015736e-16,-7L4.286263797015736e-16,-7Z" fill="#2ca02c" class="sja_aa_discrim" fill-opacity="1" stroke-opacity="1"/></g><circle class="sja_aa_skkick" fill="white" fill-opacity="0" stroke="none" r="8" cy="7" transform="scale(0)"/><path class="sja_aa_stem" d="M0,0v-14l0.019983347210654756,-29.555555555555557v-23.799999999999997" stroke="#2ca02c" fill="none"/></g><g class="sja_skg" transform="translate(187, 67.35555267333984)"><g transform="translate(0, 7)" class="sja_aa_discg"><circle fill="#3987CC" stroke="white" r="6.5"/><text font-size="12" fill="#3987CC" x="8" y="3.5999999999999996" font-family="Arial" class="sja_aa_disclabel" fill-opacity="1" transform="scale(1) rotate(0)">p.Glu222Lys</text><circle r="6.5" stroke="#3987CC" class="sja_aa_disckick" fill="white" fill-opacity="0" stroke-opacity="0" transform="scale(1)"/><path d="M4.286263797015736e-16,-7L4.286263797015736e-16,-7Z" fill="#3987CC" class="sja_aa_discrim" fill-opacity="1" stroke-opacity="1"/></g><circle class="sja_aa_skkick" fill="white" fill-opacity="0" stroke="none" r="8" cy="7" transform="scale(0)"/><path class="sja_aa_stem" d="M0,0v-14l0.8351373855120698,-29.555555555555557v-23.799999999999997" stroke="#3987CC" fill="none"/></g><g class="sja_skg" transform="translate(344, 67.35555267333984)"><g transform="translate(0, 7)" class="sja_aa_discg"><circle fill="#3987CC" stroke="white" r="6.5"/><text font-size="12" fill="#3987CC" x="8" y="3.5999999999999996" font-family="Arial" class="sja_aa_disclabel" fill-opacity="1" transform="scale(1) rotate(0)">p.Val407Ile</text><circle r="6.5" stroke="#3987CC" class="sja_aa_disckick" fill="white" fill-opacity="0" stroke-opacity="0" transform="scale(1)"/><path d="M4.286263797015736e-16,-7L4.286263797015736e-16,-7Z" fill="#3987CC" class="sja_aa_discrim" fill-opacity="1" stroke-opacity="1"/></g><circle class="sja_aa_skkick" fill="white" fill-opacity="0" stroke="none" r="8" cy="7" transform="scale(0)"/><path class="sja_aa_stem" d="M0,0v-14l0.9542048293088783,-29.555555555555557v-23.799999999999997" stroke="#3987CC" fill="none"/></g><g class="sja_skg" transform="translate(497, 67.35555267333984)"><g transform="translate(0, 7)" class="sja_aa_discg"><circle fill="#3987CC" stroke="white" r="6.5"/><text font-size="12" fill="#3987CC" x="8" y="3.5999999999999996" font-family="Arial" class="sja_aa_disclabel" fill-opacity="1" transform="rotate(90)">p.Ser586Thr</text><circle r="6.5" stroke="#3987CC" class="sja_aa_disckick" fill="white" fill-opacity="0" stroke-opacity="0" transform="scale(1)"/><path d="M4.286263797015736e-16,-7L4.286263797015736e-16,-7Z" fill="#3987CC" class="sja_aa_discrim" fill-opacity="1" stroke-opacity="1"/></g><circle class="sja_aa_skkick" fill="white" fill-opacity="0" stroke="none" r="8" cy="7" transform="scale(0)"/><path class="sja_aa_stem" d="M0,0v-14l0.2606161532056035,-29.555555555555557v-23.799999999999997" stroke="#3987CC" fill="none"/></g><g class="sja_skg" transform="translate(538, 67.35555267333984)"><g transform="translate(0, 7)" class="sja_aa_discg"><circle fill="#3987CC" stroke="white" r="6.5"/><text font-size="12" fill="#3987CC" x="8" y="3.5999999999999996" font-family="Arial" class="sja_aa_disclabel" fill-opacity="1" transform="rotate(90)">p.Arg635His</text><circle r="6.5" stroke="#3987CC" class="sja_aa_disckick" fill="white" fill-opacity="0" stroke-opacity="0" transform="scale(1)"/><path d="M4.286263797015736e-16,-7L4.286263797015736e-16,-7Z" fill="#3987CC" class="sja_aa_discrim" fill-opacity="1" stroke-opacity="1"/></g><circle class="sja_aa_skkick" fill="white" fill-opacity="0" stroke="none" r="8" cy="7" transform="scale(0)"/><path class="sja_aa_stem" d="M0,0v-14l0.8759367194004426,-29.555555555555557v-23.799999999999997" stroke="#3987CC" fill="none"/></g><g class="sja_skg" transform="translate(552, 67.35555267333984)"><g transform="translate(0, 7)" class="sja_aa_discg"><circle fill="#2ca02c" stroke="white" r="6.5"/><text font-size="12" fill="#2ca02c" x="8" y="3.5999999999999996" font-family="Arial" class="sja_aa_disclabel" fill-opacity="1" transform="scale(1) rotate(0)">c.1932C&gt;T(p.=)</text><circle r="6.5" stroke="#2ca02c" class="sja_aa_disckick" fill="white" fill-opacity="0" stroke-opacity="0" transform="scale(1)"/><path d="M4.286263797015736e-16,-7L4.286263797015736e-16,-7Z" fill="#2ca02c" class="sja_aa_discrim" fill-opacity="1" stroke-opacity="1"/></g><circle class="sja_aa_skkick" fill="white" fill-opacity="0" stroke="none" r="8" cy="7" transform="scale(0)"/><path class="sja_aa_stem" d="M0,0v-14l-5.197335553705329,-29.555555555555557v-23.799999999999997" stroke="#2ca02c" fill="none"/></g><g class="sja_skg" transform="translate(727, 67.35555267333984)"><g transform="translate(0, 7)" class="sja_aa_discg"><circle fill="#2ca02c" stroke="white" r="6.5"/><text font-size="12" fill="#2ca02c" x="8" y="3.5999999999999996" font-family="Arial" class="sja_aa_disclabel" fill-opacity="1" transform="rotate(90)">c.2571G&gt;T(p.=)</text><circle r="6.5" stroke="#2ca02c" class="sja_aa_disckick" fill="white" fill-opacity="0" stroke-opacity="0" transform="scale(1)"/><path d="M4.286263797015736e-16,-7L4.286263797015736e-16,-7Z" fill="#2ca02c" class="sja_aa_discrim" fill-opacity="1" stroke-opacity="1"/></g><circle class="sja_aa_skkick" fill="white" fill-opacity="0" stroke="none" r="8" cy="7" transform="scale(0)"/><path class="sja_aa_stem" d="M0,0v-14l0.7019150707742483,-29.555555555555557v-23.799999999999997" stroke="#2ca02c" fill="none"/></g><g class="sja_skg" transform="translate(772, 67.35555267333984)"><g transform="translate(0, 7)" class="sja_aa_discg"><circle fill="#3987CC" stroke="white" r="6.5"/><text font-size="12" fill="#3987CC" x="8" y="3.5999999999999996" font-family="Arial" class="sja_aa_disclabel" fill-opacity="1" transform="scale(1) rotate(0)">p.Gly910Glu</text><circle r="6.5" stroke="#3987CC" class="sja_aa_disckick" fill="white" fill-opacity="0" stroke-opacity="0" transform="scale(1)"/><path d="M4.286263797015736e-16,-7L4.286263797015736e-16,-7Z" fill="#3987CC" class="sja_aa_discrim" fill-opacity="1" stroke-opacity="1"/></g><circle class="sja_aa_skkick" fill="white" fill-opacity="0" stroke="none" r="8" cy="7" transform="scale(0)"/><path class="sja_aa_stem" d="M0,0v-14l0.4313072439632606,-29.555555555555557v-23.799999999999997" stroke="#3987CC" fill="none"/></g></g><g/><g transform="scale(0)"><rect fill="white" fill-opacity="0" width="1020" height="0"/><text data-testid="loading_message" fill="rgb(97, 124, 148)" fill-opacity="0" font-weight="bold" font-size="18px" text-anchor="middle" dominant-baseline="middle" x="510" y="15">Loading ...</text><line stroke="rgb(97, 124, 148)" stroke-width="2px" y1="30" y2="30" x2="0"/></g></g><g transform="translate(142.9765625, 0)"><text font-size="14" font-family="Arial" y="7" text-anchor="end" dominant-baseline="central" fill="black" x="-10" font-weight="bold">GAMBL BL</text><g/><text font-size="14" font-family="Arial" y="26" text-anchor="end" dominant-baseline="central" class="sja_clbtext2" fill="black" x="-10">10 of 108 mutations</text></g><g transform="translate(1175.9765625, 0)"/></g><g data-testid="sja_sample_menu_opener" transform="translate(0, 222.7375030517578)"><g transform="translate(1165.9765625, 0)"/><g transform="translate(145.9765625, 0)"><rect fill="white" fill-opacity="0" width="1020" height="24"/><g transform="translate(0,0)" style="cursor: default;"><text x="510" text-anchor="middle" y="7" dominant-baseline="central" font-size="14px" font-family="Arial">GAMBL MCL: no mutation in undefined</text></g><g/><g transform="scale(0)"><rect fill="white" fill-opacity="0" width="1020" height="0"/><text data-testid="loading_message" fill="rgb(97, 124, 148)" fill-opacity="0" font-weight="bold" font-size="18px" text-anchor="middle" dominant-baseline="middle" x="510" y="15">Loading ...</text><line stroke="rgb(97, 124, 148)" stroke-width="2px" y1="30" y2="30" x2="0"/></g></g><g transform="translate(142.9765625, 0)"><text font-size="14" font-family="Arial" y="7" text-anchor="end" dominant-baseline="central" fill="black" x="-10" font-weight="bold">GAMBL MCL</text><g/><text font-size="14" font-family="Arial" y="26" text-anchor="end" dominant-baseline="central" class="sja_clbtext2" fill="black" x="-10"/></g><g transform="translate(1175.9765625, 0)"/></g><g data-testid="sja_sample_menu_opener" transform="translate(0, 175.7375030517578)"><g transform="translate(1165.9765625, 0)"/><g transform="translate(145.9765625, 0)"><rect fill="white" fill-opacity="0" width="1020" height="47"/><g transform="translate(0,0)" style="cursor: default;"><g><line x1="0" y1="18.5" x2="1019.9999999999997" y2="18.5" stroke="black" shape-rendering="crispEdges"/><rect x="0" width="17.55203996669442" height="37" fill="white"/><rect x="17.55203996669442" width="107.57701915070774" height="37" fill="white"/><rect x="54.354704412989165" width="70.77435470441299" height="37" fill="#bebada"/><rect x="125.12905911740216" width="18.68442964196503" height="37" fill="white"/><rect x="125.12905911740216" width="1" height="37" fill="#bebada"/><rect x="143.8134887593672" width="16.13655287260616" height="37" fill="white"/><rect x="159.95004163197336" width="16.13655287260616" height="37" fill="white"/><rect x="176.08659450457952" width="16.13655287260616" height="37" fill="white"/><rect x="192.22314737718568" width="452.1065778517901" height="37" fill="white"/><rect x="538.451290591174" width="105.87843463780182" height="37" fill="#E8E89E"/><rect x="236.9525395503747" width="139.28393005828474" height="37" fill="#a6d854"/><rect x="561.3821815154038" width="1.6985845129059116" height="37" fill="#80b1d3"/><rect x="614.8875936719401" width="1" height="37" fill="#8dd3c7"/><rect x="543.5470441298917" width="1" height="37" fill="#8dd3c7"/><rect x="610.6411323896752" width="1" height="37" fill="#8dd3c7"/><rect x="586.8609492089925" width="1" height="37" fill="#8dd3c7"/><rect x="539.300582847627" width="1" height="37" fill="#8dd3c7"/><rect x="613.1890091590342" width="1" height="37" fill="#8dd3c7"/><rect x="580.0666111573688" width="1" height="37" fill="#8dd3c7"/><rect x="564.7793505412156" width="1" height="37" fill="#8dd3c7"/><rect x="560.5328892589508" width="1" height="37" fill="#8dd3c7"/><rect x="604.6960865945045" width="1" height="37" fill="#8dd3c7"/><rect x="558.834304746045" width="1" height="37" fill="#8dd3c7"/><rect x="608.9425478767694" width="1" height="37" fill="#8dd3c7"/><rect x="588.5595337218983" width="1" height="37" fill="#8dd3c7"/><rect x="612.3397169025811" width="1" height="37" fill="#80b1d3"/><rect x="541.8484596169858" width="1" height="37" fill="#8dd3c7"/><rect x="582.6144879267276" width="1" height="37" fill="#8dd3c7"/><rect x="584.3130724396336" width="1" height="37" fill="#8dd3c7"/><rect x="556.2864279766861" width="1" height="37" fill="#8dd3c7"/><rect x="563.0807660283097" width="1" height="37" fill="#8dd3c7"/><rect x="644.3297252289758" width="48.40965861781848" height="37" fill="white"/><rect x="644.3297252289758" width="48.40965861781848" height="37" fill="#E8E89E"/><rect x="682.8309741881765" width="9.908409658617817" height="37" fill="#fb8072"/><rect x="664.1465445462114" width="18.68442964196503" height="37" fill="#fb8072"/><rect x="672.639467110741" width="1" height="37" fill="#8dd3c7"/><rect x="666.6944213155703" width="1" height="37" fill="#8dd3c7"/><rect x="691.323896752706" width="1" height="37" fill="#8dd3c7"/><rect x="648.8592839300583" width="1" height="37" fill="#8dd3c7"/><rect x="668.3930058284762" width="1" height="37" fill="#8dd3c7"/><rect x="688.7760199833472" width="1" height="37" fill="#8dd3c7"/><rect x="670.9408825978351" width="1" height="37" fill="#8dd3c7"/><rect x="692.7393838467942" width="47.560366361365524" height="37" fill="white"/><rect x="692.7393838467942" width="47.560366361365524" height="37" fill="#E8E89E"/><rect x="692.7393838467942" width="17.26894254787677" height="37" fill="#fb8072"/><rect x="736.3363863447127" width="3.9633638634471273" height="37" fill="#fb8072"/><rect x="711.7069109075769" width="21.232306411323894" height="37" fill="#fb8072"/><rect x="714.2547876769357" width="1" height="37" fill="#8dd3c7"/><rect x="718.5012489592006" width="1" height="37" fill="#8dd3c7"/><rect x="694.7210657785178" width="1" height="37" fill="#8dd3c7"/><rect x="693.0224812656119" width="1" height="37" fill="#8dd3c7"/><rect x="717.6519567027476" width="1" height="37" fill="#80b1d3"/><rect x="696.4196502914237" width="1" height="37" fill="#8dd3c7"/><rect x="693.8717735220648" width="1" height="37" fill="#80b1d3"/><rect x="736.3363863447127" width="1" height="37" fill="#8dd3c7"/><rect x="715.9533721898417" width="1" height="37" fill="#8dd3c7"/><rect x="720.1998334721064" width="1" height="37" fill="#8dd3c7"/><rect x="711.7069109075769" width="1" height="37" fill="#8dd3c7"/><rect x="738.8842631140715" width="1" height="37" fill="#8dd3c7"/><rect x="740.2997502081597" width="48.40965861781848" height="37" fill="white"/><rect x="740.2997502081597" width="48.40965861781848" height="37" fill="#E8E89E"/><rect x="760.9658617818483" width="27.74354704412989" height="37" fill="#E8E89E"/><rect x="760.1165695253953" width="24.629475437135717" height="37" fill="#fb8072"/><rect x="784.7460449625311" width="3.9633638634471273" height="37" fill="#fb8072"/><rect x="740.2997502081597" width="19.816819317235634" height="37" fill="#fb8072"/><rect x="762.6644462947542" width="1" height="37" fill="#8dd3c7"/><rect x="784.7460449625311" width="1" height="37" fill="#8dd3c7"/><rect x="764.3630308076602" width="1" height="37" fill="#8dd3c7"/><rect x="743.1307243963362" width="1" height="37" fill="#8dd3c7"/><rect x="740.5828476269774" width="1" height="37" fill="#8dd3c7"/><rect x="744.8293089092422" width="1" height="37" fill="#8dd3c7"/><rect x="768.6094920899249" width="1" height="37" fill="#8dd3c7"/><rect x="766.061615320566" width="1" height="37" fill="#80b1d3"/><rect x="788.1432139883428" width="1" height="37" fill="#80b1d3"/><rect x="787.2939217318899" width="1" height="37" fill="#8dd3c7"/><rect x="760.1165695253953" width="1" height="37" fill="#8dd3c7"/><rect x="766.910907577019" width="1" height="37" fill="#8dd3c7"/><rect x="788.7094088259782" width="48.40965861781848" height="37" fill="white"/><rect x="788.7094088259782" width="47.84346378018318" height="37" fill="#E8E89E"/><rect x="788.7094088259782" width="48.40965861781848" height="37" fill="#E8E89E"/><rect x="808.5262281432139" width="24.629475437135717" height="37" fill="#fb8072"/><rect x="788.7094088259782" width="19.816819317235634" height="37" fill="#fb8072"/><rect x="833.1557035803496" width="3.9633638634471273" height="37" fill="#fb8072"/><rect x="789.8417985012488" width="1.6985845129059116" height="37" fill="#80b1d3"/><rect x="833.1557035803496" width="1" height="37" fill="#8dd3c7"/><rect x="811.0741049125727" width="1" height="37" fill="#8dd3c7"/><rect x="808.5262281432139" width="1" height="37" fill="#8dd3c7"/><rect x="791.5403830141547" width="1" height="37" fill="#8dd3c7"/><rect x="793.2389675270607" width="1" height="37" fill="#8dd3c7"/><rect x="835.7035803497084" width="1" height="37" fill="#8dd3c7"/><rect x="815.3205661948375" width="1" height="37" fill="#8dd3c7"/><rect x="788.9925062447959" width="1" height="37" fill="#8dd3c7"/><rect x="817.0191507077434" width="1" height="37" fill="#8dd3c7"/><rect x="811.9233971690257" width="1" height="37" fill="#80b1d3"/><rect x="788.7094088259782" width="1" height="37" fill="#80b1d3"/><rect x="812.7726894254787" width="1" height="37" fill="#8dd3c7"/><rect x="789.8417985012488" width="1" height="37" fill="#80b1d3"/><rect x="837.1190674437967" width="48.40965861781848" height="37" fill="white"/><rect x="837.1190674437967" width="48.40965861781848" height="37" fill="#E8E89E"/><rect x="856.9358867610323" width="23.780183180682762" height="37" fill="#fb8072"/><rect x="881.565362198168" width="3.9633638634471273" height="37" fill="#fb8072"/><rect x="837.1190674437967" width="19.816819317235634" height="37" fill="#fb8072"/><rect x="839.1007493755202" width="1" height="37" fill="#80b1d3"/><rect x="885.5287260616151" width="48.40965861781848" height="37" fill="white"/><rect x="885.5287260616151" width="48.40965861781848" height="37" fill="#E8E89E"/><rect x="929.9750208159865" width="3.9633638634471273" height="37" fill="#fb8072"/><rect x="885.5287260616151" width="19.816819317235634" height="37" fill="#fb8072"/><rect x="905.3455453788507" width="21.232306411323894" height="37" fill="#fb8072"/><rect x="911.2905911740214" width="1" height="37" fill="#80b1d3"/><rect x="887.5104079933386" width="1" height="37" fill="#80b1d3"/><rect x="933.9383846794335" width="48.40965861781848" height="37" fill="white"/><rect x="933.9383846794335" width="48.40965861781848" height="37" fill="#E8E89E"/><rect x="933.9383846794335" width="19.816819317235634" height="37" fill="#fb8072"/><rect x="981.7818484596166" width="1" height="37" fill="#80b1d3"/><rect x="959.7002497918398" width="1" height="37" fill="#80b1d3"/><rect x="982.3480432972519" width="37.65195670274771" height="37" fill="white"/><rect x="982.3480432972519" width="1.9816819317235637" height="37" fill="#E8E89E"/><rect x="982.3480432972519" width="1" height="37" fill="#80b1d3"/><rect x="983.4804329725225" width="1" height="37" fill="#80b1d3"/><line x1="0" x2="1019.9999999999997" stroke="black"/><line x1="0" x2="1019.9999999999997" y1="37" y2="37" stroke="black"/><line x1="0" x2="0" y2="37" stroke="black"/><line x1="1019.9999999999997" x2="1019.9999999999997" y2="37" stroke="black"/><line class="exonboundaryclass" x1="17.55203996669442" x2="17.55203996669442" y1="0" y2="37" stroke="black" stroke-dasharray="4,2" shape-rendering="crispEdges" stroke-opacity="1"/><line class="exonboundaryclass" x1="125.12905911740216" x2="125.12905911740216" y1="0" y2="37" stroke="black" stroke-dasharray="4,2" shape-rendering="crispEdges" stroke-opacity="1"/><line class="exonboundaryclass" x1="143.8134887593672" x2="143.8134887593672" y1="0" y2="37" stroke="black" stroke-dasharray="4,2" shape-rendering="crispEdges" stroke-opacity="1"/><line class="exonboundaryclass" x1="159.95004163197336" x2="159.95004163197336" y1="0" y2="37" stroke="black" stroke-dasharray="4,2" shape-rendering="crispEdges" stroke-opacity="1"/><line class="exonboundaryclass" x1="176.08659450457952" x2="176.08659450457952" y1="0" y2="37" stroke="black" stroke-dasharray="4,2" shape-rendering="crispEdges" stroke-opacity="1"/><line class="exonboundaryclass" x1="192.22314737718568" x2="192.22314737718568" y1="0" y2="37" stroke="black" stroke-dasharray="4,2" shape-rendering="crispEdges" stroke-opacity="1"/><line class="exonboundaryclass" x1="644.3297252289758" x2="644.3297252289758" y1="0" y2="37" stroke="black" stroke-dasharray="4,2" shape-rendering="crispEdges" stroke-opacity="1"/><line class="exonboundaryclass" x1="692.7393838467942" x2="692.7393838467942" y1="0" y2="37" stroke="black" stroke-dasharray="4,2" shape-rendering="crispEdges" stroke-opacity="1"/><line class="exonboundaryclass" x1="740.2997502081597" x2="740.2997502081597" y1="0" y2="37" stroke="black" stroke-dasharray="4,2" shape-rendering="crispEdges" stroke-opacity="1"/><line class="exonboundaryclass" x1="788.7094088259782" x2="788.7094088259782" y1="0" y2="37" stroke="black" stroke-dasharray="4,2" shape-rendering="crispEdges" stroke-opacity="1"/><line class="exonboundaryclass" x1="837.1190674437967" x2="837.1190674437967" y1="0" y2="37" stroke="black" stroke-dasharray="4,2" shape-rendering="crispEdges" stroke-opacity="1"/><line class="exonboundaryclass" x1="885.5287260616151" x2="885.5287260616151" y1="0" y2="37" stroke="black" stroke-dasharray="4,2" shape-rendering="crispEdges" stroke-opacity="1"/><line class="exonboundaryclass" x1="933.9383846794335" x2="933.9383846794335" y1="0" y2="37" stroke="black" stroke-dasharray="4,2" shape-rendering="crispEdges" stroke-opacity="1"/><line class="exonboundaryclass" x1="982.3480432972519" x2="982.3480432972519" y1="0" y2="37" stroke="black" stroke-dasharray="4,2" shape-rendering="crispEdges" stroke-opacity="1"/><g transform="translate(0,18.5)" fill="none" font-size="10" font-family="sans-serif" text-anchor="middle"><path class="domain" stroke="none" d="M0.4246461282264779,0H1019.9999999999997" fill="none" stroke-width="0" shape-rendering="crispEdges"/><g class="tick" opacity="1" transform="translate(84.4165295324762,0)"><line stroke="black" y2="0" shape-rendering="crispEdges"/><text fill="black" y="3" dy="0.71em" font-family="Arial" font-size="11.666666666666666px" style="cursor: default;">100</text></g><g class="tick" opacity="1" transform="translate(169.35185590954907,0)"><line stroke="black" y2="0" shape-rendering="crispEdges"/><text fill="black" y="3" dy="0.71em" font-family="Arial" font-size="11.666666666666666px" style="cursor: default;">200</text></g><g class="tick" opacity="1" transform="translate(254.38245384485356,0)"><line stroke="black" y2="0" shape-rendering="crispEdges"/><text fill="black" y="3" dy="0.71em" font-family="Arial" font-size="11.666666666666666px" style="cursor: default;">300</text></g><g class="tick" opacity="1" transform="translate(339.338286390414,0)"><line stroke="black" y2="0" shape-rendering="crispEdges"/><text fill="black" y="3" dy="0.71em" font-family="Arial" font-size="11.666666666666666px" style="cursor: default;">400</text></g><g class="tick" opacity="1" transform="translate(424.29411893597444,0)"><line stroke="black" y2="0" shape-rendering="crispEdges"/><text fill="black" y="3" dy="0.71em" font-family="Arial" font-size="11.666666666666666px" style="cursor: default;">500</text></g><g class="tick" opacity="1" transform="translate(509.24995148153477,0)"><line stroke="black" y2="0" shape-rendering="crispEdges"/><text fill="black" y="3" dy="0.71em" font-family="Arial" font-size="11.666666666666666px" style="cursor: default;">600</text></g><g class="tick" opacity="1" transform="translate(594.2057840270952,0)"><line stroke="black" y2="0" shape-rendering="crispEdges"/><text fill="black" y="3" dy="0.71em" font-family="Arial" font-size="11.666666666666666px" style="cursor: default;">700</text></g><g class="tick" opacity="1" transform="translate(679.1109747724848,0)"><line stroke="black" y2="0" shape-rendering="crispEdges"/><text fill="black" y="3" dy="0.71em" font-family="Arial" font-size="11.666666666666666px" style="cursor: default;">800</text></g><g class="tick" opacity="1" transform="translate(764.0079173787924,0)"><line stroke="black" y2="0" shape-rendering="crispEdges"/><text fill="black" y="3" dy="0.71em" font-family="Arial" font-size="11.666666666666666px" style="cursor: default;">900</text></g><g class="tick" opacity="1" transform="translate(848.9023766744085,0)"><line stroke="black" y2="0" shape-rendering="crispEdges"/><text fill="black" y="3" dy="0.71em" font-family="Arial" font-size="11.666666666666666px" style="cursor: default;">1000</text></g><g class="tick" opacity="1" transform="translate(933.7968359700246,0)"><line stroke="black" y2="0" shape-rendering="crispEdges"/><text fill="black" y="3" dy="0.71em" font-family="Arial" font-size="11.666666666666666px" style="cursor: default;">1100</text></g><g class="tick" opacity="1" transform="translate(1018.3202886483483,0)"><line stroke="black" y2="0" shape-rendering="crispEdges"/><text fill="black" y="3" dy="0.71em" font-family="Arial" font-size="11.666666666666666px" style="cursor: default;">1200</text></g></g><rect x="0" width="17.55203996669442" height="37" fill="#858585" fill-opacity="0"/><rect x="17.55203996669442" width="107.57701915070774" height="37" fill="#858585" fill-opacity="0"/><rect x="125.12905911740216" width="18.68442964196503" height="37" fill="#858585" fill-opacity="0"/><rect x="143.8134887593672" width="16.13655287260616" height="37" fill="#858585" fill-opacity="0"/><rect x="159.95004163197336" width="16.13655287260616" height="37" fill="#858585" fill-opacity="0"/><rect x="176.08659450457952" width="16.13655287260616" height="37" fill="#858585" fill-opacity="0"/><rect x="192.22314737718568" width="452.1065778517901" height="37" fill="#858585" fill-opacity="0"/><rect x="644.3297252289758" width="48.40965861781848" height="37" fill="#858585" fill-opacity="0"/><rect x="692.7393838467942" width="47.560366361365524" height="37" fill="#858585" fill-opacity="0"/><rect x="740.2997502081597" width="48.40965861781848" height="37" fill="#858585" fill-opacity="0"/><rect x="788.7094088259782" width="48.40965861781848" height="37" fill="#858585" fill-opacity="0"/><rect x="837.1190674437967" width="48.40965861781848" height="37" fill="#858585" fill-opacity="0"/><rect x="885.5287260616151" width="48.40965861781848" height="37" fill="#858585" fill-opacity="0"/><rect x="933.9383846794335" width="48.40965861781848" height="37" fill="#858585" fill-opacity="0"/><rect x="982.3480432972519" width="37.65195670274771" height="37" fill="#858585" fill-opacity="0"/></g></g><g/><g transform="scale(0)"><rect fill="white" fill-opacity="0"/><text data-testid="loading_message" fill="rgb(97, 124, 148)" fill-opacity="0" font-weight="bold" font-size="18px" text-anchor="middle" dominant-baseline="middle">Loading ...</text><line stroke="rgb(97, 124, 148)" stroke-width="2px"/></g></g><g transform="translate(142.9765625, 0)"><text font-size="14" font-family="Arial" y="7" text-anchor="end" dominant-baseline="central" fill="black" x="-10" font-weight="bold">NLRP5</text><text font-size="14" font-family="Arial" y="20" text-anchor="end" dominant-baseline="central" fill="black" x="-10">NM_153447</text></g><g transform="translate(1175.9765625, 0)"><text fill="#aaa" font-family="Arial" font-size="14" y="14" class="sja_clbtext2"/></g></g></g><g transform="scale(0)"><rect fill="white"/><text id="loadinggCloak" fill="rgb(97, 124, 148)" fill-opacity="0" font-weight="bold" font-size="18px" text-anchor="middle" dominant-baseline="middle">Loading ...</text></g><g/><g transform="translate(144.9765625,607.2508680555555)"><g transform="translate(0,0)"><rect width="15" height="20" stroke="rgb(133, 130, 153)" fill="#bebada" shape-rendering="crispEdges"/><text x="20" y="10" dominant-baseline="central" font-size="16" font-family="Arial" fill="black">Pyrin_NALPs</text><text x="125.1484375" y="10" dominant-baseline="central" font-size="12" font-family="Arial" fill="#858585">Pyrin death domain found in NALP proteins</text></g><g transform="translate(0,23)"><rect width="15" height="20" stroke="rgb(116, 151, 59)" fill="#a6d854" shape-rendering="crispEdges"/><text x="20" y="10" dominant-baseline="central" font-size="16" font-family="Arial" fill="black">NACHT</text><text x="85.109375" y="10" dominant-baseline="central" font-size="12" font-family="Arial" fill="#858585">NACHT domain</text></g><g transform="translate(0,46)"><rect width="15" height="20" stroke="rgb(162, 162, 111)" fill="#E8E89E" shape-rendering="crispEdges"/><text x="20" y="10" dominant-baseline="central" font-size="16" font-family="Arial" fill="black">LRR_RI</text><text x="86.90625" y="10" dominant-baseline="central" font-size="12" font-family="Arial" fill="#858585">Leucine-rich repeats (LRRs), ribonuclease inhibitor (RI)-like subfamil ...</text></g><g transform="translate(0,69)"><rect width="15" height="20" stroke="rgb(99, 148, 139)" fill="#8dd3c7" shape-rendering="crispEdges"/><text x="20" y="10" dominant-baseline="central" font-size="16" font-family="Arial" fill="black">other</text><text x="66.6875" y="10" dominant-baseline="central" font-size="12" font-family="Arial" fill="#858585">Leucine-rich repeats</text></g><g transform="translate(0,92)"><rect width="15" height="20" stroke="rgb(90, 124, 148)" fill="#80b1d3" shape-rendering="crispEdges"/><text x="20" y="10" dominant-baseline="central" font-size="16" font-family="Arial" fill="black">other</text><text x="66.6875" y="10" dominant-baseline="central" font-size="12" font-family="Arial" fill="#858585">Substrate binding site [chemical binding]</text></g><g transform="translate(0,115)"><rect width="15" height="20" stroke="rgb(176, 90, 80)" fill="#fb8072" shape-rendering="crispEdges"/><text x="20" y="10" dominant-baseline="central" font-size="16" font-family="Arial" fill="black">leucine-rich repeat</text><text x="161.625" y="10" dominant-baseline="central" font-size="12" font-family="Arial" fill="#858585">leucine-rich repeat [structural motif]</text></g></g><g transform="translate(967.9765625,607.2508680555555)"><g transform="translate(0,0)"><circle cx="10" cy="10" r="10" fill="#3987CC"/><text x="30" y="10" dominant-baseline="central" font-size="16" font-family="Arial" fill="#3987CC">MISSENSE, n=11</text></g><g transform="translate(0,23)"><circle cx="10" cy="10" r="10" fill="#9467bd"/><text x="30" y="10" dominant-baseline="central" font-size="16" font-family="Arial" fill="#9467bd">SPLICE_REGION, n=1</text></g><g transform="translate(0,46)"><circle cx="10" cy="10" r="10" fill="#2ca02c"/><text x="30" y="10" dominant-baseline="central" font-size="16" font-family="Arial" fill="#2ca02c">SILENT, n=6</text></g></g></svg>