<svg xmlns="http://www.w3.org/2000/svg" data-testid="sjpp_block_svg" width="1275.3984375" height="1100.2052083333333"><g transform="translate(0,0)"><g transform="translate(125.3984375, 0)"/><rect fill="#FFFF99" x="804" width="2" height="738.2052083333334"/><g transform="translate(125.3984375, 23)"><g transform="translate(0,0)"><text text-anchor="end" x="-13" y="-10" dominant-baseline="central" font-size="13" font-family="Arial">Protein length</text><g><g transform="translate(0,0)" fill="none" font-size="10" font-family="sans-serif" text-anchor="middle"><path class="domain" stroke="black" d="M0,-6V0H1040V-6" fill="none" stroke-width="1" shape-rendering="crispEdges"/><g class="tick" opacity="1" transform="translate(75.37335285505125,0)"><line stroke="black" y2="-6" shape-rendering="crispEdges"/><text fill="black" y="-9" dy="0em" font-family="Arial" font-size="12px" style="cursor: default;">100</text></g><g class="tick" opacity="1" transform="translate(151.50805270863836,0)"><line stroke="black" y2="-6" shape-rendering="crispEdges"/><text fill="black" y="-9" dy="0em" font-family="Arial" font-size="12px" style="cursor: default;">200</text></g><g class="tick" opacity="1" transform="translate(227.64275256222547,0)"><line stroke="black" y2="-6" shape-rendering="crispEdges"/><text fill="black" y="-9" dy="0em" font-family="Arial" font-size="12px" style="cursor: default;">300</text></g><g class="tick" opacity="1" transform="translate(303.7774524158126,0)"><line stroke="black" y2="-6" shape-rendering="crispEdges"/><text fill="black" y="-9" dy="0em" font-family="Arial" font-size="12px" style="cursor: default;">400</text></g><g class="tick" opacity="1" transform="translate(379.9121522693997,0)"><line stroke="black" y2="-6" shape-rendering="crispEdges"/><text fill="black" y="-9" dy="0em" font-family="Arial" font-size="12px" style="cursor: default;">500</text></g><g class="tick" opacity="1" transform="translate(456.0468521229868,0)"><line stroke="black" y2="-6" shape-rendering="crispEdges"/><text fill="black" y="-9" dy="0em" font-family="Arial" font-size="12px" style="cursor: default;">600</text></g><g class="tick" opacity="1" transform="translate(532.1815519765739,0)"><line stroke="black" y2="-6" shape-rendering="crispEdges"/><text fill="black" y="-9" dy="0em" font-family="Arial" font-size="12px" style="cursor: default;">700</text></g><g class="tick" opacity="1" transform="translate(608.316251830161,0)"><line stroke="black" y2="-6" shape-rendering="crispEdges"/><text fill="black" y="-9" dy="0em" font-family="Arial" font-size="12px" style="cursor: default;">800</text></g><g class="tick" opacity="1" transform="translate(684.4509516837481,0)"><line stroke="black" y2="-6" shape-rendering="crispEdges"/><text fill="black" y="-9" dy="0em" font-family="Arial" font-size="12px" style="cursor: default;">900</text></g><g class="tick" opacity="1" transform="translate(760.5856515373353,0)"><line stroke="black" y2="-6" shape-rendering="crispEdges"/><text fill="black" y="-9" dy="0em" font-family="Arial" font-size="12px" style="cursor: default;">1000</text></g><g class="tick" opacity="1" transform="translate(836.7203513909224,0)"><line stroke="black" y2="-6" shape-rendering="crispEdges"/><text fill="black" y="-9" dy="0em" font-family="Arial" font-size="12px" style="cursor: default;">1100</text></g><g class="tick" opacity="1" transform="translate(912.8550512445095,0)"><line stroke="black" y2="-6" shape-rendering="crispEdges"/><text fill="black" y="-9" dy="0em" font-family="Arial" font-size="12px" style="cursor: default;">1200</text></g><g class="tick" opacity="1" transform="translate(988.9897510980967,0)"><line stroke="black" y2="-6" shape-rendering="crispEdges"/><text fill="black" y="-9" dy="0em" font-family="Arial" font-size="12px" style="cursor: default;">1300</text></g></g></g><rect fill="white" fill-opacity="0" x="0" y="-23" width="1040" height="26"/></g><g transform="translate(1040, 0)"/></g><g data-testid="sja_sample_menu_opener" transform="translate(0, 229.4093780517578)"><g transform="translate(1165.3984375, 0)"/><g transform="translate(125.3984375, 0)"><rect fill="white" fill-opacity="0" width="1040" height="191.20625"/><g transform="translate(0,0)" style="cursor: default;"><g class="sja_skg" transform="translate(401, 51.79999923706055)"><g transform="translate(0, 7)" class="sja_aa_discg"><circle fill="#3987CC" stroke="white" r="6.5"/><text font-size="12" fill="#3987CC" x="8" y="3.5999999999999996" font-family="Arial" class="sja_aa_disclabel" fill-opacity="1" transform="scale(1) rotate(0)">p.His528Arg</text><circle r="6.5" stroke="#3987CC" class="sja_aa_disckick" fill="white" fill-opacity="0" stroke-opacity="0" transform="scale(1)"/><path d="M4.286263797015736e-16,-7L4.286263797015736e-16,-7Z" fill="#3987CC" class="sja_aa_discrim" fill-opacity="1" stroke-opacity="1"/></g><circle class="sja_aa_skkick" fill="white" fill-opacity="0" stroke="none" r="8" cy="7" transform="scale(0)"/><path class="sja_aa_stem" d="M0,0v-14l0.6105417276720573,-14v-23.799999999999997" stroke="#3987CC" fill="none"/></g><g class="sja_skg" transform="translate(736, 51.79999923706055)"><g transform="translate(0, 7)" class="sja_aa_discg"><circle fill="#3987CC" stroke="white" r="6.5"/><text font-size="12" fill="#3987CC" x="8" y="3.5999999999999996" font-family="Arial" class="sja_aa_disclabel" fill-opacity="1" transform="scale(1) rotate(0)">p.Arg968Cys</text><circle r="6.5" stroke="#3987CC" class="sja_aa_disckick" fill="white" fill-opacity="0" stroke-opacity="0" transform="scale(1)"/><path d="M4.286263797015736e-16,-7L4.286263797015736e-16,-7Z" fill="#3987CC" class="sja_aa_discrim" fill-opacity="1" stroke-opacity="1"/></g><circle class="sja_aa_skkick" fill="white" fill-opacity="0" stroke="none" r="8" cy="7" transform="scale(0)"/><path class="sja_aa_stem" d="M0,0v-14l0.3494387506100338,-14v-23.799999999999997" stroke="#3987CC" fill="none"/></g><g class="sja_skg" transform="translate(911, 51.79999923706055)"><g transform="translate(0, 7)" class="sja_aa_discg"><circle fill="#3987CC" stroke="white" r="6.5"/><text font-size="12" fill="#3987CC" x="8" y="3.5999999999999996" font-family="Arial" class="sja_aa_disclabel" fill-opacity="1" transform="rotate(90)">p.Cys1198Tyr</text><circle r="6.5" stroke="#3987CC" class="sja_aa_disckick" fill="white" fill-opacity="0" stroke-opacity="0" transform="scale(1)"/><path d="M4.286263797015736e-16,-7L4.286263797015736e-16,-7Z" fill="#3987CC" class="sja_aa_discrim" fill-opacity="1" stroke-opacity="1"/></g><circle class="sja_aa_skkick" fill="white" fill-opacity="0" stroke="none" r="8" cy="7" transform="scale(0)"/><path class="sja_aa_stem" d="M0,0v-14l0.7130307467057264,-14v-23.799999999999997" stroke="#3987CC" fill="none"/></g><g class="sja_skg" transform="translate(925, 51.79999923706055)"><g transform="translate(0, 7)" class="sja_aa_discg"><circle fill="#3987CC" stroke="white" r="6.5"/><text font-size="12" fill="#3987CC" x="8" y="3.5999999999999996" font-family="Arial" class="sja_aa_disclabel" fill-opacity="1" transform="scale(1) rotate(0)">p.Arg1205Thr</text><circle r="6.5" stroke="#3987CC" class="sja_aa_disckick" fill="white" fill-opacity="0" stroke-opacity="0" transform="scale(1)"/><path d="M4.286263797015736e-16,-7L4.286263797015736e-16,-7Z" fill="#3987CC" class="sja_aa_discrim" fill-opacity="1" stroke-opacity="1"/></g><circle class="sja_aa_skkick" fill="white" fill-opacity="0" stroke="none" r="8" cy="7" transform="scale(0)"/><path class="sja_aa_stem" d="M0,0v-14l-7.957540263543137,-14v-23.799999999999997" stroke="#3987CC" fill="none"/></g><g class="sja_skg" transform="translate(1020, 51.79999923706055)"><g transform="translate(0, 7)" class="sja_aa_discg"><circle fill="#db3d3d" stroke="white" r="6.5"/><text font-size="12" fill="#db3d3d" x="8" y="3.5999999999999996" font-family="Arial" class="sja_aa_disclabel" fill-opacity="1" transform="rotate(90)">p.Pro1343GlnfsTer49</text><circle r="6.5" stroke="#db3d3d" class="sja_aa_disckick" fill="white" fill-opacity="0" stroke-opacity="0" transform="scale(1)"/><path d="M4.286263797015736e-16,-7L4.286263797015736e-16,-7Z" fill="#db3d3d" class="sja_aa_discrim" fill-opacity="1" stroke-opacity="1"/></g><circle class="sja_aa_skkick" fill="white" fill-opacity="0" stroke="none" r="8" cy="7" transform="scale(0)"/><path class="sja_aa_stem" d="M0,0v-14l0.0780868716447003,-14v-23.799999999999997" stroke="#db3d3d" fill="none"/></g></g><g/><g transform="scale(0)"><rect fill="white" fill-opacity="0" width="1040" height="0"/><text data-testid="loading_message" fill="rgb(97, 124, 148)" fill-opacity="0" font-weight="bold" font-size="18px" text-anchor="middle" dominant-baseline="middle" x="520" y="15">Loading ...</text><line stroke="rgb(97, 124, 148)" stroke-width="2px" y1="30" y2="30" x2="0"/></g></g><g transform="translate(122.3984375, 0)"><text font-size="14" font-family="Arial" y="7" text-anchor="end" dominant-baseline="central" fill="black" x="-10" font-weight="bold">GAMBL DLBCL</text><g/><text font-size="14" font-family="Arial" y="26" text-anchor="end" dominant-baseline="central" class="sja_clbtext2" fill="black" x="-10">5 of 8 mutations</text></g><g transform="translate(1175.3984375, 0)"/></g><g data-testid="sja_sample_menu_opener" transform="translate(0, 31)"><g transform="translate(1165.3984375, 0)"/><g transform="translate(125.3984375,0)"><rect fill="white" fill-opacity="0" width="1040" height="151.409375"/><g transform="translate(0,0)" style="cursor: default;"><g class="sja_skg" transform="translate(401.61053466796875, 89.609375)"><g transform="translate(0, -7)" class="sja_aa_discg"><circle fill="#3987CC" stroke="white" r="6.5"/><text font-size="12" fill="#3987CC" x="8" y="3.5999999999999996" font-family="Arial" class="sja_aa_disclabel" fill-opacity="1" transform="scale(1) rotate(0)">p.His528Arg</text><circle r="6.5" stroke="#3987CC" class="sja_aa_disckick" fill="white" fill-opacity="0" stroke-opacity="0" transform="scale(1)"/><path d="M4.286263797015736e-16,-7L4.286263797015736e-16,-7Z" fill="#3987CC" class="sja_aa_discrim" fill-opacity="1" stroke-opacity="1"/></g><circle class="sja_aa_skkick" fill="white" fill-opacity="0" stroke="none" r="8" cy="-7" transform="scale(0)"/><path class="sja_aa_stem" d="M0,0v14l0,14v23.799999999999997" stroke="#3987CC" fill="none"/></g><g class="sja_skg" transform="translate(836.0858764648438, 89.609375)"><g transform="translate(0, -7)" class="sja_aa_discg"><circle fill="#3987CC" stroke="white" r="6.5"/><text font-size="12" fill="#3987CC" x="8" y="3.5999999999999996" font-family="Arial" class="sja_aa_disclabel" fill-opacity="1" transform="rotate(-90)">p.Glu1099Lys</text><circle r="6.5" stroke="#3987CC" class="sja_aa_disckick" fill="white" fill-opacity="0" stroke-opacity="0" transform="scale(1)"/><path d="M4.286263797015736e-16,-7L4.286263797015736e-16,-7Z" fill="#3987CC" class="sja_aa_discrim" fill-opacity="1" stroke-opacity="1"/></g><circle class="sja_aa_skkick" fill="white" fill-opacity="0" stroke="none" r="8" cy="-7" transform="scale(0)"/><path class="sja_aa_stem" d="M0,0v14l0,14v23.799999999999997" stroke="#3987CC" fill="none"/></g><g class="sja_skg" transform="translate(907.1449584960938, 89.609375)"><g transform="translate(0, -7)" class="sja_aa_discg"><circle fill="#3987CC" stroke="white" r="6.5"/><text font-size="12" fill="#3987CC" x="8" y="3.5999999999999996" font-family="Arial" class="sja_aa_disclabel" fill-opacity="1" transform="scale(1) rotate(0)">p.Arg1192Gln</text><circle r="6.5" stroke="#3987CC" class="sja_aa_disckick" fill="white" fill-opacity="0" stroke-opacity="0" transform="scale(1)"/><path d="M4.286263797015736e-16,-7L4.286263797015736e-16,-7Z" fill="#3987CC" class="sja_aa_discrim" fill-opacity="1" stroke-opacity="1"/></g><circle class="sja_aa_skkick" fill="white" fill-opacity="0" stroke="none" r="8" cy="-7" transform="scale(0)"/><path class="sja_aa_stem" d="M0,0v14l0,14v23.799999999999997" stroke="#3987CC" fill="none"/></g></g><g/><g transform="scale(0)"><rect fill="white" fill-opacity="0" width="1040" height="0"/><text data-testid="loading_message" fill="rgb(97, 124, 148)" fill-opacity="0" font-weight="bold" font-size="18px" text-anchor="middle" dominant-baseline="middle" x="520" y="15">Loading ...</text><line stroke="rgb(97, 124, 148)" stroke-width="2px" y1="30" y2="30" x2="0"/></g></g><g transform="translate(122.3984375,0)"><text font-size="14" font-family="Arial" y="7" text-anchor="end" dominant-baseline="central" fill="black" x="-10" font-weight="bold">GAMBL FL</text><g/><text font-size="14" font-family="Arial" y="26" text-anchor="end" dominant-baseline="central" class="sja_clbtext2" fill="black" x="-10">3 of 4 mutations</text></g><g transform="translate(1175.3984375,0)"/></g><g data-testid="sja_sample_menu_opener" transform="translate(0, 572.0250244140625)"><g transform="translate(1165.3984375, 0)"/><g transform="translate(125.3984375,0)"><rect fill="white" fill-opacity="0" width="1040" height="171.18020833333333"/><g transform="translate(0,0)" style="cursor: default;"><g class="sja_skg" transform="translate(211.02000427246094, 61.13333511352539)"><g transform="translate(0, 7)" class="sja_aa_discg"><circle fill="#ff7f0e" stroke="white" r="6.5"/><text font-size="12" fill="#ff7f0e" x="8" y="3.5999999999999996" font-family="Arial" class="sja_aa_disclabel" fill-opacity="1" transform="rotate(90)">p.Glu278Ter</text><circle r="6.5" stroke="#ff7f0e" class="sja_aa_disckick" fill="white" fill-opacity="0" stroke-opacity="0" transform="scale(1)"/><path d="M4.286263797015736e-16,-7L4.286263797015736e-16,-7Z" fill="#ff7f0e" class="sja_aa_discrim" fill-opacity="1" stroke-opacity="1"/></g><circle class="sja_aa_skkick" fill="white" fill-opacity="0" stroke="none" r="8" cy="7" transform="scale(0)"/><path class="sja_aa_stem" d="M0,0v-14l0,-23.333333333333336v-23.799999999999997" stroke="#ff7f0e" fill="none"/></g><g class="sja_skg" transform="translate(274.4656066894531, 61.13333511352539)"><g transform="translate(0, 7)" class="sja_aa_discg"><circle fill="#3987CC" stroke="white" r="6.5"/><text font-size="12" fill="#3987CC" x="8" y="3.5999999999999996" font-family="Arial" class="sja_aa_disclabel" fill-opacity="1" transform="rotate(90)">p.Lys361Thr</text><circle r="6.5" stroke="#3987CC" class="sja_aa_disckick" fill="white" fill-opacity="0" stroke-opacity="0" transform="scale(1)"/><path d="M4.286263797015736e-16,-7L4.286263797015736e-16,-7Z" fill="#3987CC" class="sja_aa_discrim" fill-opacity="1" stroke-opacity="1"/></g><circle class="sja_aa_skkick" fill="white" fill-opacity="0" stroke="none" r="8" cy="7" transform="scale(0)"/><path class="sja_aa_stem" d="M0,0v-14l0,-23.333333333333336v-23.799999999999997" stroke="#3987CC" fill="none"/></g><g class="sja_skg" transform="translate(306.4421691894531, 61.13333511352539)"><g transform="translate(0, 7)" class="sja_aa_discg"><circle fill="#3987CC" stroke="white" r="6.5"/><text font-size="12" fill="#3987CC" x="8" y="3.5999999999999996" font-family="Arial" class="sja_aa_disclabel" fill-opacity="1" transform="scale(1) rotate(0)">p.Ala403Val</text><circle r="6.5" stroke="#3987CC" class="sja_aa_disckick" fill="white" fill-opacity="0" stroke-opacity="0" transform="scale(1)"/><path d="M4.286263797015736e-16,-7L4.286263797015736e-16,-7Z" fill="#3987CC" class="sja_aa_discrim" fill-opacity="1" stroke-opacity="1"/></g><circle class="sja_aa_skkick" fill="white" fill-opacity="0" stroke="none" r="8" cy="7" transform="scale(0)"/><path class="sja_aa_stem" d="M0,0v-14l0,-23.333333333333336v-23.799999999999997" stroke="#3987CC" fill="none"/></g><g class="sja_skg" transform="translate(546.520263671875, 61.13333511352539)"><g transform="translate(0, 7)" class="sja_aa_discg"><circle fill="#2ca02c" stroke="white" r="6.5"/><text font-size="12" fill="#2ca02c" x="8" y="3.5999999999999996" font-family="Arial" class="sja_aa_disclabel" fill-opacity="1" transform="rotate(90)">c.2154C&gt;T(p.=)</text><circle r="6.5" stroke="#2ca02c" class="sja_aa_disckick" fill="white" fill-opacity="0" stroke-opacity="0" transform="scale(1)"/><path d="M4.286263797015736e-16,-7L4.286263797015736e-16,-7Z" fill="#2ca02c" class="sja_aa_discrim" fill-opacity="1" stroke-opacity="1"/></g><circle class="sja_aa_skkick" fill="white" fill-opacity="0" stroke="none" r="8" cy="7" transform="scale(0)"/><path class="sja_aa_stem" d="M0,0v-14l0,-23.333333333333336v-23.799999999999997" stroke="#2ca02c" fill="none"/></g><g class="sja_skg" transform="translate(634.3289184570312, 61.13333511352539)"><g transform="translate(0, 7)" class="sja_aa_discg"><circle fill="#3987CC" stroke="white" r="6.5"/><text font-size="12" fill="#3987CC" x="8" y="3.5999999999999996" font-family="Arial" class="sja_aa_disclabel" fill-opacity="1" transform="scale(1) rotate(0)">p.Cys834Arg</text><circle r="6.5" stroke="#3987CC" class="sja_aa_disckick" fill="white" fill-opacity="0" stroke-opacity="0" transform="scale(1)"/><path d="M4.286263797015736e-16,-7L4.286263797015736e-16,-7Z" fill="#3987CC" class="sja_aa_discrim" fill-opacity="1" stroke-opacity="1"/></g><circle class="sja_aa_skkick" fill="white" fill-opacity="0" stroke="none" r="8" cy="7" transform="scale(0)"/><path class="sja_aa_stem" d="M0,0v-14l0,-23.333333333333336v-23.799999999999997" stroke="#3987CC" fill="none"/></g><g class="sja_skg" transform="translate(731.2738037109375, 61.13333511352539)"><g transform="translate(0, 7)" class="sja_aa_discg"><circle fill="#3987CC" stroke="white" r="6.5"/><text font-size="12" fill="#3987CC" x="8" y="3.5999999999999996" font-family="Arial" class="sja_aa_disclabel" fill-opacity="1" transform="scale(1) rotate(0)">p.Ala961Val</text><circle r="6.5" stroke="#3987CC" class="sja_aa_disckick" fill="white" fill-opacity="0" stroke-opacity="0" transform="scale(1)"/><path d="M4.286263797015736e-16,-7L4.286263797015736e-16,-7Z" fill="#3987CC" class="sja_aa_discrim" fill-opacity="1" stroke-opacity="1"/></g><circle class="sja_aa_skkick" fill="white" fill-opacity="0" stroke="none" r="8" cy="7" transform="scale(0)"/><path class="sja_aa_stem" d="M0,0v-14l0,-23.333333333333336v-23.799999999999997" stroke="#3987CC" fill="none"/></g><g class="sja_skg" transform="translate(832.532958984375, 61.13333511352539)"><g transform="translate(0, 7)" class="sja_aa_discg"><circle fill="#3987CC" stroke="white" r="6.5"/><text font-size="12" fill="#3987CC" x="8" y="3.5999999999999996" font-family="Arial" class="sja_aa_disclabel" fill-opacity="1" transform="scale(1) rotate(0)">p.Gly1094Glu</text><circle r="6.5" stroke="#3987CC" class="sja_aa_disckick" fill="white" fill-opacity="0" stroke-opacity="0" transform="scale(1)"/><path d="M4.286263797015736e-16,-7L4.286263797015736e-16,-7Z" fill="#3987CC" class="sja_aa_discrim" fill-opacity="1" stroke-opacity="1"/></g><circle class="sja_aa_skkick" fill="white" fill-opacity="0" stroke="none" r="8" cy="7" transform="scale(0)"/><path class="sja_aa_stem" d="M0,0v-14l0,-23.333333333333336v-23.799999999999997" stroke="#3987CC" fill="none"/></g></g><g/><g transform="scale(0)"><rect fill="white" fill-opacity="0" width="1040" height="0"/><text data-testid="loading_message" fill="rgb(97, 124, 148)" fill-opacity="0" font-weight="bold" font-size="18px" text-anchor="middle" dominant-baseline="middle" x="520" y="15">Loading ...</text><line stroke="rgb(97, 124, 148)" stroke-width="2px" y1="30" y2="30" x2="0"/></g></g><g transform="translate(122.3984375,0)"><text font-size="14" font-family="Arial" y="7" text-anchor="end" dominant-baseline="central" fill="black" x="-10" font-weight="bold">GAMBL BL</text><g/><text font-size="14" font-family="Arial" y="26" text-anchor="end" dominant-baseline="central" class="sja_clbtext2" fill="black" x="-10">7 of 9 mutations</text></g><g transform="translate(1175.3984375,0)"/></g><g data-testid="sja_sample_menu_opener" transform="translate(0, 420.6156311035156)"><g transform="translate(1165.3984375, 0)"/><g transform="translate(125.3984375,0)"><rect fill="white" fill-opacity="0" width="1040" height="151.409375"/><g transform="translate(0,0)" style="cursor: default;"><g class="sja_skg" transform="translate(836.0858764648438, 51.79999923706055)"><g transform="translate(0, 7)" class="sja_aa_discg"><circle fill="#3987CC" stroke="white" r="6.5"/><text font-size="12" fill="#3987CC" x="8" y="3.5999999999999996" font-family="Arial" class="sja_aa_disclabel" fill-opacity="1" transform="rotate(90)">p.Glu1099Lys</text><circle r="6.5" stroke="#3987CC" class="sja_aa_disckick" fill="white" fill-opacity="0" stroke-opacity="0" transform="scale(1)"/><path d="M4.286263797015736e-16,-7L4.286263797015736e-16,-7Z" fill="#3987CC" class="sja_aa_discrim" fill-opacity="1" stroke-opacity="1"/></g><circle class="sja_aa_skkick" fill="white" fill-opacity="0" stroke="none" r="8" cy="7" transform="scale(0)"/><path class="sja_aa_stem" d="M0,0v-14l0,-14v-23.799999999999997" stroke="#3987CC" fill="none"/></g><g class="sja_skg" transform="translate(874.9146118164062, 51.79999923706055)"><g transform="translate(0, 7)" class="sja_aa_discg"><circle fill="#3987CC" stroke="white" r="6.5"/><text font-size="12" fill="#3987CC" x="8" y="3.5999999999999996" font-family="Arial" class="sja_aa_disclabel" fill-opacity="1" transform="scale(1) rotate(0)">p.Thr1150Ala</text><circle r="6.5" stroke="#3987CC" class="sja_aa_disckick" fill="white" fill-opacity="0" stroke-opacity="0" transform="scale(1)"/><path d="M4.286263797015736e-16,-7L4.286263797015736e-16,-7Z" fill="#3987CC" class="sja_aa_discrim" fill-opacity="1" stroke-opacity="1"/></g><circle class="sja_aa_skkick" fill="white" fill-opacity="0" stroke="none" r="8" cy="7" transform="scale(0)"/><path class="sja_aa_stem" d="M0,0v-14l0,-14v-23.799999999999997" stroke="#3987CC" fill="none"/></g></g><g/><g transform="scale(0)"><rect fill="white" fill-opacity="0" width="1040" height="0"/><text data-testid="loading_message" fill="rgb(97, 124, 148)" fill-opacity="0" font-weight="bold" font-size="18px" text-anchor="middle" dominant-baseline="middle" x="520" y="15">Loading ...</text><line stroke="rgb(97, 124, 148)" stroke-width="2px" y1="30" y2="30" x2="0"/></g></g><g transform="translate(122.3984375,0)"><text font-size="14" font-family="Arial" y="7" text-anchor="end" dominant-baseline="central" fill="black" x="-10" font-weight="bold">GAMBL MCL</text><g/><text font-size="14" font-family="Arial" y="26" text-anchor="end" dominant-baseline="central" class="sja_clbtext2" fill="black" x="-10">2 of 3 mutations</text></g><g transform="translate(1175.3984375,0)"/></g><g data-testid="sja_sample_menu_opener" transform="translate(0, 182.4093780517578)"><g transform="translate(1165.3984375, 0)"/><g transform="translate(125.3984375,0)"><rect fill="white" fill-opacity="0" width="1040" height="47"/><g transform="translate(0,0)" style="cursor: default;"><g><line x1="0" y1="18.5" x2="1040.0000000000002" y2="18.5" stroke="black" shape-rendering="crispEdges"/><rect x="0" width="151.50805270863836" height="37" fill="white"/><rect x="151.50805270863836" width="41.36652025378233" height="37" fill="white"/><rect x="165.21229868228403" width="27.662274280136653" height="37" fill="#8dd3c7"/><rect x="174.3484626647145" width="1" height="37" fill="#80b1d3"/><rect x="176.6325036603221" width="1" height="37" fill="#80b1d3"/><rect x="178.91654465592973" width="1" height="37" fill="#80b1d3"/><rect x="192.8745729624207" width="42.381649585163494" height="37" fill="white"/><rect x="192.8745729624207" width="42.381649585163494" height="37" fill="#8dd3c7"/><rect x="206.3250366032211" width="1" height="37" fill="#80b1d3"/><rect x="204.80234260614935" width="1" height="37" fill="#80b1d3"/><rect x="201.75695461200587" width="1" height="37" fill="#80b1d3"/><rect x="235.2562225475842" width="122.57686676427527" height="37" fill="white"/><rect x="235.2562225475842" width="21.317715959004392" height="37" fill="#8dd3c7"/><rect x="347.9355783308931" width="9.897510980966326" height="37" fill="#e5c494"/><rect x="357.83308931185945" width="36.79843826256711" height="37" fill="white"/><rect x="357.83308931185945" width="28.169838945827234" height="37" fill="#e5c494"/><rect x="394.63152757442657" width="30.200097608589555" height="37" fill="white"/><rect x="414.9341142020498" width="9.897510980966326" height="37" fill="#a6d854"/><rect x="424.8316251830161" width="20.81015129331381" height="37" fill="white"/><rect x="424.8316251830161" width="20.81015129331381" height="37" fill="#a6d854"/><rect x="445.64177647632994" width="31.7227916056613" height="37" fill="white"/><rect x="445.64177647632994" width="31.7227916056613" height="37" fill="#a6d854"/><rect x="477.36456808199125" width="33.49926793557833" height="37" fill="white"/><rect x="477.36456808199125" width="33.49926793557833" height="37" fill="#a6d854"/><rect x="508.57979502196196" width="2.2840409956076133" height="37" fill="#fdb462"/><rect x="509.34114202049784" width="1" height="37" fill="#8dd3c7"/><rect x="508.57979502196196" width="1" height="37" fill="#bebada"/><rect x="510.8638360175696" width="31.46900927281601" height="37" fill="white"/><rect x="510.8638360175696" width="29.692532942898975" height="37" fill="#a6d854"/><rect x="510.8638360175696" width="30.45387994143485" height="37" fill="#fdb462"/><rect x="515.4319180087848" width="3.806734992679356" height="37" fill="#bebada"/><rect x="537.5109809663251" width="1" height="37" fill="#8dd3c7"/><rect x="511.6251830161055" width="1" height="37" fill="#8dd3c7"/><rect x="518.4773060029283" width="1" height="37" fill="#8dd3c7"/><rect x="539.7950219619327" width="1" height="37" fill="#8dd3c7"/><rect x="521.5226939970718" width="1" height="37" fill="#8dd3c7"/><rect x="527.6134699853587" width="1" height="37" fill="#8dd3c7"/><rect x="522.2840409956077" width="1" height="37" fill="#bebada"/><rect x="535.9882869692534" width="1" height="37" fill="#bebada"/><rect x="525.3294289897511" width="1" height="37" fill="#8dd3c7"/><rect x="542.3328452903856" width="51.01024890190337" height="37" fill="white"/><rect x="580.1464128843339" width="13.1966813079551" height="37" fill="#fb8072"/><rect x="544.363103953148" width="35.78330893118594" height="37" fill="#E8E89E"/><rect x="551.9765739385067" width="3.806734992679356" height="37" fill="#bebada"/><rect x="555.0219619326501" width="1" height="37" fill="#8dd3c7"/><rect x="579.3850658857981" width="1" height="37" fill="#8dd3c7"/><rect x="544.363103953148" width="1" height="37" fill="#bebada"/><rect x="580.1464128843339" width="1" height="37" fill="#bebada"/><rect x="545.1244509516838" width="1" height="37" fill="#8dd3c7"/><rect x="562.6354319180089" width="1" height="37" fill="#8dd3c7"/><rect x="547.4084919472915" width="1" height="37" fill="#8dd3c7"/><rect x="559.5900439238654" width="1" height="37" fill="#bebada"/><rect x="580.9077598828698" width="1" height="37" fill="#8dd3c7"/><rect x="558.8286969253295" width="1" height="37" fill="#8dd3c7"/><rect x="575.5783308931187" width="1" height="37" fill="#bebada"/><rect x="564.9194729136165" width="1" height="37" fill="#8dd3c7"/><rect x="577.1010248901904" width="1" height="37" fill="#8dd3c7"/><rect x="583.1918008784774" width="1" height="37" fill="#8dd3c7"/><rect x="593.3430941922891" width="45.68081991215227" height="37" fill="white"/><rect x="593.3430941922891" width="27.916056612981944" height="37" fill="#fb8072"/><rect x="633.440702781845" width="5.583211322596389" height="37" fill="#fb8072"/><rect x="593.8506588579796" width="3.806734992679356" height="37" fill="#bebada"/><rect x="618.2137628111275" width="1" height="37" fill="#8dd3c7"/><rect x="596.8960468521232" width="1" height="37" fill="#8dd3c7"/><rect x="633.440702781845" width="1" height="37" fill="#bebada"/><rect x="599.9414348462666" width="1" height="37" fill="#bebada"/><rect x="616.6910688140558" width="1" height="37" fill="#bebada"/><rect x="636.4860907759885" width="1" height="37" fill="#8dd3c7"/><rect x="602.9868228404101" width="1" height="37" fill="#8dd3c7"/><rect x="599.1800878477308" width="1" height="37" fill="#8dd3c7"/><rect x="620.4978038067352" width="1" height="37" fill="#8dd3c7"/><rect x="634.2020497803808" width="1" height="37" fill="#8dd3c7"/><rect x="606.7935578330895" width="1" height="37" fill="#8dd3c7"/><rect x="639.0239141044414" width="39.84382625671059" height="37" fill="white"/><rect x="667.7013177159591" width="11.166422645192778" height="37" fill="#80b1d3"/><rect x="639.0239141044414" width="25.63201561737433" height="37" fill="#fb8072"/><rect x="640.2928257686679" width="3.806734992679356" height="37" fill="#bebada"/><rect x="663.1332357247439" width="1" height="37" fill="#8dd3c7"/><rect x="659.3265007320646" width="1" height="37" fill="#bebada"/><rect x="675.3147877013179" width="1" height="37" fill="#80b1d3"/><rect x="660.8491947291363" width="1" height="37" fill="#8dd3c7"/><rect x="643.3382137628113" width="1" height="37" fill="#8dd3c7"/><rect x="645.6222547584189" width="1" height="37" fill="#8dd3c7"/><rect x="649.4289897510982" width="1" height="37" fill="#8dd3c7"/><rect x="651.7130307467058" width="1" height="37" fill="#8dd3c7"/><rect x="646.3836017569548" width="1" height="37" fill="#bebada"/><rect x="677.5988286969255" width="1" height="37" fill="#80b1d3"/><rect x="678.867740361152" width="52.27916056612982" height="37" fill="white"/><rect x="678.867740361152" width="52.27916056612982" height="37" fill="#80b1d3"/><rect x="703.4846266471451" width="1" height="37" fill="#80b1d3"/><rect x="679.8828696925332" width="1" height="37" fill="#80b1d3"/><rect x="701.2005856515375" width="1" height="37" fill="#80b1d3"/><rect x="705.0073206442169" width="1" height="37" fill="#80b1d3"/><rect x="731.1469009272818" width="26.3933626159102" height="37" fill="white"/><rect x="731.1469009272818" width="8.882381649585163" height="37" fill="#80b1d3"/><rect x="757.5402635431919" width="68.5212298682284" height="37" fill="white"/><rect x="808.5505124450954" width="17.510980966325036" height="37" fill="#ffd92f"/><rect x="769.7218155197659" width="38.82869692532943" height="37" fill="#bebada"/><rect x="826.0614934114203" width="29.692532942898975" height="37" fill="white"/><rect x="826.0614934114203" width="29.692532942898975" height="37" fill="#ffd92f"/><rect x="855.7540263543193" width="36.03709126403123" height="37" fill="white"/><rect x="855.7540263543193" width="36.03709126403123" height="37" fill="#ffd92f"/><rect x="891.7911176183505" width="27.154709614446073" height="37" fill="white"/><rect x="891.7911176183505" width="11.166422645192778" height="37" fill="#ffd92f"/><rect x="918.9458272327967" width="52.02537823328453" height="37" fill="white"/><rect x="944.0702781844805" width="26.900927281600783" height="37" fill="#b3b3b3"/><rect x="950.9224011713032" width="3.806734992679356" height="37" fill="#bebada"/><rect x="944.0702781844805" width="1" height="37" fill="#bebada"/><rect x="957.774524158126" width="1" height="37" fill="#8dd3c7"/><rect x="953.9677891654467" width="1" height="37" fill="#8dd3c7"/><rect x="958.535871156662" width="1" height="37" fill="#bebada"/><rect x="947.1156661786239" width="1" height="37" fill="#8dd3c7"/><rect x="944.8316251830163" width="1" height="37" fill="#8dd3c7"/><rect x="961.5812591508054" width="1" height="37" fill="#8dd3c7"/><rect x="963.8653001464131" width="1" height="37" fill="#8dd3c7"/><rect x="970.9712054660812" width="69.02879453391898" height="37" fill="white"/><rect x="970.9712054660812" width="5.836993655441679" height="37" fill="#b3b3b3"/><rect x="972.2401171303077" width="1" height="37" fill="#bebada"/><rect x="973.7628111273793" width="1" height="37" fill="#8dd3c7"/><rect x="976.046852122987" width="1" height="37" fill="#8dd3c7"/><line x1="0" x2="1040.0000000000002" stroke="black"/><line x1="0" x2="1040.0000000000002" y1="37" y2="37" stroke="black"/><line x1="0" x2="0" y2="37" stroke="black"/><line x1="1040.0000000000002" x2="1040.0000000000002" y2="37" stroke="black"/><line class="exonboundaryclass" x1="151.50805270863836" x2="151.50805270863836" y1="0" y2="37" stroke="black" stroke-dasharray="4,2" shape-rendering="crispEdges" stroke-opacity="1"/><line class="exonboundaryclass" x1="192.8745729624207" x2="192.8745729624207" y1="0" y2="37" stroke="black" stroke-dasharray="4,2" shape-rendering="crispEdges" stroke-opacity="1"/><line class="exonboundaryclass" x1="235.2562225475842" x2="235.2562225475842" y1="0" y2="37" stroke="black" stroke-dasharray="4,2" shape-rendering="crispEdges" stroke-opacity="1"/><line class="exonboundaryclass" x1="357.83308931185945" x2="357.83308931185945" y1="0" y2="37" stroke="black" stroke-dasharray="4,2" shape-rendering="crispEdges" stroke-opacity="1"/><line class="exonboundaryclass" x1="394.63152757442657" x2="394.63152757442657" y1="0" y2="37" stroke="black" stroke-dasharray="4,2" shape-rendering="crispEdges" stroke-opacity="1"/><line class="exonboundaryclass" x1="424.8316251830161" x2="424.8316251830161" y1="0" y2="37" stroke="black" stroke-dasharray="4,2" shape-rendering="crispEdges" stroke-opacity="1"/><line class="exonboundaryclass" x1="445.64177647632994" x2="445.64177647632994" y1="0" y2="37" stroke="black" stroke-dasharray="4,2" shape-rendering="crispEdges" stroke-opacity="1"/><line class="exonboundaryclass" x1="477.36456808199125" x2="477.36456808199125" y1="0" y2="37" stroke="black" stroke-dasharray="4,2" shape-rendering="crispEdges" stroke-opacity="1"/><line class="exonboundaryclass" x1="510.8638360175696" x2="510.8638360175696" y1="0" y2="37" stroke="black" stroke-dasharray="4,2" shape-rendering="crispEdges" stroke-opacity="1"/><line class="exonboundaryclass" x1="542.3328452903856" x2="542.3328452903856" y1="0" y2="37" stroke="black" stroke-dasharray="4,2" shape-rendering="crispEdges" stroke-opacity="1"/><line class="exonboundaryclass" x1="593.3430941922891" x2="593.3430941922891" y1="0" y2="37" stroke="black" stroke-dasharray="4,2" shape-rendering="crispEdges" stroke-opacity="1"/><line class="exonboundaryclass" x1="639.0239141044414" x2="639.0239141044414" y1="0" y2="37" stroke="black" stroke-dasharray="4,2" shape-rendering="crispEdges" stroke-opacity="1"/><line class="exonboundaryclass" x1="678.867740361152" x2="678.867740361152" y1="0" y2="37" stroke="black" stroke-dasharray="4,2" shape-rendering="crispEdges" stroke-opacity="1"/><line class="exonboundaryclass" x1="731.1469009272818" x2="731.1469009272818" y1="0" y2="37" stroke="black" stroke-dasharray="4,2" shape-rendering="crispEdges" stroke-opacity="1"/><line class="exonboundaryclass" x1="757.5402635431919" x2="757.5402635431919" y1="0" y2="37" stroke="black" stroke-dasharray="4,2" shape-rendering="crispEdges" stroke-opacity="1"/><line class="exonboundaryclass" x1="826.0614934114203" x2="826.0614934114203" y1="0" y2="37" stroke="black" stroke-dasharray="4,2" shape-rendering="crispEdges" stroke-opacity="1"/><line class="exonboundaryclass" x1="855.7540263543193" x2="855.7540263543193" y1="0" y2="37" stroke="black" stroke-dasharray="4,2" shape-rendering="crispEdges" stroke-opacity="1"/><line class="exonboundaryclass" x1="891.7911176183505" x2="891.7911176183505" y1="0" y2="37" stroke="black" stroke-dasharray="4,2" shape-rendering="crispEdges" stroke-opacity="1"/><line class="exonboundaryclass" x1="918.9458272327967" x2="918.9458272327967" y1="0" y2="37" stroke="black" stroke-dasharray="4,2" shape-rendering="crispEdges" stroke-opacity="1"/><line class="exonboundaryclass" x1="970.9712054660812" x2="970.9712054660812" y1="0" y2="37" stroke="black" stroke-dasharray="4,2" shape-rendering="crispEdges" stroke-opacity="1"/><g transform="translate(0,18.5)" fill="none" font-size="10" font-family="sans-serif" text-anchor="middle"><path class="domain" stroke="none" d="M0.3806734992679356,0H1040.0000000000002" fill="none" stroke-width="0" shape-rendering="crispEdges"/><g class="tick" opacity="1" transform="translate(75.56464607076377,0)"><line stroke="black" y2="0" shape-rendering="crispEdges"/><text fill="black" y="3" dy="0.71em" font-family="Arial" font-size="11.666666666666666px" style="cursor: default;">100</text></g><g class="tick" opacity="1" transform="translate(151.8887262079063,0)"><line stroke="black" y2="0" shape-rendering="crispEdges"/><text fill="black" y="3" dy="0.71em" font-family="Arial" font-size="11.666666666666666px" style="cursor: default;">200</text></g><g class="tick" opacity="1" transform="translate(227.71072997280902,0)"><line stroke="black" y2="0" shape-rendering="crispEdges"/><text fill="black" y="3" dy="0.71em" font-family="Arial" font-size="11.666666666666666px" style="cursor: default;">300</text></g><g class="tick" opacity="1" transform="translate(303.9453270645581,0)"><line stroke="black" y2="0" shape-rendering="crispEdges"/><text fill="black" y="3" dy="0.71em" font-family="Arial" font-size="11.666666666666666px" style="cursor: default;">400</text></g><g class="tick" opacity="1" transform="translate(380.2161623556206,0)"><line stroke="black" y2="0" shape-rendering="crispEdges"/><text fill="black" y="3" dy="0.71em" font-family="Arial" font-size="11.666666666666666px" style="cursor: default;">500</text></g><g class="tick" opacity="1" transform="translate(456.30063445583215,0)"><line stroke="black" y2="0" shape-rendering="crispEdges"/><text fill="black" y="3" dy="0.71em" font-family="Arial" font-size="11.666666666666666px" style="cursor: default;">600</text></g><g class="tick" opacity="1" transform="translate(532.4755680938948,0)"><line stroke="black" y2="0" shape-rendering="crispEdges"/><text fill="black" y="3" dy="0.71em" font-family="Arial" font-size="11.666666666666666px" style="cursor: default;">700</text></g><g class="tick" opacity="1" transform="translate(608.6546282739549,0)"><line stroke="black" y2="0" shape-rendering="crispEdges"/><text fill="black" y="3" dy="0.71em" font-family="Arial" font-size="11.666666666666666px" style="cursor: default;">800</text></g><g class="tick" opacity="1" transform="translate(684.816913163721,0)"><line stroke="black" y2="0" shape-rendering="crispEdges"/><text fill="black" y="3" dy="0.71em" font-family="Arial" font-size="11.666666666666666px" style="cursor: default;">900</text></g><g class="tick" opacity="1" transform="translate(760.9494062144137,0)"><line stroke="black" y2="0" shape-rendering="crispEdges"/><text fill="black" y="3" dy="0.71em" font-family="Arial" font-size="11.666666666666666px" style="cursor: default;">1000</text></g><g class="tick" opacity="1" transform="translate(836.9643728648122,0)"><line stroke="black" y2="0" shape-rendering="crispEdges"/><text fill="black" y="3" dy="0.71em" font-family="Arial" font-size="11.666666666666666px" style="cursor: default;">1100</text></g><g class="tick" opacity="1" transform="translate(912.9396453554581,0)"><line stroke="black" y2="0" shape-rendering="crispEdges"/><text fill="black" y="3" dy="0.71em" font-family="Arial" font-size="11.666666666666666px" style="cursor: default;">1200</text></g><g class="tick" opacity="1" transform="translate(989.2700271909645,0)"><line stroke="black" y2="0" shape-rendering="crispEdges"/><text fill="black" y="3" dy="0.71em" font-family="Arial" font-size="11.666666666666666px" style="cursor: default;">1300</text></g></g><rect x="0" width="151.50805270863836" height="37" fill="#858585" fill-opacity="0"/><rect x="151.50805270863836" width="41.36652025378233" height="37" fill="#858585" fill-opacity="0"/><rect x="192.8745729624207" width="42.381649585163494" height="37" fill="#858585" fill-opacity="0"/><rect x="235.2562225475842" width="122.57686676427527" height="37" fill="#858585" fill-opacity="0"/><rect x="357.83308931185945" width="36.79843826256711" height="37" fill="#858585" fill-opacity="0"/><rect x="394.63152757442657" width="30.200097608589555" height="37" fill="#858585" fill-opacity="0"/><rect x="424.8316251830161" width="20.81015129331381" height="37" fill="#858585" fill-opacity="0"/><rect x="445.64177647632994" width="31.7227916056613" height="37" fill="#858585" fill-opacity="0"/><rect x="477.36456808199125" width="33.49926793557833" height="37" fill="#858585" fill-opacity="0"/><rect x="510.8638360175696" width="31.46900927281601" height="37" fill="#858585" fill-opacity="0"/><rect x="542.3328452903856" width="51.01024890190337" height="37" fill="#858585" fill-opacity="0"/><rect x="593.3430941922891" width="45.68081991215227" height="37" fill="#858585" fill-opacity="0"/><rect x="639.0239141044414" width="39.84382625671059" height="37" fill="#858585" fill-opacity="0"/><rect x="678.867740361152" width="52.27916056612982" height="37" fill="#858585" fill-opacity="0"/><rect x="731.1469009272818" width="26.3933626159102" height="37" fill="#858585" fill-opacity="0"/><rect x="757.5402635431919" width="68.5212298682284" height="37" fill="#858585" fill-opacity="0"/><rect x="826.0614934114203" width="29.692532942898975" height="37" fill="#858585" fill-opacity="0"/><rect x="855.7540263543193" width="36.03709126403123" height="37" fill="#858585" fill-opacity="0"/><rect x="891.7911176183505" width="27.154709614446073" height="37" fill="#858585" fill-opacity="0"/><rect x="918.9458272327967" width="52.02537823328453" height="37" fill="#858585" fill-opacity="0"/><rect x="970.9712054660812" width="69.02879453391898" height="37" fill="#858585" fill-opacity="0"/></g></g><g/><g transform="scale(0)"><rect fill="white" fill-opacity="0"/><text data-testid="loading_message" fill="rgb(97, 124, 148)" fill-opacity="0" font-weight="bold" font-size="18px" text-anchor="middle" dominant-baseline="middle">Loading ...</text><line stroke="rgb(97, 124, 148)" stroke-width="2px"/></g></g><g transform="translate(122.3984375,0)"><text font-size="14" font-family="Arial" y="7" text-anchor="end" dominant-baseline="central" fill="black" x="-10" font-weight="bold">NSD2</text><text font-size="14" font-family="Arial" y="20" text-anchor="end" dominant-baseline="central" fill="black" x="-10">NM_133330</text></g><g transform="translate(1175.3984375,0)"><text fill="#aaa" font-family="Arial" font-size="14" y="14" class="sja_clbtext2"/></g></g></g><g transform="scale(0)"><rect fill="white"/><text id="loadinggCloak" fill="rgb(97, 124, 148)" fill-opacity="0" font-weight="bold" font-size="18px" text-anchor="middle" dominant-baseline="middle">Loading ...</text></g><g/><g transform="translate(124.3984375,758.2052083333334)"><g transform="translate(0,0)"><rect width="15" height="20" stroke="rgb(99, 148, 139)" fill="#8dd3c7" shape-rendering="crispEdges"/><text x="20" y="10" dominant-baseline="central" font-size="16" font-family="Arial" fill="black">MSH6_like</text><text x="107.359375" y="10" dominant-baseline="central" font-size="12" font-family="Arial" fill="#858585">The PWWP domain is present in MSH6, a mismatch repair protein homologo ...</text></g><g transform="translate(0,23)"><rect width="15" height="20" stroke="rgb(90, 124, 148)" fill="#80b1d3" shape-rendering="crispEdges"/><text x="20" y="10" dominant-baseline="central" font-size="16" font-family="Arial" fill="black">other</text><text x="66.6875" y="10" dominant-baseline="central" font-size="12" font-family="Arial" fill="#858585">putative chromatin binding site</text></g><g transform="translate(0,46)"><rect width="15" height="20" stroke="rgb(160, 137, 104)" fill="#e5c494" shape-rendering="crispEdges"/><text x="20" y="10" dominant-baseline="central" font-size="16" font-family="Arial" fill="black">HMG-box</text><text x="98.453125" y="10" dominant-baseline="central" font-size="12" font-family="Arial" fill="#858585">High Mobility Group (HMG)-box is found in a variety of eukaryotic chro ...</text></g><g transform="translate(0,69)"><rect width="15" height="20" stroke="rgb(116, 151, 59)" fill="#a6d854" shape-rendering="crispEdges"/><text x="20" y="10" dominant-baseline="central" font-size="16" font-family="Arial" fill="black">TNG2</text><text x="72.671875" y="10" dominant-baseline="central" font-size="12" font-family="Arial" fill="#858585">Chromatin remodeling protein, contains PhD zinc finger [Chromatin stru ...</text></g><g transform="translate(0,92)"><rect width="15" height="20" stroke="rgb(177, 126, 69)" fill="#fdb462" shape-rendering="crispEdges"/><text x="20" y="10" dominant-baseline="central" font-size="16" font-family="Arial" fill="black">PHD1_NSD1_2</text><text x="142.0546875" y="10" dominant-baseline="central" font-size="12" font-family="Arial" fill="#858585">PHD finger 1 found in nuclear receptor-binding SET domain-containing p ...</text></g><g transform="translate(0,115)"><rect width="15" height="20" stroke="rgb(133, 130, 153)" fill="#bebada" shape-rendering="crispEdges"/><text x="20" y="10" dominant-baseline="central" font-size="16" font-family="Arial" fill="black">other</text><text x="66.6875" y="10" dominant-baseline="central" font-size="12" font-family="Arial" fill="#858585">putative histone H3 binding site [polypeptide binding]</text></g><g transform="translate(0,138)"><rect width="15" height="20" stroke="rgb(99, 148, 139)" fill="#8dd3c7" shape-rendering="crispEdges"/><text x="20" y="10" dominant-baseline="central" font-size="16" font-family="Arial" fill="black">other</text><text x="66.6875" y="10" dominant-baseline="central" font-size="12" font-family="Arial" fill="#858585">Zn binding site [ion binding]</text></g><g transform="translate(0,161)"><rect width="15" height="20" stroke="rgb(162, 162, 111)" fill="#E8E89E" shape-rendering="crispEdges"/><text x="20" y="10" dominant-baseline="central" font-size="16" font-family="Arial" fill="black">PHD2_NSD2</text><text x="124.2578125" y="10" dominant-baseline="central" font-size="12" font-family="Arial" fill="#858585">PHD finger 2 found in nuclear SET domain-containing protein 2 (NSD2)</text></g><g transform="translate(0,184)"><rect width="15" height="20" stroke="rgb(176, 90, 80)" fill="#fb8072" shape-rendering="crispEdges"/><text x="20" y="10" dominant-baseline="central" font-size="16" font-family="Arial" fill="black">PHD3_NSD2</text><text x="124.2578125" y="10" dominant-baseline="central" font-size="12" font-family="Arial" fill="#858585">PHD finger 3 found in nuclear SET domain-containing protein 2 (NSD2)</text></g><g transform="translate(0,207)"><rect width="15" height="20" stroke="rgb(176, 90, 80)" fill="#fb8072" shape-rendering="crispEdges"/><text x="20" y="10" dominant-baseline="central" font-size="16" font-family="Arial" fill="black">PHD4_NSD2</text><text x="124.2578125" y="10" dominant-baseline="central" font-size="12" font-family="Arial" fill="#858585">PHD finger 4 found in nuclear SET domain-containing protein 2 (NSD2)</text></g><g transform="translate(0,230)"><rect width="15" height="20" stroke="rgb(90, 124, 148)" fill="#80b1d3" shape-rendering="crispEdges"/><text x="20" y="10" dominant-baseline="central" font-size="16" font-family="Arial" fill="black">WHSC1_related</text><text x="145.6015625" y="10" dominant-baseline="central" font-size="12" font-family="Arial" fill="#858585">The PWWP domain was first identified in the WHSC1 (Wolf-Hirschhorn syn ...</text></g><g transform="translate(0,253)"><rect width="15" height="20" stroke="rgb(133, 130, 153)" fill="#bebada" shape-rendering="crispEdges"/><text x="20" y="10" dominant-baseline="central" font-size="16" font-family="Arial" fill="black">AWS</text><text x="65.875" y="10" dominant-baseline="central" font-size="12" font-family="Arial" fill="#858585">associated with SET domains</text></g><g transform="translate(0,276)"><rect width="15" height="20" stroke="rgb(179, 152, 33)" fill="#ffd92f" shape-rendering="crispEdges"/><text x="20" y="10" dominant-baseline="central" font-size="16" font-family="Arial" fill="black">SET</text><text x="61.1171875" y="10" dominant-baseline="central" font-size="12" font-family="Arial" fill="#858585">SET (Su(var)3-9, Enhancer-of-zeste, Trithorax) domain</text></g><g transform="translate(0,299)"><rect width="15" height="20" stroke="rgb(125, 125, 125)" fill="#b3b3b3" shape-rendering="crispEdges"/><text x="20" y="10" dominant-baseline="central" font-size="16" font-family="Arial" fill="black">PHD5_NSD2</text><text x="124.2578125" y="10" dominant-baseline="central" font-size="12" font-family="Arial" fill="#858585">PHD finger 5 found in nuclear SET domain-containing protein 2 (NSD2)</text></g></g><g transform="translate(967.3984375,758.2052083333334)"><g transform="translate(0,0)"><circle cx="10" cy="10" r="10" fill="#3987CC"/><text x="30" y="10" dominant-baseline="central" font-size="16" font-family="Arial" fill="#3987CC">MISSENSE, n=14</text></g><g transform="translate(0,23)"><circle cx="10" cy="10" r="10" fill="#998199"/><text x="30" y="10" dominant-baseline="central" font-size="16" font-family="Arial" fill="#998199">UTR_3, n=6</text></g><g transform="translate(0,46)"><circle cx="10" cy="10" r="10" fill="#db3d3d"/><text x="30" y="10" dominant-baseline="central" font-size="16" font-family="Arial" fill="#db3d3d">FRAMESHIFT, n=1</text></g><g transform="translate(0,69)"><circle cx="10" cy="10" r="10" fill="#819981"/><text x="30" y="10" dominant-baseline="central" font-size="16" font-family="Arial" fill="#819981">UTR_5, n=1</text></g><g transform="translate(0,92)"><circle cx="10" cy="10" r="10" fill="#ff7f0e"/><text x="30" y="10" dominant-baseline="central" font-size="16" font-family="Arial" fill="#ff7f0e">NONSENSE, n=1</text></g><g transform="translate(0,115)"><circle cx="10" cy="10" r="10" fill="#2ca02c"/><text x="30" y="10" dominant-baseline="central" font-size="16" font-family="Arial" fill="#2ca02c">SILENT, n=1</text></g></g></svg>