<svg xmlns="http://www.w3.org/2000/svg" data-testid="sjpp_block_svg" width="1335.3984375" height="527.334375"><g transform="translate(0,0)"><g transform="translate(125.3984375, 0)"/><rect fill="#FFFF99" x="825" width="0" height="418.334375"/><g transform="translate(125.3984375, 23)"><g transform="translate(0,0)"><text text-anchor="end" x="-13" y="-10" dominant-baseline="central" font-size="13" font-family="Arial">Protein length</text><g><g transform="translate(0,0)" fill="none" font-size="10" font-family="sans-serif" text-anchor="middle"><path class="domain" stroke="black" d="M0,-6V0H1100V-6" fill="none" stroke-width="1" shape-rendering="crispEdges"/><g class="tick" opacity="1" transform="translate(137.5,0)"><line stroke="black" y2="-6" shape-rendering="crispEdges"/><text fill="black" y="-9" dy="0em" font-family="Arial" font-size="12px" style="cursor: default;">50</text></g><g class="tick" opacity="1" transform="translate(277.8061224489796,0)"><line stroke="black" y2="-6" shape-rendering="crispEdges"/><text fill="black" y="-9" dy="0em" font-family="Arial" font-size="12px" style="cursor: default;">100</text></g><g class="tick" opacity="1" transform="translate(418.1122448979592,0)"><line stroke="black" y2="-6" shape-rendering="crispEdges"/><text fill="black" y="-9" dy="0em" font-family="Arial" font-size="12px" style="cursor: default;">150</text></g><g class="tick" opacity="1" transform="translate(558.4183673469388,0)"><line stroke="black" y2="-6" shape-rendering="crispEdges"/><text fill="black" y="-9" dy="0em" font-family="Arial" font-size="12px" style="cursor: default;">200</text></g><g class="tick" opacity="1" transform="translate(698.7244897959184,0)"><line stroke="black" y2="-6" shape-rendering="crispEdges"/><text fill="black" y="-9" dy="0em" font-family="Arial" font-size="12px" style="cursor: default;">250</text></g><g class="tick" opacity="1" transform="translate(839.030612244898,0)"><line stroke="black" y2="-6" shape-rendering="crispEdges"/><text fill="black" y="-9" dy="0em" font-family="Arial" font-size="12px" style="cursor: default;">300</text></g><g class="tick" opacity="1" transform="translate(979.3367346938775,0)"><line stroke="black" y2="-6" shape-rendering="crispEdges"/><text fill="black" y="-9" dy="0em" font-family="Arial" font-size="12px" style="cursor: default;">350</text></g></g></g><rect fill="white" fill-opacity="0" x="0" y="-23" width="1100" height="26"/></g><g transform="translate(1100, 0)"/></g><g data-testid="sja_sample_menu_opener" transform="translate(0, 103)"><g transform="translate(1225.3984375, 0)"/><g transform="translate(125.3984375, 0)"><rect fill="white" fill-opacity="0" width="1100" height="181.83125"/><g transform="translate(0,0)" style="cursor: default;"><g class="sja_skg" transform="translate(9.391485214233398, 90.30000305175781)"><g transform="translate(0, 9.391485214233398)" class="sja_aa_discg"><circle fill="#ff7f0e" stroke="white" r="8.891485505499118"/><text font-family="Arial" class="sja_aa_discnum" fill-opacity="1" stroke-opacity="1" text-anchor="middle" font-size="14.087228258248675" y="4.2261684774746024" fill="white">2</text><text font-size="12" fill="#ff7f0e" x="10.391485505499118" y="3.5999999999999996" font-family="Arial" class="sja_aa_disclabel" fill-opacity="1" transform="rotate(90)">p.Met1?</text><circle r="8.891485505499118" stroke="#ff7f0e" class="sja_aa_disckick" fill="white" fill-opacity="0" stroke-opacity="0" transform="scale(1)"/><path d="M5.750626331774128e-16,-9.391485505499118L5.750626331774128e-16,-9.391485505499118Z" fill="#ff7f0e" class="sja_aa_discrim" fill-opacity="1" stroke-opacity="1"/></g><circle class="sja_aa_skkick" fill="white" fill-opacity="0" stroke="none" r="10.391485505499118" cy="9.391485505499118" transform="scale(0)"/><path class="sja_aa_stem" d="M0,0v-14l-8.923798430669185,-38.5v-37.8" stroke="#ff7f0e" fill="none"/></g><g class="sja_skg" transform="translate(25.782970428466797, 90.30000305175781)"><g transform="translate(0, 7)" class="sja_aa_discg"><circle fill="#3987CC" stroke="white" r="6.5"/><text font-size="12" fill="#3987CC" x="8" y="3.5999999999999996" font-family="Arial" class="sja_aa_disclabel" fill-opacity="1" transform="rotate(90)">p.Asn6Thr</text><circle r="6.5" stroke="#3987CC" class="sja_aa_disckick" fill="white" fill-opacity="0" stroke-opacity="0" transform="scale(1)"/><path d="M4.286263797015736e-16,-7L4.286263797015736e-16,-7Z" fill="#3987CC" class="sja_aa_discrim" fill-opacity="1" stroke-opacity="1"/></g><circle class="sja_aa_skkick" fill="white" fill-opacity="0" stroke="none" r="8" cy="7" transform="scale(0)"/><path class="sja_aa_stem" d="M0,0v-14l-10.349297541610479,-38.5v-37.8" stroke="#3987CC" fill="none"/></g><g class="sja_skg" transform="translate(39.7829704284668, 90.30000305175781)"><g transform="translate(0, 7)" class="sja_aa_discg"><circle fill="#3987CC" stroke="white" r="6.5"/><text font-size="12" fill="#3987CC" x="8" y="3.5999999999999996" font-family="Arial" class="sja_aa_disclabel" fill-opacity="1" transform="rotate(90)">p.Pro8Arg</text><circle r="6.5" stroke="#3987CC" class="sja_aa_disckick" fill="white" fill-opacity="0" stroke-opacity="0" transform="scale(1)"/><path d="M4.286263797015736e-16,-7L4.286263797015736e-16,-7Z" fill="#3987CC" class="sja_aa_discrim" fill-opacity="1" stroke-opacity="1"/></g><circle class="sja_aa_skkick" fill="white" fill-opacity="0" stroke="none" r="8" cy="7" transform="scale(0)"/><path class="sja_aa_stem" d="M0,0v-14l-18.7370526436513,-38.5v-37.8" stroke="#3987CC" fill="none"/></g><g class="sja_skg" transform="translate(53.7829704284668, 90.30000305175781)"><g transform="translate(0, 7)" class="sja_aa_discg"><circle fill="#3987CC" stroke="white" r="6.5"/><text font-size="12" fill="#3987CC" x="8" y="3.5999999999999996" font-family="Arial" class="sja_aa_disclabel" fill-opacity="1" transform="rotate(90)">p.Thr9Ile</text><circle r="6.5" stroke="#3987CC" class="sja_aa_disckick" fill="white" fill-opacity="0" stroke-opacity="0" transform="scale(1)"/><path d="M4.286263797015736e-16,-7L4.286263797015736e-16,-7Z" fill="#3987CC" class="sja_aa_discrim" fill-opacity="1" stroke-opacity="1"/></g><circle class="sja_aa_skkick" fill="white" fill-opacity="0" stroke="none" r="8" cy="7" transform="scale(0)"/><path class="sja_aa_stem" d="M0,0v-14l-29.930930194671706,-38.5v-37.8" stroke="#3987CC" fill="none"/></g><g class="sja_skg" transform="translate(67.78297424316406, 90.30000305175781)"><g transform="translate(0, 7)" class="sja_aa_discg"><circle fill="#3987CC" stroke="white" r="6.5"/><text font-size="12" fill="#3987CC" x="8" y="3.5999999999999996" font-family="Arial" class="sja_aa_disclabel" fill-opacity="1" transform="rotate(90)">p.Thr15Lys</text><circle r="6.5" stroke="#3987CC" class="sja_aa_disckick" fill="white" fill-opacity="0" stroke-opacity="0" transform="scale(1)"/><path d="M4.286263797015736e-16,-7L4.286263797015736e-16,-7Z" fill="#3987CC" class="sja_aa_discrim" fill-opacity="1" stroke-opacity="1"/></g><circle class="sja_aa_skkick" fill="white" fill-opacity="0" stroke="none" r="8" cy="7" transform="scale(0)"/><path class="sja_aa_stem" d="M0,0v-14l-27.094195500794157,-38.5v-37.8" stroke="#3987CC" fill="none"/></g><g class="sja_skg" transform="translate(84.17445373535156, 90.30000305175781)"><g transform="translate(0, 9.391485214233398)" class="sja_aa_discg"><circle fill="#3987CC" stroke="white" r="8.891485505499118"/><text font-family="Arial" class="sja_aa_discnum" fill-opacity="1" stroke-opacity="1" text-anchor="middle" font-size="14.087228258248675" y="4.2261684774746024" fill="white">2</text><text font-size="12" fill="#3987CC" x="10.391485505499118" y="3.5999999999999996" font-family="Arial" class="sja_aa_disclabel" fill-opacity="1" transform="rotate(90)">p.Gly16Arg</text><circle r="8.891485505499118" stroke="#3987CC" class="sja_aa_disckick" fill="white" fill-opacity="0" stroke-opacity="0" transform="scale(1)"/><path d="M5.750626331774128e-16,-9.391485505499118L5.750626331774128e-16,-9.391485505499118Z" fill="#3987CC" class="sja_aa_discrim" fill-opacity="1" stroke-opacity="1"/></g><circle class="sja_aa_skkick" fill="white" fill-opacity="0" stroke="none" r="10.391485505499118" cy="9.391485505499118" transform="scale(0)"/><path class="sja_aa_stem" d="M0,0v-14l-41.61493270697355,-38.5v-37.8" stroke="#3987CC" fill="none"/></g><g class="sja_skg" transform="translate(100.5659408569336, 90.30000305175781)"><g transform="translate(0, 7)" class="sja_aa_discg"><circle fill="#3987CC" stroke="white" r="6.5"/><text font-size="12" fill="#3987CC" x="8" y="3.5999999999999996" font-family="Arial" class="sja_aa_disclabel" fill-opacity="1" transform="scale(1) rotate(0)">p.Asn29Lys</text><circle r="6.5" stroke="#3987CC" class="sja_aa_disckick" fill="white" fill-opacity="0" stroke-opacity="0" transform="scale(1)"/><path d="M4.286263797015736e-16,-7L4.286263797015736e-16,-7Z" fill="#3987CC" class="sja_aa_discrim" fill-opacity="1" stroke-opacity="1"/></g><circle class="sja_aa_skkick" fill="white" fill-opacity="0" stroke="none" r="8" cy="7" transform="scale(0)"/><path class="sja_aa_stem" d="M0,0v-14l-19.65607807641824,-38.5v-37.8" stroke="#3987CC" fill="none"/></g><g class="sja_skg" transform="translate(500.5659484863281, 90.30000305175781)"><g transform="translate(0, 7)" class="sja_aa_discg"><circle fill="#3987CC" stroke="white" r="6.5"/><text font-size="12" fill="#3987CC" x="8" y="3.5999999999999996" font-family="Arial" class="sja_aa_disclabel" fill-opacity="1" transform="rotate(90)">p.Tyr179Ser</text><circle r="6.5" stroke="#3987CC" class="sja_aa_disckick" fill="white" fill-opacity="0" stroke-opacity="0" transform="scale(1)"/><path d="M4.286263797015736e-16,-7L4.286263797015736e-16,-7Z" fill="#3987CC" class="sja_aa_discrim" fill-opacity="1" stroke-opacity="1"/></g><circle class="sja_aa_skkick" fill="white" fill-opacity="0" stroke="none" r="8" cy="7" transform="scale(0)"/><path class="sja_aa_stem" d="M0,0v-14l0.32691512086068997,-38.5v-37.8" stroke="#3987CC" fill="none"/></g><g class="sja_skg" transform="translate(542.56591796875, 90.30000305175781)"><g transform="translate(0, 7)" class="sja_aa_discg"><circle fill="#3987CC" stroke="white" r="6.5"/><text font-size="12" fill="#3987CC" x="8" y="3.5999999999999996" font-family="Arial" class="sja_aa_disclabel" fill-opacity="1" transform="">p.Thr194Ile</text><circle r="6.5" stroke="#3987CC" class="sja_aa_disckick" fill="white" fill-opacity="0" stroke-opacity="0" transform="scale(1)"/><path d="M4.286263797015736e-16,-7L4.286263797015736e-16,-7Z" fill="#3987CC" class="sja_aa_discrim" fill-opacity="1" stroke-opacity="1"/></g><g transform="translate(0, 21)" class="sja_aa_discg"><circle fill="#3987CC" stroke="white" r="6.5"/><text font-size="12" fill="#3987CC" x="8" y="3.5999999999999996" font-family="Arial" class="sja_aa_disclabel" fill-opacity="1" transform="">p.Thr194Ser</text><circle r="6.5" stroke="#3987CC" class="sja_aa_disckick" fill="white" fill-opacity="0" stroke-opacity="0" transform="scale(1)"/><path d="M4.286263797015736e-16,-7L4.286263797015736e-16,-7Z" fill="#3987CC" class="sja_aa_discrim" fill-opacity="1" stroke-opacity="1"/></g><circle class="sja_aa_skkick" fill="white" fill-opacity="0" stroke="none" r="8" cy="7" transform="scale(0)"/><path class="sja_aa_stem" d="M0,0v-14l0.41875185555454664,-38.5v-37.8" stroke="#3987CC" fill="none"/><rect class="sja_aa_ssk_bg" shape-rendering="crispEdges" fill-opacity="0" height="14" fill="#3987CC" width="14" x="-7" transform="scale(1)" y="-14"/><text class="sja_aa_ssk_text" fill="white" fill-opacity="0" font-weight="bold" text-anchor="middle" dominant-baseline="central" font-size="14" transform="scale(1)" y="-7">2</text><rect class="sja_aa_ssk_kick" fill="white" fill-opacity="0" stroke="none" height="14" x="-7" width="14" transform="scale(1)" y="-14"/></g></g><g/><g transform="scale(0)"><rect fill="white" fill-opacity="0" width="1100" height="0"/><text data-testid="loading_message" fill="rgb(97, 124, 148)" fill-opacity="0" font-weight="bold" font-size="18px" text-anchor="middle" dominant-baseline="middle" x="550" y="15">Loading ...</text><line stroke="rgb(97, 124, 148)" stroke-width="2px" y1="30" y2="30" x2="0"/></g></g><g transform="translate(122.3984375, 0)"><text font-size="14" font-family="Arial" y="7" text-anchor="end" dominant-baseline="central" fill="black" x="-10" font-weight="bold">GAMBL DLBCL</text><g/><text font-size="14" font-family="Arial" y="26" text-anchor="end" dominant-baseline="central" class="sja_clbtext2" fill="black" x="-10">12 mutations</text></g><g transform="translate(1235.3984375, 0)"/></g><g data-testid="sja_sample_menu_opener" transform="translate(0, 284.83123779296875)"><g transform="translate(1225.3984375, 0)"/><g transform="translate(125.3984375,0)"><rect fill="white" fill-opacity="0" width="1100" height="138.503125"/><g transform="translate(0,0)" style="cursor: default;"><g class="sja_skg" transform="translate(18.239795684814453, 51.79999923706055)"><g transform="translate(0, 7)" class="sja_aa_discg"><circle fill="#3987CC" stroke="white" r="6.5"/><text font-size="12" fill="#3987CC" x="8" y="3.5999999999999996" font-family="Arial" class="sja_aa_disclabel" fill-opacity="1" transform="scale(1) rotate(0)">p.Tyr7Cys</text><circle r="6.5" stroke="#3987CC" class="sja_aa_disckick" fill="white" fill-opacity="0" stroke-opacity="0" transform="scale(1)"/><path d="M4.286263797015736e-16,-7L4.286263797015736e-16,-7Z" fill="#3987CC" class="sja_aa_discrim" fill-opacity="1" stroke-opacity="1"/></g><circle class="sja_aa_skkick" fill="white" fill-opacity="0" stroke="none" r="8" cy="7" transform="scale(0)"/><path class="sja_aa_stem" d="M0,0v-14l0,-14v-23.799999999999997" stroke="#3987CC" fill="none"/></g><g class="sja_skg" transform="translate(223.08673095703125, 51.79999923706055)"><g transform="translate(0, 7)" class="sja_aa_discg"><circle fill="#3987CC" stroke="white" r="6.5"/><text font-size="12" fill="#3987CC" x="8" y="3.5999999999999996" font-family="Arial" class="sja_aa_disclabel" fill-opacity="1" transform="rotate(90)">p.Pro80Arg</text><circle r="6.5" stroke="#3987CC" class="sja_aa_disckick" fill="white" fill-opacity="0" stroke-opacity="0" transform="scale(1)"/><path d="M4.286263797015736e-16,-7L4.286263797015736e-16,-7Z" fill="#3987CC" class="sja_aa_discrim" fill-opacity="1" stroke-opacity="1"/></g><circle class="sja_aa_skkick" fill="white" fill-opacity="0" stroke="none" r="8" cy="7" transform="scale(0)"/><path class="sja_aa_stem" d="M0,0v-14l0,-14v-23.799999999999997" stroke="#3987CC" fill="none"/></g><g class="sja_skg" transform="translate(270.7908020019531, 51.79999923706055)"><g transform="translate(0, 7)" class="sja_aa_discg"><circle fill="#3987CC" stroke="white" r="6.5"/><text font-size="12" fill="#3987CC" x="8" y="3.5999999999999996" font-family="Arial" class="sja_aa_disclabel" fill-opacity="1" transform="scale(1) rotate(0)">p.Glu97Gly</text><circle r="6.5" stroke="#3987CC" class="sja_aa_disckick" fill="white" fill-opacity="0" stroke-opacity="0" transform="scale(1)"/><path d="M4.286263797015736e-16,-7L4.286263797015736e-16,-7Z" fill="#3987CC" class="sja_aa_discrim" fill-opacity="1" stroke-opacity="1"/></g><circle class="sja_aa_skkick" fill="white" fill-opacity="0" stroke="none" r="8" cy="7" transform="scale(0)"/><path class="sja_aa_stem" d="M0,0v-14l0,-14v-23.799999999999997" stroke="#3987CC" fill="none"/></g></g><g/><g transform="scale(0)"><rect fill="white" fill-opacity="0" width="1100" height="0"/><text data-testid="loading_message" fill="rgb(97, 124, 148)" fill-opacity="0" font-weight="bold" font-size="18px" text-anchor="middle" dominant-baseline="middle" x="550" y="15">Loading ...</text><line stroke="rgb(97, 124, 148)" stroke-width="2px" y1="30" y2="30" x2="0"/></g></g><g transform="translate(122.3984375,0)"><text font-size="14" font-family="Arial" y="7" text-anchor="end" dominant-baseline="central" fill="black" x="-10" font-weight="bold">GAMBL FL</text><g/><text font-size="14" font-family="Arial" y="26" text-anchor="end" dominant-baseline="central" class="sja_clbtext2" fill="black" x="-10">3 mutations</text></g><g transform="translate(1235.3984375,0)"/></g><g data-testid="sja_sample_menu_opener" transform="translate(0, 31)"><g transform="translate(1225.3984375, 0)"/><g transform="translate(125.3984375,0)"><rect fill="white" fill-opacity="0" width="1100" height="25"/><g transform="translate(0,0)" style="cursor: default;"><text x="550" text-anchor="middle" y="7.5" dominant-baseline="central" font-size="14px" font-family="Arial">Failed to fetch</text></g><g/><g transform="scale(0)"><rect fill="white" fill-opacity="0" width="1100" height="0"/><text data-testid="loading_message" fill="rgb(97, 124, 148)" fill-opacity="0" font-weight="bold" font-size="18px" text-anchor="middle" dominant-baseline="middle" x="550" y="15">Loading ...</text><line stroke="rgb(97, 124, 148)" stroke-width="2px" y1="30" y2="30" x2="0"/></g></g><g transform="translate(122.3984375,0)"><text font-size="14" font-family="Arial" y="7" text-anchor="end" dominant-baseline="central" fill="black" x="-10" font-weight="bold">GAMBL BL</text><g/><text font-size="14" font-family="Arial" y="26" text-anchor="end" dominant-baseline="central" class="sja_clbtext2" fill="black" x="-10"/></g><g transform="translate(1235.3984375,0)"/></g><g data-testid="sja_sample_menu_opener" transform="translate(0, 56)"><g transform="translate(1225.3984375, 0)"/><g transform="translate(125.3984375,0)"><rect fill="white" fill-opacity="0" width="1100" height="47"/><g transform="translate(0,0)" style="cursor: default;"><g><line x1="0" y1="18.5" x2="1100" y2="18.5" stroke="black" shape-rendering="crispEdges"/><rect x="0" width="43.02721088435374" height="37" fill="white"/><rect x="42.09183673469388" width="1" height="37" fill="#fb8072"/><rect x="43.02721088435374" width="155.2721088435374" height="37" fill="white"/><rect x="43.02721088435374" width="155.2721088435374" height="37" fill="#fb8072"/><rect x="78.57142857142858" width="8.418367346938776" height="37" fill="#8dd3c7"/><rect x="56.12244897959184" width="5.612244897959184" height="37" fill="#8dd3c7"/><rect x="182.39795918367346" width="5.612244897959184" height="37" fill="#8dd3c7"/><rect x="196.42857142857142" width="1.870748299319728" height="37" fill="#8dd3c7"/><rect x="103.82653061224491" width="2.806122448979592" height="37" fill="#8dd3c7"/><rect x="89.79591836734694" width="2.806122448979592" height="37" fill="#8dd3c7"/><rect x="137.5" width="2.806122448979592" height="37" fill="#8dd3c7"/><rect x="176.78571428571428" width="2.806122448979592" height="37" fill="#8dd3c7"/><rect x="72.9591836734694" width="2.806122448979592" height="37" fill="#8dd3c7"/><rect x="168.3673469387755" width="2.806122448979592" height="37" fill="#8dd3c7"/><rect x="143.1122448979592" width="2.806122448979592" height="37" fill="#8dd3c7"/><rect x="198.29931972789115" width="185.20408163265307" height="37" fill="white"/><rect x="198.29931972789115" width="185.20408163265307" height="37" fill="#fb8072"/><rect x="221.68367346938774" width="19.642857142857142" height="37" fill="#8dd3c7"/><rect x="244.1326530612245" width="11.224489795918368" height="37" fill="#8dd3c7"/><rect x="305.8673469387755" width="8.418367346938776" height="37" fill="#8dd3c7"/><rect x="370.40816326530614" width="5.612244897959184" height="37" fill="#8dd3c7"/><rect x="381.63265306122446" width="1.870748299319728" height="37" fill="#8dd3c7"/><rect x="198.29931972789115" width="1" height="37" fill="#8dd3c7"/><rect x="364.7959183673469" width="2.806122448979592" height="37" fill="#8dd3c7"/><rect x="383.5034013605442" width="60.79931972789116" height="37" fill="white"/><rect x="383.5034013605442" width="9.35374149659864" height="37" fill="#fb8072"/><rect x="383.5034013605442" width="1" height="37" fill="#8dd3c7"/><rect x="390.05102040816325" width="2.806122448979592" height="37" fill="#8dd3c7"/><rect x="444.30272108843536" width="120.66326530612245" height="37" fill="white"/><rect x="564.9659863945578" width="164.62585034013605" height="37" fill="white"/><rect x="729.5918367346939" width="121.59863945578232" height="37" fill="white"/><rect x="780.1020408163265" width="71.08843537414967" height="37" fill="#bebada"/><rect x="851.1904761904761" width="95.40816326530613" height="37" fill="white"/><rect x="851.1904761904761" width="95.40816326530613" height="37" fill="#bebada"/><rect x="946.5986394557823" width="81.37755102040816" height="37" fill="white"/><rect x="946.5986394557823" width="81.37755102040816" height="37" fill="#bebada"/><rect x="1027.9761904761904" width="72.02380952380953" height="37" fill="white"/><rect x="1027.9761904761904" width="63.60544217687075" height="37" fill="#bebada"/><line x1="0" x2="1100" stroke="black"/><line x1="0" x2="1100" y1="37" y2="37" stroke="black"/><line x1="1100" x2="1100" y2="37" stroke="black"/><line x1="0" x2="0" y2="37" stroke="black"/><line class="exonboundaryclass" x1="43.02721088435374" x2="43.02721088435374" y1="0" y2="37" stroke="black" stroke-dasharray="4,2" shape-rendering="crispEdges" stroke-opacity="1"/><line class="exonboundaryclass" x1="198.29931972789115" x2="198.29931972789115" y1="0" y2="37" stroke="black" stroke-dasharray="4,2" shape-rendering="crispEdges" stroke-opacity="1"/><line class="exonboundaryclass" x1="383.5034013605442" x2="383.5034013605442" y1="0" y2="37" stroke="black" stroke-dasharray="4,2" shape-rendering="crispEdges" stroke-opacity="1"/><line class="exonboundaryclass" x1="444.30272108843536" x2="444.30272108843536" y1="0" y2="37" stroke="black" stroke-dasharray="4,2" shape-rendering="crispEdges" stroke-opacity="1"/><line class="exonboundaryclass" x1="564.9659863945578" x2="564.9659863945578" y1="0" y2="37" stroke="black" stroke-dasharray="4,2" shape-rendering="crispEdges" stroke-opacity="1"/><line class="exonboundaryclass" x1="729.5918367346939" x2="729.5918367346939" y1="0" y2="37" stroke="black" stroke-dasharray="4,2" shape-rendering="crispEdges" stroke-opacity="1"/><line class="exonboundaryclass" x1="851.1904761904761" x2="851.1904761904761" y1="0" y2="37" stroke="black" stroke-dasharray="4,2" shape-rendering="crispEdges" stroke-opacity="1"/><line class="exonboundaryclass" x1="946.5986394557823" x2="946.5986394557823" y1="0" y2="37" stroke="black" stroke-dasharray="4,2" shape-rendering="crispEdges" stroke-opacity="1"/><line class="exonboundaryclass" x1="1027.9761904761904" x2="1027.9761904761904" y1="0" y2="37" stroke="black" stroke-dasharray="4,2" shape-rendering="crispEdges" stroke-opacity="1"/><g transform="translate(0,18.5)" fill="none" font-size="10" font-family="sans-serif" text-anchor="middle"><path class="domain" stroke="none" d="M1.403061224489796,0H1100" fill="none" stroke-width="0" shape-rendering="crispEdges"/><g class="tick" opacity="1" transform="translate(139.19217687074828,0)"><line stroke="black" y2="0" shape-rendering="crispEdges"/><text fill="black" y="3" dy="0.71em" font-family="Arial" font-size="11.666666666666666px" style="cursor: default;">50</text></g><g class="tick" opacity="1" transform="translate(279.41468253968253,0)"><line stroke="black" y2="0" shape-rendering="crispEdges"/><text fill="black" y="3" dy="0.71em" font-family="Arial" font-size="11.666666666666666px" style="cursor: default;">100</text></g><g class="tick" opacity="1" transform="translate(419.23894557823127,0)"><line stroke="black" y2="0" shape-rendering="crispEdges"/><text fill="black" y="3" dy="0.71em" font-family="Arial" font-size="11.666666666666666px" style="cursor: default;">150</text></g><g class="tick" opacity="1" transform="translate(559.3754943838001,0)"><line stroke="black" y2="0" shape-rendering="crispEdges"/><text fill="black" y="3" dy="0.71em" font-family="Arial" font-size="11.666666666666666px" style="cursor: default;">200</text></g><g class="tick" opacity="1" transform="translate(698.9860774818402,0)"><line stroke="black" y2="0" shape-rendering="crispEdges"/><text fill="black" y="3" dy="0.71em" font-family="Arial" font-size="11.666666666666666px" style="cursor: default;">250</text></g><g class="tick" opacity="1" transform="translate(840.0094921689605,0)"><line stroke="black" y2="0" shape-rendering="crispEdges"/><text fill="black" y="3" dy="0.71em" font-family="Arial" font-size="11.666666666666666px" style="cursor: default;">300</text></g><g class="tick" opacity="1" transform="translate(980.5462702322309,0)"><line stroke="black" y2="0" shape-rendering="crispEdges"/><text fill="black" y="3" dy="0.71em" font-family="Arial" font-size="11.666666666666666px" style="cursor: default;">350</text></g></g><rect x="0" width="43.02721088435374" height="37" fill="#858585" fill-opacity="0"/><rect x="43.02721088435374" width="155.2721088435374" height="37" fill="#858585" fill-opacity="0"/><rect x="198.29931972789115" width="185.20408163265307" height="37" fill="#858585" fill-opacity="0"/><rect x="383.5034013605442" width="60.79931972789116" height="37" fill="#858585" fill-opacity="0"/><rect x="444.30272108843536" width="120.66326530612245" height="37" fill="#858585" fill-opacity="0"/><rect x="564.9659863945578" width="164.62585034013605" height="37" fill="#858585" fill-opacity="0"/><rect x="729.5918367346939" width="121.59863945578232" height="37" fill="#858585" fill-opacity="0"/><rect x="851.1904761904761" width="95.40816326530613" height="37" fill="#858585" fill-opacity="0"/><rect x="946.5986394557823" width="81.37755102040816" height="37" fill="#858585" fill-opacity="0"/><rect x="1027.9761904761904" width="72.02380952380953" height="37" fill="#858585" fill-opacity="0"/></g></g><g/><g transform="scale(0)"><rect fill="white" fill-opacity="0"/><text data-testid="loading_message" fill="rgb(97, 124, 148)" fill-opacity="0" font-weight="bold" font-size="18px" text-anchor="middle" dominant-baseline="middle">Loading ...</text><line stroke="rgb(97, 124, 148)" stroke-width="2px"/></g></g><g transform="translate(122.3984375,0)"><text font-size="14" font-family="Arial" y="7" text-anchor="end" dominant-baseline="central" fill="black" x="-10" font-weight="bold">PAX5</text><text font-size="14" font-family="Arial" y="20" text-anchor="end" dominant-baseline="central" fill="black" x="-10">NM_016734</text></g><g transform="translate(1235.3984375,0)"><text fill="#aaa" font-family="Arial" font-size="14" y="14" class="sja_clbtext2"/></g></g></g><g transform="scale(0)"><rect fill="white"/><text id="loadinggCloak" fill="rgb(97, 124, 148)" fill-opacity="0" font-weight="bold" font-size="18px" text-anchor="middle" dominant-baseline="middle">Loading ...</text></g><g/><g transform="translate(124.3984375,438.334375)"><g transform="translate(0,0)"><rect width="15" height="20" stroke="rgb(176, 90, 80)" fill="#fb8072" shape-rendering="crispEdges"/><text x="20" y="10" dominant-baseline="central" font-size="16" font-family="Arial" fill="black">PAX</text><text x="60.828125" y="10" dominant-baseline="central" font-size="12" font-family="Arial" fill="#858585">Paired Box domain</text></g><g transform="translate(0,23)"><rect width="15" height="20" stroke="rgb(99, 148, 139)" fill="#8dd3c7" shape-rendering="crispEdges"/><text x="20" y="10" dominant-baseline="central" font-size="16" font-family="Arial" fill="black">DNA binding</text><text x="118.9453125" y="10" dominant-baseline="central" font-size="12" font-family="Arial" fill="#858585">DNA binding site [nucleotide binding]</text></g><g transform="translate(0,46)"><rect width="15" height="20" stroke="rgb(133, 130, 153)" fill="#bebada" shape-rendering="crispEdges"/><text x="20" y="10" dominant-baseline="central" font-size="16" font-family="Arial" fill="black">Pax2_C</text><text x="86.921875" y="10" dominant-baseline="central" font-size="12" font-family="Arial" fill="#858585">Paired-box protein 2 C terminal</text></g></g><g transform="translate(1027.3984375,438.334375)"><g transform="translate(0,0)"><circle cx="10" cy="10" r="10" fill="#3987CC"/><text x="30" y="10" dominant-baseline="central" font-size="16" font-family="Arial" fill="#3987CC">MISSENSE, n=13</text></g><g transform="translate(0,23)"><circle cx="10" cy="10" r="10" fill="#ff7f0e"/><text x="30" y="10" dominant-baseline="central" font-size="16" font-family="Arial" fill="#ff7f0e">NONSENSE, n=2</text></g></g></svg>