<svg xmlns="http://www.w3.org/2000/svg" data-testid="sjpp_block_svg" width="1500.40625" height="862.23515625"><g transform="translate(0,0)"><g transform="translate(130.40625, 0)"/><rect fill="#FFFF99" x="866" width="0" height="707.23515625"/><g transform="translate(130.40625, 23)"><g transform="translate(0,0)"><text text-anchor="end" x="-13" y="-10" dominant-baseline="central" font-size="13" font-family="Arial">Protein length</text><g><g transform="translate(0,0)" fill="none" font-size="10" font-family="sans-serif" text-anchor="middle"><path class="domain" stroke="black" d="M0,-6V0H1260V-6" fill="none" stroke-width="1" shape-rendering="crispEdges"/><g class="tick" opacity="1" transform="translate(106.83425649765658,0)"><line stroke="black" y2="-6" shape-rendering="crispEdges"/><text fill="black" y="-9" dy="0em" font-family="Arial" font-size="12px" style="cursor: default;">200</text></g><g class="tick" opacity="1" transform="translate(214.2053685556029,0)"><line stroke="black" y2="-6" shape-rendering="crispEdges"/><text fill="black" y="-9" dy="0em" font-family="Arial" font-size="12px" style="cursor: default;">400</text></g><g class="tick" opacity="1" transform="translate(321.5764806135492,0)"><line stroke="black" y2="-6" shape-rendering="crispEdges"/><text fill="black" y="-9" dy="0em" font-family="Arial" font-size="12px" style="cursor: default;">600</text></g><g class="tick" opacity="1" transform="translate(428.9475926714955,0)"><line stroke="black" y2="-6" shape-rendering="crispEdges"/><text fill="black" y="-9" dy="0em" font-family="Arial" font-size="12px" style="cursor: default;">800</text></g><g class="tick" opacity="1" transform="translate(536.3187047294418,0)"><line stroke="black" y2="-6" shape-rendering="crispEdges"/><text fill="black" y="-9" dy="0em" font-family="Arial" font-size="12px" style="cursor: default;">1000</text></g><g class="tick" opacity="1" transform="translate(643.6898167873882,0)"><line stroke="black" y2="-6" shape-rendering="crispEdges"/><text fill="black" y="-9" dy="0em" font-family="Arial" font-size="12px" style="cursor: default;">1200</text></g><g class="tick" opacity="1" transform="translate(751.0609288453345,0)"><line stroke="black" y2="-6" shape-rendering="crispEdges"/><text fill="black" y="-9" dy="0em" font-family="Arial" font-size="12px" style="cursor: default;">1400</text></g><g class="tick" opacity="1" transform="translate(858.4320409032807,0)"><line stroke="black" y2="-6" shape-rendering="crispEdges"/><text fill="black" y="-9" dy="0em" font-family="Arial" font-size="12px" style="cursor: default;">1600</text></g><g class="tick" opacity="1" transform="translate(965.8031529612272,0)"><line stroke="black" y2="-6" shape-rendering="crispEdges"/><text fill="black" y="-9" dy="0em" font-family="Arial" font-size="12px" style="cursor: default;">1800</text></g><g class="tick" opacity="1" transform="translate(1073.1742650191734,0)"><line stroke="black" y2="-6" shape-rendering="crispEdges"/><text fill="black" y="-9" dy="0em" font-family="Arial" font-size="12px" style="cursor: default;">2000</text></g><g class="tick" opacity="1" transform="translate(1180.5453770771198,0)"><line stroke="black" y2="-6" shape-rendering="crispEdges"/><text fill="black" y="-9" dy="0em" font-family="Arial" font-size="12px" style="cursor: default;">2200</text></g></g></g><rect fill="white" fill-opacity="0" x="0" y="-23" width="1260" height="26"/></g><g transform="translate(1260, 0)"/></g><g data-testid="sja_sample_menu_opener" transform="translate(0, 395.1976623535156)"><g transform="translate(1390.40625, 0)"/><g transform="translate(130.40625, 0)"><rect fill="white" fill-opacity="0" width="1260" height="163.1828125"/><g transform="translate(0,0)" style="cursor: default;"><g class="sja_skg" transform="translate(117.12398529052734, 51.79999923706055)"><g transform="translate(0, 7)" class="sja_aa_discg"><circle fill="#2ca02c" stroke="white" r="6.5"/><text font-size="12" fill="#2ca02c" x="8" y="3.5999999999999996" font-family="Arial" class="sja_aa_disclabel" fill-opacity="1" transform="scale(1) rotate(0)">c.655C&gt;T(p.=)</text><circle r="6.5" stroke="#2ca02c" class="sja_aa_disckick" fill="white" fill-opacity="0" stroke-opacity="0" transform="scale(1)"/><path d="M4.286263797015736e-16,-7L4.286263797015736e-16,-7Z" fill="#2ca02c" class="sja_aa_discrim" fill-opacity="1" stroke-opacity="1"/></g><circle class="sja_aa_skkick" fill="white" fill-opacity="0" stroke="none" r="8" cy="7" transform="scale(0)"/><path class="sja_aa_stem" d="M0,0v-14l0,-14v-23.799999999999997" stroke="#2ca02c" fill="none"/></g><g class="sja_skg" transform="translate(240.77972412109375, 51.79999923706055)"><g transform="translate(0, 7)" class="sja_aa_discg"><circle fill="#3987CC" stroke="white" r="6.5"/><text font-size="12" fill="#3987CC" x="8" y="3.5999999999999996" font-family="Arial" class="sja_aa_disclabel" fill-opacity="1" transform="scale(1) rotate(0)">p.Leu449Ser</text><circle r="6.5" stroke="#3987CC" class="sja_aa_disckick" fill="white" fill-opacity="0" stroke-opacity="0" transform="scale(1)"/><path d="M4.286263797015736e-16,-7L4.286263797015736e-16,-7Z" fill="#3987CC" class="sja_aa_discrim" fill-opacity="1" stroke-opacity="1"/></g><circle class="sja_aa_skkick" fill="white" fill-opacity="0" stroke="none" r="8" cy="7" transform="scale(0)"/><path class="sja_aa_stem" d="M0,0v-14l0,-14v-23.799999999999997" stroke="#3987CC" fill="none"/></g><g class="sja_skg" transform="translate(558.4192504882812, 51.79999923706055)"><g transform="translate(0, 7)" class="sja_aa_discg"><circle fill="#3987CC" stroke="white" r="6.5"/><text font-size="12" fill="#3987CC" x="8" y="3.5999999999999996" font-family="Arial" class="sja_aa_disclabel" fill-opacity="1" transform="scale(1) rotate(0)">p.Ser1041Thr</text><circle r="6.5" stroke="#3987CC" class="sja_aa_disckick" fill="white" fill-opacity="0" stroke-opacity="0" transform="scale(1)"/><path d="M4.286263797015736e-16,-7L4.286263797015736e-16,-7Z" fill="#3987CC" class="sja_aa_discrim" fill-opacity="1" stroke-opacity="1"/></g><circle class="sja_aa_skkick" fill="white" fill-opacity="0" stroke="none" r="8" cy="7" transform="scale(0)"/><path class="sja_aa_stem" d="M0,0v-14l0,-14v-23.799999999999997" stroke="#3987CC" fill="none"/></g><g class="sja_skg" transform="translate(719.8338012695312, 51.79999923706055)"><g transform="translate(0, 7)" class="sja_aa_discg"><circle fill="#2ca02c" stroke="white" r="6.5"/><text font-size="12" fill="#2ca02c" x="8" y="3.5999999999999996" font-family="Arial" class="sja_aa_disclabel" fill-opacity="1" transform="rotate(90)">c.4023G&gt;A(p.=)</text><circle r="6.5" stroke="#2ca02c" class="sja_aa_disckick" fill="white" fill-opacity="0" stroke-opacity="0" transform="scale(1)"/><path d="M4.286263797015736e-16,-7L4.286263797015736e-16,-7Z" fill="#2ca02c" class="sja_aa_discrim" fill-opacity="1" stroke-opacity="1"/></g><circle class="sja_aa_skkick" fill="white" fill-opacity="0" stroke="none" r="8" cy="7" transform="scale(0)"/><path class="sja_aa_stem" d="M0,0v-14l0,-14v-23.799999999999997" stroke="#2ca02c" fill="none"/></g><g class="sja_skg" transform="translate(776.9194946289062, 51.79999923706055)"><g transform="translate(0, 7)" class="sja_aa_discg"><circle fill="#2ca02c" stroke="white" r="6.5"/><text font-size="12" fill="#2ca02c" x="8" y="3.5999999999999996" font-family="Arial" class="sja_aa_disclabel" fill-opacity="1" transform="scale(1) rotate(0)">c.4342C&gt;T(p.=)</text><circle r="6.5" stroke="#2ca02c" class="sja_aa_disckick" fill="white" fill-opacity="0" stroke-opacity="0" transform="scale(1)"/><path d="M4.286263797015736e-16,-7L4.286263797015736e-16,-7Z" fill="#2ca02c" class="sja_aa_discrim" fill-opacity="1" stroke-opacity="1"/></g><circle class="sja_aa_skkick" fill="white" fill-opacity="0" stroke="none" r="8" cy="7" transform="scale(0)"/><path class="sja_aa_stem" d="M0,0v-14l0,-14v-23.799999999999997" stroke="#2ca02c" fill="none"/></g></g><g/><g transform="scale(0)"><rect fill="white" fill-opacity="0.5" width="1260" height="0"/><text data-testid="loading_message" fill="rgb(97, 124, 148)" fill-opacity="1" font-weight="bold" font-size="18px" text-anchor="middle" dominant-baseline="middle" x="630" y="15">Loading ...</text><line stroke="rgb(97, 124, 148)" stroke-width="2px" y1="30" y2="30" x2="0"/></g></g><g transform="translate(127.40625, 0)"><text font-size="14" font-family="Arial" y="7" text-anchor="end" dominant-baseline="central" fill="black" x="-10" font-weight="bold">GAMBL DLBCL</text><g/><text font-size="14" font-family="Arial" y="26" text-anchor="end" dominant-baseline="central" class="sja_clbtext2" fill="black" x="-10">5 of 6 mutations</text></g><g transform="translate(1400.40625, 0)"/></g><g data-testid="sja_sample_menu_opener" transform="translate(0, 31)"><g transform="translate(1390.40625, 0)"/><g transform="translate(130.40625, 0)"><rect fill="white" fill-opacity="0" width="1260" height="118.88203125"/><g transform="translate(0,0)" style="cursor: default;"><g class="sja_skg" transform="translate(194.43118286132812, 85.08203125)"><g transform="translate(0, -7)" class="sja_aa_discg"><circle fill="#ff7f0e" stroke="white" r="6.5"/><text font-size="12" fill="#ff7f0e" x="8" y="3.5999999999999996" font-family="Arial" class="sja_aa_disclabel" fill-opacity="1" transform="scale(1) rotate(0)">p.Arg363Ter</text><circle r="6.5" stroke="#ff7f0e" class="sja_aa_disckick" fill="white" fill-opacity="0" stroke-opacity="0" transform="scale(1)"/><path d="M4.286263797015736e-16,-7L4.286263797015736e-16,-7Z" fill="#ff7f0e" class="sja_aa_discrim" fill-opacity="1" stroke-opacity="1"/></g><circle class="sja_aa_skkick" fill="white" fill-opacity="0" stroke="none" r="8" cy="-7" transform="scale(0)"/><path class="sja_aa_stem" d="M0,0v0l0,0v23.799999999999997" stroke="#ff7f0e" fill="none"/></g><g class="sja_skg" transform="translate(426.53173828125, 85.08203125)"><g transform="translate(0, -7)" class="sja_aa_discg"><circle fill="#3987CC" stroke="white" r="6.5"/><text font-size="12" fill="#3987CC" x="8" y="3.5999999999999996" font-family="Arial" class="sja_aa_disclabel" fill-opacity="1" transform="scale(1) rotate(0)">p.Ala795Val</text><circle r="6.5" stroke="#3987CC" class="sja_aa_disckick" fill="white" fill-opacity="0" stroke-opacity="0" transform="scale(1)"/><path d="M4.286263797015736e-16,-7L4.286263797015736e-16,-7Z" fill="#3987CC" class="sja_aa_discrim" fill-opacity="1" stroke-opacity="1"/></g><circle class="sja_aa_skkick" fill="white" fill-opacity="0" stroke="none" r="8" cy="-7" transform="scale(0)"/><path class="sja_aa_stem" d="M0,0v0l0,0v23.799999999999997" stroke="#3987CC" fill="none"/></g><g class="sja_skg" transform="translate(597.0728759765625, 85.08203125)"><g transform="translate(0, -7)" class="sja_aa_discg"><circle fill="#3987CC" stroke="white" r="6.5"/><text font-size="12" fill="#3987CC" x="8" y="3.5999999999999996" font-family="Arial" class="sja_aa_disclabel" fill-opacity="1" transform="scale(1) rotate(0)">p.His1113Tyr</text><circle r="6.5" stroke="#3987CC" class="sja_aa_disckick" fill="white" fill-opacity="0" stroke-opacity="0" transform="scale(1)"/><path d="M4.286263797015736e-16,-7L4.286263797015736e-16,-7Z" fill="#3987CC" class="sja_aa_discrim" fill-opacity="1" stroke-opacity="1"/></g><circle class="sja_aa_skkick" fill="white" fill-opacity="0" stroke="none" r="8" cy="-7" transform="scale(0)"/><path class="sja_aa_stem" d="M0,0v0l0,0v23.799999999999997" stroke="#3987CC" fill="none"/></g></g><g/><g transform="scale(0)"><rect fill="white" fill-opacity="0.5" width="1260" height="0"/><text data-testid="loading_message" fill="rgb(97, 124, 148)" fill-opacity="1" font-weight="bold" font-size="18px" text-anchor="middle" dominant-baseline="middle" x="630" y="15">Loading ...</text><line stroke="rgb(97, 124, 148)" stroke-width="2px" y1="30" y2="30" x2="0"/></g></g><g transform="translate(127.40625, 0)"><text font-size="14" font-family="Arial" y="7" text-anchor="end" dominant-baseline="central" fill="black" x="-10" font-weight="bold">GAMBL FL</text><g/><text font-size="14" font-family="Arial" y="26" text-anchor="end" dominant-baseline="central" class="sja_clbtext2" fill="black" x="-10">3 mutations</text></g><g transform="translate(1400.40625, 0)"/></g><g data-testid="sja_sample_menu_opener" transform="translate(0, 196.8820343017578)"><g transform="translate(1390.40625, 0)"/><g transform="translate(130.40625, 0)"><rect fill="white" fill-opacity="0" width="1260" height="198.315625"/><g transform="translate(0,0)" style="cursor: default;"><g class="sja_skg" transform="translate(29, 63.79999923706055)"><g transform="translate(0, 7)" class="sja_aa_discg"><circle fill="#3987CC" stroke="white" r="6.5"/><text font-size="12" fill="#3987CC" x="8" y="3.5999999999999996" font-family="Arial" class="sja_aa_disclabel" fill-opacity="1" transform="rotate(90)">p.Glu56Gln</text><circle r="6.5" stroke="#3987CC" class="sja_aa_disckick" fill="white" fill-opacity="0" stroke-opacity="0" transform="scale(1)"/><path d="M4.286263797015736e-16,-7L4.286263797015736e-16,-7Z" fill="#3987CC" class="sja_aa_discrim" fill-opacity="1" stroke-opacity="1"/></g><circle class="sja_aa_skkick" fill="white" fill-opacity="0" stroke="none" r="8" cy="7" transform="scale(0)"/><path class="sja_aa_stem" d="M0,0v-14l0.6165317426501922,-26v-23.799999999999997" stroke="#3987CC" fill="none"/></g><g class="sja_skg" transform="translate(43, 63.79999923706055)"><g transform="translate(0, 7)" class="sja_aa_discg"><circle fill="#ff7f0e" stroke="white" r="6.5"/><text font-size="12" fill="#ff7f0e" x="8" y="3.5999999999999996" font-family="Arial" class="sja_aa_disclabel" fill-opacity="1" transform="scale(1) rotate(0)">p.Arg60Ter</text><circle r="6.5" stroke="#ff7f0e" class="sja_aa_disckick" fill="white" fill-opacity="0" stroke-opacity="0" transform="scale(1)"/><path d="M4.286263797015736e-16,-7L4.286263797015736e-16,-7Z" fill="#ff7f0e" class="sja_aa_discrim" fill-opacity="1" stroke-opacity="1"/></g><circle class="sja_aa_skkick" fill="white" fill-opacity="0" stroke="none" r="8" cy="7" transform="scale(0)"/><path class="sja_aa_stem" d="M0,0v-14l-11.236046016190883,-26v-23.799999999999997" stroke="#ff7f0e" fill="none"/></g><g class="sja_skg" transform="translate(529, 63.79999923706055)"><g transform="translate(0, 7)" class="sja_aa_discg"><circle fill="#db3d3d" stroke="white" r="6.5"/><text font-size="12" fill="#db3d3d" x="8" y="3.5999999999999996" font-family="Arial" class="sja_aa_disclabel" fill-opacity="1" transform="rotate(90)">p.Ser989PhefsTer11</text><circle r="6.5" stroke="#db3d3d" class="sja_aa_disckick" fill="white" fill-opacity="0" stroke-opacity="0" transform="scale(1)"/><path d="M4.286263797015736e-16,-7L4.286263797015736e-16,-7Z" fill="#db3d3d" class="sja_aa_discrim" fill-opacity="1" stroke-opacity="1"/></g><circle class="sja_aa_skkick" fill="white" fill-opacity="0" stroke="none" r="8" cy="7" transform="scale(0)"/><path class="sja_aa_stem" d="M0,0v-14l0.7869620792500882,-26v-23.799999999999997" stroke="#db3d3d" fill="none"/></g><g class="sja_skg" transform="translate(554, 63.79999923706055)"><g transform="translate(0, 7)" class="sja_aa_discg"><circle fill="#3987CC" stroke="white" r="6.5"/><text font-size="12" fill="#3987CC" x="8" y="3.5999999999999996" font-family="Arial" class="sja_aa_disclabel" fill-opacity="1" transform="scale(1) rotate(0)">p.Gln1033Pro</text><circle r="6.5" stroke="#3987CC" class="sja_aa_disckick" fill="white" fill-opacity="0" stroke-opacity="0" transform="scale(1)"/><path d="M4.286263797015736e-16,-7L4.286263797015736e-16,-7Z" fill="#3987CC" class="sja_aa_discrim" fill-opacity="1" stroke-opacity="1"/></g><circle class="sja_aa_skkick" fill="white" fill-opacity="0" stroke="none" r="8" cy="7" transform="scale(0)"/><path class="sja_aa_stem" d="M0,0v-14l0.30336599914778617,-26v-23.799999999999997" stroke="#3987CC" fill="none"/></g><g class="sja_skg" transform="translate(793, 63.79999923706055)"><g transform="translate(0, 7)" class="sja_aa_discg"><circle fill="#3987CC" stroke="white" r="6.5"/><text font-size="12" fill="#3987CC" x="8" y="3.5999999999999996" font-family="Arial" class="sja_aa_disclabel" fill-opacity="1" transform="rotate(90)">p.Ile1478Val</text><circle r="6.5" stroke="#3987CC" class="sja_aa_disckick" fill="white" fill-opacity="0" stroke-opacity="0" transform="scale(1)"/><path d="M4.286263797015736e-16,-7L4.286263797015736e-16,-7Z" fill="#3987CC" class="sja_aa_discrim" fill-opacity="1" stroke-opacity="1"/></g><circle class="sja_aa_skkick" fill="white" fill-opacity="0" stroke="none" r="8" cy="7" transform="scale(0)"/><path class="sja_aa_stem" d="M0,0v-14l0.02513847464842911,-26v-23.799999999999997" stroke="#3987CC" fill="none"/></g><g class="sja_skg" transform="translate(861, 63.79999923706055)"><g transform="translate(0, 7)" class="sja_aa_discg"><circle fill="#3987CC" stroke="white" r="6.5"/><text font-size="12" fill="#3987CC" x="8" y="3.5999999999999996" font-family="Arial" class="sja_aa_disclabel" fill-opacity="1" transform="scale(1) rotate(0)">p.Arg1605Leu</text><circle r="6.5" stroke="#3987CC" class="sja_aa_disckick" fill="white" fill-opacity="0" stroke-opacity="0" transform="scale(1)"/><path d="M4.286263797015736e-16,-7L4.286263797015736e-16,-7Z" fill="#3987CC" class="sja_aa_discrim" fill-opacity="1" stroke-opacity="1"/></g><circle class="sja_aa_skkick" fill="white" fill-opacity="0" stroke="none" r="8" cy="7" transform="scale(0)"/><path class="sja_aa_stem" d="M0,0v-14l0.38474648487431296,-26v-23.799999999999997" stroke="#3987CC" fill="none"/></g><g class="sja_skg" transform="translate(953, 63.79999923706055)"><g transform="translate(0, 7)" class="sja_aa_discg"><circle fill="#3987CC" stroke="white" r="6.5"/><text font-size="12" fill="#3987CC" x="8" y="3.5999999999999996" font-family="Arial" class="sja_aa_disclabel" fill-opacity="1" transform="rotate(90)">p.Ser1777Phe</text><circle r="6.5" stroke="#3987CC" class="sja_aa_disckick" fill="white" fill-opacity="0" stroke-opacity="0" transform="scale(1)"/><path d="M4.286263797015736e-16,-7L4.286263797015736e-16,-7Z" fill="#3987CC" class="sja_aa_discrim" fill-opacity="1" stroke-opacity="1"/></g><circle class="sja_aa_skkick" fill="white" fill-opacity="0" stroke="none" r="8" cy="7" transform="scale(0)"/><path class="sja_aa_stem" d="M0,0v-14l0.7239028547080579,-26v-23.799999999999997" stroke="#3987CC" fill="none"/></g><g class="sja_skg" transform="translate(1041, 63.79999923706055)"><g transform="translate(0, 7)" class="sja_aa_discg"><circle fill="#3987CC" stroke="white" r="6.5"/><text font-size="12" fill="#3987CC" x="8" y="3.5999999999999996" font-family="Arial" class="sja_aa_disclabel" fill-opacity="1" transform="scale(1) rotate(0)">p.Ser1941Tyr</text><circle r="6.5" stroke="#3987CC" class="sja_aa_disckick" fill="white" fill-opacity="0" stroke-opacity="0" transform="scale(1)"/><path d="M4.286263797015736e-16,-7L4.286263797015736e-16,-7Z" fill="#3987CC" class="sja_aa_discrim" fill-opacity="1" stroke-opacity="1"/></g><circle class="sja_aa_skkick" fill="white" fill-opacity="0" stroke="none" r="8" cy="7" transform="scale(0)"/><path class="sja_aa_stem" d="M0,0v-14l0.7682147422240178,-26v-23.799999999999997" stroke="#3987CC" fill="none"/></g></g><g/><g transform="scale(0)"><rect fill="white" fill-opacity="0.5" width="1260" height="0"/><text data-testid="loading_message" fill="rgb(97, 124, 148)" fill-opacity="1" font-weight="bold" font-size="18px" text-anchor="middle" dominant-baseline="middle" x="630" y="15">Loading ...</text><line stroke="rgb(97, 124, 148)" stroke-width="2px" y1="30" y2="30" x2="0"/></g></g><g transform="translate(127.40625, 0)"><text font-size="14" font-family="Arial" y="7" text-anchor="end" dominant-baseline="central" fill="black" x="-10" font-weight="bold">GAMBL BL</text><g/><text font-size="14" font-family="Arial" y="26" text-anchor="end" dominant-baseline="central" class="sja_clbtext2" fill="black" x="-10">8 of 13 mutations</text></g><g transform="translate(1400.40625, 0)"/></g><g data-testid="sja_sample_menu_opener" transform="translate(0, 558.3804931640625)"><g transform="translate(1390.40625, 0)"/><g transform="translate(130.40625, 0)"><rect fill="white" fill-opacity="0" width="1260" height="153.8546875"/><g transform="translate(0,0)" style="cursor: default;"><g class="sja_skg" transform="translate(938.6919555664062, 51.79999923706055)"><g transform="translate(0, 7)" class="sja_aa_discg"><circle fill="#3987CC" stroke="white" r="6.5"/><text font-size="12" fill="#3987CC" x="8" y="3.5999999999999996" font-family="Arial" class="sja_aa_disclabel" fill-opacity="1" transform="rotate(90)">p.Leu1749Arg</text><circle r="6.5" stroke="#3987CC" class="sja_aa_disckick" fill="white" fill-opacity="0" stroke-opacity="0" transform="scale(1)"/><path d="M4.286263797015736e-16,-7L4.286263797015736e-16,-7Z" fill="#3987CC" class="sja_aa_discrim" fill-opacity="1" stroke-opacity="1"/></g><circle class="sja_aa_skkick" fill="white" fill-opacity="0" stroke="none" r="8" cy="7" transform="scale(0)"/><path class="sja_aa_stem" d="M0,0v-14l0,-14v-23.799999999999997" stroke="#3987CC" fill="none"/></g><g class="sja_skg" transform="translate(1006.3357543945312, 51.79999923706055)"><g transform="translate(0, 7)" class="sja_aa_discg"><circle fill="#3987CC" stroke="white" r="6.5"/><text font-size="12" fill="#3987CC" x="8" y="3.5999999999999996" font-family="Arial" class="sja_aa_disclabel" fill-opacity="1" transform="scale(1) rotate(0)">p.Arg1875Gln</text><circle r="6.5" stroke="#3987CC" class="sja_aa_disckick" fill="white" fill-opacity="0" stroke-opacity="0" transform="scale(1)"/><path d="M4.286263797015736e-16,-7L4.286263797015736e-16,-7Z" fill="#3987CC" class="sja_aa_discrim" fill-opacity="1" stroke-opacity="1"/></g><circle class="sja_aa_skkick" fill="white" fill-opacity="0" stroke="none" r="8" cy="7" transform="scale(0)"/><path class="sja_aa_stem" d="M0,0v-14l0,-14v-23.799999999999997" stroke="#3987CC" fill="none"/></g><g class="sja_skg" transform="translate(1213.56201171875, 51.79999923706055)"><g transform="translate(0, 7)" class="sja_aa_discg"><circle fill="#3987CC" stroke="white" r="6.5"/><text font-size="12" fill="#3987CC" x="8" y="3.5999999999999996" font-family="Arial" class="sja_aa_disclabel" fill-opacity="1" transform="rotate(90)">p.Ser2261Asn</text><circle r="6.5" stroke="#3987CC" class="sja_aa_disckick" fill="white" fill-opacity="0" stroke-opacity="0" transform="scale(1)"/><path d="M4.286263797015736e-16,-7L4.286263797015736e-16,-7Z" fill="#3987CC" class="sja_aa_discrim" fill-opacity="1" stroke-opacity="1"/></g><circle class="sja_aa_skkick" fill="white" fill-opacity="0" stroke="none" r="8" cy="7" transform="scale(0)"/><path class="sja_aa_stem" d="M0,0v-14l0,-14v-23.799999999999997" stroke="#3987CC" fill="none"/></g></g><g/><g transform="scale(0)"><rect fill="white" fill-opacity="0.5" width="1260" height="0"/><text data-testid="loading_message" fill="rgb(97, 124, 148)" fill-opacity="1" font-weight="bold" font-size="18px" text-anchor="middle" dominant-baseline="middle" x="630" y="15">Loading ...</text><line stroke="rgb(97, 124, 148)" stroke-width="2px" y1="30" y2="30" x2="0"/></g></g><g transform="translate(127.40625, 0)"><text font-size="14" font-family="Arial" y="7" text-anchor="end" dominant-baseline="central" fill="black" x="-10" font-weight="bold">GAMBL MCL</text><g/><text font-size="14" font-family="Arial" y="26" text-anchor="end" dominant-baseline="central" class="sja_clbtext2" fill="black" x="-10">3 mutations</text></g><g transform="translate(1400.40625, 0)"/></g><g data-testid="sja_sample_menu_opener" transform="translate(0, 149.8820343017578)"><g transform="translate(1390.40625, 0)"/><g transform="translate(130.40625, 0)"><rect fill="white" fill-opacity="0" width="1260" height="47"/><g transform="translate(0,0)" style="cursor: default;"><g><line x1="0" y1="18.5" x2="1260.0000000000005" y2="18.5" stroke="black" shape-rendering="crispEdges"/><rect x="0" width="25.232211333617382" height="37" fill="white"/><rect x="2.1474222411589263" width="23.084789092458458" height="37" fill="#8dd3c7"/><rect x="25.232211333617382" width="13.77929271410311" height="37" fill="white"/><rect x="25.232211333617382" width="13.77929271410311" height="37" fill="#8dd3c7"/><rect x="39.01150404772049" width="22.190029825308905" height="37" fill="white"/><rect x="39.01150404772049" width="22.190029825308905" height="37" fill="#8dd3c7"/><rect x="61.2015338730294" width="31.49552620366425" height="37" fill="white"/><rect x="61.2015338730294" width="31.49552620366425" height="37" fill="#8dd3c7"/><rect x="92.69706007669365" width="21.11631870472944" height="37" fill="white"/><rect x="92.69706007669365" width="21.11631870472944" height="37" fill="#8dd3c7"/><rect x="113.81337878142308" width="23.621644652748188" height="37" fill="white"/><rect x="113.81337878142308" width="23.621644652748188" height="37" fill="#8dd3c7"/><rect x="137.43502343417128" width="21.474222411589263" height="37" fill="white"/><rect x="137.43502343417128" width="21.474222411589263" height="37" fill="#8dd3c7"/><rect x="158.90924584576055" width="16.642522368981677" height="37" fill="white"/><rect x="158.90924584576055" width="16.642522368981677" height="37" fill="#8dd3c7"/><rect x="175.55176821474222" width="38.11674478057094" height="37" fill="white"/><rect x="207.76310183212613" width="5.905411163187047" height="37" fill="#8dd3c7"/><rect x="175.55176821474222" width="38.11674478057094" height="37" fill="#8dd3c7"/><rect x="213.66851299531316" width="28.45334469535577" height="37" fill="white"/><rect x="213.66851299531316" width="28.45334469535577" height="37" fill="#8dd3c7"/><rect x="213.66851299531316" width="28.45334469535577" height="37" fill="#8dd3c7"/><rect x="242.12185769066895" width="20.4005112910098" height="37" fill="white"/><rect x="242.12185769066895" width="20.4005112910098" height="37" fill="#8dd3c7"/><rect x="242.12185769066895" width="20.4005112910098" height="37" fill="#8dd3c7"/><rect x="262.52236898167877" width="24.695355773327652" height="37" fill="white"/><rect x="262.52236898167877" width="24.695355773327652" height="37" fill="#8dd3c7"/><rect x="262.52236898167877" width="24.695355773327652" height="37" fill="#8dd3c7"/><rect x="287.21772475500643" width="32.21133361738389" height="37" fill="white"/><rect x="287.21772475500643" width="32.21133361738389" height="37" fill="#8dd3c7"/><rect x="287.21772475500643" width="32.21133361738389" height="37" fill="#8dd3c7"/><rect x="319.42905837239033" width="34.89561141883255" height="37" fill="white"/><rect x="319.42905837239033" width="34.89561141883255" height="37" fill="#8dd3c7"/><rect x="319.42905837239033" width="34.89561141883255" height="37" fill="#8dd3c7"/><rect x="354.3246697912229" width="29.527055815935235" height="37" fill="white"/><rect x="354.3246697912229" width="29.527055815935235" height="37" fill="#8dd3c7"/><rect x="354.3246697912229" width="10.2002556455049" height="37" fill="#8dd3c7"/><rect x="383.85172560715813" width="14.674051981252662" height="37" fill="white"/><rect x="383.85172560715813" width="14.674051981252662" height="37" fill="#8dd3c7"/><rect x="398.5257775884108" width="16.46357051555177" height="37" fill="white"/><rect x="398.5257775884108" width="16.46357051555177" height="37" fill="#8dd3c7"/><rect x="414.9893481039626" width="20.93736685129953" height="37" fill="white"/><rect x="414.9893481039626" width="20.93736685129953" height="37" fill="#8dd3c7"/><rect x="435.9267149552621" width="24.695355773327652" height="37" fill="white"/><rect x="435.9267149552621" width="24.695355773327652" height="37" fill="#8dd3c7"/><rect x="460.6220707285898" width="20.221559437579888" height="37" fill="white"/><rect x="460.6220707285898" width="20.221559437579888" height="37" fill="#8dd3c7"/><rect x="480.8436301661697" width="22.905837239028546" height="37" fill="white"/><rect x="480.8436301661697" width="22.905837239028546" height="37" fill="#8dd3c7"/><rect x="503.74946740519823" width="15.926714955262035" height="37" fill="white"/><rect x="503.74946740519823" width="15.926714955262035" height="37" fill="#8dd3c7"/><rect x="519.6761823604603" width="41.69578184916915" height="37" fill="white"/><rect x="519.6761823604603" width="41.69578184916915" height="37" fill="#8dd3c7"/><rect x="561.3719642096295" width="78.02300809544099" height="37" fill="white"/><rect x="561.3719642096295" width="35.07456327226246" height="37" fill="#8dd3c7"/><rect x="639.3949723050705" width="34.53770771197273" height="37" fill="white"/><rect x="673.9326800170433" width="21.474222411589263" height="37" fill="white"/><rect x="695.4069024286325" width="94.66553046442266" height="37" fill="white"/><rect x="790.0724328930552" width="42.23263740945888" height="37" fill="white"/><rect x="832.3050703025141" width="9.305496378355347" height="37" fill="white"/><rect x="834.8103962505328" width="6.8001704303366" height="37" fill="#fb8072"/><rect x="841.6105666808694" width="40.08521516829995" height="37" fill="white"/><rect x="841.6105666808694" width="29.706007669365146" height="37" fill="#fb8072"/><rect x="881.6957818491694" width="27.37963357477631" height="37" fill="white"/><rect x="909.0754154239457" width="33.285044737963354" height="37" fill="white"/><rect x="942.3604601619091" width="45.09586706433745" height="37" fill="white"/><rect x="987.4563272262466" width="23.621644652748188" height="37" fill="white"/><rect x="989.4247976139756" width="21.65317426501917" height="37" fill="#8dd3c7"/><rect x="1011.0779718789947" width="21.474222411589263" height="37" fill="white"/><rect x="1011.0779718789947" width="21.474222411589263" height="37" fill="#8dd3c7"/><rect x="1032.5521942905839" width="34.000852151683" height="37" fill="white"/><rect x="1032.5521942905839" width="34.000852151683" height="37" fill="#8dd3c7"/><rect x="1066.5530464422668" width="22.368981678738816" height="37" fill="white"/><rect x="1066.5530464422668" width="14.137196420962931" height="37" fill="#8dd3c7"/><rect x="1088.9220281210057" width="42.94844482317853" height="37" fill="white"/><rect x="1131.8704729441843" width="20.93736685129953" height="37" fill="white"/><rect x="1152.8078397954837" width="40.62207072858969" height="37" fill="white"/><rect x="1193.4299105240734" width="25.769066893907116" height="37" fill="white"/><rect x="1219.1989774179806" width="24.874307626757563" height="37" fill="white"/><rect x="1244.0732850447382" width="8.410737111205794" height="37" fill="white"/><rect x="1252.484022155944" width="7.515977844056242" height="37" fill="white"/><line x1="0" x2="1260.0000000000005" stroke="black"/><line x1="0" x2="1260.0000000000005" y1="37" y2="37" stroke="black"/><line x1="1260.0000000000005" x2="1260.0000000000005" y2="37" stroke="black"/><line x1="0" x2="0" y2="37" stroke="black"/><line class="exonboundaryclass" x1="25.232211333617382" x2="25.232211333617382" y1="0" y2="37" stroke="black" stroke-dasharray="4,2" shape-rendering="crispEdges" stroke-opacity="1"/><line class="exonboundaryclass" x1="39.01150404772049" x2="39.01150404772049" y1="0" y2="37" stroke="black" stroke-dasharray="4,2" shape-rendering="crispEdges" stroke-opacity="1"/><line class="exonboundaryclass" x1="61.2015338730294" x2="61.2015338730294" y1="0" y2="37" stroke="black" stroke-dasharray="4,2" shape-rendering="crispEdges" stroke-opacity="1"/><line class="exonboundaryclass" x1="92.69706007669365" x2="92.69706007669365" y1="0" y2="37" stroke="black" stroke-dasharray="4,2" shape-rendering="crispEdges" stroke-opacity="1"/><line class="exonboundaryclass" x1="113.81337878142308" x2="113.81337878142308" y1="0" y2="37" stroke="black" stroke-dasharray="4,2" shape-rendering="crispEdges" stroke-opacity="1"/><line class="exonboundaryclass" x1="137.43502343417128" x2="137.43502343417128" y1="0" y2="37" stroke="black" stroke-dasharray="4,2" shape-rendering="crispEdges" stroke-opacity="1"/><line class="exonboundaryclass" x1="158.90924584576055" x2="158.90924584576055" y1="0" y2="37" stroke="black" stroke-dasharray="4,2" shape-rendering="crispEdges" stroke-opacity="1"/><line class="exonboundaryclass" x1="175.55176821474222" x2="175.55176821474222" y1="0" y2="37" stroke="black" stroke-dasharray="4,2" shape-rendering="crispEdges" stroke-opacity="1"/><line class="exonboundaryclass" x1="213.66851299531316" x2="213.66851299531316" y1="0" y2="37" stroke="black" stroke-dasharray="4,2" shape-rendering="crispEdges" stroke-opacity="1"/><line class="exonboundaryclass" x1="242.12185769066895" x2="242.12185769066895" y1="0" y2="37" stroke="black" stroke-dasharray="4,2" shape-rendering="crispEdges" stroke-opacity="1"/><line class="exonboundaryclass" x1="262.52236898167877" x2="262.52236898167877" y1="0" y2="37" stroke="black" stroke-dasharray="4,2" shape-rendering="crispEdges" stroke-opacity="1"/><line class="exonboundaryclass" x1="287.21772475500643" x2="287.21772475500643" y1="0" y2="37" stroke="black" stroke-dasharray="4,2" shape-rendering="crispEdges" stroke-opacity="1"/><line class="exonboundaryclass" x1="319.42905837239033" x2="319.42905837239033" y1="0" y2="37" stroke="black" stroke-dasharray="4,2" shape-rendering="crispEdges" stroke-opacity="1"/><line class="exonboundaryclass" x1="354.3246697912229" x2="354.3246697912229" y1="0" y2="37" stroke="black" stroke-dasharray="4,2" shape-rendering="crispEdges" stroke-opacity="1"/><line class="exonboundaryclass" x1="383.85172560715813" x2="383.85172560715813" y1="0" y2="37" stroke="black" stroke-dasharray="4,2" shape-rendering="crispEdges" stroke-opacity="1"/><line class="exonboundaryclass" x1="398.5257775884108" x2="398.5257775884108" y1="0" y2="37" stroke="black" stroke-dasharray="4,2" shape-rendering="crispEdges" stroke-opacity="1"/><line class="exonboundaryclass" x1="414.9893481039626" x2="414.9893481039626" y1="0" y2="37" stroke="black" stroke-dasharray="4,2" shape-rendering="crispEdges" stroke-opacity="1"/><line class="exonboundaryclass" x1="435.9267149552621" x2="435.9267149552621" y1="0" y2="37" stroke="black" stroke-dasharray="4,2" shape-rendering="crispEdges" stroke-opacity="1"/><line class="exonboundaryclass" x1="460.6220707285898" x2="460.6220707285898" y1="0" y2="37" stroke="black" stroke-dasharray="4,2" shape-rendering="crispEdges" stroke-opacity="1"/><line class="exonboundaryclass" x1="480.8436301661697" x2="480.8436301661697" y1="0" y2="37" stroke="black" stroke-dasharray="4,2" shape-rendering="crispEdges" stroke-opacity="1"/><line class="exonboundaryclass" x1="503.74946740519823" x2="503.74946740519823" y1="0" y2="37" stroke="black" stroke-dasharray="4,2" shape-rendering="crispEdges" stroke-opacity="1"/><line class="exonboundaryclass" x1="519.6761823604603" x2="519.6761823604603" y1="0" y2="37" stroke="black" stroke-dasharray="4,2" shape-rendering="crispEdges" stroke-opacity="1"/><line class="exonboundaryclass" x1="561.3719642096295" x2="561.3719642096295" y1="0" y2="37" stroke="black" stroke-dasharray="4,2" shape-rendering="crispEdges" stroke-opacity="1"/><line class="exonboundaryclass" x1="639.3949723050705" x2="639.3949723050705" y1="0" y2="37" stroke="black" stroke-dasharray="4,2" shape-rendering="crispEdges" stroke-opacity="1"/><line class="exonboundaryclass" x1="673.9326800170433" x2="673.9326800170433" y1="0" y2="37" stroke="black" stroke-dasharray="4,2" shape-rendering="crispEdges" stroke-opacity="1"/><line class="exonboundaryclass" x1="695.4069024286325" x2="695.4069024286325" y1="0" y2="37" stroke="black" stroke-dasharray="4,2" shape-rendering="crispEdges" stroke-opacity="1"/><line class="exonboundaryclass" x1="790.0724328930552" x2="790.0724328930552" y1="0" y2="37" stroke="black" stroke-dasharray="4,2" shape-rendering="crispEdges" stroke-opacity="1"/><line class="exonboundaryclass" x1="832.3050703025141" x2="832.3050703025141" y1="0" y2="37" stroke="black" stroke-dasharray="4,2" shape-rendering="crispEdges" stroke-opacity="1"/><line class="exonboundaryclass" x1="841.6105666808694" x2="841.6105666808694" y1="0" y2="37" stroke="black" stroke-dasharray="4,2" shape-rendering="crispEdges" stroke-opacity="1"/><line class="exonboundaryclass" x1="881.6957818491694" x2="881.6957818491694" y1="0" y2="37" stroke="black" stroke-dasharray="4,2" shape-rendering="crispEdges" stroke-opacity="1"/><line class="exonboundaryclass" x1="909.0754154239457" x2="909.0754154239457" y1="0" y2="37" stroke="black" stroke-dasharray="4,2" shape-rendering="crispEdges" stroke-opacity="1"/><line class="exonboundaryclass" x1="942.3604601619091" x2="942.3604601619091" y1="0" y2="37" stroke="black" stroke-dasharray="4,2" shape-rendering="crispEdges" stroke-opacity="1"/><line class="exonboundaryclass" x1="987.4563272262466" x2="987.4563272262466" y1="0" y2="37" stroke="black" stroke-dasharray="4,2" shape-rendering="crispEdges" stroke-opacity="1"/><line class="exonboundaryclass" x1="1011.0779718789947" x2="1011.0779718789947" y1="0" y2="37" stroke="black" stroke-dasharray="4,2" shape-rendering="crispEdges" stroke-opacity="1"/><line class="exonboundaryclass" x1="1032.5521942905839" x2="1032.5521942905839" y1="0" y2="37" stroke="black" stroke-dasharray="4,2" shape-rendering="crispEdges" stroke-opacity="1"/><line class="exonboundaryclass" x1="1066.5530464422668" x2="1066.5530464422668" y1="0" y2="37" stroke="black" stroke-dasharray="4,2" shape-rendering="crispEdges" stroke-opacity="1"/><line class="exonboundaryclass" x1="1088.9220281210057" x2="1088.9220281210057" y1="0" y2="37" stroke="black" stroke-dasharray="4,2" shape-rendering="crispEdges" stroke-opacity="1"/><line class="exonboundaryclass" x1="1131.8704729441843" x2="1131.8704729441843" y1="0" y2="37" stroke="black" stroke-dasharray="4,2" shape-rendering="crispEdges" stroke-opacity="1"/><line class="exonboundaryclass" x1="1152.8078397954837" x2="1152.8078397954837" y1="0" y2="37" stroke="black" stroke-dasharray="4,2" shape-rendering="crispEdges" stroke-opacity="1"/><line class="exonboundaryclass" x1="1193.4299105240734" x2="1193.4299105240734" y1="0" y2="37" stroke="black" stroke-dasharray="4,2" shape-rendering="crispEdges" stroke-opacity="1"/><line class="exonboundaryclass" x1="1219.1989774179806" x2="1219.1989774179806" y1="0" y2="37" stroke="black" stroke-dasharray="4,2" shape-rendering="crispEdges" stroke-opacity="1"/><line class="exonboundaryclass" x1="1244.0732850447382" x2="1244.0732850447382" y1="0" y2="37" stroke="black" stroke-dasharray="4,2" shape-rendering="crispEdges" stroke-opacity="1"/><line class="exonboundaryclass" x1="1252.484022155944" x2="1252.484022155944" y1="0" y2="37" stroke="black" stroke-dasharray="4,2" shape-rendering="crispEdges" stroke-opacity="1"/><g transform="translate(0,18.5)" fill="none" font-size="10" font-family="sans-serif" text-anchor="middle"><path class="domain" stroke="none" d="M0.2684277801448658,0H1260.0000000000005" fill="none" stroke-width="0" shape-rendering="crispEdges"/><g class="tick" opacity="1" transform="translate(106.92149552620366,0)"><line stroke="black" y2="0" shape-rendering="crispEdges"/><text fill="black" y="3" dy="0.71em" font-family="Arial" font-size="11.666666666666666px" style="cursor: default;">200</text></g><g class="tick" opacity="1" transform="translate(214.4687316606507,0)"><line stroke="black" y2="0" shape-rendering="crispEdges"/><text fill="black" y="3" dy="0.71em" font-family="Arial" font-size="11.666666666666666px" style="cursor: default;">400</text></g><g class="tick" opacity="1" transform="translate(321.82838976106984,0)"><line stroke="black" y2="0" shape-rendering="crispEdges"/><text fill="black" y="3" dy="0.71em" font-family="Arial" font-size="11.666666666666666px" style="cursor: default;">600</text></g><g class="tick" opacity="1" transform="translate(429.03706859821057,0)"><line stroke="black" y2="0" shape-rendering="crispEdges"/><text fill="black" y="3" dy="0.71em" font-family="Arial" font-size="11.666666666666666px" style="cursor: default;">800</text></g><g class="tick" opacity="1" transform="translate(536.6231552852773,0)"><line stroke="black" y2="0" shape-rendering="crispEdges"/><text fill="black" y="3" dy="0.71em" font-family="Arial" font-size="11.666666666666666px" style="cursor: default;">1000</text></g><g class="tick" opacity="1" transform="translate(643.9470600766938,0)"><line stroke="black" y2="0" shape-rendering="crispEdges"/><text fill="black" y="3" dy="0.71em" font-family="Arial" font-size="11.666666666666666px" style="cursor: default;">1200</text></g><g class="tick" opacity="1" transform="translate(751.382228763993,0)"><line stroke="black" y2="0" shape-rendering="crispEdges"/><text fill="black" y="3" dy="0.71em" font-family="Arial" font-size="11.666666666666666px" style="cursor: default;">1400</text></g><g class="tick" opacity="1" transform="translate(858.6622922880274,0)"><line stroke="black" y2="0" shape-rendering="crispEdges"/><text fill="black" y="3" dy="0.71em" font-family="Arial" font-size="11.666666666666666px" style="cursor: default;">1600</text></g><g class="tick" opacity="1" transform="translate(966.0247123988074,0)"><line stroke="black" y2="0" shape-rendering="crispEdges"/><text fill="black" y="3" dy="0.71em" font-family="Arial" font-size="11.666666666666666px" style="cursor: default;">1800</text></g><g class="tick" opacity="1" transform="translate(1073.414997869621,0)"><line stroke="black" y2="0" shape-rendering="crispEdges"/><text fill="black" y="3" dy="0.71em" font-family="Arial" font-size="11.666666666666666px" style="cursor: default;">2000</text></g><g class="tick" opacity="1" transform="translate(1180.630143744534,0)"><line stroke="black" y2="0" shape-rendering="crispEdges"/><text fill="black" y="3" dy="0.71em" font-family="Arial" font-size="11.666666666666666px" style="cursor: default;">2200</text></g></g><rect x="0" width="25.232211333617382" height="37" fill="#858585" fill-opacity="0"/><rect x="25.232211333617382" width="13.77929271410311" height="37" fill="#858585" fill-opacity="0"/><rect x="39.01150404772049" width="22.190029825308905" height="37" fill="#858585" fill-opacity="0"/><rect x="61.2015338730294" width="31.49552620366425" height="37" fill="#858585" fill-opacity="0"/><rect x="92.69706007669365" width="21.11631870472944" height="37" fill="#858585" fill-opacity="0"/><rect x="113.81337878142308" width="23.621644652748188" height="37" fill="#858585" fill-opacity="0"/><rect x="137.43502343417128" width="21.474222411589263" height="37" fill="#858585" fill-opacity="0"/><rect x="158.90924584576055" width="16.642522368981677" height="37" fill="#858585" fill-opacity="0"/><rect x="175.55176821474222" width="38.11674478057094" height="37" fill="#858585" fill-opacity="0"/><rect x="213.66851299531316" width="28.45334469535577" height="37" fill="#858585" fill-opacity="0"/><rect x="242.12185769066895" width="20.4005112910098" height="37" fill="#858585" fill-opacity="0"/><rect x="262.52236898167877" width="24.695355773327652" height="37" fill="#858585" fill-opacity="0"/><rect x="287.21772475500643" width="32.21133361738389" height="37" fill="#858585" fill-opacity="0"/><rect x="319.42905837239033" width="34.89561141883255" height="37" fill="#858585" fill-opacity="0"/><rect x="354.3246697912229" width="29.527055815935235" height="37" fill="#858585" fill-opacity="0"/><rect x="383.85172560715813" width="14.674051981252662" height="37" fill="#858585" fill-opacity="0"/><rect x="398.5257775884108" width="16.46357051555177" height="37" fill="#858585" fill-opacity="0"/><rect x="414.9893481039626" width="20.93736685129953" height="37" fill="#858585" fill-opacity="0"/><rect x="435.9267149552621" width="24.695355773327652" height="37" fill="#858585" fill-opacity="0"/><rect x="460.6220707285898" width="20.221559437579888" height="37" fill="#858585" fill-opacity="0"/><rect x="480.8436301661697" width="22.905837239028546" height="37" fill="#858585" fill-opacity="0"/><rect x="503.74946740519823" width="15.926714955262035" height="37" fill="#858585" fill-opacity="0"/><rect x="519.6761823604603" width="41.69578184916915" height="37" fill="#858585" fill-opacity="0"/><rect x="561.3719642096295" width="78.02300809544099" height="37" fill="#858585" fill-opacity="0"/><rect x="639.3949723050705" width="34.53770771197273" height="37" fill="#858585" fill-opacity="0"/><rect x="673.9326800170433" width="21.474222411589263" height="37" fill="#858585" fill-opacity="0"/><rect x="695.4069024286325" width="94.66553046442266" height="37" fill="#858585" fill-opacity="0"/><rect x="790.0724328930552" width="42.23263740945888" height="37" fill="#858585" fill-opacity="0"/><rect x="832.3050703025141" width="9.305496378355347" height="37" fill="#858585" fill-opacity="0"/><rect x="841.6105666808694" width="40.08521516829995" height="37" fill="#858585" fill-opacity="0"/><rect x="881.6957818491694" width="27.37963357477631" height="37" fill="#858585" fill-opacity="0"/><rect x="909.0754154239457" width="33.285044737963354" height="37" fill="#858585" fill-opacity="0"/><rect x="942.3604601619091" width="45.09586706433745" height="37" fill="#858585" fill-opacity="0"/><rect x="987.4563272262466" width="23.621644652748188" height="37" fill="#858585" fill-opacity="0"/><rect x="1011.0779718789947" width="21.474222411589263" height="37" fill="#858585" fill-opacity="0"/><rect x="1032.5521942905839" width="34.000852151683" height="37" fill="#858585" fill-opacity="0"/><rect x="1066.5530464422668" width="22.368981678738816" height="37" fill="#858585" fill-opacity="0"/><rect x="1088.9220281210057" width="42.94844482317853" height="37" fill="#858585" fill-opacity="0"/><rect x="1131.8704729441843" width="20.93736685129953" height="37" fill="#858585" fill-opacity="0"/><rect x="1152.8078397954837" width="40.62207072858969" height="37" fill="#858585" fill-opacity="0"/><rect x="1193.4299105240734" width="25.769066893907116" height="37" fill="#858585" fill-opacity="0"/><rect x="1219.1989774179806" width="24.874307626757563" height="37" fill="#858585" fill-opacity="0"/><rect x="1244.0732850447382" width="8.410737111205794" height="37" fill="#858585" fill-opacity="0"/><rect x="1252.484022155944" width="7.515977844056242" height="37" fill="#858585" fill-opacity="0"/></g></g><g/><g transform="scale(0)"><rect fill="white" fill-opacity="0"/><text data-testid="loading_message" fill="rgb(97, 124, 148)" fill-opacity="0" font-weight="bold" font-size="18px" text-anchor="middle" dominant-baseline="middle">Loading ...</text><line stroke="rgb(97, 124, 148)" stroke-width="2px"/></g></g><g transform="translate(127.40625, 0)"><text font-size="14" font-family="Arial" y="7" text-anchor="end" dominant-baseline="central" fill="black" x="-10" font-weight="bold">PDE4DIP</text><text font-size="14" font-family="Arial" y="20" text-anchor="end" dominant-baseline="central" fill="black" x="-10">NM_014644</text></g><g transform="translate(1400.40625, 0)"><text fill="#aaa" font-family="Arial" font-size="14" y="14" class="sja_clbtext2"/></g></g></g><g transform="scale(0)"><rect fill="white"/><text id="loadinggCloak" fill="rgb(97, 124, 148)" fill-opacity="0" font-weight="bold" font-size="18px" text-anchor="middle" dominant-baseline="middle">Loading ...</text></g><g/><g transform="translate(129.40625,727.23515625)"><g transform="translate(0,0)"><rect width="15" height="20" stroke="rgb(99, 148, 139)" fill="#8dd3c7" shape-rendering="crispEdges"/><text x="20" y="10" dominant-baseline="central" font-size="16" font-family="Arial" fill="black">SMC_N</text><text x="86.0078125" y="10" dominant-baseline="central" font-size="12" font-family="Arial" fill="#858585">RecF/RecN/SMC N terminal domain</text></g><g transform="translate(0,23)"><rect width="15" height="20" stroke="rgb(176, 90, 80)" fill="#fb8072" shape-rendering="crispEdges"/><text x="20" y="10" dominant-baseline="central" font-size="16" font-family="Arial" fill="black">DUF1220</text><text x="98.4765625" y="10" dominant-baseline="central" font-size="12" font-family="Arial" fill="#858585">Repeat of unknown function (DUF1220)</text></g></g><g transform="translate(1192.40625,727.23515625)"><g transform="translate(0,0)"><circle cx="10" cy="10" r="10" fill="#3987CC"/><text x="30" y="10" dominant-baseline="central" font-size="16" font-family="Arial" fill="#3987CC">MISSENSE, n=13</text></g><g transform="translate(0,23)"><circle cx="10" cy="10" r="10" fill="#ff7f0e"/><text x="30" y="10" dominant-baseline="central" font-size="16" font-family="Arial" fill="#ff7f0e">NONSENSE, n=2</text></g><g transform="translate(0,46)"><circle cx="10" cy="10" r="10" fill="#998199"/><text x="30" y="10" dominant-baseline="central" font-size="16" font-family="Arial" fill="#998199">UTR_3, n=6</text></g><g transform="translate(0,69)"><circle cx="10" cy="10" r="10" fill="#db3d3d"/><text x="30" y="10" dominant-baseline="central" font-size="16" font-family="Arial" fill="#db3d3d">FRAMESHIFT, n=1</text></g><g transform="translate(0,92)"><circle cx="10" cy="10" r="10" fill="#2ca02c"/><text x="30" y="10" dominant-baseline="central" font-size="16" font-family="Arial" fill="#2ca02c">SILENT, n=3</text></g></g></svg>