<svg xmlns="http://www.w3.org/2000/svg" data-testid="sjpp_block_svg" width="1048.1875" height="835.2359375000001"><g transform="translate(0,0)"><g transform="translate(138.1875, 0)"/><rect fill="#FFFF99" width="0" x="849" height="634.2359375000001"/><g transform="translate(138.1875, 23)"><g transform="translate(0,0)"><text text-anchor="end" x="-13" y="-10" dominant-baseline="central" font-size="13" font-family="Arial">Protein length</text><g><g transform="translate(0,0)" fill="none" font-size="10" font-family="sans-serif" text-anchor="middle"><path class="domain" stroke="black" d="M0,-6V0H800V-6" fill="none" stroke-width="1" shape-rendering="crispEdges"/><g class="tick" opacity="1" transform="translate(107.10382513661203,0)"><line stroke="black" y2="-6" shape-rendering="crispEdges"/><text fill="black" y="-9" dy="0em" font-family="Arial" font-size="12px" style="cursor: default;">50</text></g><g class="tick" opacity="1" transform="translate(216.39344262295083,0)"><line stroke="black" y2="-6" shape-rendering="crispEdges"/><text fill="black" y="-9" dy="0em" font-family="Arial" font-size="12px" style="cursor: default;">100</text></g><g class="tick" opacity="1" transform="translate(325.6830601092896,0)"><line stroke="black" y2="-6" shape-rendering="crispEdges"/><text fill="black" y="-9" dy="0em" font-family="Arial" font-size="12px" style="cursor: default;">150</text></g><g class="tick" opacity="1" transform="translate(434.97267759562845,0)"><line stroke="black" y2="-6" shape-rendering="crispEdges"/><text fill="black" y="-9" dy="0em" font-family="Arial" font-size="12px" style="cursor: default;">200</text></g><g class="tick" opacity="1" transform="translate(544.2622950819672,0)"><line stroke="black" y2="-6" shape-rendering="crispEdges"/><text fill="black" y="-9" dy="0em" font-family="Arial" font-size="12px" style="cursor: default;">250</text></g><g class="tick" opacity="1" transform="translate(653.5519125683061,0)"><line stroke="black" y2="-6" shape-rendering="crispEdges"/><text fill="black" y="-9" dy="0em" font-family="Arial" font-size="12px" style="cursor: default;">300</text></g><g class="tick" opacity="1" transform="translate(762.8415300546447,0)"><line stroke="black" y2="-6" shape-rendering="crispEdges"/><text fill="black" y="-9" dy="0em" font-family="Arial" font-size="12px" style="cursor: default;">350</text></g></g></g><rect fill="white" fill-opacity="0" x="0" y="-23" width="800" height="26"/></g><g transform="translate(800, 0)"/></g><g data-testid="sja_sample_menu_opener" transform="translate(0, 298.63592529296875)"><g transform="translate(938.1875, 0)"/><g transform="translate(138.1875, 0)"><rect fill="white" fill-opacity="0" width="800" height="193.8625"/><g transform="translate(0,0)" style="cursor: default;"><g class="sja_skg" transform="translate(63, 65.80000305175781)"><g transform="translate(0, 7)" class="sja_aa_discg"><circle fill="#2ca02c" stroke="white" r="6.5"/><text font-size="12" fill="#2ca02c" x="8" y="3.5999999999999996" font-family="Arial" class="sja_aa_disclabel" fill-opacity="1" transform="scale(1) rotate(0)">c.87A&gt;G(p.=)</text><circle r="6.5" stroke="#2ca02c" class="sja_aa_disckick" fill="white" fill-opacity="0" stroke-opacity="0" transform="scale(1)"/><path d="M4.286263797015736e-16,-7L4.286263797015736e-16,-7Z" fill="#2ca02c" class="sja_aa_discrim" fill-opacity="1" stroke-opacity="1"/></g><circle class="sja_aa_skkick" fill="white" fill-opacity="0" stroke="none" r="8" cy="7" transform="scale(0)"/><path class="sja_aa_stem" d="M0,0v-14l0.02367941712203958,-28v-23.799999999999997" stroke="#2ca02c" fill="none"/></g><g class="sja_skg" transform="translate(272, 65.80000305175781)"><g transform="translate(0, 7)" class="sja_aa_discg"><circle fill="#6633FF" stroke="white" r="6.5"/><text font-size="12" fill="#6633FF" x="8" y="3.5999999999999996" font-family="Arial" class="sja_aa_disclabel" fill-opacity="1" transform="">c.374+2T&gt;A</text><circle r="6.5" stroke="#6633FF" class="sja_aa_disckick" fill="white" fill-opacity="0" stroke-opacity="0" transform="scale(1)"/><path d="M4.286263797015736e-16,-7L4.286263797015736e-16,-7Z" fill="#6633FF" class="sja_aa_discrim" fill-opacity="1" stroke-opacity="1"/></g><g transform="translate(0, 21)" class="sja_aa_discg"><circle fill="#6633FF" stroke="white" r="6.5"/><text font-size="12" fill="#6633FF" x="8" y="3.5999999999999996" font-family="Arial" class="sja_aa_disclabel" fill-opacity="1" transform="">c.374+2T&gt;C</text><circle r="6.5" stroke="#6633FF" class="sja_aa_disckick" fill="white" fill-opacity="0" stroke-opacity="0" transform="scale(1)"/><path d="M4.286263797015736e-16,-7L4.286263797015736e-16,-7Z" fill="#6633FF" class="sja_aa_discrim" fill-opacity="1" stroke-opacity="1"/></g><circle class="sja_aa_skkick" fill="white" fill-opacity="0" stroke="none" r="8" cy="7" transform="scale(0)"/><path class="sja_aa_stem" d="M0,0v-14l0.4954462659380283,-28v-23.799999999999997" stroke="#6633FF" fill="none"/><rect class="sja_aa_ssk_bg" shape-rendering="crispEdges" fill-opacity="0" height="14" fill="#6633FF" width="14" x="-7" transform="scale(1)" y="-14"/><text class="sja_aa_ssk_text" fill="white" fill-opacity="0" font-weight="bold" text-anchor="middle" dominant-baseline="central" font-size="14" transform="scale(1)" y="-7">2</text><rect class="sja_aa_ssk_kick" fill="white" fill-opacity="0" stroke="none" height="14" x="-7" width="14" transform="scale(1)" y="-14"/></g><g class="sja_skg" transform="translate(626.046875, 65.80000305175781)"><g transform="translate(0, 7)" class="sja_aa_discg"><circle fill="#3987CC" stroke="white" r="6.5"/><text font-size="12" fill="#3987CC" x="8" y="3.5999999999999996" font-family="Arial" class="sja_aa_disclabel" fill-opacity="1" transform="rotate(90)">p.Gly287Val</text><circle r="6.5" stroke="#3987CC" class="sja_aa_disckick" fill="white" fill-opacity="0" stroke-opacity="0" transform="scale(1)"/><path d="M4.286263797015736e-16,-7L4.286263797015736e-16,-7Z" fill="#3987CC" class="sja_aa_discrim" fill-opacity="1" stroke-opacity="1"/></g><circle class="sja_aa_skkick" fill="white" fill-opacity="0" stroke="none" r="8" cy="7" transform="scale(0)"/><path class="sja_aa_stem" d="M0,0v-14l0.18263319672132639,-28v-23.799999999999997" stroke="#3987CC" fill="none"/></g><g class="sja_skg" transform="translate(640.046875, 65.80000305175781)"><g transform="translate(0, 7)" class="sja_aa_discg"><circle fill="#3987CC" stroke="white" r="6.5"/><text font-size="12" fill="#3987CC" x="8" y="3.5999999999999996" font-family="Arial" class="sja_aa_disclabel" fill-opacity="1" transform="rotate(90)">p.Cys292Trp</text><circle r="6.5" stroke="#3987CC" class="sja_aa_disckick" fill="white" fill-opacity="0" stroke-opacity="0" transform="scale(1)"/><path d="M4.286263797015736e-16,-7L4.286263797015736e-16,-7Z" fill="#3987CC" class="sja_aa_discrim" fill-opacity="1" stroke-opacity="1"/></g><circle class="sja_aa_skkick" fill="white" fill-opacity="0" stroke="none" r="8" cy="7" transform="scale(0)"/><path class="sja_aa_stem" d="M0,0v-14l-2.1598076047358745,-28v-23.799999999999997" stroke="#3987CC" fill="none"/></g><g class="sja_skg" transform="translate(656.046875, 65.80000305175781)"><g transform="translate(0, 7)" class="sja_aa_discg"><circle fill="#ff7f0e" stroke="white" r="6.5"/><text font-size="12" fill="#ff7f0e" x="8" y="3.5999999999999996" font-family="Arial" class="sja_aa_disclabel" fill-opacity="1" transform="rotate(90)">p.Tyr301Ter</text><circle r="6.5" stroke="#ff7f0e" class="sja_aa_disckick" fill="white" fill-opacity="0" stroke-opacity="0" transform="scale(1)"/><path d="M4.286263797015736e-16,-7L4.286263797015736e-16,-7Z" fill="#ff7f0e" class="sja_aa_discrim" fill-opacity="1" stroke-opacity="1"/></g><circle class="sja_aa_skkick" fill="white" fill-opacity="0" stroke="none" r="8" cy="7" transform="scale(0)"/><path class="sja_aa_stem" d="M0,0v-14l0.05512864298725617,-28v-23.799999999999997" stroke="#ff7f0e" fill="none"/></g><g class="sja_skg" transform="translate(671.046875, 65.80000305175781)"><g transform="translate(0, 7)" class="sja_aa_discg"><circle fill="#db3d3d" stroke="white" r="6.5"/><text font-size="12" fill="#db3d3d" x="8" y="3.5999999999999996" font-family="Arial" class="sja_aa_disclabel" fill-opacity="1" transform="rotate(90)">p.Asp309GlufsTer5</text><circle r="6.5" stroke="#db3d3d" class="sja_aa_disckick" fill="white" fill-opacity="0" stroke-opacity="0" transform="scale(1)"/><path d="M4.286263797015736e-16,-7L4.286263797015736e-16,-7Z" fill="#db3d3d" class="sja_aa_discrim" fill-opacity="1" stroke-opacity="1"/></g><circle class="sja_aa_skkick" fill="white" fill-opacity="0" stroke="none" r="8" cy="7" transform="scale(0)"/><path class="sja_aa_stem" d="M0,0v-14l0.35567509107465867,-28v-23.799999999999997" stroke="#db3d3d" fill="none"/></g><g class="sja_skg" transform="translate(685.046875, 65.80000305175781)"><g transform="translate(0, 7)" class="sja_aa_discg"><circle fill="#3987CC" stroke="white" r="6.5"/><text font-size="12" fill="#3987CC" x="8" y="3.5999999999999996" font-family="Arial" class="sja_aa_disclabel" fill-opacity="1" transform="scale(1) rotate(0)">p.Tyr313Asn</text><circle r="6.5" stroke="#3987CC" class="sja_aa_disckick" fill="white" fill-opacity="0" stroke-opacity="0" transform="scale(1)"/><path d="M4.286263797015736e-16,-7L4.286263797015736e-16,-7Z" fill="#3987CC" class="sja_aa_discrim" fill-opacity="1" stroke-opacity="1"/></g><circle class="sja_aa_skkick" fill="white" fill-opacity="0" stroke="none" r="8" cy="7" transform="scale(0)"/><path class="sja_aa_stem" d="M0,0v-14l-2.715363160291531,-28v-23.799999999999997" stroke="#3987CC" fill="none"/></g></g><g/><g transform="scale(0)"><rect fill="white" fill-opacity="0" width="800" height="0"/><text data-testid="loading_message" fill="rgb(97, 124, 148)" fill-opacity="0" font-weight="bold" font-size="18px" text-anchor="middle" dominant-baseline="middle" x="400" y="15">Loading ...</text><line stroke="rgb(97, 124, 148)" stroke-width="2px" y1="30" y2="30" x2="0"/></g></g><g transform="translate(135.1875, 0)"><text font-size="14" font-family="Arial" y="7" text-anchor="end" dominant-baseline="central" fill="black" x="-10" font-weight="bold">GAMBL DLBCL</text><g/><text font-size="14" font-family="Arial" y="26" text-anchor="end" dominant-baseline="central" class="sja_clbtext2" fill="black" x="-10">8 of 15 mutations</text></g><g transform="translate(948.1875, 0)"/></g><g data-testid="sja_sample_menu_opener" transform="translate(0, 492.4984436035156)"><g transform="translate(938.1875, 0)"/><g transform="translate(138.1875, 0)"><rect fill="white" fill-opacity="0" width="800" height="146.7375"/><g transform="translate(0,0)" style="cursor: default;"><g class="sja_skg" transform="translate(535.8834228515625, 51.79999923706055)"><g transform="translate(0, 7)" class="sja_aa_discg"><circle fill="#3987CC" stroke="white" r="6.5"/><text font-size="12" fill="#3987CC" x="8" y="3.5999999999999996" font-family="Arial" class="sja_aa_disclabel" fill-opacity="1" transform="rotate(90)">p.Ser246Thr</text><circle r="6.5" stroke="#3987CC" class="sja_aa_disckick" fill="white" fill-opacity="0" stroke-opacity="0" transform="scale(1)"/><path d="M4.286263797015736e-16,-7L4.286263797015736e-16,-7Z" fill="#3987CC" class="sja_aa_discrim" fill-opacity="1" stroke-opacity="1"/></g><circle class="sja_aa_skkick" fill="white" fill-opacity="0" stroke="none" r="8" cy="7" transform="scale(0)"/><path class="sja_aa_stem" d="M0,0v-14l0,-14v-23.799999999999997" stroke="#3987CC" fill="none"/></g><g class="sja_skg" transform="translate(586.88525390625, 51.79999923706055)"><g transform="translate(0, 7)" class="sja_aa_discg"><circle fill="#3987CC" stroke="white" r="6.5"/><text font-size="12" fill="#3987CC" x="8" y="3.5999999999999996" font-family="Arial" class="sja_aa_disclabel" fill-opacity="1" transform="scale(1) rotate(0)">p.Leu269Pro</text><circle r="6.5" stroke="#3987CC" class="sja_aa_disckick" fill="white" fill-opacity="0" stroke-opacity="0" transform="scale(1)"/><path d="M4.286263797015736e-16,-7L4.286263797015736e-16,-7Z" fill="#3987CC" class="sja_aa_discrim" fill-opacity="1" stroke-opacity="1"/></g><circle class="sja_aa_skkick" fill="white" fill-opacity="0" stroke="none" r="8" cy="7" transform="scale(0)"/><path class="sja_aa_stem" d="M0,0v-14l0,-14v-23.799999999999997" stroke="#3987CC" fill="none"/></g><g class="sja_skg" transform="translate(690.3460693359375, 51.79999923706055)"><g transform="translate(0, 7)" class="sja_aa_discg"><circle fill="#3987CC" stroke="white" r="6.5"/><text font-size="12" fill="#3987CC" x="8" y="3.5999999999999996" font-family="Arial" class="sja_aa_disclabel" fill-opacity="1" transform="scale(1) rotate(0)">p.Asn316Lys</text><circle r="6.5" stroke="#3987CC" class="sja_aa_disckick" fill="white" fill-opacity="0" stroke-opacity="0" transform="scale(1)"/><path d="M4.286263797015736e-16,-7L4.286263797015736e-16,-7Z" fill="#3987CC" class="sja_aa_discrim" fill-opacity="1" stroke-opacity="1"/></g><circle class="sja_aa_skkick" fill="white" fill-opacity="0" stroke="none" r="8" cy="7" transform="scale(0)"/><path class="sja_aa_stem" d="M0,0v-14l0,-14v-23.799999999999997" stroke="#3987CC" fill="none"/></g><g class="sja_skg" transform="translate(778.50634765625, 51.79999923706055)"><g transform="translate(0, 7)" class="sja_aa_discg"><circle fill="#3987CC" stroke="white" r="6.5"/><text font-size="12" fill="#3987CC" x="8" y="3.5999999999999996" font-family="Arial" class="sja_aa_disclabel" fill-opacity="1" transform="rotate(90)">p.Leu357Val</text><circle r="6.5" stroke="#3987CC" class="sja_aa_disckick" fill="white" fill-opacity="0" stroke-opacity="0" transform="scale(1)"/><path d="M4.286263797015736e-16,-7L4.286263797015736e-16,-7Z" fill="#3987CC" class="sja_aa_discrim" fill-opacity="1" stroke-opacity="1"/></g><circle class="sja_aa_skkick" fill="white" fill-opacity="0" stroke="none" r="8" cy="7" transform="scale(0)"/><path class="sja_aa_stem" d="M0,0v-14l0,-14v-23.799999999999997" stroke="#3987CC" fill="none"/></g></g><g/><g transform="scale(0)"><rect fill="white" fill-opacity="0" width="800" height="0"/><text data-testid="loading_message" fill="rgb(97, 124, 148)" fill-opacity="0" font-weight="bold" font-size="18px" text-anchor="middle" dominant-baseline="middle" x="400" y="15">Loading ...</text><line stroke="rgb(97, 124, 148)" stroke-width="2px" y1="30" y2="30" x2="0"/></g></g><g transform="translate(135.1875, 0)"><text font-size="14" font-family="Arial" y="7" text-anchor="end" dominant-baseline="central" fill="black" x="-10" font-weight="bold">GAMBL FL</text><g/><text font-size="14" font-family="Arial" y="26" text-anchor="end" dominant-baseline="central" class="sja_clbtext2" fill="black" x="-10">4 of 7 mutations</text></g><g transform="translate(948.1875, 0)"/></g><g data-testid="sja_sample_menu_opener" transform="translate(0, 102)"><g transform="translate(938.1875, 0)"/><g transform="translate(138.1875, 0)"><rect fill="white" fill-opacity="0" width="800" height="196.6359375"/><g transform="translate(0,0)" style="cursor: default;"><g class="sja_skg" transform="translate(78, 72.80000305175781)"><g transform="translate(0, 7)" class="sja_aa_discg"><circle fill="#db3d3d" stroke="white" r="6.5"/><text font-size="12" fill="#db3d3d" x="8" y="3.5999999999999996" font-family="Arial" class="sja_aa_disclabel" fill-opacity="1" transform="rotate(90)">p.Gln37ValfsTer14</text><circle r="6.5" stroke="#db3d3d" class="sja_aa_disckick" fill="white" fill-opacity="0" stroke-opacity="0" transform="scale(1)"/><path d="M4.286263797015736e-16,-7L4.286263797015736e-16,-7Z" fill="#db3d3d" class="sja_aa_discrim" fill-opacity="1" stroke-opacity="1"/></g><circle class="sja_aa_skkick" fill="white" fill-opacity="0" stroke="none" r="8" cy="7" transform="scale(0)"/><path class="sja_aa_stem" d="M0,0v-14l0.3242258652094705,-35v-23.799999999999997" stroke="#db3d3d" fill="none"/></g><g class="sja_skg" transform="translate(94, 72.80000305175781)"><g transform="translate(0, 7)" class="sja_aa_discg"><circle fill="#ff7f0e" stroke="white" r="6.5"/><text font-size="12" fill="#ff7f0e" x="8" y="3.5999999999999996" font-family="Arial" class="sja_aa_disclabel" fill-opacity="1" transform="scale(1) rotate(0)">p.Lys44Ter</text><circle r="6.5" stroke="#ff7f0e" class="sja_aa_disckick" fill="white" fill-opacity="0" stroke-opacity="0" transform="scale(1)"/><path d="M4.286263797015736e-16,-7L4.286263797015736e-16,-7Z" fill="#ff7f0e" class="sja_aa_discrim" fill-opacity="1" stroke-opacity="1"/></g><circle class="sja_aa_skkick" fill="white" fill-opacity="0" stroke="none" r="8" cy="7" transform="scale(0)"/><path class="sja_aa_stem" d="M0,0v-14l0.35336976320581925,-35v-23.799999999999997" stroke="#ff7f0e" fill="none"/></g><g class="sja_skg" transform="translate(251, 72.80000305175781)"><g transform="translate(0, 7)" class="sja_aa_discg"><circle fill="#ff7f0e" stroke="white" r="6.5"/><text font-size="12" fill="#ff7f0e" x="8" y="3.5999999999999996" font-family="Arial" class="sja_aa_disclabel" fill-opacity="1" transform="rotate(90)">p.Arg116Ter</text><circle r="6.5" stroke="#ff7f0e" class="sja_aa_disckick" fill="white" fill-opacity="0" stroke-opacity="0" transform="scale(1)"/><path d="M4.286263797015736e-16,-7L4.286263797015736e-16,-7Z" fill="#ff7f0e" class="sja_aa_discrim" fill-opacity="1" stroke-opacity="1"/></g><circle class="sja_aa_skkick" fill="white" fill-opacity="0" stroke="none" r="8" cy="7" transform="scale(0)"/><path class="sja_aa_stem" d="M0,0v-14l0.7304189435336923,-35v-23.799999999999997" stroke="#ff7f0e" fill="none"/></g><g class="sja_skg" transform="translate(280, 72.80000305175781)"><g transform="translate(0, 7)" class="sja_aa_discg"><circle fill="#ff7f0e" stroke="white" r="6.5"/><text font-size="12" fill="#ff7f0e" x="8" y="3.5999999999999996" font-family="Arial" class="sja_aa_disclabel" fill-opacity="1" transform="scale(1) rotate(0)">p.Arg129Ter</text><circle r="6.5" stroke="#ff7f0e" class="sja_aa_disckick" fill="white" fill-opacity="0" stroke-opacity="0" transform="scale(1)"/><path d="M4.286263797015736e-16,-7L4.286263797015736e-16,-7Z" fill="#ff7f0e" class="sja_aa_discrim" fill-opacity="1" stroke-opacity="1"/></g><circle class="sja_aa_skkick" fill="white" fill-opacity="0" stroke="none" r="8" cy="7" transform="scale(0)"/><path class="sja_aa_stem" d="M0,0v-14l0.1457194899817864,-35v-23.799999999999997" stroke="#ff7f0e" fill="none"/></g><g class="sja_skg" transform="translate(468, 72.80000305175781)"><g transform="translate(0, 7)" class="sja_aa_discg"><circle fill="#3987CC" stroke="white" r="6.5"/><text font-size="12" fill="#3987CC" x="8" y="3.5999999999999996" font-family="Arial" class="sja_aa_disclabel" fill-opacity="1" transform="rotate(90)">p.Cys215Phe</text><circle r="6.5" stroke="#3987CC" class="sja_aa_disckick" fill="white" fill-opacity="0" stroke-opacity="0" transform="scale(1)"/><path d="M4.286263797015736e-16,-7L4.286263797015736e-16,-7Z" fill="#3987CC" class="sja_aa_discrim" fill-opacity="1" stroke-opacity="1"/></g><circle class="sja_aa_skkick" fill="white" fill-opacity="0" stroke="none" r="8" cy="7" transform="scale(0)"/><path class="sja_aa_stem" d="M0,0v-14l0.8524590163934249,-35v-23.799999999999997" stroke="#3987CC" fill="none"/></g><g class="sja_skg" transform="translate(489, 72.80000305175781)"><g transform="translate(0, 7)" class="sja_aa_discg"><circle fill="#ff7f0e" stroke="white" r="6.5"/><text font-size="12" fill="#ff7f0e" x="8" y="3.5999999999999996" font-family="Arial" class="sja_aa_disclabel" fill-opacity="1" transform="rotate(90)">p.Arg225Ter</text><circle r="6.5" stroke="#ff7f0e" class="sja_aa_disckick" fill="white" fill-opacity="0" stroke-opacity="0" transform="scale(1)"/><path d="M4.286263797015736e-16,-7L4.286263797015736e-16,-7Z" fill="#ff7f0e" class="sja_aa_discrim" fill-opacity="1" stroke-opacity="1"/></g><circle class="sja_aa_skkick" fill="white" fill-opacity="0" stroke="none" r="8" cy="7" transform="scale(0)"/><path class="sja_aa_stem" d="M0,0v-14l0.981785063752227,-35v-23.799999999999997" stroke="#ff7f0e" fill="none"/></g><g class="sja_skg" transform="translate(515, 72.80000305175781)"><g transform="translate(0, 7)" class="sja_aa_discg"><circle fill="#ff7f0e" stroke="white" r="6.5"/><text font-size="12" fill="#ff7f0e" x="8" y="3.5999999999999996" font-family="Arial" class="sja_aa_disclabel" fill-opacity="1" transform="rotate(90)">p.Gln251Ter</text><circle r="6.5" stroke="#ff7f0e" class="sja_aa_disckick" fill="white" fill-opacity="0" stroke-opacity="0" transform="scale(1)"/><path d="M4.286263797015736e-16,-7L4.286263797015736e-16,-7Z" fill="#ff7f0e" class="sja_aa_discrim" fill-opacity="1" stroke-opacity="1"/></g><circle class="sja_aa_skkick" fill="white" fill-opacity="0" stroke="none" r="8" cy="7" transform="scale(0)"/><path class="sja_aa_stem" d="M0,0v-14l31.812386156648472,-35v-23.799999999999997" stroke="#ff7f0e" fill="none"/></g><g class="sja_skg" transform="translate(529, 72.80000305175781)"><g transform="translate(0, 7)" class="sja_aa_discg"><circle fill="#3987CC" stroke="white" r="6.5"/><text font-size="12" fill="#3987CC" x="8" y="3.5999999999999996" font-family="Arial" class="sja_aa_disclabel" fill-opacity="1" transform="rotate(90)">p.Met278Ile</text><circle r="6.5" stroke="#3987CC" class="sja_aa_disckick" fill="white" fill-opacity="0" stroke-opacity="0" transform="scale(1)"/><path d="M4.286263797015736e-16,-7L4.286263797015736e-16,-7Z" fill="#3987CC" class="sja_aa_discrim" fill-opacity="1" stroke-opacity="1"/></g><circle class="sja_aa_skkick" fill="white" fill-opacity="0" stroke="none" r="8" cy="7" transform="scale(0)"/><path class="sja_aa_stem" d="M0,0v-14l78.2859744990892,-35v-23.799999999999997" stroke="#3987CC" fill="none"/></g><g class="sja_skg" transform="translate(543, 72.80000305175781)"><g transform="translate(0, 7)" class="sja_aa_discg"><circle fill="#6633FF" stroke="white" r="6.5"/><text font-size="12" fill="#6633FF" x="8" y="3.5999999999999996" font-family="Arial" class="sja_aa_disclabel" fill-opacity="1" transform="">c.834+1G&gt;T</text><circle r="6.5" stroke="#6633FF" class="sja_aa_disckick" fill="white" fill-opacity="0" stroke-opacity="0" transform="scale(1)"/><path d="M4.286263797015736e-16,-7L4.286263797015736e-16,-7Z" fill="#6633FF" class="sja_aa_discrim" fill-opacity="1" stroke-opacity="1"/></g><g transform="translate(0, 21)" class="sja_aa_discg"><circle fill="#6633FF" stroke="white" r="6.5"/><text font-size="12" fill="#6633FF" x="8" y="3.5999999999999996" font-family="Arial" class="sja_aa_disclabel" fill-opacity="1" transform="">c.834+2T&gt;G</text><circle r="6.5" stroke="#6633FF" class="sja_aa_disckick" fill="white" fill-opacity="0" stroke-opacity="0" transform="scale(1)"/><path d="M4.286263797015736e-16,-7L4.286263797015736e-16,-7Z" fill="#6633FF" class="sja_aa_discrim" fill-opacity="1" stroke-opacity="1"/></g><circle class="sja_aa_skkick" fill="white" fill-opacity="0" stroke="none" r="8" cy="7" transform="scale(0)"/><path class="sja_aa_stem" d="M0,0v-14l64.65027322404364,-35v-23.799999999999997" stroke="#6633FF" fill="none"/><rect class="sja_aa_ssk_bg" shape-rendering="crispEdges" fill-opacity="0" height="14" fill="#6633FF" width="14" x="-7" transform="scale(1)" y="-14"/><text class="sja_aa_ssk_text" fill="white" fill-opacity="0" font-weight="bold" text-anchor="middle" dominant-baseline="central" font-size="14" transform="scale(1)" y="-7">2</text><rect class="sja_aa_ssk_kick" fill="white" fill-opacity="0" stroke="none" height="14" x="-7" width="14" transform="scale(1)" y="-14"/></g><g class="sja_skg" transform="translate(624.7109375, 72.80000305175781)"><g transform="translate(0, 7)" class="sja_aa_discg"><circle fill="#ff7f0e" stroke="white" r="6.5"/><text font-size="12" fill="#ff7f0e" x="8" y="3.5999999999999996" font-family="Arial" class="sja_aa_disclabel" fill-opacity="1" transform="rotate(90)">p.Cys280Ter</text><circle r="6.5" stroke="#ff7f0e" class="sja_aa_disckick" fill="white" fill-opacity="0" stroke-opacity="0" transform="scale(1)"/><path d="M4.286263797015736e-16,-7L4.286263797015736e-16,-7Z" fill="#ff7f0e" class="sja_aa_discrim" fill-opacity="1" stroke-opacity="1"/></g><circle class="sja_aa_skkick" fill="white" fill-opacity="0" stroke="none" r="8" cy="7" transform="scale(0)"/><path class="sja_aa_stem" d="M0,0v-14l-13.053378301457201,-35v-23.799999999999997" stroke="#ff7f0e" fill="none"/></g><g class="sja_skg" transform="translate(638.7109375, 72.80000305175781)"><g transform="translate(0, 7)" class="sja_aa_discg"><circle fill="#3987CC" stroke="white" r="6.5"/><text font-size="12" fill="#3987CC" x="8" y="3.5999999999999996" font-family="Arial" class="sja_aa_disclabel" fill-opacity="1" transform="rotate(90)">p.Glu293Lys</text><circle r="6.5" stroke="#3987CC" class="sja_aa_disckick" fill="white" fill-opacity="0" stroke-opacity="0" transform="scale(1)"/><path d="M4.286263797015736e-16,-7L4.286263797015736e-16,-7Z" fill="#3987CC" class="sja_aa_discrim" fill-opacity="1" stroke-opacity="1"/></g><circle class="sja_aa_skkick" fill="white" fill-opacity="0" stroke="none" r="8" cy="7" transform="scale(0)"/><path class="sja_aa_stem" d="M0,0v-14l-0.09527265482699931,-35v-23.799999999999997" stroke="#3987CC" fill="none"/></g><g class="sja_skg" transform="translate(652.7109375, 72.80000305175781)"><g transform="translate(0, 7)" class="sja_aa_discg"><circle fill="#db3d3d" stroke="white" r="6.5"/><text font-size="12" fill="#db3d3d" x="8" y="3.5999999999999996" font-family="Arial" class="sja_aa_disclabel" fill-opacity="1" transform="">p.Lys295ThrfsTer50</text><circle r="6.5" stroke="#db3d3d" class="sja_aa_disckick" fill="white" fill-opacity="0" stroke-opacity="0" transform="scale(1)"/><path d="M4.286263797015736e-16,-7L4.286263797015736e-16,-7Z" fill="#db3d3d" class="sja_aa_discrim" fill-opacity="1" stroke-opacity="1"/></g><g transform="translate(0, 21)" class="sja_aa_discg"><circle fill="#3987CC" stroke="white" r="6.5"/><text font-size="12" fill="#3987CC" x="8" y="3.5999999999999996" font-family="Arial" class="sja_aa_disclabel" fill-opacity="1" transform="">p.Ile294Thr</text><circle r="6.5" stroke="#3987CC" class="sja_aa_disckick" fill="white" fill-opacity="0" stroke-opacity="0" transform="scale(1)"/><path d="M4.286263797015736e-16,-7L4.286263797015736e-16,-7Z" fill="#3987CC" class="sja_aa_discrim" fill-opacity="1" stroke-opacity="1"/></g><circle class="sja_aa_skkick" fill="white" fill-opacity="0" stroke="none" r="8" cy="7" transform="scale(0)"/><path class="sja_aa_stem" d="M0,0v-14l-11.90948030510026,-35v-23.799999999999997" stroke="#db3d3d" fill="none"/><rect class="sja_aa_ssk_bg" shape-rendering="crispEdges" fill-opacity="0" height="14" fill="#db3d3d" width="14" x="-7" transform="scale(1)" y="-14"/><text class="sja_aa_ssk_text" fill="white" fill-opacity="0" font-weight="bold" text-anchor="middle" dominant-baseline="central" font-size="14" transform="scale(1)" y="-7">2</text><rect class="sja_aa_ssk_kick" fill="white" fill-opacity="0" stroke="none" height="14" x="-7" width="14" transform="scale(1)" y="-14"/></g><g class="sja_skg" transform="translate(773.3203125, 72.80000305175781)"><g transform="translate(0, 7)" class="sja_aa_discg"><circle fill="#ff7f0e" stroke="white" r="6.5"/><text font-size="12" fill="#ff7f0e" x="8" y="3.5999999999999996" font-family="Arial" class="sja_aa_disclabel" fill-opacity="1" transform="rotate(90)">p.Tyr301Ter</text><circle r="6.5" stroke="#ff7f0e" class="sja_aa_disckick" fill="white" fill-opacity="0" stroke-opacity="0" transform="scale(1)"/><path d="M4.286263797015736e-16,-7L4.286263797015736e-16,-7Z" fill="#ff7f0e" class="sja_aa_discrim" fill-opacity="1" stroke-opacity="1"/></g><circle class="sja_aa_skkick" fill="white" fill-opacity="0" stroke="none" r="8" cy="7" transform="scale(0)"/><path class="sja_aa_stem" d="M0,0v-14l-115.761113957195,-35v-23.799999999999997" stroke="#ff7f0e" fill="none"/></g></g><g/><g transform="scale(0)"><rect fill="white" fill-opacity="0" width="800" height="0"/><text data-testid="loading_message" fill="rgb(97, 124, 148)" fill-opacity="0" font-weight="bold" font-size="18px" text-anchor="middle" dominant-baseline="middle" x="400" y="15">Loading ...</text><line stroke="rgb(97, 124, 148)" stroke-width="2px" y1="30" y2="30" x2="0"/></g></g><g transform="translate(135.1875, 0)"><text font-size="14" font-family="Arial" y="7" text-anchor="end" dominant-baseline="central" fill="black" x="-10" font-weight="bold">GAMBL BL</text><g/><text font-size="14" font-family="Arial" y="26" text-anchor="end" dominant-baseline="central" class="sja_clbtext2" fill="black" x="-10">15 of 16 mutations</text></g><g transform="translate(948.1875, 0)"/></g><g data-testid="sja_sample_menu_opener" transform="translate(0, 31)"><g transform="translate(938.1875, 0)"/><g transform="translate(138.1875, 0)"><rect fill="white" fill-opacity="0" width="800" height="24"/><g transform="translate(0,0)" style="cursor: default;"/><g/><g transform="scale(0)"><rect fill="white" fill-opacity="0" width="800" height="0"/><text data-testid="loading_message" fill="rgb(97, 124, 148)" fill-opacity="0" font-weight="bold" font-size="18px" text-anchor="middle" dominant-baseline="middle" x="400" y="15">Loading ...</text><line stroke="rgb(97, 124, 148)" stroke-width="2px" y1="30" y2="30" x2="0"/></g></g><g transform="translate(135.1875, 0)"><text font-size="14" font-family="Arial" y="7" text-anchor="end" dominant-baseline="central" fill="black" x="-10" font-weight="bold">GAMBL MCL</text><g/><text font-size="14" font-family="Arial" y="26" text-anchor="end" dominant-baseline="central" class="sja_clbtext2" fill="black" x="-10"/></g><g transform="translate(948.1875, 0)"/></g><g data-testid="sja_sample_menu_opener" transform="translate(0, 55)"><g transform="translate(938.1875, 0)"/><g transform="translate(138.1875, 0)"><rect fill="white" fill-opacity="0" width="800" height="47"/><g transform="translate(0,0)" style="cursor: default;"><g><line x1="0" y1="18.5" x2="799.9999999999999" y2="18.5" stroke="black" shape-rendering="crispEdges"/><rect x="0" width="100.54644808743168" height="37" fill="white"/><rect x="34.97267759562841" width="65.57377049180327" height="37" fill="#fb8072"/><rect x="89.6174863387978" width="2.1857923497267757" height="37" fill="#bebada"/><rect x="96.17486338797814" width="2.1857923497267757" height="37" fill="#bebada"/><rect x="41.53005464480874" width="2.1857923497267757" height="37" fill="#bebada"/><rect x="34.97267759562841" width="2.1857923497267757" height="37" fill="#bebada"/><rect x="100.54644808743168" width="74.31693989071037" height="37" fill="white"/><rect x="100.54644808743168" width="74.31693989071037" height="37" fill="#fb8072"/><rect x="174.86338797814204" width="97.63205828779599" height="37" fill="white"/><rect x="174.86338797814204" width="97.63205828779599" height="37" fill="#fb8072"/><rect x="194.53551912568304" width="10.92896174863388" height="37" fill="#8dd3c7"/><rect x="174.86338797814204" width="2.1857923497267757" height="37" fill="#8dd3c7"/><rect x="216.39344262295077" width="2.1857923497267757" height="37" fill="#8dd3c7"/><rect x="231.69398907103823" width="2.1857923497267757" height="37" fill="#bebada"/><rect x="225.1366120218579" width="2.1857923497267757" height="37" fill="#bebada"/><rect x="183.60655737704914" width="2.1857923497267757" height="37" fill="#bebada"/><rect x="214.207650273224" width="2.1857923497267757" height="37" fill="#bebada"/><rect x="177.0491803278688" width="2.1857923497267757" height="37" fill="#bebada"/><rect x="203.27868852459014" width="2.1857923497267757" height="37" fill="#bebada"/><rect x="272.495446265938" width="32.05828779599271" height="37" fill="white"/><rect x="272.495446265938" width="13.843351548269581" height="37" fill="#fb8072"/><rect x="273.22404371584696" width="2.1857923497267757" height="37" fill="#8dd3c7"/><rect x="277.5956284153005" width="2.1857923497267757" height="37" fill="#bebada"/><rect x="284.1530054644808" width="2.1857923497267757" height="37" fill="#bebada"/><rect x="304.55373406193075" width="121.67577413479052" height="37" fill="white"/><rect x="426.22950819672127" width="104.91803278688523" height="37" fill="white"/><rect x="461.20218579234967" width="69.94535519125682" height="37" fill="#E8E89E"/><rect x="520.2185792349726" width="2.1857923497267757" height="37" fill="#bebada"/><rect x="461.20218579234967" width="2.1857923497267757" height="37" fill="#bebada"/><rect x="526.7759562841529" width="2.1857923497267757" height="37" fill="#bebada"/><rect x="467.75956284153" width="2.1857923497267757" height="37" fill="#bebada"/><rect x="531.1475409836065" width="76.50273224043715" height="37" fill="white"/><rect x="531.1475409836065" width="76.50273224043715" height="37" fill="#E8E89E"/><rect x="607.6502732240436" width="97.63205828779599" height="37" fill="white"/><rect x="607.6502732240436" width="97.63205828779599" height="37" fill="#E8E89E"/><rect x="627.3224043715846" width="10.92896174863388" height="37" fill="#8dd3c7"/><rect x="649.1803278688524" width="2.1857923497267757" height="37" fill="#8dd3c7"/><rect x="616.3934426229507" width="2.1857923497267757" height="37" fill="#bebada"/><rect x="646.9945355191256" width="2.1857923497267757" height="37" fill="#bebada"/><rect x="657.9234972677594" width="2.1857923497267757" height="37" fill="#bebada"/><rect x="607.6502732240436" width="2.1857923497267757" height="37" fill="#8dd3c7"/><rect x="609.8360655737704" width="2.1857923497267757" height="37" fill="#bebada"/><rect x="636.0655737704917" width="2.1857923497267757" height="37" fill="#bebada"/><rect x="664.4808743169398" width="2.1857923497267757" height="37" fill="#bebada"/><rect x="705.2823315118396" width="94.71766848816029" height="37" fill="white"/><rect x="705.2823315118396" width="13.843351548269581" height="37" fill="#E8E89E"/><rect x="716.9398907103824" width="2.1857923497267757" height="37" fill="#bebada"/><rect x="706.0109289617485" width="2.1857923497267757" height="37" fill="#8dd3c7"/><rect x="710.3825136612021" width="2.1857923497267757" height="37" fill="#bebada"/><line x1="0" x2="799.9999999999999" stroke="black"/><line x1="0" x2="799.9999999999999" y1="37" y2="37" stroke="black"/><line x1="0" x2="0" y2="37" stroke="black"/><line x1="799.9999999999999" x2="799.9999999999999" y2="37" stroke="black"/><line class="exonboundaryclass" x1="100.54644808743168" x2="100.54644808743168" y1="0" y2="37" stroke="black" stroke-dasharray="4,2" shape-rendering="crispEdges" stroke-opacity="1"/><line class="exonboundaryclass" x1="174.86338797814204" x2="174.86338797814204" y1="0" y2="37" stroke="black" stroke-dasharray="4,2" shape-rendering="crispEdges" stroke-opacity="1"/><line class="exonboundaryclass" x1="272.495446265938" x2="272.495446265938" y1="0" y2="37" stroke="black" stroke-dasharray="4,2" shape-rendering="crispEdges" stroke-opacity="1"/><line class="exonboundaryclass" x1="304.55373406193075" x2="304.55373406193075" y1="0" y2="37" stroke="black" stroke-dasharray="4,2" shape-rendering="crispEdges" stroke-opacity="1"/><line class="exonboundaryclass" x1="426.22950819672127" x2="426.22950819672127" y1="0" y2="37" stroke="black" stroke-dasharray="4,2" shape-rendering="crispEdges" stroke-opacity="1"/><line class="exonboundaryclass" x1="531.1475409836065" x2="531.1475409836065" y1="0" y2="37" stroke="black" stroke-dasharray="4,2" shape-rendering="crispEdges" stroke-opacity="1"/><line class="exonboundaryclass" x1="607.6502732240436" x2="607.6502732240436" y1="0" y2="37" stroke="black" stroke-dasharray="4,2" shape-rendering="crispEdges" stroke-opacity="1"/><line class="exonboundaryclass" x1="705.2823315118396" x2="705.2823315118396" y1="0" y2="37" stroke="black" stroke-dasharray="4,2" shape-rendering="crispEdges" stroke-opacity="1"/><g transform="translate(0,18.5)" fill="none" font-size="10" font-family="sans-serif" text-anchor="middle"><path class="domain" stroke="none" d="M1.0928961748633879,0H799.9999999999999" fill="none" stroke-width="0" shape-rendering="crispEdges"/><g class="tick" opacity="1" transform="translate(108.10028929604627,0)"><line stroke="black" y2="0" shape-rendering="crispEdges"/><text fill="black" y="3" dy="0.71em" font-family="Arial" font-size="11.666666666666666px" style="cursor: default;">50</text></g><g class="tick" opacity="1" transform="translate(217.64364961086267,0)"><line stroke="black" y2="0" shape-rendering="crispEdges"/><text fill="black" y="3" dy="0.71em" font-family="Arial" font-size="11.666666666666666px" style="cursor: default;">100</text></g><g class="tick" opacity="1" transform="translate(326.58079625292737,0)"><line stroke="black" y2="0" shape-rendering="crispEdges"/><text fill="black" y="3" dy="0.71em" font-family="Arial" font-size="11.666666666666666px" style="cursor: default;">150</text></g><g class="tick" opacity="1" transform="translate(435.9744990892531,0)"><line stroke="black" y2="0" shape-rendering="crispEdges"/><text fill="black" y="3" dy="0.71em" font-family="Arial" font-size="11.666666666666666px" style="cursor: default;">200</text></g><g class="tick" opacity="1" transform="translate(545.167837626854,0)"><line stroke="black" y2="0" shape-rendering="crispEdges"/><text fill="black" y="3" dy="0.71em" font-family="Arial" font-size="11.666666666666666px" style="cursor: default;">250</text></g><g class="tick" opacity="1" transform="translate(654.8186785891703,0)"><line stroke="black" y2="0" shape-rendering="crispEdges"/><text fill="black" y="3" dy="0.71em" font-family="Arial" font-size="11.666666666666666px" style="cursor: default;">300</text></g><g class="tick" opacity="1" transform="translate(763.2637853949328,0)"><line stroke="black" y2="0" shape-rendering="crispEdges"/><text fill="black" y="3" dy="0.71em" font-family="Arial" font-size="11.666666666666666px" style="cursor: default;">350</text></g></g><rect x="0" width="100.54644808743168" height="37" fill="#858585" fill-opacity="0"/><rect x="100.54644808743168" width="74.31693989071037" height="37" fill="#858585" fill-opacity="0"/><rect x="174.86338797814204" width="97.63205828779599" height="37" fill="#858585" fill-opacity="0"/><rect x="272.495446265938" width="32.05828779599271" height="37" fill="#858585" fill-opacity="0"/><rect x="304.55373406193075" width="121.67577413479052" height="37" fill="#858585" fill-opacity="0"/><rect x="426.22950819672127" width="104.91803278688523" height="37" fill="#858585" fill-opacity="0"/><rect x="531.1475409836065" width="76.50273224043715" height="37" fill="#858585" fill-opacity="0"/><rect x="607.6502732240436" width="97.63205828779599" height="37" fill="#858585" fill-opacity="0"/><rect x="705.2823315118396" width="94.71766848816029" height="37" fill="#858585" fill-opacity="0"/></g></g><g/><g transform="scale(0)"><rect fill="white" fill-opacity="0"/><text data-testid="loading_message" fill="rgb(97, 124, 148)" fill-opacity="0" font-weight="bold" font-size="18px" text-anchor="middle" dominant-baseline="middle">Loading ...</text><line stroke="rgb(97, 124, 148)" stroke-width="2px"/></g></g><g transform="translate(135.1875, 0)"><text font-size="14" font-family="Arial" y="7" text-anchor="end" dominant-baseline="central" fill="black" x="-10" font-weight="bold">PHF6</text><text font-size="14" font-family="Arial" y="20" text-anchor="end" dominant-baseline="central" fill="black" x="-10">NM_001015877</text></g><g transform="translate(948.1875, 0)"><text fill="#aaa" font-family="Arial" font-size="14" y="14" class="sja_clbtext2"/></g></g></g><g transform="scale(0)"><rect fill="white"/><text id="loadinggCloak" fill="rgb(97, 124, 148)" fill-opacity="0" font-weight="bold" font-size="18px" text-anchor="middle" dominant-baseline="middle">Loading ...</text></g><g/><g transform="translate(137.1875,654.2359375000001)"><g transform="translate(0,0)"><rect width="15" height="20" stroke="rgb(176, 90, 80)" fill="#fb8072" shape-rendering="crispEdges"/><text x="20" y="10" dominant-baseline="central" font-size="16" font-family="Arial" fill="black">ePHD1_PHF6</text><text x="131.375" y="10" dominant-baseline="central" font-size="12" font-family="Arial" fill="#858585">Extended PHD finger 1 found in PHD finger protein 6 (PHF6)</text></g><g transform="translate(0,23)"><rect width="15" height="20" stroke="rgb(133, 130, 153)" fill="#bebada" shape-rendering="crispEdges"/><text x="20" y="10" dominant-baseline="central" font-size="16" font-family="Arial" fill="black">other</text><text x="66.6875" y="10" dominant-baseline="central" font-size="12" font-family="Arial" fill="#858585">Zn binding site [ion binding]</text></g><g transform="translate(0,46)"><rect width="15" height="20" stroke="rgb(99, 148, 139)" fill="#8dd3c7" shape-rendering="crispEdges"/><text x="20" y="10" dominant-baseline="central" font-size="16" font-family="Arial" fill="black">other</text><text x="66.6875" y="10" dominant-baseline="central" font-size="12" font-family="Arial" fill="#858585">putative histone H3 binding site [polypeptide binding]</text></g><g transform="translate(0,69)"><rect width="15" height="20" stroke="rgb(162, 162, 111)" fill="#E8E89E" shape-rendering="crispEdges"/><text x="20" y="10" dominant-baseline="central" font-size="16" font-family="Arial" fill="black">ePHD2_PHF6</text><text x="131.375" y="10" dominant-baseline="central" font-size="12" font-family="Arial" fill="#858585">Extended PHD finger 2 found in PHD finger protein 6 (PHF6)</text></g></g><g transform="translate(740.1875,654.2359375000001)"><g transform="translate(0,0)"><circle cx="10" cy="10" r="10" fill="#998199"/><text x="30" y="10" dominant-baseline="central" font-size="16" font-family="Arial" fill="#998199">UTR_3, n=9</text></g><g transform="translate(0,23)"><circle cx="10" cy="10" r="10" fill="#db3d3d"/><text x="30" y="10" dominant-baseline="central" font-size="16" font-family="Arial" fill="#db3d3d">FRAMESHIFT, n=3</text></g><g transform="translate(0,46)"><circle cx="10" cy="10" r="10" fill="#ff7f0e"/><text x="30" y="10" dominant-baseline="central" font-size="16" font-family="Arial" fill="#ff7f0e">NONSENSE, n=8</text></g><g transform="translate(0,69)"><circle cx="10" cy="10" r="10" fill="#3987CC"/><text x="30" y="10" dominant-baseline="central" font-size="16" font-family="Arial" fill="#3987CC">MISSENSE, n=11</text></g><g transform="translate(0,92)"><circle cx="10" cy="10" r="10" fill="#6633FF"/><text x="30" y="10" dominant-baseline="central" font-size="16" font-family="Arial" fill="#6633FF">SPLICE, n=6</text></g><g transform="translate(0,115)"><circle cx="10" cy="10" r="10" fill="#819981"/><text x="30" y="10" dominant-baseline="central" font-size="16" font-family="Arial" fill="#819981">UTR_5, n=1</text></g><g transform="translate(0,138)"><circle cx="10" cy="10" r="10" fill="#2ca02c"/><text x="30" y="10" dominant-baseline="central" font-size="16" font-family="Arial" fill="#2ca02c">SILENT, n=1</text></g></g></svg>