<svg xmlns="http://www.w3.org/2000/svg" data-testid="sjpp_block_svg" width="1495.3984375" height="822.8791666666666"><g transform="translate(0,0)"><g transform="translate(125.3984375, 0)"/><rect fill="#FFFF99" x="868" width="0" height="575.8791666666666"/><g transform="translate(125.3984375, 23)"><g transform="translate(0,0)"><text text-anchor="end" x="-13" y="-10" dominant-baseline="central" font-size="13" font-family="Arial">Protein length</text><g><g transform="translate(0,0)" fill="none" font-size="10" font-family="sans-serif" text-anchor="middle"><path class="domain" stroke="black" d="M0,-6V0H1260V-6" fill="none" stroke-width="1" shape-rendering="crispEdges"/><g class="tick" opacity="1" transform="translate(131.27748691099475,0)"><line stroke="black" y2="-6" shape-rendering="crispEdges"/><text fill="black" y="-9" dy="0em" font-family="Arial" font-size="12px" style="cursor: default;">200</text></g><g class="tick" opacity="1" transform="translate(263.21465968586386,0)"><line stroke="black" y2="-6" shape-rendering="crispEdges"/><text fill="black" y="-9" dy="0em" font-family="Arial" font-size="12px" style="cursor: default;">400</text></g><g class="tick" opacity="1" transform="translate(395.151832460733,0)"><line stroke="black" y2="-6" shape-rendering="crispEdges"/><text fill="black" y="-9" dy="0em" font-family="Arial" font-size="12px" style="cursor: default;">600</text></g><g class="tick" opacity="1" transform="translate(527.0890052356021,0)"><line stroke="black" y2="-6" shape-rendering="crispEdges"/><text fill="black" y="-9" dy="0em" font-family="Arial" font-size="12px" style="cursor: default;">800</text></g><g class="tick" opacity="1" transform="translate(659.0261780104712,0)"><line stroke="black" y2="-6" shape-rendering="crispEdges"/><text fill="black" y="-9" dy="0em" font-family="Arial" font-size="12px" style="cursor: default;">1000</text></g><g class="tick" opacity="1" transform="translate(790.9633507853403,0)"><line stroke="black" y2="-6" shape-rendering="crispEdges"/><text fill="black" y="-9" dy="0em" font-family="Arial" font-size="12px" style="cursor: default;">1200</text></g><g class="tick" opacity="1" transform="translate(922.9005235602094,0)"><line stroke="black" y2="-6" shape-rendering="crispEdges"/><text fill="black" y="-9" dy="0em" font-family="Arial" font-size="12px" style="cursor: default;">1400</text></g><g class="tick" opacity="1" transform="translate(1054.8376963350786,0)"><line stroke="black" y2="-6" shape-rendering="crispEdges"/><text fill="black" y="-9" dy="0em" font-family="Arial" font-size="12px" style="cursor: default;">1600</text></g><g class="tick" opacity="1" transform="translate(1186.7748691099475,0)"><line stroke="black" y2="-6" shape-rendering="crispEdges"/><text fill="black" y="-9" dy="0em" font-family="Arial" font-size="12px" style="cursor: default;">1800</text></g></g></g><rect fill="white" fill-opacity="0" x="0" y="-23" width="1260" height="26"/></g><g transform="translate(1260, 0)"/></g><g data-testid="sja_sample_menu_opener" transform="translate(0, 384.3630065917969)"><g transform="translate(1385.3984375, 0)"/><g transform="translate(125.3984375, 0)"><rect fill="white" fill-opacity="0" width="1260" height="172.51614583333333"/><g transform="translate(0,0)" style="cursor: default;"><g class="sja_skg" transform="translate(145, 61.13333511352539)"><g transform="translate(0, 7)" class="sja_aa_discg"><circle fill="#3987CC" stroke="white" r="6.5"/><text font-size="12" fill="#3987CC" x="8" y="3.5999999999999996" font-family="Arial" class="sja_aa_disclabel" fill-opacity="1" transform="scale(1) rotate(0)">p.Arg244His</text><circle r="6.5" stroke="#3987CC" class="sja_aa_disckick" fill="white" fill-opacity="0" stroke-opacity="0" transform="scale(1)"/><path d="M4.286263797015736e-16,-7L4.286263797015736e-16,-7Z" fill="#3987CC" class="sja_aa_discrim" fill-opacity="1" stroke-opacity="1"/></g><circle class="sja_aa_skkick" fill="white" fill-opacity="0" stroke="none" r="8" cy="7" transform="scale(0)"/><path class="sja_aa_stem" d="M0,0v-14l0.46073298429320175,-23.333333333333336v-23.799999999999997" stroke="#3987CC" fill="none"/></g><g class="sja_skg" transform="translate(1075, 61.13333511352539)"><g transform="translate(0, 7)" class="sja_aa_discg"><circle fill="#2ca02c" stroke="white" r="6.5"/><text font-size="12" fill="#2ca02c" x="8" y="3.5999999999999996" font-family="Arial" class="sja_aa_disclabel" fill-opacity="1" transform="rotate(90)">c.4971G&gt;A(p.=)</text><circle r="6.5" stroke="#2ca02c" class="sja_aa_disckick" fill="white" fill-opacity="0" stroke-opacity="0" transform="scale(1)"/><path d="M4.286263797015736e-16,-7L4.286263797015736e-16,-7Z" fill="#2ca02c" class="sja_aa_discrim" fill-opacity="1" stroke-opacity="1"/></g><circle class="sja_aa_skkick" fill="white" fill-opacity="0" stroke="none" r="8" cy="7" transform="scale(0)"/><path class="sja_aa_stem" d="M0,0v-14l2.816753926701722,-23.333333333333336v-23.799999999999997" stroke="#2ca02c" fill="none"/></g><g class="sja_skg" transform="translate(1089, 61.13333511352539)"><g transform="translate(0, 7)" class="sja_aa_discg"><circle fill="#db3d3d" stroke="white" r="6.5"/><text font-size="12" fill="#db3d3d" x="8" y="3.5999999999999996" font-family="Arial" class="sja_aa_disclabel" fill-opacity="1" transform="">p.Val1678GlyfsTer76</text><circle r="6.5" stroke="#db3d3d" class="sja_aa_disckick" fill="white" fill-opacity="0" stroke-opacity="0" transform="scale(1)"/><path d="M4.286263797015736e-16,-7L4.286263797015736e-16,-7Z" fill="#db3d3d" class="sja_aa_discrim" fill-opacity="1" stroke-opacity="1"/></g><g transform="translate(0, 21)" class="sja_aa_discg"><circle fill="#db3d3d" stroke="white" r="6.5"/><text font-size="12" fill="#db3d3d" x="8" y="3.5999999999999996" font-family="Arial" class="sja_aa_disclabel" fill-opacity="1" transform="">p.Val1678CysfsTer7</text><circle r="6.5" stroke="#db3d3d" class="sja_aa_disckick" fill="white" fill-opacity="0" stroke-opacity="0" transform="scale(1)"/><path d="M4.286263797015736e-16,-7L4.286263797015736e-16,-7Z" fill="#db3d3d" class="sja_aa_discrim" fill-opacity="1" stroke-opacity="1"/></g><circle class="sja_aa_skkick" fill="white" fill-opacity="0" stroke="none" r="8" cy="7" transform="scale(0)"/><path class="sja_aa_stem" d="M0,0v-14l0.47120418848180634,-23.333333333333336v-23.799999999999997" stroke="#db3d3d" fill="none"/><rect class="sja_aa_ssk_bg" shape-rendering="crispEdges" fill-opacity="0" height="14" fill="#db3d3d" width="14" x="-7" transform="scale(1)" y="-14"/><text class="sja_aa_ssk_text" fill="white" fill-opacity="0" font-weight="bold" text-anchor="middle" dominant-baseline="central" font-size="14" transform="scale(1)" y="-7">2</text><rect class="sja_aa_ssk_kick" fill="white" fill-opacity="0" stroke="none" height="14" x="-7" width="14" transform="scale(1)" y="-14"/></g><g class="sja_skg" transform="translate(1214.5078125, 61.13333511352539)"><g transform="translate(0, 7)" class="sja_aa_discg"><circle fill="#3987CC" stroke="white" r="6.5"/><text font-size="12" fill="#3987CC" x="8" y="3.5999999999999996" font-family="Arial" class="sja_aa_disclabel" fill-opacity="1" transform="rotate(90)">p.Gln1735His</text><circle r="6.5" stroke="#3987CC" class="sja_aa_disckick" fill="white" fill-opacity="0" stroke-opacity="0" transform="scale(1)"/><path d="M4.286263797015736e-16,-7L4.286263797015736e-16,-7Z" fill="#3987CC" class="sja_aa_discrim" fill-opacity="1" stroke-opacity="1"/></g><circle class="sja_aa_skkick" fill="white" fill-opacity="0" stroke="none" r="8" cy="7" transform="scale(0)"/><path class="sja_aa_stem" d="M0,0v-14l-85.23556119109935,-23.333333333333336v-23.799999999999997" stroke="#3987CC" fill="none"/></g></g><g/><g transform="scale(0)"><rect fill="white" fill-opacity="0.5" width="1260" height="0"/><text data-testid="loading_message" fill="rgb(97, 124, 148)" fill-opacity="1" font-weight="bold" font-size="18px" text-anchor="middle" dominant-baseline="middle" x="630" y="15">Loading ...</text><line stroke="rgb(97, 124, 148)" stroke-width="2px" y1="30" y2="30" x2="0"/></g></g><g transform="translate(122.3984375, 0)"><text font-size="14" font-family="Arial" y="7" text-anchor="end" dominant-baseline="central" fill="black" x="-10" font-weight="bold">GAMBL DLBCL</text><g/><text font-size="14" font-family="Arial" y="26" text-anchor="end" dominant-baseline="central" class="sja_clbtext2" fill="black" x="-10">5 mutations</text></g><g transform="translate(1395.3984375, 0)"/></g><g data-testid="sja_sample_menu_opener" transform="translate(0, 250.51614379882812)"><g transform="translate(1385.3984375, 0)"/><g transform="translate(125.3984375,0)"><rect fill="white" fill-opacity="0" width="1260" height="133.846875"/><g transform="translate(0,0)" style="cursor: default;"><g class="sja_skg" transform="translate(466.2879638671875, 23.799999237060547)"><g transform="translate(0, 7)" class="sja_aa_discg"><circle fill="#2ca02c" stroke="white" r="6.5"/><text font-size="12" fill="#2ca02c" x="8" y="3.5999999999999996" font-family="Arial" class="sja_aa_disclabel" fill-opacity="1" transform="scale(1) rotate(0)">c.2190C&gt;T(p.=)</text><circle r="6.5" stroke="#2ca02c" class="sja_aa_disckick" fill="white" fill-opacity="0" stroke-opacity="0" transform="scale(1)"/><path d="M4.286263797015736e-16,-7L4.286263797015736e-16,-7Z" fill="#2ca02c" class="sja_aa_discrim" fill-opacity="1" stroke-opacity="1"/></g><circle class="sja_aa_skkick" fill="white" fill-opacity="0" stroke="none" r="8" cy="7" transform="scale(0)"/><path class="sja_aa_stem" d="M0,0v0l0,0v-23.799999999999997" stroke="#2ca02c" fill="none"/></g></g><g/><g transform="scale(0)"><rect fill="white" fill-opacity="0.5" width="1260" height="0"/><text data-testid="loading_message" fill="rgb(97, 124, 148)" fill-opacity="1" font-weight="bold" font-size="18px" text-anchor="middle" dominant-baseline="middle" x="630" y="15">Loading ...</text><line stroke="rgb(97, 124, 148)" stroke-width="2px" y1="30" y2="30" x2="0"/></g></g><g transform="translate(122.3984375,0)"><text font-size="14" font-family="Arial" y="7" text-anchor="end" dominant-baseline="central" fill="black" x="-10" font-weight="bold">GAMBL FL</text><g/><text font-size="14" font-family="Arial" y="26" text-anchor="end" dominant-baseline="central" class="sja_clbtext2" fill="black" x="-10">1 mutation</text></g><g transform="translate(1395.3984375,0)"/></g><g data-testid="sja_sample_menu_opener" transform="translate(0, 31)"><g transform="translate(1385.3984375, 0)"/><g transform="translate(125.3984375,0)"><rect fill="white" fill-opacity="0" width="1260" height="172.51614583333333"/><g transform="translate(0,0)" style="cursor: default;"><g class="sja_skg" transform="translate(152.71726989746094, 101.3828125)"><g transform="translate(0, -7)" class="sja_aa_discg"><circle fill="#3987CC" stroke="white" r="6.5"/><text font-size="12" fill="#3987CC" x="8" y="3.5999999999999996" font-family="Arial" class="sja_aa_disclabel" fill-opacity="1" transform="scale(1) rotate(0)">p.Asn255Ser</text><circle r="6.5" stroke="#3987CC" class="sja_aa_disckick" fill="white" fill-opacity="0" stroke-opacity="0" transform="scale(1)"/><path d="M4.286263797015736e-16,-7L4.286263797015736e-16,-7Z" fill="#3987CC" class="sja_aa_discrim" fill-opacity="1" stroke-opacity="1"/></g><circle class="sja_aa_skkick" fill="white" fill-opacity="0" stroke="none" r="8" cy="-7" transform="scale(0)"/><path class="sja_aa_stem" d="M0,0v14l0,23.333333333333336v23.799999999999997" stroke="#3987CC" fill="none"/></g><g class="sja_skg" transform="translate(506.9685974121094, 101.3828125)"><g transform="translate(0, -7)" class="sja_aa_discg"><circle fill="#3987CC" stroke="white" r="6.5"/><text font-size="12" fill="#3987CC" x="8" y="3.5999999999999996" font-family="Arial" class="sja_aa_disclabel" fill-opacity="1" transform="rotate(-90)">p.Gln792Arg</text><circle r="6.5" stroke="#3987CC" class="sja_aa_disckick" fill="white" fill-opacity="0" stroke-opacity="0" transform="scale(1)"/><path d="M4.286263797015736e-16,-7L4.286263797015736e-16,-7Z" fill="#3987CC" class="sja_aa_discrim" fill-opacity="1" stroke-opacity="1"/></g><circle class="sja_aa_skkick" fill="white" fill-opacity="0" stroke="none" r="8" cy="-7" transform="scale(0)"/><path class="sja_aa_stem" d="M0,0v14l0,23.333333333333336v23.799999999999997" stroke="#3987CC" fill="none"/></g><g class="sja_skg" transform="translate(574.2565307617188, 101.3828125)"><g transform="translate(0, -7)" class="sja_aa_discg"><circle fill="#3987CC" stroke="white" r="6.5"/><text font-size="12" fill="#3987CC" x="8" y="3.5999999999999996" font-family="Arial" class="sja_aa_disclabel" fill-opacity="1" transform="scale(1) rotate(0)">p.Val894Ala</text><circle r="6.5" stroke="#3987CC" class="sja_aa_disckick" fill="white" fill-opacity="0" stroke-opacity="0" transform="scale(1)"/><path d="M4.286263797015736e-16,-7L4.286263797015736e-16,-7Z" fill="#3987CC" class="sja_aa_discrim" fill-opacity="1" stroke-opacity="1"/></g><circle class="sja_aa_skkick" fill="white" fill-opacity="0" stroke="none" r="8" cy="-7" transform="scale(0)"/><path class="sja_aa_stem" d="M0,0v14l0,23.333333333333336v23.799999999999997" stroke="#3987CC" fill="none"/></g><g class="sja_skg" transform="translate(731.2617797851562, 101.3828125)"><g transform="translate(0, -7)" class="sja_aa_discg"><circle fill="#3987CC" stroke="white" r="6.5"/><text font-size="12" fill="#3987CC" x="8" y="3.5999999999999996" font-family="Arial" class="sja_aa_disclabel" fill-opacity="1" transform="rotate(-90)">p.Arg1132Gln</text><circle r="6.5" stroke="#3987CC" class="sja_aa_disckick" fill="white" fill-opacity="0" stroke-opacity="0" transform="scale(1)"/><path d="M4.286263797015736e-16,-7L4.286263797015736e-16,-7Z" fill="#3987CC" class="sja_aa_discrim" fill-opacity="1" stroke-opacity="1"/></g><circle class="sja_aa_skkick" fill="white" fill-opacity="0" stroke="none" r="8" cy="-7" transform="scale(0)"/><path class="sja_aa_stem" d="M0,0v14l0,23.333333333333336v23.799999999999997" stroke="#3987CC" fill="none"/></g><g class="sja_skg" transform="translate(819.2199096679688, 101.3828125)"><g transform="translate(0, -7)" class="sja_aa_discg"><circle fill="#2ca02c" stroke="white" r="6.5"/><text font-size="12" fill="#2ca02c" x="8" y="3.5999999999999996" font-family="Arial" class="sja_aa_disclabel" fill-opacity="1" transform="scale(1) rotate(0)">c.3795G&gt;A(p.=)</text><circle r="6.5" stroke="#2ca02c" class="sja_aa_disckick" fill="white" fill-opacity="0" stroke-opacity="0" transform="scale(1)"/><path d="M4.286263797015736e-16,-7L4.286263797015736e-16,-7Z" fill="#2ca02c" class="sja_aa_discrim" fill-opacity="1" stroke-opacity="1"/></g><circle class="sja_aa_skkick" fill="white" fill-opacity="0" stroke="none" r="8" cy="-7" transform="scale(0)"/><path class="sja_aa_stem" d="M0,0v14l0,23.333333333333336v23.799999999999997" stroke="#2ca02c" fill="none"/></g><g class="sja_skg" transform="translate(1207.554931640625, 101.3828125)"><g transform="translate(0, -7)" class="sja_aa_discg"><circle fill="#3987CC" stroke="white" r="6.5"/><text font-size="12" fill="#3987CC" x="8" y="3.5999999999999996" font-family="Arial" class="sja_aa_disclabel" fill-opacity="1" transform="rotate(-90)">p.Arg1854His</text><circle r="6.5" stroke="#3987CC" class="sja_aa_disckick" fill="white" fill-opacity="0" stroke-opacity="0" transform="scale(1)"/><path d="M4.286263797015736e-16,-7L4.286263797015736e-16,-7Z" fill="#3987CC" class="sja_aa_discrim" fill-opacity="1" stroke-opacity="1"/></g><circle class="sja_aa_skkick" fill="white" fill-opacity="0" stroke="none" r="8" cy="-7" transform="scale(0)"/><path class="sja_aa_stem" d="M0,0v14l0,23.333333333333336v23.799999999999997" stroke="#3987CC" fill="none"/></g><g class="sja_skg" transform="translate(1225.1466064453125, 101.3828125)"><g transform="translate(0, -7)" class="sja_aa_discg"><circle fill="#3987CC" stroke="white" r="6.5"/><text font-size="12" fill="#3987CC" x="8" y="3.5999999999999996" font-family="Arial" class="sja_aa_disclabel" fill-opacity="1" transform="rotate(-90)">p.Cys1881Arg</text><circle r="6.5" stroke="#3987CC" class="sja_aa_disckick" fill="white" fill-opacity="0" stroke-opacity="0" transform="scale(1)"/><path d="M4.286263797015736e-16,-7L4.286263797015736e-16,-7Z" fill="#3987CC" class="sja_aa_discrim" fill-opacity="1" stroke-opacity="1"/></g><circle class="sja_aa_skkick" fill="white" fill-opacity="0" stroke="none" r="8" cy="-7" transform="scale(0)"/><path class="sja_aa_stem" d="M0,0v14l0,23.333333333333336v23.799999999999997" stroke="#3987CC" fill="none"/></g></g><g/><g transform="scale(0)"><rect fill="white" fill-opacity="0.5" width="1260" height="0"/><text data-testid="loading_message" fill="rgb(97, 124, 148)" fill-opacity="1" font-weight="bold" font-size="18px" text-anchor="middle" dominant-baseline="middle" x="630" y="15">Loading ...</text><line stroke="rgb(97, 124, 148)" stroke-width="2px" y1="30" y2="30" x2="0"/></g></g><g transform="translate(122.3984375,0)"><text font-size="14" font-family="Arial" y="7" text-anchor="end" dominant-baseline="central" fill="black" x="-10" font-weight="bold">GAMBL BL</text><g/><text font-size="14" font-family="Arial" y="26" text-anchor="end" dominant-baseline="central" class="sja_clbtext2" fill="black" x="-10">7 mutations</text></g><g transform="translate(1395.3984375,0)"/></g><g data-testid="sja_sample_menu_opener" transform="translate(0, 556.879150390625)"><g transform="translate(1385.3984375, 0)"/><g transform="translate(125.3984375,0)"><rect fill="white" fill-opacity="0" width="1260" height="24"/><g transform="translate(0,0)" style="cursor: default;"/><g/><g transform="scale(0)"><rect fill="white" fill-opacity="0.5" width="1260" height="0"/><text data-testid="loading_message" fill="rgb(97, 124, 148)" fill-opacity="1" font-weight="bold" font-size="18px" text-anchor="middle" dominant-baseline="middle" x="630" y="15">Loading ...</text><line stroke="rgb(97, 124, 148)" stroke-width="2px" y1="30" y2="30" x2="0"/></g></g><g transform="translate(122.3984375,0)"><text font-size="14" font-family="Arial" y="7" text-anchor="end" dominant-baseline="central" fill="black" x="-10" font-weight="bold">GAMBL MCL</text><g/><text font-size="14" font-family="Arial" y="26" text-anchor="end" dominant-baseline="central" class="sja_clbtext2" fill="black" x="-10"/></g><g transform="translate(1395.3984375,0)"/></g><g data-testid="sja_sample_menu_opener" transform="translate(0, 203.51614379882812)"><g transform="translate(1385.3984375, 0)"/><g transform="translate(125.3984375,0)"><rect fill="white" fill-opacity="0" width="1260" height="47"/><g transform="translate(0,0)" style="cursor: default;"><g><line x1="0" y1="18.5" x2="1259.9999999999998" y2="18.5" stroke="black" shape-rendering="crispEdges"/><rect x="0" width="9.895287958115183" height="37" fill="white"/><rect x="9.895287958115183" width="228.9109947643979" height="37" fill="white"/><rect x="30.345549738219898" width="208.4607329842932" height="37" fill="#E8E89E"/><rect x="64.64921465968587" width="1.9790575916230368" height="37" fill="#bebada"/><rect x="236.82722513089004" width="1.3193717277486912" height="37" fill="#bebada"/><rect x="149.74869109947645" width="1.3193717277486912" height="37" fill="#bebada"/><rect x="146.4502617801047" width="1" height="37" fill="#bebada"/><rect x="143.15183246073298" width="1" height="37" fill="#bebada"/><rect x="164.92146596858638" width="1" height="37" fill="#bebada"/><rect x="238.8062827225131" width="39.58115183246073" height="37" fill="white"/><rect x="238.8062827225131" width="39.58115183246073" height="37" fill="#E8E89E"/><rect x="245.40314136125653" width="1.9790575916230368" height="37" fill="#bebada"/><rect x="242.10471204188482" width="1" height="37" fill="#bebada"/><rect x="278.3874345549738" width="28.36649214659686" height="37" fill="white"/><rect x="278.3874345549738" width="28.36649214659686" height="37" fill="#E8E89E"/><rect x="306.75392670157066" width="22.209424083769633" height="37" fill="white"/><rect x="306.75392670157066" width="4.617801047120419" height="37" fill="#E8E89E"/><rect x="312.0314136125654" width="16.93193717277487" height="37" fill="#80b1d3"/><rect x="328.9633507853403" width="29.24607329842932" height="37" fill="white"/><rect x="328.9633507853403" width="17.3717277486911" height="37" fill="#80b1d3"/><rect x="358.20942408376965" width="34.52356020942408" height="37" fill="white"/><rect x="392.73298429319374" width="23.968586387434556" height="37" fill="white"/><rect x="416.70157068062827" width="25.287958115183248" height="37" fill="white"/><rect x="441.9895287958115" width="27.706806282722514" height="37" fill="white"/><rect x="469.69633507853405" width="25.727748691099478" height="37" fill="white"/><rect x="495.4240837696335" width="20.670157068062828" height="37" fill="white"/><rect x="516.0942408376964" width="37.382198952879584" height="37" fill="white"/><rect x="550.1780104712042" width="3.298429319371728" height="37" fill="#e5c494"/><rect x="553.4764397905759" width="33.42408376963351" height="37" fill="white"/><rect x="553.4764397905759" width="33.42408376963351" height="37" fill="#e5c494"/><rect x="586.9005235602094" width="23.30890052356021" height="37" fill="white"/><rect x="586.9005235602094" width="23.30890052356021" height="37" fill="#e5c494"/><rect x="610.2094240837696" width="28.80628272251309" height="37" fill="white"/><rect x="610.2094240837696" width="1" height="37" fill="#e5c494"/><rect x="610.8691099476439" width="28.146596858638745" height="37" fill="#a6d854"/><rect x="639.0157068062827" width="38.92146596858639" height="37" fill="white"/><rect x="668.9214659685863" width="9.015706806282722" height="37" fill="#ffd92f"/><rect x="639.0157068062827" width="28.586387434554975" height="37" fill="#a6d854"/><rect x="677.937172774869" width="43.09947643979058" height="37" fill="white"/><rect x="677.937172774869" width="43.09947643979058" height="37" fill="#ffd92f"/><rect x="721.0366492146596" width="52.774869109947645" height="37" fill="white"/><rect x="721.0366492146596" width="34.96335078534032" height="37" fill="#ffd92f"/><rect x="773.8115183246073" width="34.96335078534032" height="37" fill="white"/><rect x="775.130890052356" width="33.64397905759162" height="37" fill="#fb8072"/><rect x="808.7748691099476" width="33.42408376963351" height="37" fill="white"/><rect x="808.7748691099476" width="10.55497382198953" height="37" fill="#fb8072"/><rect x="842.1989528795812" width="22.209424083769633" height="37" fill="white"/><rect x="864.4083769633507" width="49.2565445026178" height="37" fill="white"/><rect x="874.7434554973821" width="38.92146596858639" height="37" fill="#fdb462"/><rect x="913.6649214659685" width="39.361256544502616" height="37" fill="white"/><rect x="913.6649214659685" width="39.361256544502616" height="37" fill="#fdb462"/><rect x="951.9267015706805" width="1.099476439790576" height="37" fill="#8dd3c7"/><rect x="949.2879581151832" width="1" height="37" fill="#8dd3c7"/><rect x="923.5602094240837" width="1" height="37" fill="#8dd3c7"/><rect x="953.0261780104711" width="14.732984293193718" height="37" fill="white"/><rect x="953.0261780104711" width="14.732984293193718" height="37" fill="#fdb462"/><rect x="953.0261780104711" width="2.198952879581152" height="37" fill="#8dd3c7"/><rect x="959.1832460732983" width="1" height="37" fill="#8dd3c7"/><rect x="967.7591623036648" width="72.12565445026178" height="37" fill="white"/><rect x="967.7591623036648" width="72.12565445026178" height="37" fill="#fdb462"/><rect x="1039.8848167539265" width="22.86910994764398" height="37" fill="white"/><rect x="1039.8848167539265" width="22.86910994764398" height="37" fill="#fdb462"/><rect x="1062.7539267015704" width="20.670157068062828" height="37" fill="white"/><rect x="1062.7539267015704" width="20.670157068062828" height="37" fill="#fdb462"/><rect x="1083.4240837696332" width="38.04188481675393" height="37" fill="white"/><rect x="1083.4240837696332" width="38.04188481675393" height="37" fill="#fdb462"/><rect x="1121.4659685863871" width="35.403141361256544" height="37" fill="white"/><rect x="1121.4659685863871" width="35.403141361256544" height="37" fill="#fdb462"/><rect x="1153.1308900523557" width="1" height="37" fill="#8dd3c7"/><rect x="1156.8691099476437" width="32.54450261780105" height="37" fill="white"/><rect x="1156.8691099476437" width="32.54450261780105" height="37" fill="#fdb462"/><rect x="1158.4083769633505" width="1.3193717277486912" height="37" fill="#8dd3c7"/><rect x="1161.047120418848" width="1.3193717277486912" height="37" fill="#8dd3c7"/><rect x="1183.4764397905756" width="1" height="37" fill="#8dd3c7"/><rect x="1184.7958115183244" width="1" height="37" fill="#8dd3c7"/><rect x="1178.8586387434552" width="1" height="37" fill="#8dd3c7"/><rect x="1189.4136125654447" width="14.293193717277488" height="37" fill="white"/><rect x="1189.4136125654447" width="14.293193717277488" height="37" fill="#fdb462"/><rect x="1189.4136125654447" width="1.3193717277486912" height="37" fill="#8dd3c7"/><rect x="1203.7068062827223" width="16.712041884816756" height="37" fill="white"/><rect x="1203.7068062827223" width="16.712041884816756" height="37" fill="#fdb462"/><rect x="1220.418848167539" width="16.49214659685864" height="37" fill="white"/><rect x="1220.418848167539" width="16.49214659685864" height="37" fill="#fdb462"/><rect x="1236.9109947643976" width="23.089005235602095" height="37" fill="white"/><rect x="1236.9109947643976" width="1" height="37" fill="#fdb462"/><line x1="0" x2="1259.9999999999998" stroke="black"/><line x1="0" x2="1259.9999999999998" y1="37" y2="37" stroke="black"/><line x1="0" x2="0" y2="37" stroke="black"/><line x1="1259.9999999999998" x2="1259.9999999999998" y2="37" stroke="black"/><line class="exonboundaryclass" x1="9.895287958115183" x2="9.895287958115183" y1="0" y2="37" stroke="black" stroke-dasharray="4,2" shape-rendering="crispEdges" stroke-opacity="1"/><line class="exonboundaryclass" x1="238.8062827225131" x2="238.8062827225131" y1="0" y2="37" stroke="black" stroke-dasharray="4,2" shape-rendering="crispEdges" stroke-opacity="1"/><line class="exonboundaryclass" x1="278.3874345549738" x2="278.3874345549738" y1="0" y2="37" stroke="black" stroke-dasharray="4,2" shape-rendering="crispEdges" stroke-opacity="1"/><line class="exonboundaryclass" x1="306.75392670157066" x2="306.75392670157066" y1="0" y2="37" stroke="black" stroke-dasharray="4,2" shape-rendering="crispEdges" stroke-opacity="1"/><line class="exonboundaryclass" x1="328.9633507853403" x2="328.9633507853403" y1="0" y2="37" stroke="black" stroke-dasharray="4,2" shape-rendering="crispEdges" stroke-opacity="1"/><line class="exonboundaryclass" x1="358.20942408376965" x2="358.20942408376965" y1="0" y2="37" stroke="black" stroke-dasharray="4,2" shape-rendering="crispEdges" stroke-opacity="1"/><line class="exonboundaryclass" x1="392.73298429319374" x2="392.73298429319374" y1="0" y2="37" stroke="black" stroke-dasharray="4,2" shape-rendering="crispEdges" stroke-opacity="1"/><line class="exonboundaryclass" x1="416.70157068062827" x2="416.70157068062827" y1="0" y2="37" stroke="black" stroke-dasharray="4,2" shape-rendering="crispEdges" stroke-opacity="1"/><line class="exonboundaryclass" x1="441.9895287958115" x2="441.9895287958115" y1="0" y2="37" stroke="black" stroke-dasharray="4,2" shape-rendering="crispEdges" stroke-opacity="1"/><line class="exonboundaryclass" x1="469.69633507853405" x2="469.69633507853405" y1="0" y2="37" stroke="black" stroke-dasharray="4,2" shape-rendering="crispEdges" stroke-opacity="1"/><line class="exonboundaryclass" x1="495.4240837696335" x2="495.4240837696335" y1="0" y2="37" stroke="black" stroke-dasharray="4,2" shape-rendering="crispEdges" stroke-opacity="1"/><line class="exonboundaryclass" x1="516.0942408376964" x2="516.0942408376964" y1="0" y2="37" stroke="black" stroke-dasharray="4,2" shape-rendering="crispEdges" stroke-opacity="1"/><line class="exonboundaryclass" x1="553.4764397905759" x2="553.4764397905759" y1="0" y2="37" stroke="black" stroke-dasharray="4,2" shape-rendering="crispEdges" stroke-opacity="1"/><line class="exonboundaryclass" x1="586.9005235602094" x2="586.9005235602094" y1="0" y2="37" stroke="black" stroke-dasharray="4,2" shape-rendering="crispEdges" stroke-opacity="1"/><line class="exonboundaryclass" x1="610.2094240837696" x2="610.2094240837696" y1="0" y2="37" stroke="black" stroke-dasharray="4,2" shape-rendering="crispEdges" stroke-opacity="1"/><line class="exonboundaryclass" x1="639.0157068062827" x2="639.0157068062827" y1="0" y2="37" stroke="black" stroke-dasharray="4,2" shape-rendering="crispEdges" stroke-opacity="1"/><line class="exonboundaryclass" x1="677.937172774869" x2="677.937172774869" y1="0" y2="37" stroke="black" stroke-dasharray="4,2" shape-rendering="crispEdges" stroke-opacity="1"/><line class="exonboundaryclass" x1="721.0366492146596" x2="721.0366492146596" y1="0" y2="37" stroke="black" stroke-dasharray="4,2" shape-rendering="crispEdges" stroke-opacity="1"/><line class="exonboundaryclass" x1="773.8115183246073" x2="773.8115183246073" y1="0" y2="37" stroke="black" stroke-dasharray="4,2" shape-rendering="crispEdges" stroke-opacity="1"/><line class="exonboundaryclass" x1="808.7748691099476" x2="808.7748691099476" y1="0" y2="37" stroke="black" stroke-dasharray="4,2" shape-rendering="crispEdges" stroke-opacity="1"/><line class="exonboundaryclass" x1="842.1989528795812" x2="842.1989528795812" y1="0" y2="37" stroke="black" stroke-dasharray="4,2" shape-rendering="crispEdges" stroke-opacity="1"/><line class="exonboundaryclass" x1="864.4083769633507" x2="864.4083769633507" y1="0" y2="37" stroke="black" stroke-dasharray="4,2" shape-rendering="crispEdges" stroke-opacity="1"/><line class="exonboundaryclass" x1="913.6649214659685" x2="913.6649214659685" y1="0" y2="37" stroke="black" stroke-dasharray="4,2" shape-rendering="crispEdges" stroke-opacity="1"/><line class="exonboundaryclass" x1="953.0261780104711" x2="953.0261780104711" y1="0" y2="37" stroke="black" stroke-dasharray="4,2" shape-rendering="crispEdges" stroke-opacity="1"/><line class="exonboundaryclass" x1="967.7591623036648" x2="967.7591623036648" y1="0" y2="37" stroke="black" stroke-dasharray="4,2" shape-rendering="crispEdges" stroke-opacity="1"/><line class="exonboundaryclass" x1="1039.8848167539265" x2="1039.8848167539265" y1="0" y2="37" stroke="black" stroke-dasharray="4,2" shape-rendering="crispEdges" stroke-opacity="1"/><line class="exonboundaryclass" x1="1062.7539267015704" x2="1062.7539267015704" y1="0" y2="37" stroke="black" stroke-dasharray="4,2" shape-rendering="crispEdges" stroke-opacity="1"/><line class="exonboundaryclass" x1="1083.4240837696332" x2="1083.4240837696332" y1="0" y2="37" stroke="black" stroke-dasharray="4,2" shape-rendering="crispEdges" stroke-opacity="1"/><line class="exonboundaryclass" x1="1121.4659685863871" x2="1121.4659685863871" y1="0" y2="37" stroke="black" stroke-dasharray="4,2" shape-rendering="crispEdges" stroke-opacity="1"/><line class="exonboundaryclass" x1="1156.8691099476437" x2="1156.8691099476437" y1="0" y2="37" stroke="black" stroke-dasharray="4,2" shape-rendering="crispEdges" stroke-opacity="1"/><line class="exonboundaryclass" x1="1189.4136125654447" x2="1189.4136125654447" y1="0" y2="37" stroke="black" stroke-dasharray="4,2" shape-rendering="crispEdges" stroke-opacity="1"/><line class="exonboundaryclass" x1="1203.7068062827223" x2="1203.7068062827223" y1="0" y2="37" stroke="black" stroke-dasharray="4,2" shape-rendering="crispEdges" stroke-opacity="1"/><line class="exonboundaryclass" x1="1220.418848167539" x2="1220.418848167539" y1="0" y2="37" stroke="black" stroke-dasharray="4,2" shape-rendering="crispEdges" stroke-opacity="1"/><line class="exonboundaryclass" x1="1236.9109947643976" x2="1236.9109947643976" y1="0" y2="37" stroke="black" stroke-dasharray="4,2" shape-rendering="crispEdges" stroke-opacity="1"/><g transform="translate(0,18.5)" fill="none" font-size="10" font-family="sans-serif" text-anchor="middle"><path class="domain" stroke="none" d="M0.3298429319371728,0H1259.9999999999998" fill="none" stroke-width="0" shape-rendering="crispEdges"/><g class="tick" opacity="1" transform="translate(131.43242753896524,0)"><line stroke="black" y2="0" shape-rendering="crispEdges"/><text fill="black" y="3" dy="0.71em" font-family="Arial" font-size="11.666666666666666px" style="cursor: default;">200</text></g><g class="tick" opacity="1" transform="translate(263.3410994764398,0)"><line stroke="black" y2="0" shape-rendering="crispEdges"/><text fill="black" y="3" dy="0.71em" font-family="Arial" font-size="11.666666666666666px" style="cursor: default;">400</text></g><g class="tick" opacity="1" transform="translate(395.4938917975567,0)"><line stroke="black" y2="0" shape-rendering="crispEdges"/><text fill="black" y="3" dy="0.71em" font-family="Arial" font-size="11.666666666666666px" style="cursor: default;">600</text></g><g class="tick" opacity="1" transform="translate(527.3204739597685,0)"><line stroke="black" y2="0" shape-rendering="crispEdges"/><text fill="black" y="3" dy="0.71em" font-family="Arial" font-size="11.666666666666666px" style="cursor: default;">800</text></g><g class="tick" opacity="1" transform="translate(659.4137900434821,0)"><line stroke="black" y2="0" shape-rendering="crispEdges"/><text fill="black" y="3" dy="0.71em" font-family="Arial" font-size="11.666666666666666px" style="cursor: default;">1000</text></g><g class="tick" opacity="1" transform="translate(791.1313839770819,0)"><line stroke="black" y2="0" shape-rendering="crispEdges"/><text fill="black" y="3" dy="0.71em" font-family="Arial" font-size="11.666666666666666px" style="cursor: default;">1200</text></g><g class="tick" opacity="1" transform="translate(923.2564557635992,0)"><line stroke="black" y2="0" shape-rendering="crispEdges"/><text fill="black" y="3" dy="0.71em" font-family="Arial" font-size="11.666666666666666px" style="cursor: default;">1400</text></g><g class="tick" opacity="1" transform="translate(1054.9507853403138,0)"><line stroke="black" y2="0" shape-rendering="crispEdges"/><text fill="black" y="3" dy="0.71em" font-family="Arial" font-size="11.666666666666666px" style="cursor: default;">1600</text></g><g class="tick" opacity="1" transform="translate(1186.8012565445022,0)"><line stroke="black" y2="0" shape-rendering="crispEdges"/><text fill="black" y="3" dy="0.71em" font-family="Arial" font-size="11.666666666666666px" style="cursor: default;">1800</text></g></g><rect x="0" width="9.895287958115183" height="37" fill="#858585" fill-opacity="0"/><rect x="9.895287958115183" width="228.9109947643979" height="37" fill="#858585" fill-opacity="0"/><rect x="238.8062827225131" width="39.58115183246073" height="37" fill="#858585" fill-opacity="0"/><rect x="278.3874345549738" width="28.36649214659686" height="37" fill="#858585" fill-opacity="0"/><rect x="306.75392670157066" width="22.209424083769633" height="37" fill="#858585" fill-opacity="0"/><rect x="328.9633507853403" width="29.24607329842932" height="37" fill="#858585" fill-opacity="0"/><rect x="358.20942408376965" width="34.52356020942408" height="37" fill="#858585" fill-opacity="0"/><rect x="392.73298429319374" width="23.968586387434556" height="37" fill="#858585" fill-opacity="0"/><rect x="416.70157068062827" width="25.287958115183248" height="37" fill="#858585" fill-opacity="0"/><rect x="441.9895287958115" width="27.706806282722514" height="37" fill="#858585" fill-opacity="0"/><rect x="469.69633507853405" width="25.727748691099478" height="37" fill="#858585" fill-opacity="0"/><rect x="495.4240837696335" width="20.670157068062828" height="37" fill="#858585" fill-opacity="0"/><rect x="516.0942408376964" width="37.382198952879584" height="37" fill="#858585" fill-opacity="0"/><rect x="553.4764397905759" width="33.42408376963351" height="37" fill="#858585" fill-opacity="0"/><rect x="586.9005235602094" width="23.30890052356021" height="37" fill="#858585" fill-opacity="0"/><rect x="610.2094240837696" width="28.80628272251309" height="37" fill="#858585" fill-opacity="0"/><rect x="639.0157068062827" width="38.92146596858639" height="37" fill="#858585" fill-opacity="0"/><rect x="677.937172774869" width="43.09947643979058" height="37" fill="#858585" fill-opacity="0"/><rect x="721.0366492146596" width="52.774869109947645" height="37" fill="#858585" fill-opacity="0"/><rect x="773.8115183246073" width="34.96335078534032" height="37" fill="#858585" fill-opacity="0"/><rect x="808.7748691099476" width="33.42408376963351" height="37" fill="#858585" fill-opacity="0"/><rect x="842.1989528795812" width="22.209424083769633" height="37" fill="#858585" fill-opacity="0"/><rect x="864.4083769633507" width="49.2565445026178" height="37" fill="#858585" fill-opacity="0"/><rect x="913.6649214659685" width="39.361256544502616" height="37" fill="#858585" fill-opacity="0"/><rect x="953.0261780104711" width="14.732984293193718" height="37" fill="#858585" fill-opacity="0"/><rect x="967.7591623036648" width="72.12565445026178" height="37" fill="#858585" fill-opacity="0"/><rect x="1039.8848167539265" width="22.86910994764398" height="37" fill="#858585" fill-opacity="0"/><rect x="1062.7539267015704" width="20.670157068062828" height="37" fill="#858585" fill-opacity="0"/><rect x="1083.4240837696332" width="38.04188481675393" height="37" fill="#858585" fill-opacity="0"/><rect x="1121.4659685863871" width="35.403141361256544" height="37" fill="#858585" fill-opacity="0"/><rect x="1156.8691099476437" width="32.54450261780105" height="37" fill="#858585" fill-opacity="0"/><rect x="1189.4136125654447" width="14.293193717277488" height="37" fill="#858585" fill-opacity="0"/><rect x="1203.7068062827223" width="16.712041884816756" height="37" fill="#858585" fill-opacity="0"/><rect x="1220.418848167539" width="16.49214659685864" height="37" fill="#858585" fill-opacity="0"/><rect x="1236.9109947643976" width="23.089005235602095" height="37" fill="#858585" fill-opacity="0"/></g></g><g/><g transform="scale(0)"><rect fill="white" fill-opacity="0"/><text data-testid="loading_message" fill="rgb(97, 124, 148)" fill-opacity="0" font-weight="bold" font-size="18px" text-anchor="middle" dominant-baseline="middle">Loading ...</text><line stroke="rgb(97, 124, 148)" stroke-width="2px"/></g></g><g transform="translate(122.3984375,0)"><text font-size="14" font-family="Arial" y="7" text-anchor="end" dominant-baseline="central" fill="black" x="-10" font-weight="bold">PLXNB3</text><text font-size="14" font-family="Arial" y="20" text-anchor="end" dominant-baseline="central" fill="black" x="-10">NM_005393</text></g><g transform="translate(1395.3984375,0)"><text fill="#aaa" font-family="Arial" font-size="14" y="14" class="sja_clbtext2"/></g></g></g><g transform="scale(0)"><rect fill="white"/><text id="loadinggCloak" fill="rgb(97, 124, 148)" fill-opacity="0" font-weight="bold" font-size="18px" text-anchor="middle" dominant-baseline="middle">Loading ...</text></g><g/><g transform="translate(124.3984375,595.8791666666666)"><g transform="translate(0,0)"><rect width="15" height="20" stroke="rgb(162, 162, 111)" fill="#E8E89E" shape-rendering="crispEdges"/><text x="20" y="10" dominant-baseline="central" font-size="16" font-family="Arial" fill="black">Sema_plexin_B3</text><text x="150.96875" y="10" dominant-baseline="central" font-size="12" font-family="Arial" fill="#858585">The Sema domain, a protein interacting module, of Plexin B3</text></g><g transform="translate(0,23)"><rect width="15" height="20" stroke="rgb(133, 130, 153)" fill="#bebada" shape-rendering="crispEdges"/><text x="20" y="10" dominant-baseline="central" font-size="16" font-family="Arial" fill="black">other</text><text x="66.6875" y="10" dominant-baseline="central" font-size="12" font-family="Arial" fill="#858585">putative Semaphorin binding site [polypeptide binding]</text></g><g transform="translate(0,46)"><rect width="15" height="20" stroke="rgb(90, 124, 148)" fill="#80b1d3" shape-rendering="crispEdges"/><text x="20" y="10" dominant-baseline="central" font-size="16" font-family="Arial" fill="black">PSI</text><text x="55.7890625" y="10" dominant-baseline="central" font-size="12" font-family="Arial" fill="#858585">Plexin repeat</text></g><g transform="translate(0,69)"><rect width="15" height="20" stroke="rgb(160, 137, 104)" fill="#e5c494" shape-rendering="crispEdges"/><text x="20" y="10" dominant-baseline="central" font-size="16" font-family="Arial" fill="black">IPT_plexin_repeat1</text><text x="168.7578125" y="10" dominant-baseline="central" font-size="12" font-family="Arial" fill="#858585">First repeat of the IPT domain of Plexins and Cell Surface Receptors ( ...</text></g><g transform="translate(0,92)"><rect width="15" height="20" stroke="rgb(116, 151, 59)" fill="#a6d854" shape-rendering="crispEdges"/><text x="20" y="10" dominant-baseline="central" font-size="16" font-family="Arial" fill="black">IPT_plexin_repeat2</text><text x="168.7578125" y="10" dominant-baseline="central" font-size="12" font-family="Arial" fill="#858585">Second repeat of the IPT domain of Plexins and Cell Surface Receptors  ...</text></g><g transform="translate(0,115)"><rect width="15" height="20" stroke="rgb(179, 152, 33)" fill="#ffd92f" shape-rendering="crispEdges"/><text x="20" y="10" dominant-baseline="central" font-size="16" font-family="Arial" fill="black">IPT</text><text x="54.890625" y="10" dominant-baseline="central" font-size="12" font-family="Arial" fill="#858585">Immunoglobulin-like fold, Plexins, Transcription factors (IPT). IPTs a ...</text></g><g transform="translate(0,138)"><rect width="15" height="20" stroke="rgb(176, 90, 80)" fill="#fb8072" shape-rendering="crispEdges"/><text x="20" y="10" dominant-baseline="central" font-size="16" font-family="Arial" fill="black">TIG</text><text x="56.6640625" y="10" dominant-baseline="central" font-size="12" font-family="Arial" fill="#858585">IPT/TIG domain</text></g><g transform="translate(0,161)"><rect width="15" height="20" stroke="rgb(177, 126, 69)" fill="#fdb462" shape-rendering="crispEdges"/><text x="20" y="10" dominant-baseline="central" font-size="16" font-family="Arial" fill="black">Plexin_cytopl</text><text x="124.2734375" y="10" dominant-baseline="central" font-size="12" font-family="Arial" fill="#858585">Plexin cytoplasmic RasGAP domain</text></g><g transform="translate(0,184)"><rect width="15" height="20" stroke="rgb(99, 148, 139)" fill="#8dd3c7" shape-rendering="crispEdges"/><text x="20" y="10" dominant-baseline="central" font-size="16" font-family="Arial" fill="black">other</text><text x="66.6875" y="10" dominant-baseline="central" font-size="12" font-family="Arial" fill="#858585">putative Rap interface [polypeptide binding]</text></g></g><g transform="translate(1187.3984375,595.8791666666666)"><g transform="translate(0,0)"><circle cx="10" cy="10" r="10" fill="#3987CC"/><text x="30" y="10" dominant-baseline="central" font-size="16" font-family="Arial" fill="#3987CC">MISSENSE, n=8</text></g><g transform="translate(0,23)"><circle cx="10" cy="10" r="10" fill="#2ca02c"/><text x="30" y="10" dominant-baseline="central" font-size="16" font-family="Arial" fill="#2ca02c">SILENT, n=3</text></g><g transform="translate(0,46)"><circle cx="10" cy="10" r="10" fill="#db3d3d"/><text x="30" y="10" dominant-baseline="central" font-size="16" font-family="Arial" fill="#db3d3d">FRAMESHIFT, n=2</text></g></g></svg>