<svg xmlns="http://www.w3.org/2000/svg" data-testid="sjpp_block_svg" width="1495.3984375" height="812.840625"><g transform="translate(0,0)"><g transform="translate(125.3984375, 0)"/><rect fill="#FFFF99" x="1188" width="2" height="634.840625"/><g transform="translate(125.3984375, 23)"><g transform="translate(0,0)"><text text-anchor="end" x="-13" y="-10" dominant-baseline="central" font-size="13" font-family="Arial">Protein length</text><g><g transform="translate(0,0)" fill="none" font-size="10" font-family="sans-serif" text-anchor="middle"><path class="domain" stroke="black" d="M0,-6V0H1260V-6" fill="none" stroke-width="1" shape-rendering="crispEdges"/><g class="tick" opacity="1" transform="translate(133.69774919614147,0)"><line stroke="black" y2="-6" shape-rendering="crispEdges"/><text fill="black" y="-9" dy="0em" font-family="Arial" font-size="12px" style="cursor: default;">100</text></g><g class="tick" opacity="1" transform="translate(268.7459807073955,0)"><line stroke="black" y2="-6" shape-rendering="crispEdges"/><text fill="black" y="-9" dy="0em" font-family="Arial" font-size="12px" style="cursor: default;">200</text></g><g class="tick" opacity="1" transform="translate(403.79421221864953,0)"><line stroke="black" y2="-6" shape-rendering="crispEdges"/><text fill="black" y="-9" dy="0em" font-family="Arial" font-size="12px" style="cursor: default;">300</text></g><g class="tick" opacity="1" transform="translate(538.8424437299035,0)"><line stroke="black" y2="-6" shape-rendering="crispEdges"/><text fill="black" y="-9" dy="0em" font-family="Arial" font-size="12px" style="cursor: default;">400</text></g><g class="tick" opacity="1" transform="translate(673.8906752411575,0)"><line stroke="black" y2="-6" shape-rendering="crispEdges"/><text fill="black" y="-9" dy="0em" font-family="Arial" font-size="12px" style="cursor: default;">500</text></g><g class="tick" opacity="1" transform="translate(808.9389067524115,0)"><line stroke="black" y2="-6" shape-rendering="crispEdges"/><text fill="black" y="-9" dy="0em" font-family="Arial" font-size="12px" style="cursor: default;">600</text></g><g class="tick" opacity="1" transform="translate(943.9871382636655,0)"><line stroke="black" y2="-6" shape-rendering="crispEdges"/><text fill="black" y="-9" dy="0em" font-family="Arial" font-size="12px" style="cursor: default;">700</text></g><g class="tick" opacity="1" transform="translate(1079.0353697749194,0)"><line stroke="black" y2="-6" shape-rendering="crispEdges"/><text fill="black" y="-9" dy="0em" font-family="Arial" font-size="12px" style="cursor: default;">800</text></g><g class="tick" opacity="1" transform="translate(1214.0836012861737,0)"><line stroke="black" y2="-6" shape-rendering="crispEdges"/><text fill="black" y="-9" dy="0em" font-family="Arial" font-size="12px" style="cursor: default;">900</text></g></g></g><rect fill="white" fill-opacity="0" x="0" y="-23" width="1260" height="26"/></g><g transform="translate(1260, 0)"/></g><g data-testid="sja_sample_menu_opener" transform="translate(0, 506.8843688964844)"><g transform="translate(1385.3984375, 0)"/><g transform="translate(125.3984375, 0)"><rect fill="white" fill-opacity="0" width="1260" height="132.95625"/><g transform="translate(0,0)" style="cursor: default;"><g class="sja_skg" transform="translate(330.19293212890625, 23.799999237060547)"><g transform="translate(0, 7)" class="sja_aa_discg"><circle fill="#3987CC" stroke="white" r="6.5"/><text font-size="12" fill="#3987CC" x="8" y="3.5999999999999996" font-family="Arial" class="sja_aa_disclabel" fill-opacity="1" transform="scale(1) rotate(0)">p.Gln246Arg</text><circle r="6.5" stroke="#3987CC" class="sja_aa_disckick" fill="white" fill-opacity="0" stroke-opacity="0" transform="scale(1)"/><path d="M4.286263797015736e-16,-7L4.286263797015736e-16,-7Z" fill="#3987CC" class="sja_aa_discrim" fill-opacity="1" stroke-opacity="1"/></g><circle class="sja_aa_skkick" fill="white" fill-opacity="0" stroke="none" r="8" cy="7" transform="scale(0)"/><path class="sja_aa_stem" d="M0,0v0l0,0v-23.799999999999997" stroke="#3987CC" fill="none"/></g><g class="sja_skg" transform="translate(519.7106323242188, 23.799999237060547)"><g transform="translate(0, 7)" class="sja_aa_discg"><circle fill="#2ca02c" stroke="white" r="6.5"/><text font-size="12" fill="#2ca02c" x="8" y="3.5999999999999996" font-family="Arial" class="sja_aa_disclabel" fill-opacity="1" transform="scale(1) rotate(0)">c.1158C&gt;T(p.=)</text><circle r="6.5" stroke="#2ca02c" class="sja_aa_disckick" fill="white" fill-opacity="0" stroke-opacity="0" transform="scale(1)"/><path d="M4.286263797015736e-16,-7L4.286263797015736e-16,-7Z" fill="#2ca02c" class="sja_aa_discrim" fill-opacity="1" stroke-opacity="1"/></g><circle class="sja_aa_skkick" fill="white" fill-opacity="0" stroke="none" r="8" cy="7" transform="scale(0)"/><path class="sja_aa_stem" d="M0,0v0l0,0v-23.799999999999997" stroke="#2ca02c" fill="none"/></g><g class="sja_skg" transform="translate(1180.546630859375, 23.799999237060547)"><g transform="translate(0, 7)" class="sja_aa_discg"><circle fill="#3987CC" stroke="white" r="6.5"/><text font-size="12" fill="#3987CC" x="8" y="3.5999999999999996" font-family="Arial" class="sja_aa_disclabel" fill-opacity="1" transform="scale(1) rotate(0)">p.Ala876Thr</text><circle r="6.5" stroke="#3987CC" class="sja_aa_disckick" fill="white" fill-opacity="0" stroke-opacity="0" transform="scale(1)"/><path d="M4.286263797015736e-16,-7L4.286263797015736e-16,-7Z" fill="#3987CC" class="sja_aa_discrim" fill-opacity="1" stroke-opacity="1"/></g><circle class="sja_aa_skkick" fill="white" fill-opacity="0" stroke="none" r="8" cy="7" transform="scale(0)"/><path class="sja_aa_stem" d="M0,0v0l0,0v-23.799999999999997" stroke="#3987CC" fill="none"/></g></g><g/><g transform="scale(0)"><rect fill="white" fill-opacity="0.5" width="1260" height="0"/><text data-testid="loading_message" fill="rgb(97, 124, 148)" fill-opacity="1" font-weight="bold" font-size="18px" text-anchor="middle" dominant-baseline="middle" x="630" y="15">Loading ...</text><line stroke="rgb(97, 124, 148)" stroke-width="2px" y1="30" y2="30" x2="0"/></g></g><g transform="translate(122.3984375, 0)"><text font-size="14" font-family="Arial" y="7" text-anchor="end" dominant-baseline="central" fill="black" x="-10" font-weight="bold">GAMBL DLBCL</text><g/><text font-size="14" font-family="Arial" y="26" text-anchor="end" dominant-baseline="central" class="sja_clbtext2" fill="black" x="-10">3 of 4 mutations</text></g><g transform="translate(1395.3984375, 0)"/></g><g data-testid="sja_sample_menu_opener" transform="translate(0, 373.0375061035156)"><g transform="translate(1385.3984375, 0)"/><g transform="translate(125.3984375,0)"><rect fill="white" fill-opacity="0" width="1260" height="133.846875"/><g transform="translate(0,0)" style="cursor: default;"><g class="sja_skg" transform="translate(1074.7587890625, 23.799999237060547)"><g transform="translate(0, 7)" class="sja_aa_discg"><circle fill="#2ca02c" stroke="white" r="6.5"/><text font-size="12" fill="#2ca02c" x="8" y="3.5999999999999996" font-family="Arial" class="sja_aa_disclabel" fill-opacity="1" transform="scale(1) rotate(0)">c.2391C&gt;T(p.=)</text><circle r="6.5" stroke="#2ca02c" class="sja_aa_disckick" fill="white" fill-opacity="0" stroke-opacity="0" transform="scale(1)"/><path d="M4.286263797015736e-16,-7L4.286263797015736e-16,-7Z" fill="#2ca02c" class="sja_aa_discrim" fill-opacity="1" stroke-opacity="1"/></g><circle class="sja_aa_skkick" fill="white" fill-opacity="0" stroke="none" r="8" cy="7" transform="scale(0)"/><path class="sja_aa_stem" d="M0,0v0l0,0v-23.799999999999997" stroke="#2ca02c" fill="none"/></g></g><g/><g transform="scale(0)"><rect fill="white" fill-opacity="0.5" width="1260" height="0"/><text data-testid="loading_message" fill="rgb(97, 124, 148)" fill-opacity="1" font-weight="bold" font-size="18px" text-anchor="middle" dominant-baseline="middle" x="630" y="15">Loading ...</text><line stroke="rgb(97, 124, 148)" stroke-width="2px" y1="30" y2="30" x2="0"/></g></g><g transform="translate(122.3984375,0)"><text font-size="14" font-family="Arial" y="7" text-anchor="end" dominant-baseline="central" fill="black" x="-10" font-weight="bold">GAMBL FL</text><g/><text font-size="14" font-family="Arial" y="26" text-anchor="end" dominant-baseline="central" class="sja_clbtext2" fill="black" x="-10">1 of 2 mutations</text></g><g transform="translate(1395.3984375,0)"/></g><g data-testid="sja_sample_menu_opener" transform="translate(0, 31)"><g transform="translate(1385.3984375, 0)"/><g transform="translate(125.3984375,0)"><rect fill="white" fill-opacity="0" width="1260" height="184.534375"/><g transform="translate(0,0)" style="cursor: default;"><g class="sja_skg" transform="translate(75.85208892822266, 122.734375)"><g transform="translate(0, -7)" class="sja_aa_discg"><circle fill="#2ca02c" stroke="white" r="6.5"/><text font-size="12" fill="#2ca02c" x="8" y="3.5999999999999996" font-family="Arial" class="sja_aa_disclabel" fill-opacity="1" transform="rotate(-90)">c.169C&gt;T(p.=)</text><circle r="6.5" stroke="#2ca02c" class="sja_aa_disckick" fill="white" fill-opacity="0" stroke-opacity="0" transform="scale(1)"/><path d="M4.286263797015736e-16,-7L4.286263797015736e-16,-7Z" fill="#2ca02c" class="sja_aa_discrim" fill-opacity="1" stroke-opacity="1"/></g><circle class="sja_aa_skkick" fill="white" fill-opacity="0" stroke="none" r="8" cy="-7" transform="scale(0)"/><path class="sja_aa_stem" d="M0,0v14l0,14v23.799999999999997" stroke="#2ca02c" fill="none"/></g><g class="sja_skg" transform="translate(164.08360290527344, 122.734375)"><g transform="translate(0, -7)" class="sja_aa_discg"><circle fill="#db3d3d" stroke="white" r="6.5"/><text font-size="12" fill="#db3d3d" x="8" y="3.5999999999999996" font-family="Arial" class="sja_aa_disclabel" fill-opacity="1" transform="scale(1) rotate(0)">p.Ser125GlnfsTer64</text><circle r="6.5" stroke="#db3d3d" class="sja_aa_disckick" fill="white" fill-opacity="0" stroke-opacity="0" transform="scale(1)"/><path d="M4.286263797015736e-16,-7L4.286263797015736e-16,-7Z" fill="#db3d3d" class="sja_aa_discrim" fill-opacity="1" stroke-opacity="1"/></g><circle class="sja_aa_skkick" fill="white" fill-opacity="0" stroke="none" r="8" cy="-7" transform="scale(0)"/><path class="sja_aa_stem" d="M0,0v14l0,14v23.799999999999997" stroke="#db3d3d" fill="none"/></g><g class="sja_skg" transform="translate(350.4501647949219, 122.734375)"><g transform="translate(0, -7)" class="sja_aa_discg"><circle fill="#3987CC" stroke="white" r="6.5"/><text font-size="12" fill="#3987CC" x="8" y="3.5999999999999996" font-family="Arial" class="sja_aa_disclabel" fill-opacity="1" transform="scale(1) rotate(0)">p.Arg261Gln</text><circle r="6.5" stroke="#3987CC" class="sja_aa_disckick" fill="white" fill-opacity="0" stroke-opacity="0" transform="scale(1)"/><path d="M4.286263797015736e-16,-7L4.286263797015736e-16,-7Z" fill="#3987CC" class="sja_aa_discrim" fill-opacity="1" stroke-opacity="1"/></g><circle class="sja_aa_skkick" fill="white" fill-opacity="0" stroke="none" r="8" cy="-7" transform="scale(0)"/><path class="sja_aa_stem" d="M0,0v14l0,14v23.799999999999997" stroke="#3987CC" fill="none"/></g><g class="sja_skg" transform="translate(1221.06103515625, 122.734375)"><g transform="translate(0, -7)" class="sja_aa_discg"><circle fill="#3987CC" stroke="white" r="6.5"/><text font-size="12" fill="#3987CC" x="8" y="3.5999999999999996" font-family="Arial" class="sja_aa_disclabel" fill-opacity="1" transform="rotate(-90)">p.Ala906Pro</text><circle r="6.5" stroke="#3987CC" class="sja_aa_disckick" fill="white" fill-opacity="0" stroke-opacity="0" transform="scale(1)"/><path d="M4.286263797015736e-16,-7L4.286263797015736e-16,-7Z" fill="#3987CC" class="sja_aa_discrim" fill-opacity="1" stroke-opacity="1"/></g><circle class="sja_aa_skkick" fill="white" fill-opacity="0" stroke="none" r="8" cy="-7" transform="scale(0)"/><path class="sja_aa_stem" d="M0,0v14l0,14v23.799999999999997" stroke="#3987CC" fill="none"/></g></g><g/><g transform="scale(0)"><rect fill="white" fill-opacity="0.5" width="1260" height="0"/><text data-testid="loading_message" fill="rgb(97, 124, 148)" fill-opacity="1" font-weight="bold" font-size="18px" text-anchor="middle" dominant-baseline="middle" x="630" y="15">Loading ...</text><line stroke="rgb(97, 124, 148)" stroke-width="2px" y1="30" y2="30" x2="0"/></g></g><g transform="translate(122.3984375,0)"><text font-size="14" font-family="Arial" y="7" text-anchor="end" dominant-baseline="central" fill="black" x="-10" font-weight="bold">GAMBL BL</text><g/><text font-size="14" font-family="Arial" y="26" text-anchor="end" dominant-baseline="central" class="sja_clbtext2" fill="black" x="-10">4 of 8 mutations</text></g><g transform="translate(1395.3984375,0)"/></g><g data-testid="sja_sample_menu_opener" transform="translate(0, 262.53436279296875)"><g transform="translate(1385.3984375, 0)"/><g transform="translate(125.3984375,0)"><rect fill="white" fill-opacity="0" width="1260" height="110.503125"/><g transform="translate(0,0)" style="cursor: default;"><g class="sja_skg" transform="translate(369.3569030761719, 23.799999237060547)"><g transform="translate(0, 7)" class="sja_aa_discg"><circle fill="#3987CC" stroke="white" r="6.5"/><text font-size="12" fill="#3987CC" x="8" y="3.5999999999999996" font-family="Arial" class="sja_aa_disclabel" fill-opacity="1" transform="scale(1) rotate(0)">p.Thr275Ile</text><circle r="6.5" stroke="#3987CC" class="sja_aa_disckick" fill="white" fill-opacity="0" stroke-opacity="0" transform="scale(1)"/><path d="M4.286263797015736e-16,-7L4.286263797015736e-16,-7Z" fill="#3987CC" class="sja_aa_discrim" fill-opacity="1" stroke-opacity="1"/></g><circle class="sja_aa_skkick" fill="white" fill-opacity="0" stroke="none" r="8" cy="7" transform="scale(0)"/><path class="sja_aa_stem" d="M0,0v0l0,0v-23.799999999999997" stroke="#3987CC" fill="none"/></g></g><g/><g transform="scale(0)"><rect fill="white" fill-opacity="0.5" width="1260" height="0"/><text data-testid="loading_message" fill="rgb(97, 124, 148)" fill-opacity="1" font-weight="bold" font-size="18px" text-anchor="middle" dominant-baseline="middle" x="630" y="15">Loading ...</text><line stroke="rgb(97, 124, 148)" stroke-width="2px" y1="30" y2="30" x2="0"/></g></g><g transform="translate(122.3984375,0)"><text font-size="14" font-family="Arial" y="7" text-anchor="end" dominant-baseline="central" fill="black" x="-10" font-weight="bold">GAMBL MCL</text><g/><text font-size="14" font-family="Arial" y="26" text-anchor="end" dominant-baseline="central" class="sja_clbtext2" fill="black" x="-10">1 mutation</text></g><g transform="translate(1395.3984375,0)"/></g><g data-testid="sja_sample_menu_opener" transform="translate(0, 215.5343780517578)"><g transform="translate(1385.3984375, 0)"/><g transform="translate(125.3984375,0)"><rect fill="white" fill-opacity="0" width="1260" height="47"/><g transform="translate(0,0)" style="cursor: default;"><g><line x1="0" y1="18.5" x2="1259.9999999999998" y2="18.5" stroke="black" shape-rendering="crispEdges"/><rect x="0" width="102.18649517684888" height="37" fill="white"/><rect x="102.18649517684888" width="84.18006430868166" height="37" fill="white"/><rect x="171.5112540192926" width="14.855305466237942" height="37" fill="#8dd3c7"/><rect x="186.36655948553056" width="62.12218649517685" height="37" fill="white"/><rect x="186.36655948553056" width="62.12218649517685" height="37" fill="#8dd3c7"/><rect x="248.4887459807074" width="29.710610932475884" height="37" fill="white"/><rect x="248.4887459807074" width="29.710610932475884" height="37" fill="#8dd3c7"/><rect x="278.1993569131833" width="50.868167202572344" height="37" fill="white"/><rect x="278.1993569131833" width="50.868167202572344" height="37" fill="#8dd3c7"/><rect x="329.06752411575565" width="51.31832797427653" height="37" fill="white"/><rect x="329.06752411575565" width="51.31832797427653" height="37" fill="#8dd3c7"/><rect x="380.3858520900322" width="57.170418006430864" height="37" fill="white"/><rect x="380.3858520900322" width="57.170418006430864" height="37" fill="#8dd3c7"/><rect x="437.55627009646304" width="68.87459807073955" height="37" fill="white"/><rect x="437.55627009646304" width="68.87459807073955" height="37" fill="#8dd3c7"/><rect x="506.43086816720256" width="94.53376205787781" height="37" fill="white"/><rect x="506.43086816720256" width="94.53376205787781" height="37" fill="#8dd3c7"/><rect x="600.9646302250803" width="29.260450160771704" height="37" fill="white"/><rect x="600.9646302250803" width="29.260450160771704" height="37" fill="#8dd3c7"/><rect x="630.225080385852" width="52.21864951768489" height="37" fill="white"/><rect x="630.225080385852" width="52.21864951768489" height="37" fill="#8dd3c7"/><rect x="682.4437299035369" width="38.71382636655949" height="37" fill="white"/><rect x="682.4437299035369" width="36.01286173633441" height="37" fill="#8dd3c7"/><rect x="721.1575562700964" width="44.11575562700965" height="37" fill="white"/><rect x="765.273311897106" width="26.109324758842444" height="37" fill="white"/><rect x="791.3826366559485" width="56.270096463022504" height="37" fill="white"/><rect x="847.652733118971" width="73.82636655948554" height="37" fill="white"/><rect x="911.5755627009646" width="9.903536977491962" height="37" fill="#bebada"/><rect x="921.4790996784566" width="70.67524115755627" height="37" fill="white"/><rect x="921.4790996784566" width="70.67524115755627" height="37" fill="#bebada"/><rect x="992.1543408360128" width="40.064308681672024" height="37" fill="white"/><rect x="992.1543408360128" width="40.064308681672024" height="37" fill="#bebada"/><rect x="1032.2186495176848" width="92.28295819935691" height="37" fill="white"/><rect x="1032.2186495176848" width="92.28295819935691" height="37" fill="#bebada"/><rect x="1124.5016077170417" width="113.44051446945338" height="37" fill="white"/><rect x="1124.5016077170417" width="113.44051446945338" height="37" fill="#bebada"/><rect x="1237.942122186495" width="22.057877813504824" height="37" fill="white"/><rect x="1237.942122186495" width="13.954983922829582" height="37" fill="#bebada"/><line x1="0" x2="1259.9999999999998" stroke="black"/><line x1="0" x2="1259.9999999999998" y1="37" y2="37" stroke="black"/><line x1="0" x2="0" y2="37" stroke="black"/><line x1="1259.9999999999998" x2="1259.9999999999998" y2="37" stroke="black"/><line class="exonboundaryclass" x1="102.18649517684888" x2="102.18649517684888" y1="0" y2="37" stroke="black" stroke-dasharray="4,2" shape-rendering="crispEdges" stroke-opacity="1"/><line class="exonboundaryclass" x1="186.36655948553056" x2="186.36655948553056" y1="0" y2="37" stroke="black" stroke-dasharray="4,2" shape-rendering="crispEdges" stroke-opacity="1"/><line class="exonboundaryclass" x1="248.4887459807074" x2="248.4887459807074" y1="0" y2="37" stroke="black" stroke-dasharray="4,2" shape-rendering="crispEdges" stroke-opacity="1"/><line class="exonboundaryclass" x1="278.1993569131833" x2="278.1993569131833" y1="0" y2="37" stroke="black" stroke-dasharray="4,2" shape-rendering="crispEdges" stroke-opacity="1"/><line class="exonboundaryclass" x1="329.06752411575565" x2="329.06752411575565" y1="0" y2="37" stroke="black" stroke-dasharray="4,2" shape-rendering="crispEdges" stroke-opacity="1"/><line class="exonboundaryclass" x1="380.3858520900322" x2="380.3858520900322" y1="0" y2="37" stroke="black" stroke-dasharray="4,2" shape-rendering="crispEdges" stroke-opacity="1"/><line class="exonboundaryclass" x1="437.55627009646304" x2="437.55627009646304" y1="0" y2="37" stroke="black" stroke-dasharray="4,2" shape-rendering="crispEdges" stroke-opacity="1"/><line class="exonboundaryclass" x1="506.43086816720256" x2="506.43086816720256" y1="0" y2="37" stroke="black" stroke-dasharray="4,2" shape-rendering="crispEdges" stroke-opacity="1"/><line class="exonboundaryclass" x1="600.9646302250803" x2="600.9646302250803" y1="0" y2="37" stroke="black" stroke-dasharray="4,2" shape-rendering="crispEdges" stroke-opacity="1"/><line class="exonboundaryclass" x1="630.225080385852" x2="630.225080385852" y1="0" y2="37" stroke="black" stroke-dasharray="4,2" shape-rendering="crispEdges" stroke-opacity="1"/><line class="exonboundaryclass" x1="682.4437299035369" x2="682.4437299035369" y1="0" y2="37" stroke="black" stroke-dasharray="4,2" shape-rendering="crispEdges" stroke-opacity="1"/><line class="exonboundaryclass" x1="721.1575562700964" x2="721.1575562700964" y1="0" y2="37" stroke="black" stroke-dasharray="4,2" shape-rendering="crispEdges" stroke-opacity="1"/><line class="exonboundaryclass" x1="765.273311897106" x2="765.273311897106" y1="0" y2="37" stroke="black" stroke-dasharray="4,2" shape-rendering="crispEdges" stroke-opacity="1"/><line class="exonboundaryclass" x1="791.3826366559485" x2="791.3826366559485" y1="0" y2="37" stroke="black" stroke-dasharray="4,2" shape-rendering="crispEdges" stroke-opacity="1"/><line class="exonboundaryclass" x1="847.652733118971" x2="847.652733118971" y1="0" y2="37" stroke="black" stroke-dasharray="4,2" shape-rendering="crispEdges" stroke-opacity="1"/><line class="exonboundaryclass" x1="921.4790996784566" x2="921.4790996784566" y1="0" y2="37" stroke="black" stroke-dasharray="4,2" shape-rendering="crispEdges" stroke-opacity="1"/><line class="exonboundaryclass" x1="992.1543408360128" x2="992.1543408360128" y1="0" y2="37" stroke="black" stroke-dasharray="4,2" shape-rendering="crispEdges" stroke-opacity="1"/><line class="exonboundaryclass" x1="1032.2186495176848" x2="1032.2186495176848" y1="0" y2="37" stroke="black" stroke-dasharray="4,2" shape-rendering="crispEdges" stroke-opacity="1"/><line class="exonboundaryclass" x1="1124.5016077170417" x2="1124.5016077170417" y1="0" y2="37" stroke="black" stroke-dasharray="4,2" shape-rendering="crispEdges" stroke-opacity="1"/><line class="exonboundaryclass" x1="1237.942122186495" x2="1237.942122186495" y1="0" y2="37" stroke="black" stroke-dasharray="4,2" shape-rendering="crispEdges" stroke-opacity="1"/><g transform="translate(0,18.5)" fill="none" font-size="10" font-family="sans-serif" text-anchor="middle"><path class="domain" stroke="none" d="M0.6752411575562701,0H1259.9999999999998" fill="none" stroke-width="0" shape-rendering="crispEdges"/><g class="tick" opacity="1" transform="translate(134.11575562700966,0)"><line stroke="black" y2="0" shape-rendering="crispEdges"/><text fill="black" y="3" dy="0.71em" font-family="Arial" font-size="11.666666666666666px" style="cursor: default;">100</text></g><g class="tick" opacity="1" transform="translate(268.96083016661794,0)"><line stroke="black" y2="0" shape-rendering="crispEdges"/><text fill="black" y="3" dy="0.71em" font-family="Arial" font-size="11.666666666666666px" style="cursor: default;">200</text></g><g class="tick" opacity="1" transform="translate(404.1867942869962,0)"><line stroke="black" y2="0" shape-rendering="crispEdges"/><text fill="black" y="3" dy="0.71em" font-family="Arial" font-size="11.666666666666666px" style="cursor: default;">300</text></g><g class="tick" opacity="1" transform="translate(539.2861736334405,0)"><line stroke="black" y2="0" shape-rendering="crispEdges"/><text fill="black" y="3" dy="0.71em" font-family="Arial" font-size="11.666666666666666px" style="cursor: default;">400</text></g><g class="tick" opacity="1" transform="translate(674.3754637645312,0)"><line stroke="black" y2="0" shape-rendering="crispEdges"/><text fill="black" y="3" dy="0.71em" font-family="Arial" font-size="11.666666666666666px" style="cursor: default;">500</text></g><g class="tick" opacity="1" transform="translate(809.6855148615795,0)"><line stroke="black" y2="0" shape-rendering="crispEdges"/><text fill="black" y="3" dy="0.71em" font-family="Arial" font-size="11.666666666666666px" style="cursor: default;">600</text></g><g class="tick" opacity="1" transform="translate(944.7359633935197,0)"><line stroke="black" y2="0" shape-rendering="crispEdges"/><text fill="black" y="3" dy="0.71em" font-family="Arial" font-size="11.666666666666666px" style="cursor: default;">700</text></g><g class="tick" opacity="1" transform="translate(1079.826461131076,0)"><line stroke="black" y2="0" shape-rendering="crispEdges"/><text fill="black" y="3" dy="0.71em" font-family="Arial" font-size="11.666666666666666px" style="cursor: default;">800</text></g><g class="tick" opacity="1" transform="translate(1214.9383708467308,0)"><line stroke="black" y2="0" shape-rendering="crispEdges"/><text fill="black" y="3" dy="0.71em" font-family="Arial" font-size="11.666666666666666px" style="cursor: default;">900</text></g></g><rect x="0" width="102.18649517684888" height="37" fill="#858585" fill-opacity="0"/><rect x="102.18649517684888" width="84.18006430868166" height="37" fill="#858585" fill-opacity="0"/><rect x="186.36655948553056" width="62.12218649517685" height="37" fill="#858585" fill-opacity="0"/><rect x="248.4887459807074" width="29.710610932475884" height="37" fill="#858585" fill-opacity="0"/><rect x="278.1993569131833" width="50.868167202572344" height="37" fill="#858585" fill-opacity="0"/><rect x="329.06752411575565" width="51.31832797427653" height="37" fill="#858585" fill-opacity="0"/><rect x="380.3858520900322" width="57.170418006430864" height="37" fill="#858585" fill-opacity="0"/><rect x="437.55627009646304" width="68.87459807073955" height="37" fill="#858585" fill-opacity="0"/><rect x="506.43086816720256" width="94.53376205787781" height="37" fill="#858585" fill-opacity="0"/><rect x="600.9646302250803" width="29.260450160771704" height="37" fill="#858585" fill-opacity="0"/><rect x="630.225080385852" width="52.21864951768489" height="37" fill="#858585" fill-opacity="0"/><rect x="682.4437299035369" width="38.71382636655949" height="37" fill="#858585" fill-opacity="0"/><rect x="721.1575562700964" width="44.11575562700965" height="37" fill="#858585" fill-opacity="0"/><rect x="765.273311897106" width="26.109324758842444" height="37" fill="#858585" fill-opacity="0"/><rect x="791.3826366559485" width="56.270096463022504" height="37" fill="#858585" fill-opacity="0"/><rect x="847.652733118971" width="73.82636655948554" height="37" fill="#858585" fill-opacity="0"/><rect x="921.4790996784566" width="70.67524115755627" height="37" fill="#858585" fill-opacity="0"/><rect x="992.1543408360128" width="40.064308681672024" height="37" fill="#858585" fill-opacity="0"/><rect x="1032.2186495176848" width="92.28295819935691" height="37" fill="#858585" fill-opacity="0"/><rect x="1124.5016077170417" width="113.44051446945338" height="37" fill="#858585" fill-opacity="0"/><rect x="1237.942122186495" width="22.057877813504824" height="37" fill="#858585" fill-opacity="0"/></g></g><g/><g transform="scale(0)"><rect fill="white" fill-opacity="0"/><text data-testid="loading_message" fill="rgb(97, 124, 148)" fill-opacity="0" font-weight="bold" font-size="18px" text-anchor="middle" dominant-baseline="middle">Loading ...</text><line stroke="rgb(97, 124, 148)" stroke-width="2px"/></g></g><g transform="translate(122.3984375,0)"><text font-size="14" font-family="Arial" y="7" text-anchor="end" dominant-baseline="central" fill="black" x="-10" font-weight="bold">PPP6R2</text><text font-size="14" font-family="Arial" y="20" text-anchor="end" dominant-baseline="central" fill="black" x="-10">NM_014678</text></g><g transform="translate(1395.3984375,0)"><text fill="#aaa" font-family="Arial" font-size="14" y="14" class="sja_clbtext2"/></g></g></g><g transform="scale(0)"><rect fill="white"/><text id="loadinggCloak" fill="rgb(97, 124, 148)" fill-opacity="0" font-weight="bold" font-size="18px" text-anchor="middle" dominant-baseline="middle">Loading ...</text></g><g/><g transform="translate(124.3984375,654.840625)"><g transform="translate(0,0)"><rect width="15" height="20" stroke="rgb(99, 148, 139)" fill="#8dd3c7" shape-rendering="crispEdges"/><text x="20" y="10" dominant-baseline="central" font-size="16" font-family="Arial" fill="black">SAPS</text><text x="72.6875" y="10" dominant-baseline="central" font-size="12" font-family="Arial" fill="#858585">SIT4 phosphatase-associated protein</text></g><g transform="translate(0,23)"><rect width="15" height="20" stroke="rgb(133, 130, 153)" fill="#bebada" shape-rendering="crispEdges"/><text x="20" y="10" dominant-baseline="central" font-size="16" font-family="Arial" fill="black">Atrophin-1</text><text x="103.84375" y="10" dominant-baseline="central" font-size="12" font-family="Arial" fill="#858585">Atrophin-1 family</text></g></g><g transform="translate(1187.3984375,654.840625)"><g transform="translate(0,0)"><circle cx="10" cy="10" r="10" fill="#819981"/><text x="30" y="10" dominant-baseline="central" font-size="16" font-family="Arial" fill="#819981">UTR_5, n=3</text></g><g transform="translate(0,23)"><circle cx="10" cy="10" r="10" fill="#2ca02c"/><text x="30" y="10" dominant-baseline="central" font-size="16" font-family="Arial" fill="#2ca02c">SILENT, n=3</text></g><g transform="translate(0,46)"><circle cx="10" cy="10" r="10" fill="#db3d3d"/><text x="30" y="10" dominant-baseline="central" font-size="16" font-family="Arial" fill="#db3d3d">FRAMESHIFT, n=1</text></g><g transform="translate(0,69)"><circle cx="10" cy="10" r="10" fill="#3987CC"/><text x="30" y="10" dominant-baseline="central" font-size="16" font-family="Arial" fill="#3987CC">MISSENSE, n=5</text></g><g transform="translate(0,92)"><circle cx="10" cy="10" r="10" fill="#92a2d4"/><text x="30" y="10" dominant-baseline="central" font-size="16" font-family="Arial" fill="#92a2d4">SNV, n=2</text></g><g transform="translate(0,115)"><circle cx="10" cy="10" r="10" fill="#998199"/><text x="30" y="10" dominant-baseline="central" font-size="16" font-family="Arial" fill="#998199">UTR_3, n=1</text></g></g></svg>