<svg xmlns="http://www.w3.org/2000/svg" data-testid="sjpp_block_svg" width="1495.3984375" height="897.584765625"><g transform="translate(0,0)"><g transform="translate(125.3984375, 0)"/><rect fill="#FFFF99" x="727" width="0" height="673.584765625"/><g transform="translate(125.3984375, 23)"><g transform="translate(0,0)"><text text-anchor="end" x="-13" y="-10" dominant-baseline="central" font-size="13" font-family="Arial">Protein length</text><g><g transform="translate(0,0)" fill="none" font-size="10" font-family="sans-serif" text-anchor="middle"><path class="domain" stroke="black" d="M0,-6V0H1260V-6" fill="none" stroke-width="1" shape-rendering="crispEdges"/><g class="tick" opacity="1" transform="translate(151.04819277108433,0)"><line stroke="black" y2="-6" shape-rendering="crispEdges"/><text fill="black" y="-9" dy="0em" font-family="Arial" font-size="12px" style="cursor: default;">200</text></g><g class="tick" opacity="1" transform="translate(302.855421686747,0)"><line stroke="black" y2="-6" shape-rendering="crispEdges"/><text fill="black" y="-9" dy="0em" font-family="Arial" font-size="12px" style="cursor: default;">400</text></g><g class="tick" opacity="1" transform="translate(454.6626506024096,0)"><line stroke="black" y2="-6" shape-rendering="crispEdges"/><text fill="black" y="-9" dy="0em" font-family="Arial" font-size="12px" style="cursor: default;">600</text></g><g class="tick" opacity="1" transform="translate(606.4698795180723,0)"><line stroke="black" y2="-6" shape-rendering="crispEdges"/><text fill="black" y="-9" dy="0em" font-family="Arial" font-size="12px" style="cursor: default;">800</text></g><g class="tick" opacity="1" transform="translate(758.277108433735,0)"><line stroke="black" y2="-6" shape-rendering="crispEdges"/><text fill="black" y="-9" dy="0em" font-family="Arial" font-size="12px" style="cursor: default;">1000</text></g><g class="tick" opacity="1" transform="translate(910.0843373493976,0)"><line stroke="black" y2="-6" shape-rendering="crispEdges"/><text fill="black" y="-9" dy="0em" font-family="Arial" font-size="12px" style="cursor: default;">1200</text></g><g class="tick" opacity="1" transform="translate(1061.8915662650602,0)"><line stroke="black" y2="-6" shape-rendering="crispEdges"/><text fill="black" y="-9" dy="0em" font-family="Arial" font-size="12px" style="cursor: default;">1400</text></g><g class="tick" opacity="1" transform="translate(1213.698795180723,0)"><line stroke="black" y2="-6" shape-rendering="crispEdges"/><text fill="black" y="-9" dy="0em" font-family="Arial" font-size="12px" style="cursor: default;">1600</text></g></g></g><rect fill="white" fill-opacity="0" x="0" y="-23" width="1260" height="26"/></g><g transform="translate(1260, 0)"/></g><g data-testid="sja_sample_menu_opener" transform="translate(0, 31)"><g transform="translate(1385.3984375, 0)"/><g transform="translate(125.3984375, 0)"><rect fill="white" fill-opacity="0" width="1260" height="183.1984375"/><g transform="translate(0,0)" style="cursor: default;"><g class="sja_skg" transform="translate(445.4277038574219, 121.3984375)"><g transform="translate(0, -7)" class="sja_aa_discg"><circle fill="#2ca02c" stroke="white" r="6.5"/><text font-size="12" fill="#2ca02c" x="8" y="3.5999999999999996" font-family="Arial" class="sja_aa_disclabel" fill-opacity="1" transform="scale(1) rotate(0)">c.1761G&gt;A(p.=)</text><circle r="6.5" stroke="#2ca02c" class="sja_aa_disckick" fill="white" fill-opacity="0" stroke-opacity="0" transform="scale(1)"/><path d="M4.286263797015736e-16,-7L4.286263797015736e-16,-7Z" fill="#2ca02c" class="sja_aa_discrim" fill-opacity="1" stroke-opacity="1"/></g><circle class="sja_aa_skkick" fill="white" fill-opacity="0" stroke="none" r="8" cy="-7" transform="scale(0)"/><path class="sja_aa_stem" d="M0,0v14l0,14v23.799999999999997" stroke="#2ca02c" fill="none"/></g><g class="sja_skg" transform="translate(1106.0421142578125, 121.3984375)"><g transform="translate(0, -7)" class="sja_aa_discg"><circle fill="#db3d3d" stroke="white" r="6.5"/><text font-size="12" fill="#db3d3d" x="8" y="3.5999999999999996" font-family="Arial" class="sja_aa_disclabel" fill-opacity="1" transform="rotate(-90)">p.Ala1459ProfsTer3</text><circle r="6.5" stroke="#db3d3d" class="sja_aa_disckick" fill="white" fill-opacity="0" stroke-opacity="0" transform="scale(1)"/><path d="M4.286263797015736e-16,-7L4.286263797015736e-16,-7Z" fill="#db3d3d" class="sja_aa_discrim" fill-opacity="1" stroke-opacity="1"/></g><circle class="sja_aa_skkick" fill="white" fill-opacity="0" stroke="none" r="8" cy="-7" transform="scale(0)"/><path class="sja_aa_stem" d="M0,0v14l0,14v23.799999999999997" stroke="#db3d3d" fill="none"/></g><g class="sja_skg" transform="translate(1216.8614501953125, 121.3984375)"><g transform="translate(0, -7)" class="sja_aa_discg"><circle fill="#3987CC" stroke="white" r="6.5"/><text font-size="12" fill="#3987CC" x="8" y="3.5999999999999996" font-family="Arial" class="sja_aa_disclabel" fill-opacity="1" transform="rotate(-90)">p.Arg1604Trp</text><circle r="6.5" stroke="#3987CC" class="sja_aa_disckick" fill="white" fill-opacity="0" stroke-opacity="0" transform="scale(1)"/><path d="M4.286263797015736e-16,-7L4.286263797015736e-16,-7Z" fill="#3987CC" class="sja_aa_discrim" fill-opacity="1" stroke-opacity="1"/></g><circle class="sja_aa_skkick" fill="white" fill-opacity="0" stroke="none" r="8" cy="-7" transform="scale(0)"/><path class="sja_aa_stem" d="M0,0v14l0,14v23.799999999999997" stroke="#3987CC" fill="none"/></g></g><g/><g transform="scale(0)"><rect fill="white" fill-opacity="0.5" width="1260" height="0"/><text data-testid="loading_message" fill="rgb(97, 124, 148)" fill-opacity="1" font-weight="bold" font-size="18px" text-anchor="middle" dominant-baseline="middle" x="630" y="15">Loading ...</text><line stroke="rgb(97, 124, 148)" stroke-width="2px" y1="30" y2="30" x2="0"/></g></g><g transform="translate(122.3984375, 0)"><text font-size="14" font-family="Arial" y="7" text-anchor="end" dominant-baseline="central" fill="black" x="-10" font-weight="bold">GAMBL DLBCL</text><g/><text font-size="14" font-family="Arial" y="26" text-anchor="end" dominant-baseline="central" class="sja_clbtext2" fill="black" x="-10">3 of 5 mutations</text></g><g transform="translate(1395.3984375, 0)"/></g><g data-testid="sja_sample_menu_opener" transform="translate(0, 386.3968811035156)"><g transform="translate(1385.3984375, 0)"/><g transform="translate(125.3984375,0)"><rect fill="white" fill-opacity="0" width="1260" height="123.341015625"/><g transform="translate(0,0)" style="cursor: default;"><g class="sja_skg" transform="translate(244.78915405273438, 23.799999237060547)"><g transform="translate(0, 7)" class="sja_aa_discg"><circle fill="#3987CC" stroke="white" r="6.5"/><text font-size="12" fill="#3987CC" x="8" y="3.5999999999999996" font-family="Arial" class="sja_aa_disclabel" fill-opacity="1" transform="scale(1) rotate(0)">p.Ser323Phe</text><circle r="6.5" stroke="#3987CC" class="sja_aa_disckick" fill="white" fill-opacity="0" stroke-opacity="0" transform="scale(1)"/><path d="M4.286263797015736e-16,-7L4.286263797015736e-16,-7Z" fill="#3987CC" class="sja_aa_discrim" fill-opacity="1" stroke-opacity="1"/></g><circle class="sja_aa_skkick" fill="white" fill-opacity="0" stroke="none" r="8" cy="7" transform="scale(0)"/><path class="sja_aa_stem" d="M0,0v0l0,0v-23.799999999999997" stroke="#3987CC" fill="none"/></g><g class="sja_skg" transform="translate(761.4397583007812, 23.799999237060547)"><g transform="translate(0, 7)" class="sja_aa_discg"><circle fill="#3987CC" stroke="white" r="6.5"/><text font-size="12" fill="#3987CC" x="8" y="3.5999999999999996" font-family="Arial" class="sja_aa_disclabel" fill-opacity="1" transform="scale(1) rotate(0)">p.Gly1004Ser</text><circle r="6.5" stroke="#3987CC" class="sja_aa_disckick" fill="white" fill-opacity="0" stroke-opacity="0" transform="scale(1)"/><path d="M4.286263797015736e-16,-7L4.286263797015736e-16,-7Z" fill="#3987CC" class="sja_aa_discrim" fill-opacity="1" stroke-opacity="1"/></g><circle class="sja_aa_skkick" fill="white" fill-opacity="0" stroke="none" r="8" cy="7" transform="scale(0)"/><path class="sja_aa_stem" d="M0,0v0l0,0v-23.799999999999997" stroke="#3987CC" fill="none"/></g><g class="sja_skg" transform="translate(955.1204833984375, 23.799999237060547)"><g transform="translate(0, 7)" class="sja_aa_discg"><circle fill="#6633FF" stroke="white" r="6.5"/><text font-size="12" fill="#6633FF" x="8" y="3.5999999999999996" font-family="Arial" class="sja_aa_disclabel" fill-opacity="1" transform="scale(1) rotate(0)">c.3775+2T&gt;C</text><circle r="6.5" stroke="#6633FF" class="sja_aa_disckick" fill="white" fill-opacity="0" stroke-opacity="0" transform="scale(1)"/><path d="M4.286263797015736e-16,-7L4.286263797015736e-16,-7Z" fill="#6633FF" class="sja_aa_discrim" fill-opacity="1" stroke-opacity="1"/></g><circle class="sja_aa_skkick" fill="white" fill-opacity="0" stroke="none" r="8" cy="7" transform="scale(0)"/><path class="sja_aa_stem" d="M0,0v0l0,0v-23.799999999999997" stroke="#6633FF" fill="none"/></g></g><g/><g transform="scale(0)"><rect fill="white" fill-opacity="0.5" width="1260" height="0"/><text data-testid="loading_message" fill="rgb(97, 124, 148)" fill-opacity="1" font-weight="bold" font-size="18px" text-anchor="middle" dominant-baseline="middle" x="630" y="15">Loading ...</text><line stroke="rgb(97, 124, 148)" stroke-width="2px" y1="30" y2="30" x2="0"/></g></g><g transform="translate(122.3984375,0)"><text font-size="14" font-family="Arial" y="7" text-anchor="end" dominant-baseline="central" fill="black" x="-10" font-weight="bold">GAMBL FL</text><g/><text font-size="14" font-family="Arial" y="26" text-anchor="end" dominant-baseline="central" class="sja_clbtext2" fill="black" x="-10">3 of 4 mutations</text></g><g transform="translate(1395.3984375,0)"/></g><g data-testid="sja_sample_menu_opener" transform="translate(0, 509.7378845214844)"><g transform="translate(1385.3984375, 0)"/><g transform="translate(125.3984375,0)"><rect fill="white" fill-opacity="0" width="1260" height="168.846875"/><g transform="translate(0,0)" style="cursor: default;"><g class="sja_skg" transform="translate(295, 58.79999923706055)"><g transform="translate(0, 7)" class="sja_aa_discg"><circle fill="#2ca02c" stroke="white" r="6.5"/><text font-size="12" fill="#2ca02c" x="8" y="3.5999999999999996" font-family="Arial" class="sja_aa_disclabel" fill-opacity="1" transform="scale(1) rotate(0)">c.1167C&gt;T(p.=)</text><circle r="6.5" stroke="#2ca02c" class="sja_aa_disckick" fill="white" fill-opacity="0" stroke-opacity="0" transform="scale(1)"/><path d="M4.286263797015736e-16,-7L4.286263797015736e-16,-7Z" fill="#2ca02c" class="sja_aa_discrim" fill-opacity="1" stroke-opacity="1"/></g><circle class="sja_aa_skkick" fill="white" fill-opacity="0" stroke="none" r="8" cy="7" transform="scale(0)"/><path class="sja_aa_stem" d="M0,0v-14l0.13855421686747604,-21v-23.799999999999997" stroke="#2ca02c" fill="none"/></g><g class="sja_skg" transform="translate(412, 58.79999923706055)"><g transform="translate(0, 7)" class="sja_aa_discg"><circle fill="#2ca02c" stroke="white" r="6.5"/><text font-size="12" fill="#2ca02c" x="8" y="3.5999999999999996" font-family="Arial" class="sja_aa_disclabel" fill-opacity="1" transform="rotate(90)">c.1632C&gt;T(p.=)</text><circle r="6.5" stroke="#2ca02c" class="sja_aa_disckick" fill="white" fill-opacity="0" stroke-opacity="0" transform="scale(1)"/><path d="M4.286263797015736e-16,-7L4.286263797015736e-16,-7Z" fill="#2ca02c" class="sja_aa_discrim" fill-opacity="1" stroke-opacity="1"/></g><circle class="sja_aa_skkick" fill="white" fill-opacity="0" stroke="none" r="8" cy="7" transform="scale(0)"/><path class="sja_aa_stem" d="M0,0v-14l0.7891566265059851,-21v-23.799999999999997" stroke="#2ca02c" fill="none"/></g><g class="sja_skg" transform="translate(439, 58.79999923706055)"><g transform="translate(0, 7)" class="sja_aa_discg"><circle fill="#6633FF" stroke="white" r="6.5"/><text font-size="12" fill="#6633FF" x="8" y="3.5999999999999996" font-family="Arial" class="sja_aa_disclabel" fill-opacity="1" transform="scale(1) rotate(0)">c.1738+2T&gt;G</text><circle r="6.5" stroke="#6633FF" class="sja_aa_disckick" fill="white" fill-opacity="0" stroke-opacity="0" transform="scale(1)"/><path d="M4.286263797015736e-16,-7L4.286263797015736e-16,-7Z" fill="#6633FF" class="sja_aa_discrim" fill-opacity="1" stroke-opacity="1"/></g><circle class="sja_aa_skkick" fill="white" fill-opacity="0" stroke="none" r="8" cy="7" transform="scale(0)"/><path class="sja_aa_stem" d="M0,0v-14l0.7349397590361377,-21v-23.799999999999997" stroke="#6633FF" fill="none"/></g><g class="sja_skg" transform="translate(795, 58.79999923706055)"><g transform="translate(0, 7)" class="sja_aa_discg"><circle fill="#3987CC" stroke="white" r="6.5"/><text font-size="12" fill="#3987CC" x="8" y="3.5999999999999996" font-family="Arial" class="sja_aa_disclabel" fill-opacity="1" transform="rotate(90)">p.Ser1049Gly</text><circle r="6.5" stroke="#3987CC" class="sja_aa_disckick" fill="white" fill-opacity="0" stroke-opacity="0" transform="scale(1)"/><path d="M4.286263797015736e-16,-7L4.286263797015736e-16,-7Z" fill="#3987CC" class="sja_aa_discrim" fill-opacity="1" stroke-opacity="1"/></g><circle class="sja_aa_skkick" fill="white" fill-opacity="0" stroke="none" r="8" cy="7" transform="scale(0)"/><path class="sja_aa_stem" d="M0,0v-14l0.5963855421686048,-21v-23.799999999999997" stroke="#3987CC" fill="none"/></g><g class="sja_skg" transform="translate(809, 58.79999923706055)"><g transform="translate(0, 7)" class="sja_aa_discg"><circle fill="#3987CC" stroke="white" r="6.5"/><text font-size="12" fill="#3987CC" x="8" y="3.5999999999999996" font-family="Arial" class="sja_aa_disclabel" fill-opacity="1" transform="scale(1) rotate(0)">p.Leu1067Ile</text><circle r="6.5" stroke="#3987CC" class="sja_aa_disckick" fill="white" fill-opacity="0" stroke-opacity="0" transform="scale(1)"/><path d="M4.286263797015736e-16,-7L4.286263797015736e-16,-7Z" fill="#3987CC" class="sja_aa_discrim" fill-opacity="1" stroke-opacity="1"/></g><circle class="sja_aa_skkick" fill="white" fill-opacity="0" stroke="none" r="8" cy="7" transform="scale(0)"/><path class="sja_aa_stem" d="M0,0v-14l0.2590361445782037,-21v-23.799999999999997" stroke="#3987CC" fill="none"/></g></g><g/><g transform="scale(0)"><rect fill="white" fill-opacity="0.5" width="1260" height="0"/><text data-testid="loading_message" fill="rgb(97, 124, 148)" fill-opacity="1" font-weight="bold" font-size="18px" text-anchor="middle" dominant-baseline="middle" x="630" y="15">Loading ...</text><line stroke="rgb(97, 124, 148)" stroke-width="2px" y1="30" y2="30" x2="0"/></g></g><g transform="translate(122.3984375,0)"><text font-size="14" font-family="Arial" y="7" text-anchor="end" dominant-baseline="central" fill="black" x="-10" font-weight="bold">GAMBL BL</text><g/><text font-size="14" font-family="Arial" y="26" text-anchor="end" dominant-baseline="central" class="sja_clbtext2" fill="black" x="-10">5 of 8 mutations</text></g><g transform="translate(1395.3984375,0)"/></g><g data-testid="sja_sample_menu_opener" transform="translate(0, 261.19842529296875)"><g transform="translate(1385.3984375, 0)"/><g transform="translate(125.3984375,0)"><rect fill="white" fill-opacity="0" width="1260" height="125.1984375"/><g transform="translate(0,0)" style="cursor: default;"><g class="sja_skg" transform="translate(575.4758911132812, 23.799999237060547)"><g transform="translate(0, 7)" class="sja_aa_discg"><circle fill="#3987CC" stroke="white" r="6.5"/><text font-size="12" fill="#3987CC" x="8" y="3.5999999999999996" font-family="Arial" class="sja_aa_disclabel" fill-opacity="1" transform="scale(1) rotate(0)">p.Val759Met</text><circle r="6.5" stroke="#3987CC" class="sja_aa_disckick" fill="white" fill-opacity="0" stroke-opacity="0" transform="scale(1)"/><path d="M4.286263797015736e-16,-7L4.286263797015736e-16,-7Z" fill="#3987CC" class="sja_aa_discrim" fill-opacity="1" stroke-opacity="1"/></g><circle class="sja_aa_skkick" fill="white" fill-opacity="0" stroke="none" r="8" cy="7" transform="scale(0)"/><path class="sja_aa_stem" d="M0,0v0l0,0v-23.799999999999997" stroke="#3987CC" fill="none"/></g><g class="sja_skg" transform="translate(770.8012084960938, 23.799999237060547)"><g transform="translate(0, 7)" class="sja_aa_discg"><circle fill="#3987CC" stroke="white" r="6.5"/><text font-size="12" fill="#3987CC" x="8" y="3.5999999999999996" font-family="Arial" class="sja_aa_disclabel" fill-opacity="1" transform="scale(1) rotate(0)">p.Ser1016Leu</text><circle r="6.5" stroke="#3987CC" class="sja_aa_disckick" fill="white" fill-opacity="0" stroke-opacity="0" transform="scale(1)"/><path d="M4.286263797015736e-16,-7L4.286263797015736e-16,-7Z" fill="#3987CC" class="sja_aa_discrim" fill-opacity="1" stroke-opacity="1"/></g><circle class="sja_aa_skkick" fill="white" fill-opacity="0" stroke="none" r="8" cy="7" transform="scale(0)"/><path class="sja_aa_stem" d="M0,0v0l0,0v-23.799999999999997" stroke="#3987CC" fill="none"/></g></g><g/><g transform="scale(0)"><rect fill="white" fill-opacity="0.5" width="1260" height="0"/><text data-testid="loading_message" fill="rgb(97, 124, 148)" fill-opacity="1" font-weight="bold" font-size="18px" text-anchor="middle" dominant-baseline="middle" x="630" y="15">Loading ...</text><line stroke="rgb(97, 124, 148)" stroke-width="2px" y1="30" y2="30" x2="0"/></g></g><g transform="translate(122.3984375,0)"><text font-size="14" font-family="Arial" y="7" text-anchor="end" dominant-baseline="central" fill="black" x="-10" font-weight="bold">GAMBL MCL</text><g/><text font-size="14" font-family="Arial" y="26" text-anchor="end" dominant-baseline="central" class="sja_clbtext2" fill="black" x="-10">2 mutations</text></g><g transform="translate(1395.3984375,0)"/></g><g data-testid="sja_sample_menu_opener" transform="translate(0, 214.1984405517578)"><g transform="translate(1385.3984375, 0)"/><g transform="translate(125.3984375,0)"><rect fill="white" fill-opacity="0" width="1260" height="47"/><g transform="translate(0,0)" style="cursor: default;"><g><line x1="0" y1="18.5" x2="1259.9999999999998" y2="18.5" stroke="black" shape-rendering="crispEdges"/><rect x="0" width="55.40963855421686" height="37" fill="white"/><rect x="37.192771084337345" width="18.216867469879517" height="37" fill="#fdb462"/><rect x="44.783132530120476" width="1" height="37" fill="#8dd3c7"/><rect x="41.74698795180723" width="1" height="37" fill="#8dd3c7"/><rect x="55.40963855421686" width="18.216867469879517" height="37" fill="white"/><rect x="55.40963855421686" width="18.216867469879517" height="37" fill="#fdb462"/><rect x="73.62650602409639" width="31.12048192771084" height="37" fill="white"/><rect x="73.62650602409639" width="31.12048192771084" height="37" fill="#fdb462"/><rect x="104.74698795180723" width="26.566265060240962" height="37" fill="white"/><rect x="104.74698795180723" width="26.566265060240962" height="37" fill="#fdb462"/><rect x="120.6867469879518" width="1" height="37" fill="#8dd3c7"/><rect x="131.3132530120482" width="25.807228915662648" height="37" fill="white"/><rect x="131.3132530120482" width="25.807228915662648" height="37" fill="#fdb462"/><rect x="148.0120481927711" width="1.5180722891566263" height="37" fill="#8dd3c7"/><rect x="142.6987951807229" width="1.5180722891566263" height="37" fill="#8dd3c7"/><rect x="154.0843373493976" width="1.5180722891566263" height="37" fill="#8dd3c7"/><rect x="145.73493975903614" width="1.5180722891566263" height="37" fill="#8dd3c7"/><rect x="151.04819277108433" width="1.5180722891566263" height="37" fill="#8dd3c7"/><rect x="157.12048192771084" width="40.98795180722891" height="37" fill="white"/><rect x="157.12048192771084" width="23.53012048192771" height="37" fill="#fdb462"/><rect x="184.44578313253012" width="13.662650602409638" height="37" fill="#E8E89E"/><rect x="176.85542168674698" width="1" height="37" fill="#8dd3c7"/><rect x="179.89156626506025" width="1" height="37" fill="#8dd3c7"/><rect x="157.12048192771084" width="1" height="37" fill="#8dd3c7"/><rect x="198.10843373493975" width="33.903614457831324" height="37" fill="white"/><rect x="198.10843373493975" width="33.903614457831324" height="37" fill="#E8E89E"/><rect x="232.0120481927711" width="30.10843373493976" height="37" fill="white"/><rect x="232.0120481927711" width="30.10843373493976" height="37" fill="#E8E89E"/><rect x="262.12048192771084" width="37.95180722891566" height="37" fill="white"/><rect x="262.12048192771084" width="37.95180722891566" height="37" fill="#E8E89E"/><rect x="300.0722891566265" width="37.44578313253012" height="37" fill="white"/><rect x="300.0722891566265" width="1" height="37" fill="#E8E89E"/><rect x="313.48192771084337" width="24.03614457831325" height="37" fill="#80b1d3"/><rect x="337.5180722891566" width="25.55421686746988" height="37" fill="white"/><rect x="337.5180722891566" width="25.55421686746988" height="37" fill="#80b1d3"/><rect x="363.0722891566265" width="26.31325301204819" height="37" fill="white"/><rect x="383.31325301204816" width="6.072289156626505" height="37" fill="#bebada"/><rect x="363.0722891566265" width="11.89156626506024" height="37" fill="#80b1d3"/><rect x="389.38554216867465" width="12.650602409638553" height="37" fill="white"/><rect x="389.38554216867465" width="12.650602409638553" height="37" fill="#bebada"/><rect x="402.0361445783132" width="19.2289156626506" height="37" fill="white"/><rect x="402.0361445783132" width="19.2289156626506" height="37" fill="#bebada"/><rect x="421.2650602409638" width="18.469879518072286" height="37" fill="white"/><rect x="421.2650602409638" width="18.469879518072286" height="37" fill="#bebada"/><rect x="439.7349397590361" width="36.18072289156626" height="37" fill="white"/><rect x="439.7349397590361" width="14.16867469879518" height="37" fill="#bebada"/><rect x="475.15662650602405" width="1" height="37" fill="#a6d854"/><rect x="475.91566265060237" width="23.53012048192771" height="37" fill="white"/><rect x="475.91566265060237" width="23.53012048192771" height="37" fill="#a6d854"/><rect x="480.4698795180723" width="3.0361445783132526" height="37" fill="#fb8072"/><rect x="484.2650602409638" width="1" height="37" fill="#fb8072"/><rect x="499.4457831325301" width="37.69879518072289" height="37" fill="white"/><rect x="499.4457831325301" width="34.1566265060241" height="37" fill="#a6d854"/><rect x="521.4578313253012" width="1.5180722891566263" height="37" fill="#fb8072"/><rect x="518.4216867469879" width="1.5180722891566263" height="37" fill="#fb8072"/><rect x="537.144578313253" width="21.75903614457831" height="37" fill="white"/><rect x="546.5060240963855" width="12.397590361445783" height="37" fill="#ffd92f"/><rect x="558.9036144578313" width="34.662650602409634" height="37" fill="white"/><rect x="558.9036144578313" width="27.831325301204817" height="37" fill="#ffd92f"/><rect x="593.5662650602409" width="30.6144578313253" height="37" fill="white"/><rect x="624.1807228915662" width="47.56626506024096" height="37" fill="white"/><rect x="671.7469879518072" width="40.98795180722891" height="37" fill="white"/><rect x="712.7349397590361" width="53.3855421686747" height="37" fill="white"/><rect x="766.1204819277108" width="70.08433734939759" height="37" fill="white"/><rect x="836.2048192771084" width="52.373493975903614" height="37" fill="white"/><rect x="888.5783132530121" width="22.518072289156624" height="37" fill="white"/><rect x="911.0963855421687" width="21" height="37" fill="white"/><rect x="932.0963855421687" width="23.024096385542165" height="37" fill="white"/><rect x="955.1204819277109" width="32.63855421686747" height="37" fill="white"/><rect x="987.7590361445783" width="10.626506024096384" height="37" fill="white"/><rect x="998.3855421686746" width="55.91566265060241" height="37" fill="white"/><rect x="1054.301204819277" width="25.301204819277107" height="37" fill="white"/><rect x="1079.602409638554" width="36.433734939759034" height="37" fill="white"/><rect x="1116.036144578313" width="29.096385542168672" height="37" fill="white"/><rect x="1145.1325301204818" width="16.951807228915662" height="37" fill="white"/><rect x="1162.0843373493974" width="43.77108433734939" height="37" fill="white"/><rect x="1205.8554216867467" width="26.06024096385542" height="37" fill="white"/><rect x="1231.9156626506021" width="17.20481927710843" height="37" fill="white"/><rect x="1249.1204819277107" width="10.879518072289155" height="37" fill="white"/><line x1="0" x2="1259.9999999999998" stroke="black"/><line x1="0" x2="1259.9999999999998" y1="37" y2="37" stroke="black"/><line x1="1259.9999999999998" x2="1259.9999999999998" y2="37" stroke="black"/><line x1="0" x2="0" y2="37" stroke="black"/><line class="exonboundaryclass" x1="55.40963855421686" x2="55.40963855421686" y1="0" y2="37" stroke="black" stroke-dasharray="4,2" shape-rendering="crispEdges" stroke-opacity="1"/><line class="exonboundaryclass" x1="73.62650602409639" x2="73.62650602409639" y1="0" y2="37" stroke="black" stroke-dasharray="4,2" shape-rendering="crispEdges" stroke-opacity="1"/><line class="exonboundaryclass" x1="104.74698795180723" x2="104.74698795180723" y1="0" y2="37" stroke="black" stroke-dasharray="4,2" shape-rendering="crispEdges" stroke-opacity="1"/><line class="exonboundaryclass" x1="131.3132530120482" x2="131.3132530120482" y1="0" y2="37" stroke="black" stroke-dasharray="4,2" shape-rendering="crispEdges" stroke-opacity="1"/><line class="exonboundaryclass" x1="157.12048192771084" x2="157.12048192771084" y1="0" y2="37" stroke="black" stroke-dasharray="4,2" shape-rendering="crispEdges" stroke-opacity="1"/><line class="exonboundaryclass" x1="198.10843373493975" x2="198.10843373493975" y1="0" y2="37" stroke="black" stroke-dasharray="4,2" shape-rendering="crispEdges" stroke-opacity="1"/><line class="exonboundaryclass" x1="232.0120481927711" x2="232.0120481927711" y1="0" y2="37" stroke="black" stroke-dasharray="4,2" shape-rendering="crispEdges" stroke-opacity="1"/><line class="exonboundaryclass" x1="262.12048192771084" x2="262.12048192771084" y1="0" y2="37" stroke="black" stroke-dasharray="4,2" shape-rendering="crispEdges" stroke-opacity="1"/><line class="exonboundaryclass" x1="300.0722891566265" x2="300.0722891566265" y1="0" y2="37" stroke="black" stroke-dasharray="4,2" shape-rendering="crispEdges" stroke-opacity="1"/><line class="exonboundaryclass" x1="337.5180722891566" x2="337.5180722891566" y1="0" y2="37" stroke="black" stroke-dasharray="4,2" shape-rendering="crispEdges" stroke-opacity="1"/><line class="exonboundaryclass" x1="363.0722891566265" x2="363.0722891566265" y1="0" y2="37" stroke="black" stroke-dasharray="4,2" shape-rendering="crispEdges" stroke-opacity="1"/><line class="exonboundaryclass" x1="389.38554216867465" x2="389.38554216867465" y1="0" y2="37" stroke="black" stroke-dasharray="4,2" shape-rendering="crispEdges" stroke-opacity="1"/><line class="exonboundaryclass" x1="402.0361445783132" x2="402.0361445783132" y1="0" y2="37" stroke="black" stroke-dasharray="4,2" shape-rendering="crispEdges" stroke-opacity="1"/><line class="exonboundaryclass" x1="421.2650602409638" x2="421.2650602409638" y1="0" y2="37" stroke="black" stroke-dasharray="4,2" shape-rendering="crispEdges" stroke-opacity="1"/><line class="exonboundaryclass" x1="439.7349397590361" x2="439.7349397590361" y1="0" y2="37" stroke="black" stroke-dasharray="4,2" shape-rendering="crispEdges" stroke-opacity="1"/><line class="exonboundaryclass" x1="475.91566265060237" x2="475.91566265060237" y1="0" y2="37" stroke="black" stroke-dasharray="4,2" shape-rendering="crispEdges" stroke-opacity="1"/><line class="exonboundaryclass" x1="499.4457831325301" x2="499.4457831325301" y1="0" y2="37" stroke="black" stroke-dasharray="4,2" shape-rendering="crispEdges" stroke-opacity="1"/><line class="exonboundaryclass" x1="537.144578313253" x2="537.144578313253" y1="0" y2="37" stroke="black" stroke-dasharray="4,2" shape-rendering="crispEdges" stroke-opacity="1"/><line class="exonboundaryclass" x1="558.9036144578313" x2="558.9036144578313" y1="0" y2="37" stroke="black" stroke-dasharray="4,2" shape-rendering="crispEdges" stroke-opacity="1"/><line class="exonboundaryclass" x1="593.5662650602409" x2="593.5662650602409" y1="0" y2="37" stroke="black" stroke-dasharray="4,2" shape-rendering="crispEdges" stroke-opacity="1"/><line class="exonboundaryclass" x1="624.1807228915662" x2="624.1807228915662" y1="0" y2="37" stroke="black" stroke-dasharray="4,2" shape-rendering="crispEdges" stroke-opacity="1"/><line class="exonboundaryclass" x1="671.7469879518072" x2="671.7469879518072" y1="0" y2="37" stroke="black" stroke-dasharray="4,2" shape-rendering="crispEdges" stroke-opacity="1"/><line class="exonboundaryclass" x1="712.7349397590361" x2="712.7349397590361" y1="0" y2="37" stroke="black" stroke-dasharray="4,2" shape-rendering="crispEdges" stroke-opacity="1"/><line class="exonboundaryclass" x1="766.1204819277108" x2="766.1204819277108" y1="0" y2="37" stroke="black" stroke-dasharray="4,2" shape-rendering="crispEdges" stroke-opacity="1"/><line class="exonboundaryclass" x1="836.2048192771084" x2="836.2048192771084" y1="0" y2="37" stroke="black" stroke-dasharray="4,2" shape-rendering="crispEdges" stroke-opacity="1"/><line class="exonboundaryclass" x1="888.5783132530121" x2="888.5783132530121" y1="0" y2="37" stroke="black" stroke-dasharray="4,2" shape-rendering="crispEdges" stroke-opacity="1"/><line class="exonboundaryclass" x1="911.0963855421687" x2="911.0963855421687" y1="0" y2="37" stroke="black" stroke-dasharray="4,2" shape-rendering="crispEdges" stroke-opacity="1"/><line class="exonboundaryclass" x1="932.0963855421687" x2="932.0963855421687" y1="0" y2="37" stroke="black" stroke-dasharray="4,2" shape-rendering="crispEdges" stroke-opacity="1"/><line class="exonboundaryclass" x1="955.1204819277109" x2="955.1204819277109" y1="0" y2="37" stroke="black" stroke-dasharray="4,2" shape-rendering="crispEdges" stroke-opacity="1"/><line class="exonboundaryclass" x1="987.7590361445783" x2="987.7590361445783" y1="0" y2="37" stroke="black" stroke-dasharray="4,2" shape-rendering="crispEdges" stroke-opacity="1"/><line class="exonboundaryclass" x1="998.3855421686746" x2="998.3855421686746" y1="0" y2="37" stroke="black" stroke-dasharray="4,2" shape-rendering="crispEdges" stroke-opacity="1"/><line class="exonboundaryclass" x1="1054.301204819277" x2="1054.301204819277" y1="0" y2="37" stroke="black" stroke-dasharray="4,2" shape-rendering="crispEdges" stroke-opacity="1"/><line class="exonboundaryclass" x1="1079.602409638554" x2="1079.602409638554" y1="0" y2="37" stroke="black" stroke-dasharray="4,2" shape-rendering="crispEdges" stroke-opacity="1"/><line class="exonboundaryclass" x1="1116.036144578313" x2="1116.036144578313" y1="0" y2="37" stroke="black" stroke-dasharray="4,2" shape-rendering="crispEdges" stroke-opacity="1"/><line class="exonboundaryclass" x1="1145.1325301204818" x2="1145.1325301204818" y1="0" y2="37" stroke="black" stroke-dasharray="4,2" shape-rendering="crispEdges" stroke-opacity="1"/><line class="exonboundaryclass" x1="1162.0843373493974" x2="1162.0843373493974" y1="0" y2="37" stroke="black" stroke-dasharray="4,2" shape-rendering="crispEdges" stroke-opacity="1"/><line class="exonboundaryclass" x1="1205.8554216867467" x2="1205.8554216867467" y1="0" y2="37" stroke="black" stroke-dasharray="4,2" shape-rendering="crispEdges" stroke-opacity="1"/><line class="exonboundaryclass" x1="1231.9156626506021" x2="1231.9156626506021" y1="0" y2="37" stroke="black" stroke-dasharray="4,2" shape-rendering="crispEdges" stroke-opacity="1"/><line class="exonboundaryclass" x1="1249.1204819277107" x2="1249.1204819277107" y1="0" y2="37" stroke="black" stroke-dasharray="4,2" shape-rendering="crispEdges" stroke-opacity="1"/><g transform="translate(0,18.5)" fill="none" font-size="10" font-family="sans-serif" text-anchor="middle"><path class="domain" stroke="none" d="M0.37951807228915657,0H1259.9999999999998" fill="none" stroke-width="0" shape-rendering="crispEdges"/><g class="tick" opacity="1" transform="translate(151.13749114103473,0)"><line stroke="black" y2="0" shape-rendering="crispEdges"/><text fill="black" y="3" dy="0.71em" font-family="Arial" font-size="11.666666666666666px" style="cursor: default;">200</text></g><g class="tick" opacity="1" transform="translate(303.2452667814113,0)"><line stroke="black" y2="0" shape-rendering="crispEdges"/><text fill="black" y="3" dy="0.71em" font-family="Arial" font-size="11.666666666666666px" style="cursor: default;">400</text></g><g class="tick" opacity="1" transform="translate(454.8840361445782,0)"><line stroke="black" y2="0" shape-rendering="crispEdges"/><text fill="black" y="3" dy="0.71em" font-family="Arial" font-size="11.666666666666666px" style="cursor: default;">600</text></g><g class="tick" opacity="1" transform="translate(606.7956325301203,0)"><line stroke="black" y2="0" shape-rendering="crispEdges"/><text fill="black" y="3" dy="0.71em" font-family="Arial" font-size="11.666666666666666px" style="cursor: default;">800</text></g><g class="tick" opacity="1" transform="translate(758.5481927710844,0)"><line stroke="black" y2="0" shape-rendering="crispEdges"/><text fill="black" y="3" dy="0.71em" font-family="Arial" font-size="11.666666666666666px" style="cursor: default;">1000</text></g><g class="tick" opacity="1" transform="translate(910.3415662650604,0)"><line stroke="black" y2="0" shape-rendering="crispEdges"/><text fill="black" y="3" dy="0.71em" font-family="Arial" font-size="11.666666666666666px" style="cursor: default;">1200</text></g><g class="tick" opacity="1" transform="translate(1062.2327491785322,0)"><line stroke="black" y2="0" shape-rendering="crispEdges"/><text fill="black" y="3" dy="0.71em" font-family="Arial" font-size="11.666666666666666px" style="cursor: default;">1400</text></g><g class="tick" opacity="1" transform="translate(1213.959036144578,0)"><line stroke="black" y2="0" shape-rendering="crispEdges"/><text fill="black" y="3" dy="0.71em" font-family="Arial" font-size="11.666666666666666px" style="cursor: default;">1600</text></g></g><rect x="0" width="55.40963855421686" height="37" fill="#858585" fill-opacity="0"/><rect x="55.40963855421686" width="18.216867469879517" height="37" fill="#858585" fill-opacity="0"/><rect x="73.62650602409639" width="31.12048192771084" height="37" fill="#858585" fill-opacity="0"/><rect x="104.74698795180723" width="26.566265060240962" height="37" fill="#858585" fill-opacity="0"/><rect x="131.3132530120482" width="25.807228915662648" height="37" fill="#858585" fill-opacity="0"/><rect x="157.12048192771084" width="40.98795180722891" height="37" fill="#858585" fill-opacity="0"/><rect x="198.10843373493975" width="33.903614457831324" height="37" fill="#858585" fill-opacity="0"/><rect x="232.0120481927711" width="30.10843373493976" height="37" fill="#858585" fill-opacity="0"/><rect x="262.12048192771084" width="37.95180722891566" height="37" fill="#858585" fill-opacity="0"/><rect x="300.0722891566265" width="37.44578313253012" height="37" fill="#858585" fill-opacity="0"/><rect x="337.5180722891566" width="25.55421686746988" height="37" fill="#858585" fill-opacity="0"/><rect x="363.0722891566265" width="26.31325301204819" height="37" fill="#858585" fill-opacity="0"/><rect x="389.38554216867465" width="12.650602409638553" height="37" fill="#858585" fill-opacity="0"/><rect x="402.0361445783132" width="19.2289156626506" height="37" fill="#858585" fill-opacity="0"/><rect x="421.2650602409638" width="18.469879518072286" height="37" fill="#858585" fill-opacity="0"/><rect x="439.7349397590361" width="36.18072289156626" height="37" fill="#858585" fill-opacity="0"/><rect x="475.91566265060237" width="23.53012048192771" height="37" fill="#858585" fill-opacity="0"/><rect x="499.4457831325301" width="37.69879518072289" height="37" fill="#858585" fill-opacity="0"/><rect x="537.144578313253" width="21.75903614457831" height="37" fill="#858585" fill-opacity="0"/><rect x="558.9036144578313" width="34.662650602409634" height="37" fill="#858585" fill-opacity="0"/><rect x="593.5662650602409" width="30.6144578313253" height="37" fill="#858585" fill-opacity="0"/><rect x="624.1807228915662" width="47.56626506024096" height="37" fill="#858585" fill-opacity="0"/><rect x="671.7469879518072" width="40.98795180722891" height="37" fill="#858585" fill-opacity="0"/><rect x="712.7349397590361" width="53.3855421686747" height="37" fill="#858585" fill-opacity="0"/><rect x="766.1204819277108" width="70.08433734939759" height="37" fill="#858585" fill-opacity="0"/><rect x="836.2048192771084" width="52.373493975903614" height="37" fill="#858585" fill-opacity="0"/><rect x="888.5783132530121" width="22.518072289156624" height="37" fill="#858585" fill-opacity="0"/><rect x="911.0963855421687" width="21" height="37" fill="#858585" fill-opacity="0"/><rect x="932.0963855421687" width="23.024096385542165" height="37" fill="#858585" fill-opacity="0"/><rect x="955.1204819277109" width="32.63855421686747" height="37" fill="#858585" fill-opacity="0"/><rect x="987.7590361445783" width="10.626506024096384" height="37" fill="#858585" fill-opacity="0"/><rect x="998.3855421686746" width="55.91566265060241" height="37" fill="#858585" fill-opacity="0"/><rect x="1054.301204819277" width="25.301204819277107" height="37" fill="#858585" fill-opacity="0"/><rect x="1079.602409638554" width="36.433734939759034" height="37" fill="#858585" fill-opacity="0"/><rect x="1116.036144578313" width="29.096385542168672" height="37" fill="#858585" fill-opacity="0"/><rect x="1145.1325301204818" width="16.951807228915662" height="37" fill="#858585" fill-opacity="0"/><rect x="1162.0843373493974" width="43.77108433734939" height="37" fill="#858585" fill-opacity="0"/><rect x="1205.8554216867467" width="26.06024096385542" height="37" fill="#858585" fill-opacity="0"/><rect x="1231.9156626506021" width="17.20481927710843" height="37" fill="#858585" fill-opacity="0"/><rect x="1249.1204819277107" width="10.879518072289155" height="37" fill="#858585" fill-opacity="0"/></g></g><g/><g transform="scale(0)"><rect fill="white" fill-opacity="0"/><text data-testid="loading_message" fill="rgb(97, 124, 148)" fill-opacity="0" font-weight="bold" font-size="18px" text-anchor="middle" dominant-baseline="middle">Loading ...</text><line stroke="rgb(97, 124, 148)" stroke-width="2px"/></g></g><g transform="translate(122.3984375,0)"><text font-size="14" font-family="Arial" y="7" text-anchor="end" dominant-baseline="central" fill="black" x="-10" font-weight="bold">PREX1</text><text font-size="14" font-family="Arial" y="20" text-anchor="end" dominant-baseline="central" fill="black" x="-10">NM_020820</text></g><g transform="translate(1395.3984375,0)"><text fill="#aaa" font-family="Arial" font-size="14" y="14" class="sja_clbtext2"/></g></g></g><g transform="scale(0)"><rect fill="white"/><text id="loadinggCloak" fill="rgb(97, 124, 148)" fill-opacity="0" font-weight="bold" font-size="18px" text-anchor="middle" dominant-baseline="middle">Loading ...</text></g><g/><g transform="translate(124.3984375,693.584765625)"><g transform="translate(0,0)"><rect width="15" height="20" stroke="rgb(177, 126, 69)" fill="#fdb462" shape-rendering="crispEdges"/><text x="20" y="10" dominant-baseline="central" font-size="16" font-family="Arial" fill="black">RhoGEF</text><text x="92.2421875" y="10" dominant-baseline="central" font-size="12" font-family="Arial" fill="#858585">Guanine nucleotide exchange factor for Rho/Rac/Cdc42-like GTPases; Als ...</text></g><g transform="translate(0,23)"><rect width="15" height="20" stroke="rgb(99, 148, 139)" fill="#8dd3c7" shape-rendering="crispEdges"/><text x="20" y="10" dominant-baseline="central" font-size="16" font-family="Arial" fill="black">other</text><text x="66.6875" y="10" dominant-baseline="central" font-size="12" font-family="Arial" fill="#858585">GTPase interaction site [polypeptide binding]</text></g><g transform="translate(0,46)"><rect width="15" height="20" stroke="rgb(162, 162, 111)" fill="#E8E89E" shape-rendering="crispEdges"/><text x="20" y="10" dominant-baseline="central" font-size="16" font-family="Arial" fill="black">PH_Collybistin_ASEF</text><text x="184.7265625" y="10" dominant-baseline="central" font-size="12" font-family="Arial" fill="#858585">Collybistin/APC-stimulated guanine nucleotide exchange factor pleckstr ...</text></g><g transform="translate(0,69)"><rect width="15" height="20" stroke="rgb(90, 124, 148)" fill="#80b1d3" shape-rendering="crispEdges"/><text x="20" y="10" dominant-baseline="central" font-size="16" font-family="Arial" fill="black">DEP</text><text x="62.8984375" y="10" dominant-baseline="central" font-size="12" font-family="Arial" fill="#858585">DEP domain, named after Dishevelled, Egl-10, and Pleckstrin, where thi ...</text></g><g transform="translate(0,92)"><rect width="15" height="20" stroke="rgb(133, 130, 153)" fill="#bebada" shape-rendering="crispEdges"/><text x="20" y="10" dominant-baseline="central" font-size="16" font-family="Arial" fill="black">DEP_2_P-Rex</text><text x="134.046875" y="10" dominant-baseline="central" font-size="12" font-family="Arial" fill="#858585">DEP (Dishevelled, Egl-10, and Pleckstrin) domain 2 found in P-Rex-like ...</text></g><g transform="translate(0,115)"><rect width="15" height="20" stroke="rgb(116, 151, 59)" fill="#a6d854" shape-rendering="crispEdges"/><text x="20" y="10" dominant-baseline="central" font-size="16" font-family="Arial" fill="black">PDZ_signaling</text><text x="134.0546875" y="10" dominant-baseline="central" font-size="12" font-family="Arial" fill="#858585">PDZ domain found in a variety of Eumetazoan signaling molecules, often ...</text></g><g transform="translate(0,138)"><rect width="15" height="20" stroke="rgb(176, 90, 80)" fill="#fb8072" shape-rendering="crispEdges"/><text x="20" y="10" dominant-baseline="central" font-size="16" font-family="Arial" fill="black">other</text><text x="66.6875" y="10" dominant-baseline="central" font-size="12" font-family="Arial" fill="#858585">protein binding site [polypeptide binding]</text></g><g transform="translate(0,161)"><rect width="15" height="20" stroke="rgb(179, 152, 33)" fill="#ffd92f" shape-rendering="crispEdges"/><text x="20" y="10" dominant-baseline="central" font-size="16" font-family="Arial" fill="black">PDZ</text><text x="62" y="10" dominant-baseline="central" font-size="12" font-family="Arial" fill="#858585">PDZ domain, also called DHR (Dlg homologous region) or GLGF (after a c ...</text></g></g><g transform="translate(1187.3984375,693.584765625)"><g transform="translate(0,0)"><circle cx="10" cy="10" r="10" fill="#998199"/><text x="30" y="10" dominant-baseline="central" font-size="16" font-family="Arial" fill="#998199">UTR_3, n=6</text></g><g transform="translate(0,23)"><circle cx="10" cy="10" r="10" fill="#3987CC"/><text x="30" y="10" dominant-baseline="central" font-size="16" font-family="Arial" fill="#3987CC">MISSENSE, n=7</text></g><g transform="translate(0,46)"><circle cx="10" cy="10" r="10" fill="#db3d3d"/><text x="30" y="10" dominant-baseline="central" font-size="16" font-family="Arial" fill="#db3d3d">FRAMESHIFT, n=1</text></g><g transform="translate(0,69)"><circle cx="10" cy="10" r="10" fill="#2ca02c"/><text x="30" y="10" dominant-baseline="central" font-size="16" font-family="Arial" fill="#2ca02c">SILENT, n=3</text></g><g transform="translate(0,92)"><circle cx="10" cy="10" r="10" fill="#6633FF"/><text x="30" y="10" dominant-baseline="central" font-size="16" font-family="Arial" fill="#6633FF">SPLICE, n=2</text></g></g></svg>