<svg xmlns="http://www.w3.org/2000/svg" data-testid="sjpp_block_svg" width="1035.3984375" height="777.2796875"><g transform="translate(0,0)"><g transform="translate(125.3984375, 0)"/><rect fill="#FFFF99" x="847" width="0" height="507.2796875"/><g transform="translate(125.3984375, 23)"><g transform="translate(0,0)"><text text-anchor="end" x="-13" y="-10" dominant-baseline="central" font-size="13" font-family="Arial">Protein length</text><g><g transform="translate(0,0)" fill="none" font-size="10" font-family="sans-serif" text-anchor="middle"><path class="domain" stroke="black" d="M0,-6V0H800V-6" fill="none" stroke-width="1" shape-rendering="crispEdges"/><g class="tick" opacity="1" transform="translate(70.46263345195729,0)"><line stroke="black" y2="-6" shape-rendering="crispEdges"/><text fill="black" y="-9" dy="0em" font-family="Arial" font-size="12px" style="cursor: default;">100</text></g><g class="tick" opacity="1" transform="translate(141.6370106761566,0)"><line stroke="black" y2="-6" shape-rendering="crispEdges"/><text fill="black" y="-9" dy="0em" font-family="Arial" font-size="12px" style="cursor: default;">200</text></g><g class="tick" opacity="1" transform="translate(212.81138790035587,0)"><line stroke="black" y2="-6" shape-rendering="crispEdges"/><text fill="black" y="-9" dy="0em" font-family="Arial" font-size="12px" style="cursor: default;">300</text></g><g class="tick" opacity="1" transform="translate(283.98576512455514,0)"><line stroke="black" y2="-6" shape-rendering="crispEdges"/><text fill="black" y="-9" dy="0em" font-family="Arial" font-size="12px" style="cursor: default;">400</text></g><g class="tick" opacity="1" transform="translate(355.16014234875445,0)"><line stroke="black" y2="-6" shape-rendering="crispEdges"/><text fill="black" y="-9" dy="0em" font-family="Arial" font-size="12px" style="cursor: default;">500</text></g><g class="tick" opacity="1" transform="translate(426.33451957295375,0)"><line stroke="black" y2="-6" shape-rendering="crispEdges"/><text fill="black" y="-9" dy="0em" font-family="Arial" font-size="12px" style="cursor: default;">600</text></g><g class="tick" opacity="1" transform="translate(497.508896797153,0)"><line stroke="black" y2="-6" shape-rendering="crispEdges"/><text fill="black" y="-9" dy="0em" font-family="Arial" font-size="12px" style="cursor: default;">700</text></g><g class="tick" opacity="1" transform="translate(568.6832740213523,0)"><line stroke="black" y2="-6" shape-rendering="crispEdges"/><text fill="black" y="-9" dy="0em" font-family="Arial" font-size="12px" style="cursor: default;">800</text></g><g class="tick" opacity="1" transform="translate(639.8576512455516,0)"><line stroke="black" y2="-6" shape-rendering="crispEdges"/><text fill="black" y="-9" dy="0em" font-family="Arial" font-size="12px" style="cursor: default;">900</text></g><g class="tick" opacity="1" transform="translate(711.0320284697509,0)"><line stroke="black" y2="-6" shape-rendering="crispEdges"/><text fill="black" y="-9" dy="0em" font-family="Arial" font-size="12px" style="cursor: default;">1000</text></g><g class="tick" opacity="1" transform="translate(782.2064056939502,0)"><line stroke="black" y2="-6" shape-rendering="crispEdges"/><text fill="black" y="-9" dy="0em" font-family="Arial" font-size="12px" style="cursor: default;">1100</text></g></g></g><rect fill="white" fill-opacity="0" x="0" y="-23" width="800" height="26"/></g><g transform="translate(800, 0)"/></g><g data-testid="sja_sample_menu_opener" transform="translate(0, 194.0578155517578)"><g transform="translate(925.3984375, 0)"/><g transform="translate(125.3984375, 0)"><rect fill="white" fill-opacity="0" width="800" height="184.390625"/><g transform="translate(0,0)" style="cursor: default;"><g class="sja_skg" transform="translate(64, 63)"><g transform="translate(0, 7)" class="sja_aa_discg"><circle fill="#3987CC" stroke="white" r="6.5"/><text font-size="12" fill="#3987CC" x="8" y="3.5999999999999996" font-family="Arial" class="sja_aa_disclabel" fill-opacity="1" transform="rotate(90)">p.Gly92Arg</text><circle r="6.5" stroke="#3987CC" class="sja_aa_disckick" fill="white" fill-opacity="0" stroke-opacity="0" transform="scale(1)"/><path d="M4.286263797015736e-16,-7L4.286263797015736e-16,-7Z" fill="#3987CC" class="sja_aa_discrim" fill-opacity="1" stroke-opacity="1"/></g><circle class="sja_aa_skkick" fill="white" fill-opacity="0" stroke="none" r="8" cy="7" transform="scale(0)"/><path class="sja_aa_stem" d="M0,0v-14l0.8873072360616874,-25.200000000000003v-23.799999999999997" stroke="#3987CC" fill="none"/></g><g class="sja_skg" transform="translate(78, 63)"><g transform="translate(0, 7)" class="sja_aa_discg"><circle fill="#db3d3d" stroke="white" r="6.5"/><text font-size="12" fill="#db3d3d" x="8" y="3.5999999999999996" font-family="Arial" class="sja_aa_disclabel" fill-opacity="1" transform="scale(1) rotate(0)">p.Asp99ArgfsTer6</text><circle r="6.5" stroke="#db3d3d" class="sja_aa_disckick" fill="white" fill-opacity="0" stroke-opacity="0" transform="scale(1)"/><path d="M4.286263797015736e-16,-7L4.286263797015736e-16,-7Z" fill="#db3d3d" class="sja_aa_discrim" fill-opacity="1" stroke-opacity="1"/></g><circle class="sja_aa_skkick" fill="white" fill-opacity="0" stroke="none" r="8" cy="7" transform="scale(0)"/><path class="sja_aa_stem" d="M0,0v-14l-10.265717674970347,-25.200000000000003v-23.799999999999997" stroke="#db3d3d" fill="none"/></g><g class="sja_skg" transform="translate(425, 63)"><g transform="translate(0, 7)" class="sja_aa_discg"><circle fill="#3987CC" stroke="white" r="6.5"/><text font-size="12" fill="#3987CC" x="8" y="3.5999999999999996" font-family="Arial" class="sja_aa_disclabel" fill-opacity="1" transform="rotate(90)">p.Ala598Ser</text><circle r="6.5" stroke="#3987CC" class="sja_aa_disckick" fill="white" fill-opacity="0" stroke-opacity="0" transform="scale(1)"/><path d="M4.286263797015736e-16,-7L4.286263797015736e-16,-7Z" fill="#3987CC" class="sja_aa_discrim" fill-opacity="1" stroke-opacity="1"/></g><circle class="sja_aa_skkick" fill="white" fill-opacity="0" stroke="none" r="8" cy="7" transform="scale(0)"/><path class="sja_aa_stem" d="M0,0v-14l0.02965599051009349,-25.200000000000003v-23.799999999999997" stroke="#3987CC" fill="none"/></g><g class="sja_skg" transform="translate(470, 63)"><g transform="translate(0, 7)" class="sja_aa_discg"><circle fill="#3987CC" stroke="white" r="6.5"/><text font-size="12" fill="#3987CC" x="8" y="3.5999999999999996" font-family="Arial" class="sja_aa_disclabel" fill-opacity="1" transform="rotate(90)">p.Arg662His</text><circle r="6.5" stroke="#3987CC" class="sja_aa_disckick" fill="white" fill-opacity="0" stroke-opacity="0" transform="scale(1)"/><path d="M4.286263797015736e-16,-7L4.286263797015736e-16,-7Z" fill="#3987CC" class="sja_aa_discrim" fill-opacity="1" stroke-opacity="1"/></g><circle class="sja_aa_skkick" fill="white" fill-opacity="0" stroke="none" r="8" cy="7" transform="scale(0)"/><path class="sja_aa_stem" d="M0,0v-14l0.8185053380782961,-25.200000000000003v-23.799999999999997" stroke="#3987CC" fill="none"/></g><g class="sja_skg" transform="translate(505, 63)"><g transform="translate(0, 7)" class="sja_aa_discg"><circle fill="#9467bd" stroke="white" r="6.5"/><text font-size="12" fill="#9467bd" x="8" y="3.5999999999999996" font-family="Arial" class="sja_aa_disclabel" fill-opacity="1" transform="scale(1) rotate(0)">c.2130G&gt;A(p.=)</text><circle r="6.5" stroke="#9467bd" class="sja_aa_disckick" fill="white" fill-opacity="0" stroke-opacity="0" transform="scale(1)"/><path d="M4.286263797015736e-16,-7L4.286263797015736e-16,-7Z" fill="#9467bd" class="sja_aa_discrim" fill-opacity="1" stroke-opacity="1"/></g><circle class="sja_aa_skkick" fill="white" fill-opacity="0" stroke="none" r="8" cy="7" transform="scale(0)"/><path class="sja_aa_stem" d="M0,0v-14l0.21945432977463497,-25.200000000000003v-23.799999999999997" stroke="#9467bd" fill="none"/></g><g class="sja_skg" transform="translate(658, 63)"><g transform="translate(0, 7)" class="sja_aa_discg"><circle fill="#3987CC" stroke="white" r="6.5"/><text font-size="12" fill="#3987CC" x="8" y="3.5999999999999996" font-family="Arial" class="sja_aa_disclabel" fill-opacity="1" transform="scale(1) rotate(0)">p.Pro925Leu</text><circle r="6.5" stroke="#3987CC" class="sja_aa_disckick" fill="white" fill-opacity="0" stroke-opacity="0" transform="scale(1)"/><path d="M4.286263797015736e-16,-7L4.286263797015736e-16,-7Z" fill="#3987CC" class="sja_aa_discrim" fill-opacity="1" stroke-opacity="1"/></g><circle class="sja_aa_skkick" fill="white" fill-opacity="0" stroke="none" r="8" cy="7" transform="scale(0)"/><path class="sja_aa_stem" d="M0,0v-14l0.007117437722513387,-25.200000000000003v-23.799999999999997" stroke="#3987CC" fill="none"/></g></g><g/><g transform="scale(0)"><rect fill="white" fill-opacity="0.5" width="800" height="0"/><text data-testid="loading_message" fill="rgb(97, 124, 148)" fill-opacity="1" font-weight="bold" font-size="18px" text-anchor="middle" dominant-baseline="middle" x="400" y="15">Loading ...</text><line stroke="rgb(97, 124, 148)" stroke-width="2px" y1="30" y2="30" x2="0"/></g></g><g transform="translate(122.3984375, 0)"><text font-size="14" font-family="Arial" y="7" text-anchor="end" dominant-baseline="central" fill="black" x="-10" font-weight="bold">GAMBL DLBCL</text><g/><text font-size="14" font-family="Arial" y="26" text-anchor="end" dominant-baseline="central" class="sja_clbtext2" fill="black" x="-10">6 mutations</text></g><g transform="translate(935.3984375, 0)"/></g><g data-testid="sja_sample_menu_opener" transform="translate(0, 488.2796936035156)"><g transform="translate(925.3984375, 0)"/><g transform="translate(125.3984375,0)"><rect fill="white" fill-opacity="0" width="800" height="24"/><g transform="translate(0,0)" style="cursor: default;"/><g/><g transform="scale(0)"><rect fill="white" fill-opacity="0.5" width="800" height="0"/><text data-testid="loading_message" fill="rgb(97, 124, 148)" fill-opacity="1" font-weight="bold" font-size="18px" text-anchor="middle" dominant-baseline="middle" x="400" y="15">Loading ...</text><line stroke="rgb(97, 124, 148)" stroke-width="2px" y1="30" y2="30" x2="0"/></g></g><g transform="translate(122.3984375,0)"><text font-size="14" font-family="Arial" y="7" text-anchor="end" dominant-baseline="central" fill="black" x="-10" font-weight="bold">GAMBL FL</text><g/><text font-size="14" font-family="Arial" y="26" text-anchor="end" dominant-baseline="central" class="sja_clbtext2" fill="black" x="-10"/></g><g transform="translate(935.3984375,0)"/></g><g data-testid="sja_sample_menu_opener" transform="translate(0, 378.44842529296875)"><g transform="translate(925.3984375, 0)"/><g transform="translate(125.3984375,0)"><rect fill="white" fill-opacity="0" width="800" height="109.83125"/><g transform="translate(0,0)" style="cursor: default;"><g class="sja_skg" transform="translate(53.736656188964844, 23.799999237060547)"><g transform="translate(0, 7)" class="sja_aa_discg"><circle fill="#3987CC" stroke="white" r="6.5"/><text font-size="12" fill="#3987CC" x="8" y="3.5999999999999996" font-family="Arial" class="sja_aa_disclabel" fill-opacity="1" transform="scale(1) rotate(0)">p.Gly76Glu</text><circle r="6.5" stroke="#3987CC" class="sja_aa_disckick" fill="white" fill-opacity="0" stroke-opacity="0" transform="scale(1)"/><path d="M4.286263797015736e-16,-7L4.286263797015736e-16,-7Z" fill="#3987CC" class="sja_aa_discrim" fill-opacity="1" stroke-opacity="1"/></g><circle class="sja_aa_skkick" fill="white" fill-opacity="0" stroke="none" r="8" cy="7" transform="scale(0)"/><path class="sja_aa_stem" d="M0,0v0l0,0v-23.799999999999997" stroke="#3987CC" fill="none"/></g></g><g/><g transform="scale(0)"><rect fill="white" fill-opacity="0.5" width="800" height="0"/><text data-testid="loading_message" fill="rgb(97, 124, 148)" fill-opacity="1" font-weight="bold" font-size="18px" text-anchor="middle" dominant-baseline="middle" x="400" y="15">Loading ...</text><line stroke="rgb(97, 124, 148)" stroke-width="2px" y1="30" y2="30" x2="0"/></g></g><g transform="translate(122.3984375,0)"><text font-size="14" font-family="Arial" y="7" text-anchor="end" dominant-baseline="central" fill="black" x="-10" font-weight="bold">GAMBL BL</text><g/><text font-size="14" font-family="Arial" y="26" text-anchor="end" dominant-baseline="central" class="sja_clbtext2" fill="black" x="-10">1 mutation</text></g><g transform="translate(935.3984375,0)"/></g><g data-testid="sja_sample_menu_opener" transform="translate(0, 31)"><g transform="translate(925.3984375, 0)"/><g transform="translate(125.3984375,0)"><rect fill="white" fill-opacity="0" width="800" height="116.0578125"/><g transform="translate(0,0)" style="cursor: default;"><g class="sja_skg" transform="translate(281.2574157714844, 82.2578125)"><g transform="translate(0, -7)" class="sja_aa_discg"><circle fill="#3987CC" stroke="white" r="6.5"/><text font-size="12" fill="#3987CC" x="8" y="3.5999999999999996" font-family="Arial" class="sja_aa_disclabel" fill-opacity="1" transform="scale(1) rotate(0)">p.Arg396Trp</text><circle r="6.5" stroke="#3987CC" class="sja_aa_disckick" fill="white" fill-opacity="0" stroke-opacity="0" transform="scale(1)"/><path d="M4.286263797015736e-16,-7L4.286263797015736e-16,-7Z" fill="#3987CC" class="sja_aa_discrim" fill-opacity="1" stroke-opacity="1"/></g><circle class="sja_aa_skkick" fill="white" fill-opacity="0" stroke="none" r="8" cy="-7" transform="scale(0)"/><path class="sja_aa_stem" d="M0,0v0l0,0v23.799999999999997" stroke="#3987CC" fill="none"/></g></g><g/><g transform="scale(0)"><rect fill="white" fill-opacity="0.5" width="800" height="0"/><text data-testid="loading_message" fill="rgb(97, 124, 148)" fill-opacity="1" font-weight="bold" font-size="18px" text-anchor="middle" dominant-baseline="middle" x="400" y="15">Loading ...</text><line stroke="rgb(97, 124, 148)" stroke-width="2px" y1="30" y2="30" x2="0"/></g></g><g transform="translate(122.3984375,0)"><text font-size="14" font-family="Arial" y="7" text-anchor="end" dominant-baseline="central" fill="black" x="-10" font-weight="bold">GAMBL MCL</text><g/><text font-size="14" font-family="Arial" y="26" text-anchor="end" dominant-baseline="central" class="sja_clbtext2" fill="black" x="-10">1 mutation</text></g><g transform="translate(935.3984375,0)"/></g><g data-testid="sja_sample_menu_opener" transform="translate(0, 147.0578155517578)"><g transform="translate(925.3984375, 0)"/><g transform="translate(125.3984375,0)"><rect fill="white" fill-opacity="0" width="800" height="47"/><g transform="translate(0,0)" style="cursor: default;"><g><line x1="0" y1="18.5" x2="799.9999999999999" y2="18.5" stroke="black" shape-rendering="crispEdges"/><rect x="0" width="10.438908659549229" height="37" fill="white"/><rect x="10.438908659549229" width="303.44009489916965" height="37" fill="white"/><rect x="64.76868327402136" width="103.91459074733096" height="37" fill="#bebada"/><rect x="313.87900355871886" width="21.352313167259787" height="37" fill="white"/><rect x="323.84341637010675" width="11.387900355871887" height="37" fill="#8dd3c7"/><rect x="335.2313167259787" width="16.607354685646502" height="37" fill="white"/><rect x="335.2313167259787" width="16.607354685646502" height="37" fill="#8dd3c7"/><rect x="351.83867141162517" width="17.55634638196916" height="37" fill="white"/><rect x="351.83867141162517" width="17.55634638196916" height="37" fill="#8dd3c7"/><rect x="369.3950177935943" width="17.793594306049823" height="37" fill="white"/><rect x="369.3950177935943" width="9.9644128113879" height="37" fill="#8dd3c7"/><rect x="387.18861209964416" width="14.472123368920522" height="37" fill="white"/><rect x="401.66073546856467" width="65.48042704626334" height="37" fill="white"/><rect x="464.7686832740214" width="2.3724792408066433" height="37" fill="#E8E89E"/><rect x="467.141162514828" width="38.196915776986955" height="37" fill="white"/><rect x="467.141162514828" width="38.196915776986955" height="37" fill="#E8E89E"/><rect x="505.33807829181495" width="23.250296559905102" height="37" fill="white"/><rect x="505.33807829181495" width="21.352313167259787" height="37" fill="#E8E89E"/><rect x="528.58837485172" width="10.201660735468565" height="37" fill="white"/><rect x="538.7900355871885" width="19.45432977461447" height="37" fill="white"/><rect x="544.4839857651244" width="13.76037959667853" height="37" fill="#8dd3c7"/><rect x="548.7544483985764" width="5.693950177935943" height="37" fill="#ffd92f"/><rect x="558.244365361803" width="20.40332147093713" height="37" fill="white"/><rect x="558.244365361803" width="20.40332147093713" height="37" fill="#8dd3c7"/><rect x="571.5302491103203" width="5.693950177935943" height="37" fill="#fb8072"/><rect x="560.1423487544483" width="5.693950177935943" height="37" fill="#fdb462"/><rect x="565.8362989323842" width="5.693950177935943" height="37" fill="#bebada"/><rect x="578.6476868327402" width="34.87544483985765" height="37" fill="white"/><rect x="578.6476868327402" width="8.540925266903916" height="37" fill="#8dd3c7"/><rect x="578.6476868327402" width="5.693950177935943" height="37" fill="#80b1d3"/><rect x="613.5231316725979" width="22.775800711743774" height="37" fill="white"/><rect x="636.2989323843416" width="61.92170818505338" height="37" fill="white"/><rect x="698.220640569395" width="17.793594306049823" height="37" fill="white"/><rect x="716.0142348754448" width="23.250296559905102" height="37" fill="white"/><rect x="739.2645314353499" width="30.84223013048636" height="37" fill="white"/><rect x="745.9074733096085" width="24.19928825622776" height="37" fill="#b3b3b3"/><rect x="770.1067615658362" width="29.893238434163703" height="37" fill="white"/><rect x="770.1067615658362" width="9.252669039145909" height="37" fill="#b3b3b3"/><line x1="0" x2="799.9999999999999" stroke="black"/><line x1="0" x2="799.9999999999999" y1="37" y2="37" stroke="black"/><line x1="0" x2="0" y2="37" stroke="black"/><line x1="799.9999999999999" x2="799.9999999999999" y2="37" stroke="black"/><line class="exonboundaryclass" x1="10.438908659549229" x2="10.438908659549229" y1="0" y2="37" stroke="black" stroke-dasharray="4,2" shape-rendering="crispEdges" stroke-opacity="1"/><line class="exonboundaryclass" x1="313.87900355871886" x2="313.87900355871886" y1="0" y2="37" stroke="black" stroke-dasharray="4,2" shape-rendering="crispEdges" stroke-opacity="1"/><line class="exonboundaryclass" x1="335.2313167259787" x2="335.2313167259787" y1="0" y2="37" stroke="black" stroke-dasharray="4,2" shape-rendering="crispEdges" stroke-opacity="1"/><line class="exonboundaryclass" x1="351.83867141162517" x2="351.83867141162517" y1="0" y2="37" stroke="black" stroke-dasharray="4,2" shape-rendering="crispEdges" stroke-opacity="1"/><line class="exonboundaryclass" x1="369.3950177935943" x2="369.3950177935943" y1="0" y2="37" stroke="black" stroke-dasharray="4,2" shape-rendering="crispEdges" stroke-opacity="1"/><line class="exonboundaryclass" x1="387.18861209964416" x2="387.18861209964416" y1="0" y2="37" stroke="black" stroke-dasharray="4,2" shape-rendering="crispEdges" stroke-opacity="1"/><line class="exonboundaryclass" x1="401.66073546856467" x2="401.66073546856467" y1="0" y2="37" stroke="black" stroke-dasharray="4,2" shape-rendering="crispEdges" stroke-opacity="1"/><line class="exonboundaryclass" x1="467.141162514828" x2="467.141162514828" y1="0" y2="37" stroke="black" stroke-dasharray="4,2" shape-rendering="crispEdges" stroke-opacity="1"/><line class="exonboundaryclass" x1="505.33807829181495" x2="505.33807829181495" y1="0" y2="37" stroke="black" stroke-dasharray="4,2" shape-rendering="crispEdges" stroke-opacity="1"/><line class="exonboundaryclass" x1="528.58837485172" x2="528.58837485172" y1="0" y2="37" stroke="black" stroke-dasharray="4,2" shape-rendering="crispEdges" stroke-opacity="1"/><line class="exonboundaryclass" x1="538.7900355871885" x2="538.7900355871885" y1="0" y2="37" stroke="black" stroke-dasharray="4,2" shape-rendering="crispEdges" stroke-opacity="1"/><line class="exonboundaryclass" x1="558.244365361803" x2="558.244365361803" y1="0" y2="37" stroke="black" stroke-dasharray="4,2" shape-rendering="crispEdges" stroke-opacity="1"/><line class="exonboundaryclass" x1="578.6476868327402" x2="578.6476868327402" y1="0" y2="37" stroke="black" stroke-dasharray="4,2" shape-rendering="crispEdges" stroke-opacity="1"/><line class="exonboundaryclass" x1="613.5231316725979" x2="613.5231316725979" y1="0" y2="37" stroke="black" stroke-dasharray="4,2" shape-rendering="crispEdges" stroke-opacity="1"/><line class="exonboundaryclass" x1="636.2989323843416" x2="636.2989323843416" y1="0" y2="37" stroke="black" stroke-dasharray="4,2" shape-rendering="crispEdges" stroke-opacity="1"/><line class="exonboundaryclass" x1="698.220640569395" x2="698.220640569395" y1="0" y2="37" stroke="black" stroke-dasharray="4,2" shape-rendering="crispEdges" stroke-opacity="1"/><line class="exonboundaryclass" x1="716.0142348754448" x2="716.0142348754448" y1="0" y2="37" stroke="black" stroke-dasharray="4,2" shape-rendering="crispEdges" stroke-opacity="1"/><line class="exonboundaryclass" x1="739.2645314353499" x2="739.2645314353499" y1="0" y2="37" stroke="black" stroke-dasharray="4,2" shape-rendering="crispEdges" stroke-opacity="1"/><line class="exonboundaryclass" x1="770.1067615658362" x2="770.1067615658362" y1="0" y2="37" stroke="black" stroke-dasharray="4,2" shape-rendering="crispEdges" stroke-opacity="1"/><g transform="translate(0,18.5)" fill="none" font-size="10" font-family="sans-serif" text-anchor="middle"><path class="domain" stroke="none" d="M0.35587188612099646,0H799.9999999999999" fill="none" stroke-width="0" shape-rendering="crispEdges"/><g class="tick" opacity="1" transform="translate(70.74766433030246,0)"><line stroke="black" y2="0" shape-rendering="crispEdges"/><text fill="black" y="3" dy="0.71em" font-family="Arial" font-size="11.666666666666666px" style="cursor: default;">100</text></g><g class="tick" opacity="1" transform="translate(141.8386991924125,0)"><line stroke="black" y2="0" shape-rendering="crispEdges"/><text fill="black" y="3" dy="0.71em" font-family="Arial" font-size="11.666666666666666px" style="cursor: default;">200</text></g><g class="tick" opacity="1" transform="translate(212.92973405452256,0)"><line stroke="black" y2="0" shape-rendering="crispEdges"/><text fill="black" y="3" dy="0.71em" font-family="Arial" font-size="11.666666666666666px" style="cursor: default;">300</text></g><g class="tick" opacity="1" transform="translate(284.0207689166326,0)"><line stroke="black" y2="0" shape-rendering="crispEdges"/><text fill="black" y="3" dy="0.71em" font-family="Arial" font-size="11.666666666666666px" style="cursor: default;">400</text></g><g class="tick" opacity="1" transform="translate(355.4448398576513,0)"><line stroke="black" y2="0" shape-rendering="crispEdges"/><text fill="black" y="3" dy="0.71em" font-family="Arial" font-size="11.666666666666666px" style="cursor: default;">500</text></g><g class="tick" opacity="1" transform="translate(426.64526277786376,0)"><line stroke="black" y2="0" shape-rendering="crispEdges"/><text fill="black" y="3" dy="0.71em" font-family="Arial" font-size="11.666666666666666px" style="cursor: default;">600</text></g><g class="tick" opacity="1" transform="translate(497.58138921839986,0)"><line stroke="black" y2="0" shape-rendering="crispEdges"/><text fill="black" y="3" dy="0.71em" font-family="Arial" font-size="11.666666666666666px" style="cursor: default;">700</text></g><g class="tick" opacity="1" transform="translate(568.8550742422383,0)"><line stroke="black" y2="0" shape-rendering="crispEdges"/><text fill="black" y="3" dy="0.71em" font-family="Arial" font-size="11.666666666666666px" style="cursor: default;">800</text></g><g class="tick" opacity="1" transform="translate(640.1930707244243,0)"><line stroke="black" y2="0" shape-rendering="crispEdges"/><text fill="black" y="3" dy="0.71em" font-family="Arial" font-size="11.666666666666666px" style="cursor: default;">900</text></g><g class="tick" opacity="1" transform="translate(711.1316725978647,0)"><line stroke="black" y2="0" shape-rendering="crispEdges"/><text fill="black" y="3" dy="0.71em" font-family="Arial" font-size="11.666666666666666px" style="cursor: default;">1000</text></g><g class="tick" opacity="1" transform="translate(782.4182341975936,0)"><line stroke="black" y2="0" shape-rendering="crispEdges"/><text fill="black" y="3" dy="0.71em" font-family="Arial" font-size="11.666666666666666px" style="cursor: default;">1100</text></g></g><rect x="0" width="10.438908659549229" height="37" fill="#858585" fill-opacity="0"/><rect x="10.438908659549229" width="303.44009489916965" height="37" fill="#858585" fill-opacity="0"/><rect x="313.87900355871886" width="21.352313167259787" height="37" fill="#858585" fill-opacity="0"/><rect x="335.2313167259787" width="16.607354685646502" height="37" fill="#858585" fill-opacity="0"/><rect x="351.83867141162517" width="17.55634638196916" height="37" fill="#858585" fill-opacity="0"/><rect x="369.3950177935943" width="17.793594306049823" height="37" fill="#858585" fill-opacity="0"/><rect x="387.18861209964416" width="14.472123368920522" height="37" fill="#858585" fill-opacity="0"/><rect x="401.66073546856467" width="65.48042704626334" height="37" fill="#858585" fill-opacity="0"/><rect x="467.141162514828" width="38.196915776986955" height="37" fill="#858585" fill-opacity="0"/><rect x="505.33807829181495" width="23.250296559905102" height="37" fill="#858585" fill-opacity="0"/><rect x="528.58837485172" width="10.201660735468565" height="37" fill="#858585" fill-opacity="0"/><rect x="538.7900355871885" width="19.45432977461447" height="37" fill="#858585" fill-opacity="0"/><rect x="558.244365361803" width="20.40332147093713" height="37" fill="#858585" fill-opacity="0"/><rect x="578.6476868327402" width="34.87544483985765" height="37" fill="#858585" fill-opacity="0"/><rect x="613.5231316725979" width="22.775800711743774" height="37" fill="#858585" fill-opacity="0"/><rect x="636.2989323843416" width="61.92170818505338" height="37" fill="#858585" fill-opacity="0"/><rect x="698.220640569395" width="17.793594306049823" height="37" fill="#858585" fill-opacity="0"/><rect x="716.0142348754448" width="23.250296559905102" height="37" fill="#858585" fill-opacity="0"/><rect x="739.2645314353499" width="30.84223013048636" height="37" fill="#858585" fill-opacity="0"/><rect x="770.1067615658362" width="29.893238434163703" height="37" fill="#858585" fill-opacity="0"/></g></g><g/><g transform="scale(0)"><rect fill="white" fill-opacity="0"/><text data-testid="loading_message" fill="rgb(97, 124, 148)" fill-opacity="0" font-weight="bold" font-size="18px" text-anchor="middle" dominant-baseline="middle">Loading ...</text><line stroke="rgb(97, 124, 148)" stroke-width="2px"/></g></g><g transform="translate(122.3984375,0)"><text font-size="14" font-family="Arial" y="7" text-anchor="end" dominant-baseline="central" fill="black" x="-10" font-weight="bold">RBM6</text><text font-size="14" font-family="Arial" y="20" text-anchor="end" dominant-baseline="central" fill="black" x="-10">NM_005777</text></g><g transform="translate(935.3984375,0)"><text fill="#aaa" font-family="Arial" font-size="14" y="14" class="sja_clbtext2"/></g></g></g><g transform="scale(0)"><rect fill="white"/><text id="loadinggCloak" fill="rgb(97, 124, 148)" fill-opacity="0" font-weight="bold" font-size="18px" text-anchor="middle" dominant-baseline="middle">Loading ...</text></g><g/><g transform="translate(124.3984375,527.2796875)"><g transform="translate(0,0)"><rect width="15" height="20" stroke="rgb(133, 130, 153)" fill="#bebada" shape-rendering="crispEdges"/><text x="20" y="10" dominant-baseline="central" font-size="16" font-family="Arial" fill="black">YjbI</text><text x="57.5703125" y="10" dominant-baseline="central" font-size="12" font-family="Arial" fill="#858585">Uncharacterized protein YjbI, contains pentapeptide repeats [Function unknown]</text></g><g transform="translate(0,23)"><rect width="15" height="20" stroke="rgb(99, 148, 139)" fill="#8dd3c7" shape-rendering="crispEdges"/><text x="20" y="10" dominant-baseline="central" font-size="16" font-family="Arial" fill="black">RRM1_RBM6</text><text x="128.6875" y="10" dominant-baseline="central" font-size="12" font-family="Arial" fill="#858585">RNA recognition motif 1 in vertebrate RNA-binding protein 6 (RBM6)</text></g><g transform="translate(0,46)"><rect width="15" height="20" stroke="rgb(162, 162, 111)" fill="#E8E89E" shape-rendering="crispEdges"/><text x="20" y="10" dominant-baseline="central" font-size="16" font-family="Arial" fill="black">RRM2_RBM6</text><text x="128.6875" y="10" dominant-baseline="central" font-size="12" font-family="Arial" fill="#858585">RNA recognition motif 2 in vertebrate RNA-binding protein 6 (RBM6)</text></g><g transform="translate(0,69)"><rect width="15" height="20" stroke="rgb(99, 148, 139)" fill="#8dd3c7" shape-rendering="crispEdges"/><text x="20" y="10" dominant-baseline="central" font-size="16" font-family="Arial" fill="black">OCRE_RBM6</text><text x="129.578125" y="10" dominant-baseline="central" font-size="12" font-family="Arial" fill="#858585">OCRE domain found in RNA-binding protein 6 (RBM6) and similar proteins</text></g><g transform="translate(0,92)"><rect width="15" height="20" stroke="rgb(179, 152, 33)" fill="#ffd92f" shape-rendering="crispEdges"/><text x="20" y="10" dominant-baseline="central" font-size="16" font-family="Arial" fill="black">OCRE repeat 1</text><text x="139.3828125" y="10" dominant-baseline="central" font-size="12" font-family="Arial" fill="#858585">OCRE repeat 1 [structural motif]</text></g><g transform="translate(0,115)"><rect width="15" height="20" stroke="rgb(177, 126, 69)" fill="#fdb462" shape-rendering="crispEdges"/><text x="20" y="10" dominant-baseline="central" font-size="16" font-family="Arial" fill="black">OCRE repeat 2</text><text x="139.3828125" y="10" dominant-baseline="central" font-size="12" font-family="Arial" fill="#858585">OCRE repeat 2 [structural motif]</text></g><g transform="translate(0,138)"><rect width="15" height="20" stroke="rgb(133, 130, 153)" fill="#bebada" shape-rendering="crispEdges"/><text x="20" y="10" dominant-baseline="central" font-size="16" font-family="Arial" fill="black">OCRE repeat 3</text><text x="139.3828125" y="10" dominant-baseline="central" font-size="12" font-family="Arial" fill="#858585">OCRE repeat 3 [structural motif]</text></g><g transform="translate(0,161)"><rect width="15" height="20" stroke="rgb(176, 90, 80)" fill="#fb8072" shape-rendering="crispEdges"/><text x="20" y="10" dominant-baseline="central" font-size="16" font-family="Arial" fill="black">OCRE repeat 4</text><text x="139.3828125" y="10" dominant-baseline="central" font-size="12" font-family="Arial" fill="#858585">OCRE repeat 4 [structural motif]</text></g><g transform="translate(0,184)"><rect width="15" height="20" stroke="rgb(90, 124, 148)" fill="#80b1d3" shape-rendering="crispEdges"/><text x="20" y="10" dominant-baseline="central" font-size="16" font-family="Arial" fill="black">OCRE repeat 5</text><text x="139.3828125" y="10" dominant-baseline="central" font-size="12" font-family="Arial" fill="#858585">OCRE repeat 5 [structural motif]</text></g><g transform="translate(0,207)"><rect width="15" height="20" stroke="rgb(125, 125, 125)" fill="#b3b3b3" shape-rendering="crispEdges"/><text x="20" y="10" dominant-baseline="central" font-size="16" font-family="Arial" fill="black">G_patch</text><text x="90.484375" y="10" dominant-baseline="central" font-size="12" font-family="Arial" fill="#858585">glycine rich nucleic binding domain</text></g></g><g transform="translate(727.3984375,527.2796875)"><g transform="translate(0,0)"><circle cx="10" cy="10" r="10" fill="#3987CC"/><text x="30" y="10" dominant-baseline="central" font-size="16" font-family="Arial" fill="#3987CC">MISSENSE, n=6</text></g><g transform="translate(0,23)"><circle cx="10" cy="10" r="10" fill="#db3d3d"/><text x="30" y="10" dominant-baseline="central" font-size="16" font-family="Arial" fill="#db3d3d">FRAMESHIFT, n=1</text></g><g transform="translate(0,46)"><circle cx="10" cy="10" r="10" fill="#9467bd"/><text x="30" y="10" dominant-baseline="central" font-size="16" font-family="Arial" fill="#9467bd">SPLICE_REGION, n=1</text></g></g></svg>