<svg xmlns="http://www.w3.org/2000/svg" data-testid="sjpp_block_svg" width="1260.40625" height="619.3453125000001"><g transform="translate(0,0)"><g transform="translate(130.40625, 0)"/><rect fill="#FFFF99" x="917" width="2" height="464.34531250000003"/><g transform="translate(130.40625, 23)"><g transform="translate(0,0)"><text text-anchor="end" x="-13" y="-10" dominant-baseline="central" font-size="13" font-family="Arial">Protein length</text><g><g transform="translate(0,0)" fill="none" font-size="10" font-family="sans-serif" text-anchor="middle"><path class="domain" stroke="black" d="M0,-6V0H1020V-6" fill="none" stroke-width="1" shape-rendering="crispEdges"/><g class="tick" opacity="1" transform="translate(119.56937799043062,0)"><line stroke="black" y2="-6" shape-rendering="crispEdges"/><text fill="black" y="-9" dy="0em" font-family="Arial" font-size="12px" style="cursor: default;">50</text></g><g class="tick" opacity="1" transform="translate(241.57894736842104,0)"><line stroke="black" y2="-6" shape-rendering="crispEdges"/><text fill="black" y="-9" dy="0em" font-family="Arial" font-size="12px" style="cursor: default;">100</text></g><g class="tick" opacity="1" transform="translate(363.58851674641147,0)"><line stroke="black" y2="-6" shape-rendering="crispEdges"/><text fill="black" y="-9" dy="0em" font-family="Arial" font-size="12px" style="cursor: default;">150</text></g><g class="tick" opacity="1" transform="translate(485.5980861244019,0)"><line stroke="black" y2="-6" shape-rendering="crispEdges"/><text fill="black" y="-9" dy="0em" font-family="Arial" font-size="12px" style="cursor: default;">200</text></g><g class="tick" opacity="1" transform="translate(607.6076555023924,0)"><line stroke="black" y2="-6" shape-rendering="crispEdges"/><text fill="black" y="-9" dy="0em" font-family="Arial" font-size="12px" style="cursor: default;">250</text></g><g class="tick" opacity="1" transform="translate(729.6172248803828,0)"><line stroke="black" y2="-6" shape-rendering="crispEdges"/><text fill="black" y="-9" dy="0em" font-family="Arial" font-size="12px" style="cursor: default;">300</text></g><g class="tick" opacity="1" transform="translate(851.6267942583731,0)"><line stroke="black" y2="-6" shape-rendering="crispEdges"/><text fill="black" y="-9" dy="0em" font-family="Arial" font-size="12px" style="cursor: default;">350</text></g><g class="tick" opacity="1" transform="translate(973.6363636363636,0)"><line stroke="black" y2="-6" shape-rendering="crispEdges"/><text fill="black" y="-9" dy="0em" font-family="Arial" font-size="12px" style="cursor: default;">400</text></g></g></g><rect fill="white" fill-opacity="0" x="0" y="-23" width="1020" height="26"/></g><g transform="translate(1020, 0)"/></g><g data-testid="sja_sample_menu_opener" transform="translate(0, 191.1828155517578)"><g transform="translate(1150.40625, 0)"/><g transform="translate(130.40625, 0)"><rect fill="white" fill-opacity="0" width="1020" height="24"/><g transform="translate(0,0)" style="cursor: default;"><text x="510" text-anchor="middle" y="7" dominant-baseline="central" font-size="14px" font-family="Arial">GAMBL DLBCL: no mutation in undefined</text></g><g/><g transform="scale(0)"><rect fill="white" fill-opacity="0" width="1020" height="0"/><text data-testid="loading_message" fill="rgb(97, 124, 148)" fill-opacity="0" font-weight="bold" font-size="18px" text-anchor="middle" dominant-baseline="middle" x="510" y="15">Loading ...</text><line stroke="rgb(97, 124, 148)" stroke-width="2px" y1="30" y2="30" x2="0"/></g></g><g transform="translate(127.40625, 0)"><text font-size="14" font-family="Arial" y="7" text-anchor="end" dominant-baseline="central" fill="black" x="-10" font-weight="bold">GAMBL DLBCL</text><g/><text font-size="14" font-family="Arial" y="26" text-anchor="end" dominant-baseline="central" class="sja_clbtext2" fill="black" x="-10"/></g><g transform="translate(1160.40625, 0)"/></g><g data-testid="sja_sample_menu_opener" transform="translate(0, 348.1390686035156)"><g transform="translate(1150.40625, 0)"/><g transform="translate(130.40625, 0)"><rect fill="white" fill-opacity="0" width="1020" height="121.20625"/><g transform="translate(0,0)" style="cursor: default;"><g class="sja_skg" transform="translate(598.2536010742188, 23.799999237060547)"><g transform="translate(0, 7)" class="sja_aa_discg"><circle fill="#3987CC" stroke="white" r="6.5"/><text font-size="12" fill="#3987CC" x="8" y="3.5999999999999996" font-family="Arial" class="sja_aa_disclabel" fill-opacity="1" transform="scale(1) rotate(0)">p.Phe264Leu</text><circle r="6.5" stroke="#3987CC" class="sja_aa_disckick" fill="white" fill-opacity="0" stroke-opacity="0" transform="scale(1)"/><path d="M4.286263797015736e-16,-7L4.286263797015736e-16,-7Z" fill="#3987CC" class="sja_aa_discrim" fill-opacity="1" stroke-opacity="1"/></g><circle class="sja_aa_skkick" fill="white" fill-opacity="0" stroke="none" r="8" cy="7" transform="scale(0)"/><path class="sja_aa_stem" d="M0,0v0l0,0v-23.799999999999997" stroke="#3987CC" fill="none"/></g><g class="sja_skg" transform="translate(728.3971557617188, 23.799999237060547)"><g transform="translate(0, 7)" class="sja_aa_discg"><circle fill="#3987CC" stroke="white" r="6.5"/><text font-size="12" fill="#3987CC" x="8" y="3.5999999999999996" font-family="Arial" class="sja_aa_disclabel" fill-opacity="1" transform="scale(1) rotate(0)">p.Gln317Arg</text><circle r="6.5" stroke="#3987CC" class="sja_aa_disckick" fill="white" fill-opacity="0" stroke-opacity="0" transform="scale(1)"/><path d="M4.286263797015736e-16,-7L4.286263797015736e-16,-7Z" fill="#3987CC" class="sja_aa_discrim" fill-opacity="1" stroke-opacity="1"/></g><circle class="sja_aa_skkick" fill="white" fill-opacity="0" stroke="none" r="8" cy="7" transform="scale(0)"/><path class="sja_aa_stem" d="M0,0v0l0,0v-23.799999999999997" stroke="#3987CC" fill="none"/></g><g class="sja_skg" transform="translate(993.5645751953125, 23.799999237060547)"><g transform="translate(0, 7)" class="sja_aa_discg"><circle fill="#3987CC" stroke="white" r="6.5"/><text font-size="12" fill="#3987CC" x="8" y="3.5999999999999996" font-family="Arial" class="sja_aa_disclabel" fill-opacity="1" transform="rotate(90)">p.Leu426Val</text><circle r="6.5" stroke="#3987CC" class="sja_aa_disckick" fill="white" fill-opacity="0" stroke-opacity="0" transform="scale(1)"/><path d="M4.286263797015736e-16,-7L4.286263797015736e-16,-7Z" fill="#3987CC" class="sja_aa_discrim" fill-opacity="1" stroke-opacity="1"/></g><circle class="sja_aa_skkick" fill="white" fill-opacity="0" stroke="none" r="8" cy="7" transform="scale(0)"/><path class="sja_aa_stem" d="M0,0v0l0,0v-23.799999999999997" stroke="#3987CC" fill="none"/></g></g><g/><g transform="scale(0)"><rect fill="white" fill-opacity="0" width="1020" height="0"/><text data-testid="loading_message" fill="rgb(97, 124, 148)" fill-opacity="0" font-weight="bold" font-size="18px" text-anchor="middle" dominant-baseline="middle" x="510" y="15">Loading ...</text><line stroke="rgb(97, 124, 148)" stroke-width="2px" y1="30" y2="30" x2="0"/></g></g><g transform="translate(127.40625, 0)"><text font-size="14" font-family="Arial" y="7" text-anchor="end" dominant-baseline="central" fill="black" x="-10" font-weight="bold">GAMBL FL</text><g/><text font-size="14" font-family="Arial" y="26" text-anchor="end" dominant-baseline="central" class="sja_clbtext2" fill="black" x="-10">3 of 53 mutations</text></g><g transform="translate(1160.40625, 0)"/></g><g data-testid="sja_sample_menu_opener" transform="translate(0, 31)"><g transform="translate(1150.40625, 0)"/><g transform="translate(130.40625, 0)"><rect fill="white" fill-opacity="0" width="1020" height="113.1828125"/><g transform="translate(0,0)" style="cursor: default;"><g class="sja_skg" transform="translate(37.822967529296875, 79.3828125)"><g transform="translate(0, -7)" class="sja_aa_discg"><circle fill="#3987CC" stroke="white" r="6.5"/><text font-size="12" fill="#3987CC" x="8" y="3.5999999999999996" font-family="Arial" class="sja_aa_disclabel" fill-opacity="1" transform="scale(1) rotate(0)">p.Ala34Asp</text><circle r="6.5" stroke="#3987CC" class="sja_aa_disckick" fill="white" fill-opacity="0" stroke-opacity="0" transform="scale(1)"/><path d="M4.286263797015736e-16,-7L4.286263797015736e-16,-7Z" fill="#3987CC" class="sja_aa_discrim" fill-opacity="1" stroke-opacity="1"/></g><circle class="sja_aa_skkick" fill="white" fill-opacity="0" stroke="none" r="8" cy="-7" transform="scale(0)"/><path class="sja_aa_stem" d="M0,0v0l0,0v23.799999999999997" stroke="#3987CC" fill="none"/></g><g class="sja_skg" transform="translate(425.8133850097656, 79.3828125)"><g transform="translate(0, -7)" class="sja_aa_discg"><circle fill="#3987CC" stroke="white" r="6.5"/><text font-size="12" fill="#3987CC" x="8" y="3.5999999999999996" font-family="Arial" class="sja_aa_disclabel" fill-opacity="1" transform="scale(1) rotate(0)">p.Ile193Asn</text><circle r="6.5" stroke="#3987CC" class="sja_aa_disckick" fill="white" fill-opacity="0" stroke-opacity="0" transform="scale(1)"/><path d="M4.286263797015736e-16,-7L4.286263797015736e-16,-7Z" fill="#3987CC" class="sja_aa_discrim" fill-opacity="1" stroke-opacity="1"/></g><circle class="sja_aa_skkick" fill="white" fill-opacity="0" stroke="none" r="8" cy="-7" transform="scale(0)"/><path class="sja_aa_stem" d="M0,0v0l0,0v23.799999999999997" stroke="#3987CC" fill="none"/></g></g><g/><g transform="scale(0)"><rect fill="white" fill-opacity="0" width="1020" height="0"/><text data-testid="loading_message" fill="rgb(97, 124, 148)" fill-opacity="0" font-weight="bold" font-size="18px" text-anchor="middle" dominant-baseline="middle" x="510" y="15">Loading ...</text><line stroke="rgb(97, 124, 148)" stroke-width="2px" y1="30" y2="30" x2="0"/></g></g><g transform="translate(127.40625, 0)"><text font-size="14" font-family="Arial" y="7" text-anchor="end" dominant-baseline="central" fill="black" x="-10" font-weight="bold">GAMBL BL</text><g/><text font-size="14" font-family="Arial" y="26" text-anchor="end" dominant-baseline="central" class="sja_clbtext2" fill="black" x="-10">2 of 77 mutations</text></g><g transform="translate(1160.40625, 0)"/></g><g data-testid="sja_sample_menu_opener" transform="translate(0, 215.1828155517578)"><g transform="translate(1150.40625, 0)"/><g transform="translate(130.40625, 0)"><rect fill="white" fill-opacity="0" width="1020" height="132.95625"/><g transform="translate(0,0)" style="cursor: default;"><g class="sja_skg" transform="translate(663.3253784179688, 23.799999237060547)"><g transform="translate(0, 7)" class="sja_aa_discg"><circle fill="#3987CC" stroke="white" r="6.5"/><text font-size="12" fill="#3987CC" x="8" y="3.5999999999999996" font-family="Arial" class="sja_aa_disclabel" fill-opacity="1" transform="scale(1) rotate(0)">p.Val290Asp</text><circle r="6.5" stroke="#3987CC" class="sja_aa_disckick" fill="white" fill-opacity="0" stroke-opacity="0" transform="scale(1)"/><path d="M4.286263797015736e-16,-7L4.286263797015736e-16,-7Z" fill="#3987CC" class="sja_aa_discrim" fill-opacity="1" stroke-opacity="1"/></g><circle class="sja_aa_skkick" fill="white" fill-opacity="0" stroke="none" r="8" cy="7" transform="scale(0)"/><path class="sja_aa_stem" d="M0,0v0l0,0v-23.799999999999997" stroke="#3987CC" fill="none"/></g><g class="sja_skg" transform="translate(869.1148071289062, 23.799999237060547)"><g transform="translate(0, 7)" class="sja_aa_discg"><circle fill="#2ca02c" stroke="white" r="6.5"/><text font-size="12" fill="#2ca02c" x="8" y="3.5999999999999996" font-family="Arial" class="sja_aa_disclabel" fill-opacity="1" transform="scale(1) rotate(0)">c.1123C&gt;T(p.=)</text><circle r="6.5" stroke="#2ca02c" class="sja_aa_disckick" fill="white" fill-opacity="0" stroke-opacity="0" transform="scale(1)"/><path d="M4.286263797015736e-16,-7L4.286263797015736e-16,-7Z" fill="#2ca02c" class="sja_aa_discrim" fill-opacity="1" stroke-opacity="1"/></g><circle class="sja_aa_skkick" fill="white" fill-opacity="0" stroke="none" r="8" cy="7" transform="scale(0)"/><path class="sja_aa_stem" d="M0,0v0l0,0v-23.799999999999997" stroke="#2ca02c" fill="none"/></g></g><g/><g transform="scale(0)"><rect fill="white" fill-opacity="0" width="1020" height="0"/><text data-testid="loading_message" fill="rgb(97, 124, 148)" fill-opacity="0" font-weight="bold" font-size="18px" text-anchor="middle" dominant-baseline="middle" x="510" y="15">Loading ...</text><line stroke="rgb(97, 124, 148)" stroke-width="2px" y1="30" y2="30" x2="0"/></g></g><g transform="translate(127.40625, 0)"><text font-size="14" font-family="Arial" y="7" text-anchor="end" dominant-baseline="central" fill="black" x="-10" font-weight="bold">GAMBL MCL</text><g/><text font-size="14" font-family="Arial" y="26" text-anchor="end" dominant-baseline="central" class="sja_clbtext2" fill="black" x="-10">2 of 7 mutations</text></g><g transform="translate(1160.40625, 0)"/></g><g data-testid="sja_sample_menu_opener" transform="translate(0, 144.1828155517578)"><g transform="translate(1150.40625, 0)"/><g transform="translate(130.40625, 0)"><rect fill="white" fill-opacity="0" width="1020" height="47"/><g transform="translate(0,0)" style="cursor: default;"><g><line x1="0" y1="18.5" x2="1020" y2="18.5" stroke="black" shape-rendering="crispEdges"/><rect x="0" width="510.8133971291866" height="37" fill="white"/><rect x="510.8133971291866" width="222.87081339712918" height="37" fill="white"/><rect x="733.6842105263158" width="120.38277511961724" height="37" fill="white"/><rect x="854.0669856459331" width="165.93301435406698" height="37" fill="white"/><line x1="0" x2="1020" stroke="black"/><line x1="0" x2="1020" y1="37" y2="37" stroke="black"/><line x1="1020" x2="1020" y2="37" stroke="black"/><line x1="0" x2="0" y2="37" stroke="black"/><line class="exonboundaryclass" x1="510.8133971291866" x2="510.8133971291866" y1="0" y2="37" stroke="black" stroke-dasharray="4,2" shape-rendering="crispEdges" stroke-opacity="1"/><line class="exonboundaryclass" x1="733.6842105263158" x2="733.6842105263158" y1="0" y2="37" stroke="black" stroke-dasharray="4,2" shape-rendering="crispEdges" stroke-opacity="1"/><line class="exonboundaryclass" x1="854.0669856459331" x2="854.0669856459331" y1="0" y2="37" stroke="black" stroke-dasharray="4,2" shape-rendering="crispEdges" stroke-opacity="1"/><g transform="translate(0,18.5)" fill="none" font-size="10" font-family="sans-serif" text-anchor="middle"><path class="domain" stroke="none" d="M1.2200956937799043,0H1020" fill="none" stroke-width="0" shape-rendering="crispEdges"/><g class="tick" opacity="1" transform="translate(120.69412330303794,0)"><line stroke="black" y2="0" shape-rendering="crispEdges"/><text fill="black" y="3" dy="0.71em" font-family="Arial" font-size="11.666666666666666px" style="cursor: default;">50</text></g><g class="tick" opacity="1" transform="translate(242.60639637370937,0)"><line stroke="black" y2="0" shape-rendering="crispEdges"/><text fill="black" y="3" dy="0.71em" font-family="Arial" font-size="11.666666666666666px" style="cursor: default;">100</text></g><g class="tick" opacity="1" transform="translate(364.51866944438086,0)"><line stroke="black" y2="0" shape-rendering="crispEdges"/><text fill="black" y="3" dy="0.71em" font-family="Arial" font-size="11.666666666666666px" style="cursor: default;">150</text></g><g class="tick" opacity="1" transform="translate(486.4309425150523,0)"><line stroke="black" y2="0" shape-rendering="crispEdges"/><text fill="black" y="3" dy="0.71em" font-family="Arial" font-size="11.666666666666666px" style="cursor: default;">200</text></g><g class="tick" opacity="1" transform="translate(609.0065197959934,0)"><line stroke="black" y2="0" shape-rendering="crispEdges"/><text fill="black" y="3" dy="0.71em" font-family="Arial" font-size="11.666666666666666px" style="cursor: default;">250</text></g><g class="tick" opacity="1" transform="translate(731.2395499237605,0)"><line stroke="black" y2="0" shape-rendering="crispEdges"/><text fill="black" y="3" dy="0.71em" font-family="Arial" font-size="11.666666666666666px" style="cursor: default;">300</text></g><g class="tick" opacity="1" transform="translate(851.6511961722489,0)"><line stroke="black" y2="0" shape-rendering="crispEdges"/><text fill="black" y="3" dy="0.71em" font-family="Arial" font-size="11.666666666666666px" style="cursor: default;">350</text></g><g class="tick" opacity="1" transform="translate(973.9772727272727,0)"><line stroke="black" y2="0" shape-rendering="crispEdges"/><text fill="black" y="3" dy="0.71em" font-family="Arial" font-size="11.666666666666666px" style="cursor: default;">400</text></g></g><rect x="0" width="510.8133971291866" height="37" fill="#858585" fill-opacity="0"/><rect x="510.8133971291866" width="222.87081339712918" height="37" fill="#858585" fill-opacity="0"/><rect x="733.6842105263158" width="120.38277511961724" height="37" fill="#858585" fill-opacity="0"/><rect x="854.0669856459331" width="165.93301435406698" height="37" fill="#858585" fill-opacity="0"/></g></g><g/><g transform="scale(0)"><rect fill="white" fill-opacity="0"/><text data-testid="loading_message" fill="rgb(97, 124, 148)" fill-opacity="0" font-weight="bold" font-size="18px" text-anchor="middle" dominant-baseline="middle">Loading ...</text><line stroke="rgb(97, 124, 148)" stroke-width="2px"/></g></g><g transform="translate(127.40625, 0)"><text font-size="14" font-family="Arial" y="7" text-anchor="end" dominant-baseline="central" fill="black" x="-10" font-weight="bold">SERPINA9</text><text font-size="14" font-family="Arial" y="20" text-anchor="end" dominant-baseline="central" fill="black" x="-10">NM_175739</text></g><g transform="translate(1160.40625, 0)"><text fill="#aaa" font-family="Arial" font-size="14" y="14" class="sja_clbtext2"/></g></g></g><g transform="scale(0)"><rect fill="white"/><text id="loadinggCloak" fill="rgb(97, 124, 148)" fill-opacity="0" font-weight="bold" font-size="18px" text-anchor="middle" dominant-baseline="middle">Loading ...</text></g><g/><g transform="translate(952.40625,484.34531250000003)"><g transform="translate(0,0)"><circle cx="10" cy="10" r="10" fill="#3987CC"/><text x="30" y="10" dominant-baseline="central" font-size="16" font-family="Arial" fill="#3987CC">MISSENSE, n=9</text></g><g transform="translate(0,23)"><circle cx="10" cy="10" r="10" fill="#998199"/><text x="30" y="10" dominant-baseline="central" font-size="16" font-family="Arial" fill="#998199">UTR_3, n=2</text></g><g transform="translate(0,46)"><circle cx="10" cy="10" r="10" fill="#9467bd"/><text x="30" y="10" dominant-baseline="central" font-size="16" font-family="Arial" fill="#9467bd">SPLICE_REGION, n=2</text></g><g transform="translate(0,69)"><circle cx="10" cy="10" r="10" fill="#ff7f0e"/><text x="30" y="10" dominant-baseline="central" font-size="16" font-family="Arial" fill="#ff7f0e">NONSENSE, n=2</text></g><g transform="translate(0,92)"><circle cx="10" cy="10" r="10" fill="#2ca02c"/><text x="30" y="10" dominant-baseline="central" font-size="16" font-family="Arial" fill="#2ca02c">SILENT, n=1</text></g></g></svg>