<svg xmlns="http://www.w3.org/2000/svg" data-testid="sjpp_block_svg" width="1495.3984375" height="232"><g transform="translate(0,0)"><g transform="translate(125.3984375, 0)"/><rect fill="#FFFF99" x="856" width="0" height="169"/><g transform="translate(125.3984375, 23)"><g transform="translate(0,0)"><text text-anchor="end" x="-13" y="-10" dominant-baseline="central" font-size="13" font-family="Arial">Protein length</text><g><g transform="translate(0,0)" fill="none" font-size="10" font-family="sans-serif" text-anchor="middle"><path class="domain" stroke="black" d="M0,-6V0H1260V-6" fill="none" stroke-width="1" shape-rendering="crispEdges"/><g class="tick" opacity="1" transform="translate(101.08589951377634,0)"><line stroke="black" y2="-6" shape-rendering="crispEdges"/><text fill="black" y="-9" dy="0em" font-family="Arial" font-size="12px" style="cursor: default;">100</text></g><g class="tick" opacity="1" transform="translate(203.19286871961103,0)"><line stroke="black" y2="-6" shape-rendering="crispEdges"/><text fill="black" y="-9" dy="0em" font-family="Arial" font-size="12px" style="cursor: default;">200</text></g><g class="tick" opacity="1" transform="translate(305.2998379254457,0)"><line stroke="black" y2="-6" shape-rendering="crispEdges"/><text fill="black" y="-9" dy="0em" font-family="Arial" font-size="12px" style="cursor: default;">300</text></g><g class="tick" opacity="1" transform="translate(407.4068071312804,0)"><line stroke="black" y2="-6" shape-rendering="crispEdges"/><text fill="black" y="-9" dy="0em" font-family="Arial" font-size="12px" style="cursor: default;">400</text></g><g class="tick" opacity="1" transform="translate(509.51377633711513,0)"><line stroke="black" y2="-6" shape-rendering="crispEdges"/><text fill="black" y="-9" dy="0em" font-family="Arial" font-size="12px" style="cursor: default;">500</text></g><g class="tick" opacity="1" transform="translate(611.6207455429497,0)"><line stroke="black" y2="-6" shape-rendering="crispEdges"/><text fill="black" y="-9" dy="0em" font-family="Arial" font-size="12px" style="cursor: default;">600</text></g><g class="tick" opacity="1" transform="translate(713.7277147487844,0)"><line stroke="black" y2="-6" shape-rendering="crispEdges"/><text fill="black" y="-9" dy="0em" font-family="Arial" font-size="12px" style="cursor: default;">700</text></g><g class="tick" opacity="1" transform="translate(815.8346839546191,0)"><line stroke="black" y2="-6" shape-rendering="crispEdges"/><text fill="black" y="-9" dy="0em" font-family="Arial" font-size="12px" style="cursor: default;">800</text></g><g class="tick" opacity="1" transform="translate(917.9416531604538,0)"><line stroke="black" y2="-6" shape-rendering="crispEdges"/><text fill="black" y="-9" dy="0em" font-family="Arial" font-size="12px" style="cursor: default;">900</text></g><g class="tick" opacity="1" transform="translate(1020.0486223662884,0)"><line stroke="black" y2="-6" shape-rendering="crispEdges"/><text fill="black" y="-9" dy="0em" font-family="Arial" font-size="12px" style="cursor: default;">1000</text></g><g class="tick" opacity="1" transform="translate(1122.155591572123,0)"><line stroke="black" y2="-6" shape-rendering="crispEdges"/><text fill="black" y="-9" dy="0em" font-family="Arial" font-size="12px" style="cursor: default;">1100</text></g><g class="tick" opacity="1" transform="translate(1224.2625607779578,0)"><line stroke="black" y2="-6" shape-rendering="crispEdges"/><text fill="black" y="-9" dy="0em" font-family="Arial" font-size="12px" style="cursor: default;">1200</text></g></g></g><rect fill="white" fill-opacity="0" x="0" y="-23" width="1260" height="26"/></g><g transform="translate(1260, 0)"/></g><g data-testid="sja_sample_menu_opener" transform="translate(0, 31)"><g transform="translate(1385.3984375, 0)"/><g transform="translate(125.3984375, 0)"><rect fill="white" fill-opacity="0" width="1260" height="24"/><g transform="translate(0,0)" style="cursor: default;"/><g/><g transform="scale(0)"><rect fill="white" fill-opacity="0.5" width="1260" height="0"/><text data-testid="loading_message" fill="rgb(97, 124, 148)" fill-opacity="1" font-weight="bold" font-size="18px" text-anchor="middle" dominant-baseline="middle" x="630" y="15">Loading ...</text><line stroke="rgb(97, 124, 148)" stroke-width="2px" y1="30" y2="30" x2="0"/></g></g><g transform="translate(122.3984375, 0)"><text font-size="14" font-family="Arial" y="7" text-anchor="end" dominant-baseline="central" fill="black" x="-10" font-weight="bold">GAMBL DLBCL</text><g/><text font-size="14" font-family="Arial" y="26" text-anchor="end" dominant-baseline="central" class="sja_clbtext2" fill="black" x="-10"/></g><g transform="translate(1395.3984375, 0)"/></g><g data-testid="sja_sample_menu_opener" transform="translate(0, 102)"><g transform="translate(1385.3984375, 0)"/><g transform="translate(125.3984375,0)"><rect fill="white" fill-opacity="0" width="1260" height="24"/><g transform="translate(0,0)" style="cursor: default;"/><g/><g transform="scale(0)"><rect fill="white" fill-opacity="0.5" width="1260" height="0"/><text data-testid="loading_message" fill="rgb(97, 124, 148)" fill-opacity="1" font-weight="bold" font-size="18px" text-anchor="middle" dominant-baseline="middle" x="630" y="15">Loading ...</text><line stroke="rgb(97, 124, 148)" stroke-width="2px" y1="30" y2="30" x2="0"/></g></g><g transform="translate(122.3984375,0)"><text font-size="14" font-family="Arial" y="7" text-anchor="end" dominant-baseline="central" fill="black" x="-10" font-weight="bold">GAMBL FL</text><g/><text font-size="14" font-family="Arial" y="26" text-anchor="end" dominant-baseline="central" class="sja_clbtext2" fill="black" x="-10"/></g><g transform="translate(1395.3984375,0)"/></g><g data-testid="sja_sample_menu_opener" transform="translate(0, 126)"><g transform="translate(1385.3984375, 0)"/><g transform="translate(125.3984375,0)"><rect fill="white" fill-opacity="0" width="1260" height="24"/><g transform="translate(0,0)" style="cursor: default;"/><g/><g transform="scale(0)"><rect fill="white" fill-opacity="0.5" width="1260" height="0"/><text data-testid="loading_message" fill="rgb(97, 124, 148)" fill-opacity="1" font-weight="bold" font-size="18px" text-anchor="middle" dominant-baseline="middle" x="630" y="15">Loading ...</text><line stroke="rgb(97, 124, 148)" stroke-width="2px" y1="30" y2="30" x2="0"/></g></g><g transform="translate(122.3984375,0)"><text font-size="14" font-family="Arial" y="7" text-anchor="end" dominant-baseline="central" fill="black" x="-10" font-weight="bold">GAMBL BL</text><g/><text font-size="14" font-family="Arial" y="26" text-anchor="end" dominant-baseline="central" class="sja_clbtext2" fill="black" x="-10"/></g><g transform="translate(1395.3984375,0)"/></g><g data-testid="sja_sample_menu_opener" transform="translate(0, 150)"><g transform="translate(1385.3984375, 0)"/><g transform="translate(125.3984375,0)"><rect fill="white" fill-opacity="0" width="1260" height="24"/><g transform="translate(0,0)" style="cursor: default;"/><g/><g transform="scale(0)"><rect fill="white" fill-opacity="0.5" width="1260" height="0"/><text data-testid="loading_message" fill="rgb(97, 124, 148)" fill-opacity="1" font-weight="bold" font-size="18px" text-anchor="middle" dominant-baseline="middle" x="630" y="15">Loading ...</text><line stroke="rgb(97, 124, 148)" stroke-width="2px" y1="30" y2="30" x2="0"/></g></g><g transform="translate(122.3984375,0)"><text font-size="14" font-family="Arial" y="7" text-anchor="end" dominant-baseline="central" fill="black" x="-10" font-weight="bold">GAMBL MCL</text><g/><text font-size="14" font-family="Arial" y="26" text-anchor="end" dominant-baseline="central" class="sja_clbtext2" fill="black" x="-10"/></g><g transform="translate(1395.3984375,0)"/></g><g data-testid="sja_sample_menu_opener" transform="translate(0, 55)"><g transform="translate(1385.3984375, 0)"/><g transform="translate(125.3984375,0)"><rect fill="white" fill-opacity="0" width="1260" height="47"/><g transform="translate(0,0)" style="cursor: default;"><g><line x1="0" y1="18.5" x2="1260.0000000000002" y2="18.5" stroke="black" shape-rendering="crispEdges"/><rect x="0" width="37.09886547811994" height="37" fill="white"/><rect x="2.0421393841166937" width="35.056726094003245" height="37" fill="#8dd3c7"/><rect x="37.09886547811994" width="64.32739059967585" height="37" fill="white"/><rect x="37.09886547811994" width="64.32739059967585" height="37" fill="#8dd3c7"/><rect x="101.42625607779578" width="38.46029173419773" height="37" fill="white"/><rect x="101.42625607779578" width="38.46029173419773" height="37" fill="#8dd3c7"/><rect x="139.88654781199352" width="69.43273905996759" height="37" fill="white"/><rect x="139.88654781199352" width="69.43273905996759" height="37" fill="#8dd3c7"/><rect x="209.3192868719611" width="81.3452188006483" height="37" fill="white"/><rect x="209.3192868719611" width="81.3452188006483" height="37" fill="#8dd3c7"/><rect x="290.6645056726094" width="88.15235008103728" height="37" fill="white"/><rect x="290.6645056726094" width="88.15235008103728" height="37" fill="#8dd3c7"/><rect x="378.8168557536467" width="47.9902755267423" height="37" fill="white"/><rect x="378.8168557536467" width="47.9902755267423" height="37" fill="#8dd3c7"/><rect x="426.807131280389" width="28.249594813614266" height="37" fill="white"/><rect x="426.807131280389" width="28.249594813614266" height="37" fill="#8dd3c7"/><rect x="455.05672609400324" width="70.79416531604538" height="37" fill="white"/><rect x="455.05672609400324" width="70.79416531604538" height="37" fill="#8dd3c7"/><rect x="525.8508914100486" width="63.30632090761751" height="37" fill="white"/><rect x="525.8508914100486" width="63.30632090761751" height="37" fill="#8dd3c7"/><rect x="589.1572123176661" width="61.26418152350082" height="37" fill="white"/><rect x="589.1572123176661" width="61.26418152350082" height="37" fill="#8dd3c7"/><rect x="650.421393841167" width="50.032414910858996" height="37" fill="white"/><rect x="650.421393841167" width="50.032414910858996" height="37" fill="#8dd3c7"/><rect x="700.4538087520259" width="46.969205834683954" height="37" fill="white"/><rect x="700.4538087520259" width="46.969205834683954" height="37" fill="#8dd3c7"/><rect x="747.4230145867099" width="39.82171799027553" height="37" fill="white"/><rect x="747.4230145867099" width="39.82171799027553" height="37" fill="#8dd3c7"/><rect x="787.2447325769854" width="36.41815235008104" height="37" fill="white"/><rect x="787.2447325769854" width="36.41815235008104" height="37" fill="#8dd3c7"/><rect x="823.6628849270664" width="48.33063209076175" height="37" fill="white"/><rect x="823.6628849270664" width="48.33063209076175" height="37" fill="#8dd3c7"/><rect x="871.9935170178283" width="49.69205834683955" height="37" fill="white"/><rect x="871.9935170178283" width="49.69205834683955" height="37" fill="#8dd3c7"/><rect x="921.6855753646678" width="52.41491085899514" height="37" fill="white"/><rect x="921.6855753646678" width="52.41491085899514" height="37" fill="#8dd3c7"/><rect x="974.100486223663" width="37.779578606158836" height="37" fill="white"/><rect x="974.100486223663" width="37.779578606158836" height="37" fill="#8dd3c7"/><rect x="1011.8800648298218" width="53.43598055105349" height="37" fill="white"/><rect x="1011.8800648298218" width="53.43598055105349" height="37" fill="#8dd3c7"/><rect x="1065.3160453808753" width="52.755267423014594" height="37" fill="white"/><rect x="1065.3160453808753" width="52.755267423014594" height="37" fill="#8dd3c7"/><rect x="1118.07131280389" width="51.73419773095625" height="37" fill="white"/><rect x="1118.07131280389" width="51.73419773095625" height="37" fill="#8dd3c7"/><rect x="1169.8055105348462" width="23.82495948136143" height="37" fill="white"/><rect x="1169.8055105348462" width="23.82495948136143" height="37" fill="#8dd3c7"/><rect x="1193.6304700162077" width="37.779578606158836" height="37" fill="white"/><rect x="1193.6304700162077" width="37.779578606158836" height="37" fill="#8dd3c7"/><rect x="1231.4100486223665" width="28.589951377633714" height="37" fill="white"/><rect x="1231.4100486223665" width="4.084278768233387" height="37" fill="#8dd3c7"/><line x1="0" x2="1260.0000000000002" stroke="black"/><line x1="0" x2="1260.0000000000002" y1="37" y2="37" stroke="black"/><line x1="1260.0000000000002" x2="1260.0000000000002" y2="37" stroke="black"/><line x1="0" x2="0" y2="37" stroke="black"/><line class="exonboundaryclass" x1="37.09886547811994" x2="37.09886547811994" y1="0" y2="37" stroke="black" stroke-dasharray="4,2" shape-rendering="crispEdges" stroke-opacity="1"/><line class="exonboundaryclass" x1="101.42625607779578" x2="101.42625607779578" y1="0" y2="37" stroke="black" stroke-dasharray="4,2" shape-rendering="crispEdges" stroke-opacity="1"/><line class="exonboundaryclass" x1="139.88654781199352" x2="139.88654781199352" y1="0" y2="37" stroke="black" stroke-dasharray="4,2" shape-rendering="crispEdges" stroke-opacity="1"/><line class="exonboundaryclass" x1="209.3192868719611" x2="209.3192868719611" y1="0" y2="37" stroke="black" stroke-dasharray="4,2" shape-rendering="crispEdges" stroke-opacity="1"/><line class="exonboundaryclass" x1="290.6645056726094" x2="290.6645056726094" y1="0" y2="37" stroke="black" stroke-dasharray="4,2" shape-rendering="crispEdges" stroke-opacity="1"/><line class="exonboundaryclass" x1="378.8168557536467" x2="378.8168557536467" y1="0" y2="37" stroke="black" stroke-dasharray="4,2" shape-rendering="crispEdges" stroke-opacity="1"/><line class="exonboundaryclass" x1="426.807131280389" x2="426.807131280389" y1="0" y2="37" stroke="black" stroke-dasharray="4,2" shape-rendering="crispEdges" stroke-opacity="1"/><line class="exonboundaryclass" x1="455.05672609400324" x2="455.05672609400324" y1="0" y2="37" stroke="black" stroke-dasharray="4,2" shape-rendering="crispEdges" stroke-opacity="1"/><line class="exonboundaryclass" x1="525.8508914100486" x2="525.8508914100486" y1="0" y2="37" stroke="black" stroke-dasharray="4,2" shape-rendering="crispEdges" stroke-opacity="1"/><line class="exonboundaryclass" x1="589.1572123176661" x2="589.1572123176661" y1="0" y2="37" stroke="black" stroke-dasharray="4,2" shape-rendering="crispEdges" stroke-opacity="1"/><line class="exonboundaryclass" x1="650.421393841167" x2="650.421393841167" y1="0" y2="37" stroke="black" stroke-dasharray="4,2" shape-rendering="crispEdges" stroke-opacity="1"/><line class="exonboundaryclass" x1="700.4538087520259" x2="700.4538087520259" y1="0" y2="37" stroke="black" stroke-dasharray="4,2" shape-rendering="crispEdges" stroke-opacity="1"/><line class="exonboundaryclass" x1="747.4230145867099" x2="747.4230145867099" y1="0" y2="37" stroke="black" stroke-dasharray="4,2" shape-rendering="crispEdges" stroke-opacity="1"/><line class="exonboundaryclass" x1="787.2447325769854" x2="787.2447325769854" y1="0" y2="37" stroke="black" stroke-dasharray="4,2" shape-rendering="crispEdges" stroke-opacity="1"/><line class="exonboundaryclass" x1="823.6628849270664" x2="823.6628849270664" y1="0" y2="37" stroke="black" stroke-dasharray="4,2" shape-rendering="crispEdges" stroke-opacity="1"/><line class="exonboundaryclass" x1="871.9935170178283" x2="871.9935170178283" y1="0" y2="37" stroke="black" stroke-dasharray="4,2" shape-rendering="crispEdges" stroke-opacity="1"/><line class="exonboundaryclass" x1="921.6855753646678" x2="921.6855753646678" y1="0" y2="37" stroke="black" stroke-dasharray="4,2" shape-rendering="crispEdges" stroke-opacity="1"/><line class="exonboundaryclass" x1="974.100486223663" x2="974.100486223663" y1="0" y2="37" stroke="black" stroke-dasharray="4,2" shape-rendering="crispEdges" stroke-opacity="1"/><line class="exonboundaryclass" x1="1011.8800648298218" x2="1011.8800648298218" y1="0" y2="37" stroke="black" stroke-dasharray="4,2" shape-rendering="crispEdges" stroke-opacity="1"/><line class="exonboundaryclass" x1="1065.3160453808753" x2="1065.3160453808753" y1="0" y2="37" stroke="black" stroke-dasharray="4,2" shape-rendering="crispEdges" stroke-opacity="1"/><line class="exonboundaryclass" x1="1118.07131280389" x2="1118.07131280389" y1="0" y2="37" stroke="black" stroke-dasharray="4,2" shape-rendering="crispEdges" stroke-opacity="1"/><line class="exonboundaryclass" x1="1169.8055105348462" x2="1169.8055105348462" y1="0" y2="37" stroke="black" stroke-dasharray="4,2" shape-rendering="crispEdges" stroke-opacity="1"/><line class="exonboundaryclass" x1="1193.6304700162077" x2="1193.6304700162077" y1="0" y2="37" stroke="black" stroke-dasharray="4,2" shape-rendering="crispEdges" stroke-opacity="1"/><line class="exonboundaryclass" x1="1231.4100486223665" x2="1231.4100486223665" y1="0" y2="37" stroke="black" stroke-dasharray="4,2" shape-rendering="crispEdges" stroke-opacity="1"/><g transform="translate(0,18.5)" fill="none" font-size="10" font-family="sans-serif" text-anchor="middle"><path class="domain" stroke="none" d="M0.5105348460291734,0H1260.0000000000002" fill="none" stroke-width="0" shape-rendering="crispEdges"/><g class="tick" opacity="1" transform="translate(101.59643435980551,0)"><line stroke="black" y2="0" shape-rendering="crispEdges"/><text fill="black" y="3" dy="0.71em" font-family="Arial" font-size="11.666666666666666px" style="cursor: default;">100</text></g><g class="tick" opacity="1" transform="translate(203.23791591190772,0)"><line stroke="black" y2="0" shape-rendering="crispEdges"/><text fill="black" y="3" dy="0.71em" font-family="Arial" font-size="11.666666666666666px" style="cursor: default;">200</text></g><g class="tick" opacity="1" transform="translate(305.7223495221595,0)"><line stroke="black" y2="0" shape-rendering="crispEdges"/><text fill="black" y="3" dy="0.71em" font-family="Arial" font-size="11.666666666666666px" style="cursor: default;">300</text></g><g class="tick" opacity="1" transform="translate(407.61319355839856,0)"><line stroke="black" y2="0" shape-rendering="crispEdges"/><text fill="black" y="3" dy="0.71em" font-family="Arial" font-size="11.666666666666666px" style="cursor: default;">400</text></g><g class="tick" opacity="1" transform="translate(509.6304700162074,0)"><line stroke="black" y2="0" shape-rendering="crispEdges"/><text fill="black" y="3" dy="0.71em" font-family="Arial" font-size="11.666666666666666px" style="cursor: default;">500</text></g><g class="tick" opacity="1" transform="translate(611.9440842787682,0)"><line stroke="black" y2="0" shape-rendering="crispEdges"/><text fill="black" y="3" dy="0.71em" font-family="Arial" font-size="11.666666666666666px" style="cursor: default;">600</text></g><g class="tick" opacity="1" transform="translate(714.0939680078923,0)"><line stroke="black" y2="0" shape-rendering="crispEdges"/><text fill="black" y="3" dy="0.71em" font-family="Arial" font-size="11.666666666666666px" style="cursor: default;">700</text></g><g class="tick" opacity="1" transform="translate(816.4813614262561,0)"><line stroke="black" y2="0" shape-rendering="crispEdges"/><text fill="black" y="3" dy="0.71em" font-family="Arial" font-size="11.666666666666666px" style="cursor: default;">800</text></g><g class="tick" opacity="1" transform="translate(918.6117301458672,0)"><line stroke="black" y2="0" shape-rendering="crispEdges"/><text fill="black" y="3" dy="0.71em" font-family="Arial" font-size="11.666666666666666px" style="cursor: default;">900</text></g><g class="tick" opacity="1" transform="translate(1020.5329759381624,0)"><line stroke="black" y2="0" shape-rendering="crispEdges"/><text fill="black" y="3" dy="0.71em" font-family="Arial" font-size="11.666666666666666px" style="cursor: default;">1000</text></g><g class="tick" opacity="1" transform="translate(1122.6797406807134,0)"><line stroke="black" y2="0" shape-rendering="crispEdges"/><text fill="black" y="3" dy="0.71em" font-family="Arial" font-size="11.666666666666666px" style="cursor: default;">1100</text></g><g class="tick" opacity="1" transform="translate(1224.3591484515312,0)"><line stroke="black" y2="0" shape-rendering="crispEdges"/><text fill="black" y="3" dy="0.71em" font-family="Arial" font-size="11.666666666666666px" style="cursor: default;">1200</text></g></g><rect x="0" width="37.09886547811994" height="37" fill="#858585" fill-opacity="0"/><rect x="37.09886547811994" width="64.32739059967585" height="37" fill="#858585" fill-opacity="0"/><rect x="101.42625607779578" width="38.46029173419773" height="37" fill="#858585" fill-opacity="0"/><rect x="139.88654781199352" width="69.43273905996759" height="37" fill="#858585" fill-opacity="0"/><rect x="209.3192868719611" width="81.3452188006483" height="37" fill="#858585" fill-opacity="0"/><rect x="290.6645056726094" width="88.15235008103728" height="37" fill="#858585" fill-opacity="0"/><rect x="378.8168557536467" width="47.9902755267423" height="37" fill="#858585" fill-opacity="0"/><rect x="426.807131280389" width="28.249594813614266" height="37" fill="#858585" fill-opacity="0"/><rect x="455.05672609400324" width="70.79416531604538" height="37" fill="#858585" fill-opacity="0"/><rect x="525.8508914100486" width="63.30632090761751" height="37" fill="#858585" fill-opacity="0"/><rect x="589.1572123176661" width="61.26418152350082" height="37" fill="#858585" fill-opacity="0"/><rect x="650.421393841167" width="50.032414910858996" height="37" fill="#858585" fill-opacity="0"/><rect x="700.4538087520259" width="46.969205834683954" height="37" fill="#858585" fill-opacity="0"/><rect x="747.4230145867099" width="39.82171799027553" height="37" fill="#858585" fill-opacity="0"/><rect x="787.2447325769854" width="36.41815235008104" height="37" fill="#858585" fill-opacity="0"/><rect x="823.6628849270664" width="48.33063209076175" height="37" fill="#858585" fill-opacity="0"/><rect x="871.9935170178283" width="49.69205834683955" height="37" fill="#858585" fill-opacity="0"/><rect x="921.6855753646678" width="52.41491085899514" height="37" fill="#858585" fill-opacity="0"/><rect x="974.100486223663" width="37.779578606158836" height="37" fill="#858585" fill-opacity="0"/><rect x="1011.8800648298218" width="53.43598055105349" height="37" fill="#858585" fill-opacity="0"/><rect x="1065.3160453808753" width="52.755267423014594" height="37" fill="#858585" fill-opacity="0"/><rect x="1118.07131280389" width="51.73419773095625" height="37" fill="#858585" fill-opacity="0"/><rect x="1169.8055105348462" width="23.82495948136143" height="37" fill="#858585" fill-opacity="0"/><rect x="1193.6304700162077" width="37.779578606158836" height="37" fill="#858585" fill-opacity="0"/><rect x="1231.4100486223665" width="28.589951377633714" height="37" fill="#858585" fill-opacity="0"/></g></g><g/><g transform="scale(0)"><rect fill="white" fill-opacity="0"/><text data-testid="loading_message" fill="rgb(97, 124, 148)" fill-opacity="0" font-weight="bold" font-size="18px" text-anchor="middle" dominant-baseline="middle">Loading ...</text><line stroke="rgb(97, 124, 148)" stroke-width="2px"/></g></g><g transform="translate(122.3984375,0)"><text font-size="14" font-family="Arial" y="7" text-anchor="end" dominant-baseline="central" fill="black" x="-10" font-weight="bold">SMC1A</text><text font-size="14" font-family="Arial" y="20" text-anchor="end" dominant-baseline="central" fill="black" x="-10">NM_006306</text></g><g transform="translate(1395.3984375,0)"><text fill="#aaa" font-family="Arial" font-size="14" y="14" class="sja_clbtext2"/></g></g></g><g transform="scale(0)"><rect fill="white"/><text id="loadinggCloak" fill="rgb(97, 124, 148)" fill-opacity="0" font-weight="bold" font-size="18px" text-anchor="middle" dominant-baseline="middle">Loading ...</text></g><g/><g transform="translate(124.3984375,189)"><g transform="translate(0,0)"><rect width="15" height="20" stroke="rgb(99, 148, 139)" fill="#8dd3c7" shape-rendering="crispEdges"/><text x="20" y="10" dominant-baseline="central" font-size="16" font-family="Arial" fill="black">SMC_N</text><text x="86.0078125" y="10" dominant-baseline="central" font-size="12" font-family="Arial" fill="#858585">RecF/RecN/SMC N terminal domain</text></g></g><g transform="translate(1187.3984375,189)"><g transform="translate(0,0)"><circle cx="10" cy="10" r="10" fill="#998199"/><text x="30" y="10" dominant-baseline="central" font-size="16" font-family="Arial" fill="#998199">UTR_3, n=11</text></g></g></svg>