<svg xmlns="http://www.w3.org/2000/svg" data-testid="sjpp_block_svg" width="1495.3984375" height="800.115625"><g transform="translate(0,0)"><g transform="translate(125.3984375, 0)"/><rect fill="#FFFF99" x="846" width="2" height="392.115625"/><g transform="translate(125.3984375, 23)"><g transform="translate(0,0)"><text text-anchor="end" x="-13" y="-10" dominant-baseline="central" font-size="13" font-family="Arial">Protein length</text><g><g transform="translate(0,0)" fill="none" font-size="10" font-family="sans-serif" text-anchor="middle"><path class="domain" stroke="black" d="M0,-6V0H1260V-6" fill="none" stroke-width="1" shape-rendering="crispEdges"/><g class="tick" opacity="1" transform="translate(163.66840731070496,0)"><line stroke="black" y2="-6" shape-rendering="crispEdges"/><text fill="black" y="-9" dy="0em" font-family="Arial" font-size="12px" style="cursor: default;">200</text></g><g class="tick" opacity="1" transform="translate(328.1592689295039,0)"><line stroke="black" y2="-6" shape-rendering="crispEdges"/><text fill="black" y="-9" dy="0em" font-family="Arial" font-size="12px" style="cursor: default;">400</text></g><g class="tick" opacity="1" transform="translate(492.65013054830285,0)"><line stroke="black" y2="-6" shape-rendering="crispEdges"/><text fill="black" y="-9" dy="0em" font-family="Arial" font-size="12px" style="cursor: default;">600</text></g><g class="tick" opacity="1" transform="translate(657.1409921671019,0)"><line stroke="black" y2="-6" shape-rendering="crispEdges"/><text fill="black" y="-9" dy="0em" font-family="Arial" font-size="12px" style="cursor: default;">800</text></g><g class="tick" opacity="1" transform="translate(821.6318537859008,0)"><line stroke="black" y2="-6" shape-rendering="crispEdges"/><text fill="black" y="-9" dy="0em" font-family="Arial" font-size="12px" style="cursor: default;">1000</text></g><g class="tick" opacity="1" transform="translate(986.1227154046998,0)"><line stroke="black" y2="-6" shape-rendering="crispEdges"/><text fill="black" y="-9" dy="0em" font-family="Arial" font-size="12px" style="cursor: default;">1200</text></g><g class="tick" opacity="1" transform="translate(1150.6135770234987,0)"><line stroke="black" y2="-6" shape-rendering="crispEdges"/><text fill="black" y="-9" dy="0em" font-family="Arial" font-size="12px" style="cursor: default;">1400</text></g></g></g><rect fill="white" fill-opacity="0" x="0" y="-23" width="1260" height="26"/></g><g transform="translate(1260, 0)"/></g><g data-testid="sja_sample_menu_opener" transform="translate(0, 31)"><g transform="translate(1385.3984375, 0)"/><g transform="translate(125.3984375, 0)"><rect fill="white" fill-opacity="0" width="1260" height="148.8234375"/><g transform="translate(0,0)" style="cursor: default;"><g class="sja_skg" transform="translate(7, 73.0234375)"><g transform="translate(0, -7)" class="sja_aa_discg"><circle fill="#6633FF" stroke="white" r="6.5"/><text font-size="12" fill="#6633FF" x="8" y="3.5999999999999996" font-family="Arial" class="sja_aa_disclabel" fill-opacity="1" transform="scale(1) rotate(0)">c.22-1G&gt;T</text><circle r="6.5" stroke="#6633FF" class="sja_aa_disckick" fill="white" fill-opacity="0" stroke-opacity="0" transform="scale(1)"/><path d="M4.286263797015736e-16,-7L4.286263797015736e-16,-7Z" fill="#6633FF" class="sja_aa_discrim" fill-opacity="1" stroke-opacity="1"/></g><circle class="sja_aa_skkick" fill="white" fill-opacity="0" stroke="none" r="8" cy="-7" transform="scale(0)"/><path class="sja_aa_stem" d="M0,0v14l-1.242819843342037,28v23.799999999999997" stroke="#6633FF" fill="none"/></g></g><g/><g transform="scale(0)"><rect fill="white" fill-opacity="0.5" width="1260" height="0"/><text data-testid="loading_message" fill="rgb(97, 124, 148)" fill-opacity="1" font-weight="bold" font-size="18px" text-anchor="middle" dominant-baseline="middle" x="630" y="15">Loading ...</text><line stroke="rgb(97, 124, 148)" stroke-width="2px" y1="30" y2="30" x2="0"/></g></g><g transform="translate(122.3984375, 0)"><text font-size="14" font-family="Arial" y="7" text-anchor="end" dominant-baseline="central" fill="black" x="-10" font-weight="bold">GAMBL DLBCL</text><g/><text font-size="14" font-family="Arial" y="26" text-anchor="end" dominant-baseline="central" class="sja_clbtext2" fill="black" x="-10">1 of 3 mutations</text></g><g transform="translate(1395.3984375, 0)"/></g><g data-testid="sja_sample_menu_opener" transform="translate(0, 373.1156311035156)"><g transform="translate(1385.3984375, 0)"/><g transform="translate(125.3984375,0)"><rect fill="white" fill-opacity="0" width="1260" height="24"/><g transform="translate(0,0)" style="cursor: default;"/><g/><g transform="scale(0)"><rect fill="white" fill-opacity="0.5" width="1260" height="0"/><text data-testid="loading_message" fill="rgb(97, 124, 148)" fill-opacity="1" font-weight="bold" font-size="18px" text-anchor="middle" dominant-baseline="middle" x="630" y="15">Loading ...</text><line stroke="rgb(97, 124, 148)" stroke-width="2px" y1="30" y2="30" x2="0"/></g></g><g transform="translate(122.3984375,0)"><text font-size="14" font-family="Arial" y="7" text-anchor="end" dominant-baseline="central" fill="black" x="-10" font-weight="bold">GAMBL FL</text><g/><text font-size="14" font-family="Arial" y="26" text-anchor="end" dominant-baseline="central" class="sja_clbtext2" fill="black" x="-10"/></g><g transform="translate(1395.3984375,0)"/></g><g data-testid="sja_sample_menu_opener" transform="translate(0, 226.8234405517578)"><g transform="translate(1385.3984375, 0)"/><g transform="translate(125.3984375,0)"><rect fill="white" fill-opacity="0" width="1260" height="122.2921875"/><g transform="translate(0,0)" style="cursor: default;"><g class="sja_skg" transform="translate(238.3746795654297, 23.799999237060547)"><g transform="translate(0, 7)" class="sja_aa_discg"><circle fill="#3987CC" stroke="white" r="6.5"/><text font-size="12" fill="#3987CC" x="8" y="3.5999999999999996" font-family="Arial" class="sja_aa_disclabel" fill-opacity="1" transform="scale(1) rotate(0)">p.His290Gln</text><circle r="6.5" stroke="#3987CC" class="sja_aa_disckick" fill="white" fill-opacity="0" stroke-opacity="0" transform="scale(1)"/><path d="M4.286263797015736e-16,-7L4.286263797015736e-16,-7Z" fill="#3987CC" class="sja_aa_discrim" fill-opacity="1" stroke-opacity="1"/></g><circle class="sja_aa_skkick" fill="white" fill-opacity="0" stroke="none" r="8" cy="7" transform="scale(0)"/><path class="sja_aa_stem" d="M0,0v0l0,0v-23.799999999999997" stroke="#3987CC" fill="none"/></g><g class="sja_skg" transform="translate(584.902099609375, 23.799999237060547)"><g transform="translate(0, 7)" class="sja_aa_discg"><circle fill="#3987CC" stroke="white" r="6.5"/><text font-size="12" fill="#3987CC" x="8" y="3.5999999999999996" font-family="Arial" class="sja_aa_disclabel" fill-opacity="1" transform="scale(1) rotate(0)">p.Glu712Lys</text><circle r="6.5" stroke="#3987CC" class="sja_aa_disckick" fill="white" fill-opacity="0" stroke-opacity="0" transform="scale(1)"/><path d="M4.286263797015736e-16,-7L4.286263797015736e-16,-7Z" fill="#3987CC" class="sja_aa_discrim" fill-opacity="1" stroke-opacity="1"/></g><circle class="sja_aa_skkick" fill="white" fill-opacity="0" stroke="none" r="8" cy="7" transform="scale(0)"/><path class="sja_aa_stem" d="M0,0v0l0,0v-23.799999999999997" stroke="#3987CC" fill="none"/></g><g class="sja_skg" transform="translate(979.68017578125, 23.799999237060547)"><g transform="translate(0, 7)" class="sja_aa_discg"><circle fill="#3987CC" stroke="white" r="6.5"/><text font-size="12" fill="#3987CC" x="8" y="3.5999999999999996" font-family="Arial" class="sja_aa_disclabel" fill-opacity="1" transform="scale(1) rotate(0)">p.Gly1192Arg</text><circle r="6.5" stroke="#3987CC" class="sja_aa_disckick" fill="white" fill-opacity="0" stroke-opacity="0" transform="scale(1)"/><path d="M4.286263797015736e-16,-7L4.286263797015736e-16,-7Z" fill="#3987CC" class="sja_aa_discrim" fill-opacity="1" stroke-opacity="1"/></g><circle class="sja_aa_skkick" fill="white" fill-opacity="0" stroke="none" r="8" cy="7" transform="scale(0)"/><path class="sja_aa_stem" d="M0,0v0l0,0v-23.799999999999997" stroke="#3987CC" fill="none"/></g></g><g/><g transform="scale(0)"><rect fill="white" fill-opacity="0.5" width="1260" height="0"/><text data-testid="loading_message" fill="rgb(97, 124, 148)" fill-opacity="1" font-weight="bold" font-size="18px" text-anchor="middle" dominant-baseline="middle" x="630" y="15">Loading ...</text><line stroke="rgb(97, 124, 148)" stroke-width="2px" y1="30" y2="30" x2="0"/></g></g><g transform="translate(122.3984375,0)"><text font-size="14" font-family="Arial" y="7" text-anchor="end" dominant-baseline="central" fill="black" x="-10" font-weight="bold">GAMBL BL</text><g/><text font-size="14" font-family="Arial" y="26" text-anchor="end" dominant-baseline="central" class="sja_clbtext2" fill="black" x="-10">3 of 4 mutations</text></g><g transform="translate(1395.3984375,0)"/></g><g data-testid="sja_sample_menu_opener" transform="translate(0, 349.1156311035156)"><g transform="translate(1385.3984375, 0)"/><g transform="translate(125.3984375,0)"><rect fill="white" fill-opacity="0" width="1260" height="24"/><g transform="translate(0,0)" style="cursor: default;"/><g/><g transform="scale(0)"><rect fill="white" fill-opacity="0.5" width="1260" height="0"/><text data-testid="loading_message" fill="rgb(97, 124, 148)" fill-opacity="1" font-weight="bold" font-size="18px" text-anchor="middle" dominant-baseline="middle" x="630" y="15">Loading ...</text><line stroke="rgb(97, 124, 148)" stroke-width="2px" y1="30" y2="30" x2="0"/></g></g><g transform="translate(122.3984375,0)"><text font-size="14" font-family="Arial" y="7" text-anchor="end" dominant-baseline="central" fill="black" x="-10" font-weight="bold">GAMBL MCL</text><g/><text font-size="14" font-family="Arial" y="26" text-anchor="end" dominant-baseline="central" class="sja_clbtext2" fill="black" x="-10"/></g><g transform="translate(1395.3984375,0)"/></g><g data-testid="sja_sample_menu_opener" transform="translate(0, 179.8234405517578)"><g transform="translate(1385.3984375, 0)"/><g transform="translate(125.3984375,0)"><rect fill="white" fill-opacity="0" width="1260" height="47"/><g transform="translate(0,0)" style="cursor: default;"><g><line x1="0" y1="18.5" x2="1260" y2="18.5" stroke="black" shape-rendering="crispEdges"/><rect x="0" width="5.757180156657963" height="37" fill="white"/><rect x="5.757180156657963" width="42.76762402088772" height="37" fill="white"/><rect x="19.73890339425587" width="28.785900783289815" height="37" fill="#bebada"/><rect x="48.52480417754569" width="24.947780678851174" height="37" fill="white"/><rect x="48.52480417754569" width="24.947780678851174" height="37" fill="#bebada"/><rect x="64.97389033942558" width="8.498694516971279" height="37" fill="#a6d854"/><rect x="70.73107049608355" width="1" height="37" fill="#8dd3c7"/><rect x="73.47258485639686" width="17.54569190600522" height="37" fill="white"/><rect x="73.47258485639686" width="17.54569190600522" height="37" fill="#bebada"/><rect x="73.47258485639686" width="17.54569190600522" height="37" fill="#a6d854"/><rect x="76.48825065274151" width="1" height="37" fill="#8dd3c7"/><rect x="74.02088772845953" width="1" height="37" fill="#8dd3c7"/><rect x="74.02088772845953" width="1" height="37" fill="#E8E89E"/><rect x="91.01827676240208" width="40.02610966057441" height="37" fill="white"/><rect x="91.01827676240208" width="40.02610966057441" height="37" fill="#bebada"/><rect x="91.01827676240208" width="40.02610966057441" height="37" fill="#a6d854"/><rect x="101.16187989556136" width="1.6449086161879896" height="37" fill="#8dd3c7"/><rect x="96.22715404699738" width="1" height="37" fill="#8dd3c7"/><rect x="99.51697127937337" width="1" height="37" fill="#8dd3c7"/><rect x="99.51697127937337" width="1" height="37" fill="#E8E89E"/><rect x="97.87206266318537" width="1" height="37" fill="#8dd3c7"/><rect x="101.16187989556136" width="1" height="37" fill="#E8E89E"/><rect x="131.0443864229765" width="26.866840731070493" height="37" fill="white"/><rect x="131.0443864229765" width="26.866840731070493" height="37" fill="#bebada"/><rect x="131.0443864229765" width="21.10966057441253" height="37" fill="#a6d854"/><rect x="134.06005221932114" width="3.289817232375979" height="37" fill="#8dd3c7"/><rect x="146.39686684073106" width="1" height="37" fill="#8dd3c7"/><rect x="134.06005221932114" width="1" height="37" fill="#E8E89E"/><rect x="135.70496083550913" width="1" height="37" fill="#E8E89E"/><rect x="148.04177545691905" width="1" height="37" fill="#8dd3c7"/><rect x="157.91122715404697" width="58.394255874673625" height="37" fill="white"/><rect x="157.91122715404697" width="58.394255874673625" height="37" fill="#bebada"/><rect x="216.3054830287206" width="47.702349869451695" height="37" fill="white"/><rect x="216.3054830287206" width="47.702349869451695" height="37" fill="#bebada"/><rect x="217.1279373368146" width="46.8798955613577" height="37" fill="#ffd92f"/><rect x="264.0078328981723" width="27.96344647519582" height="37" fill="white"/><rect x="264.0078328981723" width="27.96344647519582" height="37" fill="#bebada"/><rect x="264.0078328981723" width="27.96344647519582" height="37" fill="#ffd92f"/><rect x="291.14882506527414" width="1" height="37" fill="#fb8072"/><rect x="291.97127937336813" width="37.83289817232376" height="37" fill="white"/><rect x="291.97127937336813" width="37.83289817232376" height="37" fill="#bebada"/><rect x="291.97127937336813" width="37.83289817232376" height="37" fill="#ffd92f"/><rect x="306.77545691906005" width="1.6449086161879896" height="37" fill="#fb8072"/><rect x="308.42036553524804" width="1" height="37" fill="#bebada"/><rect x="294.4386422976501" width="1" height="37" fill="#fb8072"/><rect x="310.06527415143603" width="1" height="37" fill="#bebada"/><rect x="329.8041775456919" width="38.10704960835509" height="37" fill="white"/><rect x="329.8041775456919" width="38.10704960835509" height="37" fill="#bebada"/><rect x="329.8041775456919" width="13.159268929503916" height="37" fill="#ffd92f"/><rect x="367.911227154047" width="43.31592689295039" height="37" fill="white"/><rect x="367.911227154047" width="43.31592689295039" height="37" fill="#bebada"/><rect x="373.39425587467366" width="37.83289817232376" height="37" fill="#8dd3c7"/><rect x="378.32898172323763" width="1" height="37" fill="#fdb462"/><rect x="411.2271540469974" width="34.54308093994778" height="37" fill="white"/><rect x="411.2271540469974" width="34.54308093994778" height="37" fill="#bebada"/><rect x="411.2271540469974" width="34.54308093994778" height="37" fill="#8dd3c7"/><rect x="444.1253263707572" width="1" height="37" fill="#fdb462"/><rect x="445.7702349869452" width="30.430809399477805" height="37" fill="white"/><rect x="445.7702349869452" width="30.430809399477805" height="37" fill="#bebada"/><rect x="470.44386422976504" width="5.757180156657963" height="37" fill="#fb8072"/><rect x="445.7702349869452" width="27.140992167101825" height="37" fill="#8dd3c7"/><rect x="476.201044386423" width="29.060052219321147" height="37" fill="white"/><rect x="476.201044386423" width="29.060052219321147" height="37" fill="#bebada"/><rect x="476.201044386423" width="29.060052219321147" height="37" fill="#fb8072"/><rect x="505.26109660574417" width="30.156657963446474" height="37" fill="white"/><rect x="505.26109660574417" width="30.156657963446474" height="37" fill="#bebada"/><rect x="505.26109660574417" width="30.156657963446474" height="37" fill="#fb8072"/><rect x="535.4177545691906" width="25.496083550913838" height="37" fill="white"/><rect x="535.4177545691906" width="25.496083550913838" height="37" fill="#bebada"/><rect x="535.4177545691906" width="25.496083550913838" height="37" fill="#fb8072"/><rect x="560.9138381201044" width="31.527415143603132" height="37" fill="white"/><rect x="560.9138381201044" width="31.527415143603132" height="37" fill="#bebada"/><rect x="583.9425587467363" width="8.498694516971279" height="37" fill="#b3b3b3"/><rect x="560.9138381201044" width="23.851174934725847" height="37" fill="#fb8072"/><rect x="583.9425587467363" width="8.498694516971279" height="37" fill="#80b1d3"/><rect x="592.4412532637075" width="33.44647519582245" height="37" fill="white"/><rect x="592.4412532637075" width="33.44647519582245" height="37" fill="#bebada"/><rect x="592.4412532637075" width="33.44647519582245" height="37" fill="#b3b3b3"/><rect x="592.4412532637075" width="13.707571801566578" height="37" fill="#80b1d3"/><rect x="621.7754569190599" width="4.1122715404699735" height="37" fill="#80b1d3"/><rect x="607.7937336814621" width="13.159268929503916" height="37" fill="#80b1d3"/><rect x="625.88772845953" width="40.84856396866841" height="37" fill="white"/><rect x="625.88772845953" width="40.84856396866841" height="37" fill="#bebada"/><rect x="625.88772845953" width="40.84856396866841" height="37" fill="#b3b3b3"/><rect x="625.88772845953" width="11.514360313315926" height="37" fill="#80b1d3"/><rect x="653.8511749347258" width="12.885117493472585" height="37" fill="#80b1d3"/><rect x="639.0469973890339" width="12.336814621409921" height="37" fill="#80b1d3"/><rect x="666.7362924281983" width="63.60313315926893" height="37" fill="white"/><rect x="666.7362924281983" width="63.60313315926893" height="37" fill="#bebada"/><rect x="666.7362924281983" width="63.60313315926893" height="37" fill="#b3b3b3"/><rect x="666.7362924281983" width="2.7415143603133156" height="37" fill="#80b1d3"/><rect x="670.3002610966056" width="13.159268929503916" height="37" fill="#80b1d3"/><rect x="683.4595300261095" width="5.757180156657963" height="37" fill="#80b1d3"/><rect x="690.8616187989555" width="1" height="37" fill="#80b1d3"/><rect x="730.3394255874673" width="37.010443864229764" height="37" fill="white"/><rect x="730.3394255874673" width="37.010443864229764" height="37" fill="#bebada"/><rect x="730.3394255874673" width="37.010443864229764" height="37" fill="#b3b3b3"/><rect x="767.349869451697" width="55.104438642297644" height="37" fill="white"/><rect x="767.349869451697" width="55.104438642297644" height="37" fill="#bebada"/><rect x="767.349869451697" width="55.104438642297644" height="37" fill="#b3b3b3"/><rect x="822.4543080939947" width="53.733681462140986" height="37" fill="white"/><rect x="822.4543080939947" width="53.733681462140986" height="37" fill="#bebada"/><rect x="822.4543080939947" width="53.733681462140986" height="37" fill="#b3b3b3"/><rect x="867.6892950391643" width="2.4673629242819843" height="37" fill="#a6d854"/><rect x="871.8015665796344" width="1.6449086161879896" height="37" fill="#a6d854"/><rect x="876.1879895561357" width="25.221932114882506" height="37" fill="white"/><rect x="876.1879895561357" width="25.221932114882506" height="37" fill="#bebada"/><rect x="876.1879895561357" width="25.221932114882506" height="37" fill="#b3b3b3"/><rect x="879.2036553524803" width="1.6449086161879896" height="37" fill="#a6d854"/><rect x="901.4099216710182" width="45.23498694516971" height="37" fill="white"/><rect x="901.4099216710182" width="45.23498694516971" height="37" fill="#bebada"/><rect x="901.4099216710182" width="45.23498694516971" height="37" fill="#b3b3b3"/><rect x="925.261096605744" width="13.98172323759791" height="37" fill="#a6d854"/><rect x="946.6449086161879" width="23.028720626631852" height="37" fill="white"/><rect x="946.6449086161879" width="23.028720626631852" height="37" fill="#bebada"/><rect x="946.6449086161879" width="18.91644908616188" height="37" fill="#b3b3b3"/><rect x="969.6736292428197" width="50.16971279373368" height="37" fill="white"/><rect x="969.6736292428197" width="50.16971279373368" height="37" fill="#bebada"/><rect x="1019.8433420365534" width="24.947780678851174" height="37" fill="white"/><rect x="1019.8433420365534" width="24.947780678851174" height="37" fill="#bebada"/><rect x="1044.7911227154045" width="41.94516971279373" height="37" fill="white"/><rect x="1044.7911227154045" width="41.94516971279373" height="37" fill="#bebada"/><rect x="1086.7362924281983" width="33.994778067885115" height="37" fill="white"/><rect x="1086.7362924281983" width="33.994778067885115" height="37" fill="#bebada"/><rect x="1115.2480417754568" width="5.483028720626631" height="37" fill="#e5c494"/><rect x="1120.7310704960835" width="12.06266318537859" height="37" fill="white"/><rect x="1120.7310704960835" width="12.06266318537859" height="37" fill="#bebada"/><rect x="1120.7310704960835" width="12.06266318537859" height="37" fill="#e5c494"/><rect x="1132.793733681462" width="37.010443864229764" height="37" fill="white"/><rect x="1132.793733681462" width="37.010443864229764" height="37" fill="#bebada"/><rect x="1132.793733681462" width="37.010443864229764" height="37" fill="#e5c494"/><rect x="1169.8041775456918" width="54.83028720626631" height="37" fill="white"/><rect x="1169.8041775456918" width="54.83028720626631" height="37" fill="#bebada"/><rect x="1169.8041775456918" width="31.801566579634464" height="37" fill="#e5c494"/><rect x="1179.3994778067884" width="45.23498694516971" height="37" fill="#80b1d3"/><rect x="1224.6344647519581" width="35.36553524804177" height="37" fill="white"/><rect x="1224.6344647519581" width="6.579634464751958" height="37" fill="#bebada"/><rect x="1224.6344647519581" width="26.318537859007833" height="37" fill="#80b1d3"/><line x1="0" x2="1260" stroke="black"/><line x1="0" x2="1260" y1="37" y2="37" stroke="black"/><line x1="1260" x2="1260" y2="37" stroke="black"/><line x1="0" x2="0" y2="37" stroke="black"/><line class="exonboundaryclass" x1="5.757180156657963" x2="5.757180156657963" y1="0" y2="37" stroke="black" stroke-dasharray="4,2" shape-rendering="crispEdges" stroke-opacity="1"/><line class="exonboundaryclass" x1="48.52480417754569" x2="48.52480417754569" y1="0" y2="37" stroke="black" stroke-dasharray="4,2" shape-rendering="crispEdges" stroke-opacity="1"/><line class="exonboundaryclass" x1="73.47258485639686" x2="73.47258485639686" y1="0" y2="37" stroke="black" stroke-dasharray="4,2" shape-rendering="crispEdges" stroke-opacity="1"/><line class="exonboundaryclass" x1="91.01827676240208" x2="91.01827676240208" y1="0" y2="37" stroke="black" stroke-dasharray="4,2" shape-rendering="crispEdges" stroke-opacity="1"/><line class="exonboundaryclass" x1="131.0443864229765" x2="131.0443864229765" y1="0" y2="37" stroke="black" stroke-dasharray="4,2" shape-rendering="crispEdges" stroke-opacity="1"/><line class="exonboundaryclass" x1="157.91122715404697" x2="157.91122715404697" y1="0" y2="37" stroke="black" stroke-dasharray="4,2" shape-rendering="crispEdges" stroke-opacity="1"/><line class="exonboundaryclass" x1="216.3054830287206" x2="216.3054830287206" y1="0" y2="37" stroke="black" stroke-dasharray="4,2" shape-rendering="crispEdges" stroke-opacity="1"/><line class="exonboundaryclass" x1="264.0078328981723" x2="264.0078328981723" y1="0" y2="37" stroke="black" stroke-dasharray="4,2" shape-rendering="crispEdges" stroke-opacity="1"/><line class="exonboundaryclass" x1="291.97127937336813" x2="291.97127937336813" y1="0" y2="37" stroke="black" stroke-dasharray="4,2" shape-rendering="crispEdges" stroke-opacity="1"/><line class="exonboundaryclass" x1="329.8041775456919" x2="329.8041775456919" y1="0" y2="37" stroke="black" stroke-dasharray="4,2" shape-rendering="crispEdges" stroke-opacity="1"/><line class="exonboundaryclass" x1="367.911227154047" x2="367.911227154047" y1="0" y2="37" stroke="black" stroke-dasharray="4,2" shape-rendering="crispEdges" stroke-opacity="1"/><line class="exonboundaryclass" x1="411.2271540469974" x2="411.2271540469974" y1="0" y2="37" stroke="black" stroke-dasharray="4,2" shape-rendering="crispEdges" stroke-opacity="1"/><line class="exonboundaryclass" x1="445.7702349869452" x2="445.7702349869452" y1="0" y2="37" stroke="black" stroke-dasharray="4,2" shape-rendering="crispEdges" stroke-opacity="1"/><line class="exonboundaryclass" x1="476.201044386423" x2="476.201044386423" y1="0" y2="37" stroke="black" stroke-dasharray="4,2" shape-rendering="crispEdges" stroke-opacity="1"/><line class="exonboundaryclass" x1="505.26109660574417" x2="505.26109660574417" y1="0" y2="37" stroke="black" stroke-dasharray="4,2" shape-rendering="crispEdges" stroke-opacity="1"/><line class="exonboundaryclass" x1="535.4177545691906" x2="535.4177545691906" y1="0" y2="37" stroke="black" stroke-dasharray="4,2" shape-rendering="crispEdges" stroke-opacity="1"/><line class="exonboundaryclass" x1="560.9138381201044" x2="560.9138381201044" y1="0" y2="37" stroke="black" stroke-dasharray="4,2" shape-rendering="crispEdges" stroke-opacity="1"/><line class="exonboundaryclass" x1="592.4412532637075" x2="592.4412532637075" y1="0" y2="37" stroke="black" stroke-dasharray="4,2" shape-rendering="crispEdges" stroke-opacity="1"/><line class="exonboundaryclass" x1="625.88772845953" x2="625.88772845953" y1="0" y2="37" stroke="black" stroke-dasharray="4,2" shape-rendering="crispEdges" stroke-opacity="1"/><line class="exonboundaryclass" x1="666.7362924281983" x2="666.7362924281983" y1="0" y2="37" stroke="black" stroke-dasharray="4,2" shape-rendering="crispEdges" stroke-opacity="1"/><line class="exonboundaryclass" x1="730.3394255874673" x2="730.3394255874673" y1="0" y2="37" stroke="black" stroke-dasharray="4,2" shape-rendering="crispEdges" stroke-opacity="1"/><line class="exonboundaryclass" x1="767.349869451697" x2="767.349869451697" y1="0" y2="37" stroke="black" stroke-dasharray="4,2" shape-rendering="crispEdges" stroke-opacity="1"/><line class="exonboundaryclass" x1="822.4543080939947" x2="822.4543080939947" y1="0" y2="37" stroke="black" stroke-dasharray="4,2" shape-rendering="crispEdges" stroke-opacity="1"/><line class="exonboundaryclass" x1="876.1879895561357" x2="876.1879895561357" y1="0" y2="37" stroke="black" stroke-dasharray="4,2" shape-rendering="crispEdges" stroke-opacity="1"/><line class="exonboundaryclass" x1="901.4099216710182" x2="901.4099216710182" y1="0" y2="37" stroke="black" stroke-dasharray="4,2" shape-rendering="crispEdges" stroke-opacity="1"/><line class="exonboundaryclass" x1="946.6449086161879" x2="946.6449086161879" y1="0" y2="37" stroke="black" stroke-dasharray="4,2" shape-rendering="crispEdges" stroke-opacity="1"/><line class="exonboundaryclass" x1="969.6736292428197" x2="969.6736292428197" y1="0" y2="37" stroke="black" stroke-dasharray="4,2" shape-rendering="crispEdges" stroke-opacity="1"/><line class="exonboundaryclass" x1="1019.8433420365534" x2="1019.8433420365534" y1="0" y2="37" stroke="black" stroke-dasharray="4,2" shape-rendering="crispEdges" stroke-opacity="1"/><line class="exonboundaryclass" x1="1044.7911227154045" x2="1044.7911227154045" y1="0" y2="37" stroke="black" stroke-dasharray="4,2" shape-rendering="crispEdges" stroke-opacity="1"/><line class="exonboundaryclass" x1="1086.7362924281983" x2="1086.7362924281983" y1="0" y2="37" stroke="black" stroke-dasharray="4,2" shape-rendering="crispEdges" stroke-opacity="1"/><line class="exonboundaryclass" x1="1120.7310704960835" x2="1120.7310704960835" y1="0" y2="37" stroke="black" stroke-dasharray="4,2" shape-rendering="crispEdges" stroke-opacity="1"/><line class="exonboundaryclass" x1="1132.793733681462" x2="1132.793733681462" y1="0" y2="37" stroke="black" stroke-dasharray="4,2" shape-rendering="crispEdges" stroke-opacity="1"/><line class="exonboundaryclass" x1="1169.8041775456918" x2="1169.8041775456918" y1="0" y2="37" stroke="black" stroke-dasharray="4,2" shape-rendering="crispEdges" stroke-opacity="1"/><line class="exonboundaryclass" x1="1224.6344647519581" x2="1224.6344647519581" y1="0" y2="37" stroke="black" stroke-dasharray="4,2" shape-rendering="crispEdges" stroke-opacity="1"/><g transform="translate(0,18.5)" fill="none" font-size="10" font-family="sans-serif" text-anchor="middle"><path class="domain" stroke="none" d="M0.4112271540469974,0H1260" fill="none" stroke-width="0" shape-rendering="crispEdges"/><g class="tick" opacity="1" transform="translate(164.03909094252194,0)"><line stroke="black" y2="0" shape-rendering="crispEdges"/><text fill="black" y="3" dy="0.71em" font-family="Arial" font-size="11.666666666666666px" style="cursor: default;">200</text></g><g class="tick" opacity="1" transform="translate(328.17714837098424,0)"><line stroke="black" y2="0" shape-rendering="crispEdges"/><text fill="black" y="3" dy="0.71em" font-family="Arial" font-size="11.666666666666666px" style="cursor: default;">400</text></g><g class="tick" opacity="1" transform="translate(492.98302872062663,0)"><line stroke="black" y2="0" shape-rendering="crispEdges"/><text fill="black" y="3" dy="0.71em" font-family="Arial" font-size="11.666666666666666px" style="cursor: default;">600</text></g><g class="tick" opacity="1" transform="translate(657.6585229392017,0)"><line stroke="black" y2="0" shape-rendering="crispEdges"/><text fill="black" y="3" dy="0.71em" font-family="Arial" font-size="11.666666666666666px" style="cursor: default;">800</text></g><g class="tick" opacity="1" transform="translate(821.6379915046178,0)"><line stroke="black" y2="0" shape-rendering="crispEdges"/><text fill="black" y="3" dy="0.71em" font-family="Arial" font-size="11.666666666666666px" style="cursor: default;">1000</text></g><g class="tick" opacity="1" transform="translate(986.3991139836493,0)"><line stroke="black" y2="0" shape-rendering="crispEdges"/><text fill="black" y="3" dy="0.71em" font-family="Arial" font-size="11.666666666666666px" style="cursor: default;">1200</text></g><g class="tick" opacity="1" transform="translate(1150.9577893820713,0)"><line stroke="black" y2="0" shape-rendering="crispEdges"/><text fill="black" y="3" dy="0.71em" font-family="Arial" font-size="11.666666666666666px" style="cursor: default;">1400</text></g></g><rect x="0" width="5.757180156657963" height="37" fill="#858585" fill-opacity="0"/><rect x="5.757180156657963" width="42.76762402088772" height="37" fill="#858585" fill-opacity="0"/><rect x="48.52480417754569" width="24.947780678851174" height="37" fill="#858585" fill-opacity="0"/><rect x="73.47258485639686" width="17.54569190600522" height="37" fill="#858585" fill-opacity="0"/><rect x="91.01827676240208" width="40.02610966057441" height="37" fill="#858585" fill-opacity="0"/><rect x="131.0443864229765" width="26.866840731070493" height="37" fill="#858585" fill-opacity="0"/><rect x="157.91122715404697" width="58.394255874673625" height="37" fill="#858585" fill-opacity="0"/><rect x="216.3054830287206" width="47.702349869451695" height="37" fill="#858585" fill-opacity="0"/><rect x="264.0078328981723" width="27.96344647519582" height="37" fill="#858585" fill-opacity="0"/><rect x="291.97127937336813" width="37.83289817232376" height="37" fill="#858585" fill-opacity="0"/><rect x="329.8041775456919" width="38.10704960835509" height="37" fill="#858585" fill-opacity="0"/><rect x="367.911227154047" width="43.31592689295039" height="37" fill="#858585" fill-opacity="0"/><rect x="411.2271540469974" width="34.54308093994778" height="37" fill="#858585" fill-opacity="0"/><rect x="445.7702349869452" width="30.430809399477805" height="37" fill="#858585" fill-opacity="0"/><rect x="476.201044386423" width="29.060052219321147" height="37" fill="#858585" fill-opacity="0"/><rect x="505.26109660574417" width="30.156657963446474" height="37" fill="#858585" fill-opacity="0"/><rect x="535.4177545691906" width="25.496083550913838" height="37" fill="#858585" fill-opacity="0"/><rect x="560.9138381201044" width="31.527415143603132" height="37" fill="#858585" fill-opacity="0"/><rect x="592.4412532637075" width="33.44647519582245" height="37" fill="#858585" fill-opacity="0"/><rect x="625.88772845953" width="40.84856396866841" height="37" fill="#858585" fill-opacity="0"/><rect x="666.7362924281983" width="63.60313315926893" height="37" fill="#858585" fill-opacity="0"/><rect x="730.3394255874673" width="37.010443864229764" height="37" fill="#858585" fill-opacity="0"/><rect x="767.349869451697" width="55.104438642297644" height="37" fill="#858585" fill-opacity="0"/><rect x="822.4543080939947" width="53.733681462140986" height="37" fill="#858585" fill-opacity="0"/><rect x="876.1879895561357" width="25.221932114882506" height="37" fill="#858585" fill-opacity="0"/><rect x="901.4099216710182" width="45.23498694516971" height="37" fill="#858585" fill-opacity="0"/><rect x="946.6449086161879" width="23.028720626631852" height="37" fill="#858585" fill-opacity="0"/><rect x="969.6736292428197" width="50.16971279373368" height="37" fill="#858585" fill-opacity="0"/><rect x="1019.8433420365534" width="24.947780678851174" height="37" fill="#858585" fill-opacity="0"/><rect x="1044.7911227154045" width="41.94516971279373" height="37" fill="#858585" fill-opacity="0"/><rect x="1086.7362924281983" width="33.994778067885115" height="37" fill="#858585" fill-opacity="0"/><rect x="1120.7310704960835" width="12.06266318537859" height="37" fill="#858585" fill-opacity="0"/><rect x="1132.793733681462" width="37.010443864229764" height="37" fill="#858585" fill-opacity="0"/><rect x="1169.8041775456918" width="54.83028720626631" height="37" fill="#858585" fill-opacity="0"/><rect x="1224.6344647519581" width="35.36553524804177" height="37" fill="#858585" fill-opacity="0"/></g></g><g/><g transform="scale(0)"><rect fill="white" fill-opacity="0"/><text data-testid="loading_message" fill="rgb(97, 124, 148)" fill-opacity="0" font-weight="bold" font-size="18px" text-anchor="middle" dominant-baseline="middle">Loading ...</text><line stroke="rgb(97, 124, 148)" stroke-width="2px"/></g></g><g transform="translate(122.3984375,0)"><text font-size="14" font-family="Arial" y="7" text-anchor="end" dominant-baseline="central" fill="black" x="-10" font-weight="bold">TOP2A</text><text font-size="14" font-family="Arial" y="20" text-anchor="end" dominant-baseline="central" fill="black" x="-10">NM_001067</text></g><g transform="translate(1395.3984375,0)"><text fill="#aaa" font-family="Arial" font-size="14" y="14" class="sja_clbtext2"/></g></g></g><g transform="scale(0)"><rect fill="white"/><text id="loadinggCloak" fill="rgb(97, 124, 148)" fill-opacity="0" font-weight="bold" font-size="18px" text-anchor="middle" dominant-baseline="middle">Loading ...</text></g><g/><g transform="translate(124.3984375,412.115625)"><g transform="translate(0,0)"><rect width="15" height="20" stroke="rgb(133, 130, 153)" fill="#bebada" shape-rendering="crispEdges"/><text x="20" y="10" dominant-baseline="central" font-size="16" font-family="Arial" fill="black">PTZ00108</text><text x="104.7109375" y="10" dominant-baseline="central" font-size="12" font-family="Arial" fill="#858585">DNA topoisomerase 2-like protein</text></g><g transform="translate(0,23)"><rect width="15" height="20" stroke="rgb(116, 151, 59)" fill="#a6d854" shape-rendering="crispEdges"/><text x="20" y="10" dominant-baseline="central" font-size="16" font-family="Arial" fill="black">HATPase_c</text><text x="114.1796875" y="10" dominant-baseline="central" font-size="12" font-family="Arial" fill="#858585">Histidine kinase-, DNA gyrase B-, and HSP90-like ATPase</text></g><g transform="translate(0,46)"><rect width="15" height="20" stroke="rgb(99, 148, 139)" fill="#8dd3c7" shape-rendering="crispEdges"/><text x="20" y="10" dominant-baseline="central" font-size="16" font-family="Arial" fill="black">other</text><text x="66.6875" y="10" dominant-baseline="central" font-size="12" font-family="Arial" fill="#858585">ATP binding site [chemical binding]</text></g><g transform="translate(0,69)"><rect width="15" height="20" stroke="rgb(162, 162, 111)" fill="#E8E89E" shape-rendering="crispEdges"/><text x="20" y="10" dominant-baseline="central" font-size="16" font-family="Arial" fill="black">other</text><text x="66.6875" y="10" dominant-baseline="central" font-size="12" font-family="Arial" fill="#858585">Mg2+ binding site [ion binding]</text></g><g transform="translate(0,92)"><rect width="15" height="20" stroke="rgb(162, 162, 111)" fill="#E8E89E" shape-rendering="crispEdges"/><text x="20" y="10" dominant-baseline="central" font-size="16" font-family="Arial" fill="black">other</text><text x="66.6875" y="10" dominant-baseline="central" font-size="12" font-family="Arial" fill="#858585">G-X-G motif</text></g><g transform="translate(0,115)"><rect width="15" height="20" stroke="rgb(179, 152, 33)" fill="#ffd92f" shape-rendering="crispEdges"/><text x="20" y="10" dominant-baseline="central" font-size="16" font-family="Arial" fill="black">TopoIIA_Trans_ScTopoIIA</text><text x="215.3125" y="10" dominant-baseline="central" font-size="12" font-family="Arial" fill="#858585">TopoIIA_Trans_ScTopoIIA: Transducer domain, having a ribosomal S5 doma ...</text></g><g transform="translate(0,138)"><rect width="15" height="20" stroke="rgb(176, 90, 80)" fill="#fb8072" shape-rendering="crispEdges"/><text x="20" y="10" dominant-baseline="central" font-size="16" font-family="Arial" fill="black">other</text><text x="66.6875" y="10" dominant-baseline="central" font-size="12" font-family="Arial" fill="#858585">dimer interface [polypeptide binding]</text></g><g transform="translate(0,161)"><rect width="15" height="20" stroke="rgb(133, 130, 153)" fill="#bebada" shape-rendering="crispEdges"/><text x="20" y="10" dominant-baseline="central" font-size="16" font-family="Arial" fill="black">other</text><text x="66.6875" y="10" dominant-baseline="central" font-size="12" font-family="Arial" fill="#858585">ATP binding [chemical binding]</text></g><g transform="translate(0,184)"><rect width="15" height="20" stroke="rgb(99, 148, 139)" fill="#8dd3c7" shape-rendering="crispEdges"/><text x="20" y="10" dominant-baseline="central" font-size="16" font-family="Arial" fill="black">TOPRIM_TopoIIA</text><text x="155.109375" y="10" dominant-baseline="central" font-size="12" font-family="Arial" fill="#858585">TOPRIM_TopoIIA: topoisomerase-primase (TOPRIM) nucleotidyl transferase ...</text></g><g transform="translate(0,207)"><rect width="15" height="20" stroke="rgb(177, 126, 69)" fill="#fdb462" shape-rendering="crispEdges"/><text x="20" y="10" dominant-baseline="central" font-size="16" font-family="Arial" fill="black">other</text><text x="66.6875" y="10" dominant-baseline="central" font-size="12" font-family="Arial" fill="#858585">putative metal-binding site [ion binding]</text></g><g transform="translate(0,230)"><rect width="15" height="20" stroke="rgb(176, 90, 80)" fill="#fb8072" shape-rendering="crispEdges"/><text x="20" y="10" dominant-baseline="central" font-size="16" font-family="Arial" fill="black">TOPRIM_C</text><text x="112.3828125" y="10" dominant-baseline="central" font-size="12" font-family="Arial" fill="#858585">C-terminal associated domain of TOPRIM</text></g><g transform="translate(0,253)"><rect width="15" height="20" stroke="rgb(125, 125, 125)" fill="#b3b3b3" shape-rendering="crispEdges"/><text x="20" y="10" dominant-baseline="central" font-size="16" font-family="Arial" fill="black">TOP4c</text><text x="79.5" y="10" dominant-baseline="central" font-size="12" font-family="Arial" fill="#858585">DNA Topoisomerase, subtype IIA; domain A'; bacterial DNA topoisomerase ...</text></g><g transform="translate(0,276)"><rect width="15" height="20" stroke="rgb(90, 124, 148)" fill="#80b1d3" shape-rendering="crispEdges"/><text x="20" y="10" dominant-baseline="central" font-size="16" font-family="Arial" fill="black">other</text><text x="66.6875" y="10" dominant-baseline="central" font-size="12" font-family="Arial" fill="#858585">CAP-like domain</text></g><g transform="translate(0,299)"><rect width="15" height="20" stroke="rgb(116, 151, 59)" fill="#a6d854" shape-rendering="crispEdges"/><text x="20" y="10" dominant-baseline="central" font-size="16" font-family="Arial" fill="black">other</text><text x="66.6875" y="10" dominant-baseline="central" font-size="12" font-family="Arial" fill="#858585">primary dimer interface [polypeptide binding]</text></g><g transform="translate(0,322)"><rect width="15" height="20" stroke="rgb(160, 137, 104)" fill="#e5c494" shape-rendering="crispEdges"/><text x="20" y="10" dominant-baseline="central" font-size="16" font-family="Arial" fill="black">Ashwin</text><text x="81.6015625" y="10" dominant-baseline="central" font-size="12" font-family="Arial" fill="#858585">Developmental protein</text></g><g transform="translate(0,345)"><rect width="15" height="20" stroke="rgb(90, 124, 148)" fill="#80b1d3" shape-rendering="crispEdges"/><text x="20" y="10" dominant-baseline="central" font-size="16" font-family="Arial" fill="black">DTHCT</text><text x="84.2109375" y="10" dominant-baseline="central" font-size="12" font-family="Arial" fill="#858585">DTHCT (NUC029) region</text></g></g><g transform="translate(1187.3984375,412.115625)"><g transform="translate(0,0)"><circle cx="10" cy="10" r="10" fill="#998199"/><text x="30" y="10" dominant-baseline="central" font-size="16" font-family="Arial" fill="#998199">UTR_3, n=3</text></g><g transform="translate(0,23)"><circle cx="10" cy="10" r="10" fill="#6633FF"/><text x="30" y="10" dominant-baseline="central" font-size="16" font-family="Arial" fill="#6633FF">SPLICE, n=1</text></g><g transform="translate(0,46)"><circle cx="10" cy="10" r="10" fill="#3987CC"/><text x="30" y="10" dominant-baseline="central" font-size="16" font-family="Arial" fill="#3987CC">MISSENSE, n=3</text></g></g></svg>