<svg xmlns="http://www.w3.org/2000/svg" data-testid="sjpp_block_svg" width="1280.40625" height="767.265625"><g transform="translate(0,0)"><g transform="translate(130.40625, 0)"/><rect fill="#FFFF99" width="0" x="856" height="543.265625"/><g transform="translate(130.40625, 23)"><g transform="translate(0,0)"><text text-anchor="end" x="-13" y="-10" dominant-baseline="central" font-size="13" font-family="Arial">Protein length</text><g><g transform="translate(0,0)" fill="none" font-size="10" font-family="sans-serif" text-anchor="middle"><path class="domain" stroke="black" d="M0,-6V0H1040V-6" fill="none" stroke-width="1" shape-rendering="crispEdges"/><g class="tick" opacity="1" transform="translate(107.9245283018868,0)"><line stroke="black" y2="-6" shape-rendering="crispEdges"/><text fill="black" y="-9" dy="0em" font-family="Arial" font-size="12px" style="cursor: default;">100</text></g><g class="tick" opacity="1" transform="translate(216.9392033542977,0)"><line stroke="black" y2="-6" shape-rendering="crispEdges"/><text fill="black" y="-9" dy="0em" font-family="Arial" font-size="12px" style="cursor: default;">200</text></g><g class="tick" opacity="1" transform="translate(325.9538784067086,0)"><line stroke="black" y2="-6" shape-rendering="crispEdges"/><text fill="black" y="-9" dy="0em" font-family="Arial" font-size="12px" style="cursor: default;">300</text></g><g class="tick" opacity="1" transform="translate(434.9685534591195,0)"><line stroke="black" y2="-6" shape-rendering="crispEdges"/><text fill="black" y="-9" dy="0em" font-family="Arial" font-size="12px" style="cursor: default;">400</text></g><g class="tick" opacity="1" transform="translate(543.9832285115303,0)"><line stroke="black" y2="-6" shape-rendering="crispEdges"/><text fill="black" y="-9" dy="0em" font-family="Arial" font-size="12px" style="cursor: default;">500</text></g><g class="tick" opacity="1" transform="translate(652.9979035639413,0)"><line stroke="black" y2="-6" shape-rendering="crispEdges"/><text fill="black" y="-9" dy="0em" font-family="Arial" font-size="12px" style="cursor: default;">600</text></g><g class="tick" opacity="1" transform="translate(762.0125786163521,0)"><line stroke="black" y2="-6" shape-rendering="crispEdges"/><text fill="black" y="-9" dy="0em" font-family="Arial" font-size="12px" style="cursor: default;">700</text></g><g class="tick" opacity="1" transform="translate(871.0272536687631,0)"><line stroke="black" y2="-6" shape-rendering="crispEdges"/><text fill="black" y="-9" dy="0em" font-family="Arial" font-size="12px" style="cursor: default;">800</text></g><g class="tick" opacity="1" transform="translate(980.041928721174,0)"><line stroke="black" y2="-6" shape-rendering="crispEdges"/><text fill="black" y="-9" dy="0em" font-family="Arial" font-size="12px" style="cursor: default;">900</text></g></g></g><rect fill="white" fill-opacity="0" x="0" y="-23" width="1040" height="26"/></g><g transform="translate(1040, 0)"/></g><g data-testid="sja_sample_menu_opener" transform="translate(0, 31)"><g transform="translate(1170.40625, 0)"/><g transform="translate(130.40625, 0)"><rect fill="white" fill-opacity="0" width="1040" height="167.44687499999998"/><g transform="translate(0,0)" style="cursor: default;"><g class="sja_skg" transform="translate(170.97134399414062, 100.046875)"><g transform="translate(0, -7)" class="sja_aa_discg"><circle fill="#2ca02c" stroke="white" r="6.5"/><text font-size="12" fill="#2ca02c" x="8" y="3.5999999999999996" font-family="Arial" class="sja_aa_disclabel" fill-opacity="1" transform="scale(1) rotate(0)">c.471A&gt;G(p.=)</text><circle r="6.5" stroke="#2ca02c" class="sja_aa_disckick" fill="white" fill-opacity="0" stroke-opacity="0" transform="scale(1)"/><path d="M4.286263797015736e-16,-7L4.286263797015736e-16,-7Z" fill="#2ca02c" class="sja_aa_discrim" fill-opacity="1" stroke-opacity="1"/></g><circle class="sja_aa_skkick" fill="white" fill-opacity="0" stroke="none" r="8" cy="-7" transform="scale(0)"/><path class="sja_aa_stem" d="M0,0v14l0,19.6v23.799999999999997" stroke="#2ca02c" fill="none"/></g><g class="sja_skg" transform="translate(381.00628662109375, 100.046875)"><g transform="translate(0, -7)" class="sja_aa_discg"><circle fill="#3987CC" stroke="white" r="6.5"/><text font-size="12" fill="#3987CC" x="8" y="3.5999999999999996" font-family="Arial" class="sja_aa_disclabel" fill-opacity="1" transform="scale(1) rotate(0)">p.Glu350Gly</text><circle r="6.5" stroke="#3987CC" class="sja_aa_disckick" fill="white" fill-opacity="0" stroke-opacity="0" transform="scale(1)"/><path d="M4.286263797015736e-16,-7L4.286263797015736e-16,-7Z" fill="#3987CC" class="sja_aa_discrim" fill-opacity="1" stroke-opacity="1"/></g><circle class="sja_aa_skkick" fill="white" fill-opacity="0" stroke="none" r="8" cy="-7" transform="scale(0)"/><path class="sja_aa_stem" d="M0,0v14l0,19.6v23.799999999999997" stroke="#3987CC" fill="none"/></g><g class="sja_skg" transform="translate(502.7393493652344, 100.046875)"><g transform="translate(0, -7)" class="sja_aa_discg"><circle fill="#3987CC" stroke="white" r="6.5"/><text font-size="12" fill="#3987CC" x="8" y="3.5999999999999996" font-family="Arial" class="sja_aa_disclabel" fill-opacity="1" transform="scale(1) rotate(0)">p.Asp462Tyr</text><circle r="6.5" stroke="#3987CC" class="sja_aa_disckick" fill="white" fill-opacity="0" stroke-opacity="0" transform="scale(1)"/><path d="M4.286263797015736e-16,-7L4.286263797015736e-16,-7Z" fill="#3987CC" class="sja_aa_discrim" fill-opacity="1" stroke-opacity="1"/></g><circle class="sja_aa_skkick" fill="white" fill-opacity="0" stroke="none" r="8" cy="-7" transform="scale(0)"/><path class="sja_aa_stem" d="M0,0v14l0,19.6v23.799999999999997" stroke="#3987CC" fill="none"/></g><g class="sja_skg" transform="translate(661.5374145507812, 100.046875)"><g transform="translate(0, -7)" class="sja_aa_discg"><circle fill="#2ca02c" stroke="white" r="6.5"/><text font-size="12" fill="#2ca02c" x="8" y="3.5999999999999996" font-family="Arial" class="sja_aa_disclabel" fill-opacity="1" transform="rotate(-90)">c.1821T&gt;C(p.=)</text><circle r="6.5" stroke="#2ca02c" class="sja_aa_disckick" fill="white" fill-opacity="0" stroke-opacity="0" transform="scale(1)"/><path d="M4.286263797015736e-16,-7L4.286263797015736e-16,-7Z" fill="#2ca02c" class="sja_aa_discrim" fill-opacity="1" stroke-opacity="1"/></g><circle class="sja_aa_skkick" fill="white" fill-opacity="0" stroke="none" r="8" cy="-7" transform="scale(0)"/><path class="sja_aa_stem" d="M0,0v14l0,19.6v23.799999999999997" stroke="#2ca02c" fill="none"/></g><g class="sja_skg" transform="translate(758.5604248046875, 100.046875)"><g transform="translate(0, -7)" class="sja_aa_discg"><circle fill="#3987CC" stroke="white" r="6.5"/><text font-size="12" fill="#3987CC" x="8" y="3.5999999999999996" font-family="Arial" class="sja_aa_disclabel" fill-opacity="1" transform="rotate(-90)">p.Phe696Leu</text><circle r="6.5" stroke="#3987CC" class="sja_aa_disckick" fill="white" fill-opacity="0" stroke-opacity="0" transform="scale(1)"/><path d="M4.286263797015736e-16,-7L4.286263797015736e-16,-7Z" fill="#3987CC" class="sja_aa_discrim" fill-opacity="1" stroke-opacity="1"/></g><circle class="sja_aa_skkick" fill="white" fill-opacity="0" stroke="none" r="8" cy="-7" transform="scale(0)"/><path class="sja_aa_stem" d="M0,0v14l0,19.6v23.799999999999997" stroke="#3987CC" fill="none"/></g><g class="sja_skg" transform="translate(818.8818969726562, 100.046875)"><g transform="translate(0, -7)" class="sja_aa_discg"><circle fill="#3987CC" stroke="white" r="6.5"/><text font-size="12" fill="#3987CC" x="8" y="3.5999999999999996" font-family="Arial" class="sja_aa_disclabel" fill-opacity="1" transform="scale(1) rotate(0)">p.Ile752Phe</text><circle r="6.5" stroke="#3987CC" class="sja_aa_disckick" fill="white" fill-opacity="0" stroke-opacity="0" transform="scale(1)"/><path d="M4.286263797015736e-16,-7L4.286263797015736e-16,-7Z" fill="#3987CC" class="sja_aa_discrim" fill-opacity="1" stroke-opacity="1"/></g><circle class="sja_aa_skkick" fill="white" fill-opacity="0" stroke="none" r="8" cy="-7" transform="scale(0)"/><path class="sja_aa_stem" d="M0,0v14l0,19.6v23.799999999999997" stroke="#3987CC" fill="none"/></g></g><g/><g transform="scale(0)"><rect fill="white" fill-opacity="0" width="1040" height="0"/><text data-testid="loading_message" fill="rgb(97, 124, 148)" fill-opacity="0" font-weight="bold" font-size="18px" text-anchor="middle" dominant-baseline="middle" x="520" y="15">Loading ...</text><line stroke="rgb(97, 124, 148)" stroke-width="2px" y1="30" y2="30" x2="0"/></g></g><g transform="translate(127.40625, 0)"><text font-size="14" font-family="Arial" y="7" text-anchor="end" dominant-baseline="central" fill="black" x="-10" font-weight="bold">GAMBL DLBCL</text><g/><text font-size="14" font-family="Arial" y="26" text-anchor="end" dominant-baseline="central" class="sja_clbtext2" fill="black" x="-10">6 of 31 mutations</text></g><g transform="translate(1180.40625, 0)"/></g><g data-testid="sja_sample_menu_opener" transform="translate(0, 245.44686889648438)"><g transform="translate(1170.40625, 0)"/><g transform="translate(130.40625, 0)"><rect fill="white" fill-opacity="0" width="1040" height="161.1828125"/><g transform="translate(0,0)" style="cursor: default;"><g class="sja_skg" transform="translate(357.0230712890625, 51.79999923706055)"><g transform="translate(0, 7)" class="sja_aa_discg"><circle fill="#3987CC" stroke="white" r="6.5"/><text font-size="12" fill="#3987CC" x="8" y="3.5999999999999996" font-family="Arial" class="sja_aa_disclabel" fill-opacity="1" transform="scale(1) rotate(0)">p.Arg328Gln</text><circle r="6.5" stroke="#3987CC" class="sja_aa_disckick" fill="white" fill-opacity="0" stroke-opacity="0" transform="scale(1)"/><path d="M4.286263797015736e-16,-7L4.286263797015736e-16,-7Z" fill="#3987CC" class="sja_aa_discrim" fill-opacity="1" stroke-opacity="1"/></g><circle class="sja_aa_skkick" fill="white" fill-opacity="0" stroke="none" r="8" cy="7" transform="scale(0)"/><path class="sja_aa_stem" d="M0,0v-14l0,-14v-23.799999999999997" stroke="#3987CC" fill="none"/></g><g class="sja_skg" transform="translate(534.7169799804688, 51.79999923706055)"><g transform="translate(0, 7)" class="sja_aa_discg"><circle fill="#3987CC" stroke="white" r="6.5"/><text font-size="12" fill="#3987CC" x="8" y="3.5999999999999996" font-family="Arial" class="sja_aa_disclabel" fill-opacity="1" transform="rotate(90)">p.Val491Gly</text><circle r="6.5" stroke="#3987CC" class="sja_aa_disckick" fill="white" fill-opacity="0" stroke-opacity="0" transform="scale(1)"/><path d="M4.286263797015736e-16,-7L4.286263797015736e-16,-7Z" fill="#3987CC" class="sja_aa_discrim" fill-opacity="1" stroke-opacity="1"/></g><circle class="sja_aa_skkick" fill="white" fill-opacity="0" stroke="none" r="8" cy="7" transform="scale(0)"/><path class="sja_aa_stem" d="M0,0v-14l0,-14v-23.799999999999997" stroke="#3987CC" fill="none"/></g><g class="sja_skg" transform="translate(581.9566650390625, 51.79999923706055)"><g transform="translate(0, 7)" class="sja_aa_discg"><circle fill="#2ca02c" stroke="white" r="6.5"/><text font-size="12" fill="#2ca02c" x="8" y="3.5999999999999996" font-family="Arial" class="sja_aa_disclabel" fill-opacity="1" transform="scale(1) rotate(0)">c.1602A&gt;T(p.=)</text><circle r="6.5" stroke="#2ca02c" class="sja_aa_disckick" fill="white" fill-opacity="0" stroke-opacity="0" transform="scale(1)"/><path d="M4.286263797015736e-16,-7L4.286263797015736e-16,-7Z" fill="#2ca02c" class="sja_aa_discrim" fill-opacity="1" stroke-opacity="1"/></g><circle class="sja_aa_skkick" fill="white" fill-opacity="0" stroke="none" r="8" cy="7" transform="scale(0)"/><path class="sja_aa_stem" d="M0,0v-14l0,-14v-23.799999999999997" stroke="#2ca02c" fill="none"/></g></g><g/><g transform="scale(0)"><rect fill="white" fill-opacity="0" width="1040" height="0"/><text data-testid="loading_message" fill="rgb(97, 124, 148)" fill-opacity="0" font-weight="bold" font-size="18px" text-anchor="middle" dominant-baseline="middle" x="520" y="15">Loading ...</text><line stroke="rgb(97, 124, 148)" stroke-width="2px" y1="30" y2="30" x2="0"/></g></g><g transform="translate(127.40625, 0)"><text font-size="14" font-family="Arial" y="7" text-anchor="end" dominant-baseline="central" fill="black" x="-10" font-weight="bold">GAMBL FL</text><g/><text font-size="14" font-family="Arial" y="26" text-anchor="end" dominant-baseline="central" class="sja_clbtext2" fill="black" x="-10">3 of 13 mutations</text></g><g transform="translate(1180.40625, 0)"/></g><g data-testid="sja_sample_menu_opener" transform="translate(0, 430.62969970703125)"><g transform="translate(1170.40625, 0)"/><g transform="translate(130.40625, 0)"><rect fill="white" fill-opacity="0" width="1040" height="117.6359375"/><g transform="translate(0,0)" style="cursor: default;"><g class="sja_skg" transform="translate(21.257862091064453, 23.799999237060547)"><g transform="translate(0, 7)" class="sja_aa_discg"><circle fill="#ff7f0e" stroke="white" r="6.5"/><text font-size="12" fill="#ff7f0e" x="8" y="3.5999999999999996" font-family="Arial" class="sja_aa_disclabel" fill-opacity="1" transform="scale(1) rotate(0)">p.Trp20Ter</text><circle r="6.5" stroke="#ff7f0e" class="sja_aa_disckick" fill="white" fill-opacity="0" stroke-opacity="0" transform="scale(1)"/><path d="M4.286263797015736e-16,-7L4.286263797015736e-16,-7Z" fill="#ff7f0e" class="sja_aa_discrim" fill-opacity="1" stroke-opacity="1"/></g><circle class="sja_aa_skkick" fill="white" fill-opacity="0" stroke="none" r="8" cy="7" transform="scale(0)"/><path class="sja_aa_stem" d="M0,0v0l0,0v-23.799999999999997" stroke="#ff7f0e" fill="none"/></g><g class="sja_skg" transform="translate(270.5380859375, 23.799999237060547)"><g transform="translate(0, 7)" class="sja_aa_discg"><circle fill="#3987CC" stroke="white" r="6.5"/><text font-size="12" fill="#3987CC" x="8" y="3.5999999999999996" font-family="Arial" class="sja_aa_disclabel" fill-opacity="1" transform="scale(1) rotate(0)">p.Val249Phe</text><circle r="6.5" stroke="#3987CC" class="sja_aa_disckick" fill="white" fill-opacity="0" stroke-opacity="0" transform="scale(1)"/><path d="M4.286263797015736e-16,-7L4.286263797015736e-16,-7Z" fill="#3987CC" class="sja_aa_discrim" fill-opacity="1" stroke-opacity="1"/></g><circle class="sja_aa_skkick" fill="white" fill-opacity="0" stroke="none" r="8" cy="7" transform="scale(0)"/><path class="sja_aa_stem" d="M0,0v0l0,0v-23.799999999999997" stroke="#3987CC" fill="none"/></g><g class="sja_skg" transform="translate(899.9161376953125, 23.799999237060547)"><g transform="translate(0, 7)" class="sja_aa_discg"><circle fill="#3987CC" stroke="white" r="6.5"/><text font-size="12" fill="#3987CC" x="8" y="3.5999999999999996" font-family="Arial" class="sja_aa_disclabel" fill-opacity="1" transform="scale(1) rotate(0)">p.Glu826Ala</text><circle r="6.5" stroke="#3987CC" class="sja_aa_disckick" fill="white" fill-opacity="0" stroke-opacity="0" transform="scale(1)"/><path d="M4.286263797015736e-16,-7L4.286263797015736e-16,-7Z" fill="#3987CC" class="sja_aa_discrim" fill-opacity="1" stroke-opacity="1"/></g><circle class="sja_aa_skkick" fill="white" fill-opacity="0" stroke="none" r="8" cy="7" transform="scale(0)"/><path class="sja_aa_stem" d="M0,0v0l0,0v-23.799999999999997" stroke="#3987CC" fill="none"/></g></g><g/><g transform="scale(0)"><rect fill="white" fill-opacity="0" width="1040" height="0"/><text data-testid="loading_message" fill="rgb(97, 124, 148)" fill-opacity="0" font-weight="bold" font-size="18px" text-anchor="middle" dominant-baseline="middle" x="520" y="15">Loading ...</text><line stroke="rgb(97, 124, 148)" stroke-width="2px" y1="30" y2="30" x2="0"/></g></g><g transform="translate(127.40625, 0)"><text font-size="14" font-family="Arial" y="7" text-anchor="end" dominant-baseline="central" fill="black" x="-10" font-weight="bold">GAMBL BL</text><g/><text font-size="14" font-family="Arial" y="26" text-anchor="end" dominant-baseline="central" class="sja_clbtext2" fill="black" x="-10">3 of 20 mutations</text></g><g transform="translate(1180.40625, 0)"/></g><g data-testid="sja_sample_menu_opener" transform="translate(0, 406.62969970703125)"><g transform="translate(1170.40625, 0)"/><g transform="translate(130.40625, 0)"><rect fill="white" fill-opacity="0" width="1040" height="24"/><g transform="translate(0,0)" style="cursor: default;"/><g/><g transform="scale(0)"><rect fill="white" fill-opacity="0" width="1040" height="0"/><text data-testid="loading_message" fill="rgb(97, 124, 148)" fill-opacity="0" font-weight="bold" font-size="18px" text-anchor="middle" dominant-baseline="middle" x="520" y="15">Loading ...</text><line stroke="rgb(97, 124, 148)" stroke-width="2px" y1="30" y2="30" x2="0"/></g></g><g transform="translate(127.40625, 0)"><text font-size="14" font-family="Arial" y="7" text-anchor="end" dominant-baseline="central" fill="black" x="-10" font-weight="bold">GAMBL MCL</text><g/><text font-size="14" font-family="Arial" y="26" text-anchor="end" dominant-baseline="central" class="sja_clbtext2" fill="black" x="-10"/></g><g transform="translate(1180.40625, 0)"/></g><g data-testid="sja_sample_menu_opener" transform="translate(0, 198.44686889648438)"><g transform="translate(1170.40625, 0)"/><g transform="translate(130.40625, 0)"><rect fill="white" fill-opacity="0" width="1040" height="47"/><g transform="translate(0,0)" style="cursor: default;"><g><line x1="0" y1="18.5" x2="1040" y2="18.5" stroke="black" shape-rendering="crispEdges"/><rect x="0" width="37.428371767994406" height="37" fill="white"/><rect x="37.428371767994406" width="79.58071278825996" height="37" fill="white"/><rect x="56.687631027253666" width="60.3214535290007" height="37" fill="#fb8072"/><rect x="117.00908455625436" width="52.32704402515723" height="37" fill="white"/><rect x="117.00908455625436" width="51.963661774982526" height="37" fill="#fb8072"/><rect x="169.3361285814116" width="37.79175401816911" height="37" fill="white"/><rect x="176.60377358490567" width="30.52410901467505" height="37" fill="#fb8072"/><rect x="207.12788259958072" width="65.77218728162124" height="37" fill="white"/><rect x="207.12788259958072" width="64.31865828092243" height="37" fill="#fb8072"/><rect x="272.90006988120194" width="61.0482180293501" height="37" fill="white"/><rect x="276.8972746331237" width="56.687631027253666" height="37" fill="#bebada"/><rect x="333.94828791055204" width="59.95807127882599" height="37" fill="white"/><rect x="337.9454926624738" width="53.41719077568134" height="37" fill="#bebada"/><rect x="393.906359189378" width="11.9916142557652" height="37" fill="white"/><rect x="405.8979734451432" width="67.58909853249476" height="37" fill="white"/><rect x="473.4870719776379" width="137.35849056603774" height="37" fill="white"/><rect x="590.859538784067" width="19.986023759608663" height="37" fill="#a6d854"/><rect x="610.8455625436757" width="30.887491264849753" height="37" fill="white"/><rect x="610.8455625436757" width="30.887491264849753" height="37" fill="#a6d854"/><rect x="641.7330538085254" width="61.411600279524805" height="37" fill="white"/><rect x="641.7330538085254" width="54.87071977638015" height="37" fill="#a6d854"/><rect x="703.1446540880502" width="82.85115303983228" height="37" fill="white"/><rect x="747.8406708595386" width="38.15513626834382" height="37" fill="#E8E89E"/><rect x="785.9958071278825" width="54.50733752620545" height="37" fill="white"/><rect x="785.9958071278825" width="54.50733752620545" height="37" fill="#E8E89E"/><rect x="840.5031446540879" width="59.95807127882599" height="37" fill="white"/><rect x="840.5031446540879" width="59.95807127882599" height="37" fill="#E8E89E"/><rect x="900.4612159329139" width="65.04542278127184" height="37" fill="white"/><rect x="928.8050314465407" width="36.701607267645" height="37" fill="#80b1d3"/><rect x="964.7798742138364" width="1" height="37" fill="#8dd3c7"/><rect x="965.5066387141858" width="74.49336128581412" height="37" fill="white"/><rect x="965.5066387141858" width="70.13277428371768" height="37" fill="#80b1d3"/><rect x="987.6729559748427" width="2.180293501048218" height="37" fill="#8dd3c7"/><rect x="968.0503144654087" width="2.180293501048218" height="37" fill="#8dd3c7"/><rect x="965.5066387141858" width="1.453529000698812" height="37" fill="#8dd3c7"/><rect x="983.3123689727462" width="2.180293501048218" height="37" fill="#8dd3c7"/><rect x="980.0419287211739" width="1.090146750524109" height="37" fill="#8dd3c7"/><line x1="0" x2="1040" stroke="black"/><line x1="0" x2="1040" y1="37" y2="37" stroke="black"/><line x1="0" x2="0" y2="37" stroke="black"/><line x1="1040" x2="1040" y2="37" stroke="black"/><line class="exonboundaryclass" x1="37.428371767994406" x2="37.428371767994406" y1="0" y2="37" stroke="black" stroke-dasharray="4,2" shape-rendering="crispEdges" stroke-opacity="1"/><line class="exonboundaryclass" x1="117.00908455625436" x2="117.00908455625436" y1="0" y2="37" stroke="black" stroke-dasharray="4,2" shape-rendering="crispEdges" stroke-opacity="1"/><line class="exonboundaryclass" x1="169.3361285814116" x2="169.3361285814116" y1="0" y2="37" stroke="black" stroke-dasharray="4,2" shape-rendering="crispEdges" stroke-opacity="1"/><line class="exonboundaryclass" x1="207.12788259958072" x2="207.12788259958072" y1="0" y2="37" stroke="black" stroke-dasharray="4,2" shape-rendering="crispEdges" stroke-opacity="1"/><line class="exonboundaryclass" x1="272.90006988120194" x2="272.90006988120194" y1="0" y2="37" stroke="black" stroke-dasharray="4,2" shape-rendering="crispEdges" stroke-opacity="1"/><line class="exonboundaryclass" x1="333.94828791055204" x2="333.94828791055204" y1="0" y2="37" stroke="black" stroke-dasharray="4,2" shape-rendering="crispEdges" stroke-opacity="1"/><line class="exonboundaryclass" x1="393.906359189378" x2="393.906359189378" y1="0" y2="37" stroke="black" stroke-dasharray="4,2" shape-rendering="crispEdges" stroke-opacity="1"/><line class="exonboundaryclass" x1="405.8979734451432" x2="405.8979734451432" y1="0" y2="37" stroke="black" stroke-dasharray="4,2" shape-rendering="crispEdges" stroke-opacity="1"/><line class="exonboundaryclass" x1="473.4870719776379" x2="473.4870719776379" y1="0" y2="37" stroke="black" stroke-dasharray="4,2" shape-rendering="crispEdges" stroke-opacity="1"/><line class="exonboundaryclass" x1="610.8455625436757" x2="610.8455625436757" y1="0" y2="37" stroke="black" stroke-dasharray="4,2" shape-rendering="crispEdges" stroke-opacity="1"/><line class="exonboundaryclass" x1="641.7330538085254" x2="641.7330538085254" y1="0" y2="37" stroke="black" stroke-dasharray="4,2" shape-rendering="crispEdges" stroke-opacity="1"/><line class="exonboundaryclass" x1="703.1446540880502" x2="703.1446540880502" y1="0" y2="37" stroke="black" stroke-dasharray="4,2" shape-rendering="crispEdges" stroke-opacity="1"/><line class="exonboundaryclass" x1="785.9958071278825" x2="785.9958071278825" y1="0" y2="37" stroke="black" stroke-dasharray="4,2" shape-rendering="crispEdges" stroke-opacity="1"/><line class="exonboundaryclass" x1="840.5031446540879" x2="840.5031446540879" y1="0" y2="37" stroke="black" stroke-dasharray="4,2" shape-rendering="crispEdges" stroke-opacity="1"/><line class="exonboundaryclass" x1="900.4612159329139" x2="900.4612159329139" y1="0" y2="37" stroke="black" stroke-dasharray="4,2" shape-rendering="crispEdges" stroke-opacity="1"/><line class="exonboundaryclass" x1="965.5066387141858" x2="965.5066387141858" y1="0" y2="37" stroke="black" stroke-dasharray="4,2" shape-rendering="crispEdges" stroke-opacity="1"/><g transform="translate(0,18.5)" fill="none" font-size="10" font-family="sans-serif" text-anchor="middle"><path class="domain" stroke="none" d="M0.5450733752620545,0H1040" fill="none" stroke-width="0" shape-rendering="crispEdges"/><g class="tick" opacity="1" transform="translate(108.30782190823545,0)"><line stroke="black" y2="0" shape-rendering="crispEdges"/><text fill="black" y="3" dy="0.71em" font-family="Arial" font-size="11.666666666666666px" style="cursor: default;">100</text></g><g class="tick" opacity="1" transform="translate(217.45702306079664,0)"><line stroke="black" y2="0" shape-rendering="crispEdges"/><text fill="black" y="3" dy="0.71em" font-family="Arial" font-size="11.666666666666666px" style="cursor: default;">200</text></g><g class="tick" opacity="1" transform="translate(326.33997204751915,0)"><line stroke="black" y2="0" shape-rendering="crispEdges"/><text fill="black" y="3" dy="0.71em" font-family="Arial" font-size="11.666666666666666px" style="cursor: default;">300</text></g><g class="tick" opacity="1" transform="translate(435.4345032799079,0)"><line stroke="black" y2="0" shape-rendering="crispEdges"/><text fill="black" y="3" dy="0.71em" font-family="Arial" font-size="11.666666666666666px" style="cursor: default;">400</text></g><g class="tick" opacity="1" transform="translate(544.4345723381361,0)"><line stroke="black" y2="0" shape-rendering="crispEdges"/><text fill="black" y="3" dy="0.71em" font-family="Arial" font-size="11.666666666666666px" style="cursor: default;">500</text></g><g class="tick" opacity="1" transform="translate(653.4377873404685,0)"><line stroke="black" y2="0" shape-rendering="crispEdges"/><text fill="black" y="3" dy="0.71em" font-family="Arial" font-size="11.666666666666666px" style="cursor: default;">600</text></g><g class="tick" opacity="1" transform="translate(762.1703630144542,0)"><line stroke="black" y2="0" shape-rendering="crispEdges"/><text fill="black" y="3" dy="0.71em" font-family="Arial" font-size="11.666666666666666px" style="cursor: default;">700</text></g><g class="tick" opacity="1" transform="translate(871.2948351438915,0)"><line stroke="black" y2="0" shape-rendering="crispEdges"/><text fill="black" y="3" dy="0.71em" font-family="Arial" font-size="11.666666666666666px" style="cursor: default;">800</text></g><g class="tick" opacity="1" transform="translate(980.4764074985567,0)"><line stroke="black" y2="0" shape-rendering="crispEdges"/><text fill="black" y="3" dy="0.71em" font-family="Arial" font-size="11.666666666666666px" style="cursor: default;">900</text></g></g><rect x="0" width="37.428371767994406" height="37" fill="#858585" fill-opacity="0"/><rect x="37.428371767994406" width="79.58071278825996" height="37" fill="#858585" fill-opacity="0"/><rect x="117.00908455625436" width="52.32704402515723" height="37" fill="#858585" fill-opacity="0"/><rect x="169.3361285814116" width="37.79175401816911" height="37" fill="#858585" fill-opacity="0"/><rect x="207.12788259958072" width="65.77218728162124" height="37" fill="#858585" fill-opacity="0"/><rect x="272.90006988120194" width="61.0482180293501" height="37" fill="#858585" fill-opacity="0"/><rect x="333.94828791055204" width="59.95807127882599" height="37" fill="#858585" fill-opacity="0"/><rect x="393.906359189378" width="11.9916142557652" height="37" fill="#858585" fill-opacity="0"/><rect x="405.8979734451432" width="67.58909853249476" height="37" fill="#858585" fill-opacity="0"/><rect x="473.4870719776379" width="137.35849056603774" height="37" fill="#858585" fill-opacity="0"/><rect x="610.8455625436757" width="30.887491264849753" height="37" fill="#858585" fill-opacity="0"/><rect x="641.7330538085254" width="61.411600279524805" height="37" fill="#858585" fill-opacity="0"/><rect x="703.1446540880502" width="82.85115303983228" height="37" fill="#858585" fill-opacity="0"/><rect x="785.9958071278825" width="54.50733752620545" height="37" fill="#858585" fill-opacity="0"/><rect x="840.5031446540879" width="59.95807127882599" height="37" fill="#858585" fill-opacity="0"/><rect x="900.4612159329139" width="65.04542278127184" height="37" fill="#858585" fill-opacity="0"/><rect x="965.5066387141858" width="74.49336128581412" height="37" fill="#858585" fill-opacity="0"/></g></g><g/><g transform="scale(0)"><rect fill="white" fill-opacity="0"/><text data-testid="loading_message" fill="rgb(97, 124, 148)" fill-opacity="0" font-weight="bold" font-size="18px" text-anchor="middle" dominant-baseline="middle">Loading ...</text><line stroke="rgb(97, 124, 148)" stroke-width="2px"/></g></g><g transform="translate(127.40625, 0)"><text font-size="14" font-family="Arial" y="7" text-anchor="end" dominant-baseline="central" fill="black" x="-10" font-weight="bold">UNC5D</text><text font-size="14" font-family="Arial" y="20" text-anchor="end" dominant-baseline="central" fill="black" x="-10">NM_080872</text></g><g transform="translate(1180.40625, 0)"><text fill="#aaa" font-family="Arial" font-size="14" y="14" class="sja_clbtext2"/></g></g></g><g transform="scale(0)"><rect fill="white"/><text id="loadinggCloak" fill="rgb(97, 124, 148)" fill-opacity="0" font-weight="bold" font-size="18px" text-anchor="middle" dominant-baseline="middle">Loading ...</text></g><g/><g transform="translate(129.40625,563.265625)"><g transform="translate(0,0)"><rect width="15" height="20" stroke="rgb(176, 90, 80)" fill="#fb8072" shape-rendering="crispEdges"/><text x="20" y="10" dominant-baseline="central" font-size="16" font-family="Arial" fill="black">Ig</text><text x="43.34375" y="10" dominant-baseline="central" font-size="12" font-family="Arial" fill="#858585">Immunoglobulin domain</text></g><g transform="translate(0,23)"><rect width="15" height="20" stroke="rgb(133, 130, 153)" fill="#bebada" shape-rendering="crispEdges"/><text x="20" y="10" dominant-baseline="central" font-size="16" font-family="Arial" fill="black">TSP1</text><text x="70.015625" y="10" dominant-baseline="central" font-size="12" font-family="Arial" fill="#858585">Thrombospondin type 1 repeats</text></g><g transform="translate(0,46)"><rect width="15" height="20" stroke="rgb(116, 151, 59)" fill="#a6d854" shape-rendering="crispEdges"/><text x="20" y="10" dominant-baseline="central" font-size="16" font-family="Arial" fill="black">ZU5</text><text x="60.2265625" y="10" dominant-baseline="central" font-size="12" font-family="Arial" fill="#858585">ZU5 domain</text></g><g transform="translate(0,69)"><rect width="15" height="20" stroke="rgb(162, 162, 111)" fill="#E8E89E" shape-rendering="crispEdges"/><text x="20" y="10" dominant-baseline="central" font-size="16" font-family="Arial" fill="black">UPA</text><text x="61.734375" y="10" dominant-baseline="central" font-size="12" font-family="Arial" fill="#858585">UPA domain</text></g><g transform="translate(0,92)"><rect width="15" height="20" stroke="rgb(90, 124, 148)" fill="#80b1d3" shape-rendering="crispEdges"/><text x="20" y="10" dominant-baseline="central" font-size="16" font-family="Arial" fill="black">Death_UNC5D</text><text x="136.7109375" y="10" dominant-baseline="central" font-size="12" font-family="Arial" fill="#858585">Death domain found in Uncoordinated-5D</text></g><g transform="translate(0,115)"><rect width="15" height="20" stroke="rgb(99, 148, 139)" fill="#8dd3c7" shape-rendering="crispEdges"/><text x="20" y="10" dominant-baseline="central" font-size="16" font-family="Arial" fill="black">other</text><text x="66.6875" y="10" dominant-baseline="central" font-size="12" font-family="Arial" fill="#858585">dimer interface [polypeptide binding]</text></g></g><g transform="translate(972.40625,563.265625)"><g transform="translate(0,0)"><circle cx="10" cy="10" r="10" fill="#819981"/><text x="30" y="10" dominant-baseline="central" font-size="16" font-family="Arial" fill="#819981">UTR_5, n=1</text></g><g transform="translate(0,23)"><circle cx="10" cy="10" r="10" fill="#2ca02c"/><text x="30" y="10" dominant-baseline="central" font-size="16" font-family="Arial" fill="#2ca02c">SILENT, n=3</text></g><g transform="translate(0,46)"><circle cx="10" cy="10" r="10" fill="#3987CC"/><text x="30" y="10" dominant-baseline="central" font-size="16" font-family="Arial" fill="#3987CC">MISSENSE, n=8</text></g><g transform="translate(0,69)"><circle cx="10" cy="10" r="10" fill="#998199"/><text x="30" y="10" dominant-baseline="central" font-size="16" font-family="Arial" fill="#998199">UTR_3, n=3</text></g><g transform="translate(0,92)"><circle cx="10" cy="10" r="10" fill="#92a2d4"/><text x="30" y="10" dominant-baseline="central" font-size="16" font-family="Arial" fill="#92a2d4">SNV, n=47</text></g><g transform="translate(0,115)"><circle cx="10" cy="10" r="10" fill="#b5a174"/><text x="30" y="10" dominant-baseline="central" font-size="16" font-family="Arial" fill="#b5a174">Sequence deletion, n=1</text></g><g transform="translate(0,138)"><circle cx="10" cy="10" r="10" fill="#bd8e91"/><text x="30" y="10" dominant-baseline="central" font-size="16" font-family="Arial" fill="#bd8e91">Sequence insertion, n=2</text></g><g transform="translate(0,161)"><circle cx="10" cy="10" r="10" fill="#ff7f0e"/><text x="30" y="10" dominant-baseline="central" font-size="16" font-family="Arial" fill="#ff7f0e">NONSENSE, n=1</text></g></g></svg>