<svg xmlns="http://www.w3.org/2000/svg" data-testid="sjpp_block_svg" width="1279.3671875" height="700.1421875"><g transform="translate(0,0)"><g transform="translate(129.3671875, 0)"/><rect fill="#FFFF99" x="830" width="0" height="522.1421875"/><g transform="translate(129.3671875, 23)"><g transform="translate(0,0)"><text text-anchor="end" x="-13" y="-10" dominant-baseline="central" font-size="13" font-family="Arial">Protein length</text><g><g transform="translate(0,0)" fill="none" font-size="10" font-family="sans-serif" text-anchor="middle"><path class="domain" stroke="black" d="M0,-6V0H1040V-6" fill="none" stroke-width="1" shape-rendering="crispEdges"/><g class="tick" opacity="1" transform="translate(96.04477611940298,0)"><line stroke="black" y2="-6" shape-rendering="crispEdges"/><text fill="black" y="-9" dy="0em" font-family="Arial" font-size="12px" style="cursor: default;">100</text></g><g class="tick" opacity="1" transform="translate(193.0597014925373,0)"><line stroke="black" y2="-6" shape-rendering="crispEdges"/><text fill="black" y="-9" dy="0em" font-family="Arial" font-size="12px" style="cursor: default;">200</text></g><g class="tick" opacity="1" transform="translate(290.07462686567163,0)"><line stroke="black" y2="-6" shape-rendering="crispEdges"/><text fill="black" y="-9" dy="0em" font-family="Arial" font-size="12px" style="cursor: default;">300</text></g><g class="tick" opacity="1" transform="translate(387.089552238806,0)"><line stroke="black" y2="-6" shape-rendering="crispEdges"/><text fill="black" y="-9" dy="0em" font-family="Arial" font-size="12px" style="cursor: default;">400</text></g><g class="tick" opacity="1" transform="translate(484.1044776119403,0)"><line stroke="black" y2="-6" shape-rendering="crispEdges"/><text fill="black" y="-9" dy="0em" font-family="Arial" font-size="12px" style="cursor: default;">500</text></g><g class="tick" opacity="1" transform="translate(581.1194029850747,0)"><line stroke="black" y2="-6" shape-rendering="crispEdges"/><text fill="black" y="-9" dy="0em" font-family="Arial" font-size="12px" style="cursor: default;">600</text></g><g class="tick" opacity="1" transform="translate(678.134328358209,0)"><line stroke="black" y2="-6" shape-rendering="crispEdges"/><text fill="black" y="-9" dy="0em" font-family="Arial" font-size="12px" style="cursor: default;">700</text></g><g class="tick" opacity="1" transform="translate(775.1492537313433,0)"><line stroke="black" y2="-6" shape-rendering="crispEdges"/><text fill="black" y="-9" dy="0em" font-family="Arial" font-size="12px" style="cursor: default;">800</text></g><g class="tick" opacity="1" transform="translate(872.1641791044776,0)"><line stroke="black" y2="-6" shape-rendering="crispEdges"/><text fill="black" y="-9" dy="0em" font-family="Arial" font-size="12px" style="cursor: default;">900</text></g><g class="tick" opacity="1" transform="translate(969.179104477612,0)"><line stroke="black" y2="-6" shape-rendering="crispEdges"/><text fill="black" y="-9" dy="0em" font-family="Arial" font-size="12px" style="cursor: default;">1000</text></g></g></g><rect fill="white" fill-opacity="0" x="0" y="-23" width="1040" height="26"/></g><g transform="translate(1040, 0)"/></g><g data-testid="sja_sample_menu_opener" transform="translate(0, 190.5265655517578)"><g transform="translate(1169.3671875, 0)"/><g transform="translate(129.3671875, 0)"><rect fill="white" fill-opacity="0" width="1040" height="195.878125"/><g transform="translate(0,0)" style="cursor: default;"><g class="sja_skg" transform="translate(208, 51.79999923706055)"><g transform="translate(0, 7)" class="sja_aa_discg"><circle fill="#3987CC" stroke="white" r="6.5"/><text font-size="12" fill="#3987CC" x="8" y="3.5999999999999996" font-family="Arial" class="sja_aa_disclabel" fill-opacity="1" transform="scale(1) rotate(0)">p.Asn215Lys</text><circle r="6.5" stroke="#3987CC" class="sja_aa_disckick" fill="white" fill-opacity="0" stroke-opacity="0" transform="scale(1)"/><path d="M4.286263797015736e-16,-7L4.286263797015736e-16,-7Z" fill="#3987CC" class="sja_aa_discrim" fill-opacity="1" stroke-opacity="1"/></g><circle class="sja_aa_skkick" fill="white" fill-opacity="0" stroke="none" r="8" cy="7" transform="scale(0)"/><path class="sja_aa_stem" d="M0,0v-14l0.42039800995027576,-14v-23.799999999999997" stroke="#3987CC" fill="none"/></g><g class="sja_skg" transform="translate(553, 51.79999923706055)"><g transform="translate(0, 7)" class="sja_aa_discg"><circle fill="#3987CC" stroke="white" r="6.5"/><text font-size="12" fill="#3987CC" x="8" y="3.5999999999999996" font-family="Arial" class="sja_aa_disclabel" fill-opacity="1" transform="">p.Glu571Gly</text><circle r="6.5" stroke="#3987CC" class="sja_aa_disckick" fill="white" fill-opacity="0" stroke-opacity="0" transform="scale(1)"/><path d="M4.286263797015736e-16,-7L4.286263797015736e-16,-7Z" fill="#3987CC" class="sja_aa_discrim" fill-opacity="1" stroke-opacity="1"/></g><g transform="translate(0, 21)" class="sja_aa_discg"><circle fill="#3987CC" stroke="white" r="6.5"/><text font-size="12" fill="#3987CC" x="8" y="3.5999999999999996" font-family="Arial" class="sja_aa_disclabel" fill-opacity="1" transform="">p.Glu571Lys</text><circle r="6.5" stroke="#3987CC" class="sja_aa_disckick" fill="white" fill-opacity="0" stroke-opacity="0" transform="scale(1)"/><path d="M4.286263797015736e-16,-7L4.286263797015736e-16,-7Z" fill="#3987CC" class="sja_aa_discrim" fill-opacity="1" stroke-opacity="1"/></g><circle class="sja_aa_skkick" fill="white" fill-opacity="0" stroke="none" r="8" cy="7" transform="scale(0)"/><path class="sja_aa_stem" d="M0,0v-14l0.4701492537313925,-14v-23.799999999999997" stroke="#3987CC" fill="none"/><rect class="sja_aa_ssk_bg" shape-rendering="crispEdges" fill-opacity="0" height="14" fill="#3987CC" width="14" x="-7" transform="scale(1)" y="-14"/><text class="sja_aa_ssk_text" fill="white" fill-opacity="0" font-weight="bold" text-anchor="middle" dominant-baseline="central" font-size="14" transform="scale(1)" y="-7">2</text><rect class="sja_aa_ssk_kick" fill="white" fill-opacity="0" stroke="none" height="14" x="-7" width="14" transform="scale(1)" y="-14"/></g><g class="sja_skg" transform="translate(864.9375, 51.79999923706055)"><g transform="translate(0, 7)" class="sja_aa_discg"><circle fill="#9467bd" stroke="white" r="6.5"/><text font-size="12" fill="#9467bd" x="8" y="3.5999999999999996" font-family="Arial" class="sja_aa_disclabel" fill-opacity="1" transform="rotate(90)">c.2676G&gt;A(p.=)</text><circle r="6.5" stroke="#9467bd" class="sja_aa_disckick" fill="white" fill-opacity="0" stroke-opacity="0" transform="scale(1)"/><path d="M4.286263797015736e-16,-7L4.286263797015736e-16,-7Z" fill="#9467bd" class="sja_aa_discrim" fill-opacity="1" stroke-opacity="1"/></g><circle class="sja_aa_skkick" fill="white" fill-opacity="0" stroke="none" r="8" cy="7" transform="scale(0)"/><path class="sja_aa_stem" d="M0,0v-14l0.27394278606971056,-14v-23.799999999999997" stroke="#9467bd" fill="none"/></g><g class="sja_skg" transform="translate(913.9375, 51.79999923706055)"><g transform="translate(0, 7)" class="sja_aa_discg"><circle fill="#3987CC" stroke="white" r="6.5"/><text font-size="12" fill="#3987CC" x="8" y="3.5999999999999996" font-family="Arial" class="sja_aa_disclabel" fill-opacity="1" transform="scale(1) rotate(0)">p.Ala943Val</text><circle r="6.5" stroke="#3987CC" class="sja_aa_disckick" fill="white" fill-opacity="0" stroke-opacity="0" transform="scale(1)"/><path d="M4.286263797015736e-16,-7L4.286263797015736e-16,-7Z" fill="#3987CC" class="sja_aa_discrim" fill-opacity="1" stroke-opacity="1"/></g><circle class="sja_aa_skkick" fill="white" fill-opacity="0" stroke="none" r="8" cy="7" transform="scale(0)"/><path class="sja_aa_stem" d="M0,0v-14l0.4281716417910957,-14v-23.799999999999997" stroke="#3987CC" fill="none"/></g><g class="sja_skg" transform="translate(1033.9375, 51.79999923706055)"><g transform="translate(0, 7)" class="sja_aa_discg"><circle fill="#ff7f0e" stroke="white" r="6.5"/><text font-size="12" fill="#ff7f0e" x="8" y="3.5999999999999996" font-family="Arial" class="sja_aa_disclabel" fill-opacity="1" transform="rotate(90)">p.Ter1072GlnextTer27</text><circle r="6.5" stroke="#ff7f0e" class="sja_aa_disckick" fill="white" fill-opacity="0" stroke-opacity="0" transform="scale(1)"/><path d="M4.286263797015736e-16,-7L4.286263797015736e-16,-7Z" fill="#ff7f0e" class="sja_aa_discrim" fill-opacity="1" stroke-opacity="1"/></g><circle class="sja_aa_skkick" fill="white" fill-opacity="0" stroke="none" r="8" cy="7" transform="scale(0)"/><path class="sja_aa_stem" d="M0,0v-14l5.25404228855723,-14v-23.799999999999997" stroke="#ff7f0e" fill="none"/></g></g><g/><g transform="scale(0)"><rect fill="white" fill-opacity="0" width="1040" height="0"/><text data-testid="loading_message" fill="rgb(97, 124, 148)" fill-opacity="0" font-weight="bold" font-size="18px" text-anchor="middle" dominant-baseline="middle" x="520" y="15">Loading ...</text><line stroke="rgb(97, 124, 148)" stroke-width="2px" y1="30" y2="30" x2="0"/></g></g><g transform="translate(126.3671875, 0)"><text font-size="14" font-family="Arial" y="7" text-anchor="end" dominant-baseline="central" fill="black" x="-10" font-weight="bold">GAMBL DLBCL</text><g/><text font-size="14" font-family="Arial" y="26" text-anchor="end" dominant-baseline="central" class="sja_clbtext2" fill="black" x="-10">6 of 11 mutations</text></g><g transform="translate(1179.3671875, 0)"/></g><g data-testid="sja_sample_menu_opener" transform="translate(0, 386.4046936035156)"><g transform="translate(1169.3671875, 0)"/><g transform="translate(129.3671875, 0)"><rect fill="white" fill-opacity="0" width="1040" height="24"/><g transform="translate(0,0)" style="cursor: default;"/><g/><g transform="scale(0)"><rect fill="white" fill-opacity="0" width="1040" height="0"/><text data-testid="loading_message" fill="rgb(97, 124, 148)" fill-opacity="0" font-weight="bold" font-size="18px" text-anchor="middle" dominant-baseline="middle" x="520" y="15">Loading ...</text><line stroke="rgb(97, 124, 148)" stroke-width="2px" y1="30" y2="30" x2="0"/></g></g><g transform="translate(126.3671875, 0)"><text font-size="14" font-family="Arial" y="7" text-anchor="end" dominant-baseline="central" fill="black" x="-10" font-weight="bold">GAMBL FL</text><g/><text font-size="14" font-family="Arial" y="26" text-anchor="end" dominant-baseline="central" class="sja_clbtext2" fill="black" x="-10"/></g><g transform="translate(1179.3671875, 0)"/></g><g data-testid="sja_sample_menu_opener" transform="translate(0, 31)"><g transform="translate(1169.3671875, 0)"/><g transform="translate(129.3671875, 0)"><rect fill="white" fill-opacity="0" width="1040" height="112.5265625"/><g transform="translate(0,0)" style="cursor: default;"><g class="sja_skg" transform="translate(259.1915283203125, 78.7265625)"><g transform="translate(0, -7)" class="sja_aa_discg"><circle fill="#3987CC" stroke="white" r="6.5"/><text font-size="12" fill="#3987CC" x="8" y="3.5999999999999996" font-family="Arial" class="sja_aa_disclabel" fill-opacity="1" transform="scale(1) rotate(0)">p.Leu268Ile</text><circle r="6.5" stroke="#3987CC" class="sja_aa_disckick" fill="white" fill-opacity="0" stroke-opacity="0" transform="scale(1)"/><path d="M4.286263797015736e-16,-7L4.286263797015736e-16,-7Z" fill="#3987CC" class="sja_aa_discrim" fill-opacity="1" stroke-opacity="1"/></g><circle class="sja_aa_skkick" fill="white" fill-opacity="0" stroke="none" r="8" cy="-7" transform="scale(0)"/><path class="sja_aa_stem" d="M0,0v0l0,0v23.799999999999997" stroke="#3987CC" fill="none"/></g></g><g/><g transform="scale(0)"><rect fill="white" fill-opacity="0" width="1040" height="0"/><text data-testid="loading_message" fill="rgb(97, 124, 148)" fill-opacity="0" font-weight="bold" font-size="18px" text-anchor="middle" dominant-baseline="middle" x="520" y="15">Loading ...</text><line stroke="rgb(97, 124, 148)" stroke-width="2px" y1="30" y2="30" x2="0"/></g></g><g transform="translate(126.3671875, 0)"><text font-size="14" font-family="Arial" y="7" text-anchor="end" dominant-baseline="central" fill="black" x="-10" font-weight="bold">GAMBL BL</text><g/><text font-size="14" font-family="Arial" y="26" text-anchor="end" dominant-baseline="central" class="sja_clbtext2" fill="black" x="-10">1 of 6 mutations</text></g><g transform="translate(1179.3671875, 0)"/></g><g data-testid="sja_sample_menu_opener" transform="translate(0, 410.4046936035156)"><g transform="translate(1169.3671875, 0)"/><g transform="translate(129.3671875, 0)"><rect fill="white" fill-opacity="0" width="1040" height="116.7375"/><g transform="translate(0,0)" style="cursor: default;"><g class="sja_skg" transform="translate(553.1467895507812, 23.799999237060547)"><g transform="translate(0, 7)" class="sja_aa_discg"><circle fill="#3987CC" stroke="white" r="6.5"/><text font-size="12" fill="#3987CC" x="8" y="3.5999999999999996" font-family="Arial" class="sja_aa_disclabel" fill-opacity="1" transform="scale(1) rotate(0)">p.Glu571Lys</text><circle r="6.5" stroke="#3987CC" class="sja_aa_disckick" fill="white" fill-opacity="0" stroke-opacity="0" transform="scale(1)"/><path d="M4.286263797015736e-16,-7L4.286263797015736e-16,-7Z" fill="#3987CC" class="sja_aa_discrim" fill-opacity="1" stroke-opacity="1"/></g><circle class="sja_aa_skkick" fill="white" fill-opacity="0" stroke="none" r="8" cy="7" transform="scale(0)"/><path class="sja_aa_stem" d="M0,0v0l0,0v-23.799999999999997" stroke="#3987CC" fill="none"/></g></g><g/><g transform="scale(0)"><rect fill="white" fill-opacity="0" width="1040" height="0"/><text data-testid="loading_message" fill="rgb(97, 124, 148)" fill-opacity="0" font-weight="bold" font-size="18px" text-anchor="middle" dominant-baseline="middle" x="520" y="15">Loading ...</text><line stroke="rgb(97, 124, 148)" stroke-width="2px" y1="30" y2="30" x2="0"/></g></g><g transform="translate(126.3671875, 0)"><text font-size="14" font-family="Arial" y="7" text-anchor="end" dominant-baseline="central" fill="black" x="-10" font-weight="bold">GAMBL MCL</text><g/><text font-size="14" font-family="Arial" y="26" text-anchor="end" dominant-baseline="central" class="sja_clbtext2" fill="black" x="-10">1 of 3 mutations</text></g><g transform="translate(1179.3671875, 0)"/></g><g data-testid="sja_sample_menu_opener" transform="translate(0, 143.5265655517578)"><g transform="translate(1169.3671875, 0)"/><g transform="translate(129.3671875, 0)"><rect fill="white" fill-opacity="0" width="1040" height="47"/><g transform="translate(0,0)" style="cursor: default;"><g><line x1="0" y1="18.5" x2="1040.0000000000002" y2="18.5" stroke="black" shape-rendering="crispEdges"/><rect x="0" width="40.746268656716424" height="37" fill="white"/><rect x="13.582089552238807" width="27.164179104477615" height="37" fill="#8dd3c7"/><rect x="40.746268656716424" width="32.985074626865675" height="37" fill="white"/><rect x="40.746268656716424" width="32.985074626865675" height="37" fill="#8dd3c7"/><rect x="73.7313432835821" width="23.606965174129357" height="37" fill="white"/><rect x="73.7313432835821" width="23.606965174129357" height="37" fill="#8dd3c7"/><rect x="97.33830845771146" width="20.049751243781095" height="37" fill="white"/><rect x="97.33830845771146" width="20.049751243781095" height="37" fill="#8dd3c7"/><rect x="117.38805970149255" width="14.55223880597015" height="37" fill="white"/><rect x="117.38805970149255" width="14.55223880597015" height="37" fill="#8dd3c7"/><rect x="131.9402985074627" width="58.855721393034834" height="37" fill="white"/><rect x="131.9402985074627" width="58.855721393034834" height="37" fill="#8dd3c7"/><rect x="190.79601990049753" width="15.845771144278608" height="37" fill="white"/><rect x="190.79601990049753" width="15.845771144278608" height="37" fill="#8dd3c7"/><rect x="206.64179104477614" width="38.80597014925373" height="37" fill="white"/><rect x="206.64179104477614" width="38.80597014925373" height="37" fill="#8dd3c7"/><rect x="245.44776119402988" width="41.71641791044777" height="37" fill="white"/><rect x="245.44776119402988" width="41.71641791044777" height="37" fill="#8dd3c7"/><rect x="287.1641791044776" width="51.4179104477612" height="37" fill="white"/><rect x="287.1641791044776" width="51.4179104477612" height="37" fill="#8dd3c7"/><rect x="338.5820895522388" width="64.02985074626866" height="37" fill="white"/><rect x="338.5820895522388" width="64.02985074626866" height="37" fill="#8dd3c7"/><rect x="402.6119402985075" width="44.95024875621891" height="37" fill="white"/><rect x="402.6119402985075" width="44.95024875621891" height="37" fill="#8dd3c7"/><rect x="447.5621890547264" width="58.855721393034834" height="37" fill="white"/><rect x="447.5621890547264" width="58.855721393034834" height="37" fill="#8dd3c7"/><rect x="506.41791044776124" width="50.77114427860697" height="37" fill="white"/><rect x="506.41791044776124" width="50.77114427860697" height="37" fill="#8dd3c7"/><rect x="557.1890547263682" width="53.03482587064677" height="37" fill="white"/><rect x="557.1890547263682" width="53.03482587064677" height="37" fill="#8dd3c7"/><rect x="610.223880597015" width="43.65671641791045" height="37" fill="white"/><rect x="610.223880597015" width="43.65671641791045" height="37" fill="#8dd3c7"/><rect x="653.8805970149255" width="59.50248756218906" height="37" fill="white"/><rect x="653.8805970149255" width="59.50248756218906" height="37" fill="#8dd3c7"/><rect x="713.3830845771145" width="34.601990049751244" height="37" fill="white"/><rect x="713.3830845771145" width="34.601990049751244" height="37" fill="#8dd3c7"/><rect x="747.9850746268658" width="63.05970149253732" height="37" fill="white"/><rect x="747.9850746268658" width="63.05970149253732" height="37" fill="#8dd3c7"/><rect x="811.0447761194031" width="54.651741293532346" height="37" fill="white"/><rect x="811.0447761194031" width="54.651741293532346" height="37" fill="#8dd3c7"/><rect x="865.6965174129355" width="43.65671641791045" height="37" fill="white"/><rect x="865.6965174129355" width="43.65671641791045" height="37" fill="#8dd3c7"/><rect x="909.353233830846" width="51.74129353233831" height="37" fill="white"/><rect x="909.353233830846" width="51.74129353233831" height="37" fill="#8dd3c7"/><rect x="961.0945273631843" width="31.368159203980102" height="37" fill="white"/><rect x="961.0945273631843" width="31.368159203980102" height="37" fill="#8dd3c7"/><rect x="992.4626865671644" width="47.53731343283582" height="37" fill="white"/><rect x="992.4626865671644" width="20.373134328358212" height="37" fill="#8dd3c7"/><line x1="0" x2="1040.0000000000002" stroke="black"/><line x1="0" x2="1040.0000000000002" y1="37" y2="37" stroke="black"/><line x1="1040.0000000000002" x2="1040.0000000000002" y2="37" stroke="black"/><line x1="0" x2="0" y2="37" stroke="black"/><line class="exonboundaryclass" x1="40.746268656716424" x2="40.746268656716424" y1="0" y2="37" stroke="black" stroke-dasharray="4,2" shape-rendering="crispEdges" stroke-opacity="1"/><line class="exonboundaryclass" x1="73.7313432835821" x2="73.7313432835821" y1="0" y2="37" stroke="black" stroke-dasharray="4,2" shape-rendering="crispEdges" stroke-opacity="1"/><line class="exonboundaryclass" x1="97.33830845771146" x2="97.33830845771146" y1="0" y2="37" stroke="black" stroke-dasharray="4,2" shape-rendering="crispEdges" stroke-opacity="1"/><line class="exonboundaryclass" x1="117.38805970149255" x2="117.38805970149255" y1="0" y2="37" stroke="black" stroke-dasharray="4,2" shape-rendering="crispEdges" stroke-opacity="1"/><line class="exonboundaryclass" x1="131.9402985074627" x2="131.9402985074627" y1="0" y2="37" stroke="black" stroke-dasharray="4,2" shape-rendering="crispEdges" stroke-opacity="1"/><line class="exonboundaryclass" x1="190.79601990049753" x2="190.79601990049753" y1="0" y2="37" stroke="black" stroke-dasharray="4,2" shape-rendering="crispEdges" stroke-opacity="1"/><line class="exonboundaryclass" x1="206.64179104477614" x2="206.64179104477614" y1="0" y2="37" stroke="black" stroke-dasharray="4,2" shape-rendering="crispEdges" stroke-opacity="1"/><line class="exonboundaryclass" x1="245.44776119402988" x2="245.44776119402988" y1="0" y2="37" stroke="black" stroke-dasharray="4,2" shape-rendering="crispEdges" stroke-opacity="1"/><line class="exonboundaryclass" x1="287.1641791044776" x2="287.1641791044776" y1="0" y2="37" stroke="black" stroke-dasharray="4,2" shape-rendering="crispEdges" stroke-opacity="1"/><line class="exonboundaryclass" x1="338.5820895522388" x2="338.5820895522388" y1="0" y2="37" stroke="black" stroke-dasharray="4,2" shape-rendering="crispEdges" stroke-opacity="1"/><line class="exonboundaryclass" x1="402.6119402985075" x2="402.6119402985075" y1="0" y2="37" stroke="black" stroke-dasharray="4,2" shape-rendering="crispEdges" stroke-opacity="1"/><line class="exonboundaryclass" x1="447.5621890547264" x2="447.5621890547264" y1="0" y2="37" stroke="black" stroke-dasharray="4,2" shape-rendering="crispEdges" stroke-opacity="1"/><line class="exonboundaryclass" x1="506.41791044776124" x2="506.41791044776124" y1="0" y2="37" stroke="black" stroke-dasharray="4,2" shape-rendering="crispEdges" stroke-opacity="1"/><line class="exonboundaryclass" x1="557.1890547263682" x2="557.1890547263682" y1="0" y2="37" stroke="black" stroke-dasharray="4,2" shape-rendering="crispEdges" stroke-opacity="1"/><line class="exonboundaryclass" x1="610.223880597015" x2="610.223880597015" y1="0" y2="37" stroke="black" stroke-dasharray="4,2" shape-rendering="crispEdges" stroke-opacity="1"/><line class="exonboundaryclass" x1="653.8805970149255" x2="653.8805970149255" y1="0" y2="37" stroke="black" stroke-dasharray="4,2" shape-rendering="crispEdges" stroke-opacity="1"/><line class="exonboundaryclass" x1="713.3830845771145" x2="713.3830845771145" y1="0" y2="37" stroke="black" stroke-dasharray="4,2" shape-rendering="crispEdges" stroke-opacity="1"/><line class="exonboundaryclass" x1="747.9850746268658" x2="747.9850746268658" y1="0" y2="37" stroke="black" stroke-dasharray="4,2" shape-rendering="crispEdges" stroke-opacity="1"/><line class="exonboundaryclass" x1="811.0447761194031" x2="811.0447761194031" y1="0" y2="37" stroke="black" stroke-dasharray="4,2" shape-rendering="crispEdges" stroke-opacity="1"/><line class="exonboundaryclass" x1="865.6965174129355" x2="865.6965174129355" y1="0" y2="37" stroke="black" stroke-dasharray="4,2" shape-rendering="crispEdges" stroke-opacity="1"/><line class="exonboundaryclass" x1="909.353233830846" x2="909.353233830846" y1="0" y2="37" stroke="black" stroke-dasharray="4,2" shape-rendering="crispEdges" stroke-opacity="1"/><line class="exonboundaryclass" x1="961.0945273631843" x2="961.0945273631843" y1="0" y2="37" stroke="black" stroke-dasharray="4,2" shape-rendering="crispEdges" stroke-opacity="1"/><line class="exonboundaryclass" x1="992.4626865671644" x2="992.4626865671644" y1="0" y2="37" stroke="black" stroke-dasharray="4,2" shape-rendering="crispEdges" stroke-opacity="1"/><g transform="translate(0,18.5)" fill="none" font-size="10" font-family="sans-serif" text-anchor="middle"><path class="domain" stroke="none" d="M0.4850746268656717,0H1040.0000000000002" fill="none" stroke-width="0" shape-rendering="crispEdges"/><g class="tick" opacity="1" transform="translate(96.37489635157547,0)"><line stroke="black" y2="0" shape-rendering="crispEdges"/><text fill="black" y="3" dy="0.71em" font-family="Arial" font-size="11.666666666666666px" style="cursor: default;">100</text></g><g class="tick" opacity="1" transform="translate(193.45917471466197,0)"><line stroke="black" y2="0" shape-rendering="crispEdges"/><text fill="black" y="3" dy="0.71em" font-family="Arial" font-size="11.666666666666666px" style="cursor: default;">200</text></g><g class="tick" opacity="1" transform="translate(290.53224443818647,0)"><line stroke="black" y2="0" shape-rendering="crispEdges"/><text fill="black" y="3" dy="0.71em" font-family="Arial" font-size="11.666666666666666px" style="cursor: default;">300</text></g><g class="tick" opacity="1" transform="translate(387.2071460877431,0)"><line stroke="black" y2="0" shape-rendering="crispEdges"/><text fill="black" y="3" dy="0.71em" font-family="Arial" font-size="11.666666666666666px" style="cursor: default;">400</text></g><g class="tick" opacity="1" transform="translate(484.2873746023979,0)"><line stroke="black" y2="0" shape-rendering="crispEdges"/><text fill="black" y="3" dy="0.71em" font-family="Arial" font-size="11.666666666666666px" style="cursor: default;">500</text></g><g class="tick" opacity="1" transform="translate(581.3839891451833,0)"><line stroke="black" y2="0" shape-rendering="crispEdges"/><text fill="black" y="3" dy="0.71em" font-family="Arial" font-size="11.666666666666666px" style="cursor: default;">600</text></g><g class="tick" opacity="1" transform="translate(678.5531359595466,0)"><line stroke="black" y2="0" shape-rendering="crispEdges"/><text fill="black" y="3" dy="0.71em" font-family="Arial" font-size="11.666666666666666px" style="cursor: default;">700</text></g><g class="tick" opacity="1" transform="translate(775.4253731343284,0)"><line stroke="black" y2="0" shape-rendering="crispEdges"/><text fill="black" y="3" dy="0.71em" font-family="Arial" font-size="11.666666666666666px" style="cursor: default;">800</text></g><g class="tick" opacity="1" transform="translate(872.624101713654,0)"><line stroke="black" y2="0" shape-rendering="crispEdges"/><text fill="black" y="3" dy="0.71em" font-family="Arial" font-size="11.666666666666666px" style="cursor: default;">900</text></g><g class="tick" opacity="1" transform="translate(969.5318860244236,0)"><line stroke="black" y2="0" shape-rendering="crispEdges"/><text fill="black" y="3" dy="0.71em" font-family="Arial" font-size="11.666666666666666px" style="cursor: default;">1000</text></g></g><rect x="0" width="40.746268656716424" height="37" fill="#858585" fill-opacity="0"/><rect x="40.746268656716424" width="32.985074626865675" height="37" fill="#858585" fill-opacity="0"/><rect x="73.7313432835821" width="23.606965174129357" height="37" fill="#858585" fill-opacity="0"/><rect x="97.33830845771146" width="20.049751243781095" height="37" fill="#858585" fill-opacity="0"/><rect x="117.38805970149255" width="14.55223880597015" height="37" fill="#858585" fill-opacity="0"/><rect x="131.9402985074627" width="58.855721393034834" height="37" fill="#858585" fill-opacity="0"/><rect x="190.79601990049753" width="15.845771144278608" height="37" fill="#858585" fill-opacity="0"/><rect x="206.64179104477614" width="38.80597014925373" height="37" fill="#858585" fill-opacity="0"/><rect x="245.44776119402988" width="41.71641791044777" height="37" fill="#858585" fill-opacity="0"/><rect x="287.1641791044776" width="51.4179104477612" height="37" fill="#858585" fill-opacity="0"/><rect x="338.5820895522388" width="64.02985074626866" height="37" fill="#858585" fill-opacity="0"/><rect x="402.6119402985075" width="44.95024875621891" height="37" fill="#858585" fill-opacity="0"/><rect x="447.5621890547264" width="58.855721393034834" height="37" fill="#858585" fill-opacity="0"/><rect x="506.41791044776124" width="50.77114427860697" height="37" fill="#858585" fill-opacity="0"/><rect x="557.1890547263682" width="53.03482587064677" height="37" fill="#858585" fill-opacity="0"/><rect x="610.223880597015" width="43.65671641791045" height="37" fill="#858585" fill-opacity="0"/><rect x="653.8805970149255" width="59.50248756218906" height="37" fill="#858585" fill-opacity="0"/><rect x="713.3830845771145" width="34.601990049751244" height="37" fill="#858585" fill-opacity="0"/><rect x="747.9850746268658" width="63.05970149253732" height="37" fill="#858585" fill-opacity="0"/><rect x="811.0447761194031" width="54.651741293532346" height="37" fill="#858585" fill-opacity="0"/><rect x="865.6965174129355" width="43.65671641791045" height="37" fill="#858585" fill-opacity="0"/><rect x="909.353233830846" width="51.74129353233831" height="37" fill="#858585" fill-opacity="0"/><rect x="961.0945273631843" width="31.368159203980102" height="37" fill="#858585" fill-opacity="0"/><rect x="992.4626865671644" width="47.53731343283582" height="37" fill="#858585" fill-opacity="0"/></g></g><g/><g transform="scale(0)"><rect fill="white" fill-opacity="0"/><text data-testid="loading_message" fill="rgb(97, 124, 148)" fill-opacity="0" font-weight="bold" font-size="18px" text-anchor="middle" dominant-baseline="middle">Loading ...</text><line stroke="rgb(97, 124, 148)" stroke-width="2px"/></g></g><g transform="translate(126.3671875, 0)"><text font-size="14" font-family="Arial" y="7" text-anchor="end" dominant-baseline="central" fill="black" x="-10" font-weight="bold">XPO1</text><text font-size="14" font-family="Arial" y="20" text-anchor="end" dominant-baseline="central" fill="black" x="-10">NM_003400</text></g><g transform="translate(1179.3671875, 0)"><text fill="#aaa" font-family="Arial" font-size="14" y="14" class="sja_clbtext2"/></g></g></g><g transform="scale(0)"><rect fill="white"/><text id="loadinggCloak" fill="rgb(97, 124, 148)" fill-opacity="0" font-weight="bold" font-size="18px" text-anchor="middle" dominant-baseline="middle">Loading ...</text></g><g/><g transform="translate(128.3671875,542.1421875)"><g transform="translate(0,0)"><rect width="15" height="20" stroke="rgb(99, 148, 139)" fill="#8dd3c7" shape-rendering="crispEdges"/><text x="20" y="10" dominant-baseline="central" font-size="16" font-family="Arial" fill="black">CRM1</text><text x="75.3359375" y="10" dominant-baseline="central" font-size="12" font-family="Arial" fill="#858585">Importin beta-related nuclear transport receptor [Nuclear structure /  ...</text></g></g><g transform="translate(971.3671875,542.1421875)"><g transform="translate(0,0)"><circle cx="10" cy="10" r="10" fill="#998199"/><text x="30" y="10" dominant-baseline="central" font-size="16" font-family="Arial" fill="#998199">UTR_3, n=6</text></g><g transform="translate(0,23)"><circle cx="10" cy="10" r="10" fill="#3987CC"/><text x="30" y="10" dominant-baseline="central" font-size="16" font-family="Arial" fill="#3987CC">MISSENSE, n=6</text></g><g transform="translate(0,46)"><circle cx="10" cy="10" r="10" fill="#819981"/><text x="30" y="10" dominant-baseline="central" font-size="16" font-family="Arial" fill="#819981">UTR_5, n=5</text></g><g transform="translate(0,69)"><circle cx="10" cy="10" r="10" fill="#ff7f0e"/><text x="30" y="10" dominant-baseline="central" font-size="16" font-family="Arial" fill="#ff7f0e">NONSENSE, n=1</text></g><g transform="translate(0,92)"><circle cx="10" cy="10" r="10" fill="#9467bd"/><text x="30" y="10" dominant-baseline="central" font-size="16" font-family="Arial" fill="#9467bd">SPLICE_REGION, n=1</text></g><g transform="translate(0,115)"><circle cx="10" cy="10" r="10" fill="#92a2d4"/><text x="30" y="10" dominant-baseline="central" font-size="16" font-family="Arial" fill="#92a2d4">SNV, n=2</text></g></g></svg>