<svg xmlns="http://www.w3.org/2000/svg" width="1852.75390625" height="600.99609375" overflow="visible" viewBox="0 0 1852.75390625 600.99609375"><defs><clipPath id="ideogram_referenceFrame_0_guid_0qs3_clip_rect"><rect x="0" y="0" width="1747.998046875" height="15.99609375"/></clipPath><clipPath id="OdXuXSTkVIxe"><path fill="none" stroke="#000000" paint-order="fill stroke markers" d=" M 7.998046875 0.5 L 1740 0.5 Q 1747.498046875 0.5 1747.498046875 7.998046875 L 1747.498046875 7.998046875 Q 1747.498046875 15.49609375 1740 15.49609375 L 7.998046875 15.49609375 Q 0.5 15.49609375 0.5 7.998046875 L 0.5 7.998046875 Q 0.5 0.5 7.998046875 0.5 Z" stroke-miterlimit="10" stroke-dasharray=""/></clipPath><clipPath id="ruler_referenceFrame_0_guid_i995_clip_rect"><rect x="0" y="0" width="1747.998046875" height="40"/></clipPath><clipPath id="sequence_referenceFrame_0_guid_5urd_clip_rect"><rect x="0" y="0" width="1747.998046875" height="25"/></clipPath><clipPath id="1282E00332450HGVLNCCXY2_axis_guid_qtwn_clip_rect"><rect x="0" y="0" width="50" height="500"/></clipPath><clipPath id="1282E00332450HGVLNCCXY2_referenceFrame_0_guid_thzi_clip_rect"><rect x="0" y="0" width="1747.998046875" height="500"/></clipPath><clipPath id="1282E00332450HGVLNCCXY2_track_label_guid_ehar_clip_rect"><rect x="0" y="0" width="206.54296875" height="14.248046875"/></clipPath></defs><rect id="svg_output_backdrop" width="100%" height="100%" fill="white"/><g id="root-group"><g transform="translate(50,5)" clip-path="url(#OdXuXSTkVIxe)"><g><rect fill="rgb(255,255,255)" stroke="none" x="0" y="0" width="1747.998046875" height="15.99609375"/></g><path fill="none" stroke="none"/><g><rect fill="rgb(115,115,115)" stroke="none" x="151" y="1" width="50.3085917931638" height="13.99609375"/><rect fill="rgb(230,230,230)" stroke="none" x="201" y="1" width="40.63386260217075" height="13.99609375"/><rect fill="rgb(115,115,115)" stroke="none" x="242" y="1" width="42.56880844036934" height="13.99609375"/><rect fill="rgb(230,230,230)" stroke="none" x="284" y="1" width="38.69891676397219" height="13.99609375"/><rect fill="rgb(115,115,115)" stroke="none" x="323" y="1" width="87.07256271893732" height="13.99609375"/><rect fill="rgb(230,230,230)" stroke="none" x="410" y="1" width="58.04837514595823" height="13.99609375"/><rect fill="rgb(115,115,115)" stroke="none" x="468" y="1" width="83.20267104254015" height="13.99609375"/><rect fill="rgb(230,230,230)" stroke="none" x="551" y="1" width="131.57631699750527" height="13.99609375"/><path fill="rgb(150, 0, 0)" stroke="none" paint-order="stroke fill markers" d=" M 683.0358808841085 15.99609375 L 683.0358808841085 0 L 712.0600684570876 7.998046875 Z"/><path fill="rgb(150, 0, 0)" stroke="none" paint-order="stroke fill markers" d=" M 743.0192018682653 15.99609375 L 743.0192018682653 0 L 712.0600684570876 7.998046875 Z"/><rect fill="rgb(230,230,230)" stroke="none" x="743" y="1" width="166.40534208508018" height="13.99609375"/><rect fill="rgb(230,230,230)" stroke="none" x="909" y="1" width="108.35696693912212" height="13.99609375"/><rect fill="rgb(115,115,115)" stroke="none" x="1018" y="1" width="65.78815849875264" height="13.99609375"/><rect fill="rgb(230,230,230)" stroke="none" x="1084" y="1" width="25.15429589658197" height="13.99609375"/><rect fill="rgb(0,0,0)" stroke="none" x="1109" y="1" width="179.9499629524705" height="13.99609375"/><rect fill="rgb(230,230,230)" stroke="none" x="1289" y="1" width="81.26772520434133" height="13.99609375"/><rect fill="rgb(115,115,115)" stroke="none" x="1370" y="1" width="38.69891676397219" height="13.99609375"/><rect fill="rgb(230,230,230)" stroke="none" x="1409" y="1" width="25.15429589658197" height="13.99609375"/><rect fill="rgb(57,57,57)" stroke="none" x="1434" y="1" width="98.68223774812895" height="13.99609375"/><rect fill="rgb(230,230,230)" stroke="none" x="1532" y="1" width="46.43870011676654" height="13.99609375"/><rect fill="rgb(115,115,115)" stroke="none" x="1579" y="1" width="48.37364595496524" height="13.99609375"/><rect fill="rgb(230,230,230)" stroke="none" x="1627" y="1" width="56.11342930775959" height="13.99609375"/><rect fill="rgb(172,172,172)" stroke="none" x="1683" y="1" width="32.89407924937632" height="13.99609375"/><rect fill="rgb(230,230,230)" stroke="none" x="1716" y="1" width="31.70108839283489" height="13.99609375"/><path fill="none" stroke="rgb(41,41,41)" paint-order="fill stroke markers" d=" M 7.998046875 0.5 L 1740 0.5 Q 1747.498046875 0.5 1747.498046875 7.998046875 L 1747.498046875 7.998046875 Q 1747.498046875 15.49609375 1740 15.49609375 L 7.998046875 15.49609375 Q 0.5 15.49609375 0.5 7.998046875 L 0.5 7.998046875 Q 0.5 0.5 7.998046875 0.5 Z" stroke-miterlimit="10" stroke-dasharray=""/><g><rect fill="none" stroke="red" x="1307.5" y="0.5" width="1" height="14.99609375" stroke-miterlimit="10" stroke-dasharray=""/></g></g></g><g transform="translate(50,25.99609375)" clip-path="url(#ruler_referenceFrame_0_guid_i995_clip_rect)"><rect fill="#FFFFFF" stroke="none" x="0" y="0" width="1747.998046875" height="40"/><path fill="none" stroke="#000000" paint-order="fill stroke markers" d=" M 85.5 34.5 L 85.5 38.5" stroke-miterlimit="10" stroke-dasharray=""/><text fill="#000000" stroke="none" font-family="sans-serif" font-size="10px" font-style="normal" font-weight="normal" text-decoration="normal" x="160" y="32" text-anchor="start" dominant-baseline="alphabetic">67,568,290 bp</text><path fill="none" stroke="#000000" paint-order="fill stroke markers" d=" M 192.5 34.5 L 192.5 38.5" stroke-miterlimit="10" stroke-dasharray=""/><path fill="none" stroke="#000000" paint-order="fill stroke markers" d=" M 298.5 34.5 L 298.5 38.5" stroke-miterlimit="10" stroke-dasharray=""/><text fill="#000000" stroke="none" font-family="sans-serif" font-size="10px" font-style="normal" font-weight="normal" text-decoration="normal" x="373" y="32" text-anchor="start" dominant-baseline="alphabetic">67,568,295 bp</text><path fill="none" stroke="#000000" paint-order="fill stroke markers" d=" M 405.5 34.5 L 405.5 38.5" stroke-miterlimit="10" stroke-dasharray=""/><path fill="none" stroke="#000000" paint-order="fill stroke markers" d=" M 511.5 34.5 L 511.5 38.5" stroke-miterlimit="10" stroke-dasharray=""/><text fill="#000000" stroke="none" font-family="sans-serif" font-size="10px" font-style="normal" font-weight="normal" text-decoration="normal" x="586" y="32" text-anchor="start" dominant-baseline="alphabetic">67,568,300 bp</text><path fill="none" stroke="#000000" paint-order="fill stroke markers" d=" M 618.5 34.5 L 618.5 38.5" stroke-miterlimit="10" stroke-dasharray=""/><path fill="none" stroke="#000000" paint-order="fill stroke markers" d=" M 724.5 34.5 L 724.5 38.5" stroke-miterlimit="10" stroke-dasharray=""/><text fill="#000000" stroke="none" font-family="sans-serif" font-size="10px" font-style="normal" font-weight="normal" text-decoration="normal" x="799" y="32" text-anchor="start" dominant-baseline="alphabetic">67,568,305 bp</text><path fill="none" stroke="#000000" paint-order="fill stroke markers" d=" M 831.5 34.5 L 831.5 38.5" stroke-miterlimit="10" stroke-dasharray=""/><path fill="none" stroke="#000000" paint-order="fill stroke markers" d=" M 938.5 34.5 L 938.5 38.5" stroke-miterlimit="10" stroke-dasharray=""/><text fill="#000000" stroke="none" font-family="sans-serif" font-size="10px" font-style="normal" font-weight="normal" text-decoration="normal" x="1013" y="32" text-anchor="start" dominant-baseline="alphabetic">67,568,310 bp</text><path fill="none" stroke="#000000" paint-order="fill stroke markers" d=" M 1045.5 34.5 L 1045.5 38.5" stroke-miterlimit="10" stroke-dasharray=""/><path fill="none" stroke="#000000" paint-order="fill stroke markers" d=" M 1151.5 34.5 L 1151.5 38.5" stroke-miterlimit="10" stroke-dasharray=""/><text fill="#000000" stroke="none" font-family="sans-serif" font-size="10px" font-style="normal" font-weight="normal" text-decoration="normal" x="1226" y="32" text-anchor="start" dominant-baseline="alphabetic">67,568,315 bp</text><path fill="none" stroke="#000000" paint-order="fill stroke markers" d=" M 1258.5 34.5 L 1258.5 38.5" stroke-miterlimit="10" stroke-dasharray=""/><path fill="none" stroke="#000000" paint-order="fill stroke markers" d=" M 1364.5 34.5 L 1364.5 38.5" stroke-miterlimit="10" stroke-dasharray=""/><text fill="#000000" stroke="none" font-family="sans-serif" font-size="10px" font-style="normal" font-weight="normal" text-decoration="normal" x="1439" y="32" text-anchor="start" dominant-baseline="alphabetic">67,568,320 bp</text><path fill="none" stroke="#000000" paint-order="fill stroke markers" d=" M 1471.5 34.5 L 1471.5 38.5" stroke-miterlimit="10" stroke-dasharray=""/><path fill="none" stroke="#000000" paint-order="fill stroke markers" d=" M 1577.5 34.5 L 1577.5 38.5" stroke-miterlimit="10" stroke-dasharray=""/><text fill="#000000" stroke="none" font-family="sans-serif" font-size="10px" font-style="normal" font-weight="normal" text-decoration="normal" x="1652" y="32" text-anchor="start" dominant-baseline="alphabetic">67,568,325 bp</text><path fill="none" stroke="#000000" paint-order="fill stroke markers" d=" M 1684.5 34.5 L 1684.5 38.5" stroke-miterlimit="10" stroke-dasharray=""/><path fill="none" stroke="#000000" paint-order="fill stroke markers" d=" M 1790.5 34.5 L 1790.5 38.5" stroke-miterlimit="10" stroke-dasharray=""/><text fill="#000000" stroke="none" font-family="sans-serif" font-size="10px" font-style="normal" font-weight="normal" text-decoration="normal" x="1865" y="32" text-anchor="start" dominant-baseline="alphabetic">67,568,330 bp</text><path fill="none" stroke="#000000" paint-order="fill stroke markers" d=" M 1897.5 34.5 L 1897.5 38.5" stroke-miterlimit="10" stroke-dasharray=""/><path fill="none" stroke="#000000" paint-order="fill stroke markers" d=" M 2003.5 34.5 L 2003.5 38.5" stroke-miterlimit="10" stroke-dasharray=""/><path fill="none" stroke="#000000" paint-order="fill stroke markers" d=" M 0.5 38.5 L 1747.5 38.5" stroke-miterlimit="10" stroke-dasharray=""/></g><g transform="translate(50,70.99609375)" clip-path="url(#sequence_referenceFrame_0_guid_5urd_clip_rect)"><g><text fill="none" stroke="rgb(209,113,  5)" font-family="sans-serif" font-size="10px" font-style="normal" font-weight="normal" text-decoration="normal" x="17.427913014481707" y="15" text-anchor="start" dominant-baseline="alphabetic" stroke-miterlimit="10" stroke-dasharray="">G</text></g><g><text fill="none" stroke="rgb(  0,0,200)" font-family="sans-serif" font-size="10px" font-style="normal" font-weight="normal" text-decoration="normal" x="60.340379668445124" y="15" text-anchor="start" dominant-baseline="alphabetic" stroke-miterlimit="10" stroke-dasharray="">C</text></g><g><text fill="none" stroke="rgb(  0,0,200)" font-family="sans-serif" font-size="10px" font-style="normal" font-weight="normal" text-decoration="normal" x="102.97452600990853" y="15" text-anchor="start" dominant-baseline="alphabetic" stroke-miterlimit="10" stroke-dasharray="">C</text></g><g><text fill="none" stroke="rgb(  0, 200,   0)" font-family="sans-serif" font-size="10px" font-style="normal" font-weight="normal" text-decoration="normal" x="145.88455125762195" y="15" text-anchor="start" dominant-baseline="alphabetic" stroke-miterlimit="10" stroke-dasharray="">A</text></g><g><text fill="none" stroke="rgb(209,113,  5)" font-family="sans-serif" font-size="10px" font-style="normal" font-weight="normal" text-decoration="normal" x="187.96449838033536" y="15" text-anchor="start" dominant-baseline="alphabetic" stroke-miterlimit="10" stroke-dasharray="">G</text></g><g><text fill="none" stroke="rgb(209,113,  5)" font-family="sans-serif" font-size="10px" font-style="normal" font-weight="normal" text-decoration="normal" x="230.59864472179876" y="15" text-anchor="start" dominant-baseline="alphabetic" stroke-miterlimit="10" stroke-dasharray="">G</text></g><g><text fill="none" stroke="rgb(  0,0,200)" font-family="sans-serif" font-size="10px" font-style="normal" font-weight="normal" text-decoration="normal" x="273.5111113757622" y="15" text-anchor="start" dominant-baseline="alphabetic" stroke-miterlimit="10" stroke-dasharray="">C</text></g><g><text fill="none" stroke="rgb(255,0,0)" font-family="sans-serif" font-size="10px" font-style="normal" font-weight="normal" text-decoration="normal" x="316.7018983422256" y="15" text-anchor="start" dominant-baseline="alphabetic" stroke-miterlimit="10" stroke-dasharray="">T</text></g><g><text fill="none" stroke="rgb(209,113,  5)" font-family="sans-serif" font-size="10px" font-style="normal" font-weight="normal" text-decoration="normal" x="358.501083746189" y="15" text-anchor="start" dominant-baseline="alphabetic" stroke-miterlimit="10" stroke-dasharray="">G</text></g><g><text fill="none" stroke="rgb(209,113,  5)" font-family="sans-serif" font-size="10px" font-style="normal" font-weight="normal" text-decoration="normal" x="401.1352300876524" y="15" text-anchor="start" dominant-baseline="alphabetic" stroke-miterlimit="10" stroke-dasharray="">G</text></g><g><text fill="none" stroke="rgb(255,0,0)" font-family="sans-serif" font-size="10px" font-style="normal" font-weight="normal" text-decoration="normal" x="444.6043373666158" y="15" text-anchor="start" dominant-baseline="alphabetic" stroke-miterlimit="10" stroke-dasharray="">T</text></g><g><text fill="none" stroke="rgb(  0,0,200)" font-family="sans-serif" font-size="10px" font-style="normal" font-weight="normal" text-decoration="normal" x="486.68184308307923" y="15" text-anchor="start" dominant-baseline="alphabetic" stroke-miterlimit="10" stroke-dasharray="">C</text></g><g><text fill="none" stroke="rgb(255,0,0)" font-family="sans-serif" font-size="10px" font-style="normal" font-weight="normal" text-decoration="normal" x="529.8726300495426" y="15" text-anchor="start" dominant-baseline="alphabetic" stroke-miterlimit="10" stroke-dasharray="">T</text></g><g><text fill="none" stroke="rgb(209,113,  5)" font-family="sans-serif" font-size="10px" font-style="normal" font-weight="normal" text-decoration="normal" x="571.6718154535062" y="15" text-anchor="start" dominant-baseline="alphabetic" stroke-miterlimit="10" stroke-dasharray="">G</text></g><g><text fill="none" stroke="rgb(209,113,  5)" font-family="sans-serif" font-size="10px" font-style="normal" font-weight="normal" text-decoration="normal" x="614.3059617949696" y="15" text-anchor="start" dominant-baseline="alphabetic" stroke-miterlimit="10" stroke-dasharray="">G</text></g><g><text fill="none" stroke="rgb(  0, 200,   0)" font-family="sans-serif" font-size="10px" font-style="normal" font-weight="normal" text-decoration="normal" x="657.494307355183" y="15" text-anchor="start" dominant-baseline="alphabetic" stroke-miterlimit="10" stroke-dasharray="">A</text></g><g><text fill="none" stroke="rgb(  0, 200,   0)" font-family="sans-serif" font-size="10px" font-style="normal" font-weight="normal" text-decoration="normal" x="700.1284536966464" y="15" text-anchor="start" dominant-baseline="alphabetic" stroke-miterlimit="10" stroke-dasharray="">A</text></g><g><text fill="none" stroke="rgb(  0,0,200)" font-family="sans-serif" font-size="10px" font-style="normal" font-weight="normal" text-decoration="normal" x="742.4867211318598" y="15" text-anchor="start" dominant-baseline="alphabetic" stroke-miterlimit="10" stroke-dasharray="">C</text></g><g><text fill="none" stroke="rgb(255,0,0)" font-family="sans-serif" font-size="10px" font-style="normal" font-weight="normal" text-decoration="normal" x="785.6775080983232" y="15" text-anchor="start" dominant-baseline="alphabetic" stroke-miterlimit="10" stroke-dasharray="">T</text></g><g><text fill="none" stroke="rgb(  0,0,200)" font-family="sans-serif" font-size="10px" font-style="normal" font-weight="normal" text-decoration="normal" x="827.7550138147866" y="15" text-anchor="start" dominant-baseline="alphabetic" stroke-miterlimit="10" stroke-dasharray="">C</text></g><g><text fill="none" stroke="rgb(  0, 200,   0)" font-family="sans-serif" font-size="10px" font-style="normal" font-weight="normal" text-decoration="normal" x="870.6650390625" y="15" text-anchor="start" dominant-baseline="alphabetic" stroke-miterlimit="10" stroke-dasharray="">A</text></g><g><text fill="none" stroke="rgb(255,0,0)" font-family="sans-serif" font-size="10px" font-style="normal" font-weight="normal" text-decoration="normal" x="913.5799471227134" y="15" text-anchor="start" dominant-baseline="alphabetic" stroke-miterlimit="10" stroke-dasharray="">T</text></g><g><text fill="none" stroke="rgb(209,113,  5)" font-family="sans-serif" font-size="10px" font-style="normal" font-weight="normal" text-decoration="normal" x="955.3791325266768" y="15" text-anchor="start" dominant-baseline="alphabetic" stroke-miterlimit="10" stroke-dasharray="">G</text></g><g><text fill="none" stroke="rgb(  0, 200,   0)" font-family="sans-serif" font-size="10px" font-style="normal" font-weight="normal" text-decoration="normal" x="998.5674780868902" y="15" text-anchor="start" dominant-baseline="alphabetic" stroke-miterlimit="10" stroke-dasharray="">A</text></g><g><text fill="none" stroke="rgb(  0,0,200)" font-family="sans-serif" font-size="10px" font-style="normal" font-weight="normal" text-decoration="normal" x="1040.9257455221036" y="15" text-anchor="start" dominant-baseline="alphabetic" stroke-miterlimit="10" stroke-dasharray="">C</text></g><g><text fill="none" stroke="rgb(  0,0,200)" font-family="sans-serif" font-size="10px" font-style="normal" font-weight="normal" text-decoration="normal" x="1083.559891863567" y="15" text-anchor="start" dominant-baseline="alphabetic" stroke-miterlimit="10" stroke-dasharray="">C</text></g><g><text fill="none" stroke="rgb(255,0,0)" font-family="sans-serif" font-size="10px" font-style="normal" font-weight="normal" text-decoration="normal" x="1126.7506788300304" y="15" text-anchor="start" dominant-baseline="alphabetic" stroke-miterlimit="10" stroke-dasharray="">T</text></g><g><text fill="none" stroke="rgb(  0,0,200)" font-family="sans-serif" font-size="10px" font-style="normal" font-weight="normal" text-decoration="normal" x="1168.8281845464937" y="15" text-anchor="start" dominant-baseline="alphabetic" stroke-miterlimit="10" stroke-dasharray="">C</text></g><g><text fill="none" stroke="rgb(  0, 200,   0)" font-family="sans-serif" font-size="10px" font-style="normal" font-weight="normal" text-decoration="normal" x="1211.7382097942073" y="15" text-anchor="start" dominant-baseline="alphabetic" stroke-miterlimit="10" stroke-dasharray="">A</text></g><g><text fill="none" stroke="rgb(209,113,  5)" font-family="sans-serif" font-size="10px" font-style="normal" font-weight="normal" text-decoration="normal" x="1253.8181569169205" y="15" text-anchor="start" dominant-baseline="alphabetic" stroke-miterlimit="10" stroke-dasharray="">G</text></g><g><text fill="none" stroke="rgb(209,113,  5)" font-family="sans-serif" font-size="10px" font-style="normal" font-weight="normal" text-decoration="normal" x="1296.452303258384" y="15" text-anchor="start" dominant-baseline="alphabetic" stroke-miterlimit="10" stroke-dasharray="">G</text></g><g><text fill="none" stroke="rgb(255,0,0)" font-family="sans-serif" font-size="10px" font-style="normal" font-weight="normal" text-decoration="normal" x="1339.9214105373474" y="15" text-anchor="start" dominant-baseline="alphabetic" stroke-miterlimit="10" stroke-dasharray="">T</text></g><g><text fill="none" stroke="rgb(255,0,0)" font-family="sans-serif" font-size="10px" font-style="normal" font-weight="normal" text-decoration="normal" x="1382.5555568788109" y="15" text-anchor="start" dominant-baseline="alphabetic" stroke-miterlimit="10" stroke-dasharray="">T</text></g><g><text fill="none" stroke="rgb(  0, 200,   0)" font-family="sans-serif" font-size="10px" font-style="normal" font-weight="normal" text-decoration="normal" x="1424.9089415015242" y="15" text-anchor="start" dominant-baseline="alphabetic" stroke-miterlimit="10" stroke-dasharray="">A</text></g><g><text fill="none" stroke="rgb(255,0,0)" font-family="sans-serif" font-size="10px" font-style="normal" font-weight="normal" text-decoration="normal" x="1467.8238495617377" y="15" text-anchor="start" dominant-baseline="alphabetic" stroke-miterlimit="10" stroke-dasharray="">T</text></g><g><text fill="none" stroke="rgb(  0,0,200)" font-family="sans-serif" font-size="10px" font-style="normal" font-weight="normal" text-decoration="normal" x="1509.9013552782012" y="15" text-anchor="start" dominant-baseline="alphabetic" stroke-miterlimit="10" stroke-dasharray="">C</text></g><g><text fill="none" stroke="rgb(  0,0,200)" font-family="sans-serif" font-size="10px" font-style="normal" font-weight="normal" text-decoration="normal" x="1552.5355016196645" y="15" text-anchor="start" dominant-baseline="alphabetic" stroke-miterlimit="10" stroke-dasharray="">C</text></g><g><text fill="none" stroke="rgb(  0, 200,   0)" font-family="sans-serif" font-size="10px" font-style="normal" font-weight="normal" text-decoration="normal" x="1595.445526867378" y="15" text-anchor="start" dominant-baseline="alphabetic" stroke-miterlimit="10" stroke-dasharray="">A</text></g><g><text fill="none" stroke="rgb(  0,0,200)" font-family="sans-serif" font-size="10px" font-style="normal" font-weight="normal" text-decoration="normal" x="1637.8037943025913" y="15" text-anchor="start" dominant-baseline="alphabetic" stroke-miterlimit="10" stroke-dasharray="">C</text></g><g><text fill="none" stroke="rgb(  0,0,200)" font-family="sans-serif" font-size="10px" font-style="normal" font-weight="normal" text-decoration="normal" x="1680.4379406440548" y="15" text-anchor="start" dominant-baseline="alphabetic" stroke-miterlimit="10" stroke-dasharray="">C</text></g><g><text fill="none" stroke="rgb(  0,0,200)" font-family="sans-serif" font-size="10px" font-style="normal" font-weight="normal" text-decoration="normal" x="1723.0720869855181" y="15" text-anchor="start" dominant-baseline="alphabetic" stroke-miterlimit="10" stroke-dasharray="">C</text></g><g><text fill="none" stroke="rgb(  0, 200,   0)" font-family="sans-serif" font-size="10px" font-style="normal" font-weight="normal" text-decoration="normal" x="1765.9821122332316" y="15" text-anchor="start" dominant-baseline="alphabetic" stroke-miterlimit="10" stroke-dasharray="">A</text></g></g><g transform="translate(0,100.99609375)" clip-path="url(#1282E00332450HGVLNCCXY2_axis_guid_qtwn_clip_rect)"><g><rect fill="rgb(255, 255, 255)" stroke="none" x="0" y="0" width="50" height="50"/></g><g><path fill="none" stroke="black" paint-order="fill stroke markers" d=" M 39.5 0.5 L 47.5 0.5" stroke-miterlimit="10" stroke-dasharray=""/></g><g><text fill="#000000" stroke="none" font-family="Arial" font-size="10px" font-style="normal" font-weight="normal" text-decoration="normal" x="43.5" y="12.5" text-anchor="end" dominant-baseline="alphabetic">33</text></g><g><path fill="none" stroke="black" paint-order="fill stroke markers" d=" M 39.5 49.5 L 47.5 49.5" stroke-miterlimit="10" stroke-dasharray=""/></g><g><text fill="#000000" stroke="none" font-family="Arial" font-size="10px" font-style="normal" font-weight="normal" text-decoration="normal" x="43.5" y="45.5" text-anchor="end" dominant-baseline="alphabetic">0</text></g><g><path fill="none" stroke="black" paint-order="fill stroke markers" d=" M 47.5 0.5 L 47.5 49.5" stroke-miterlimit="10" stroke-dasharray=""/></g></g><g transform="translate(50,100.99609375)" clip-path="url(#1282E00332450HGVLNCCXY2_referenceFrame_0_guid_thzi_clip_rect)"><g><rect fill="rgb(255, 255, 255)" stroke="none" x="0" y="0" width="1747.998046875" height="500"/></g><rect fill="rgb(150, 150, 150)" stroke="none" x="0" y="9" width="43" height="41"/><rect fill="rgb(150, 150, 150)" stroke="none" x="42" y="11" width="43" height="39"/><rect fill="rgb(150, 150, 150)" stroke="none" x="85" y="11" width="43" height="39"/><rect fill="rgb(150, 150, 150)" stroke="none" x="127" y="12" width="43" height="38"/><rect fill="rgb(150, 150, 150)" stroke="none" x="170" y="9" width="43" height="41"/><rect fill="rgb(150, 150, 150)" stroke="none" x="213" y="9" width="43" height="41"/><rect fill="rgb(150, 150, 150)" stroke="none" x="255" y="8" width="43" height="42"/><rect fill="rgb(150, 150, 150)" stroke="none" x="298" y="11" width="43" height="39"/><rect fill="rgb(150, 150, 150)" stroke="none" x="341" y="11" width="43" height="39"/><rect fill="rgb(150, 150, 150)" stroke="none" x="383" y="3" width="43" height="47"/><rect fill="rgb(150, 150, 150)" stroke="none" x="426" y="3" width="43" height="47"/><rect fill="rgb(150, 150, 150)" stroke="none" x="468" y="6" width="43" height="44"/><rect fill="rgb(150, 150, 150)" stroke="none" x="511" y="6" width="43" height="44"/><rect fill="rgb(150, 150, 150)" stroke="none" x="554" y="6" width="43" height="44"/><rect fill="rgb(150, 150, 150)" stroke="none" x="596" y="6" width="43" height="44"/><rect fill="rgb(150, 150, 150)" stroke="none" x="639" y="6" width="43" height="44"/><rect fill="rgb(150, 150, 150)" stroke="none" x="682" y="6" width="43" height="44"/><rect fill="rgb(150, 150, 150)" stroke="none" x="724" y="6" width="43" height="44"/><rect fill="rgb(150, 150, 150)" stroke="none" x="767" y="6" width="43" height="44"/><rect fill="rgb(150, 150, 150)" stroke="none" x="810" y="6" width="43" height="44"/><rect fill="rgb(150, 150, 150)" stroke="none" x="852" y="5" width="43" height="45"/><rect fill="rgb(150, 150, 150)" stroke="none" x="895" y="5" width="43" height="45"/><rect fill="rgb(150, 150, 150)" stroke="none" x="937" y="8" width="43" height="42"/><rect fill="rgb(150, 150, 150)" stroke="none" x="980" y="9" width="43" height="41"/><rect fill="rgb(150, 150, 150)" stroke="none" x="1023" y="9" width="43" height="41"/><rect fill="rgb(150, 150, 150)" stroke="none" x="1065" y="9" width="43" height="41"/><rect fill="rgb(150, 150, 150)" stroke="none" x="1108" y="9" width="43" height="41"/><rect fill="rgb(150, 150, 150)" stroke="none" x="1151" y="11" width="43" height="39"/><rect fill="rgb(150, 150, 150)" stroke="none" x="1193" y="11" width="43" height="39"/><rect fill="rgb(150, 150, 150)" stroke="none" x="1236" y="9" width="43" height="41"/><rect fill="rgb(150, 150, 150)" stroke="none" x="1279" y="5" width="43" height="45"/><rect fill="rgb(150, 150, 150)" stroke="none" x="1321" y="8" width="43" height="42"/><rect fill="rgb(150, 150, 150)" stroke="none" x="1364" y="8" width="43" height="42"/><rect fill="rgb(150, 150, 150)" stroke="none" x="1406" y="5" width="43" height="45"/><rect fill="rgb(150, 150, 150)" stroke="none" x="1449" y="5" width="43" height="45"/><rect fill="rgb(150, 150, 150)" stroke="none" x="1492" y="5" width="43" height="45"/><rect fill="rgb(150, 150, 150)" stroke="none" x="1534" y="8" width="43" height="42"/><rect fill="rgb(150, 150, 150)" stroke="none" x="1577" y="8" width="43" height="42"/><rect fill="rgb(150, 150, 150)" stroke="none" x="1620" y="0" width="43" height="50"/><rect fill="rgb(150, 150, 150)" stroke="none" x="1662" y="0" width="43" height="50"/><rect fill="rgb(150, 150, 150)" stroke="none" x="1705" y="0" width="43" height="50"/><rect fill="rgb(150, 150, 150)" stroke="none" x="1748" y="0" width="43" height="50"/><rect fill="rgb(209,113,  5)" stroke="none" x="554" y="6" width="43" height="43.93939393939394"/><rect fill="rgb(  0, 200,   0)" stroke="none" x="554" y="50" width="43" height="0"/><rect fill="rgb(  0,0,200)" stroke="none" x="554" y="42" width="43" height="7.575757575757576"/><rect fill="rgb(255,0,0)" stroke="none" x="554" y="39" width="43" height="3.0303030303030303"/><rect fill="rgb(209,113,  5)" stroke="none" x="554" y="6" width="43" height="33.33333333333333"/><rect fill="rgb(255,0,0)" stroke="none" x="1364" y="8" width="43" height="42.42424242424242"/><rect fill="rgb(  0, 200,   0)" stroke="none" x="1364" y="50" width="43" height="0"/><rect fill="rgb(  0,0,200)" stroke="none" x="1364" y="48" width="43" height="1.5151515151515151"/><rect fill="rgb(255,0,0)" stroke="none" x="1364" y="15" width="43" height="33.33333333333333"/><rect fill="rgb(209,113,  5)" stroke="none" x="1364" y="8" width="43" height="7.575757575757576"/><g transform="translate(0,55)"><path fill="none" stroke="rgb(200, 0, 0)" paint-order="fill stroke markers" d=" M -2102691966.5 6.5 L 852.5 6.5" stroke-miterlimit="10" stroke-dasharray=""/><g><path fill="rgb(200, 0, 0)" stroke="none" paint-order="stroke fill markers" d=" M 7290 0 L 853 0 L 846 6 L 853 12 L 7290 12 L 7290 0 Z"/></g><g><text fill="none" stroke="rgb(  0,0,200)" font-family="sans-serif" font-size="10px" font-style="normal" font-weight="normal" text-decoration="normal" x="870.38916015625" y="9" text-anchor="start" dominant-baseline="alphabetic" stroke-miterlimit="10" stroke-dasharray="">C</text></g><g><text fill="none" stroke="rgb(  0,0,200)" font-family="sans-serif" font-size="10px" font-style="normal" font-weight="normal" text-decoration="normal" x="1381.9989162538109" y="9" text-anchor="start" dominant-baseline="alphabetic" stroke-miterlimit="10" stroke-dasharray="">C</text></g><g><text fill="none" stroke="rgb(209,113,  5)" font-family="sans-serif" font-size="10px" font-style="normal" font-weight="normal" text-decoration="normal" x="1594.891327648628" y="9" text-anchor="start" dominant-baseline="alphabetic" stroke-miterlimit="10" stroke-dasharray="">G</text></g><g><path fill="rgb(206, 61, 50)" stroke="none" paint-order="stroke fill markers" d=" M -213 14 L 6225 14 L 6232 20 L 6225 26 L -213 26 L -213 14 Z"/></g><g><path fill="rgb(185, 185, 185)" stroke="none" paint-order="stroke fill markers" d=" M -767 28 L 3155 28 L 3162 34 L 3155 40 L -767 40 L -767 28 Z"/></g><g><path fill="rgb(185, 185, 185)" stroke="none" paint-order="stroke fill markers" d=" M 3155 28 L -767 28 L -774 34 L -767 40 L 3155 40 L 3155 28 Z"/></g><g><path fill="rgb(185, 185, 185)" stroke="none" paint-order="stroke fill markers" d=" M 171 42 L 4306 42 L 4313 48 L 4306 54 L 171 54 L 171 42 Z"/></g><g><path fill="rgb(185, 185, 185)" stroke="none" paint-order="stroke fill markers" d=" M 4306 42 L 171 42 L 164 48 L 171 54 L 4306 54 L 4306 42 Z"/></g><g><path fill="rgb(185, 185, 185)" stroke="none" paint-order="stroke fill markers" d=" M 43 56 L -6395 56 L -6402 62 L -6395 68 L 43 68 L 43 56 Z"/></g><g><rect fill="rgb(185, 185, 185)" stroke="none" x="256" y="56" width="895.3170731707316" height="12"/></g><g><path fill="rgb(185, 185, 185)" stroke="none" paint-order="stroke fill markers" d=" M 1236 56 L 6779 56 L 6786 62 L 6779 68 L 1236 68 L 1236 56 Z"/></g><g><path fill="none" stroke="black" paint-order="fill stroke markers" d=" M 1151.5 62.5 L 1236.5 62.5" stroke-miterlimit="10" stroke-width="2" stroke-dasharray=""/></g><g><text fill="none" stroke="rgb(255,0,0)" font-family="sans-serif" font-size="10px" font-style="normal" font-weight="normal" text-decoration="normal" x="572.5067763910062" y="65" text-anchor="start" dominant-baseline="alphabetic" stroke-miterlimit="10" stroke-dasharray="">T</text></g><g><text fill="none" stroke="rgb(  0,0,200)" font-family="sans-serif" font-size="10px" font-style="normal" font-weight="normal" text-decoration="normal" x="870.38916015625" y="65" text-anchor="start" dominant-baseline="alphabetic" stroke-miterlimit="10" stroke-dasharray="">C</text></g><g><text fill="none" stroke="rgb(255,0,0)" font-family="sans-serif" font-size="10px" font-style="normal" font-weight="normal" text-decoration="normal" x="1254.6531178544205" y="65" text-anchor="start" dominant-baseline="alphabetic" stroke-miterlimit="10" stroke-dasharray="">T</text></g><g><text fill="none" stroke="rgb(209,113,  5)" font-family="sans-serif" font-size="10px" font-style="normal" font-weight="normal" text-decoration="normal" x="1381.7205959413109" y="65" text-anchor="start" dominant-baseline="alphabetic" stroke-miterlimit="10" stroke-dasharray="">G</text></g><g><path fill="rgb(185, 185, 185)" stroke="none" paint-order="stroke fill markers" d=" M 384 70 L 6821 70 L 6828 76 L 6821 82 L 384 82 L 384 70 Z"/></g><g><text fill="none" stroke="rgb(255,0,0)" font-family="sans-serif" font-size="10px" font-style="normal" font-weight="normal" text-decoration="normal" x="572.5067763910062" y="79" text-anchor="start" dominant-baseline="alphabetic" stroke-miterlimit="10" stroke-dasharray="">T</text></g><g><text fill="none" stroke="rgb(  0,0,200)" font-family="sans-serif" font-size="10px" font-style="normal" font-weight="normal" text-decoration="normal" x="870.38916015625" y="79" text-anchor="start" dominant-baseline="alphabetic" stroke-miterlimit="10" stroke-dasharray="">C</text></g><g><path fill="rgb(185, 185, 185)" stroke="none" paint-order="stroke fill markers" d=" M 8015 70 L 1620 70 L 1613 76 L 1620 82 L 8015 82 L 8015 70 Z"/></g><g><path fill="rgb(185, 185, 185)" stroke="none" paint-order="stroke fill markers" d=" M -5841 84 L 128 84 L 135 90 L 128 96 L -5841 96 L -5841 84 Z"/></g><g><path fill="rgb(185, 185, 185)" stroke="none" paint-order="stroke fill markers" d=" M 1919 84 L -4519 84 L -4526 90 L -4519 96 L 1919 96 L 1919 84 Z"/></g><g><path fill="rgb(185, 185, 185)" stroke="none" paint-order="stroke fill markers" d=" M -640 98 L 2302 98 L 2309 104 L 2302 110 L -640 110 L -640 98 Z"/></g><g><path fill="rgb(185, 185, 185)" stroke="none" paint-order="stroke fill markers" d=" M 2302 98 L -640 98 L -647 104 L -640 110 L 2302 110 L 2302 98 Z"/></g><g><path fill="rgb(185, 185, 185)" stroke="none" paint-order="stroke fill markers" d=" M -1279 112 L 298 112 L 305 118 L 298 124 L -1279 124 L -1279 112 Z"/></g><g><path fill="none" stroke="black" paint-order="fill stroke markers" d=" M -1321.5 118.5 L -1279.5 118.5" stroke-miterlimit="10" stroke-width="2" stroke-dasharray=""/></g><g><rect fill="rgb(185, 185, 185)" stroke="none" x="-1279" y="112" width="1577.4634146341464" height="12"/></g><g><path fill="none" stroke="black" paint-order="fill stroke markers" d=" M -1321.5 118.5 L -1279.5 118.5" stroke-miterlimit="10" stroke-width="2" stroke-dasharray=""/></g><g><path fill="rgb(185, 185, 185)" stroke="none" paint-order="stroke fill markers" d=" M 1279 112 L 3709 112 L 3716 118 L 3709 124 L 1279 124 L 1279 112 Z"/></g><g><text fill="none" stroke="rgb(209,113,  5)" font-family="sans-serif" font-size="10px" font-style="normal" font-weight="normal" text-decoration="normal" x="1381.7205959413109" y="121" text-anchor="start" dominant-baseline="alphabetic" stroke-miterlimit="10" stroke-dasharray="">G</text></g><g><path fill="rgb(185, 185, 185)" stroke="none" paint-order="stroke fill markers" d=" M 3709 112 L 1279 112 L 1272 118 L 1279 124 L 3709 124 L 3709 112 Z"/></g><g><text fill="none" stroke="rgb(209,113,  5)" font-family="sans-serif" font-size="10px" font-style="normal" font-weight="normal" text-decoration="normal" x="1381.7205959413109" y="121" text-anchor="start" dominant-baseline="alphabetic" stroke-miterlimit="10" stroke-dasharray="">G</text></g><g><path fill="rgb(185, 185, 185)" stroke="none" paint-order="stroke fill markers" d=" M -4263 126 L 2174 126 L 2181 132 L 2174 138 L -4263 138 L -4263 126 Z"/></g><g><path fill="rgb(185, 185, 185)" stroke="none" paint-order="stroke fill markers" d=" M 3453 126 L -2984 126 L -2991 132 L -2984 138 L 3453 138 L 3453 126 Z"/></g><g><path fill="rgb(185, 185, 185)" stroke="none" paint-order="stroke fill markers" d=" M -3496 140 L 1535 140 L 1542 146 L 1535 152 L -3496 152 L -3496 140 Z"/></g><g><text fill="none" stroke="rgb(  0,0,200)" font-family="sans-serif" font-size="10px" font-style="normal" font-weight="normal" text-decoration="normal" x="571.9501357660062" y="149" text-anchor="start" dominant-baseline="alphabetic" stroke-miterlimit="10" stroke-dasharray="">C</text></g><g><text fill="none" stroke="rgb(  0, 200,   0)" font-family="sans-serif" font-size="10px" font-style="normal" font-weight="normal" text-decoration="normal" x="614.8601610137196" y="149" text-anchor="start" dominant-baseline="alphabetic" stroke-miterlimit="10" stroke-dasharray="">A</text></g><g><text fill="none" stroke="rgb(  0,0,200)" font-family="sans-serif" font-size="10px" font-style="normal" font-weight="normal" text-decoration="normal" x="870.38916015625" y="149" text-anchor="start" dominant-baseline="alphabetic" stroke-miterlimit="10" stroke-dasharray="">C</text></g><g><text fill="none" stroke="rgb(  0, 200,   0)" font-family="sans-serif" font-size="10px" font-style="normal" font-weight="normal" text-decoration="normal" x="1254.3723561356705" y="149" text-anchor="start" dominant-baseline="alphabetic" stroke-miterlimit="10" stroke-dasharray="">A</text></g><g><text fill="none" stroke="rgb(209,113,  5)" font-family="sans-serif" font-size="10px" font-style="normal" font-weight="normal" text-decoration="normal" x="1381.7205959413109" y="149" text-anchor="start" dominant-baseline="alphabetic" stroke-miterlimit="10" stroke-dasharray="">G</text></g><g><path fill="rgb(185, 185, 185)" stroke="none" paint-order="stroke fill markers" d=" M 1535 140 L -3496 140 L -3503 146 L -3496 152 L 1535 152 L 1535 140 Z"/></g><g><text fill="none" stroke="rgb(  0,0,200)" font-family="sans-serif" font-size="10px" font-style="normal" font-weight="normal" text-decoration="normal" x="571.9501357660062" y="149" text-anchor="start" dominant-baseline="alphabetic" stroke-miterlimit="10" stroke-dasharray="">C</text></g><g><text fill="none" stroke="rgb(  0, 200,   0)" font-family="sans-serif" font-size="10px" font-style="normal" font-weight="normal" text-decoration="normal" x="614.8601610137196" y="149" text-anchor="start" dominant-baseline="alphabetic" stroke-miterlimit="10" stroke-dasharray="">A</text></g><g><text fill="none" stroke="rgb(  0,0,200)" font-family="sans-serif" font-size="10px" font-style="normal" font-weight="normal" text-decoration="normal" x="870.38916015625" y="149" text-anchor="start" dominant-baseline="alphabetic" stroke-miterlimit="10" stroke-dasharray="">C</text></g><g><text fill="none" stroke="rgb(  0, 200,   0)" font-family="sans-serif" font-size="10px" font-style="normal" font-weight="normal" text-decoration="normal" x="1254.3723561356705" y="149" text-anchor="start" dominant-baseline="alphabetic" stroke-miterlimit="10" stroke-dasharray="">A</text></g><g><text fill="none" stroke="rgb(209,113,  5)" font-family="sans-serif" font-size="10px" font-style="normal" font-weight="normal" text-decoration="normal" x="1381.7205959413109" y="149" text-anchor="start" dominant-baseline="alphabetic" stroke-miterlimit="10" stroke-dasharray="">G</text></g><g><path fill="rgb(185, 185, 185)" stroke="none" paint-order="stroke fill markers" d=" M 384 154 L 5756 154 L 5763 160 L 5756 166 L 384 166 L 384 154 Z"/></g><g><text fill="none" stroke="rgb(  0,0,200)" font-family="sans-serif" font-size="10px" font-style="normal" font-weight="normal" text-decoration="normal" x="571.9501357660062" y="163" text-anchor="start" dominant-baseline="alphabetic" stroke-miterlimit="10" stroke-dasharray="">C</text></g><g><path fill="rgb(185, 185, 185)" stroke="none" paint-order="stroke fill markers" d=" M 5756 154 L 384 154 L 377 160 L 384 166 L 5756 166 L 5756 154 Z"/></g><g><text fill="none" stroke="rgb(  0,0,200)" font-family="sans-serif" font-size="10px" font-style="normal" font-weight="normal" text-decoration="normal" x="571.9501357660062" y="163" text-anchor="start" dominant-baseline="alphabetic" stroke-miterlimit="10" stroke-dasharray="">C</text></g><g><path fill="rgb(185, 185, 185)" stroke="none" paint-order="stroke fill markers" d=" M -2601 168 L 2132 168 L 2139 174 L 2132 180 L -2601 180 L -2601 168 Z"/></g><g><path fill="rgb(185, 185, 185)" stroke="none" paint-order="stroke fill markers" d=" M 2132 168 L -2601 168 L -2608 174 L -2601 180 L 2132 180 L 2132 168 Z"/></g><g><path fill="rgb(185, 185, 185)" stroke="none" paint-order="stroke fill markers" d=" M -2345 182 L 1322 182 L 1329 188 L 1322 194 L -2345 194 L -2345 182 Z"/></g><g><path fill="rgb(185, 185, 185)" stroke="none" paint-order="stroke fill markers" d=" M 1322 182 L -2345 182 L -2352 188 L -2345 194 L 1322 194 L 1322 182 Z"/></g><g><path fill="rgb(185, 185, 185)" stroke="none" paint-order="stroke fill markers" d=" M 1620 182 L 6225 182 L 6232 188 L 6225 194 L 1620 194 L 1620 182 Z"/></g><g><path fill="rgb(185, 185, 185)" stroke="none" paint-order="stroke fill markers" d=" M 6225 182 L 1620 182 L 1613 188 L 1620 194 L 6225 194 L 6225 182 Z"/></g><g><path fill="rgb(185, 185, 185)" stroke="none" paint-order="stroke fill markers" d=" M -2174 196 L 469 196 L 476 202 L 469 208 L -2174 208 L -2174 196 Z"/></g><g><path fill="rgb(185, 185, 185)" stroke="none" paint-order="stroke fill markers" d=" M 469 196 L -2174 196 L -2181 202 L -2174 208 L 469 208 L 469 196 Z"/></g><g><path fill="rgb(185, 185, 185)" stroke="none" paint-order="stroke fill markers" d=" M 4519 196 L 1407 196 L 1400 202 L 1407 208 L 4519 208 L 4519 196 Z"/></g><g><path fill="rgb(185, 185, 185)" stroke="none" paint-order="stroke fill markers" d=" M 1407 196 L 4519 196 L 4526 202 L 4519 208 L 1407 208 L 1407 196 Z"/></g><g><path fill="rgb(185, 185, 185)" stroke="none" paint-order="stroke fill markers" d=" M -1407 210 L 938 210 L 945 216 L 938 222 L -1407 222 L -1407 210 Z"/></g><g><path fill="rgb(185, 185, 185)" stroke="none" paint-order="stroke fill markers" d=" M 938 210 L -1407 210 L -1414 216 L -1407 222 L 938 222 L 938 210 Z"/></g><g><path fill="rgb(185, 185, 185)" stroke="none" paint-order="stroke fill markers" d=" M 1620 210 L 7759 210 L 7766 216 L 7759 222 L 1620 222 L 1620 210 Z"/></g><g><path fill="rgb(185, 185, 185)" stroke="none" paint-order="stroke fill markers" d=" M 7759 210 L 1620 210 L 1613 216 L 1620 222 L 7759 222 L 7759 210 Z"/></g><g><path fill="rgb(116, 155, 88)" stroke="none" paint-order="stroke fill markers" d=" M 3155 224 L -1364 224 L -1371 230 L -1364 236 L 3155 236 L 3155 224 Z"/></g><g><text fill="none" stroke="rgb(  0,0,200)" font-family="sans-serif" font-size="10px" font-style="normal" font-weight="normal" text-decoration="normal" x="17.706233326981707" y="233" text-anchor="start" dominant-baseline="alphabetic" stroke-miterlimit="10" stroke-dasharray="">C</text></g><g><text fill="none" stroke="rgb(  0,0,200)" font-family="sans-serif" font-size="10px" font-style="normal" font-weight="normal" text-decoration="normal" x="571.9501357660062" y="233" text-anchor="start" dominant-baseline="alphabetic" stroke-miterlimit="10" stroke-dasharray="">C</text></g><g><path fill="rgb(185, 185, 185)" stroke="none" paint-order="stroke fill markers" d=" M -1023 238 L 4263 238 L 4270 244 L 4263 250 L -1023 250 L -1023 238 Z"/></g><g><path fill="rgb(185, 185, 185)" stroke="none" paint-order="stroke fill markers" d=" M 4263 238 L -1023 238 L -1030 244 L -1023 250 L 4263 250 L 4263 238 Z"/></g><g><path fill="rgb(185, 185, 185)" stroke="none" paint-order="stroke fill markers" d=" M 7717 252 L 1279 252 L 1272 258 L 1279 264 L 7717 264 L 7717 252 Z"/></g><g><path fill="rgb(185, 185, 185)" stroke="none" paint-order="stroke fill markers" d=" M -597 252 L 5841 252 L 5848 258 L 5841 264 L -597 264 L -597 252 Z"/></g><g><path fill="rgb(59,27,83)" stroke="none" paint-order="stroke fill markers" d=" M 981 266 L -597 266 L -604 272 L -597 278 L 981 278 L 981 266 Z" fill-opacity="0.15"/></g><g><path fill="none" stroke="rgb(59, 27, 83)" paint-order="fill stroke markers" d=" M 981 266 L -597 266 L -604 272 L -597 278 L 981 278 L 981 266 Z" stroke-miterlimit="10" stroke-dasharray=""/></g><g><path fill="rgb(185, 185, 185)" stroke="none" paint-order="stroke fill markers" d=" M 384 280 L 2856 280 L 2863 286 L 2856 292 L 384 292 L 384 280 Z"/></g><g><path fill="rgb(185, 185, 185)" stroke="none" paint-order="stroke fill markers" d=" M 2856 280 L 384 280 L 377 286 L 384 292 L 2856 292 L 2856 280 Z"/></g></g></g><g transform="translate(57.998046875,108.994140625)" clip-path="url(#1282E00332450HGVLNCCXY2_track_label_guid_ehar_clip_rect)"><rect fill="white" stroke="none" x="0" y="0" width="206.54296875" height="14.248046875"/><text fill="rgb(68, 68, 68)" stroke="none" font-family="Arial" font-size="12px" font-style="normal" font-weight="normal" text-decoration="normal" x="6.10546875" y="12.6744140625" text-anchor="start" dominant-baseline="alphabetic">1282.E00332:450:HGVLNCCXY:2</text><rect fill="none" stroke="rgb(68, 68, 68)" x="0" y="0" width="206.54296875" height="14.248046875" stroke-miterlimit="10" stroke-dasharray=""/></g></g></svg>