<svg aria-roledescription="sankey" role="graphics-document document" viewBox="0 0 800 1000" height="1000" xmlns:xlink="http://www.w3.org/1999/xlink" xmlns="http://www.w3.org/2000/svg" width="800" id="my-svg" style="background-color: white;"><style>#my-svg{font-family:"trebuchet ms",verdana,arial,sans-serif;font-size:33px;fill:#333;}#my-svg .error-icon{fill:hsl(220.5882352941, 100%, 98.3333333333%);}#my-svg .error-text{fill:rgb(8.5000000002, 5.7500000001, 0);stroke:rgb(8.5000000002, 5.7500000001, 0);}#my-svg .edge-thickness-normal{stroke-width:2px;}#my-svg .edge-thickness-thick{stroke-width:3.5px;}#my-svg .edge-pattern-solid{stroke-dasharray:0;}#my-svg .edge-pattern-dashed{stroke-dasharray:3;}#my-svg .edge-pattern-dotted{stroke-dasharray:2;}#my-svg .marker{fill:#0b0b0b;stroke:#0b0b0b;}#my-svg .marker.cross{stroke:#0b0b0b;}#my-svg svg{font-family:"trebuchet ms",verdana,arial,sans-serif;font-size:33px;}#my-svg :root{--mermaid-font-family:"trebuchet ms",verdana,arial,sans-serif;}</style><g/><g class="nodes"><g y="0" x="0" transform="translate(0,0)" id="node-1" class="node"><rect fill="#4e79a7" width="10" height="88.11475409836066"/></g><g y="11.4179916410294" x="263.3333333333333" transform="translate(263.3333333333333,11.4179916410294)" id="node-2" class="node"><rect fill="#f28e2c" width="10" height="119.8360655737705"/></g><g y="0" x="526.6666666666666" transform="translate(526.6666666666666,0)" id="node-3" class="node"><rect fill="#e15759" width="10" height="88.1147540983607"/></g><g y="21.729459856560368" x="790" transform="translate(790,21.729459856560368)" id="node-4" class="node"><rect fill="#76b7b2" width="10" height="352.45901639344254"/></g><g y="168.47236335291495" x="0" transform="translate(0,168.47236335291495)" id="node-5" class="node"><rect fill="#59a14f" width="10" height="479.3442622950821"/></g><g y="115.16393442622955" x="526.6666666666666" transform="translate(526.6666666666666,115.16393442622955)" id="node-6" class="node"><rect fill="#edc949" width="10" height="24.67213114754101"/></g><g y="384.1884762500029" x="790" transform="translate(790,384.1884762500029)" id="node-7" class="node"><rect fill="#af7aa1" width="10" height="507.5409836065573"/></g><g y="98.1147540983607" x="526.6666666666666" transform="translate(526.6666666666666,98.1147540983607)" id="node-8" class="node"><rect fill="#ff9da7" width="10" height="7.049180327868839"/></g><g y="150.05339945959565" x="263.3333333333333" transform="translate(263.3333333333333,150.05339945959565)" id="node-9" class="node"><rect fill="#9c755f" width="10" height="14.098360655737622"/></g><g y="149.83606557377055" x="526.6666666666666" transform="translate(526.6666666666666,149.83606557377055)" id="node-10" class="node"><rect fill="#bab0ab" width="10" height="14.098360655737679"/></g><g y="695.2214045211504" x="0" transform="translate(0,695.2214045211504)" id="node-11" class="node"><rect fill="#4e79a7" width="10" height="292.54098360655735"/></g><g y="687.4590163934424" x="263.3333333333333" transform="translate(263.3333333333333,687.4590163934424)" id="node-12" class="node"><rect fill="#f28e2c" width="10" height="140.98360655737702"/></g><g y="687.4590163934424" x="526.6666666666666" transform="translate(526.6666666666666,687.4590163934424)" id="node-13" class="node"><rect fill="#e15759" width="10" height="140.98360655737724"/></g><g y="233.31638919224474" x="263.3333333333333" transform="translate(263.3333333333333,233.31638919224474)" id="node-14" class="node"><rect fill="#76b7b2" width="10" height="66.9672131147542"/></g><g y="225.0819672131148" x="526.6666666666666" transform="translate(526.6666666666666,225.0819672131148)" id="node-15" class="node"><rect fill="#59a14f" width="10" height="66.96721311475403"/></g><g y="174.15176011533327" x="263.3333333333333" transform="translate(263.3333333333333,174.15176011533327)" id="node-16" class="node"><rect fill="#edc949" width="10" height="14.098360655737679"/></g><g y="173.93442622950823" x="526.6666666666666" transform="translate(526.6666666666666,173.93442622950823)" id="node-17" class="node"><rect fill="#af7aa1" width="10" height="7.049180327868839"/></g><g y="190.98360655737707" x="526.6666666666666" transform="translate(526.6666666666666,190.98360655737707)" id="node-18" class="node"><rect fill="#ff9da7" width="10" height="7.049180327868839"/></g><g y="322.0491803278686" x="263.3333333333333" transform="translate(263.3333333333333,322.0491803278686)" id="node-19" class="node"><rect fill="#9c755f" width="10" height="222.04918032786884"/></g><g y="302.04918032786884" x="526.6666666666666" transform="translate(526.6666666666666,302.04918032786884)" id="node-20" class="node"><rect fill="#bab0ab" width="10" height="10.573770491803316"/></g><g y="322.62295081967216" x="526.6666666666666" transform="translate(526.6666666666666,322.62295081967216)" id="node-21" class="node"><rect fill="#4e79a7" width="10" height="211.47540983606552"/></g><g y="554.0983606557375" x="263.3333333333333" transform="translate(263.3333333333333,554.0983606557375)" id="node-22" class="node"><rect fill="#f28e2c" width="10" height="123.36065573770497"/></g><g y="544.0983606557377" x="526.6666666666666" transform="translate(526.6666666666666,544.0983606557377)" id="node-23" class="node"><rect fill="#e15759" width="10" height="56.393442622950715"/></g><g y="610.4918032786884" x="526.6666666666666" transform="translate(526.6666666666666,610.4918032786884)" id="node-24" class="node"><rect fill="#76b7b2" width="10" height="66.96721311475403"/></g><g y="838.4426229508194" x="263.3333333333333" transform="translate(263.3333333333333,838.4426229508194)" id="node-25" class="node"><rect fill="#59a14f" width="10" height="70.49180327868862"/></g><g y="838.4426229508197" x="526.6666666666666" transform="translate(526.6666666666666,838.4426229508197)" id="node-26" class="node"><rect fill="#edc949" width="10" height="70.4918032786884"/></g><g y="216.2672088643759" x="263.3333333333333" transform="translate(263.3333333333333,216.2672088643759)" id="node-27" class="node"><rect fill="#af7aa1" width="10" height="7.049180327868839"/></g><g y="208.03278688524603" x="526.6666666666666" transform="translate(526.6666666666666,208.03278688524603)" id="node-28" class="node"><rect fill="#ff9da7" width="10" height="7.049180327868783"/></g><g y="918.9344262295081" x="263.3333333333333" transform="translate(263.3333333333333,918.9344262295081)" id="node-29" class="node"><rect fill="#9c755f" width="10" height="81.06557377049194"/></g><g y="918.9344262295081" x="526.6666666666666" transform="translate(526.6666666666666,918.9344262295081)" id="node-30" class="node"><rect fill="#bab0ab" width="10" height="81.06557377049194"/></g></g><g font-size="14" font-family="sans-serif" class="node-labels"><text text-anchor="start" dy="0.35em" y="44.05737704918033" x="16">RNA-seq/WGS</text><text text-anchor="start" dy="0.35em" y="71.33602442791465" x="279.3333333333333">2011</text><text text-anchor="end" dy="0.35em" y="44.05737704918035" x="520.6666666666666">morin 2011</text><text text-anchor="end" dy="0.35em" y="197.95896805328164" x="784">Tier 1 DLBCL genes</text><text text-anchor="start" dy="0.35em" y="408.144494500456" x="16">exome</text><text text-anchor="end" dy="0.35em" y="127.50000000000006" x="520.6666666666666">pasqualucci 2011a</text><text text-anchor="end" dy="0.35em" y="637.9589680532815" x="784">Tier 2 DLBCL genes</text><text text-anchor="end" dy="0.35em" y="101.63934426229513" x="520.6666666666666">pasqualucci 2011b</text><text text-anchor="start" dy="0.35em" y="157.10257978746446" x="279.3333333333333">2012 exome studies</text><text text-anchor="end" dy="0.35em" y="156.8852459016394" x="520.6666666666666">lohr 2012</text><text text-anchor="start" dy="0.35em" y="841.491896324429" x="16">WGS</text><text text-anchor="start" dy="0.35em" y="757.9508196721309" x="279.3333333333333">2013 WGS studies</text><text text-anchor="end" dy="0.35em" y="757.950819672131" x="520.6666666666666">morin 2013</text><text text-anchor="start" dy="0.35em" y="266.79999574962187" x="279.3333333333333">2013 exome studies</text><text text-anchor="end" dy="0.35em" y="258.5655737704918" x="520.6666666666666">zhang 2013</text><text text-anchor="start" dy="0.35em" y="181.20094044320211" x="279.3333333333333">2016 exome studies</text><text text-anchor="end" dy="0.35em" y="177.45901639344265" x="520.6666666666666">mareschal 2016</text><text text-anchor="end" dy="0.35em" y="194.5081967213115" x="520.6666666666666">morin 2016</text><text text-anchor="start" dy="0.35em" y="433.07377049180303" x="279.3333333333333">2017 exome studies</text><text text-anchor="end" dy="0.35em" y="307.3360655737705" x="520.6666666666666">albuquerque 2017</text><text text-anchor="end" dy="0.35em" y="428.3606557377049" x="520.6666666666666">reddy 2017</text><text text-anchor="start" dy="0.35em" y="615.7786885245899" x="279.3333333333333">2018 exome studies</text><text text-anchor="end" dy="0.35em" y="572.295081967213" x="520.6666666666666">schmitz 2018</text><text text-anchor="end" dy="0.35em" y="643.9754098360654" x="520.6666666666666">chapuy 2018</text><text text-anchor="start" dy="0.35em" y="873.6885245901638" x="279.3333333333333">2018 WGS studies</text><text text-anchor="end" dy="0.35em" y="873.6885245901639" x="520.6666666666666">arthur 2018</text><text text-anchor="start" dy="0.35em" y="219.79179902831032" x="279.3333333333333">2020-exome</text><text text-anchor="end" dy="0.35em" y="211.55737704918042" x="520.6666666666666">pararajalingam 2020</text><text text-anchor="start" dy="0.35em" y="959.467213114754" x="279.3333333333333">2021-WGS</text><text text-anchor="end" dy="0.35em" y="959.467213114754" x="520.6666666666666">hubschmann 2021</text></g><g stroke-opacity="0.5" fill="none" class="links"><g style="mix-blend-mode: multiply;" class="link"><path stroke-width="88.11475409836066" stroke="#f28e2c" d="M10,44.05737704918033C136.66666666666666,44.05737704918033,136.66666666666666,55.475368690209734,263.3333333333333,55.475368690209734"/></g><g style="mix-blend-mode: multiply;" class="link"><path stroke-width="88.11475409836066" stroke="#e15759" d="M273.3333333333333,55.475368690209734C400,55.475368690209734,400,44.05737704918033,526.6666666666666,44.05737704918033"/></g><g style="mix-blend-mode: multiply;" class="link"><path stroke-width="88.11475409836066" stroke="#76b7b2" d="M536.6666666666666,44.05737704918033C663.3333333333333,44.05737704918033,663.3333333333333,65.7868369057407,790,65.7868369057407"/></g><g style="mix-blend-mode: multiply;" class="link"><path stroke-width="31.721311475409838" stroke="#f28e2c" d="M10,184.33301909061987C136.66666666666666,184.33301909061987,136.66666666666666,115.39340147709498,263.3333333333333,115.39340147709498"/></g><g style="mix-blend-mode: multiply;" class="link"><path stroke-width="24.672131147540984" stroke="#edc949" d="M273.3333333333333,118.91799164102942C400,118.91799164102942,400,127.50000000000004,526.6666666666666,127.50000000000004"/></g><g style="mix-blend-mode: multiply;" class="link"><path stroke-width="17.62295081967213" stroke="#76b7b2" d="M536.6666666666666,123.97540983606561C663.3333333333333,123.97540983606561,663.3333333333333,125.70486969262595,790,125.70486969262595"/></g><g style="mix-blend-mode: multiply;" class="link"><path stroke-width="7.049180327868853" stroke="#af7aa1" d="M536.6666666666666,136.3114754098361C663.3333333333333,136.3114754098361,663.3333333333333,387.7130664139373,790,387.7130664139373"/></g><g style="mix-blend-mode: multiply;" class="link"><path stroke-width="7.049180327868853" stroke="#ff9da7" d="M273.3333333333333,103.05733590332449C400,103.05733590332449,400,101.63934426229513,526.6666666666666,101.63934426229513"/></g><g style="mix-blend-mode: multiply;" class="link"><path stroke-width="7.049180327868853" stroke="#76b7b2" d="M536.6666666666666,101.63934426229513C663.3333333333333,101.63934426229513,663.3333333333333,113.36880411885545,790,113.36880411885545"/></g><g style="mix-blend-mode: multiply;" class="link"><path stroke-width="14.098360655737705" stroke="#9c755f" d="M10,207.24285515619363C136.66666666666666,207.24285515619363,136.66666666666666,157.1025797874645,263.3333333333333,157.1025797874645"/></g><g style="mix-blend-mode: multiply;" class="link"><path stroke-width="14.098360655737705" stroke="#bab0ab" d="M273.3333333333333,157.1025797874645C400,157.1025797874645,400,156.8852459016394,526.6666666666666,156.8852459016394"/></g><g style="mix-blend-mode: multiply;" class="link"><path stroke-width="3.5245901639344264" stroke="#af7aa1" d="M536.6666666666666,162.17213114754105C663.3333333333333,162.17213114754105,663.3333333333333,392.999951659839,790,392.999951659839"/></g><g style="mix-blend-mode: multiply;" class="link"><path stroke-width="10.573770491803279" stroke="#76b7b2" d="M536.6666666666666,155.12295081967218C663.3333333333333,155.12295081967218,663.3333333333333,139.80323034836366,790,139.80323034836366"/></g><g style="mix-blend-mode: multiply;" class="link"><path stroke-width="140.98360655737704" stroke="#f28e2c" d="M10,765.7132077998389C136.66666666666666,765.7132077998389,136.66666666666666,757.9508196721309,263.3333333333333,757.9508196721309"/></g><g style="mix-blend-mode: multiply;" class="link"><path stroke-width="140.98360655737704" stroke="#e15759" d="M273.3333333333333,757.9508196721309C400,757.9508196721309,400,757.9508196721309,526.6666666666666,757.9508196721309"/></g><g style="mix-blend-mode: multiply;" class="link"><path stroke-width="102.21311475409837" stroke="#af7aa1" d="M536.6666666666666,777.3360655737703C663.3333333333333,777.3360655737703,663.3333333333333,731.3606073975438,790,731.3606073975438"/></g><g style="mix-blend-mode: multiply;" class="link"><path stroke-width="38.77049180327869" stroke="#76b7b2" d="M536.6666666666666,706.8442622950818C663.3333333333333,706.8442622950818,663.3333333333333,312.50814838115053,790,312.50814838115053"/></g><g style="mix-blend-mode: multiply;" class="link"><path stroke-width="66.9672131147541" stroke="#76b7b2" d="M10,268.92318302504606C136.66666666666666,268.92318302504606,136.66666666666666,266.7999957496218,263.3333333333333,266.7999957496218"/></g><g style="mix-blend-mode: multiply;" class="link"><path stroke-width="66.9672131147541" stroke="#59a14f" d="M273.3333333333333,266.7999957496218C400,266.7999957496218,400,258.5655737704919,526.6666666666666,258.5655737704919"/></g><g style="mix-blend-mode: multiply;" class="link"><path stroke-width="38.77049180327869" stroke="#76b7b2" d="M536.6666666666666,244.46721311475414C663.3333333333333,244.46721311475414,663.3333333333333,185.62290247951117,790,185.62290247951117"/></g><g style="mix-blend-mode: multiply;" class="link"><path stroke-width="28.19672131147541" stroke="#af7aa1" d="M536.6666666666666,277.95081967213116C663.3333333333333,277.95081967213116,663.3333333333333,408.86060739754384,790,408.86060739754384"/></g><g style="mix-blend-mode: multiply;" class="link"><path stroke-width="7.049180327868853" stroke="#edc949" d="M10,217.81662564799691C136.66666666666666,217.81662564799691,136.66666666666666,177.6763502792677,263.3333333333333,177.6763502792677"/></g><g style="mix-blend-mode: multiply;" class="link"><path stroke-width="7.049180327868853" stroke="#af7aa1" d="M273.3333333333333,177.6763502792677C400,177.6763502792677,400,177.45901639344265,526.6666666666666,177.45901639344265"/></g><g style="mix-blend-mode: multiply;" class="link"><path stroke-width="7.049180327868853" stroke="#76b7b2" d="M536.6666666666666,177.45901639344265C663.3333333333333,177.45901639344265,663.3333333333333,148.61470575819973,790,148.61470575819973"/></g><g style="mix-blend-mode: multiply;" class="link"><path stroke-width="7.049180327868853" stroke="#edc949" d="M10,224.86580597586575C136.66666666666666,224.86580597586575,136.66666666666666,184.72553060713653,263.3333333333333,184.72553060713653"/></g><g style="mix-blend-mode: multiply;" class="link"><path stroke-width="7.049180327868853" stroke="#ff9da7" d="M273.3333333333333,184.72553060713653C400,184.72553060713653,400,194.5081967213115,526.6666666666666,194.5081967213115"/></g><g style="mix-blend-mode: multiply;" class="link"><path stroke-width="7.049180327868853" stroke="#76b7b2" d="M536.6666666666666,194.5081967213115C663.3333333333333,194.5081967213115,663.3333333333333,155.66388608606857,790,155.66388608606857"/></g><g style="mix-blend-mode: multiply;" class="link"><path stroke-width="10.573770491803279" stroke="#bab0ab" d="M273.3333333333333,327.33606557377027C400,327.33606557377027,400,307.3360655737705,526.6666666666666,307.3360655737705"/></g><g style="mix-blend-mode: multiply;" class="link"><path stroke-width="10.573770491803279" stroke="#76b7b2" d="M536.6666666666666,307.3360655737705C663.3333333333333,307.3360655737705,663.3333333333333,210.29503362705216,790,210.29503362705216"/></g><g style="mix-blend-mode: multiply;" class="link"><path stroke-width="222.04918032786887" stroke="#9c755f" d="M10,413.43137974635755C136.66666666666666,413.43137974635755,136.66666666666666,433.07377049180303,263.3333333333333,433.07377049180303"/></g><g style="mix-blend-mode: multiply;" class="link"><path stroke-width="211.47540983606558" stroke="#4e79a7" d="M273.3333333333333,438.36065573770463C400,438.36065573770463,400,428.360655737705,526.6666666666666,428.360655737705"/></g><g style="mix-blend-mode: multiply;" class="link"><path stroke-width="176.22950819672133" stroke="#af7aa1" d="M536.6666666666666,445.9836065573771C663.3333333333333,445.9836065573771,663.3333333333333,511.07372215164224,790,511.07372215164224"/></g><g style="mix-blend-mode: multiply;" class="link"><path stroke-width="35.24590163934426" stroke="#76b7b2" d="M536.6666666666666,340.2459016393443C663.3333333333333,340.2459016393443,663.3333333333333,233.20486969262595,790,233.20486969262595"/></g><g style="mix-blend-mode: multiply;" class="link"><path stroke-width="123.36065573770492" stroke="#f28e2c" d="M10,586.1362977791445C136.66666666666666,586.1362977791445,136.66666666666666,615.7786885245899,263.3333333333333,615.7786885245899"/></g><g style="mix-blend-mode: multiply;" class="link"><path stroke-width="56.39344262295082" stroke="#e15759" d="M273.3333333333333,582.2950819672128C400,582.2950819672128,400,572.295081967213,526.6666666666666,572.295081967213"/></g><g style="mix-blend-mode: multiply;" class="link"><path stroke-width="24.672131147540984" stroke="#af7aa1" d="M536.6666666666666,588.155737704918C663.3333333333333,588.155737704918,663.3333333333333,611.5245418237733,790,611.5245418237733"/></g><g style="mix-blend-mode: multiply;" class="link"><path stroke-width="31.721311475409838" stroke="#76b7b2" d="M536.6666666666666,559.9590163934427C663.3333333333333,559.9590163934427,663.3333333333333,266.688476250003,790,266.688476250003"/></g><g style="mix-blend-mode: multiply;" class="link"><path stroke-width="66.9672131147541" stroke="#76b7b2" d="M273.3333333333333,643.9754098360653C400,643.9754098360653,400,643.9754098360654,526.6666666666666,643.9754098360654"/></g><g style="mix-blend-mode: multiply;" class="link"><path stroke-width="56.39344262295082" stroke="#af7aa1" d="M536.6666666666666,649.2622950819671C663.3333333333333,649.2622950819671,663.3333333333333,652.0573287090192,790,652.0573287090192"/></g><g style="mix-blend-mode: multiply;" class="link"><path stroke-width="10.573770491803279" stroke="#76b7b2" d="M536.6666666666666,615.77868852459C663.3333333333333,615.77868852459,663.3333333333333,287.8360172336096,790,287.8360172336096"/></g><g style="mix-blend-mode: multiply;" class="link"><path stroke-width="70.49180327868852" stroke="#59a14f" d="M10,871.4509127178717C136.66666666666666,871.4509127178717,136.66666666666666,873.6885245901638,263.3333333333333,873.6885245901638"/></g><g style="mix-blend-mode: multiply;" class="link"><path stroke-width="70.49180327868852" stroke="#edc949" d="M273.3333333333333,873.6885245901638C400,873.6885245901638,400,873.688524590164,526.6666666666666,873.688524590164"/></g><g style="mix-blend-mode: multiply;" class="link"><path stroke-width="42.295081967213115" stroke="#af7aa1" d="M536.6666666666666,887.7868852459015C663.3333333333333,887.7868852459015,663.3333333333333,803.6147057581995,790,803.6147057581995"/></g><g style="mix-blend-mode: multiply;" class="link"><path stroke-width="28.19672131147541" stroke="#76b7b2" d="M536.6666666666666,852.5409836065573C663.3333333333333,852.5409836065573,663.3333333333333,345.99175493852755,790,345.99175493852755"/></g><g style="mix-blend-mode: multiply;" class="link"><path stroke-width="7.049180327868853" stroke="#af7aa1" d="M10,231.9149863037346C136.66666666666666,231.9149863037346,136.66666666666666,219.79179902831032,263.3333333333333,219.79179902831032"/></g><g style="mix-blend-mode: multiply;" class="link"><path stroke-width="7.049180327868853" stroke="#ff9da7" d="M273.3333333333333,219.79179902831032C400,219.79179902831032,400,211.55737704918045,526.6666666666666,211.55737704918045"/></g><g style="mix-blend-mode: multiply;" class="link"><path stroke-width="7.049180327868853" stroke="#76b7b2" d="M536.6666666666666,211.55737704918045C663.3333333333333,211.55737704918045,663.3333333333333,162.7130664139374,790,162.7130664139374"/></g><g style="mix-blend-mode: multiply;" class="link"><path stroke-width="81.06557377049181" stroke="#9c755f" d="M10,947.2296012424617C136.66666666666666,947.2296012424617,136.66666666666666,959.4672131147539,263.3333333333333,959.4672131147539"/></g><g style="mix-blend-mode: multiply;" class="link"><path stroke-width="81.06557377049181" stroke="#bab0ab" d="M273.3333333333333,959.4672131147539C400,959.4672131147539,400,959.4672131147539,526.6666666666666,959.4672131147539"/></g><g style="mix-blend-mode: multiply;" class="link"><path stroke-width="14.098360655737705" stroke="#76b7b2" d="M536.6666666666666,925.9836065573769C663.3333333333333,925.9836065573769,663.3333333333333,367.1392959221341,790,367.1392959221341"/></g><g style="mix-blend-mode: multiply;" class="link"><path stroke-width="66.9672131147541" stroke="#af7aa1" d="M536.6666666666666,966.5163934426228C663.3333333333333,966.5163934426228,663.3333333333333,858.2458532991832,790,858.2458532991832"/></g></g></svg>